<?xml version="1.0" encoding="UTF-8" standalone="no"?>
<!-- Created with Inkscape (http://www.inkscape.org/) -->

<svg
   width="12.129mm"
   height="4.74613mm"
   viewBox="0 0 12.128999 4.74613"
   version="1.1"
   id="svg5"
   inkscape:version="1.2.2 (732a01da63, 2022-12-09)"
   sodipodi:docname="logo.svg"
   xmlns:inkscape="http://www.inkscape.org/namespaces/inkscape"
   xmlns:sodipodi="http://sodipodi.sourceforge.net/DTD/sodipodi-0.dtd"
   xmlns="http://www.w3.org/2000/svg"
   xmlns:svg="http://www.w3.org/2000/svg">
  <sodipodi:namedview
     id="namedview7"
     pagecolor="#ffffff"
     bordercolor="#000000"
     borderopacity="0.25"
     inkscape:showpageshadow="2"
     inkscape:pageopacity="0.0"
     inkscape:pagecheckerboard="0"
     inkscape:deskcolor="#d1d1d1"
     inkscape:document-units="mm"
     showgrid="false"
     inkscape:zoom="14.638496"
     inkscape:cx="45.66726"
     inkscape:cy="8.9490068"
     inkscape:window-width="2560"
     inkscape:window-height="1417"
     inkscape:window-x="-8"
     inkscape:window-y="-8"
     inkscape:window-maximized="1"
     inkscape:current-layer="layer1" />
  <defs
     id="defs2">
    <pattern
       id="EMFhbasepattern"
       patternUnits="userSpaceOnUse"
       width="6"
       height="6"
       x="0"
       y="0" />
    <pattern
       id="EMFhbasepattern-9"
       patternUnits="userSpaceOnUse"
       width="6"
       height="6"
       x="0"
       y="0" />
    <pattern
       id="EMFhbasepattern-0"
       patternUnits="userSpaceOnUse"
       width="6"
       height="6"
       x="0"
       y="0" />
  </defs>
  <g
     inkscape:label="Layer 1"
     inkscape:groupmode="layer"
     id="layer1"
     transform="translate(-86.756531,-138.56647)">
    <g
       id="g5398">
      <path
         style="fill:#000000;fill-opacity:1;stroke-width:0.263674"
         d="m 92.030009,141.86239 v -0.13183 h 0.131837 q 0.131837,0 0.230715,0.033 0.09888,0.033 0.131837,0.13183 0.03296,0.0989 0,0.19776 -0.03296,0.0989 -0.131837,0.13184 -0.09888,0.0329 -0.197756,0 -0.09888,-0.033 -0.131837,-0.13184 -0.03296,-0.0989 -0.03296,-0.23072"
         id="path5438" />
      <path
         style="fill:#000000;fill-opacity:1;stroke-width:0.263674"
         d="m 94.666748,141.33505 v -0.13184 h 0.131837 q 0.131837,0 0.230715,0.033 0.09888,0.033 0.131837,0.13184 0.03296,0.0989 0,0.19775 -0.03296,0.0989 -0.131837,0.13184 -0.09888,0.033 -0.230715,0.033 h -0.131837 v -0.13184 q 0,-0.13184 0,-0.26367"
         id="path5436" />
      <path
         style="fill:#000000;fill-opacity:1;stroke-width:0.263674"
         d="m 91.502661,141.33505 v -0.13184 h 0.131837 q 0.131837,0 0.230715,0.033 0.09888,0.033 0.131837,0.13184 0.03296,0.0989 0.03296,0.23071 v 0.13184 h -0.131837 q -0.131837,0 -0.230714,-0.033 -0.09888,-0.033 -0.131837,-0.13184 -0.03296,-0.0989 -0.03296,-0.23071"
         id="path5432" />
      <path
         style="fill:#000000;fill-opacity:1;stroke-width:0.263674"
         d="m 89.39327,141.33505 v -0.13184 h 0.131837 q 0.131837,0 0.230715,0.033 0.09888,0.033 0.131837,0.13184 0.03296,0.0989 0,0.19775 -0.03296,0.0989 -0.131837,0.13184 -0.09888,0.033 -0.230715,0.033 H 89.39327 v -0.13184 q 0,-0.13184 0,-0.26367"
         id="path5430" />
      <path
         style="fill:#000000;fill-opacity:1;stroke-width:0.263674"
         d="m 97.303488,140.28035 v -0.13184 h 0.131836 q 0.131837,0 0.230715,0.033 0.09888,0.033 0.131837,0.13184 0.03296,0.0989 0.03296,0.23071 0,0.13184 0,0.26368 0,0.13184 0,0.26367 0,0.13184 0,0.26368 0,0.13183 -0.03296,0.23071 -0.03296,0.0989 -0.131837,0.13184 -0.09888,0.033 -0.230715,0.033 h -0.131836 v -0.13184 q 0,-0.13184 0,-0.26367 0,-0.13184 0,-0.26368 0,-0.13183 0,-0.26367 0,-0.13184 0,-0.26368 0,-0.13183 0,-0.26367"
         id="path5426" />
      <path
         style="fill:#000000;fill-opacity:1;stroke-width:0.263674"
         d="m 94.666748,140.28035 v -0.13184 h 0.131837 q 0.131837,0 0.230715,0.033 0.09888,0.033 0.131837,0.13184 0.03296,0.0989 0,0.19776 -0.03296,0.0989 -0.131837,0.13183 -0.09888,0.033 -0.230715,0.033 h -0.131837 v -0.13184 q 0,-0.13183 0,-0.26367"
         id="path5422" />
      <path
         style="fill:#000000;fill-opacity:1;stroke-width:0.263674"
         d="m 91.535621,140.31331 q 0.03296,-0.0989 0.131837,-0.13184 0.09888,-0.033 0.230714,-0.033 h 0.131837 v 0.13184 q 0,0.13184 -0.03296,0.23072 -0.03296,0.0989 -0.131837,0.13183 -0.09888,0.033 -0.230715,0.033 H 91.50266 v -0.13184 q 0,-0.13183 0.03296,-0.23071"
         id="path5418" />
      <path
         style="fill:#000000;fill-opacity:1;stroke-width:0.263674"
         d="m 89.39327,140.28035 v -0.13184 h 0.131837 q 0.131837,0 0.230715,0.033 0.09888,0.033 0.131837,0.13184 0.03296,0.0989 0,0.19776 -0.03296,0.0989 -0.131837,0.13183 -0.09888,0.033 -0.230715,0.033 H 89.39327 v -0.13184 q 0,-0.13183 0,-0.26367"
         id="path5416" />
      <path
         style="fill:#000000;fill-opacity:1;stroke-width:0.263674"
         d="m 95.754403,139.78596 q 0.03296,-0.0989 0.131837,-0.13184 0.09888,-0.0329 0.230715,-0.0329 0.131837,0 0.263674,0 0.131837,0 0.263674,0 0.131837,0 0.263674,0 0.131837,0 0.230714,0.0329 0.09888,0.033 0.131837,0.13184 0.03296,0.0989 0.03296,0.23072 v 0.13183 h -0.131837 q -0.131837,0 -0.263674,0 -0.131837,0 -0.263674,0 -0.131837,0 -0.230715,0.033 -0.09888,0.033 -0.131837,0.13184 -0.03296,0.0989 -0.03296,0.23071 0,0.13184 0,0.26368 0,0.13184 0,0.26367 0,0.13184 0,0.26368 0,0.13183 0.03296,0.23071 0.03296,0.0989 0.131837,0.13184 0.09888,0.033 0.230715,0.033 0.131837,0 0.263674,0 0.131837,0 0.263674,0 h 0.131837 v 0.13183 q 0,0.13184 -0.03296,0.23072 -0.03296,0.0989 -0.131837,0.13184 -0.09888,0.0329 -0.230714,0.0329 -0.131837,0 -0.263674,0 -0.131837,0 -0.263674,0 -0.131837,0 -0.263674,0 -0.131837,0 -0.230715,-0.0329 -0.09888,-0.033 -0.131837,-0.13184 -0.03296,-0.0989 -0.03296,-0.23072 0,-0.13183 0,-0.26367 0,-0.13184 0,-0.26367 0,-0.13184 0,-0.26368 0,-0.13183 0,-0.26367 0,-0.13184 0,-0.26368 0,-0.13183 0,-0.26367 0,-0.13184 0,-0.26367 0,-0.13184 0.03296,-0.23072"
         id="path5412" />
      <path
         style="fill:#000000;fill-opacity:1;stroke-width:0.263674"
         d="m 93.117664,139.78596 q 0.03296,-0.0989 0.131837,-0.13184 0.09888,-0.0329 0.230715,-0.0329 0.131837,0 0.263674,0 0.131837,0 0.263674,0 0.131837,0 0.263674,0 0.131836,0 0.230714,0.0329 0.09888,0.033 0.131837,0.13184 0.03296,0.0989 0.03296,0.23072 v 0.13183 h -0.131837 q -0.131837,0 -0.263673,0 -0.131837,0 -0.263674,0 -0.131837,0 -0.230715,0.033 -0.09888,0.033 -0.131837,0.13184 -0.03296,0.0989 0,0.19776 0.03296,0.0989 0.131837,0.13183 0.09888,0.033 0.230715,0.033 0.131837,0 0.263674,0 0.131836,0 0.263673,0 h 0.131837 v 0.13184 q 0,0.13184 0,0.26367 v 0.13184 h -0.131837 q -0.131837,0 -0.263673,0 -0.131837,0 -0.263674,0 -0.131837,0 -0.230715,0.033 -0.09888,0.033 -0.131837,0.13184 -0.03296,0.0989 0,0.19775 0.03296,0.0989 0.131837,0.13184 0.09888,0.033 0.230715,0.033 0.131837,0 0.263674,0 0.131836,0 0.263673,0 h 0.131837 v 0.13183 q 0,0.13184 -0.03296,0.23072 -0.03296,0.0989 -0.131837,0.13184 -0.09888,0.0329 -0.230714,0.0329 -0.131837,0 -0.263674,0 -0.131837,0 -0.263674,0 -0.131837,0 -0.263674,0 -0.131837,0 -0.230715,-0.0329 -0.09888,-0.033 -0.131837,-0.13184 -0.03296,-0.0989 -0.03296,-0.23072 0,-0.13183 0,-0.26367 0,-0.13184 0,-0.26367 0,-0.13184 0,-0.26368 0,-0.13183 0,-0.26367 0,-0.13184 0,-0.26368 0,-0.13183 0,-0.26367 0,-0.13184 0,-0.26367 0,-0.13184 0.03296,-0.23072"
         id="path5410" />
      <path
         style="fill:#000000;fill-opacity:1;stroke-width:0.263674"
         d="m 92.062968,139.78596 q 0.03296,-0.0989 0.131837,-0.13184 0.09888,-0.0329 0.197756,0 0.09888,0.033 0.131837,0.13184 0.03296,0.0989 0,0.19776 -0.03296,0.0989 -0.131837,0.13183 -0.09888,0.033 -0.230715,0.033 h -0.131837 v -0.13183 q 0,-0.13184 0.03296,-0.23072"
         id="path5408" />
      <path
         style="fill:#000000;fill-opacity:1;stroke-width:0.263674"
         d="m 90.480925,139.78596 q 0.03296,-0.0989 0.131837,-0.13184 0.09888,-0.0329 0.197755,0 0.09888,0.033 0.131837,0.13184 0.03296,0.0989 0.03296,0.23072 0,0.13183 0,0.26367 0,0.13184 0.03296,0.23072 0.03296,0.0989 0.131837,0.13183 0.09888,0.033 0.230714,0.033 h 0.131837 v 0.13184 q 0,0.13184 0,0.26367 v 0.13184 h -0.131837 q -0.131836,0 -0.230714,0.033 -0.09888,0.033 -0.131837,0.13184 -0.03296,0.0989 -0.03296,0.23071 0,0.13184 0,0.26367 0,0.13184 -0.03296,0.23072 -0.03296,0.0989 -0.131837,0.13184 -0.09888,0.0329 -0.197755,0 -0.09888,-0.033 -0.131837,-0.13184 -0.03296,-0.0989 -0.03296,-0.23072 0,-0.13183 0,-0.26367 0,-0.13184 0,-0.26367 0,-0.13184 0,-0.26368 0,-0.13183 0,-0.26367 0,-0.13184 0,-0.26368 0,-0.13183 0,-0.26367 0,-0.13184 0,-0.26367 0,-0.13184 0.03296,-0.23072"
         id="path5406" />
      <path
         style="fill:#000000;fill-opacity:1;stroke-width:0.263674"
         d="m 87.844186,139.78596 q 0.03296,-0.0989 0.131837,-0.13184 0.09888,-0.0329 0.230715,-0.0329 0.131836,0 0.263673,0 0.131837,0 0.263674,0 0.131837,0 0.263674,0 0.131837,0 0.230715,0.0329 0.09888,0.033 0.131837,0.13184 0.03296,0.0989 0.03296,0.23072 v 0.13183 h -0.131837 q -0.131837,0 -0.263674,0 -0.131837,0 -0.263674,0 -0.131837,0 -0.230714,0.033 -0.09888,0.033 -0.131837,0.13184 -0.03296,0.0989 0,0.19776 0.03296,0.0989 0.131837,0.13183 0.09888,0.033 0.230714,0.033 0.131837,0 0.263674,0 0.131837,0 0.263674,0 h 0.131837 v 0.13184 q 0,0.13184 0,0.26367 v 0.13184 h -0.131837 q -0.131837,0 -0.263674,0 -0.131837,0 -0.263674,0 -0.131837,0 -0.230714,0.033 -0.09888,0.033 -0.131837,0.13184 -0.03296,0.0989 0,0.19775 0.03296,0.0989 0.131837,0.13184 0.09888,0.033 0.230714,0.033 0.131837,0 0.263674,0 0.131837,0 0.263674,0 h 0.131837 v 0.13183 q 0,0.13184 -0.03296,0.23072 -0.03296,0.0989 -0.131837,0.13184 -0.09888,0.0329 -0.230715,0.0329 -0.131837,0 -0.263674,0 -0.131837,0 -0.263674,0 -0.131837,0 -0.263673,0 -0.131837,0 -0.230715,-0.0329 -0.09888,-0.033 -0.131837,-0.13184 -0.03296,-0.0989 -0.03296,-0.23072 0,-0.13183 0,-0.26367 0,-0.13184 0,-0.26367 0,-0.13184 0,-0.26368 0,-0.13183 0,-0.26367 0,-0.13184 0,-0.26368 0,-0.13183 0,-0.26367 0,-0.13184 0,-0.26367 0,-0.13184 0.03296,-0.23072"
         id="path5404" />
      <path
         style="fill:#000000;fill-opacity:1;stroke-width:0.263674"
         d="m 86.756531,138.69831 v -0.13184 h 0.131837 0.131837 0.131837 0.131837 0.131837 0.131837 0.131837 0.131837 0.131837 0.131837 0.131837 0.131836 0.131837 0.131837 0.131837 0.131837 0.131837 0.131837 0.131837 0.131837 0.131837 0.131837 0.131837 0.131837 0.131837 0.131837 0.131837 0.131837 0.131837 0.131837 0.131837 0.131837 0.131837 0.131837 0.131836 0.131837 0.131837 0.131837 0.131837 0.131837 0.131837 0.131837 0.131837 0.131837 0.131837 0.131837 0.131837 0.131837 0.131837 0.131837 0.131837 0.131837 0.131837 0.131837 0.131837 0.131837 0.131837 0.131836 0.131837 0.131837 0.131837 0.131837 0.131837 0.131837 0.131837 0.131837 0.131837 0.131837 0.131837 0.131837 0.131837 0.131837 0.131837 0.131837 0.131837 0.131837 0.131837 0.131837 0.131837 0.131837 0.131836 0.131837 0.131837 0.131837 0.131837 0.131837 0.131837 0.131837 0.131837 0.131837 0.131837 0.131837 v 0.13184 0.13183 0.13184 0.13184 0.13183 0.13184 0.13184 0.13184 0.13183 0.13184 0.13184 0.13183 0.13184 0.13184 0.13183 0.13184 0.13184 0.13184 0.13183 0.13184 0.13184 0.13183 0.13184 0.13184 0.13183 0.13184 0.13184 0.13183 0.13184 0.13184 0.13184 0.13183 0.13184 0.13184 0.13183 0.13184 H 98.753694 98.621857 98.49002 98.358183 98.226346 98.094509 97.962672 97.830835 97.698998 97.567161 97.435324 97.303488 97.171651 97.039814 96.907977 96.77614 96.644303 96.512466 96.380629 96.248792 96.116955 95.985118 95.853281 95.721444 95.589607 95.45777 95.325933 95.194096 95.062259 94.930422 94.798585 94.666748 94.534911 94.403074 94.271238 94.139401 94.007564 93.875727 93.74389 93.612053 93.480216 93.348379 93.216542 93.084705 92.952868 92.821031 92.689194 92.557357 92.42552 92.293683 92.161846 92.030009 91.898172 91.766335 91.634498 91.502661 91.370824 91.238988 91.107151 90.975314 90.843477 90.71164 90.579803 90.447966 90.316129 90.184292 90.052455 89.920618 89.788781 89.656944 89.525107 89.39327 89.261433 89.129596 88.997759 88.865922 88.734085 88.602248 88.470411 88.338574 88.206738 88.074901 87.943064 87.811227 87.67939 87.547553 87.415716 87.283879 87.152042 87.020205 86.888368 86.756531 v -0.13184 -0.13183 -0.13184 -0.13184 -0.13183 -0.13184 -0.13184 -0.13184 -0.13183 -0.13184 -0.13184 -0.13183 -0.13184 -0.13184 -0.13183 -0.13184 -0.13184 -0.13183 -0.13184 -0.13184 -0.13184 -0.13183 -0.13184 -0.13184 -0.13183 -0.13184 -0.13184 -0.13183 -0.13184 -0.13184 -0.13184 -0.13183 -0.13184 -0.13184 -0.13183 m 10.942467,4.08694 q 0.131837,0 0.230715,-0.033 0.09888,-0.033 0.164796,-0.0989 0.06592,-0.0659 0.131837,-0.13184 0.06592,-0.0659 0.09888,-0.1648 0.03296,-0.0989 0.03296,-0.23071 0,-0.13184 0,-0.26368 0,-0.13183 0,-0.26367 0,-0.13184 0,-0.26367 0,-0.13184 0,-0.26368 0,-0.13183 0,-0.26367 0,-0.13184 0,-0.26368 0,-0.13183 0,-0.26367 0,-0.13184 0,-0.26367 0,-0.13184 0,-0.26368 0,-0.13183 -0.03296,-0.23071 -0.03296,-0.0989 -0.09888,-0.1648 -0.06592,-0.0659 -0.131837,-0.13184 -0.06592,-0.0659 -0.164796,-0.0989 -0.09888,-0.033 -0.230715,-0.033 -0.131837,0 -0.263674,0 -0.131836,0 -0.263673,0 -0.131837,0 -0.263674,0 -0.131837,0 -0.263674,0 -0.131837,0 -0.263674,0 -0.131837,0 -0.263674,0 -0.131837,0 -0.263674,0 -0.131837,0 -0.263674,0 -0.131837,0 -0.263674,0 -0.131837,0 -0.263674,0 -0.131837,0 -0.263674,0 -0.131837,0 -0.263674,0 -0.131837,0 -0.263673,0 -0.131837,0 -0.263674,0 -0.131837,0 -0.263674,0 -0.131837,0 -0.263674,0 -0.131837,0 -0.263674,0 -0.131837,0 -0.263674,0 -0.131837,0 -0.263674,0 -0.131837,0 -0.263674,0 -0.131837,0 -0.263674,0 -0.131837,0 -0.263674,0 -0.131837,0 -0.263674,0 -0.131837,0 -0.263674,0 -0.131836,0 -0.263673,0 -0.131837,0 -0.263674,0 -0.131837,0 -0.263674,0 -0.131837,0 -0.263674,0 -0.131837,0 -0.263674,0 -0.131837,0 -0.263674,0 -0.131837,0 -0.263674,0 -0.131837,0 -0.263674,0 -0.131837,0 -0.263674,0 -0.131837,0 -0.263674,0 -0.131837,0 -0.263674,0 -0.131837,0 -0.263673,0 -0.131837,0 -0.263674,0 -0.131837,0 -0.230715,0.033 -0.09888,0.033 -0.164796,0.0989 -0.06592,0.0659 -0.131837,0.13184 -0.06592,0.0659 -0.09888,0.1648 -0.03296,0.0989 -0.03296,0.23071 0,0.13184 0,0.26368 0,0.13183 0,0.26367 0,0.13184 0,0.26367 0,0.13184 0,0.26368 0,0.13184 0,0.26367 0,0.13184 0,0.26368 0,0.13183 0,0.26367 0,0.13184 0,0.26367 0,0.13184 0,0.26368 0,0.13183 0.03296,0.23071 0.03296,0.0989 0.09888,0.1648 0.06592,0.0659 0.131837,0.13184 0.06592,0.0659 0.164796,0.0989 0.09888,0.033 0.230715,0.033 0.131837,0 0.263674,0 0.131836,0 0.263673,0 0.131837,0 0.263674,0 0.131837,0 0.263674,0 0.131837,0 0.263674,0 0.131837,0 0.263674,0 0.131837,0 0.263674,0 0.131837,0 0.263674,0 0.131837,0 0.263674,0 0.131837,0 0.263674,0 0.131837,0 0.263674,0 0.131837,0 0.263674,0 0.131837,0 0.263673,0 0.131837,0 0.263674,0 0.131837,0 0.263674,0 0.131837,0 0.263674,0 0.131837,0 0.263674,0 0.131837,0 0.263674,0 0.131837,0 0.263674,0 0.131837,0 0.263674,0 0.131837,0 0.263674,0 0.131837,0 0.263674,0 0.131837,0 0.263674,0 0.131837,0 0.263674,0 0.131836,0 0.263673,0 0.131837,0 0.263674,0 0.131837,0 0.263674,0 0.131837,0 0.263674,0 0.131837,0 0.263674,0 0.131837,0 0.263674,0 0.131837,0 0.263674,0 0.131837,0 0.263674,0 0.131837,0 0.263674,0 0.131837,0 0.263674,0 0.131837,0 0.263674,0 0.131837,0 0.263673,0 0.131837,0 0.263674,0"
         id="path5400" />
    </g>
  </g>
</svg>
