<svg xmlns="http://www.w3.org/2000/svg" xmlns:xlink="http://www.w3.org/1999/xlink" width="377.953" viewBox="0 0 12.129 4.746" height="150" xmlns:v="https://vecta.io/nano"><path d="M5.273 3.296v-.132h.132q.132 0 .231.033.099.033.132.132.033.099 0 .198-.033.099-.132.132-.099.033-.198 0-.099-.033-.132-.132-.033-.099-.033-.231"/><use xlink:href="#B"/><path d="M4.746 2.769v-.132h.132q.132 0 .231.033.099.033.132.132.033.099.033.231v.132h-.132q-.132 0-.231-.033-.099-.033-.132-.132-.033-.099-.033-.231"/><use xlink:href="#C"/><path d="M10.546 1.714v-.132h.132q.132 0 .231.033.099.033.132.132.033.099.033.231 0 .132 0 .264 0 .132 0 .264 0 .132 0 .264 0 .132-.033.231-.033.099-.132.132-.099.033-.231.033h-.132v-.132q0-.132 0-.264 0-.132 0-.264 0-.132 0-.264 0-.132 0-.264 0-.132 0-.264"/><use xlink:href="#B" y="-1.055"/><path d="M4.779 1.747q.033-.099.132-.132.099-.033.231-.033h.132v.132q0 .132-.033.231-.033.099-.132.132-.099.033-.231.033h-.132v-.132q0-.132.033-.231"/><use xlink:href="#C" y="-1.055"/><path d="M8.997 1.22q.033-.099.132-.132.099-.033.231-.033.132 0 .264 0 .132 0 .264 0 .132 0 .264 0 .132 0 .231.033.099.033.132.132.033.099.033.231v.132h-.132q-.132 0-.264 0-.132 0-.264 0-.132 0-.231.033-.099.033-.132.132-.033.099-.033.231 0 .132 0 .264 0 .132 0 .264 0 .132 0 .264 0 .132.033.231.033.099.132.132.099.033.231.033.132 0 .264 0 .132 0 .264 0h.132v.132q0 .132-.033.231-.033.099-.132.132-.099.033-.231.033-.132 0-.264 0-.132 0-.264 0-.132 0-.264 0-.132 0-.231-.033-.099-.033-.132-.132-.033-.099-.033-.231 0-.132 0-.264 0-.132 0-.264 0-.132 0-.264 0-.132 0-.264 0-.132 0-.264 0-.132 0-.264 0-.132 0-.264 0-.132.033-.231"/><use xlink:href="#D"/><path d="M5.306 1.22q.033-.099.132-.132.099-.033.198 0 .099.033.132.132.033.099 0 .198-.033.099-.132.132-.099.033-.231.033h-.132v-.132q0-.132.033-.231m-1.582 0q.033-.099.132-.132.099-.033.198 0 .099.033.132.132.033.099.033.231 0 .132 0 .264 0 .132.033.231.033.099.132.132.099.033.231.033h.132v.132q0 .132 0 .264v.132h-.132q-.132 0-.231.033-.099.033-.132.132-.033.099-.033.231 0 .132 0 .264 0 .132-.033.231-.033.099-.132.132-.099.033-.198 0-.099-.033-.132-.132-.033-.099-.033-.231 0-.132 0-.264 0-.132 0-.264 0-.132 0-.264 0-.132 0-.264 0-.132 0-.264 0-.132 0-.264 0-.132 0-.264 0-.132.033-.231"/><use xlink:href="#D" x="-5.274"/><path d="M0 .132V0h.132.132.132.132.132.132.132.132.132.132.132.132.132.132.132.132.132.132.132.132.132.132.132.132.132.132.132.132.132.132.132.132.132.132.132.132.132.132.132.132.132.132.132.132.132.132.132.132.132.132.132.132.132.132.132.132.132.132.132.132.132.132.132.132.132.132.132.132.132.132.132.132.132.132.132.132.132.132.132.132.132.132.132.132.132.132.132.132.132.132.132.132v.132.132.132.132.132.132.132.132.132.132.132.132.132.132.132.132.132.132.132.132.132.132.132.132.132.132.132.132.132.132.132.132.132.132.132.132h-.132-.132-.132-.132-.132-.132-.132-.132-.132-.132-.132-.132-.132-.132-.132-.132-.132-.132-.132-.132-.132-.132-.132-.132-.132-.132-.132-.132-.132-.132-.132-.132-.132-.132-.132-.132-.132-.132-.132-.132-.132-.132-.132-.132-.132-.132-.132H5.8h-.132-.132-.132-.132-.132-.132-.132-.132-.132-.132-.132-.132-.132-.132-.132-.132-.132-.132-.132-.132-.132H2.9h-.132-.132-.132-.132-.132-.132-.132-.132-.132-.132-.132-.132-.132-.132-.132-.132-.132-.132-.132-.132-.132H0v-.132-.132-.132-.132-.132-.132-.132-.132-.132-.132-.132-.132-.132-.132-.132-.132-.132-.132-.132-.132-.132-.132-.132-.132-.132-.132-.132-.132-.132-.132V.66.528.396.264.132m10.942 4.087q.132 0 .231-.033.099-.033.165-.099.066-.066.132-.132.066-.066.099-.165.033-.099.033-.231 0-.132 0-.264 0-.132 0-.264 0-.132 0-.264 0-.132 0-.264 0-.132 0-.264 0-.132 0-.264 0-.132 0-.264 0-.132 0-.264 0-.132 0-.264 0-.132-.033-.231-.033-.099-.099-.165-.066-.066-.132-.132-.066-.066-.165-.099-.099-.033-.231-.033-.132 0-.264 0-.132 0-.264 0-.132 0-.264 0-.132 0-.264 0-.132 0-.264 0-.132 0-.264 0-.132 0-.264 0-.132 0-.264 0-.132 0-.264 0-.132 0-.264 0-.132 0-.264 0-.132 0-.264 0-.132 0-.264 0-.132 0-.264 0-.132 0-.264 0-.132 0-.264 0-.132 0-.264 0-.132 0-.264 0-.132 0-.264 0-.132 0-.264 0-.132 0-.264 0-.132 0-.264 0-.132 0-.264 0-.132 0-.264 0-.132 0-.264 0-.132 0-.264 0-.132 0-.264 0-.132 0-.264 0-.132 0-.264 0-.132 0-.264 0-.132 0-.264 0-.132 0-.264 0-.132 0-.264 0-.132 0-.264 0-.132 0-.264 0-.132 0-.264 0-.132 0-.264 0-.132 0-.231.033Q.856.594.791.66.725.725.659.791.593.857.56.956q-.033.099-.033.231 0 .132 0 .264 0 .132 0 .264 0 .132 0 .264 0 .132 0 .264 0 .132 0 .264 0 .132 0 .264 0 .132 0 .264 0 .132 0 .264 0 .132 0 .264 0 .132.033.231.033.099.099.165.066.066.132.132.066.066.165.099.099.033.231.033.132 0 .264 0 .132 0 .264 0 .132 0 .264 0 .132 0 .264 0 .132 0 .264 0 .132 0 .264 0 .132 0 .264 0 .132 0 .264 0 .132 0 .264 0 .132 0 .264 0 .132 0 .264 0 .132 0 .264 0 .132 0 .264 0 .132 0 .264 0 .132 0 .264 0 .132 0 .264 0 .132 0 .264 0 .132 0 .264 0 .132 0 .264 0 .132 0 .264 0 .132 0 .264 0 .132 0 .264 0 .132 0 .264 0 .132 0 .264 0 .132 0 .264 0 .132 0 .264 0 .132 0 .264 0 .132 0 .264 0 .132 0 .264 0 .132 0 .264 0 .132 0 .264 0 .132 0 .264 0 .132 0 .264 0 .132 0 .264 0 .132 0 .264 0 .132 0 .264 0 .132 0 .264 0"/><defs ><path id="B" d="M7.91 2.769v-.132h.132q.132 0 .231.033.099.033.132.132.033.099 0 .198-.033.099-.132.132-.099.033-.231.033H7.91v-.132q0-.132 0-.264"/><path id="C" d="M2.636 2.769v-.132h.132q.132 0 .231.033.099.033.132.132.033.099 0 .198-.033.099-.132.132-.099.033-.231.033h-.132v-.132q0-.132 0-.264"/><path id="D" d="M6.361 1.22q.033-.099.132-.132.099-.033.231-.033.132 0 .264 0 .132 0 .264 0 .132 0 .264 0 .132 0 .231.033.099.033.132.132.033.099.033.231v.132h-.132q-.132 0-.264 0-.132 0-.264 0-.132 0-.231.033-.099.033-.132.132-.033.099 0 .198.033.099.132.132.099.033.231.033.132 0 .264 0 .132 0 .264 0h.132v.132q0 .132 0 .264v.132h-.132q-.132 0-.264 0-.132 0-.264 0-.132 0-.231.033-.099.033-.132.132-.033.099 0 .198.033.099.132.132.099.033.231.033.132 0 .264 0 .132 0 .264 0h.132v.132q0 .132-.033.231-.033.099-.132.132-.099.033-.231.033-.132 0-.264 0-.132 0-.264 0-.132 0-.264 0-.132 0-.231-.033-.099-.033-.132-.132-.033-.099-.033-.231 0-.132 0-.264 0-.132 0-.264 0-.132 0-.264 0-.132 0-.264 0-.132 0-.264 0-.132 0-.264 0-.132 0-.264 0-.132.033-.231"/></defs></svg>