%FSLAX45Y45*%
G04 Gerber Fmt 4.5, Leading zero omitted, Abs format (unit mm)*
G04 Created by KiCad (PCBNEW (6.0.0-rc1-458-g78ff9a857a)) date 2022-12-04 21:39:38*
%MOMM*%
%LPD*%
G01*
G04 APERTURE LIST*
%TA.AperFunction,Profile*%
%ADD10C,0.050000*%
%TD*%
%TA.AperFunction,Profile*%
%ADD11C,0.100000*%
%TD*%
%ADD12C,0.200000*%
%ADD13C,0.040000*%
%ADD14C,0.050000*%
%ADD15C,0.060000*%
%ADD16C,0.076200*%
%ADD17C,0.080000*%
%ADD18C,0.099060*%
%ADD19C,0.100000*%
%ADD20C,0.101600*%
%ADD21C,0.110000*%
%ADD22C,0.120000*%
%ADD23C,0.170000*%
%ADD24C,0.300000*%
%ADD25C,0.304800*%
%ADD26C,0.350000*%
G04 APERTURE END LIST*
D10*
X39800000Y-10300000D02*
X39800000Y-7500000D01*
X32100000Y-17045000D02*
X32100000Y-17795000D01*
X32400000Y-18095000D02*
G75*
G03*
X32350000Y-18045000I-50000J0D01*
G01*
X33050000Y-18095000D02*
X33050000Y-18145000D01*
X32400000Y-18145000D02*
G75*
G03*
X32600000Y-18145000I100000J0D01*
G01*
X32600000Y-18095000D02*
G75*
G03*
X32350000Y-17845000I-250000J0D01*
G01*
X33150000Y-17045000D02*
G75*
G03*
X33100000Y-16995000I-50000J0D01*
G01*
D11*
X15260320Y-5779000D02*
X46293000Y-5777000D01*
X46293000Y-5777000D02*
X46291500Y-22479000D01*
X46291500Y-22479000D02*
X3073400Y-22479000D01*
X3073400Y-22479000D02*
X3073400Y-5778500D01*
X3073400Y-5778500D02*
X13495020Y-5778500D01*
X13495020Y-5778500D02*
X13495020Y-5143500D01*
X13495020Y-5143500D02*
X15260320Y-5143500D01*
X15260320Y-5143500D02*
X15260320Y-5779000D01*
D10*
X32300000Y-17795000D02*
G75*
G03*
X32350000Y-17845000I50000J0D01*
G01*
X32850000Y-18095000D02*
X32850000Y-18145000D01*
X4330000Y-12305000D02*
G75*
G03*
X4330000Y-12305000I-350000J0D01*
G01*
X39800000Y-7500000D02*
G75*
G03*
X39400000Y-7500000I-200000J-1434D01*
G01*
X33100000Y-17845000D02*
G75*
G03*
X32850000Y-18095000I0J-250000D01*
G01*
X33100000Y-18045000D02*
G75*
G03*
X33050000Y-18095000I0J-50000D01*
G01*
X33350000Y-17045000D02*
X33350000Y-17795000D01*
X36950000Y-17425000D02*
G75*
G03*
X36950000Y-17425000I-350000J0D01*
G01*
X33100000Y-16795000D02*
X32350000Y-16795000D01*
X32350000Y-16795000D02*
G75*
G03*
X32100000Y-17045000I0J-250000D01*
G01*
X32300000Y-17795000D02*
X32300000Y-17045000D01*
X39400000Y-7500000D02*
X39400000Y-10300000D01*
X33100000Y-18045000D02*
G75*
G03*
X33350000Y-17795000I0J250000D01*
G01*
X32400000Y-18145000D02*
X32400000Y-18095000D01*
X32600000Y-18145000D02*
X32600000Y-18095000D01*
X33150000Y-17045000D02*
X33150000Y-17795000D01*
X39400000Y-10300000D02*
G75*
G03*
X39800000Y-10300000I200000J0D01*
G01*
X36945000Y-12275000D02*
G75*
G03*
X36945000Y-12275000I-350000J0D01*
G01*
X32100000Y-17795000D02*
G75*
G03*
X32350000Y-18045000I250000J0D01*
G01*
X32850000Y-18145000D02*
G75*
G03*
X33050000Y-18145000I100000J0D01*
G01*
X32350000Y-16995000D02*
G75*
G03*
X32300000Y-17045000I0J-50000D01*
G01*
X33100000Y-17845000D02*
G75*
G03*
X33150000Y-17795000I0J50000D01*
G01*
X32350000Y-16995000D02*
X33100000Y-16995000D01*
X33350000Y-17045000D02*
G75*
G03*
X33100000Y-16795000I-250000J0D01*
G01*
D12*
D13*
X3472500Y-11321100D02*
X3512500Y-11361100D01*
X3512500Y-11321100D02*
X3472500Y-11361100D01*
X3472500Y-11892600D02*
X3512500Y-11932600D01*
X3512500Y-11892600D02*
X3472500Y-11932600D01*
X3715000Y-13953000D02*
X3755000Y-13993000D01*
X3755000Y-13953000D02*
X3715000Y-13993000D01*
X3739200Y-18128300D02*
X3779200Y-18168300D01*
X3779200Y-18128300D02*
X3739200Y-18168300D01*
X4053802Y-19596198D02*
X4093802Y-19636198D01*
X4093802Y-19596198D02*
X4053802Y-19636198D01*
X4234500Y-15791500D02*
X4274500Y-15831500D01*
X4274500Y-15791500D02*
X4234500Y-15831500D01*
X4500000Y-11680000D02*
X4540000Y-11720000D01*
X4540000Y-11680000D02*
X4500000Y-11720000D01*
X4668000Y-14434000D02*
X4708000Y-14474000D01*
X4708000Y-14434000D02*
X4668000Y-14474000D01*
X4884700Y-22024700D02*
X4924700Y-22064700D01*
X4924700Y-22024700D02*
X4884700Y-22064700D01*
X5320000Y-7910000D02*
X5360000Y-7950000D01*
X5360000Y-7910000D02*
X5320000Y-7950000D01*
X5520000Y-11960000D02*
X5560000Y-12000000D01*
X5560000Y-11960000D02*
X5520000Y-12000000D01*
X5560000Y-12100000D02*
X5600000Y-12140000D01*
X5600000Y-12100000D02*
X5560000Y-12140000D01*
X5610000Y-9655000D02*
X5650000Y-9695000D01*
X5650000Y-9655000D02*
X5610000Y-9695000D01*
X5611100Y-11050000D02*
X5651100Y-11090000D01*
X5651100Y-11050000D02*
X5611100Y-11090000D01*
X5670000Y-11880000D02*
X5710000Y-11920000D01*
X5710000Y-11880000D02*
X5670000Y-11920000D01*
X5720000Y-12370000D02*
X5760000Y-12410000D01*
X5760000Y-12370000D02*
X5720000Y-12410000D01*
X5790000Y-9560000D02*
X5830000Y-9600000D01*
X5830000Y-9560000D02*
X5790000Y-9600000D01*
X6100000Y-12410000D02*
X6140000Y-12450000D01*
X6140000Y-12410000D02*
X6100000Y-12450000D01*
X6270000Y-11760000D02*
X6310000Y-11800000D01*
X6310000Y-11760000D02*
X6270000Y-11800000D01*
X8240000Y-11860000D02*
X8280000Y-11900000D01*
X8280000Y-11860000D02*
X8240000Y-11900000D01*
X9301800Y-11875000D02*
X9341800Y-11915000D01*
X9341800Y-11875000D02*
X9301800Y-11915000D01*
X11260000Y-11895000D02*
X11300000Y-11935000D01*
X11300000Y-11895000D02*
X11260000Y-11935000D01*
X13115000Y-11915000D02*
X13155000Y-11955000D01*
X13155000Y-11915000D02*
X13115000Y-11955000D01*
X13188000Y-9987600D02*
X13228000Y-10027600D01*
X13228000Y-9987600D02*
X13188000Y-10027600D01*
X13215000Y-9300000D02*
X13255000Y-9340000D01*
X13255000Y-9300000D02*
X13215000Y-9340000D01*
X13251000Y-9763000D02*
X13291000Y-9803000D01*
X13291000Y-9763000D02*
X13251000Y-9803000D01*
X13320000Y-9594000D02*
X13360000Y-9634000D01*
X13360000Y-9594000D02*
X13320000Y-9634000D01*
X13400000Y-8010000D02*
X13440000Y-8050000D01*
X13440000Y-8010000D02*
X13400000Y-8050000D01*
X13870000Y-8930000D02*
X13910000Y-8970000D01*
X13910000Y-8930000D02*
X13870000Y-8970000D01*
X13883960Y-6949760D02*
X13923960Y-6989760D01*
X13923960Y-6949760D02*
X13883960Y-6989760D01*
X13920000Y-12400000D02*
X13960000Y-12440000D01*
X13960000Y-12400000D02*
X13920000Y-12440000D01*
X13980480Y-6949760D02*
X14020480Y-6989760D01*
X14020480Y-6949760D02*
X13980480Y-6989760D01*
X14038900Y-9568500D02*
X14078900Y-9608500D01*
X14078900Y-9568500D02*
X14038900Y-9608500D01*
X14077000Y-6949760D02*
X14117000Y-6989760D01*
X14117000Y-6949760D02*
X14077000Y-6989760D01*
X14090000Y-9480000D02*
X14130000Y-9520000D01*
X14130000Y-9480000D02*
X14090000Y-9520000D01*
X14094780Y-5902180D02*
X14134780Y-5942180D01*
X14134780Y-5902180D02*
X14094780Y-5942180D01*
X14094780Y-5992180D02*
X14134780Y-6032180D01*
X14134780Y-5992180D02*
X14094780Y-6032180D01*
X14173520Y-6949760D02*
X14213520Y-6989760D01*
X14213520Y-6949760D02*
X14173520Y-6989760D01*
X14200000Y-12120000D02*
X14240000Y-12160000D01*
X14240000Y-12120000D02*
X14200000Y-12160000D01*
X14420000Y-9752750D02*
X14460000Y-9792750D01*
X14460000Y-9752750D02*
X14420000Y-9792750D01*
X14420000Y-9870000D02*
X14460000Y-9910000D01*
X14460000Y-9870000D02*
X14420000Y-9910000D01*
X14530000Y-11200000D02*
X14570000Y-11240000D01*
X14570000Y-11200000D02*
X14530000Y-11240000D01*
X14535000Y-10995000D02*
X14575000Y-11035000D01*
X14575000Y-10995000D02*
X14535000Y-11035000D01*
X14545000Y-11920000D02*
X14585000Y-11960000D01*
X14585000Y-11920000D02*
X14545000Y-11960000D01*
X14550000Y-11583250D02*
X14590000Y-11623250D01*
X14590000Y-11583250D02*
X14550000Y-11623250D01*
X14560000Y-8270000D02*
X14600000Y-8310000D01*
X14600000Y-8270000D02*
X14560000Y-8310000D01*
X14560000Y-8370000D02*
X14600000Y-8410000D01*
X14600000Y-8370000D02*
X14560000Y-8410000D01*
X14564680Y-5901460D02*
X14604680Y-5941460D01*
X14604680Y-5901460D02*
X14564680Y-5941460D01*
X14564680Y-5991460D02*
X14604680Y-6031460D01*
X14604680Y-5991460D02*
X14564680Y-6031460D01*
X15205000Y-11010000D02*
X15245000Y-11050000D01*
X15245000Y-11010000D02*
X15205000Y-11050000D01*
X15220000Y-7780000D02*
X15260000Y-7820000D01*
X15260000Y-7780000D02*
X15220000Y-7820000D01*
X15220000Y-9660000D02*
X15260000Y-9700000D01*
X15260000Y-9660000D02*
X15220000Y-9700000D01*
X15304758Y-9607027D02*
X15344758Y-9647027D01*
X15344758Y-9607027D02*
X15304758Y-9647027D01*
X15483000Y-9749000D02*
X15523000Y-9789000D01*
X15523000Y-9749000D02*
X15483000Y-9789000D01*
X15600000Y-9600000D02*
X15640000Y-9640000D01*
X15640000Y-9600000D02*
X15600000Y-9640000D01*
X15676000Y-10034000D02*
X15716000Y-10074000D01*
X15716000Y-10034000D02*
X15676000Y-10074000D01*
X16285000Y-11943950D02*
X16325000Y-11983950D01*
X16325000Y-11943950D02*
X16285000Y-11983950D01*
X16413000Y-11473000D02*
X16453000Y-11513000D01*
X16453000Y-11473000D02*
X16413000Y-11513000D01*
X18330000Y-11474000D02*
X18370000Y-11514000D01*
X18370000Y-11474000D02*
X18330000Y-11514000D01*
X18801400Y-10698800D02*
X18841400Y-10738800D01*
X18841400Y-10698800D02*
X18801400Y-10738800D01*
X20162000Y-11472000D02*
X20202000Y-11512000D01*
X20202000Y-11472000D02*
X20162000Y-11512000D01*
X20706400Y-10698800D02*
X20746400Y-10738800D01*
X20746400Y-10698800D02*
X20706400Y-10738800D01*
X20998000Y-12749124D02*
X21038000Y-12789124D01*
X21038000Y-12749124D02*
X20998000Y-12789124D01*
X21004699Y-12649398D02*
X21044699Y-12689398D01*
X21044699Y-12649398D02*
X21004699Y-12689398D01*
X21133000Y-14828000D02*
X21173000Y-14868000D01*
X21173000Y-14828000D02*
X21133000Y-14868000D01*
X21136977Y-16629700D02*
X21176977Y-16669700D01*
X21176977Y-16629700D02*
X21136977Y-16669700D01*
X21145000Y-12170050D02*
X21185000Y-12210050D01*
X21185000Y-12170050D02*
X21145000Y-12210050D01*
X21216840Y-18534800D02*
X21256840Y-18574800D01*
X21256840Y-18534800D02*
X21216840Y-18574800D01*
X21265000Y-11983902D02*
X21305000Y-12023902D01*
X21305000Y-11983902D02*
X21265000Y-12023902D01*
X21365000Y-11983903D02*
X21405000Y-12023903D01*
X21405000Y-11983903D02*
X21365000Y-12023903D01*
X22159000Y-11371000D02*
X22199000Y-11411000D01*
X22199000Y-11371000D02*
X22159000Y-11411000D01*
X22262151Y-12720567D02*
X22302151Y-12760567D01*
X22302151Y-12720567D02*
X22262151Y-12760567D01*
X22277719Y-11945000D02*
X22317719Y-11985000D01*
X22317719Y-11945000D02*
X22277719Y-11985000D01*
X22355000Y-11225000D02*
X22395000Y-11265000D01*
X22395000Y-11225000D02*
X22355000Y-11265000D01*
X22382622Y-11107378D02*
X22422622Y-11147378D01*
X22422622Y-11107378D02*
X22382622Y-11147378D01*
X22382800Y-10667150D02*
X22422800Y-10707150D01*
X22422800Y-10667150D02*
X22382800Y-10707150D01*
X22460000Y-9405000D02*
X22500000Y-9445000D01*
X22500000Y-9405000D02*
X22460000Y-9445000D01*
X22474546Y-12505046D02*
X22514546Y-12545046D01*
X22514546Y-12505046D02*
X22474546Y-12545046D01*
X22575000Y-10730000D02*
X22615000Y-10770000D01*
X22615000Y-10730000D02*
X22575000Y-10770000D01*
X22624100Y-13962700D02*
X22664100Y-14002700D01*
X22664100Y-13962700D02*
X22624100Y-14002700D01*
X22630000Y-9905000D02*
X22670000Y-9945000D01*
X22670000Y-9905000D02*
X22630000Y-9945000D01*
X22760338Y-10819662D02*
X22800338Y-10859662D01*
X22800338Y-10819662D02*
X22760338Y-10859662D01*
X22795000Y-12815000D02*
X22835000Y-12855000D01*
X22835000Y-12815000D02*
X22795000Y-12855000D01*
X22824000Y-11138000D02*
X22864000Y-11178000D01*
X22864000Y-11138000D02*
X22824000Y-11178000D01*
X22824000Y-12317000D02*
X22864000Y-12357000D01*
X22864000Y-12317000D02*
X22824000Y-12357000D01*
X22870000Y-6790000D02*
X22910000Y-6830000D01*
X22910000Y-6790000D02*
X22870000Y-6830000D01*
X22978000Y-12924000D02*
X23018000Y-12964000D01*
X23018000Y-12924000D02*
X22978000Y-12964000D01*
X22980000Y-9405000D02*
X23020000Y-9445000D01*
X23020000Y-9405000D02*
X22980000Y-9445000D01*
X23065000Y-10340125D02*
X23105000Y-10380125D01*
X23105000Y-10340125D02*
X23065000Y-10380125D01*
X23160538Y-10349462D02*
X23200538Y-10389462D01*
X23200538Y-10349462D02*
X23160538Y-10389462D01*
X23210000Y-12927650D02*
X23250000Y-12967650D01*
X23250000Y-12927650D02*
X23210000Y-12967650D01*
X23220000Y-10425000D02*
X23260000Y-10465000D01*
X23260000Y-10425000D02*
X23220000Y-10465000D01*
X23315000Y-10670000D02*
X23355000Y-10710000D01*
X23355000Y-10670000D02*
X23315000Y-10710000D01*
X23380000Y-8030000D02*
X23420000Y-8070000D01*
X23420000Y-8030000D02*
X23380000Y-8070000D01*
X23385000Y-8150000D02*
X23425000Y-8190000D01*
X23425000Y-8150000D02*
X23385000Y-8190000D01*
X23390000Y-10585000D02*
X23430000Y-10625000D01*
X23430000Y-10585000D02*
X23390000Y-10625000D01*
X23460000Y-8805000D02*
X23500000Y-8845000D01*
X23500000Y-8805000D02*
X23460000Y-8845000D01*
X23490000Y-10420000D02*
X23530000Y-10460000D01*
X23530000Y-10420000D02*
X23490000Y-10460000D01*
X23504462Y-8129462D02*
X23544462Y-8169462D01*
X23544462Y-8129462D02*
X23504462Y-8169462D01*
X23610000Y-9595000D02*
X23650000Y-9635000D01*
X23650000Y-9595000D02*
X23610000Y-9635000D01*
X23714000Y-10770000D02*
X23754000Y-10810000D01*
X23754000Y-10770000D02*
X23714000Y-10810000D01*
X23755000Y-9395000D02*
X23795000Y-9435000D01*
X23795000Y-9395000D02*
X23755000Y-9435000D01*
X23755000Y-9490000D02*
X23795000Y-9530000D01*
X23795000Y-9490000D02*
X23755000Y-9530000D01*
X23792500Y-10521000D02*
X23832500Y-10561000D01*
X23832500Y-10521000D02*
X23792500Y-10561000D01*
X23932200Y-9606600D02*
X23972200Y-9646600D01*
X23972200Y-9606600D02*
X23932200Y-9646600D01*
X23990000Y-8640000D02*
X24030000Y-8680000D01*
X24030000Y-8640000D02*
X23990000Y-8680000D01*
X24001000Y-11138000D02*
X24041000Y-11178000D01*
X24041000Y-11138000D02*
X24001000Y-11178000D01*
X24001000Y-12317000D02*
X24041000Y-12357000D01*
X24041000Y-12317000D02*
X24001000Y-12357000D01*
X24020000Y-9940000D02*
X24060000Y-9980000D01*
X24060000Y-9940000D02*
X24020000Y-9980000D01*
X24057000Y-19684000D02*
X24097000Y-19724000D01*
X24097000Y-19684000D02*
X24057000Y-19724000D01*
X24120000Y-12540000D02*
X24160000Y-12580000D01*
X24160000Y-12540000D02*
X24120000Y-12580000D01*
X24230002Y-12476836D02*
X24270002Y-12516836D01*
X24270002Y-12476836D02*
X24230002Y-12516836D01*
X24300000Y-12560000D02*
X24340000Y-12600000D01*
X24340000Y-12560000D02*
X24300000Y-12600000D01*
X24340000Y-11500000D02*
X24380000Y-11540000D01*
X24380000Y-11500000D02*
X24340000Y-11540000D01*
X24400000Y-12160000D02*
X24440000Y-12200000D01*
X24440000Y-12160000D02*
X24400000Y-12200000D01*
X24400000Y-12540000D02*
X24440000Y-12580000D01*
X24440000Y-12540000D02*
X24400000Y-12580000D01*
X24405000Y-9265000D02*
X24445000Y-9305000D01*
X24445000Y-9265000D02*
X24405000Y-9305000D01*
X24440200Y-11181400D02*
X24480200Y-11221400D01*
X24480200Y-11181400D02*
X24440200Y-11221400D01*
X24465600Y-9555800D02*
X24505600Y-9595800D01*
X24505600Y-9555800D02*
X24465600Y-9595800D01*
X24525000Y-9265000D02*
X24565000Y-9305000D01*
X24565000Y-9265000D02*
X24525000Y-9305000D01*
X24567200Y-12146600D02*
X24607200Y-12186600D01*
X24607200Y-12146600D02*
X24567200Y-12186600D01*
X24570098Y-11180000D02*
X24610098Y-11220000D01*
X24610098Y-11180000D02*
X24570098Y-11220000D01*
X24820000Y-20152000D02*
X24860000Y-20192000D01*
X24860000Y-20152000D02*
X24820000Y-20192000D01*
X24910050Y-11757550D02*
X24950050Y-11797550D01*
X24950050Y-11757550D02*
X24910050Y-11797550D01*
X24981220Y-13038140D02*
X25021220Y-13078140D01*
X25021220Y-13038140D02*
X24981220Y-13078140D01*
X25411000Y-12552000D02*
X25451000Y-12592000D01*
X25451000Y-12552000D02*
X25411000Y-12592000D01*
X25490000Y-11446000D02*
X25530000Y-11486000D01*
X25530000Y-11446000D02*
X25490000Y-11486000D01*
X25510000Y-12552000D02*
X25550000Y-12592000D01*
X25550000Y-12552000D02*
X25510000Y-12592000D01*
X25938800Y-9085900D02*
X25978800Y-9125900D01*
X25978800Y-9085900D02*
X25938800Y-9125900D01*
X26139000Y-19987000D02*
X26179000Y-20027000D01*
X26179000Y-19987000D02*
X26139000Y-20027000D01*
X26167400Y-13886500D02*
X26207400Y-13926500D01*
X26207400Y-13886500D02*
X26167400Y-13926500D01*
X26427500Y-12746500D02*
X26467500Y-12786500D01*
X26467500Y-12746500D02*
X26427500Y-12786500D01*
X26721000Y-20088000D02*
X26761000Y-20128000D01*
X26761000Y-20088000D02*
X26721000Y-20128000D01*
X26962420Y-12985970D02*
X27002420Y-13025970D01*
X27002420Y-12985970D02*
X26962420Y-13025970D01*
X27132600Y-15016800D02*
X27172600Y-15056800D01*
X27172600Y-15016800D02*
X27132600Y-15056800D01*
X27406000Y-11445000D02*
X27446000Y-11485000D01*
X27446000Y-11445000D02*
X27406000Y-11485000D01*
X27933000Y-18034000D02*
X27973000Y-18074000D01*
X27973000Y-18034000D02*
X27933000Y-18074000D01*
X28100000Y-12850000D02*
X28140000Y-12890000D01*
X28140000Y-12850000D02*
X28100000Y-12890000D01*
X28364500Y-12057700D02*
X28404500Y-12097700D01*
X28404500Y-12057700D02*
X28364500Y-12097700D01*
X28529600Y-19906300D02*
X28569600Y-19946300D01*
X28569600Y-19906300D02*
X28529600Y-19946300D01*
X28800000Y-18150000D02*
X28840000Y-18190000D01*
X28840000Y-18150000D02*
X28800000Y-18190000D01*
X28898000Y-18065000D02*
X28938000Y-18105000D01*
X28938000Y-18065000D02*
X28898000Y-18105000D01*
X29069000Y-16154000D02*
X29109000Y-16194000D01*
X29109000Y-16154000D02*
X29069000Y-16194000D01*
X29262000Y-11451000D02*
X29302000Y-11491000D01*
X29302000Y-11451000D02*
X29262000Y-11491000D01*
X29269000Y-15854000D02*
X29309000Y-15894000D01*
X29309000Y-15854000D02*
X29269000Y-15894000D01*
X29393200Y-14064300D02*
X29433200Y-14104300D01*
X29433200Y-14064300D02*
X29393200Y-14104300D01*
X29469000Y-16154000D02*
X29509000Y-16194000D01*
X29509000Y-16154000D02*
X29469000Y-16194000D01*
X29610000Y-11660000D02*
X29650000Y-11700000D01*
X29650000Y-11660000D02*
X29610000Y-11700000D01*
X30710000Y-12660000D02*
X30750000Y-12700000D01*
X30750000Y-12660000D02*
X30710000Y-12700000D01*
X30797000Y-20441000D02*
X30837000Y-20481000D01*
X30837000Y-20441000D02*
X30797000Y-20481000D01*
X30904500Y-13950000D02*
X30944500Y-13990000D01*
X30944500Y-13950000D02*
X30904500Y-13990000D01*
X31115000Y-18090000D02*
X31155000Y-18130000D01*
X31155000Y-18090000D02*
X31115000Y-18130000D01*
X31310800Y-9911500D02*
X31350800Y-9951500D01*
X31350800Y-9911500D02*
X31310800Y-9951500D01*
X31448000Y-16327000D02*
X31488000Y-16367000D01*
X31488000Y-16327000D02*
X31448000Y-16367000D01*
X32034800Y-14953300D02*
X32074800Y-14993300D01*
X32074800Y-14953300D02*
X32034800Y-14993300D01*
X32066000Y-20420000D02*
X32106000Y-20460000D01*
X32106000Y-20420000D02*
X32066000Y-20460000D01*
X32100840Y-10137460D02*
X32140840Y-10177460D01*
X32140840Y-10137460D02*
X32100840Y-10177460D01*
X32187200Y-8047040D02*
X32227200Y-8087040D01*
X32227200Y-8047040D02*
X32187200Y-8087040D01*
X32339600Y-7879400D02*
X32379600Y-7919400D01*
X32379600Y-7879400D02*
X32339600Y-7919400D01*
X32635000Y-19980000D02*
X32675000Y-20020000D01*
X32675000Y-19980000D02*
X32635000Y-20020000D01*
X32715250Y-21851750D02*
X32755250Y-21891750D01*
X32755250Y-21851750D02*
X32715250Y-21891750D01*
X33510000Y-12700000D02*
X33550000Y-12740000D01*
X33550000Y-12700000D02*
X33510000Y-12740000D01*
X33590000Y-20000000D02*
X33630000Y-20040000D01*
X33630000Y-20000000D02*
X33590000Y-20040000D01*
X35420000Y-12730000D02*
X35460000Y-12770000D01*
X35460000Y-12730000D02*
X35420000Y-12770000D01*
X35739387Y-11672387D02*
X35779387Y-11712387D01*
X35779387Y-11672387D02*
X35739387Y-11712387D01*
X37434000Y-11211000D02*
X37474000Y-11251000D01*
X37474000Y-11211000D02*
X37434000Y-11251000D01*
X37485000Y-19940000D02*
X37525000Y-19980000D01*
X37525000Y-19940000D02*
X37485000Y-19980000D01*
X37596000Y-9335000D02*
X37636000Y-9375000D01*
X37636000Y-9335000D02*
X37596000Y-9375000D01*
X37625000Y-9999000D02*
X37665000Y-10039000D01*
X37665000Y-9999000D02*
X37625000Y-10039000D01*
X37882000Y-11782000D02*
X37922000Y-11822000D01*
X37922000Y-11782000D02*
X37882000Y-11822000D01*
X37882000Y-11927000D02*
X37922000Y-11967000D01*
X37922000Y-11927000D02*
X37882000Y-11967000D01*
X37910000Y-6820000D02*
X37950000Y-6860000D01*
X37950000Y-6820000D02*
X37910000Y-6860000D01*
X37985000Y-6730000D02*
X38025000Y-6770000D01*
X38025000Y-6730000D02*
X37985000Y-6770000D01*
X38562600Y-13061000D02*
X38602600Y-13101000D01*
X38602600Y-13061000D02*
X38562600Y-13101000D01*
X38870000Y-14220000D02*
X38910000Y-14260000D01*
X38910000Y-14220000D02*
X38870000Y-14260000D01*
X38980000Y-6730000D02*
X39020000Y-6770000D01*
X39020000Y-6730000D02*
X38980000Y-6770000D01*
X40457340Y-13045860D02*
X40497340Y-13085860D01*
X40497340Y-13045860D02*
X40457340Y-13085860D01*
X42362340Y-13045860D02*
X42402340Y-13085860D01*
X42402340Y-13045860D02*
X42362340Y-13085860D01*
X42639000Y-14043000D02*
X42679000Y-14083000D01*
X42679000Y-14043000D02*
X42639000Y-14083000D01*
X43726000Y-14434000D02*
X43766000Y-14474000D01*
X43766000Y-14434000D02*
X43726000Y-14474000D01*
X44628000Y-20863000D02*
X44668000Y-20903000D01*
X44668000Y-20863000D02*
X44628000Y-20903000D01*
X44763000Y-16821000D02*
X44803000Y-16861000D01*
X44803000Y-16821000D02*
X44763000Y-16861000D01*
X45012000Y-14793000D02*
X45052000Y-14833000D01*
X45052000Y-14793000D02*
X45012000Y-14833000D01*
X45330000Y-13950000D02*
X45370000Y-13990000D01*
X45370000Y-13950000D02*
X45330000Y-13990000D01*
D14*
X32492500Y-17420000D02*
G75*
G03*
X32492500Y-17420000I-25000J0D01*
G01*
X32569384Y-17234385D02*
G75*
G03*
X32569384Y-17234385I-25000J0D01*
G01*
X32569384Y-17605616D02*
G75*
G03*
X32569384Y-17605616I-25000J0D01*
G01*
X32755000Y-17157500D02*
G75*
G03*
X32755000Y-17157500I-25000J0D01*
G01*
X32755000Y-17682500D02*
G75*
G03*
X32755000Y-17682500I-25000J0D01*
G01*
X32940615Y-17234385D02*
G75*
G03*
X32940615Y-17234385I-25000J0D01*
G01*
X32940615Y-17605616D02*
G75*
G03*
X32940615Y-17605616I-25000J0D01*
G01*
X33017500Y-17420000D02*
G75*
G03*
X33017500Y-17420000I-25000J0D01*
G01*
D15*
X13921000Y-5209750D02*
X13921000Y-5269750D01*
X13891000Y-5239750D02*
X13951000Y-5239750D01*
D12*
X13901000Y-5209750D02*
X13901000Y-5269750D01*
X13941000Y-5209750D02*
X13941000Y-5269750D01*
X13901000Y-5269750D02*
G75*
G03*
X13941000Y-5269750I20000J0D01*
G01*
X13941000Y-5209750D02*
G75*
G03*
X13901000Y-5209750I-20000J0D01*
G01*
D15*
X13921000Y-5629750D02*
X13921000Y-5689750D01*
X13891000Y-5659750D02*
X13951000Y-5659750D01*
D12*
X13901000Y-5604750D02*
X13901000Y-5714750D01*
X13941000Y-5604750D02*
X13941000Y-5714750D01*
X13901000Y-5714750D02*
G75*
G03*
X13941000Y-5714750I20000J0D01*
G01*
X13941000Y-5604750D02*
G75*
G03*
X13901000Y-5604750I-20000J0D01*
G01*
D15*
X14781000Y-5209750D02*
X14781000Y-5269750D01*
X14751000Y-5239750D02*
X14811000Y-5239750D01*
D12*
X14761000Y-5209750D02*
X14761000Y-5269750D01*
X14801000Y-5209750D02*
X14801000Y-5269750D01*
X14761000Y-5269750D02*
G75*
G03*
X14801000Y-5269750I20000J0D01*
G01*
X14801000Y-5209750D02*
G75*
G03*
X14761000Y-5209750I-20000J0D01*
G01*
D15*
X14781000Y-5629750D02*
X14781000Y-5689750D01*
X14751000Y-5659750D02*
X14811000Y-5659750D01*
D12*
X14761000Y-5604750D02*
X14761000Y-5714750D01*
X14801000Y-5604750D02*
X14801000Y-5714750D01*
X14761000Y-5714750D02*
G75*
G03*
X14801000Y-5714750I20000J0D01*
G01*
X14801000Y-5604750D02*
G75*
G03*
X14761000Y-5604750I-20000J0D01*
G01*
D16*
X23283591Y-7172941D02*
X23283591Y-7119059D01*
X23229709Y-7119059D01*
X23229709Y-7172941D01*
X23283591Y-7172941D01*
X23283591Y-7680941D02*
X23283591Y-7627059D01*
X23229709Y-7627059D01*
X23229709Y-7680941D01*
X23283591Y-7680941D01*
X23296291Y-6918941D02*
X23296291Y-6865059D01*
X23242409Y-6865059D01*
X23242409Y-6918941D01*
X23296291Y-6918941D01*
X23296291Y-7426941D02*
X23296291Y-7373059D01*
X23242409Y-7373059D01*
X23242409Y-7426941D01*
X23296291Y-7426941D01*
X23296291Y-7934941D02*
X23296291Y-7881059D01*
X23242409Y-7881059D01*
X23242409Y-7934941D01*
X23296291Y-7934941D01*
X23537591Y-7172941D02*
X23537591Y-7119059D01*
X23483709Y-7119059D01*
X23483709Y-7172941D01*
X23537591Y-7172941D01*
X23537591Y-7680941D02*
X23537591Y-7627059D01*
X23483709Y-7627059D01*
X23483709Y-7680941D01*
X23537591Y-7680941D01*
X23550291Y-6918941D02*
X23550291Y-6865059D01*
X23496409Y-6865059D01*
X23496409Y-6918941D01*
X23550291Y-6918941D01*
X23550291Y-7426941D02*
X23550291Y-7373059D01*
X23496409Y-7373059D01*
X23496409Y-7426941D01*
X23550291Y-7426941D01*
X23550291Y-7934941D02*
X23550291Y-7881059D01*
X23496409Y-7881059D01*
X23496409Y-7934941D01*
X23550291Y-7934941D01*
D17*
X27260000Y-6160000D02*
X27300000Y-6120000D01*
X27260000Y-6080000D01*
X27220000Y-6120000D01*
X27260000Y-6160000D01*
X28022000Y-6160000D02*
X28062000Y-6120000D01*
X28022000Y-6080000D01*
X27982000Y-6120000D01*
X28022000Y-6160000D01*
X28760000Y-6160000D02*
X28800000Y-6120000D01*
X28760000Y-6080000D01*
X28720000Y-6120000D01*
X28760000Y-6160000D01*
X29522000Y-6160000D02*
X29562000Y-6120000D01*
X29522000Y-6080000D01*
X29482000Y-6120000D01*
X29522000Y-6160000D01*
X30260000Y-6160000D02*
X30300000Y-6120000D01*
X30260000Y-6080000D01*
X30220000Y-6120000D01*
X30260000Y-6160000D01*
X31022000Y-6160000D02*
X31062000Y-6120000D01*
X31022000Y-6080000D01*
X30982000Y-6120000D01*
X31022000Y-6160000D01*
D18*
X28477470Y-6070470D02*
X28576530Y-6169530D01*
X28576530Y-6070470D02*
X28477470Y-6169530D01*
X28576530Y-6120000D02*
G75*
G03*
X28576530Y-6120000I-49530J0D01*
G01*
X29977470Y-6070470D02*
X30076530Y-6169530D01*
X30076530Y-6070470D02*
X29977470Y-6169530D01*
X30076530Y-6120000D02*
G75*
G03*
X30076530Y-6120000I-49530J0D01*
G01*
X31477470Y-6070470D02*
X31576530Y-6169530D01*
X31576530Y-6070470D02*
X31477470Y-6169530D01*
X31576530Y-6120000D02*
G75*
G03*
X31576530Y-6120000I-49530J0D01*
G01*
D19*
X3677500Y-8345800D02*
X3777500Y-8445800D01*
X3777500Y-8345800D02*
X3677500Y-8445800D01*
X3727500Y-8345800D02*
X3727500Y-8445800D01*
X3677500Y-8395800D02*
X3777500Y-8395800D01*
X3877500Y-8345800D02*
X3977500Y-8445800D01*
X3977500Y-8345800D02*
X3877500Y-8445800D01*
X3927500Y-8345800D02*
X3927500Y-8445800D01*
X3877500Y-8395800D02*
X3977500Y-8395800D01*
X4077500Y-8345800D02*
X4177500Y-8445800D01*
X4177500Y-8345800D02*
X4077500Y-8445800D01*
X4127500Y-8345800D02*
X4127500Y-8445800D01*
X4077500Y-8395800D02*
X4177500Y-8395800D01*
X4277500Y-8345800D02*
X4377500Y-8445800D01*
X4377500Y-8345800D02*
X4277500Y-8445800D01*
X4327500Y-8345800D02*
X4327500Y-8445800D01*
X4277500Y-8395800D02*
X4377500Y-8395800D01*
X4477500Y-8345800D02*
X4577500Y-8445800D01*
X4577500Y-8345800D02*
X4477500Y-8445800D01*
X4527500Y-8345800D02*
X4527500Y-8445800D01*
X4477500Y-8395800D02*
X4577500Y-8395800D01*
X37644700Y-6535000D02*
X37744700Y-6635000D01*
X37744700Y-6535000D02*
X37644700Y-6635000D01*
X37694700Y-6535000D02*
X37694700Y-6635000D01*
X37644700Y-6585000D02*
X37744700Y-6585000D01*
X37644700Y-6735000D02*
X37744700Y-6835000D01*
X37744700Y-6735000D02*
X37644700Y-6835000D01*
X37694700Y-6735000D02*
X37694700Y-6835000D01*
X37644700Y-6785000D02*
X37744700Y-6785000D01*
X37644700Y-6935000D02*
X37744700Y-7035000D01*
X37744700Y-6935000D02*
X37644700Y-7035000D01*
X37694700Y-6935000D02*
X37694700Y-7035000D01*
X37644700Y-6985000D02*
X37744700Y-6985000D01*
X37644700Y-7135000D02*
X37744700Y-7235000D01*
X37744700Y-7135000D02*
X37644700Y-7235000D01*
X37694700Y-7135000D02*
X37694700Y-7235000D01*
X37644700Y-7185000D02*
X37744700Y-7185000D01*
X37644700Y-7335000D02*
X37744700Y-7435000D01*
X37744700Y-7335000D02*
X37644700Y-7435000D01*
X37694700Y-7335000D02*
X37694700Y-7435000D01*
X37644700Y-7385000D02*
X37744700Y-7385000D01*
D20*
X28222200Y-6069200D02*
X28323800Y-6170800D01*
X28323800Y-6069200D02*
X28222200Y-6170800D01*
X28308921Y-6155921D02*
X28308921Y-6084079D01*
X28237079Y-6084079D01*
X28237079Y-6155921D01*
X28308921Y-6155921D01*
X29722200Y-6069200D02*
X29823800Y-6170800D01*
X29823800Y-6069200D02*
X29722200Y-6170800D01*
X29808921Y-6155921D02*
X29808921Y-6084079D01*
X29737079Y-6084079D01*
X29737079Y-6155921D01*
X29808921Y-6155921D01*
X31222200Y-6069200D02*
X31323800Y-6170800D01*
X31323800Y-6069200D02*
X31222200Y-6170800D01*
X31308921Y-6155921D02*
X31308921Y-6084079D01*
X31237079Y-6084079D01*
X31237079Y-6155921D01*
X31308921Y-6155921D01*
D21*
X3822500Y-6890800D02*
X3932500Y-7000800D01*
X3932500Y-6890800D02*
X3822500Y-7000800D01*
X3877500Y-7000800D02*
X3932500Y-6945800D01*
X3877500Y-6890800D01*
X3822500Y-6945800D01*
X3877500Y-7000800D01*
X4072500Y-6890800D02*
X4182500Y-7000800D01*
X4182500Y-6890800D02*
X4072500Y-7000800D01*
X4127500Y-7000800D02*
X4182500Y-6945800D01*
X4127500Y-6890800D01*
X4072500Y-6945800D01*
X4127500Y-7000800D01*
X4322500Y-6890800D02*
X4432500Y-7000800D01*
X4432500Y-6890800D02*
X4322500Y-7000800D01*
X4377500Y-7000800D02*
X4432500Y-6945800D01*
X4377500Y-6890800D01*
X4322500Y-6945800D01*
X4377500Y-7000800D01*
X22970000Y-8190000D02*
X23080000Y-8300000D01*
X23080000Y-8190000D02*
X22970000Y-8300000D01*
X23025000Y-8300000D02*
X23080000Y-8245000D01*
X23025000Y-8190000D01*
X22970000Y-8245000D01*
X23025000Y-8300000D01*
X22970000Y-8640000D02*
X23080000Y-8750000D01*
X23080000Y-8640000D02*
X22970000Y-8750000D01*
X23025000Y-8750000D02*
X23080000Y-8695000D01*
X23025000Y-8640000D01*
X22970000Y-8695000D01*
X23025000Y-8750000D01*
X23010000Y-6040000D02*
X23120000Y-6150000D01*
X23120000Y-6040000D02*
X23010000Y-6150000D01*
X23065000Y-6150000D02*
X23120000Y-6095000D01*
X23065000Y-6040000D01*
X23010000Y-6095000D01*
X23065000Y-6150000D01*
X23010000Y-6490000D02*
X23120000Y-6600000D01*
X23120000Y-6490000D02*
X23010000Y-6600000D01*
X23065000Y-6600000D02*
X23120000Y-6545000D01*
X23065000Y-6490000D01*
X23010000Y-6545000D01*
X23065000Y-6600000D01*
X23620000Y-8190000D02*
X23730000Y-8300000D01*
X23730000Y-8190000D02*
X23620000Y-8300000D01*
X23675000Y-8300000D02*
X23730000Y-8245000D01*
X23675000Y-8190000D01*
X23620000Y-8245000D01*
X23675000Y-8300000D01*
X23620000Y-8640000D02*
X23730000Y-8750000D01*
X23730000Y-8640000D02*
X23620000Y-8750000D01*
X23675000Y-8750000D02*
X23730000Y-8695000D01*
X23675000Y-8640000D01*
X23620000Y-8695000D01*
X23675000Y-8750000D01*
X23660000Y-6040000D02*
X23770000Y-6150000D01*
X23770000Y-6040000D02*
X23660000Y-6150000D01*
X23715000Y-6150000D02*
X23770000Y-6095000D01*
X23715000Y-6040000D01*
X23660000Y-6095000D01*
X23715000Y-6150000D01*
X23660000Y-6490000D02*
X23770000Y-6600000D01*
X23770000Y-6490000D02*
X23660000Y-6600000D01*
X23715000Y-6600000D02*
X23770000Y-6545000D01*
X23715000Y-6490000D01*
X23660000Y-6545000D01*
X23715000Y-6600000D01*
X36189700Y-6680000D02*
X36299700Y-6790000D01*
X36299700Y-6680000D02*
X36189700Y-6790000D01*
X36244700Y-6790000D02*
X36299700Y-6735000D01*
X36244700Y-6680000D01*
X36189700Y-6735000D01*
X36244700Y-6790000D01*
X36189700Y-6930000D02*
X36299700Y-7040000D01*
X36299700Y-6930000D02*
X36189700Y-7040000D01*
X36244700Y-7040000D02*
X36299700Y-6985000D01*
X36244700Y-6930000D01*
X36189700Y-6985000D01*
X36244700Y-7040000D01*
X36189700Y-7180000D02*
X36299700Y-7290000D01*
X36299700Y-7180000D02*
X36189700Y-7290000D01*
X36244700Y-7290000D02*
X36299700Y-7235000D01*
X36244700Y-7180000D01*
X36189700Y-7235000D01*
X36244700Y-7290000D01*
D22*
X6174625Y-6750000D02*
X6174625Y-6870000D01*
X6114625Y-6810000D02*
X6234625Y-6810000D01*
X6234625Y-6810000D02*
G75*
G03*
X6234625Y-6810000I-60000J0D01*
G01*
X6174625Y-7100000D02*
X6174625Y-7220000D01*
X6114625Y-7160000D02*
X6234625Y-7160000D01*
X6234625Y-7160000D02*
G75*
G03*
X6234625Y-7160000I-60000J0D01*
G01*
X13524625Y-6750000D02*
X13524625Y-6870000D01*
X13464625Y-6810000D02*
X13584625Y-6810000D01*
X13584625Y-6810000D02*
G75*
G03*
X13584625Y-6810000I-60000J0D01*
G01*
X15232900Y-6750000D02*
X15232900Y-6870000D01*
X15172900Y-6810000D02*
X15292900Y-6810000D01*
X15292900Y-6810000D02*
G75*
G03*
X15292900Y-6810000I-60000J0D01*
G01*
X15232900Y-7100000D02*
X15232900Y-7220000D01*
X15172900Y-7160000D02*
X15292900Y-7160000D01*
X15292900Y-7160000D02*
G75*
G03*
X15292900Y-7160000I-60000J0D01*
G01*
X22582900Y-6750000D02*
X22582900Y-6870000D01*
X22522900Y-6810000D02*
X22642900Y-6810000D01*
X22642900Y-6810000D02*
G75*
G03*
X22642900Y-6810000I-60000J0D01*
G01*
X24281650Y-6750000D02*
X24281650Y-6870000D01*
X24221650Y-6810000D02*
X24341650Y-6810000D01*
X24341650Y-6810000D02*
G75*
G03*
X24341650Y-6810000I-60000J0D01*
G01*
X24281650Y-7100000D02*
X24281650Y-7220000D01*
X24221650Y-7160000D02*
X24341650Y-7160000D01*
X24341650Y-7160000D02*
G75*
G03*
X24341650Y-7160000I-60000J0D01*
G01*
X31631650Y-6750000D02*
X31631650Y-6870000D01*
X31571650Y-6810000D02*
X31691650Y-6810000D01*
X31691650Y-6810000D02*
G75*
G03*
X31691650Y-6810000I-60000J0D01*
G01*
D23*
X6649730Y-7465105D02*
X6649730Y-7344895D01*
X6529520Y-7344895D01*
X6529520Y-7465105D01*
X6649730Y-7465105D01*
X6674625Y-7405000D02*
G75*
G03*
X6674625Y-7405000I-85000J0D01*
G01*
X6769730Y-6625105D02*
X6769730Y-6504895D01*
X6649520Y-6504895D01*
X6649520Y-6625105D01*
X6769730Y-6625105D01*
X6794625Y-6565000D02*
G75*
G03*
X6794625Y-6565000I-85000J0D01*
G01*
X13049730Y-6625105D02*
X13049730Y-6504895D01*
X12929520Y-6504895D01*
X12929520Y-6625105D01*
X13049730Y-6625105D01*
X13074625Y-6565000D02*
G75*
G03*
X13074625Y-6565000I-85000J0D01*
G01*
X13169730Y-7465105D02*
X13169730Y-7344895D01*
X13049520Y-7344895D01*
X13049520Y-7465105D01*
X13169730Y-7465105D01*
X13194625Y-7405000D02*
G75*
G03*
X13194625Y-7405000I-85000J0D01*
G01*
X15708005Y-7465105D02*
X15708005Y-7344895D01*
X15587795Y-7344895D01*
X15587795Y-7465105D01*
X15708005Y-7465105D01*
X15732900Y-7405000D02*
G75*
G03*
X15732900Y-7405000I-85000J0D01*
G01*
X15828005Y-6625105D02*
X15828005Y-6504895D01*
X15707795Y-6504895D01*
X15707795Y-6625105D01*
X15828005Y-6625105D01*
X15852900Y-6565000D02*
G75*
G03*
X15852900Y-6565000I-85000J0D01*
G01*
X22108005Y-6625105D02*
X22108005Y-6504895D01*
X21987795Y-6504895D01*
X21987795Y-6625105D01*
X22108005Y-6625105D01*
X22132900Y-6565000D02*
G75*
G03*
X22132900Y-6565000I-85000J0D01*
G01*
X22228005Y-7465105D02*
X22228005Y-7344895D01*
X22107795Y-7344895D01*
X22107795Y-7465105D01*
X22228005Y-7465105D01*
X22252900Y-7405000D02*
G75*
G03*
X22252900Y-7405000I-85000J0D01*
G01*
X24756755Y-7465105D02*
X24756755Y-7344895D01*
X24636545Y-7344895D01*
X24636545Y-7465105D01*
X24756755Y-7465105D01*
X24781650Y-7405000D02*
G75*
G03*
X24781650Y-7405000I-85000J0D01*
G01*
X24876755Y-6625105D02*
X24876755Y-6504895D01*
X24756545Y-6504895D01*
X24756545Y-6625105D01*
X24876755Y-6625105D01*
X24901650Y-6565000D02*
G75*
G03*
X24901650Y-6565000I-85000J0D01*
G01*
X31156755Y-6625105D02*
X31156755Y-6504895D01*
X31036545Y-6504895D01*
X31036545Y-6625105D01*
X31156755Y-6625105D01*
X31181650Y-6565000D02*
G75*
G03*
X31181650Y-6565000I-85000J0D01*
G01*
X31276755Y-7465105D02*
X31276755Y-7344895D01*
X31156545Y-7344895D01*
X31156545Y-7465105D01*
X31276755Y-7465105D01*
X31301650Y-7405000D02*
G75*
G03*
X31301650Y-7405000I-85000J0D01*
G01*
D24*
X3367500Y-7845800D02*
X3517500Y-7695800D01*
X3367500Y-7545800D01*
X3217500Y-7695800D01*
X3367500Y-7845800D01*
X3517500Y-7695800D02*
G75*
G03*
X3517500Y-7695800I-150000J0D01*
G01*
X4887500Y-7845800D02*
X5037500Y-7695800D01*
X4887500Y-7545800D01*
X4737500Y-7695800D01*
X4887500Y-7845800D01*
X5037500Y-7695800D02*
G75*
G03*
X5037500Y-7695800I-150000J0D01*
G01*
X36994700Y-6375000D02*
X37144700Y-6225000D01*
X36994700Y-6075000D01*
X36844700Y-6225000D01*
X36994700Y-6375000D01*
X37144700Y-6225000D02*
G75*
G03*
X37144700Y-6225000I-150000J0D01*
G01*
X36994700Y-7895000D02*
X37144700Y-7745000D01*
X36994700Y-7595000D01*
X36844700Y-7745000D01*
X36994700Y-7895000D01*
X37144700Y-7745000D02*
G75*
G03*
X37144700Y-7745000I-150000J0D01*
G01*
D25*
X3743325Y-10391775D02*
X3743325Y-10696575D01*
X3590925Y-10544175D02*
X3895725Y-10544175D01*
X3851089Y-10651939D02*
X3851089Y-10436411D01*
X3635561Y-10436411D01*
X3635561Y-10651939D01*
X3851089Y-10651939D01*
X3743325Y-13249275D02*
X3743325Y-13554075D01*
X3590925Y-13401675D02*
X3895725Y-13401675D01*
X3851089Y-13509439D02*
X3851089Y-13293911D01*
X3635561Y-13293911D01*
X3635561Y-13509439D01*
X3851089Y-13509439D01*
X3981450Y-18964275D02*
X3981450Y-19269075D01*
X3829050Y-19116675D02*
X4133850Y-19116675D01*
X4089214Y-19224439D02*
X4089214Y-19008911D01*
X3873686Y-19008911D01*
X3873686Y-19224439D01*
X4089214Y-19224439D01*
X3981450Y-20869275D02*
X3981450Y-21174075D01*
X3829050Y-21021675D02*
X4133850Y-21021675D01*
X4089214Y-21129439D02*
X4089214Y-20913911D01*
X3873686Y-20913911D01*
X3873686Y-21129439D01*
X4089214Y-21129439D01*
X4219575Y-15154275D02*
X4219575Y-15459075D01*
X4067175Y-15306675D02*
X4371975Y-15306675D01*
X4327339Y-15414439D02*
X4327339Y-15198911D01*
X4111811Y-15198911D01*
X4111811Y-15414439D01*
X4327339Y-15414439D01*
X4378325Y-10137775D02*
X4378325Y-10442575D01*
X4225925Y-10290175D02*
X4530725Y-10290175D01*
X4486089Y-10397939D02*
X4486089Y-10182411D01*
X4270561Y-10182411D01*
X4270561Y-10397939D01*
X4486089Y-10397939D01*
X4378325Y-12995275D02*
X4378325Y-13300075D01*
X4225925Y-13147675D02*
X4530725Y-13147675D01*
X4486089Y-13255439D02*
X4486089Y-13039911D01*
X4270561Y-13039911D01*
X4270561Y-13255439D01*
X4486089Y-13255439D01*
X4457700Y-17059275D02*
X4457700Y-17364075D01*
X4305300Y-17211675D02*
X4610100Y-17211675D01*
X4565464Y-17319439D02*
X4565464Y-17103911D01*
X4349936Y-17103911D01*
X4349936Y-17319439D01*
X4565464Y-17319439D01*
X4616450Y-18710275D02*
X4616450Y-19015075D01*
X4464050Y-18862675D02*
X4768850Y-18862675D01*
X4724214Y-18970439D02*
X4724214Y-18754911D01*
X4508686Y-18754911D01*
X4508686Y-18970439D01*
X4724214Y-18970439D01*
X4616450Y-20615275D02*
X4616450Y-20920075D01*
X4464050Y-20767675D02*
X4768850Y-20767675D01*
X4724214Y-20875439D02*
X4724214Y-20659911D01*
X4508686Y-20659911D01*
X4508686Y-20875439D01*
X4724214Y-20875439D01*
X4854575Y-14900275D02*
X4854575Y-15205075D01*
X4702175Y-15052675D02*
X5006975Y-15052675D01*
X4962339Y-15160439D02*
X4962339Y-14944911D01*
X4746811Y-14944911D01*
X4746811Y-15160439D01*
X4962339Y-15160439D01*
X5092700Y-16805275D02*
X5092700Y-17110075D01*
X4940300Y-16957675D02*
X5245100Y-16957675D01*
X5200464Y-17065439D02*
X5200464Y-16849911D01*
X4984936Y-16849911D01*
X4984936Y-17065439D01*
X5200464Y-17065439D01*
X5648325Y-13249275D02*
X5648325Y-13554075D01*
X5495925Y-13401675D02*
X5800725Y-13401675D01*
X5756089Y-13509439D02*
X5756089Y-13293911D01*
X5540561Y-13293911D01*
X5540561Y-13509439D01*
X5756089Y-13509439D01*
X6124575Y-18964275D02*
X6124575Y-19269075D01*
X5972175Y-19116675D02*
X6276975Y-19116675D01*
X6232339Y-19224439D02*
X6232339Y-19008911D01*
X6016811Y-19008911D01*
X6016811Y-19224439D01*
X6232339Y-19224439D01*
X6283325Y-12995275D02*
X6283325Y-13300075D01*
X6130925Y-13147675D02*
X6435725Y-13147675D01*
X6391089Y-13255439D02*
X6391089Y-13039911D01*
X6175561Y-13039911D01*
X6175561Y-13255439D01*
X6391089Y-13255439D01*
X6362700Y-20869275D02*
X6362700Y-21174075D01*
X6210300Y-21021675D02*
X6515100Y-21021675D01*
X6470464Y-21129439D02*
X6470464Y-20913911D01*
X6254936Y-20913911D01*
X6254936Y-21129439D01*
X6470464Y-21129439D01*
X6600825Y-8486775D02*
X6600825Y-8791575D01*
X6448425Y-8639175D02*
X6753225Y-8639175D01*
X6708589Y-8746939D02*
X6708589Y-8531411D01*
X6493061Y-8531411D01*
X6493061Y-8746939D01*
X6708589Y-8746939D01*
X6600825Y-10391775D02*
X6600825Y-10696575D01*
X6448425Y-10544175D02*
X6753225Y-10544175D01*
X6708589Y-10651939D02*
X6708589Y-10436411D01*
X6493061Y-10436411D01*
X6493061Y-10651939D01*
X6708589Y-10651939D01*
X6600825Y-15154275D02*
X6600825Y-15459075D01*
X6448425Y-15306675D02*
X6753225Y-15306675D01*
X6708589Y-15414439D02*
X6708589Y-15198911D01*
X6493061Y-15198911D01*
X6493061Y-15414439D01*
X6708589Y-15414439D01*
X6759575Y-18710275D02*
X6759575Y-19015075D01*
X6607175Y-18862675D02*
X6911975Y-18862675D01*
X6867339Y-18970439D02*
X6867339Y-18754911D01*
X6651811Y-18754911D01*
X6651811Y-18970439D01*
X6867339Y-18970439D01*
X6997700Y-20615275D02*
X6997700Y-20920075D01*
X6845300Y-20767675D02*
X7150100Y-20767675D01*
X7105464Y-20875439D02*
X7105464Y-20659911D01*
X6889936Y-20659911D01*
X6889936Y-20875439D01*
X7105464Y-20875439D01*
X7077075Y-17059275D02*
X7077075Y-17364075D01*
X6924675Y-17211675D02*
X7229475Y-17211675D01*
X7184839Y-17319439D02*
X7184839Y-17103911D01*
X6969311Y-17103911D01*
X6969311Y-17319439D01*
X7184839Y-17319439D01*
X7235825Y-8232775D02*
X7235825Y-8537575D01*
X7083425Y-8385175D02*
X7388225Y-8385175D01*
X7343589Y-8492939D02*
X7343589Y-8277411D01*
X7128061Y-8277411D01*
X7128061Y-8492939D01*
X7343589Y-8492939D01*
X7235825Y-10137775D02*
X7235825Y-10442575D01*
X7083425Y-10290175D02*
X7388225Y-10290175D01*
X7343589Y-10397939D02*
X7343589Y-10182411D01*
X7128061Y-10182411D01*
X7128061Y-10397939D01*
X7343589Y-10397939D01*
X7235825Y-14900275D02*
X7235825Y-15205075D01*
X7083425Y-15052675D02*
X7388225Y-15052675D01*
X7343589Y-15160439D02*
X7343589Y-14944911D01*
X7128061Y-14944911D01*
X7128061Y-15160439D01*
X7343589Y-15160439D01*
X7553325Y-13249275D02*
X7553325Y-13554075D01*
X7400925Y-13401675D02*
X7705725Y-13401675D01*
X7661089Y-13509439D02*
X7661089Y-13293911D01*
X7445561Y-13293911D01*
X7445561Y-13509439D01*
X7661089Y-13509439D01*
X7712075Y-16805275D02*
X7712075Y-17110075D01*
X7559675Y-16957675D02*
X7864475Y-16957675D01*
X7819839Y-17065439D02*
X7819839Y-16849911D01*
X7604311Y-16849911D01*
X7604311Y-17065439D01*
X7819839Y-17065439D01*
X8029575Y-18964275D02*
X8029575Y-19269075D01*
X7877175Y-19116675D02*
X8181975Y-19116675D01*
X8137339Y-19224439D02*
X8137339Y-19008911D01*
X7921811Y-19008911D01*
X7921811Y-19224439D01*
X8137339Y-19224439D01*
X8188325Y-12995275D02*
X8188325Y-13300075D01*
X8035925Y-13147675D02*
X8340725Y-13147675D01*
X8296089Y-13255439D02*
X8296089Y-13039911D01*
X8080561Y-13039911D01*
X8080561Y-13255439D01*
X8296089Y-13255439D01*
X8505825Y-8486775D02*
X8505825Y-8791575D01*
X8353425Y-8639175D02*
X8658225Y-8639175D01*
X8613589Y-8746939D02*
X8613589Y-8531411D01*
X8398061Y-8531411D01*
X8398061Y-8746939D01*
X8613589Y-8746939D01*
X8505825Y-10391775D02*
X8505825Y-10696575D01*
X8353425Y-10544175D02*
X8658225Y-10544175D01*
X8613589Y-10651939D02*
X8613589Y-10436411D01*
X8398061Y-10436411D01*
X8398061Y-10651939D01*
X8613589Y-10651939D01*
X8505825Y-15154275D02*
X8505825Y-15459075D01*
X8353425Y-15306675D02*
X8658225Y-15306675D01*
X8613589Y-15414439D02*
X8613589Y-15198911D01*
X8398061Y-15198911D01*
X8398061Y-15414439D01*
X8613589Y-15414439D01*
X8664575Y-18710275D02*
X8664575Y-19015075D01*
X8512175Y-18862675D02*
X8816975Y-18862675D01*
X8772339Y-18970439D02*
X8772339Y-18754911D01*
X8556811Y-18754911D01*
X8556811Y-18970439D01*
X8772339Y-18970439D01*
X8743950Y-20869275D02*
X8743950Y-21174075D01*
X8591550Y-21021675D02*
X8896350Y-21021675D01*
X8851714Y-21129439D02*
X8851714Y-20913911D01*
X8636186Y-20913911D01*
X8636186Y-21129439D01*
X8851714Y-21129439D01*
X8982075Y-17059275D02*
X8982075Y-17364075D01*
X8829675Y-17211675D02*
X9134475Y-17211675D01*
X9089839Y-17319439D02*
X9089839Y-17103911D01*
X8874311Y-17103911D01*
X8874311Y-17319439D01*
X9089839Y-17319439D01*
X9140825Y-8232775D02*
X9140825Y-8537575D01*
X8988425Y-8385175D02*
X9293225Y-8385175D01*
X9248589Y-8492939D02*
X9248589Y-8277411D01*
X9033061Y-8277411D01*
X9033061Y-8492939D01*
X9248589Y-8492939D01*
X9140825Y-10137775D02*
X9140825Y-10442575D01*
X8988425Y-10290175D02*
X9293225Y-10290175D01*
X9248589Y-10397939D02*
X9248589Y-10182411D01*
X9033061Y-10182411D01*
X9033061Y-10397939D01*
X9248589Y-10397939D01*
X9140825Y-14900275D02*
X9140825Y-15205075D01*
X8988425Y-15052675D02*
X9293225Y-15052675D01*
X9248589Y-15160439D02*
X9248589Y-14944911D01*
X9033061Y-14944911D01*
X9033061Y-15160439D01*
X9248589Y-15160439D01*
X9378950Y-20615275D02*
X9378950Y-20920075D01*
X9226550Y-20767675D02*
X9531350Y-20767675D01*
X9486714Y-20875439D02*
X9486714Y-20659911D01*
X9271186Y-20659911D01*
X9271186Y-20875439D01*
X9486714Y-20875439D01*
X9458325Y-13249275D02*
X9458325Y-13554075D01*
X9305925Y-13401675D02*
X9610725Y-13401675D01*
X9566089Y-13509439D02*
X9566089Y-13293911D01*
X9350561Y-13293911D01*
X9350561Y-13509439D01*
X9566089Y-13509439D01*
X9617075Y-16805275D02*
X9617075Y-17110075D01*
X9464675Y-16957675D02*
X9769475Y-16957675D01*
X9724839Y-17065439D02*
X9724839Y-16849911D01*
X9509311Y-16849911D01*
X9509311Y-17065439D01*
X9724839Y-17065439D01*
X9934575Y-18964275D02*
X9934575Y-19269075D01*
X9782175Y-19116675D02*
X10086975Y-19116675D01*
X10042339Y-19224439D02*
X10042339Y-19008911D01*
X9826811Y-19008911D01*
X9826811Y-19224439D01*
X10042339Y-19224439D01*
X10093325Y-12995275D02*
X10093325Y-13300075D01*
X9940925Y-13147675D02*
X10245725Y-13147675D01*
X10201089Y-13255439D02*
X10201089Y-13039911D01*
X9985561Y-13039911D01*
X9985561Y-13255439D01*
X10201089Y-13255439D01*
X10410825Y-8486775D02*
X10410825Y-8791575D01*
X10258425Y-8639175D02*
X10563225Y-8639175D01*
X10518589Y-8746939D02*
X10518589Y-8531411D01*
X10303061Y-8531411D01*
X10303061Y-8746939D01*
X10518589Y-8746939D01*
X10410825Y-10391775D02*
X10410825Y-10696575D01*
X10258425Y-10544175D02*
X10563225Y-10544175D01*
X10518589Y-10651939D02*
X10518589Y-10436411D01*
X10303061Y-10436411D01*
X10303061Y-10651939D01*
X10518589Y-10651939D01*
X10410825Y-15154275D02*
X10410825Y-15459075D01*
X10258425Y-15306675D02*
X10563225Y-15306675D01*
X10518589Y-15414439D02*
X10518589Y-15198911D01*
X10303061Y-15198911D01*
X10303061Y-15414439D01*
X10518589Y-15414439D01*
X10569575Y-18710275D02*
X10569575Y-19015075D01*
X10417175Y-18862675D02*
X10721975Y-18862675D01*
X10677339Y-18970439D02*
X10677339Y-18754911D01*
X10461811Y-18754911D01*
X10461811Y-18970439D01*
X10677339Y-18970439D01*
X10887075Y-17059275D02*
X10887075Y-17364075D01*
X10734675Y-17211675D02*
X11039475Y-17211675D01*
X10994839Y-17319439D02*
X10994839Y-17103911D01*
X10779311Y-17103911D01*
X10779311Y-17319439D01*
X10994839Y-17319439D01*
X11045825Y-8232775D02*
X11045825Y-8537575D01*
X10893425Y-8385175D02*
X11198225Y-8385175D01*
X11153589Y-8492939D02*
X11153589Y-8277411D01*
X10938061Y-8277411D01*
X10938061Y-8492939D01*
X11153589Y-8492939D01*
X11045825Y-10137775D02*
X11045825Y-10442575D01*
X10893425Y-10290175D02*
X11198225Y-10290175D01*
X11153589Y-10397939D02*
X11153589Y-10182411D01*
X10938061Y-10182411D01*
X10938061Y-10397939D01*
X11153589Y-10397939D01*
X11045825Y-14900275D02*
X11045825Y-15205075D01*
X10893425Y-15052675D02*
X11198225Y-15052675D01*
X11153589Y-15160439D02*
X11153589Y-14944911D01*
X10938061Y-14944911D01*
X10938061Y-15160439D01*
X11153589Y-15160439D01*
X11363325Y-13249275D02*
X11363325Y-13554075D01*
X11210925Y-13401675D02*
X11515725Y-13401675D01*
X11471089Y-13509439D02*
X11471089Y-13293911D01*
X11255561Y-13293911D01*
X11255561Y-13509439D01*
X11471089Y-13509439D01*
X11522075Y-16805275D02*
X11522075Y-17110075D01*
X11369675Y-16957675D02*
X11674475Y-16957675D01*
X11629839Y-17065439D02*
X11629839Y-16849911D01*
X11414311Y-16849911D01*
X11414311Y-17065439D01*
X11629839Y-17065439D01*
X11839000Y-20868600D02*
X11839000Y-21173400D01*
X11686600Y-21021000D02*
X11991400Y-21021000D01*
X11946764Y-21128764D02*
X11946764Y-20913236D01*
X11731236Y-20913236D01*
X11731236Y-21128764D01*
X11946764Y-21128764D01*
X11839575Y-18964275D02*
X11839575Y-19269075D01*
X11687175Y-19116675D02*
X11991975Y-19116675D01*
X11947339Y-19224439D02*
X11947339Y-19008911D01*
X11731811Y-19008911D01*
X11731811Y-19224439D01*
X11947339Y-19224439D01*
X11998325Y-12995275D02*
X11998325Y-13300075D01*
X11845925Y-13147675D02*
X12150725Y-13147675D01*
X12106089Y-13255439D02*
X12106089Y-13039911D01*
X11890561Y-13039911D01*
X11890561Y-13255439D01*
X12106089Y-13255439D01*
X12315825Y-8486775D02*
X12315825Y-8791575D01*
X12163425Y-8639175D02*
X12468225Y-8639175D01*
X12423589Y-8746939D02*
X12423589Y-8531411D01*
X12208061Y-8531411D01*
X12208061Y-8746939D01*
X12423589Y-8746939D01*
X12315825Y-15154275D02*
X12315825Y-15459075D01*
X12163425Y-15306675D02*
X12468225Y-15306675D01*
X12423589Y-15414439D02*
X12423589Y-15198911D01*
X12208061Y-15198911D01*
X12208061Y-15414439D01*
X12423589Y-15414439D01*
X12316000Y-10391600D02*
X12316000Y-10696400D01*
X12163600Y-10544000D02*
X12468400Y-10544000D01*
X12423764Y-10651764D02*
X12423764Y-10436236D01*
X12208236Y-10436236D01*
X12208236Y-10651764D01*
X12423764Y-10651764D01*
X12474000Y-20614600D02*
X12474000Y-20919400D01*
X12321600Y-20767000D02*
X12626400Y-20767000D01*
X12581764Y-20874764D02*
X12581764Y-20659236D01*
X12366236Y-20659236D01*
X12366236Y-20874764D01*
X12581764Y-20874764D01*
X12474575Y-18710275D02*
X12474575Y-19015075D01*
X12322175Y-18862675D02*
X12626975Y-18862675D01*
X12582339Y-18970439D02*
X12582339Y-18754911D01*
X12366811Y-18754911D01*
X12366811Y-18970439D01*
X12582339Y-18970439D01*
X12792075Y-17059275D02*
X12792075Y-17364075D01*
X12639675Y-17211675D02*
X12944475Y-17211675D01*
X12899839Y-17319439D02*
X12899839Y-17103911D01*
X12684311Y-17103911D01*
X12684311Y-17319439D01*
X12899839Y-17319439D01*
X12950825Y-8232775D02*
X12950825Y-8537575D01*
X12798425Y-8385175D02*
X13103225Y-8385175D01*
X13058589Y-8492939D02*
X13058589Y-8277411D01*
X12843061Y-8277411D01*
X12843061Y-8492939D01*
X13058589Y-8492939D01*
X12950825Y-14900275D02*
X12950825Y-15205075D01*
X12798425Y-15052675D02*
X13103225Y-15052675D01*
X13058589Y-15160439D02*
X13058589Y-14944911D01*
X12843061Y-14944911D01*
X12843061Y-15160439D01*
X13058589Y-15160439D01*
X12951000Y-10137600D02*
X12951000Y-10442400D01*
X12798600Y-10290000D02*
X13103400Y-10290000D01*
X13058764Y-10397764D02*
X13058764Y-10182236D01*
X12843236Y-10182236D01*
X12843236Y-10397764D01*
X13058764Y-10397764D01*
X13268325Y-13249275D02*
X13268325Y-13554075D01*
X13115925Y-13401675D02*
X13420725Y-13401675D01*
X13376089Y-13509439D02*
X13376089Y-13293911D01*
X13160561Y-13293911D01*
X13160561Y-13509439D01*
X13376089Y-13509439D01*
X13427075Y-16805275D02*
X13427075Y-17110075D01*
X13274675Y-16957675D02*
X13579475Y-16957675D01*
X13534839Y-17065439D02*
X13534839Y-16849911D01*
X13319311Y-16849911D01*
X13319311Y-17065439D01*
X13534839Y-17065439D01*
X13744575Y-18964275D02*
X13744575Y-19269075D01*
X13592175Y-19116675D02*
X13896975Y-19116675D01*
X13852339Y-19224439D02*
X13852339Y-19008911D01*
X13636811Y-19008911D01*
X13636811Y-19224439D01*
X13852339Y-19224439D01*
X13745000Y-20867600D02*
X13745000Y-21172400D01*
X13592600Y-21020000D02*
X13897400Y-21020000D01*
X13852764Y-21127764D02*
X13852764Y-20912236D01*
X13637236Y-20912236D01*
X13637236Y-21127764D01*
X13852764Y-21127764D01*
X13903325Y-12995275D02*
X13903325Y-13300075D01*
X13750925Y-13147675D02*
X14055725Y-13147675D01*
X14011089Y-13255439D02*
X14011089Y-13039911D01*
X13795561Y-13039911D01*
X13795561Y-13255439D01*
X14011089Y-13255439D01*
X14220825Y-15154275D02*
X14220825Y-15459075D01*
X14068425Y-15306675D02*
X14373225Y-15306675D01*
X14328589Y-15414439D02*
X14328589Y-15198911D01*
X14113061Y-15198911D01*
X14113061Y-15414439D01*
X14328589Y-15414439D01*
X14379575Y-18710275D02*
X14379575Y-19015075D01*
X14227175Y-18862675D02*
X14531975Y-18862675D01*
X14487339Y-18970439D02*
X14487339Y-18754911D01*
X14271811Y-18754911D01*
X14271811Y-18970439D01*
X14487339Y-18970439D01*
X14380000Y-20613600D02*
X14380000Y-20918400D01*
X14227600Y-20766000D02*
X14532400Y-20766000D01*
X14487764Y-20873764D02*
X14487764Y-20658236D01*
X14272236Y-20658236D01*
X14272236Y-20873764D01*
X14487764Y-20873764D01*
X14697075Y-17059275D02*
X14697075Y-17364075D01*
X14544675Y-17211675D02*
X14849475Y-17211675D01*
X14804839Y-17319439D02*
X14804839Y-17103911D01*
X14589311Y-17103911D01*
X14589311Y-17319439D01*
X14804839Y-17319439D01*
X14855825Y-14900275D02*
X14855825Y-15205075D01*
X14703425Y-15052675D02*
X15008225Y-15052675D01*
X14963589Y-15160439D02*
X14963589Y-14944911D01*
X14748061Y-14944911D01*
X14748061Y-15160439D01*
X14963589Y-15160439D01*
X15173325Y-13249275D02*
X15173325Y-13554075D01*
X15020925Y-13401675D02*
X15325725Y-13401675D01*
X15281089Y-13509439D02*
X15281089Y-13293911D01*
X15065561Y-13293911D01*
X15065561Y-13509439D01*
X15281089Y-13509439D01*
X15332075Y-16805275D02*
X15332075Y-17110075D01*
X15179675Y-16957675D02*
X15484475Y-16957675D01*
X15439839Y-17065439D02*
X15439839Y-16849911D01*
X15224311Y-16849911D01*
X15224311Y-17065439D01*
X15439839Y-17065439D01*
X15649575Y-18964275D02*
X15649575Y-19269075D01*
X15497175Y-19116675D02*
X15801975Y-19116675D01*
X15757339Y-19224439D02*
X15757339Y-19008911D01*
X15541811Y-19008911D01*
X15541811Y-19224439D01*
X15757339Y-19224439D01*
X15659100Y-10391775D02*
X15659100Y-10696575D01*
X15506700Y-10544175D02*
X15811500Y-10544175D01*
X15766864Y-10651939D02*
X15766864Y-10436411D01*
X15551336Y-10436411D01*
X15551336Y-10651939D01*
X15766864Y-10651939D01*
X15659109Y-8486775D02*
X15659109Y-8791575D01*
X15506709Y-8639175D02*
X15811509Y-8639175D01*
X15766873Y-8746939D02*
X15766873Y-8531411D01*
X15551345Y-8531411D01*
X15551345Y-8746939D01*
X15766873Y-8746939D01*
X15808325Y-12995275D02*
X15808325Y-13300075D01*
X15655925Y-13147675D02*
X15960725Y-13147675D01*
X15916089Y-13255439D02*
X15916089Y-13039911D01*
X15700561Y-13039911D01*
X15700561Y-13255439D01*
X15916089Y-13255439D01*
X15887700Y-20869275D02*
X15887700Y-21174075D01*
X15735300Y-21021675D02*
X16040100Y-21021675D01*
X15995464Y-21129439D02*
X15995464Y-20913911D01*
X15779936Y-20913911D01*
X15779936Y-21129439D01*
X15995464Y-21129439D01*
X16125825Y-15154275D02*
X16125825Y-15459075D01*
X15973425Y-15306675D02*
X16278225Y-15306675D01*
X16233589Y-15414439D02*
X16233589Y-15198911D01*
X16018061Y-15198911D01*
X16018061Y-15414439D01*
X16233589Y-15414439D01*
X16284575Y-18710275D02*
X16284575Y-19015075D01*
X16132175Y-18862675D02*
X16436975Y-18862675D01*
X16392339Y-18970439D02*
X16392339Y-18754911D01*
X16176811Y-18754911D01*
X16176811Y-18970439D01*
X16392339Y-18970439D01*
X16294100Y-10137775D02*
X16294100Y-10442575D01*
X16141700Y-10290175D02*
X16446500Y-10290175D01*
X16401864Y-10397939D02*
X16401864Y-10182411D01*
X16186336Y-10182411D01*
X16186336Y-10397939D01*
X16401864Y-10397939D01*
X16294109Y-8232775D02*
X16294109Y-8537575D01*
X16141709Y-8385175D02*
X16446509Y-8385175D01*
X16401873Y-8492939D02*
X16401873Y-8277411D01*
X16186345Y-8277411D01*
X16186345Y-8492939D01*
X16401873Y-8492939D01*
X16522700Y-20615275D02*
X16522700Y-20920075D01*
X16370300Y-20767675D02*
X16675100Y-20767675D01*
X16630464Y-20875439D02*
X16630464Y-20659911D01*
X16414936Y-20659911D01*
X16414936Y-20875439D01*
X16630464Y-20875439D01*
X16602075Y-17059275D02*
X16602075Y-17364075D01*
X16449675Y-17211675D02*
X16754475Y-17211675D01*
X16709839Y-17319439D02*
X16709839Y-17103911D01*
X16494311Y-17103911D01*
X16494311Y-17319439D01*
X16709839Y-17319439D01*
X16760825Y-14900275D02*
X16760825Y-15205075D01*
X16608425Y-15052675D02*
X16913225Y-15052675D01*
X16868589Y-15160439D02*
X16868589Y-14944911D01*
X16653061Y-14944911D01*
X16653061Y-15160439D01*
X16868589Y-15160439D01*
X17078325Y-13249275D02*
X17078325Y-13554075D01*
X16925925Y-13401675D02*
X17230725Y-13401675D01*
X17186089Y-13509439D02*
X17186089Y-13293911D01*
X16970561Y-13293911D01*
X16970561Y-13509439D01*
X17186089Y-13509439D01*
X17237075Y-16805275D02*
X17237075Y-17110075D01*
X17084675Y-16957675D02*
X17389475Y-16957675D01*
X17344839Y-17065439D02*
X17344839Y-16849911D01*
X17129311Y-16849911D01*
X17129311Y-17065439D01*
X17344839Y-17065439D01*
X17554575Y-18964275D02*
X17554575Y-19269075D01*
X17402175Y-19116675D02*
X17706975Y-19116675D01*
X17662339Y-19224439D02*
X17662339Y-19008911D01*
X17446811Y-19008911D01*
X17446811Y-19224439D01*
X17662339Y-19224439D01*
X17564100Y-10391775D02*
X17564100Y-10696575D01*
X17411700Y-10544175D02*
X17716500Y-10544175D01*
X17671864Y-10651939D02*
X17671864Y-10436411D01*
X17456336Y-10436411D01*
X17456336Y-10651939D01*
X17671864Y-10651939D01*
X17564111Y-8486775D02*
X17564111Y-8791575D01*
X17411711Y-8639175D02*
X17716511Y-8639175D01*
X17671875Y-8746939D02*
X17671875Y-8531411D01*
X17456347Y-8531411D01*
X17456347Y-8746939D01*
X17671875Y-8746939D01*
X17713325Y-12995275D02*
X17713325Y-13300075D01*
X17560925Y-13147675D02*
X17865725Y-13147675D01*
X17821089Y-13255439D02*
X17821089Y-13039911D01*
X17605561Y-13039911D01*
X17605561Y-13255439D01*
X17821089Y-13255439D01*
X18030825Y-15154275D02*
X18030825Y-15459075D01*
X17878425Y-15306675D02*
X18183225Y-15306675D01*
X18138589Y-15414439D02*
X18138589Y-15198911D01*
X17923061Y-15198911D01*
X17923061Y-15414439D01*
X18138589Y-15414439D01*
X18189575Y-18710275D02*
X18189575Y-19015075D01*
X18037175Y-18862675D02*
X18341975Y-18862675D01*
X18297339Y-18970439D02*
X18297339Y-18754911D01*
X18081811Y-18754911D01*
X18081811Y-18970439D01*
X18297339Y-18970439D01*
X18199100Y-10137775D02*
X18199100Y-10442575D01*
X18046700Y-10290175D02*
X18351500Y-10290175D01*
X18306864Y-10397939D02*
X18306864Y-10182411D01*
X18091336Y-10182411D01*
X18091336Y-10397939D01*
X18306864Y-10397939D01*
X18199111Y-8232775D02*
X18199111Y-8537575D01*
X18046711Y-8385175D02*
X18351511Y-8385175D01*
X18306875Y-8492939D02*
X18306875Y-8277411D01*
X18091347Y-8277411D01*
X18091347Y-8492939D01*
X18306875Y-8492939D01*
X18506500Y-17061100D02*
X18506500Y-17365900D01*
X18354100Y-17213500D02*
X18658900Y-17213500D01*
X18614264Y-17321264D02*
X18614264Y-17105736D01*
X18398736Y-17105736D01*
X18398736Y-17321264D01*
X18614264Y-17321264D01*
X18665825Y-14900275D02*
X18665825Y-15205075D01*
X18513425Y-15052675D02*
X18818225Y-15052675D01*
X18773589Y-15160439D02*
X18773589Y-14944911D01*
X18558061Y-14944911D01*
X18558061Y-15160439D01*
X18773589Y-15160439D01*
X18983325Y-13249275D02*
X18983325Y-13554075D01*
X18830925Y-13401675D02*
X19135725Y-13401675D01*
X19091089Y-13509439D02*
X19091089Y-13293911D01*
X18875561Y-13293911D01*
X18875561Y-13509439D01*
X19091089Y-13509439D01*
X19141500Y-16807100D02*
X19141500Y-17111900D01*
X18989100Y-16959500D02*
X19293900Y-16959500D01*
X19249264Y-17067264D02*
X19249264Y-16851736D01*
X19033736Y-16851736D01*
X19033736Y-17067264D01*
X19249264Y-17067264D01*
X19459000Y-20868600D02*
X19459000Y-21173400D01*
X19306600Y-21021000D02*
X19611400Y-21021000D01*
X19566764Y-21128764D02*
X19566764Y-20913236D01*
X19351236Y-20913236D01*
X19351236Y-21128764D01*
X19566764Y-21128764D01*
X19459575Y-18964275D02*
X19459575Y-19269075D01*
X19307175Y-19116675D02*
X19611975Y-19116675D01*
X19567339Y-19224439D02*
X19567339Y-19008911D01*
X19351811Y-19008911D01*
X19351811Y-19224439D01*
X19567339Y-19224439D01*
X19469100Y-8486775D02*
X19469100Y-8791575D01*
X19316700Y-8639175D02*
X19621500Y-8639175D01*
X19576864Y-8746939D02*
X19576864Y-8531411D01*
X19361336Y-8531411D01*
X19361336Y-8746939D01*
X19576864Y-8746939D01*
X19469100Y-10391775D02*
X19469100Y-10696575D01*
X19316700Y-10544175D02*
X19621500Y-10544175D01*
X19576864Y-10651939D02*
X19576864Y-10436411D01*
X19361336Y-10436411D01*
X19361336Y-10651939D01*
X19576864Y-10651939D01*
X19618325Y-12995275D02*
X19618325Y-13300075D01*
X19465925Y-13147675D02*
X19770725Y-13147675D01*
X19726089Y-13255439D02*
X19726089Y-13039911D01*
X19510561Y-13039911D01*
X19510561Y-13255439D01*
X19726089Y-13255439D01*
X19935825Y-15154275D02*
X19935825Y-15459075D01*
X19783425Y-15306675D02*
X20088225Y-15306675D01*
X20043589Y-15414439D02*
X20043589Y-15198911D01*
X19828061Y-15198911D01*
X19828061Y-15414439D01*
X20043589Y-15414439D01*
X20094000Y-20614600D02*
X20094000Y-20919400D01*
X19941600Y-20767000D02*
X20246400Y-20767000D01*
X20201764Y-20874764D02*
X20201764Y-20659236D01*
X19986236Y-20659236D01*
X19986236Y-20874764D01*
X20201764Y-20874764D01*
X20094575Y-18710275D02*
X20094575Y-19015075D01*
X19942175Y-18862675D02*
X20246975Y-18862675D01*
X20202339Y-18970439D02*
X20202339Y-18754911D01*
X19986811Y-18754911D01*
X19986811Y-18970439D01*
X20202339Y-18970439D01*
X20104100Y-8232775D02*
X20104100Y-8537575D01*
X19951700Y-8385175D02*
X20256500Y-8385175D01*
X20211864Y-8492939D02*
X20211864Y-8277411D01*
X19996336Y-8277411D01*
X19996336Y-8492939D01*
X20211864Y-8492939D01*
X20104100Y-10137775D02*
X20104100Y-10442575D01*
X19951700Y-10290175D02*
X20256500Y-10290175D01*
X20211864Y-10397939D02*
X20211864Y-10182411D01*
X19996336Y-10182411D01*
X19996336Y-10397939D01*
X20211864Y-10397939D01*
X20412075Y-17059275D02*
X20412075Y-17364075D01*
X20259675Y-17211675D02*
X20564475Y-17211675D01*
X20519839Y-17319439D02*
X20519839Y-17103911D01*
X20304311Y-17103911D01*
X20304311Y-17319439D01*
X20519839Y-17319439D01*
X20570825Y-14900275D02*
X20570825Y-15205075D01*
X20418425Y-15052675D02*
X20723225Y-15052675D01*
X20678589Y-15160439D02*
X20678589Y-14944911D01*
X20463061Y-14944911D01*
X20463061Y-15160439D01*
X20678589Y-15160439D01*
X20888325Y-13249275D02*
X20888325Y-13554075D01*
X20735925Y-13401675D02*
X21040725Y-13401675D01*
X20996089Y-13509439D02*
X20996089Y-13293911D01*
X20780561Y-13293911D01*
X20780561Y-13509439D01*
X20996089Y-13509439D01*
X21047075Y-16805275D02*
X21047075Y-17110075D01*
X20894675Y-16957675D02*
X21199475Y-16957675D01*
X21154839Y-17065439D02*
X21154839Y-16849911D01*
X20939311Y-16849911D01*
X20939311Y-17065439D01*
X21154839Y-17065439D01*
X21364575Y-18964275D02*
X21364575Y-19269075D01*
X21212175Y-19116675D02*
X21516975Y-19116675D01*
X21472339Y-19224439D02*
X21472339Y-19008911D01*
X21256811Y-19008911D01*
X21256811Y-19224439D01*
X21472339Y-19224439D01*
X21374100Y-8486775D02*
X21374100Y-8791575D01*
X21221700Y-8639175D02*
X21526500Y-8639175D01*
X21481864Y-8746939D02*
X21481864Y-8531411D01*
X21266336Y-8531411D01*
X21266336Y-8746939D01*
X21481864Y-8746939D01*
X21374100Y-10391775D02*
X21374100Y-10696575D01*
X21221700Y-10544175D02*
X21526500Y-10544175D01*
X21481864Y-10651939D02*
X21481864Y-10436411D01*
X21266336Y-10436411D01*
X21266336Y-10651939D01*
X21481864Y-10651939D01*
X21523325Y-12995275D02*
X21523325Y-13300075D01*
X21370925Y-13147675D02*
X21675725Y-13147675D01*
X21631089Y-13255439D02*
X21631089Y-13039911D01*
X21415561Y-13039911D01*
X21415561Y-13255439D01*
X21631089Y-13255439D01*
X21840825Y-15154275D02*
X21840825Y-15459075D01*
X21688425Y-15306675D02*
X21993225Y-15306675D01*
X21948589Y-15414439D02*
X21948589Y-15198911D01*
X21733061Y-15198911D01*
X21733061Y-15414439D01*
X21948589Y-15414439D01*
X21999575Y-18710275D02*
X21999575Y-19015075D01*
X21847175Y-18862675D02*
X22151975Y-18862675D01*
X22107339Y-18970439D02*
X22107339Y-18754911D01*
X21891811Y-18754911D01*
X21891811Y-18970439D01*
X22107339Y-18970439D01*
X22009100Y-8232775D02*
X22009100Y-8537575D01*
X21856700Y-8385175D02*
X22161500Y-8385175D01*
X22116864Y-8492939D02*
X22116864Y-8277411D01*
X21901336Y-8277411D01*
X21901336Y-8492939D01*
X22116864Y-8492939D01*
X22009100Y-10137775D02*
X22009100Y-10442575D01*
X21856700Y-10290175D02*
X22161500Y-10290175D01*
X22116864Y-10397939D02*
X22116864Y-10182411D01*
X21901336Y-10182411D01*
X21901336Y-10397939D01*
X22116864Y-10397939D01*
X22317075Y-17059275D02*
X22317075Y-17364075D01*
X22164675Y-17211675D02*
X22469475Y-17211675D01*
X22424839Y-17319439D02*
X22424839Y-17103911D01*
X22209311Y-17103911D01*
X22209311Y-17319439D01*
X22424839Y-17319439D01*
X22475825Y-14900275D02*
X22475825Y-15205075D01*
X22323425Y-15052675D02*
X22628225Y-15052675D01*
X22583589Y-15160439D02*
X22583589Y-14944911D01*
X22368061Y-14944911D01*
X22368061Y-15160439D01*
X22583589Y-15160439D01*
X22793325Y-13249275D02*
X22793325Y-13554075D01*
X22640925Y-13401675D02*
X22945725Y-13401675D01*
X22901089Y-13509439D02*
X22901089Y-13293911D01*
X22685561Y-13293911D01*
X22685561Y-13509439D01*
X22901089Y-13509439D01*
X22952075Y-16805275D02*
X22952075Y-17110075D01*
X22799675Y-16957675D02*
X23104475Y-16957675D01*
X23059839Y-17065439D02*
X23059839Y-16849911D01*
X22844311Y-16849911D01*
X22844311Y-17065439D01*
X23059839Y-17065439D01*
X23031450Y-20869275D02*
X23031450Y-21174075D01*
X22879050Y-21021675D02*
X23183850Y-21021675D01*
X23139214Y-21129439D02*
X23139214Y-20913911D01*
X22923686Y-20913911D01*
X22923686Y-21129439D01*
X23139214Y-21129439D01*
X23269575Y-18964275D02*
X23269575Y-19269075D01*
X23117175Y-19116675D02*
X23421975Y-19116675D01*
X23377339Y-19224439D02*
X23377339Y-19008911D01*
X23161811Y-19008911D01*
X23161811Y-19224439D01*
X23377339Y-19224439D01*
X23428325Y-12995275D02*
X23428325Y-13300075D01*
X23275925Y-13147675D02*
X23580725Y-13147675D01*
X23536089Y-13255439D02*
X23536089Y-13039911D01*
X23320561Y-13039911D01*
X23320561Y-13255439D01*
X23536089Y-13255439D01*
X23666450Y-20615275D02*
X23666450Y-20920075D01*
X23514050Y-20767675D02*
X23818850Y-20767675D01*
X23774214Y-20875439D02*
X23774214Y-20659911D01*
X23558686Y-20659911D01*
X23558686Y-20875439D01*
X23774214Y-20875439D01*
X23745825Y-15154275D02*
X23745825Y-15459075D01*
X23593425Y-15306675D02*
X23898225Y-15306675D01*
X23853589Y-15414439D02*
X23853589Y-15198911D01*
X23638061Y-15198911D01*
X23638061Y-15414439D01*
X23853589Y-15414439D01*
X23904575Y-18710275D02*
X23904575Y-19015075D01*
X23752175Y-18862675D02*
X24056975Y-18862675D01*
X24012339Y-18970439D02*
X24012339Y-18754911D01*
X23796811Y-18754911D01*
X23796811Y-18970439D01*
X24012339Y-18970439D01*
X24222075Y-17059275D02*
X24222075Y-17364075D01*
X24069675Y-17211675D02*
X24374475Y-17211675D01*
X24329839Y-17319439D02*
X24329839Y-17103911D01*
X24114311Y-17103911D01*
X24114311Y-17319439D01*
X24329839Y-17319439D01*
X24380825Y-14900275D02*
X24380825Y-15205075D01*
X24228425Y-15052675D02*
X24533225Y-15052675D01*
X24488589Y-15160439D02*
X24488589Y-14944911D01*
X24273061Y-14944911D01*
X24273061Y-15160439D01*
X24488589Y-15160439D01*
X24698325Y-10391775D02*
X24698325Y-10696575D01*
X24545925Y-10544175D02*
X24850725Y-10544175D01*
X24806089Y-10651939D02*
X24806089Y-10436411D01*
X24590561Y-10436411D01*
X24590561Y-10651939D01*
X24806089Y-10651939D01*
X24698325Y-13249275D02*
X24698325Y-13554075D01*
X24545925Y-13401675D02*
X24850725Y-13401675D01*
X24806089Y-13509439D02*
X24806089Y-13293911D01*
X24590561Y-13293911D01*
X24590561Y-13509439D01*
X24806089Y-13509439D01*
X24698341Y-8486775D02*
X24698341Y-8791575D01*
X24545941Y-8639175D02*
X24850741Y-8639175D01*
X24806105Y-8746939D02*
X24806105Y-8531411D01*
X24590577Y-8531411D01*
X24590577Y-8746939D01*
X24806105Y-8746939D01*
X24857075Y-16805275D02*
X24857075Y-17110075D01*
X24704675Y-16957675D02*
X25009475Y-16957675D01*
X24964839Y-17065439D02*
X24964839Y-16849911D01*
X24749311Y-16849911D01*
X24749311Y-17065439D01*
X24964839Y-17065439D01*
X25174575Y-18964275D02*
X25174575Y-19269075D01*
X25022175Y-19116675D02*
X25326975Y-19116675D01*
X25282339Y-19224439D02*
X25282339Y-19008911D01*
X25066811Y-19008911D01*
X25066811Y-19224439D01*
X25282339Y-19224439D01*
X25333325Y-10137775D02*
X25333325Y-10442575D01*
X25180925Y-10290175D02*
X25485725Y-10290175D01*
X25441089Y-10397939D02*
X25441089Y-10182411D01*
X25225561Y-10182411D01*
X25225561Y-10397939D01*
X25441089Y-10397939D01*
X25333325Y-12995275D02*
X25333325Y-13300075D01*
X25180925Y-13147675D02*
X25485725Y-13147675D01*
X25441089Y-13255439D02*
X25441089Y-13039911D01*
X25225561Y-13039911D01*
X25225561Y-13255439D01*
X25441089Y-13255439D01*
X25333341Y-8232775D02*
X25333341Y-8537575D01*
X25180941Y-8385175D02*
X25485741Y-8385175D01*
X25441105Y-8492939D02*
X25441105Y-8277411D01*
X25225577Y-8277411D01*
X25225577Y-8492939D01*
X25441105Y-8492939D01*
X25412700Y-20869275D02*
X25412700Y-21174075D01*
X25260300Y-21021675D02*
X25565100Y-21021675D01*
X25520464Y-21129439D02*
X25520464Y-20913911D01*
X25304936Y-20913911D01*
X25304936Y-21129439D01*
X25520464Y-21129439D01*
X25650825Y-15154275D02*
X25650825Y-15459075D01*
X25498425Y-15306675D02*
X25803225Y-15306675D01*
X25758589Y-15414439D02*
X25758589Y-15198911D01*
X25543061Y-15198911D01*
X25543061Y-15414439D01*
X25758589Y-15414439D01*
X25809575Y-18710275D02*
X25809575Y-19015075D01*
X25657175Y-18862675D02*
X25961975Y-18862675D01*
X25917339Y-18970439D02*
X25917339Y-18754911D01*
X25701811Y-18754911D01*
X25701811Y-18970439D01*
X25917339Y-18970439D01*
X26047700Y-20615275D02*
X26047700Y-20920075D01*
X25895300Y-20767675D02*
X26200100Y-20767675D01*
X26155464Y-20875439D02*
X26155464Y-20659911D01*
X25939936Y-20659911D01*
X25939936Y-20875439D01*
X26155464Y-20875439D01*
X26127075Y-17059275D02*
X26127075Y-17364075D01*
X25974675Y-17211675D02*
X26279475Y-17211675D01*
X26234839Y-17319439D02*
X26234839Y-17103911D01*
X26019311Y-17103911D01*
X26019311Y-17319439D01*
X26234839Y-17319439D01*
X26285825Y-14900275D02*
X26285825Y-15205075D01*
X26133425Y-15052675D02*
X26438225Y-15052675D01*
X26393589Y-15160439D02*
X26393589Y-14944911D01*
X26178061Y-14944911D01*
X26178061Y-15160439D01*
X26393589Y-15160439D01*
X26603325Y-8486775D02*
X26603325Y-8791575D01*
X26450925Y-8639175D02*
X26755725Y-8639175D01*
X26711089Y-8746939D02*
X26711089Y-8531411D01*
X26495561Y-8531411D01*
X26495561Y-8746939D01*
X26711089Y-8746939D01*
X26603325Y-10391775D02*
X26603325Y-10696575D01*
X26450925Y-10544175D02*
X26755725Y-10544175D01*
X26711089Y-10651939D02*
X26711089Y-10436411D01*
X26495561Y-10436411D01*
X26495561Y-10651939D01*
X26711089Y-10651939D01*
X26603325Y-13249275D02*
X26603325Y-13554075D01*
X26450925Y-13401675D02*
X26755725Y-13401675D01*
X26711089Y-13509439D02*
X26711089Y-13293911D01*
X26495561Y-13293911D01*
X26495561Y-13509439D01*
X26711089Y-13509439D01*
X26762075Y-16805275D02*
X26762075Y-17110075D01*
X26609675Y-16957675D02*
X26914475Y-16957675D01*
X26869839Y-17065439D02*
X26869839Y-16849911D01*
X26654311Y-16849911D01*
X26654311Y-17065439D01*
X26869839Y-17065439D01*
X27238325Y-8232775D02*
X27238325Y-8537575D01*
X27085925Y-8385175D02*
X27390725Y-8385175D01*
X27346089Y-8492939D02*
X27346089Y-8277411D01*
X27130561Y-8277411D01*
X27130561Y-8492939D01*
X27346089Y-8492939D01*
X27238325Y-10137775D02*
X27238325Y-10442575D01*
X27085925Y-10290175D02*
X27390725Y-10290175D01*
X27346089Y-10397939D02*
X27346089Y-10182411D01*
X27130561Y-10182411D01*
X27130561Y-10397939D01*
X27346089Y-10397939D01*
X27238325Y-12995275D02*
X27238325Y-13300075D01*
X27085925Y-13147675D02*
X27390725Y-13147675D01*
X27346089Y-13255439D02*
X27346089Y-13039911D01*
X27130561Y-13039911D01*
X27130561Y-13255439D01*
X27346089Y-13255439D01*
X27555825Y-15154275D02*
X27555825Y-15459075D01*
X27403425Y-15306675D02*
X27708225Y-15306675D01*
X27663589Y-15414439D02*
X27663589Y-15198911D01*
X27448061Y-15198911D01*
X27448061Y-15414439D01*
X27663589Y-15414439D01*
X27793950Y-20869275D02*
X27793950Y-21174075D01*
X27641550Y-21021675D02*
X27946350Y-21021675D01*
X27901714Y-21129439D02*
X27901714Y-20913911D01*
X27686186Y-20913911D01*
X27686186Y-21129439D01*
X27901714Y-21129439D01*
X28032075Y-17059275D02*
X28032075Y-17364075D01*
X27879675Y-17211675D02*
X28184475Y-17211675D01*
X28139839Y-17319439D02*
X28139839Y-17103911D01*
X27924311Y-17103911D01*
X27924311Y-17319439D01*
X28139839Y-17319439D01*
X28190825Y-14900275D02*
X28190825Y-15205075D01*
X28038425Y-15052675D02*
X28343225Y-15052675D01*
X28298589Y-15160439D02*
X28298589Y-14944911D01*
X28083061Y-14944911D01*
X28083061Y-15160439D01*
X28298589Y-15160439D01*
X28428950Y-20615275D02*
X28428950Y-20920075D01*
X28276550Y-20767675D02*
X28581350Y-20767675D01*
X28536714Y-20875439D02*
X28536714Y-20659911D01*
X28321186Y-20659911D01*
X28321186Y-20875439D01*
X28536714Y-20875439D01*
X28508325Y-8486775D02*
X28508325Y-8791575D01*
X28355925Y-8639175D02*
X28660725Y-8639175D01*
X28616089Y-8746939D02*
X28616089Y-8531411D01*
X28400561Y-8531411D01*
X28400561Y-8746939D01*
X28616089Y-8746939D01*
X28508325Y-10391775D02*
X28508325Y-10696575D01*
X28355925Y-10544175D02*
X28660725Y-10544175D01*
X28616089Y-10651939D02*
X28616089Y-10436411D01*
X28400561Y-10436411D01*
X28400561Y-10651939D01*
X28616089Y-10651939D01*
X28667075Y-16805275D02*
X28667075Y-17110075D01*
X28514675Y-16957675D02*
X28819475Y-16957675D01*
X28774839Y-17065439D02*
X28774839Y-16849911D01*
X28559311Y-16849911D01*
X28559311Y-17065439D01*
X28774839Y-17065439D01*
X28746450Y-18964275D02*
X28746450Y-19269075D01*
X28594050Y-19116675D02*
X28898850Y-19116675D01*
X28854214Y-19224439D02*
X28854214Y-19008911D01*
X28638686Y-19008911D01*
X28638686Y-19224439D01*
X28854214Y-19224439D01*
X29143325Y-8232775D02*
X29143325Y-8537575D01*
X28990925Y-8385175D02*
X29295725Y-8385175D01*
X29251089Y-8492939D02*
X29251089Y-8277411D01*
X29035561Y-8277411D01*
X29035561Y-8492939D01*
X29251089Y-8492939D01*
X29143325Y-10137775D02*
X29143325Y-10442575D01*
X28990925Y-10290175D02*
X29295725Y-10290175D01*
X29251089Y-10397939D02*
X29251089Y-10182411D01*
X29035561Y-10182411D01*
X29035561Y-10397939D01*
X29251089Y-10397939D01*
X29381450Y-18710275D02*
X29381450Y-19015075D01*
X29229050Y-18862675D02*
X29533850Y-18862675D01*
X29489214Y-18970439D02*
X29489214Y-18754911D01*
X29273686Y-18754911D01*
X29273686Y-18970439D01*
X29489214Y-18970439D01*
X29460825Y-13249275D02*
X29460825Y-13554075D01*
X29308425Y-13401675D02*
X29613225Y-13401675D01*
X29568589Y-13509439D02*
X29568589Y-13293911D01*
X29353061Y-13293911D01*
X29353061Y-13509439D01*
X29568589Y-13509439D01*
X30095825Y-12995275D02*
X30095825Y-13300075D01*
X29943425Y-13147675D02*
X30248225Y-13147675D01*
X30203589Y-13255439D02*
X30203589Y-13039911D01*
X29988061Y-13039911D01*
X29988061Y-13255439D01*
X30203589Y-13255439D01*
X30175200Y-16106775D02*
X30175200Y-16411575D01*
X30022800Y-16259175D02*
X30327600Y-16259175D01*
X30282964Y-16366939D02*
X30282964Y-16151411D01*
X30067436Y-16151411D01*
X30067436Y-16366939D01*
X30282964Y-16366939D01*
X30175200Y-20869275D02*
X30175200Y-21174075D01*
X30022800Y-21021675D02*
X30327600Y-21021675D01*
X30282964Y-21129439D02*
X30282964Y-20913911D01*
X30067436Y-20913911D01*
X30067436Y-21129439D01*
X30282964Y-21129439D01*
X30413325Y-8486775D02*
X30413325Y-8791575D01*
X30260925Y-8639175D02*
X30565725Y-8639175D01*
X30521089Y-8746939D02*
X30521089Y-8531411D01*
X30305561Y-8531411D01*
X30305561Y-8746939D01*
X30521089Y-8746939D01*
X30413325Y-10391775D02*
X30413325Y-10696575D01*
X30260925Y-10544175D02*
X30565725Y-10544175D01*
X30521089Y-10651939D02*
X30521089Y-10436411D01*
X30305561Y-10436411D01*
X30305561Y-10651939D01*
X30521089Y-10651939D01*
X30810200Y-15852775D02*
X30810200Y-16157575D01*
X30657800Y-16005175D02*
X30962600Y-16005175D01*
X30917964Y-16112939D02*
X30917964Y-15897411D01*
X30702436Y-15897411D01*
X30702436Y-16112939D01*
X30917964Y-16112939D01*
X30810200Y-20615275D02*
X30810200Y-20920075D01*
X30657800Y-20767675D02*
X30962600Y-20767675D01*
X30917964Y-20875439D02*
X30917964Y-20659911D01*
X30702436Y-20659911D01*
X30702436Y-20875439D01*
X30917964Y-20875439D01*
X31048325Y-8232775D02*
X31048325Y-8537575D01*
X30895925Y-8385175D02*
X31200725Y-8385175D01*
X31156089Y-8492939D02*
X31156089Y-8277411D01*
X30940561Y-8277411D01*
X30940561Y-8492939D01*
X31156089Y-8492939D01*
X31048325Y-10137775D02*
X31048325Y-10442575D01*
X30895925Y-10290175D02*
X31200725Y-10290175D01*
X31156089Y-10397939D02*
X31156089Y-10182411D01*
X30940561Y-10182411D01*
X30940561Y-10397939D01*
X31156089Y-10397939D01*
X32794575Y-20872450D02*
X32794575Y-21177250D01*
X32642175Y-21024850D02*
X32946975Y-21024850D01*
X32902339Y-21132614D02*
X32902339Y-20917086D01*
X32686811Y-20917086D01*
X32686811Y-21132614D01*
X32902339Y-21132614D01*
X32795000Y-18967600D02*
X32795000Y-19272400D01*
X32642600Y-19120000D02*
X32947400Y-19120000D01*
X32902764Y-19227764D02*
X32902764Y-19012236D01*
X32687236Y-19012236D01*
X32687236Y-19227764D01*
X32902764Y-19227764D01*
X32797750Y-6578600D02*
X32797750Y-6883400D01*
X32645350Y-6731000D02*
X32950150Y-6731000D01*
X32905514Y-6838764D02*
X32905514Y-6623236D01*
X32689986Y-6623236D01*
X32689986Y-6838764D01*
X32905514Y-6838764D01*
X32797750Y-8483600D02*
X32797750Y-8788400D01*
X32645350Y-8636000D02*
X32950150Y-8636000D01*
X32905514Y-8743764D02*
X32905514Y-8528236D01*
X32689986Y-8528236D01*
X32689986Y-8743764D01*
X32905514Y-8743764D01*
X32797750Y-10388600D02*
X32797750Y-10693400D01*
X32645350Y-10541000D02*
X32950150Y-10541000D01*
X32905514Y-10648764D02*
X32905514Y-10433236D01*
X32689986Y-10433236D01*
X32689986Y-10648764D01*
X32905514Y-10648764D01*
X32797750Y-13246100D02*
X32797750Y-13550900D01*
X32645350Y-13398500D02*
X32950150Y-13398500D01*
X32905514Y-13506264D02*
X32905514Y-13290736D01*
X32689986Y-13290736D01*
X32689986Y-13506264D01*
X32905514Y-13506264D01*
X32797750Y-15151100D02*
X32797750Y-15455900D01*
X32645350Y-15303500D02*
X32950150Y-15303500D01*
X32905514Y-15411264D02*
X32905514Y-15195736D01*
X32689986Y-15195736D01*
X32689986Y-15411264D01*
X32905514Y-15411264D01*
X33429575Y-20618450D02*
X33429575Y-20923250D01*
X33277175Y-20770850D02*
X33581975Y-20770850D01*
X33537339Y-20878614D02*
X33537339Y-20663086D01*
X33321811Y-20663086D01*
X33321811Y-20878614D01*
X33537339Y-20878614D01*
X33430000Y-18713600D02*
X33430000Y-19018400D01*
X33277600Y-18866000D02*
X33582400Y-18866000D01*
X33537764Y-18973764D02*
X33537764Y-18758236D01*
X33322236Y-18758236D01*
X33322236Y-18973764D01*
X33537764Y-18973764D01*
X33432750Y-6324600D02*
X33432750Y-6629400D01*
X33280350Y-6477000D02*
X33585150Y-6477000D01*
X33540514Y-6584764D02*
X33540514Y-6369236D01*
X33324986Y-6369236D01*
X33324986Y-6584764D01*
X33540514Y-6584764D01*
X33432750Y-8229600D02*
X33432750Y-8534400D01*
X33280350Y-8382000D02*
X33585150Y-8382000D01*
X33540514Y-8489764D02*
X33540514Y-8274236D01*
X33324986Y-8274236D01*
X33324986Y-8489764D01*
X33540514Y-8489764D01*
X33432750Y-10134600D02*
X33432750Y-10439400D01*
X33280350Y-10287000D02*
X33585150Y-10287000D01*
X33540514Y-10394764D02*
X33540514Y-10179236D01*
X33324986Y-10179236D01*
X33324986Y-10394764D01*
X33540514Y-10394764D01*
X33432750Y-12992100D02*
X33432750Y-13296900D01*
X33280350Y-13144500D02*
X33585150Y-13144500D01*
X33540514Y-13252264D02*
X33540514Y-13036736D01*
X33324986Y-13036736D01*
X33324986Y-13252264D01*
X33540514Y-13252264D01*
X33432750Y-14897100D02*
X33432750Y-15201900D01*
X33280350Y-15049500D02*
X33585150Y-15049500D01*
X33540514Y-15157264D02*
X33540514Y-14941736D01*
X33324986Y-14941736D01*
X33324986Y-15157264D01*
X33540514Y-15157264D01*
X34699575Y-18967450D02*
X34699575Y-19272250D01*
X34547175Y-19119850D02*
X34851975Y-19119850D01*
X34807339Y-19227614D02*
X34807339Y-19012086D01*
X34591811Y-19012086D01*
X34591811Y-19227614D01*
X34807339Y-19227614D01*
X34699575Y-20872450D02*
X34699575Y-21177250D01*
X34547175Y-21024850D02*
X34851975Y-21024850D01*
X34807339Y-21132614D02*
X34807339Y-20917086D01*
X34591811Y-20917086D01*
X34591811Y-21132614D01*
X34807339Y-21132614D01*
X34702750Y-6578600D02*
X34702750Y-6883400D01*
X34550350Y-6731000D02*
X34855150Y-6731000D01*
X34810514Y-6838764D02*
X34810514Y-6623236D01*
X34594986Y-6623236D01*
X34594986Y-6838764D01*
X34810514Y-6838764D01*
X34702750Y-8483600D02*
X34702750Y-8788400D01*
X34550350Y-8636000D02*
X34855150Y-8636000D01*
X34810514Y-8743764D02*
X34810514Y-8528236D01*
X34594986Y-8528236D01*
X34594986Y-8743764D01*
X34810514Y-8743764D01*
X34702750Y-10388600D02*
X34702750Y-10693400D01*
X34550350Y-10541000D02*
X34855150Y-10541000D01*
X34810514Y-10648764D02*
X34810514Y-10433236D01*
X34594986Y-10433236D01*
X34594986Y-10648764D01*
X34810514Y-10648764D01*
X34702750Y-13246100D02*
X34702750Y-13550900D01*
X34550350Y-13398500D02*
X34855150Y-13398500D01*
X34810514Y-13506264D02*
X34810514Y-13290736D01*
X34594986Y-13290736D01*
X34594986Y-13506264D01*
X34810514Y-13506264D01*
X34702750Y-15151100D02*
X34702750Y-15455900D01*
X34550350Y-15303500D02*
X34855150Y-15303500D01*
X34810514Y-15411264D02*
X34810514Y-15195736D01*
X34594986Y-15195736D01*
X34594986Y-15411264D01*
X34810514Y-15411264D01*
X35334575Y-18713450D02*
X35334575Y-19018250D01*
X35182175Y-18865850D02*
X35486975Y-18865850D01*
X35442339Y-18973614D02*
X35442339Y-18758086D01*
X35226811Y-18758086D01*
X35226811Y-18973614D01*
X35442339Y-18973614D01*
X35334575Y-20618450D02*
X35334575Y-20923250D01*
X35182175Y-20770850D02*
X35486975Y-20770850D01*
X35442339Y-20878614D02*
X35442339Y-20663086D01*
X35226811Y-20663086D01*
X35226811Y-20878614D01*
X35442339Y-20878614D01*
X35337750Y-6324600D02*
X35337750Y-6629400D01*
X35185350Y-6477000D02*
X35490150Y-6477000D01*
X35445514Y-6584764D02*
X35445514Y-6369236D01*
X35229986Y-6369236D01*
X35229986Y-6584764D01*
X35445514Y-6584764D01*
X35337750Y-8229600D02*
X35337750Y-8534400D01*
X35185350Y-8382000D02*
X35490150Y-8382000D01*
X35445514Y-8489764D02*
X35445514Y-8274236D01*
X35229986Y-8274236D01*
X35229986Y-8489764D01*
X35445514Y-8489764D01*
X35337750Y-10134600D02*
X35337750Y-10439400D01*
X35185350Y-10287000D02*
X35490150Y-10287000D01*
X35445514Y-10394764D02*
X35445514Y-10179236D01*
X35229986Y-10179236D01*
X35229986Y-10394764D01*
X35445514Y-10394764D01*
X35337750Y-12992100D02*
X35337750Y-13296900D01*
X35185350Y-13144500D02*
X35490150Y-13144500D01*
X35445514Y-13252264D02*
X35445514Y-13036736D01*
X35229986Y-13036736D01*
X35229986Y-13252264D01*
X35445514Y-13252264D01*
X35337750Y-14897100D02*
X35337750Y-15201900D01*
X35185350Y-15049500D02*
X35490150Y-15049500D01*
X35445514Y-15157264D02*
X35445514Y-14941736D01*
X35229986Y-14941736D01*
X35229986Y-15157264D01*
X35445514Y-15157264D01*
X36604000Y-18966100D02*
X36604000Y-19270900D01*
X36451600Y-19118500D02*
X36756400Y-19118500D01*
X36711764Y-19226264D02*
X36711764Y-19010736D01*
X36496236Y-19010736D01*
X36496236Y-19226264D01*
X36711764Y-19226264D01*
X36604575Y-20872450D02*
X36604575Y-21177250D01*
X36452175Y-21024850D02*
X36756975Y-21024850D01*
X36712339Y-21132614D02*
X36712339Y-20917086D01*
X36496811Y-20917086D01*
X36496811Y-21132614D01*
X36712339Y-21132614D01*
X36607750Y-8483600D02*
X36607750Y-8788400D01*
X36455350Y-8636000D02*
X36760150Y-8636000D01*
X36715514Y-8743764D02*
X36715514Y-8528236D01*
X36499986Y-8528236D01*
X36499986Y-8743764D01*
X36715514Y-8743764D01*
X36607750Y-10388600D02*
X36607750Y-10693400D01*
X36455350Y-10541000D02*
X36760150Y-10541000D01*
X36715514Y-10648764D02*
X36715514Y-10433236D01*
X36499986Y-10433236D01*
X36499986Y-10648764D01*
X36715514Y-10648764D01*
X36607750Y-13246100D02*
X36607750Y-13550900D01*
X36455350Y-13398500D02*
X36760150Y-13398500D01*
X36715514Y-13506264D02*
X36715514Y-13290736D01*
X36499986Y-13290736D01*
X36499986Y-13506264D01*
X36715514Y-13506264D01*
X36607750Y-15151100D02*
X36607750Y-15455900D01*
X36455350Y-15303500D02*
X36760150Y-15303500D01*
X36715514Y-15411264D02*
X36715514Y-15195736D01*
X36499986Y-15195736D01*
X36499986Y-15411264D01*
X36715514Y-15411264D01*
X37239000Y-18712100D02*
X37239000Y-19016900D01*
X37086600Y-18864500D02*
X37391400Y-18864500D01*
X37346764Y-18972264D02*
X37346764Y-18756736D01*
X37131236Y-18756736D01*
X37131236Y-18972264D01*
X37346764Y-18972264D01*
X37239575Y-20618450D02*
X37239575Y-20923250D01*
X37087175Y-20770850D02*
X37391975Y-20770850D01*
X37347339Y-20878614D02*
X37347339Y-20663086D01*
X37131811Y-20663086D01*
X37131811Y-20878614D01*
X37347339Y-20878614D01*
X37242750Y-8229600D02*
X37242750Y-8534400D01*
X37090350Y-8382000D02*
X37395150Y-8382000D01*
X37350514Y-8489764D02*
X37350514Y-8274236D01*
X37134986Y-8274236D01*
X37134986Y-8489764D01*
X37350514Y-8489764D01*
X37242750Y-10134600D02*
X37242750Y-10439400D01*
X37090350Y-10287000D02*
X37395150Y-10287000D01*
X37350514Y-10394764D02*
X37350514Y-10179236D01*
X37134986Y-10179236D01*
X37134986Y-10394764D01*
X37350514Y-10394764D01*
X37242750Y-12992100D02*
X37242750Y-13296900D01*
X37090350Y-13144500D02*
X37395150Y-13144500D01*
X37350514Y-13252264D02*
X37350514Y-13036736D01*
X37134986Y-13036736D01*
X37134986Y-13252264D01*
X37350514Y-13252264D01*
X37242750Y-14897100D02*
X37242750Y-15201900D01*
X37090350Y-15049500D02*
X37395150Y-15049500D01*
X37350514Y-15157264D02*
X37350514Y-14941736D01*
X37134986Y-14941736D01*
X37134986Y-15157264D01*
X37350514Y-15157264D01*
X38985825Y-13252450D02*
X38985825Y-13557250D01*
X38833425Y-13404850D02*
X39138225Y-13404850D01*
X39093589Y-13512614D02*
X39093589Y-13297086D01*
X38878061Y-13297086D01*
X38878061Y-13512614D01*
X39093589Y-13512614D01*
X38985825Y-15157450D02*
X38985825Y-15462250D01*
X38833425Y-15309850D02*
X39138225Y-15309850D01*
X39093589Y-15417614D02*
X39093589Y-15202086D01*
X38878061Y-15202086D01*
X38878061Y-15417614D01*
X39093589Y-15417614D01*
X38985825Y-17062450D02*
X38985825Y-17367250D01*
X38833425Y-17214850D02*
X39138225Y-17214850D01*
X39093589Y-17322614D02*
X39093589Y-17107086D01*
X38878061Y-17107086D01*
X38878061Y-17322614D01*
X39093589Y-17322614D01*
X38985825Y-18967450D02*
X38985825Y-19272250D01*
X38833425Y-19119850D02*
X39138225Y-19119850D01*
X39093589Y-19227614D02*
X39093589Y-19012086D01*
X38878061Y-19012086D01*
X38878061Y-19227614D01*
X39093589Y-19227614D01*
X39620825Y-12998450D02*
X39620825Y-13303250D01*
X39468425Y-13150850D02*
X39773225Y-13150850D01*
X39728589Y-13258614D02*
X39728589Y-13043086D01*
X39513061Y-13043086D01*
X39513061Y-13258614D01*
X39728589Y-13258614D01*
X39620825Y-14903450D02*
X39620825Y-15208250D01*
X39468425Y-15055850D02*
X39773225Y-15055850D01*
X39728589Y-15163614D02*
X39728589Y-14948086D01*
X39513061Y-14948086D01*
X39513061Y-15163614D01*
X39728589Y-15163614D01*
X39620825Y-16808450D02*
X39620825Y-17113250D01*
X39468425Y-16960850D02*
X39773225Y-16960850D01*
X39728589Y-17068614D02*
X39728589Y-16853086D01*
X39513061Y-16853086D01*
X39513061Y-17068614D01*
X39728589Y-17068614D01*
X39620825Y-18713450D02*
X39620825Y-19018250D01*
X39468425Y-18865850D02*
X39773225Y-18865850D01*
X39728589Y-18973614D02*
X39728589Y-18758086D01*
X39513061Y-18758086D01*
X39513061Y-18973614D01*
X39728589Y-18973614D01*
X39938325Y-20872450D02*
X39938325Y-21177250D01*
X39785925Y-21024850D02*
X40090725Y-21024850D01*
X40046089Y-21132614D02*
X40046089Y-20917086D01*
X39830561Y-20917086D01*
X39830561Y-21132614D01*
X40046089Y-21132614D01*
X40573325Y-20618450D02*
X40573325Y-20923250D01*
X40420925Y-20770850D02*
X40725725Y-20770850D01*
X40681089Y-20878614D02*
X40681089Y-20663086D01*
X40465561Y-20663086D01*
X40465561Y-20878614D01*
X40681089Y-20878614D01*
X40890825Y-13252450D02*
X40890825Y-13557250D01*
X40738425Y-13404850D02*
X41043225Y-13404850D01*
X40998589Y-13512614D02*
X40998589Y-13297086D01*
X40783061Y-13297086D01*
X40783061Y-13512614D01*
X40998589Y-13512614D01*
X40890825Y-15157450D02*
X40890825Y-15462250D01*
X40738425Y-15309850D02*
X41043225Y-15309850D01*
X40998589Y-15417614D02*
X40998589Y-15202086D01*
X40783061Y-15202086D01*
X40783061Y-15417614D01*
X40998589Y-15417614D01*
X40890825Y-17062450D02*
X40890825Y-17367250D01*
X40738425Y-17214850D02*
X41043225Y-17214850D01*
X40998589Y-17322614D02*
X40998589Y-17107086D01*
X40783061Y-17107086D01*
X40783061Y-17322614D01*
X40998589Y-17322614D01*
X40890825Y-18967450D02*
X40890825Y-19272250D01*
X40738425Y-19119850D02*
X41043225Y-19119850D01*
X40998589Y-19227614D02*
X40998589Y-19012086D01*
X40783061Y-19012086D01*
X40783061Y-19227614D01*
X40998589Y-19227614D01*
X41525825Y-12998450D02*
X41525825Y-13303250D01*
X41373425Y-13150850D02*
X41678225Y-13150850D01*
X41633589Y-13258614D02*
X41633589Y-13043086D01*
X41418061Y-13043086D01*
X41418061Y-13258614D01*
X41633589Y-13258614D01*
X41525825Y-14903450D02*
X41525825Y-15208250D01*
X41373425Y-15055850D02*
X41678225Y-15055850D01*
X41633589Y-15163614D02*
X41633589Y-14948086D01*
X41418061Y-14948086D01*
X41418061Y-15163614D01*
X41633589Y-15163614D01*
X41525825Y-16808450D02*
X41525825Y-17113250D01*
X41373425Y-16960850D02*
X41678225Y-16960850D01*
X41633589Y-17068614D02*
X41633589Y-16853086D01*
X41418061Y-16853086D01*
X41418061Y-17068614D01*
X41633589Y-17068614D01*
X41525825Y-18713450D02*
X41525825Y-19018250D01*
X41373425Y-18865850D02*
X41678225Y-18865850D01*
X41633589Y-18973614D02*
X41633589Y-18758086D01*
X41418061Y-18758086D01*
X41418061Y-18973614D01*
X41633589Y-18973614D01*
X42795825Y-13252450D02*
X42795825Y-13557250D01*
X42643425Y-13404850D02*
X42948225Y-13404850D01*
X42903589Y-13512614D02*
X42903589Y-13297086D01*
X42688061Y-13297086D01*
X42688061Y-13512614D01*
X42903589Y-13512614D01*
X42795825Y-15157450D02*
X42795825Y-15462250D01*
X42643425Y-15309850D02*
X42948225Y-15309850D01*
X42903589Y-15417614D02*
X42903589Y-15202086D01*
X42688061Y-15202086D01*
X42688061Y-15417614D01*
X42903589Y-15417614D01*
X42795825Y-17062450D02*
X42795825Y-17367250D01*
X42643425Y-17214850D02*
X42948225Y-17214850D01*
X42903589Y-17322614D02*
X42903589Y-17107086D01*
X42688061Y-17107086D01*
X42688061Y-17322614D01*
X42903589Y-17322614D01*
X42795825Y-18967450D02*
X42795825Y-19272250D01*
X42643425Y-19119850D02*
X42948225Y-19119850D01*
X42903589Y-19227614D02*
X42903589Y-19012086D01*
X42688061Y-19012086D01*
X42688061Y-19227614D01*
X42903589Y-19227614D01*
X42795825Y-20872450D02*
X42795825Y-21177250D01*
X42643425Y-21024850D02*
X42948225Y-21024850D01*
X42903589Y-21132614D02*
X42903589Y-20917086D01*
X42688061Y-20917086D01*
X42688061Y-21132614D01*
X42903589Y-21132614D01*
X43430825Y-12998450D02*
X43430825Y-13303250D01*
X43278425Y-13150850D02*
X43583225Y-13150850D01*
X43538589Y-13258614D02*
X43538589Y-13043086D01*
X43323061Y-13043086D01*
X43323061Y-13258614D01*
X43538589Y-13258614D01*
X43430825Y-14903450D02*
X43430825Y-15208250D01*
X43278425Y-15055850D02*
X43583225Y-15055850D01*
X43538589Y-15163614D02*
X43538589Y-14948086D01*
X43323061Y-14948086D01*
X43323061Y-15163614D01*
X43538589Y-15163614D01*
X43430825Y-16808450D02*
X43430825Y-17113250D01*
X43278425Y-16960850D02*
X43583225Y-16960850D01*
X43538589Y-17068614D02*
X43538589Y-16853086D01*
X43323061Y-16853086D01*
X43323061Y-17068614D01*
X43538589Y-17068614D01*
X43430825Y-18713450D02*
X43430825Y-19018250D01*
X43278425Y-18865850D02*
X43583225Y-18865850D01*
X43538589Y-18973614D02*
X43538589Y-18758086D01*
X43323061Y-18758086D01*
X43323061Y-18973614D01*
X43538589Y-18973614D01*
X43430825Y-20618450D02*
X43430825Y-20923250D01*
X43278425Y-20770850D02*
X43583225Y-20770850D01*
X43538589Y-20878614D02*
X43538589Y-20663086D01*
X43323061Y-20663086D01*
X43323061Y-20878614D01*
X43538589Y-20878614D01*
X44700825Y-13252450D02*
X44700825Y-13557250D01*
X44548425Y-13404850D02*
X44853225Y-13404850D01*
X44808589Y-13512614D02*
X44808589Y-13297086D01*
X44593061Y-13297086D01*
X44593061Y-13512614D01*
X44808589Y-13512614D01*
X45335825Y-12998450D02*
X45335825Y-13303250D01*
X45183425Y-13150850D02*
X45488225Y-13150850D01*
X45443589Y-13258614D02*
X45443589Y-13043086D01*
X45228061Y-13043086D01*
X45228061Y-13258614D01*
X45443589Y-13258614D01*
X45335825Y-15982950D02*
X45335825Y-16287750D01*
X45183425Y-16135350D02*
X45488225Y-16135350D01*
X45443589Y-16243114D02*
X45443589Y-16027586D01*
X45228061Y-16027586D01*
X45228061Y-16243114D01*
X45443589Y-16243114D01*
X45335825Y-19792950D02*
X45335825Y-20097750D01*
X45183425Y-19945350D02*
X45488225Y-19945350D01*
X45443589Y-20053114D02*
X45443589Y-19837586D01*
X45228061Y-19837586D01*
X45228061Y-20053114D01*
X45443589Y-20053114D01*
X45589825Y-16617950D02*
X45589825Y-16922750D01*
X45437425Y-16770350D02*
X45742225Y-16770350D01*
X45697589Y-16878114D02*
X45697589Y-16662586D01*
X45482061Y-16662586D01*
X45482061Y-16878114D01*
X45697589Y-16878114D01*
X45589825Y-20427950D02*
X45589825Y-20732750D01*
X45437425Y-20580350D02*
X45742225Y-20580350D01*
X45697589Y-20688114D02*
X45697589Y-20472586D01*
X45482061Y-20472586D01*
X45482061Y-20688114D01*
X45697589Y-20688114D01*
D26*
X32730000Y-17245000D02*
X32730000Y-17595000D01*
X32555000Y-17420000D02*
X32905000Y-17420000D01*
X32730000Y-17595000D02*
X32905000Y-17420000D01*
X32730000Y-17245000D01*
X32555000Y-17420000D01*
X32730000Y-17595000D01*
D12*
X3326019Y-22794476D02*
X3326019Y-22594476D01*
X3373638Y-22594476D01*
X3402209Y-22604000D01*
X3421257Y-22623048D01*
X3430781Y-22642095D01*
X3440305Y-22680190D01*
X3440305Y-22708762D01*
X3430781Y-22746857D01*
X3421257Y-22765905D01*
X3402209Y-22784952D01*
X3373638Y-22794476D01*
X3326019Y-22794476D01*
X3526019Y-22794476D02*
X3526019Y-22661143D01*
X3526019Y-22699238D02*
X3535543Y-22680190D01*
X3545067Y-22670667D01*
X3564114Y-22661143D01*
X3583162Y-22661143D01*
X3649828Y-22794476D02*
X3649828Y-22661143D01*
X3649828Y-22594476D02*
X3640305Y-22604000D01*
X3649828Y-22613524D01*
X3659352Y-22604000D01*
X3649828Y-22594476D01*
X3649828Y-22613524D01*
X3773638Y-22794476D02*
X3754590Y-22784952D01*
X3745067Y-22765905D01*
X3745067Y-22594476D01*
X3878400Y-22794476D02*
X3859352Y-22784952D01*
X3849828Y-22765905D01*
X3849828Y-22594476D01*
X4106971Y-22794476D02*
X4106971Y-22594476D01*
X4173638Y-22737333D01*
X4240305Y-22594476D01*
X4240305Y-22794476D01*
X4421257Y-22794476D02*
X4421257Y-22689714D01*
X4411733Y-22670667D01*
X4392686Y-22661143D01*
X4354590Y-22661143D01*
X4335543Y-22670667D01*
X4421257Y-22784952D02*
X4402210Y-22794476D01*
X4354590Y-22794476D01*
X4335543Y-22784952D01*
X4326019Y-22765905D01*
X4326019Y-22746857D01*
X4335543Y-22727809D01*
X4354590Y-22718286D01*
X4402210Y-22718286D01*
X4421257Y-22708762D01*
X4516495Y-22661143D02*
X4516495Y-22861143D01*
X4516495Y-22670667D02*
X4535543Y-22661143D01*
X4573638Y-22661143D01*
X4592686Y-22670667D01*
X4602210Y-22680190D01*
X4611733Y-22699238D01*
X4611733Y-22756381D01*
X4602210Y-22775428D01*
X4592686Y-22784952D01*
X4573638Y-22794476D01*
X4535543Y-22794476D01*
X4516495Y-22784952D01*
X4697448Y-22775428D02*
X4706971Y-22784952D01*
X4697448Y-22794476D01*
X4687924Y-22784952D01*
X4697448Y-22775428D01*
X4697448Y-22794476D01*
X4697448Y-22670667D02*
X4706971Y-22680190D01*
X4697448Y-22689714D01*
X4687924Y-22680190D01*
X4697448Y-22670667D01*
X4697448Y-22689714D01*
D13*
X3028400Y-23104000D02*
X3068400Y-23144000D01*
X3068400Y-23104000D02*
X3028400Y-23144000D01*
D12*
X3364114Y-23014476D02*
X3383162Y-23014476D01*
X3402209Y-23024000D01*
X3411733Y-23033524D01*
X3421257Y-23052571D01*
X3430781Y-23090667D01*
X3430781Y-23138286D01*
X3421257Y-23176381D01*
X3411733Y-23195428D01*
X3402209Y-23204952D01*
X3383162Y-23214476D01*
X3364114Y-23214476D01*
X3345067Y-23204952D01*
X3335543Y-23195428D01*
X3326019Y-23176381D01*
X3316495Y-23138286D01*
X3316495Y-23090667D01*
X3326019Y-23052571D01*
X3335543Y-23033524D01*
X3345067Y-23024000D01*
X3364114Y-23014476D01*
X3516495Y-23195428D02*
X3526019Y-23204952D01*
X3516495Y-23214476D01*
X3506971Y-23204952D01*
X3516495Y-23195428D01*
X3516495Y-23214476D01*
X3697448Y-23081143D02*
X3697448Y-23214476D01*
X3649828Y-23004952D02*
X3602209Y-23147809D01*
X3726019Y-23147809D01*
X3840305Y-23014476D02*
X3859352Y-23014476D01*
X3878400Y-23024000D01*
X3887924Y-23033524D01*
X3897448Y-23052571D01*
X3906971Y-23090667D01*
X3906971Y-23138286D01*
X3897448Y-23176381D01*
X3887924Y-23195428D01*
X3878400Y-23204952D01*
X3859352Y-23214476D01*
X3840305Y-23214476D01*
X3821257Y-23204952D01*
X3811733Y-23195428D01*
X3802209Y-23176381D01*
X3792686Y-23138286D01*
X3792686Y-23090667D01*
X3802209Y-23052571D01*
X3811733Y-23033524D01*
X3821257Y-23024000D01*
X3840305Y-23014476D01*
X4030781Y-23014476D02*
X4049828Y-23014476D01*
X4068876Y-23024000D01*
X4078400Y-23033524D01*
X4087924Y-23052571D01*
X4097448Y-23090667D01*
X4097448Y-23138286D01*
X4087924Y-23176381D01*
X4078400Y-23195428D01*
X4068876Y-23204952D01*
X4049828Y-23214476D01*
X4030781Y-23214476D01*
X4011733Y-23204952D01*
X4002209Y-23195428D01*
X3992686Y-23176381D01*
X3983162Y-23138286D01*
X3983162Y-23090667D01*
X3992686Y-23052571D01*
X4002209Y-23033524D01*
X4011733Y-23024000D01*
X4030781Y-23014476D01*
X4183162Y-23214476D02*
X4183162Y-23081143D01*
X4183162Y-23100190D02*
X4192686Y-23090667D01*
X4211733Y-23081143D01*
X4240305Y-23081143D01*
X4259352Y-23090667D01*
X4268876Y-23109714D01*
X4268876Y-23214476D01*
X4268876Y-23109714D02*
X4278400Y-23090667D01*
X4297448Y-23081143D01*
X4326019Y-23081143D01*
X4345067Y-23090667D01*
X4354590Y-23109714D01*
X4354590Y-23214476D01*
X4449829Y-23214476D02*
X4449829Y-23081143D01*
X4449829Y-23100190D02*
X4459352Y-23090667D01*
X4478400Y-23081143D01*
X4506971Y-23081143D01*
X4526019Y-23090667D01*
X4535543Y-23109714D01*
X4535543Y-23214476D01*
X4535543Y-23109714D02*
X4545067Y-23090667D01*
X4564114Y-23081143D01*
X4592686Y-23081143D01*
X4611733Y-23090667D01*
X4621257Y-23109714D01*
X4621257Y-23214476D01*
X5011733Y-23004952D02*
X4840305Y-23262095D01*
X5268876Y-23014476D02*
X5287924Y-23014476D01*
X5306971Y-23024000D01*
X5316495Y-23033524D01*
X5326019Y-23052571D01*
X5335543Y-23090667D01*
X5335543Y-23138286D01*
X5326019Y-23176381D01*
X5316495Y-23195428D01*
X5306971Y-23204952D01*
X5287924Y-23214476D01*
X5268876Y-23214476D01*
X5249829Y-23204952D01*
X5240305Y-23195428D01*
X5230781Y-23176381D01*
X5221257Y-23138286D01*
X5221257Y-23090667D01*
X5230781Y-23052571D01*
X5240305Y-23033524D01*
X5249829Y-23024000D01*
X5268876Y-23014476D01*
X5421257Y-23195428D02*
X5430781Y-23204952D01*
X5421257Y-23214476D01*
X5411733Y-23204952D01*
X5421257Y-23195428D01*
X5421257Y-23214476D01*
X5554590Y-23014476D02*
X5573638Y-23014476D01*
X5592686Y-23024000D01*
X5602209Y-23033524D01*
X5611733Y-23052571D01*
X5621257Y-23090667D01*
X5621257Y-23138286D01*
X5611733Y-23176381D01*
X5602209Y-23195428D01*
X5592686Y-23204952D01*
X5573638Y-23214476D01*
X5554590Y-23214476D01*
X5535543Y-23204952D01*
X5526019Y-23195428D01*
X5516495Y-23176381D01*
X5506971Y-23138286D01*
X5506971Y-23090667D01*
X5516495Y-23052571D01*
X5526019Y-23033524D01*
X5535543Y-23024000D01*
X5554590Y-23014476D01*
X5811733Y-23214476D02*
X5697448Y-23214476D01*
X5754590Y-23214476D02*
X5754590Y-23014476D01*
X5735543Y-23043048D01*
X5716495Y-23062095D01*
X5697448Y-23071619D01*
X5992686Y-23014476D02*
X5897448Y-23014476D01*
X5887924Y-23109714D01*
X5897448Y-23100190D01*
X5916495Y-23090667D01*
X5964114Y-23090667D01*
X5983162Y-23100190D01*
X5992686Y-23109714D01*
X6002209Y-23128762D01*
X6002209Y-23176381D01*
X5992686Y-23195428D01*
X5983162Y-23204952D01*
X5964114Y-23214476D01*
X5916495Y-23214476D01*
X5897448Y-23204952D01*
X5887924Y-23195428D01*
X6068876Y-23014476D02*
X6202209Y-23014476D01*
X6116495Y-23214476D01*
X6268876Y-23014476D02*
X6268876Y-23052571D01*
X6345067Y-23014476D02*
X6345067Y-23052571D01*
X6640305Y-23290667D02*
X6630781Y-23281143D01*
X6611733Y-23252571D01*
X6602209Y-23233524D01*
X6592686Y-23204952D01*
X6583162Y-23157333D01*
X6583162Y-23119238D01*
X6592686Y-23071619D01*
X6602209Y-23043048D01*
X6611733Y-23024000D01*
X6630781Y-22995428D01*
X6640305Y-22985905D01*
X6821257Y-23214476D02*
X6706971Y-23214476D01*
X6764114Y-23214476D02*
X6764114Y-23014476D01*
X6745067Y-23043048D01*
X6726019Y-23062095D01*
X6706971Y-23071619D01*
X6935543Y-23100190D02*
X6916495Y-23090667D01*
X6906971Y-23081143D01*
X6897448Y-23062095D01*
X6897448Y-23052571D01*
X6906971Y-23033524D01*
X6916495Y-23024000D01*
X6935543Y-23014476D01*
X6973638Y-23014476D01*
X6992686Y-23024000D01*
X7002209Y-23033524D01*
X7011733Y-23052571D01*
X7011733Y-23062095D01*
X7002209Y-23081143D01*
X6992686Y-23090667D01*
X6973638Y-23100190D01*
X6935543Y-23100190D01*
X6916495Y-23109714D01*
X6906971Y-23119238D01*
X6897448Y-23138286D01*
X6897448Y-23176381D01*
X6906971Y-23195428D01*
X6916495Y-23204952D01*
X6935543Y-23214476D01*
X6973638Y-23214476D01*
X6992686Y-23204952D01*
X7002209Y-23195428D01*
X7011733Y-23176381D01*
X7011733Y-23138286D01*
X7002209Y-23119238D01*
X6992686Y-23109714D01*
X6973638Y-23100190D01*
X7183162Y-23081143D02*
X7183162Y-23214476D01*
X7135543Y-23004952D02*
X7087924Y-23147809D01*
X7211733Y-23147809D01*
X7440305Y-23214476D02*
X7440305Y-23014476D01*
X7526019Y-23214476D02*
X7526019Y-23109714D01*
X7516495Y-23090667D01*
X7497448Y-23081143D01*
X7468876Y-23081143D01*
X7449828Y-23090667D01*
X7440305Y-23100190D01*
X7649828Y-23214476D02*
X7630781Y-23204952D01*
X7621257Y-23195428D01*
X7611733Y-23176381D01*
X7611733Y-23119238D01*
X7621257Y-23100190D01*
X7630781Y-23090667D01*
X7649828Y-23081143D01*
X7678400Y-23081143D01*
X7697448Y-23090667D01*
X7706971Y-23100190D01*
X7716495Y-23119238D01*
X7716495Y-23176381D01*
X7706971Y-23195428D01*
X7697448Y-23204952D01*
X7678400Y-23214476D01*
X7649828Y-23214476D01*
X7830781Y-23214476D02*
X7811733Y-23204952D01*
X7802209Y-23185905D01*
X7802209Y-23014476D01*
X7983162Y-23204952D02*
X7964114Y-23214476D01*
X7926019Y-23214476D01*
X7906971Y-23204952D01*
X7897448Y-23185905D01*
X7897448Y-23109714D01*
X7906971Y-23090667D01*
X7926019Y-23081143D01*
X7964114Y-23081143D01*
X7983162Y-23090667D01*
X7992686Y-23109714D01*
X7992686Y-23128762D01*
X7897448Y-23147809D01*
X8068876Y-23204952D02*
X8087924Y-23214476D01*
X8126019Y-23214476D01*
X8145067Y-23204952D01*
X8154590Y-23185905D01*
X8154590Y-23176381D01*
X8145067Y-23157333D01*
X8126019Y-23147809D01*
X8097448Y-23147809D01*
X8078400Y-23138286D01*
X8068876Y-23119238D01*
X8068876Y-23109714D01*
X8078400Y-23090667D01*
X8097448Y-23081143D01*
X8126019Y-23081143D01*
X8145067Y-23090667D01*
X8221257Y-23290667D02*
X8230781Y-23281143D01*
X8249828Y-23252571D01*
X8259352Y-23233524D01*
X8268876Y-23204952D01*
X8278400Y-23157333D01*
X8278400Y-23119238D01*
X8268876Y-23071619D01*
X8259352Y-23043048D01*
X8249828Y-23024000D01*
X8230781Y-22995428D01*
X8221257Y-22985905D01*
D14*
X3068400Y-23388000D02*
G75*
G03*
X3068400Y-23388000I-25000J0D01*
G01*
D12*
X3364114Y-23278476D02*
X3383162Y-23278476D01*
X3402209Y-23288000D01*
X3411733Y-23297524D01*
X3421257Y-23316571D01*
X3430781Y-23354667D01*
X3430781Y-23402286D01*
X3421257Y-23440381D01*
X3411733Y-23459428D01*
X3402209Y-23468952D01*
X3383162Y-23478476D01*
X3364114Y-23478476D01*
X3345067Y-23468952D01*
X3335543Y-23459428D01*
X3326019Y-23440381D01*
X3316495Y-23402286D01*
X3316495Y-23354667D01*
X3326019Y-23316571D01*
X3335543Y-23297524D01*
X3345067Y-23288000D01*
X3364114Y-23278476D01*
X3516495Y-23459428D02*
X3526019Y-23468952D01*
X3516495Y-23478476D01*
X3506971Y-23468952D01*
X3516495Y-23459428D01*
X3516495Y-23478476D01*
X3706971Y-23278476D02*
X3611733Y-23278476D01*
X3602209Y-23373714D01*
X3611733Y-23364190D01*
X3630781Y-23354667D01*
X3678400Y-23354667D01*
X3697448Y-23364190D01*
X3706971Y-23373714D01*
X3716495Y-23392762D01*
X3716495Y-23440381D01*
X3706971Y-23459428D01*
X3697448Y-23468952D01*
X3678400Y-23478476D01*
X3630781Y-23478476D01*
X3611733Y-23468952D01*
X3602209Y-23459428D01*
X3840305Y-23278476D02*
X3859352Y-23278476D01*
X3878400Y-23288000D01*
X3887924Y-23297524D01*
X3897448Y-23316571D01*
X3906971Y-23354667D01*
X3906971Y-23402286D01*
X3897448Y-23440381D01*
X3887924Y-23459428D01*
X3878400Y-23468952D01*
X3859352Y-23478476D01*
X3840305Y-23478476D01*
X3821257Y-23468952D01*
X3811733Y-23459428D01*
X3802209Y-23440381D01*
X3792686Y-23402286D01*
X3792686Y-23354667D01*
X3802209Y-23316571D01*
X3811733Y-23297524D01*
X3821257Y-23288000D01*
X3840305Y-23278476D01*
X4030781Y-23278476D02*
X4049828Y-23278476D01*
X4068876Y-23288000D01*
X4078400Y-23297524D01*
X4087924Y-23316571D01*
X4097448Y-23354667D01*
X4097448Y-23402286D01*
X4087924Y-23440381D01*
X4078400Y-23459428D01*
X4068876Y-23468952D01*
X4049828Y-23478476D01*
X4030781Y-23478476D01*
X4011733Y-23468952D01*
X4002209Y-23459428D01*
X3992686Y-23440381D01*
X3983162Y-23402286D01*
X3983162Y-23354667D01*
X3992686Y-23316571D01*
X4002209Y-23297524D01*
X4011733Y-23288000D01*
X4030781Y-23278476D01*
X4183162Y-23478476D02*
X4183162Y-23345143D01*
X4183162Y-23364190D02*
X4192686Y-23354667D01*
X4211733Y-23345143D01*
X4240305Y-23345143D01*
X4259352Y-23354667D01*
X4268876Y-23373714D01*
X4268876Y-23478476D01*
X4268876Y-23373714D02*
X4278400Y-23354667D01*
X4297448Y-23345143D01*
X4326019Y-23345143D01*
X4345067Y-23354667D01*
X4354590Y-23373714D01*
X4354590Y-23478476D01*
X4449829Y-23478476D02*
X4449829Y-23345143D01*
X4449829Y-23364190D02*
X4459352Y-23354667D01*
X4478400Y-23345143D01*
X4506971Y-23345143D01*
X4526019Y-23354667D01*
X4535543Y-23373714D01*
X4535543Y-23478476D01*
X4535543Y-23373714D02*
X4545067Y-23354667D01*
X4564114Y-23345143D01*
X4592686Y-23345143D01*
X4611733Y-23354667D01*
X4621257Y-23373714D01*
X4621257Y-23478476D01*
X5011733Y-23268952D02*
X4840305Y-23526095D01*
X5268876Y-23278476D02*
X5287924Y-23278476D01*
X5306971Y-23288000D01*
X5316495Y-23297524D01*
X5326019Y-23316571D01*
X5335543Y-23354667D01*
X5335543Y-23402286D01*
X5326019Y-23440381D01*
X5316495Y-23459428D01*
X5306971Y-23468952D01*
X5287924Y-23478476D01*
X5268876Y-23478476D01*
X5249829Y-23468952D01*
X5240305Y-23459428D01*
X5230781Y-23440381D01*
X5221257Y-23402286D01*
X5221257Y-23354667D01*
X5230781Y-23316571D01*
X5240305Y-23297524D01*
X5249829Y-23288000D01*
X5268876Y-23278476D01*
X5421257Y-23459428D02*
X5430781Y-23468952D01*
X5421257Y-23478476D01*
X5411733Y-23468952D01*
X5421257Y-23459428D01*
X5421257Y-23478476D01*
X5554590Y-23278476D02*
X5573638Y-23278476D01*
X5592686Y-23288000D01*
X5602209Y-23297524D01*
X5611733Y-23316571D01*
X5621257Y-23354667D01*
X5621257Y-23402286D01*
X5611733Y-23440381D01*
X5602209Y-23459428D01*
X5592686Y-23468952D01*
X5573638Y-23478476D01*
X5554590Y-23478476D01*
X5535543Y-23468952D01*
X5526019Y-23459428D01*
X5516495Y-23440381D01*
X5506971Y-23402286D01*
X5506971Y-23354667D01*
X5516495Y-23316571D01*
X5526019Y-23297524D01*
X5535543Y-23288000D01*
X5554590Y-23278476D01*
X5811733Y-23478476D02*
X5697448Y-23478476D01*
X5754590Y-23478476D02*
X5754590Y-23278476D01*
X5735543Y-23307048D01*
X5716495Y-23326095D01*
X5697448Y-23335619D01*
X5906971Y-23478476D02*
X5945067Y-23478476D01*
X5964114Y-23468952D01*
X5973638Y-23459428D01*
X5992686Y-23430857D01*
X6002209Y-23392762D01*
X6002209Y-23316571D01*
X5992686Y-23297524D01*
X5983162Y-23288000D01*
X5964114Y-23278476D01*
X5926019Y-23278476D01*
X5906971Y-23288000D01*
X5897448Y-23297524D01*
X5887924Y-23316571D01*
X5887924Y-23364190D01*
X5897448Y-23383238D01*
X5906971Y-23392762D01*
X5926019Y-23402286D01*
X5964114Y-23402286D01*
X5983162Y-23392762D01*
X5992686Y-23383238D01*
X6002209Y-23364190D01*
X6068876Y-23278476D02*
X6202209Y-23278476D01*
X6116495Y-23478476D01*
X6268876Y-23278476D02*
X6268876Y-23316571D01*
X6345067Y-23278476D02*
X6345067Y-23316571D01*
X6640305Y-23554667D02*
X6630781Y-23545143D01*
X6611733Y-23516571D01*
X6602209Y-23497524D01*
X6592686Y-23468952D01*
X6583162Y-23421333D01*
X6583162Y-23383238D01*
X6592686Y-23335619D01*
X6602209Y-23307048D01*
X6611733Y-23288000D01*
X6630781Y-23259428D01*
X6640305Y-23249905D01*
X6745067Y-23364190D02*
X6726019Y-23354667D01*
X6716495Y-23345143D01*
X6706971Y-23326095D01*
X6706971Y-23316571D01*
X6716495Y-23297524D01*
X6726019Y-23288000D01*
X6745067Y-23278476D01*
X6783162Y-23278476D01*
X6802209Y-23288000D01*
X6811733Y-23297524D01*
X6821257Y-23316571D01*
X6821257Y-23326095D01*
X6811733Y-23345143D01*
X6802209Y-23354667D01*
X6783162Y-23364190D01*
X6745067Y-23364190D01*
X6726019Y-23373714D01*
X6716495Y-23383238D01*
X6706971Y-23402286D01*
X6706971Y-23440381D01*
X6716495Y-23459428D01*
X6726019Y-23468952D01*
X6745067Y-23478476D01*
X6783162Y-23478476D01*
X6802209Y-23468952D01*
X6811733Y-23459428D01*
X6821257Y-23440381D01*
X6821257Y-23402286D01*
X6811733Y-23383238D01*
X6802209Y-23373714D01*
X6783162Y-23364190D01*
X7059352Y-23478476D02*
X7059352Y-23278476D01*
X7145067Y-23478476D02*
X7145067Y-23373714D01*
X7135543Y-23354667D01*
X7116495Y-23345143D01*
X7087924Y-23345143D01*
X7068876Y-23354667D01*
X7059352Y-23364190D01*
X7268876Y-23478476D02*
X7249828Y-23468952D01*
X7240305Y-23459428D01*
X7230781Y-23440381D01*
X7230781Y-23383238D01*
X7240305Y-23364190D01*
X7249828Y-23354667D01*
X7268876Y-23345143D01*
X7297448Y-23345143D01*
X7316495Y-23354667D01*
X7326019Y-23364190D01*
X7335543Y-23383238D01*
X7335543Y-23440381D01*
X7326019Y-23459428D01*
X7316495Y-23468952D01*
X7297448Y-23478476D01*
X7268876Y-23478476D01*
X7449828Y-23478476D02*
X7430781Y-23468952D01*
X7421257Y-23449905D01*
X7421257Y-23278476D01*
X7602209Y-23468952D02*
X7583162Y-23478476D01*
X7545067Y-23478476D01*
X7526019Y-23468952D01*
X7516495Y-23449905D01*
X7516495Y-23373714D01*
X7526019Y-23354667D01*
X7545067Y-23345143D01*
X7583162Y-23345143D01*
X7602209Y-23354667D01*
X7611733Y-23373714D01*
X7611733Y-23392762D01*
X7516495Y-23411809D01*
X7687924Y-23468952D02*
X7706971Y-23478476D01*
X7745067Y-23478476D01*
X7764114Y-23468952D01*
X7773638Y-23449905D01*
X7773638Y-23440381D01*
X7764114Y-23421333D01*
X7745067Y-23411809D01*
X7716495Y-23411809D01*
X7697448Y-23402286D01*
X7687924Y-23383238D01*
X7687924Y-23373714D01*
X7697448Y-23354667D01*
X7716495Y-23345143D01*
X7745067Y-23345143D01*
X7764114Y-23354667D01*
X7840305Y-23554667D02*
X7849828Y-23545143D01*
X7868876Y-23516571D01*
X7878400Y-23497524D01*
X7887924Y-23468952D01*
X7897448Y-23421333D01*
X7897448Y-23383238D01*
X7887924Y-23335619D01*
X7878400Y-23307048D01*
X7868876Y-23288000D01*
X7849828Y-23259428D01*
X7840305Y-23249905D01*
D15*
X3038400Y-23622000D02*
X3038400Y-23682000D01*
X3008400Y-23652000D02*
X3068400Y-23652000D01*
D12*
X3364114Y-23542476D02*
X3383162Y-23542476D01*
X3402209Y-23552000D01*
X3411733Y-23561524D01*
X3421257Y-23580571D01*
X3430781Y-23618667D01*
X3430781Y-23666286D01*
X3421257Y-23704381D01*
X3411733Y-23723428D01*
X3402209Y-23732952D01*
X3383162Y-23742476D01*
X3364114Y-23742476D01*
X3345067Y-23732952D01*
X3335543Y-23723428D01*
X3326019Y-23704381D01*
X3316495Y-23666286D01*
X3316495Y-23618667D01*
X3326019Y-23580571D01*
X3335543Y-23561524D01*
X3345067Y-23552000D01*
X3364114Y-23542476D01*
X3516495Y-23723428D02*
X3526019Y-23732952D01*
X3516495Y-23742476D01*
X3506971Y-23732952D01*
X3516495Y-23723428D01*
X3516495Y-23742476D01*
X3697448Y-23542476D02*
X3659352Y-23542476D01*
X3640305Y-23552000D01*
X3630781Y-23561524D01*
X3611733Y-23590095D01*
X3602209Y-23628190D01*
X3602209Y-23704381D01*
X3611733Y-23723428D01*
X3621257Y-23732952D01*
X3640305Y-23742476D01*
X3678400Y-23742476D01*
X3697448Y-23732952D01*
X3706971Y-23723428D01*
X3716495Y-23704381D01*
X3716495Y-23656762D01*
X3706971Y-23637714D01*
X3697448Y-23628190D01*
X3678400Y-23618667D01*
X3640305Y-23618667D01*
X3621257Y-23628190D01*
X3611733Y-23637714D01*
X3602209Y-23656762D01*
X3840305Y-23542476D02*
X3859352Y-23542476D01*
X3878400Y-23552000D01*
X3887924Y-23561524D01*
X3897448Y-23580571D01*
X3906971Y-23618667D01*
X3906971Y-23666286D01*
X3897448Y-23704381D01*
X3887924Y-23723428D01*
X3878400Y-23732952D01*
X3859352Y-23742476D01*
X3840305Y-23742476D01*
X3821257Y-23732952D01*
X3811733Y-23723428D01*
X3802209Y-23704381D01*
X3792686Y-23666286D01*
X3792686Y-23618667D01*
X3802209Y-23580571D01*
X3811733Y-23561524D01*
X3821257Y-23552000D01*
X3840305Y-23542476D01*
X4030781Y-23542476D02*
X4049828Y-23542476D01*
X4068876Y-23552000D01*
X4078400Y-23561524D01*
X4087924Y-23580571D01*
X4097448Y-23618667D01*
X4097448Y-23666286D01*
X4087924Y-23704381D01*
X4078400Y-23723428D01*
X4068876Y-23732952D01*
X4049828Y-23742476D01*
X4030781Y-23742476D01*
X4011733Y-23732952D01*
X4002209Y-23723428D01*
X3992686Y-23704381D01*
X3983162Y-23666286D01*
X3983162Y-23618667D01*
X3992686Y-23580571D01*
X4002209Y-23561524D01*
X4011733Y-23552000D01*
X4030781Y-23542476D01*
X4183162Y-23742476D02*
X4183162Y-23609143D01*
X4183162Y-23628190D02*
X4192686Y-23618667D01*
X4211733Y-23609143D01*
X4240305Y-23609143D01*
X4259352Y-23618667D01*
X4268876Y-23637714D01*
X4268876Y-23742476D01*
X4268876Y-23637714D02*
X4278400Y-23618667D01*
X4297448Y-23609143D01*
X4326019Y-23609143D01*
X4345067Y-23618667D01*
X4354590Y-23637714D01*
X4354590Y-23742476D01*
X4449829Y-23742476D02*
X4449829Y-23609143D01*
X4449829Y-23628190D02*
X4459352Y-23618667D01*
X4478400Y-23609143D01*
X4506971Y-23609143D01*
X4526019Y-23618667D01*
X4535543Y-23637714D01*
X4535543Y-23742476D01*
X4535543Y-23637714D02*
X4545067Y-23618667D01*
X4564114Y-23609143D01*
X4592686Y-23609143D01*
X4611733Y-23618667D01*
X4621257Y-23637714D01*
X4621257Y-23742476D01*
X5011733Y-23532952D02*
X4840305Y-23790095D01*
X5268876Y-23542476D02*
X5287924Y-23542476D01*
X5306971Y-23552000D01*
X5316495Y-23561524D01*
X5326019Y-23580571D01*
X5335543Y-23618667D01*
X5335543Y-23666286D01*
X5326019Y-23704381D01*
X5316495Y-23723428D01*
X5306971Y-23732952D01*
X5287924Y-23742476D01*
X5268876Y-23742476D01*
X5249829Y-23732952D01*
X5240305Y-23723428D01*
X5230781Y-23704381D01*
X5221257Y-23666286D01*
X5221257Y-23618667D01*
X5230781Y-23580571D01*
X5240305Y-23561524D01*
X5249829Y-23552000D01*
X5268876Y-23542476D01*
X5421257Y-23723428D02*
X5430781Y-23732952D01*
X5421257Y-23742476D01*
X5411733Y-23732952D01*
X5421257Y-23723428D01*
X5421257Y-23742476D01*
X5554590Y-23542476D02*
X5573638Y-23542476D01*
X5592686Y-23552000D01*
X5602209Y-23561524D01*
X5611733Y-23580571D01*
X5621257Y-23618667D01*
X5621257Y-23666286D01*
X5611733Y-23704381D01*
X5602209Y-23723428D01*
X5592686Y-23732952D01*
X5573638Y-23742476D01*
X5554590Y-23742476D01*
X5535543Y-23732952D01*
X5526019Y-23723428D01*
X5516495Y-23704381D01*
X5506971Y-23666286D01*
X5506971Y-23618667D01*
X5516495Y-23580571D01*
X5526019Y-23561524D01*
X5535543Y-23552000D01*
X5554590Y-23542476D01*
X5697448Y-23561524D02*
X5706971Y-23552000D01*
X5726019Y-23542476D01*
X5773638Y-23542476D01*
X5792686Y-23552000D01*
X5802209Y-23561524D01*
X5811733Y-23580571D01*
X5811733Y-23599619D01*
X5802209Y-23628190D01*
X5687924Y-23742476D01*
X5811733Y-23742476D01*
X5878400Y-23542476D02*
X6002209Y-23542476D01*
X5935543Y-23618667D01*
X5964114Y-23618667D01*
X5983162Y-23628190D01*
X5992686Y-23637714D01*
X6002209Y-23656762D01*
X6002209Y-23704381D01*
X5992686Y-23723428D01*
X5983162Y-23732952D01*
X5964114Y-23742476D01*
X5906971Y-23742476D01*
X5887924Y-23732952D01*
X5878400Y-23723428D01*
X6173638Y-23542476D02*
X6135543Y-23542476D01*
X6116495Y-23552000D01*
X6106971Y-23561524D01*
X6087924Y-23590095D01*
X6078400Y-23628190D01*
X6078400Y-23704381D01*
X6087924Y-23723428D01*
X6097448Y-23732952D01*
X6116495Y-23742476D01*
X6154590Y-23742476D01*
X6173638Y-23732952D01*
X6183162Y-23723428D01*
X6192686Y-23704381D01*
X6192686Y-23656762D01*
X6183162Y-23637714D01*
X6173638Y-23628190D01*
X6154590Y-23618667D01*
X6116495Y-23618667D01*
X6097448Y-23628190D01*
X6087924Y-23637714D01*
X6078400Y-23656762D01*
X6268876Y-23542476D02*
X6268876Y-23580571D01*
X6345067Y-23542476D02*
X6345067Y-23580571D01*
X6640305Y-23818667D02*
X6630781Y-23809143D01*
X6611733Y-23780571D01*
X6602209Y-23761524D01*
X6592686Y-23732952D01*
X6583162Y-23685333D01*
X6583162Y-23647238D01*
X6592686Y-23599619D01*
X6602209Y-23571048D01*
X6611733Y-23552000D01*
X6630781Y-23523428D01*
X6640305Y-23513905D01*
X6754590Y-23542476D02*
X6773638Y-23542476D01*
X6792686Y-23552000D01*
X6802209Y-23561524D01*
X6811733Y-23580571D01*
X6821257Y-23618667D01*
X6821257Y-23666286D01*
X6811733Y-23704381D01*
X6802209Y-23723428D01*
X6792686Y-23732952D01*
X6773638Y-23742476D01*
X6754590Y-23742476D01*
X6735543Y-23732952D01*
X6726019Y-23723428D01*
X6716495Y-23704381D01*
X6706971Y-23666286D01*
X6706971Y-23618667D01*
X6716495Y-23580571D01*
X6726019Y-23561524D01*
X6735543Y-23552000D01*
X6754590Y-23542476D01*
X7059352Y-23742476D02*
X7059352Y-23542476D01*
X7145067Y-23742476D02*
X7145067Y-23637714D01*
X7135543Y-23618667D01*
X7116495Y-23609143D01*
X7087924Y-23609143D01*
X7068876Y-23618667D01*
X7059352Y-23628190D01*
X7268876Y-23742476D02*
X7249828Y-23732952D01*
X7240305Y-23723428D01*
X7230781Y-23704381D01*
X7230781Y-23647238D01*
X7240305Y-23628190D01*
X7249828Y-23618667D01*
X7268876Y-23609143D01*
X7297448Y-23609143D01*
X7316495Y-23618667D01*
X7326019Y-23628190D01*
X7335543Y-23647238D01*
X7335543Y-23704381D01*
X7326019Y-23723428D01*
X7316495Y-23732952D01*
X7297448Y-23742476D01*
X7268876Y-23742476D01*
X7449828Y-23742476D02*
X7430781Y-23732952D01*
X7421257Y-23713905D01*
X7421257Y-23542476D01*
X7602209Y-23732952D02*
X7583162Y-23742476D01*
X7545067Y-23742476D01*
X7526019Y-23732952D01*
X7516495Y-23713905D01*
X7516495Y-23637714D01*
X7526019Y-23618667D01*
X7545067Y-23609143D01*
X7583162Y-23609143D01*
X7602209Y-23618667D01*
X7611733Y-23637714D01*
X7611733Y-23656762D01*
X7516495Y-23675809D01*
X7687924Y-23732952D02*
X7706971Y-23742476D01*
X7745067Y-23742476D01*
X7764114Y-23732952D01*
X7773638Y-23713905D01*
X7773638Y-23704381D01*
X7764114Y-23685333D01*
X7745067Y-23675809D01*
X7716495Y-23675809D01*
X7697448Y-23666286D01*
X7687924Y-23647238D01*
X7687924Y-23637714D01*
X7697448Y-23618667D01*
X7716495Y-23609143D01*
X7745067Y-23609143D01*
X7764114Y-23618667D01*
X8011733Y-23666286D02*
X8164114Y-23666286D01*
X8087924Y-23742476D02*
X8087924Y-23590095D01*
X8497448Y-23609143D02*
X8497448Y-23742476D01*
X8449829Y-23532952D02*
X8402210Y-23675809D01*
X8526019Y-23675809D01*
X8745067Y-23732952D02*
X8764114Y-23742476D01*
X8802210Y-23742476D01*
X8821257Y-23732952D01*
X8830781Y-23713905D01*
X8830781Y-23704381D01*
X8821257Y-23685333D01*
X8802210Y-23675809D01*
X8773638Y-23675809D01*
X8754590Y-23666286D01*
X8745067Y-23647238D01*
X8745067Y-23637714D01*
X8754590Y-23618667D01*
X8773638Y-23609143D01*
X8802210Y-23609143D01*
X8821257Y-23618667D01*
X8945067Y-23742476D02*
X8926019Y-23732952D01*
X8916495Y-23713905D01*
X8916495Y-23542476D01*
X9049829Y-23742476D02*
X9030781Y-23732952D01*
X9021257Y-23723428D01*
X9011733Y-23704381D01*
X9011733Y-23647238D01*
X9021257Y-23628190D01*
X9030781Y-23618667D01*
X9049829Y-23609143D01*
X9078400Y-23609143D01*
X9097448Y-23618667D01*
X9106971Y-23628190D01*
X9116495Y-23647238D01*
X9116495Y-23704381D01*
X9106971Y-23723428D01*
X9097448Y-23732952D01*
X9078400Y-23742476D01*
X9049829Y-23742476D01*
X9173638Y-23609143D02*
X9249829Y-23609143D01*
X9202210Y-23542476D02*
X9202210Y-23713905D01*
X9211733Y-23732952D01*
X9230781Y-23742476D01*
X9249829Y-23742476D01*
X9306971Y-23732952D02*
X9326019Y-23742476D01*
X9364114Y-23742476D01*
X9383162Y-23732952D01*
X9392686Y-23713905D01*
X9392686Y-23704381D01*
X9383162Y-23685333D01*
X9364114Y-23675809D01*
X9335543Y-23675809D01*
X9316495Y-23666286D01*
X9306971Y-23647238D01*
X9306971Y-23637714D01*
X9316495Y-23618667D01*
X9335543Y-23609143D01*
X9364114Y-23609143D01*
X9383162Y-23618667D01*
X9459352Y-23818667D02*
X9468876Y-23809143D01*
X9487924Y-23780571D01*
X9497448Y-23761524D01*
X9506971Y-23732952D01*
X9516495Y-23685333D01*
X9516495Y-23647238D01*
X9506971Y-23599619D01*
X9497448Y-23571048D01*
X9487924Y-23552000D01*
X9468876Y-23523428D01*
X9459352Y-23513905D01*
D16*
X3057241Y-23942941D02*
X3057241Y-23889059D01*
X3003359Y-23889059D01*
X3003359Y-23942941D01*
X3057241Y-23942941D01*
D12*
X3364114Y-23806476D02*
X3383162Y-23806476D01*
X3402209Y-23816000D01*
X3411733Y-23825524D01*
X3421257Y-23844571D01*
X3430781Y-23882667D01*
X3430781Y-23930286D01*
X3421257Y-23968381D01*
X3411733Y-23987428D01*
X3402209Y-23996952D01*
X3383162Y-24006476D01*
X3364114Y-24006476D01*
X3345067Y-23996952D01*
X3335543Y-23987428D01*
X3326019Y-23968381D01*
X3316495Y-23930286D01*
X3316495Y-23882667D01*
X3326019Y-23844571D01*
X3335543Y-23825524D01*
X3345067Y-23816000D01*
X3364114Y-23806476D01*
X3516495Y-23987428D02*
X3526019Y-23996952D01*
X3516495Y-24006476D01*
X3506971Y-23996952D01*
X3516495Y-23987428D01*
X3516495Y-24006476D01*
X3592686Y-23806476D02*
X3726019Y-23806476D01*
X3640305Y-24006476D01*
X3887924Y-23806476D02*
X3849828Y-23806476D01*
X3830781Y-23816000D01*
X3821257Y-23825524D01*
X3802209Y-23854095D01*
X3792686Y-23892190D01*
X3792686Y-23968381D01*
X3802209Y-23987428D01*
X3811733Y-23996952D01*
X3830781Y-24006476D01*
X3868876Y-24006476D01*
X3887924Y-23996952D01*
X3897448Y-23987428D01*
X3906971Y-23968381D01*
X3906971Y-23920762D01*
X3897448Y-23901714D01*
X3887924Y-23892190D01*
X3868876Y-23882667D01*
X3830781Y-23882667D01*
X3811733Y-23892190D01*
X3802209Y-23901714D01*
X3792686Y-23920762D01*
X3983162Y-23825524D02*
X3992686Y-23816000D01*
X4011733Y-23806476D01*
X4059352Y-23806476D01*
X4078400Y-23816000D01*
X4087924Y-23825524D01*
X4097448Y-23844571D01*
X4097448Y-23863619D01*
X4087924Y-23892190D01*
X3973638Y-24006476D01*
X4097448Y-24006476D01*
X4183162Y-24006476D02*
X4183162Y-23873143D01*
X4183162Y-23892190D02*
X4192686Y-23882667D01*
X4211733Y-23873143D01*
X4240305Y-23873143D01*
X4259352Y-23882667D01*
X4268876Y-23901714D01*
X4268876Y-24006476D01*
X4268876Y-23901714D02*
X4278400Y-23882667D01*
X4297448Y-23873143D01*
X4326019Y-23873143D01*
X4345067Y-23882667D01*
X4354590Y-23901714D01*
X4354590Y-24006476D01*
X4449829Y-24006476D02*
X4449829Y-23873143D01*
X4449829Y-23892190D02*
X4459352Y-23882667D01*
X4478400Y-23873143D01*
X4506971Y-23873143D01*
X4526019Y-23882667D01*
X4535543Y-23901714D01*
X4535543Y-24006476D01*
X4535543Y-23901714D02*
X4545067Y-23882667D01*
X4564114Y-23873143D01*
X4592686Y-23873143D01*
X4611733Y-23882667D01*
X4621257Y-23901714D01*
X4621257Y-24006476D01*
X5011733Y-23796952D02*
X4840305Y-24054095D01*
X5268876Y-23806476D02*
X5287924Y-23806476D01*
X5306971Y-23816000D01*
X5316495Y-23825524D01*
X5326019Y-23844571D01*
X5335543Y-23882667D01*
X5335543Y-23930286D01*
X5326019Y-23968381D01*
X5316495Y-23987428D01*
X5306971Y-23996952D01*
X5287924Y-24006476D01*
X5268876Y-24006476D01*
X5249829Y-23996952D01*
X5240305Y-23987428D01*
X5230781Y-23968381D01*
X5221257Y-23930286D01*
X5221257Y-23882667D01*
X5230781Y-23844571D01*
X5240305Y-23825524D01*
X5249829Y-23816000D01*
X5268876Y-23806476D01*
X5421257Y-23987428D02*
X5430781Y-23996952D01*
X5421257Y-24006476D01*
X5411733Y-23996952D01*
X5421257Y-23987428D01*
X5421257Y-24006476D01*
X5554590Y-23806476D02*
X5573638Y-23806476D01*
X5592686Y-23816000D01*
X5602209Y-23825524D01*
X5611733Y-23844571D01*
X5621257Y-23882667D01*
X5621257Y-23930286D01*
X5611733Y-23968381D01*
X5602209Y-23987428D01*
X5592686Y-23996952D01*
X5573638Y-24006476D01*
X5554590Y-24006476D01*
X5535543Y-23996952D01*
X5526019Y-23987428D01*
X5516495Y-23968381D01*
X5506971Y-23930286D01*
X5506971Y-23882667D01*
X5516495Y-23844571D01*
X5526019Y-23825524D01*
X5535543Y-23816000D01*
X5554590Y-23806476D01*
X5687924Y-23806476D02*
X5811733Y-23806476D01*
X5745067Y-23882667D01*
X5773638Y-23882667D01*
X5792686Y-23892190D01*
X5802209Y-23901714D01*
X5811733Y-23920762D01*
X5811733Y-23968381D01*
X5802209Y-23987428D01*
X5792686Y-23996952D01*
X5773638Y-24006476D01*
X5716495Y-24006476D01*
X5697448Y-23996952D01*
X5687924Y-23987428D01*
X5935543Y-23806476D02*
X5954590Y-23806476D01*
X5973638Y-23816000D01*
X5983162Y-23825524D01*
X5992686Y-23844571D01*
X6002209Y-23882667D01*
X6002209Y-23930286D01*
X5992686Y-23968381D01*
X5983162Y-23987428D01*
X5973638Y-23996952D01*
X5954590Y-24006476D01*
X5935543Y-24006476D01*
X5916495Y-23996952D01*
X5906971Y-23987428D01*
X5897448Y-23968381D01*
X5887924Y-23930286D01*
X5887924Y-23882667D01*
X5897448Y-23844571D01*
X5906971Y-23825524D01*
X5916495Y-23816000D01*
X5935543Y-23806476D01*
X6126019Y-23806476D02*
X6145067Y-23806476D01*
X6164114Y-23816000D01*
X6173638Y-23825524D01*
X6183162Y-23844571D01*
X6192686Y-23882667D01*
X6192686Y-23930286D01*
X6183162Y-23968381D01*
X6173638Y-23987428D01*
X6164114Y-23996952D01*
X6145067Y-24006476D01*
X6126019Y-24006476D01*
X6106971Y-23996952D01*
X6097448Y-23987428D01*
X6087924Y-23968381D01*
X6078400Y-23930286D01*
X6078400Y-23882667D01*
X6087924Y-23844571D01*
X6097448Y-23825524D01*
X6106971Y-23816000D01*
X6126019Y-23806476D01*
X6268876Y-23806476D02*
X6268876Y-23844571D01*
X6345067Y-23806476D02*
X6345067Y-23844571D01*
X6640305Y-24082667D02*
X6630781Y-24073143D01*
X6611733Y-24044571D01*
X6602209Y-24025524D01*
X6592686Y-23996952D01*
X6583162Y-23949333D01*
X6583162Y-23911238D01*
X6592686Y-23863619D01*
X6602209Y-23835048D01*
X6611733Y-23816000D01*
X6630781Y-23787428D01*
X6640305Y-23777905D01*
X6821257Y-24006476D02*
X6706971Y-24006476D01*
X6764114Y-24006476D02*
X6764114Y-23806476D01*
X6745067Y-23835048D01*
X6726019Y-23854095D01*
X6706971Y-23863619D01*
X6945067Y-23806476D02*
X6964114Y-23806476D01*
X6983162Y-23816000D01*
X6992686Y-23825524D01*
X7002209Y-23844571D01*
X7011733Y-23882667D01*
X7011733Y-23930286D01*
X7002209Y-23968381D01*
X6992686Y-23987428D01*
X6983162Y-23996952D01*
X6964114Y-24006476D01*
X6945067Y-24006476D01*
X6926019Y-23996952D01*
X6916495Y-23987428D01*
X6906971Y-23968381D01*
X6897448Y-23930286D01*
X6897448Y-23882667D01*
X6906971Y-23844571D01*
X6916495Y-23825524D01*
X6926019Y-23816000D01*
X6945067Y-23806476D01*
X7249828Y-24006476D02*
X7249828Y-23806476D01*
X7335543Y-24006476D02*
X7335543Y-23901714D01*
X7326019Y-23882667D01*
X7306971Y-23873143D01*
X7278400Y-23873143D01*
X7259352Y-23882667D01*
X7249828Y-23892190D01*
X7459352Y-24006476D02*
X7440305Y-23996952D01*
X7430781Y-23987428D01*
X7421257Y-23968381D01*
X7421257Y-23911238D01*
X7430781Y-23892190D01*
X7440305Y-23882667D01*
X7459352Y-23873143D01*
X7487924Y-23873143D01*
X7506971Y-23882667D01*
X7516495Y-23892190D01*
X7526019Y-23911238D01*
X7526019Y-23968381D01*
X7516495Y-23987428D01*
X7506971Y-23996952D01*
X7487924Y-24006476D01*
X7459352Y-24006476D01*
X7640305Y-24006476D02*
X7621257Y-23996952D01*
X7611733Y-23977905D01*
X7611733Y-23806476D01*
X7792686Y-23996952D02*
X7773638Y-24006476D01*
X7735543Y-24006476D01*
X7716495Y-23996952D01*
X7706971Y-23977905D01*
X7706971Y-23901714D01*
X7716495Y-23882667D01*
X7735543Y-23873143D01*
X7773638Y-23873143D01*
X7792686Y-23882667D01*
X7802209Y-23901714D01*
X7802209Y-23920762D01*
X7706971Y-23939809D01*
X7878400Y-23996952D02*
X7897448Y-24006476D01*
X7935543Y-24006476D01*
X7954590Y-23996952D01*
X7964114Y-23977905D01*
X7964114Y-23968381D01*
X7954590Y-23949333D01*
X7935543Y-23939809D01*
X7906971Y-23939809D01*
X7887924Y-23930286D01*
X7878400Y-23911238D01*
X7878400Y-23901714D01*
X7887924Y-23882667D01*
X7906971Y-23873143D01*
X7935543Y-23873143D01*
X7954590Y-23882667D01*
X8030781Y-24082667D02*
X8040305Y-24073143D01*
X8059352Y-24044571D01*
X8068876Y-24025524D01*
X8078400Y-23996952D01*
X8087924Y-23949333D01*
X8087924Y-23911238D01*
X8078400Y-23863619D01*
X8068876Y-23835048D01*
X8059352Y-23816000D01*
X8040305Y-23787428D01*
X8030781Y-23777905D01*
D17*
X3028400Y-24220000D02*
X3068400Y-24180000D01*
X3028400Y-24140000D01*
X2988400Y-24180000D01*
X3028400Y-24220000D01*
D12*
X3364114Y-24070476D02*
X3383162Y-24070476D01*
X3402209Y-24080000D01*
X3411733Y-24089524D01*
X3421257Y-24108571D01*
X3430781Y-24146667D01*
X3430781Y-24194286D01*
X3421257Y-24232381D01*
X3411733Y-24251428D01*
X3402209Y-24260952D01*
X3383162Y-24270476D01*
X3364114Y-24270476D01*
X3345067Y-24260952D01*
X3335543Y-24251428D01*
X3326019Y-24232381D01*
X3316495Y-24194286D01*
X3316495Y-24146667D01*
X3326019Y-24108571D01*
X3335543Y-24089524D01*
X3345067Y-24080000D01*
X3364114Y-24070476D01*
X3516495Y-24251428D02*
X3526019Y-24260952D01*
X3516495Y-24270476D01*
X3506971Y-24260952D01*
X3516495Y-24251428D01*
X3516495Y-24270476D01*
X3640305Y-24156190D02*
X3621257Y-24146667D01*
X3611733Y-24137143D01*
X3602209Y-24118095D01*
X3602209Y-24108571D01*
X3611733Y-24089524D01*
X3621257Y-24080000D01*
X3640305Y-24070476D01*
X3678400Y-24070476D01*
X3697448Y-24080000D01*
X3706971Y-24089524D01*
X3716495Y-24108571D01*
X3716495Y-24118095D01*
X3706971Y-24137143D01*
X3697448Y-24146667D01*
X3678400Y-24156190D01*
X3640305Y-24156190D01*
X3621257Y-24165714D01*
X3611733Y-24175238D01*
X3602209Y-24194286D01*
X3602209Y-24232381D01*
X3611733Y-24251428D01*
X3621257Y-24260952D01*
X3640305Y-24270476D01*
X3678400Y-24270476D01*
X3697448Y-24260952D01*
X3706971Y-24251428D01*
X3716495Y-24232381D01*
X3716495Y-24194286D01*
X3706971Y-24175238D01*
X3697448Y-24165714D01*
X3678400Y-24156190D01*
X3840305Y-24070476D02*
X3859352Y-24070476D01*
X3878400Y-24080000D01*
X3887924Y-24089524D01*
X3897448Y-24108571D01*
X3906971Y-24146667D01*
X3906971Y-24194286D01*
X3897448Y-24232381D01*
X3887924Y-24251428D01*
X3878400Y-24260952D01*
X3859352Y-24270476D01*
X3840305Y-24270476D01*
X3821257Y-24260952D01*
X3811733Y-24251428D01*
X3802209Y-24232381D01*
X3792686Y-24194286D01*
X3792686Y-24146667D01*
X3802209Y-24108571D01*
X3811733Y-24089524D01*
X3821257Y-24080000D01*
X3840305Y-24070476D01*
X4030781Y-24070476D02*
X4049828Y-24070476D01*
X4068876Y-24080000D01*
X4078400Y-24089524D01*
X4087924Y-24108571D01*
X4097448Y-24146667D01*
X4097448Y-24194286D01*
X4087924Y-24232381D01*
X4078400Y-24251428D01*
X4068876Y-24260952D01*
X4049828Y-24270476D01*
X4030781Y-24270476D01*
X4011733Y-24260952D01*
X4002209Y-24251428D01*
X3992686Y-24232381D01*
X3983162Y-24194286D01*
X3983162Y-24146667D01*
X3992686Y-24108571D01*
X4002209Y-24089524D01*
X4011733Y-24080000D01*
X4030781Y-24070476D01*
X4183162Y-24270476D02*
X4183162Y-24137143D01*
X4183162Y-24156190D02*
X4192686Y-24146667D01*
X4211733Y-24137143D01*
X4240305Y-24137143D01*
X4259352Y-24146667D01*
X4268876Y-24165714D01*
X4268876Y-24270476D01*
X4268876Y-24165714D02*
X4278400Y-24146667D01*
X4297448Y-24137143D01*
X4326019Y-24137143D01*
X4345067Y-24146667D01*
X4354590Y-24165714D01*
X4354590Y-24270476D01*
X4449829Y-24270476D02*
X4449829Y-24137143D01*
X4449829Y-24156190D02*
X4459352Y-24146667D01*
X4478400Y-24137143D01*
X4506971Y-24137143D01*
X4526019Y-24146667D01*
X4535543Y-24165714D01*
X4535543Y-24270476D01*
X4535543Y-24165714D02*
X4545067Y-24146667D01*
X4564114Y-24137143D01*
X4592686Y-24137143D01*
X4611733Y-24146667D01*
X4621257Y-24165714D01*
X4621257Y-24270476D01*
X5011733Y-24060952D02*
X4840305Y-24318095D01*
X5268876Y-24070476D02*
X5287924Y-24070476D01*
X5306971Y-24080000D01*
X5316495Y-24089524D01*
X5326019Y-24108571D01*
X5335543Y-24146667D01*
X5335543Y-24194286D01*
X5326019Y-24232381D01*
X5316495Y-24251428D01*
X5306971Y-24260952D01*
X5287924Y-24270476D01*
X5268876Y-24270476D01*
X5249829Y-24260952D01*
X5240305Y-24251428D01*
X5230781Y-24232381D01*
X5221257Y-24194286D01*
X5221257Y-24146667D01*
X5230781Y-24108571D01*
X5240305Y-24089524D01*
X5249829Y-24080000D01*
X5268876Y-24070476D01*
X5421257Y-24251428D02*
X5430781Y-24260952D01*
X5421257Y-24270476D01*
X5411733Y-24260952D01*
X5421257Y-24251428D01*
X5421257Y-24270476D01*
X5554590Y-24070476D02*
X5573638Y-24070476D01*
X5592686Y-24080000D01*
X5602209Y-24089524D01*
X5611733Y-24108571D01*
X5621257Y-24146667D01*
X5621257Y-24194286D01*
X5611733Y-24232381D01*
X5602209Y-24251428D01*
X5592686Y-24260952D01*
X5573638Y-24270476D01*
X5554590Y-24270476D01*
X5535543Y-24260952D01*
X5526019Y-24251428D01*
X5516495Y-24232381D01*
X5506971Y-24194286D01*
X5506971Y-24146667D01*
X5516495Y-24108571D01*
X5526019Y-24089524D01*
X5535543Y-24080000D01*
X5554590Y-24070476D01*
X5687924Y-24070476D02*
X5811733Y-24070476D01*
X5745067Y-24146667D01*
X5773638Y-24146667D01*
X5792686Y-24156190D01*
X5802209Y-24165714D01*
X5811733Y-24184762D01*
X5811733Y-24232381D01*
X5802209Y-24251428D01*
X5792686Y-24260952D01*
X5773638Y-24270476D01*
X5716495Y-24270476D01*
X5697448Y-24260952D01*
X5687924Y-24251428D01*
X6002209Y-24270476D02*
X5887924Y-24270476D01*
X5945067Y-24270476D02*
X5945067Y-24070476D01*
X5926019Y-24099048D01*
X5906971Y-24118095D01*
X5887924Y-24127619D01*
X6183162Y-24070476D02*
X6087924Y-24070476D01*
X6078400Y-24165714D01*
X6087924Y-24156190D01*
X6106971Y-24146667D01*
X6154590Y-24146667D01*
X6173638Y-24156190D01*
X6183162Y-24165714D01*
X6192686Y-24184762D01*
X6192686Y-24232381D01*
X6183162Y-24251428D01*
X6173638Y-24260952D01*
X6154590Y-24270476D01*
X6106971Y-24270476D01*
X6087924Y-24260952D01*
X6078400Y-24251428D01*
X6268876Y-24070476D02*
X6268876Y-24108571D01*
X6345067Y-24070476D02*
X6345067Y-24108571D01*
X6640305Y-24346667D02*
X6630781Y-24337143D01*
X6611733Y-24308571D01*
X6602209Y-24289524D01*
X6592686Y-24260952D01*
X6583162Y-24213333D01*
X6583162Y-24175238D01*
X6592686Y-24127619D01*
X6602209Y-24099048D01*
X6611733Y-24080000D01*
X6630781Y-24051428D01*
X6640305Y-24041905D01*
X6802209Y-24070476D02*
X6764114Y-24070476D01*
X6745067Y-24080000D01*
X6735543Y-24089524D01*
X6716495Y-24118095D01*
X6706971Y-24156190D01*
X6706971Y-24232381D01*
X6716495Y-24251428D01*
X6726019Y-24260952D01*
X6745067Y-24270476D01*
X6783162Y-24270476D01*
X6802209Y-24260952D01*
X6811733Y-24251428D01*
X6821257Y-24232381D01*
X6821257Y-24184762D01*
X6811733Y-24165714D01*
X6802209Y-24156190D01*
X6783162Y-24146667D01*
X6745067Y-24146667D01*
X6726019Y-24156190D01*
X6716495Y-24165714D01*
X6706971Y-24184762D01*
X7059352Y-24270476D02*
X7059352Y-24070476D01*
X7145067Y-24270476D02*
X7145067Y-24165714D01*
X7135543Y-24146667D01*
X7116495Y-24137143D01*
X7087924Y-24137143D01*
X7068876Y-24146667D01*
X7059352Y-24156190D01*
X7268876Y-24270476D02*
X7249828Y-24260952D01*
X7240305Y-24251428D01*
X7230781Y-24232381D01*
X7230781Y-24175238D01*
X7240305Y-24156190D01*
X7249828Y-24146667D01*
X7268876Y-24137143D01*
X7297448Y-24137143D01*
X7316495Y-24146667D01*
X7326019Y-24156190D01*
X7335543Y-24175238D01*
X7335543Y-24232381D01*
X7326019Y-24251428D01*
X7316495Y-24260952D01*
X7297448Y-24270476D01*
X7268876Y-24270476D01*
X7449828Y-24270476D02*
X7430781Y-24260952D01*
X7421257Y-24241905D01*
X7421257Y-24070476D01*
X7602209Y-24260952D02*
X7583162Y-24270476D01*
X7545067Y-24270476D01*
X7526019Y-24260952D01*
X7516495Y-24241905D01*
X7516495Y-24165714D01*
X7526019Y-24146667D01*
X7545067Y-24137143D01*
X7583162Y-24137143D01*
X7602209Y-24146667D01*
X7611733Y-24165714D01*
X7611733Y-24184762D01*
X7516495Y-24203809D01*
X7687924Y-24260952D02*
X7706971Y-24270476D01*
X7745067Y-24270476D01*
X7764114Y-24260952D01*
X7773638Y-24241905D01*
X7773638Y-24232381D01*
X7764114Y-24213333D01*
X7745067Y-24203809D01*
X7716495Y-24203809D01*
X7697448Y-24194286D01*
X7687924Y-24175238D01*
X7687924Y-24165714D01*
X7697448Y-24146667D01*
X7716495Y-24137143D01*
X7745067Y-24137143D01*
X7764114Y-24146667D01*
X7840305Y-24346667D02*
X7849828Y-24337143D01*
X7868876Y-24308571D01*
X7878400Y-24289524D01*
X7887924Y-24260952D01*
X7897448Y-24213333D01*
X7897448Y-24175238D01*
X7887924Y-24127619D01*
X7878400Y-24099048D01*
X7868876Y-24080000D01*
X7849828Y-24051428D01*
X7840305Y-24041905D01*
D18*
X2969340Y-24394470D02*
X3068400Y-24493530D01*
X3068400Y-24394470D02*
X2969340Y-24493530D01*
X3068400Y-24444000D02*
G75*
G03*
X3068400Y-24444000I-49530J0D01*
G01*
D12*
X3364114Y-24334476D02*
X3383162Y-24334476D01*
X3402209Y-24344000D01*
X3411733Y-24353524D01*
X3421257Y-24372571D01*
X3430781Y-24410667D01*
X3430781Y-24458286D01*
X3421257Y-24496381D01*
X3411733Y-24515428D01*
X3402209Y-24524952D01*
X3383162Y-24534476D01*
X3364114Y-24534476D01*
X3345067Y-24524952D01*
X3335543Y-24515428D01*
X3326019Y-24496381D01*
X3316495Y-24458286D01*
X3316495Y-24410667D01*
X3326019Y-24372571D01*
X3335543Y-24353524D01*
X3345067Y-24344000D01*
X3364114Y-24334476D01*
X3516495Y-24515428D02*
X3526019Y-24524952D01*
X3516495Y-24534476D01*
X3506971Y-24524952D01*
X3516495Y-24515428D01*
X3516495Y-24534476D01*
X3621257Y-24534476D02*
X3659352Y-24534476D01*
X3678400Y-24524952D01*
X3687924Y-24515428D01*
X3706971Y-24486857D01*
X3716495Y-24448762D01*
X3716495Y-24372571D01*
X3706971Y-24353524D01*
X3697448Y-24344000D01*
X3678400Y-24334476D01*
X3640305Y-24334476D01*
X3621257Y-24344000D01*
X3611733Y-24353524D01*
X3602209Y-24372571D01*
X3602209Y-24420190D01*
X3611733Y-24439238D01*
X3621257Y-24448762D01*
X3640305Y-24458286D01*
X3678400Y-24458286D01*
X3697448Y-24448762D01*
X3706971Y-24439238D01*
X3716495Y-24420190D01*
X3811733Y-24534476D02*
X3849828Y-24534476D01*
X3868876Y-24524952D01*
X3878400Y-24515428D01*
X3897448Y-24486857D01*
X3906971Y-24448762D01*
X3906971Y-24372571D01*
X3897448Y-24353524D01*
X3887924Y-24344000D01*
X3868876Y-24334476D01*
X3830781Y-24334476D01*
X3811733Y-24344000D01*
X3802209Y-24353524D01*
X3792686Y-24372571D01*
X3792686Y-24420190D01*
X3802209Y-24439238D01*
X3811733Y-24448762D01*
X3830781Y-24458286D01*
X3868876Y-24458286D01*
X3887924Y-24448762D01*
X3897448Y-24439238D01*
X3906971Y-24420190D01*
X4097448Y-24534476D02*
X3983162Y-24534476D01*
X4040305Y-24534476D02*
X4040305Y-24334476D01*
X4021257Y-24363048D01*
X4002209Y-24382095D01*
X3983162Y-24391619D01*
X4183162Y-24534476D02*
X4183162Y-24401143D01*
X4183162Y-24420190D02*
X4192686Y-24410667D01*
X4211733Y-24401143D01*
X4240305Y-24401143D01*
X4259352Y-24410667D01*
X4268876Y-24429714D01*
X4268876Y-24534476D01*
X4268876Y-24429714D02*
X4278400Y-24410667D01*
X4297448Y-24401143D01*
X4326019Y-24401143D01*
X4345067Y-24410667D01*
X4354590Y-24429714D01*
X4354590Y-24534476D01*
X4449829Y-24534476D02*
X4449829Y-24401143D01*
X4449829Y-24420190D02*
X4459352Y-24410667D01*
X4478400Y-24401143D01*
X4506971Y-24401143D01*
X4526019Y-24410667D01*
X4535543Y-24429714D01*
X4535543Y-24534476D01*
X4535543Y-24429714D02*
X4545067Y-24410667D01*
X4564114Y-24401143D01*
X4592686Y-24401143D01*
X4611733Y-24410667D01*
X4621257Y-24429714D01*
X4621257Y-24534476D01*
X5011733Y-24324952D02*
X4840305Y-24582095D01*
X5268876Y-24334476D02*
X5287924Y-24334476D01*
X5306971Y-24344000D01*
X5316495Y-24353524D01*
X5326019Y-24372571D01*
X5335543Y-24410667D01*
X5335543Y-24458286D01*
X5326019Y-24496381D01*
X5316495Y-24515428D01*
X5306971Y-24524952D01*
X5287924Y-24534476D01*
X5268876Y-24534476D01*
X5249829Y-24524952D01*
X5240305Y-24515428D01*
X5230781Y-24496381D01*
X5221257Y-24458286D01*
X5221257Y-24410667D01*
X5230781Y-24372571D01*
X5240305Y-24353524D01*
X5249829Y-24344000D01*
X5268876Y-24334476D01*
X5421257Y-24515428D02*
X5430781Y-24524952D01*
X5421257Y-24534476D01*
X5411733Y-24524952D01*
X5421257Y-24515428D01*
X5421257Y-24534476D01*
X5554590Y-24334476D02*
X5573638Y-24334476D01*
X5592686Y-24344000D01*
X5602209Y-24353524D01*
X5611733Y-24372571D01*
X5621257Y-24410667D01*
X5621257Y-24458286D01*
X5611733Y-24496381D01*
X5602209Y-24515428D01*
X5592686Y-24524952D01*
X5573638Y-24534476D01*
X5554590Y-24534476D01*
X5535543Y-24524952D01*
X5526019Y-24515428D01*
X5516495Y-24496381D01*
X5506971Y-24458286D01*
X5506971Y-24410667D01*
X5516495Y-24372571D01*
X5526019Y-24353524D01*
X5535543Y-24344000D01*
X5554590Y-24334476D01*
X5687924Y-24334476D02*
X5811733Y-24334476D01*
X5745067Y-24410667D01*
X5773638Y-24410667D01*
X5792686Y-24420190D01*
X5802209Y-24429714D01*
X5811733Y-24448762D01*
X5811733Y-24496381D01*
X5802209Y-24515428D01*
X5792686Y-24524952D01*
X5773638Y-24534476D01*
X5716495Y-24534476D01*
X5697448Y-24524952D01*
X5687924Y-24515428D01*
X5906971Y-24534476D02*
X5945067Y-24534476D01*
X5964114Y-24524952D01*
X5973638Y-24515428D01*
X5992686Y-24486857D01*
X6002209Y-24448762D01*
X6002209Y-24372571D01*
X5992686Y-24353524D01*
X5983162Y-24344000D01*
X5964114Y-24334476D01*
X5926019Y-24334476D01*
X5906971Y-24344000D01*
X5897448Y-24353524D01*
X5887924Y-24372571D01*
X5887924Y-24420190D01*
X5897448Y-24439238D01*
X5906971Y-24448762D01*
X5926019Y-24458286D01*
X5964114Y-24458286D01*
X5983162Y-24448762D01*
X5992686Y-24439238D01*
X6002209Y-24420190D01*
X6126019Y-24334476D02*
X6145067Y-24334476D01*
X6164114Y-24344000D01*
X6173638Y-24353524D01*
X6183162Y-24372571D01*
X6192686Y-24410667D01*
X6192686Y-24458286D01*
X6183162Y-24496381D01*
X6173638Y-24515428D01*
X6164114Y-24524952D01*
X6145067Y-24534476D01*
X6126019Y-24534476D01*
X6106971Y-24524952D01*
X6097448Y-24515428D01*
X6087924Y-24496381D01*
X6078400Y-24458286D01*
X6078400Y-24410667D01*
X6087924Y-24372571D01*
X6097448Y-24353524D01*
X6106971Y-24344000D01*
X6126019Y-24334476D01*
X6268876Y-24334476D02*
X6268876Y-24372571D01*
X6345067Y-24334476D02*
X6345067Y-24372571D01*
X6640305Y-24610667D02*
X6630781Y-24601143D01*
X6611733Y-24572571D01*
X6602209Y-24553524D01*
X6592686Y-24524952D01*
X6583162Y-24477333D01*
X6583162Y-24439238D01*
X6592686Y-24391619D01*
X6602209Y-24363048D01*
X6611733Y-24344000D01*
X6630781Y-24315428D01*
X6640305Y-24305905D01*
X6697448Y-24334476D02*
X6821257Y-24334476D01*
X6754590Y-24410667D01*
X6783162Y-24410667D01*
X6802209Y-24420190D01*
X6811733Y-24429714D01*
X6821257Y-24448762D01*
X6821257Y-24496381D01*
X6811733Y-24515428D01*
X6802209Y-24524952D01*
X6783162Y-24534476D01*
X6726019Y-24534476D01*
X6706971Y-24524952D01*
X6697448Y-24515428D01*
X7059352Y-24534476D02*
X7059352Y-24334476D01*
X7145067Y-24534476D02*
X7145067Y-24429714D01*
X7135543Y-24410667D01*
X7116495Y-24401143D01*
X7087924Y-24401143D01*
X7068876Y-24410667D01*
X7059352Y-24420190D01*
X7268876Y-24534476D02*
X7249828Y-24524952D01*
X7240305Y-24515428D01*
X7230781Y-24496381D01*
X7230781Y-24439238D01*
X7240305Y-24420190D01*
X7249828Y-24410667D01*
X7268876Y-24401143D01*
X7297448Y-24401143D01*
X7316495Y-24410667D01*
X7326019Y-24420190D01*
X7335543Y-24439238D01*
X7335543Y-24496381D01*
X7326019Y-24515428D01*
X7316495Y-24524952D01*
X7297448Y-24534476D01*
X7268876Y-24534476D01*
X7449828Y-24534476D02*
X7430781Y-24524952D01*
X7421257Y-24505905D01*
X7421257Y-24334476D01*
X7602209Y-24524952D02*
X7583162Y-24534476D01*
X7545067Y-24534476D01*
X7526019Y-24524952D01*
X7516495Y-24505905D01*
X7516495Y-24429714D01*
X7526019Y-24410667D01*
X7545067Y-24401143D01*
X7583162Y-24401143D01*
X7602209Y-24410667D01*
X7611733Y-24429714D01*
X7611733Y-24448762D01*
X7516495Y-24467809D01*
X7687924Y-24524952D02*
X7706971Y-24534476D01*
X7745067Y-24534476D01*
X7764114Y-24524952D01*
X7773638Y-24505905D01*
X7773638Y-24496381D01*
X7764114Y-24477333D01*
X7745067Y-24467809D01*
X7716495Y-24467809D01*
X7697448Y-24458286D01*
X7687924Y-24439238D01*
X7687924Y-24429714D01*
X7697448Y-24410667D01*
X7716495Y-24401143D01*
X7745067Y-24401143D01*
X7764114Y-24410667D01*
X7840305Y-24610667D02*
X7849828Y-24601143D01*
X7868876Y-24572571D01*
X7878400Y-24553524D01*
X7887924Y-24524952D01*
X7897448Y-24477333D01*
X7897448Y-24439238D01*
X7887924Y-24391619D01*
X7878400Y-24363048D01*
X7868876Y-24344000D01*
X7849828Y-24315428D01*
X7840305Y-24305905D01*
D19*
X2968400Y-24658000D02*
X3068400Y-24758000D01*
X3068400Y-24658000D02*
X2968400Y-24758000D01*
X3018400Y-24658000D02*
X3018400Y-24758000D01*
X2968400Y-24708000D02*
X3068400Y-24708000D01*
D12*
X3430781Y-24798476D02*
X3316495Y-24798476D01*
X3373638Y-24798476D02*
X3373638Y-24598476D01*
X3354590Y-24627048D01*
X3335543Y-24646095D01*
X3316495Y-24655619D01*
X3516495Y-24779428D02*
X3526019Y-24788952D01*
X3516495Y-24798476D01*
X3506971Y-24788952D01*
X3516495Y-24779428D01*
X3516495Y-24798476D01*
X3649828Y-24598476D02*
X3668876Y-24598476D01*
X3687924Y-24608000D01*
X3697448Y-24617524D01*
X3706971Y-24636571D01*
X3716495Y-24674667D01*
X3716495Y-24722286D01*
X3706971Y-24760381D01*
X3697448Y-24779428D01*
X3687924Y-24788952D01*
X3668876Y-24798476D01*
X3649828Y-24798476D01*
X3630781Y-24788952D01*
X3621257Y-24779428D01*
X3611733Y-24760381D01*
X3602209Y-24722286D01*
X3602209Y-24674667D01*
X3611733Y-24636571D01*
X3621257Y-24617524D01*
X3630781Y-24608000D01*
X3649828Y-24598476D01*
X3840305Y-24598476D02*
X3859352Y-24598476D01*
X3878400Y-24608000D01*
X3887924Y-24617524D01*
X3897448Y-24636571D01*
X3906971Y-24674667D01*
X3906971Y-24722286D01*
X3897448Y-24760381D01*
X3887924Y-24779428D01*
X3878400Y-24788952D01*
X3859352Y-24798476D01*
X3840305Y-24798476D01*
X3821257Y-24788952D01*
X3811733Y-24779428D01*
X3802209Y-24760381D01*
X3792686Y-24722286D01*
X3792686Y-24674667D01*
X3802209Y-24636571D01*
X3811733Y-24617524D01*
X3821257Y-24608000D01*
X3840305Y-24598476D01*
X4030781Y-24598476D02*
X4049828Y-24598476D01*
X4068876Y-24608000D01*
X4078400Y-24617524D01*
X4087924Y-24636571D01*
X4097448Y-24674667D01*
X4097448Y-24722286D01*
X4087924Y-24760381D01*
X4078400Y-24779428D01*
X4068876Y-24788952D01*
X4049828Y-24798476D01*
X4030781Y-24798476D01*
X4011733Y-24788952D01*
X4002209Y-24779428D01*
X3992686Y-24760381D01*
X3983162Y-24722286D01*
X3983162Y-24674667D01*
X3992686Y-24636571D01*
X4002209Y-24617524D01*
X4011733Y-24608000D01*
X4030781Y-24598476D01*
X4183162Y-24798476D02*
X4183162Y-24665143D01*
X4183162Y-24684190D02*
X4192686Y-24674667D01*
X4211733Y-24665143D01*
X4240305Y-24665143D01*
X4259352Y-24674667D01*
X4268876Y-24693714D01*
X4268876Y-24798476D01*
X4268876Y-24693714D02*
X4278400Y-24674667D01*
X4297448Y-24665143D01*
X4326019Y-24665143D01*
X4345067Y-24674667D01*
X4354590Y-24693714D01*
X4354590Y-24798476D01*
X4449829Y-24798476D02*
X4449829Y-24665143D01*
X4449829Y-24684190D02*
X4459352Y-24674667D01*
X4478400Y-24665143D01*
X4506971Y-24665143D01*
X4526019Y-24674667D01*
X4535543Y-24693714D01*
X4535543Y-24798476D01*
X4535543Y-24693714D02*
X4545067Y-24674667D01*
X4564114Y-24665143D01*
X4592686Y-24665143D01*
X4611733Y-24674667D01*
X4621257Y-24693714D01*
X4621257Y-24798476D01*
X5011733Y-24588952D02*
X4840305Y-24846095D01*
X5268876Y-24598476D02*
X5287924Y-24598476D01*
X5306971Y-24608000D01*
X5316495Y-24617524D01*
X5326019Y-24636571D01*
X5335543Y-24674667D01*
X5335543Y-24722286D01*
X5326019Y-24760381D01*
X5316495Y-24779428D01*
X5306971Y-24788952D01*
X5287924Y-24798476D01*
X5268876Y-24798476D01*
X5249829Y-24788952D01*
X5240305Y-24779428D01*
X5230781Y-24760381D01*
X5221257Y-24722286D01*
X5221257Y-24674667D01*
X5230781Y-24636571D01*
X5240305Y-24617524D01*
X5249829Y-24608000D01*
X5268876Y-24598476D01*
X5421257Y-24779428D02*
X5430781Y-24788952D01*
X5421257Y-24798476D01*
X5411733Y-24788952D01*
X5421257Y-24779428D01*
X5421257Y-24798476D01*
X5554590Y-24598476D02*
X5573638Y-24598476D01*
X5592686Y-24608000D01*
X5602209Y-24617524D01*
X5611733Y-24636571D01*
X5621257Y-24674667D01*
X5621257Y-24722286D01*
X5611733Y-24760381D01*
X5602209Y-24779428D01*
X5592686Y-24788952D01*
X5573638Y-24798476D01*
X5554590Y-24798476D01*
X5535543Y-24788952D01*
X5526019Y-24779428D01*
X5516495Y-24760381D01*
X5506971Y-24722286D01*
X5506971Y-24674667D01*
X5516495Y-24636571D01*
X5526019Y-24617524D01*
X5535543Y-24608000D01*
X5554590Y-24598476D01*
X5687924Y-24598476D02*
X5811733Y-24598476D01*
X5745067Y-24674667D01*
X5773638Y-24674667D01*
X5792686Y-24684190D01*
X5802209Y-24693714D01*
X5811733Y-24712762D01*
X5811733Y-24760381D01*
X5802209Y-24779428D01*
X5792686Y-24788952D01*
X5773638Y-24798476D01*
X5716495Y-24798476D01*
X5697448Y-24788952D01*
X5687924Y-24779428D01*
X5906971Y-24798476D02*
X5945067Y-24798476D01*
X5964114Y-24788952D01*
X5973638Y-24779428D01*
X5992686Y-24750857D01*
X6002209Y-24712762D01*
X6002209Y-24636571D01*
X5992686Y-24617524D01*
X5983162Y-24608000D01*
X5964114Y-24598476D01*
X5926019Y-24598476D01*
X5906971Y-24608000D01*
X5897448Y-24617524D01*
X5887924Y-24636571D01*
X5887924Y-24684190D01*
X5897448Y-24703238D01*
X5906971Y-24712762D01*
X5926019Y-24722286D01*
X5964114Y-24722286D01*
X5983162Y-24712762D01*
X5992686Y-24703238D01*
X6002209Y-24684190D01*
X6173638Y-24665143D02*
X6173638Y-24798476D01*
X6126019Y-24588952D02*
X6078400Y-24731809D01*
X6202209Y-24731809D01*
X6268876Y-24598476D02*
X6268876Y-24636571D01*
X6345067Y-24598476D02*
X6345067Y-24636571D01*
X6640305Y-24874667D02*
X6630781Y-24865143D01*
X6611733Y-24836571D01*
X6602209Y-24817524D01*
X6592686Y-24788952D01*
X6583162Y-24741333D01*
X6583162Y-24703238D01*
X6592686Y-24655619D01*
X6602209Y-24627048D01*
X6611733Y-24608000D01*
X6630781Y-24579428D01*
X6640305Y-24569905D01*
X6821257Y-24798476D02*
X6706971Y-24798476D01*
X6764114Y-24798476D02*
X6764114Y-24598476D01*
X6745067Y-24627048D01*
X6726019Y-24646095D01*
X6706971Y-24655619D01*
X6945067Y-24598476D02*
X6964114Y-24598476D01*
X6983162Y-24608000D01*
X6992686Y-24617524D01*
X7002209Y-24636571D01*
X7011733Y-24674667D01*
X7011733Y-24722286D01*
X7002209Y-24760381D01*
X6992686Y-24779428D01*
X6983162Y-24788952D01*
X6964114Y-24798476D01*
X6945067Y-24798476D01*
X6926019Y-24788952D01*
X6916495Y-24779428D01*
X6906971Y-24760381D01*
X6897448Y-24722286D01*
X6897448Y-24674667D01*
X6906971Y-24636571D01*
X6916495Y-24617524D01*
X6926019Y-24608000D01*
X6945067Y-24598476D01*
X7249828Y-24798476D02*
X7249828Y-24598476D01*
X7335543Y-24798476D02*
X7335543Y-24693714D01*
X7326019Y-24674667D01*
X7306971Y-24665143D01*
X7278400Y-24665143D01*
X7259352Y-24674667D01*
X7249828Y-24684190D01*
X7459352Y-24798476D02*
X7440305Y-24788952D01*
X7430781Y-24779428D01*
X7421257Y-24760381D01*
X7421257Y-24703238D01*
X7430781Y-24684190D01*
X7440305Y-24674667D01*
X7459352Y-24665143D01*
X7487924Y-24665143D01*
X7506971Y-24674667D01*
X7516495Y-24684190D01*
X7526019Y-24703238D01*
X7526019Y-24760381D01*
X7516495Y-24779428D01*
X7506971Y-24788952D01*
X7487924Y-24798476D01*
X7459352Y-24798476D01*
X7640305Y-24798476D02*
X7621257Y-24788952D01*
X7611733Y-24769905D01*
X7611733Y-24598476D01*
X7792686Y-24788952D02*
X7773638Y-24798476D01*
X7735543Y-24798476D01*
X7716495Y-24788952D01*
X7706971Y-24769905D01*
X7706971Y-24693714D01*
X7716495Y-24674667D01*
X7735543Y-24665143D01*
X7773638Y-24665143D01*
X7792686Y-24674667D01*
X7802209Y-24693714D01*
X7802209Y-24712762D01*
X7706971Y-24731809D01*
X7878400Y-24788952D02*
X7897448Y-24798476D01*
X7935543Y-24798476D01*
X7954590Y-24788952D01*
X7964114Y-24769905D01*
X7964114Y-24760381D01*
X7954590Y-24741333D01*
X7935543Y-24731809D01*
X7906971Y-24731809D01*
X7887924Y-24722286D01*
X7878400Y-24703238D01*
X7878400Y-24693714D01*
X7887924Y-24674667D01*
X7906971Y-24665143D01*
X7935543Y-24665143D01*
X7954590Y-24674667D01*
X8030781Y-24874667D02*
X8040305Y-24865143D01*
X8059352Y-24836571D01*
X8068876Y-24817524D01*
X8078400Y-24788952D01*
X8087924Y-24741333D01*
X8087924Y-24703238D01*
X8078400Y-24655619D01*
X8068876Y-24627048D01*
X8059352Y-24608000D01*
X8040305Y-24579428D01*
X8030781Y-24569905D01*
D20*
X2966800Y-24921200D02*
X3068400Y-25022800D01*
X3068400Y-24921200D02*
X2966800Y-25022800D01*
X3053521Y-25007921D02*
X3053521Y-24936079D01*
X2981679Y-24936079D01*
X2981679Y-25007921D01*
X3053521Y-25007921D01*
D12*
X3430781Y-25062476D02*
X3316495Y-25062476D01*
X3373638Y-25062476D02*
X3373638Y-24862476D01*
X3354590Y-24891048D01*
X3335543Y-24910095D01*
X3316495Y-24919619D01*
X3516495Y-25043428D02*
X3526019Y-25052952D01*
X3516495Y-25062476D01*
X3506971Y-25052952D01*
X3516495Y-25043428D01*
X3516495Y-25062476D01*
X3649828Y-24862476D02*
X3668876Y-24862476D01*
X3687924Y-24872000D01*
X3697448Y-24881524D01*
X3706971Y-24900571D01*
X3716495Y-24938667D01*
X3716495Y-24986286D01*
X3706971Y-25024381D01*
X3697448Y-25043428D01*
X3687924Y-25052952D01*
X3668876Y-25062476D01*
X3649828Y-25062476D01*
X3630781Y-25052952D01*
X3621257Y-25043428D01*
X3611733Y-25024381D01*
X3602209Y-24986286D01*
X3602209Y-24938667D01*
X3611733Y-24900571D01*
X3621257Y-24881524D01*
X3630781Y-24872000D01*
X3649828Y-24862476D01*
X3906971Y-25062476D02*
X3792686Y-25062476D01*
X3849828Y-25062476D02*
X3849828Y-24862476D01*
X3830781Y-24891048D01*
X3811733Y-24910095D01*
X3792686Y-24919619D01*
X4078400Y-24862476D02*
X4040305Y-24862476D01*
X4021257Y-24872000D01*
X4011733Y-24881524D01*
X3992686Y-24910095D01*
X3983162Y-24948190D01*
X3983162Y-25024381D01*
X3992686Y-25043428D01*
X4002209Y-25052952D01*
X4021257Y-25062476D01*
X4059352Y-25062476D01*
X4078400Y-25052952D01*
X4087924Y-25043428D01*
X4097448Y-25024381D01*
X4097448Y-24976762D01*
X4087924Y-24957714D01*
X4078400Y-24948190D01*
X4059352Y-24938667D01*
X4021257Y-24938667D01*
X4002209Y-24948190D01*
X3992686Y-24957714D01*
X3983162Y-24976762D01*
X4183162Y-25062476D02*
X4183162Y-24929143D01*
X4183162Y-24948190D02*
X4192686Y-24938667D01*
X4211733Y-24929143D01*
X4240305Y-24929143D01*
X4259352Y-24938667D01*
X4268876Y-24957714D01*
X4268876Y-25062476D01*
X4268876Y-24957714D02*
X4278400Y-24938667D01*
X4297448Y-24929143D01*
X4326019Y-24929143D01*
X4345067Y-24938667D01*
X4354590Y-24957714D01*
X4354590Y-25062476D01*
X4449829Y-25062476D02*
X4449829Y-24929143D01*
X4449829Y-24948190D02*
X4459352Y-24938667D01*
X4478400Y-24929143D01*
X4506971Y-24929143D01*
X4526019Y-24938667D01*
X4535543Y-24957714D01*
X4535543Y-25062476D01*
X4535543Y-24957714D02*
X4545067Y-24938667D01*
X4564114Y-24929143D01*
X4592686Y-24929143D01*
X4611733Y-24938667D01*
X4621257Y-24957714D01*
X4621257Y-25062476D01*
X5011733Y-24852952D02*
X4840305Y-25110095D01*
X5268876Y-24862476D02*
X5287924Y-24862476D01*
X5306971Y-24872000D01*
X5316495Y-24881524D01*
X5326019Y-24900571D01*
X5335543Y-24938667D01*
X5335543Y-24986286D01*
X5326019Y-25024381D01*
X5316495Y-25043428D01*
X5306971Y-25052952D01*
X5287924Y-25062476D01*
X5268876Y-25062476D01*
X5249829Y-25052952D01*
X5240305Y-25043428D01*
X5230781Y-25024381D01*
X5221257Y-24986286D01*
X5221257Y-24938667D01*
X5230781Y-24900571D01*
X5240305Y-24881524D01*
X5249829Y-24872000D01*
X5268876Y-24862476D01*
X5421257Y-25043428D02*
X5430781Y-25052952D01*
X5421257Y-25062476D01*
X5411733Y-25052952D01*
X5421257Y-25043428D01*
X5421257Y-25062476D01*
X5554590Y-24862476D02*
X5573638Y-24862476D01*
X5592686Y-24872000D01*
X5602209Y-24881524D01*
X5611733Y-24900571D01*
X5621257Y-24938667D01*
X5621257Y-24986286D01*
X5611733Y-25024381D01*
X5602209Y-25043428D01*
X5592686Y-25052952D01*
X5573638Y-25062476D01*
X5554590Y-25062476D01*
X5535543Y-25052952D01*
X5526019Y-25043428D01*
X5516495Y-25024381D01*
X5506971Y-24986286D01*
X5506971Y-24938667D01*
X5516495Y-24900571D01*
X5526019Y-24881524D01*
X5535543Y-24872000D01*
X5554590Y-24862476D01*
X5792686Y-24929143D02*
X5792686Y-25062476D01*
X5745067Y-24852952D02*
X5697448Y-24995809D01*
X5821257Y-24995809D01*
X5935543Y-24862476D02*
X5954590Y-24862476D01*
X5973638Y-24872000D01*
X5983162Y-24881524D01*
X5992686Y-24900571D01*
X6002209Y-24938667D01*
X6002209Y-24986286D01*
X5992686Y-25024381D01*
X5983162Y-25043428D01*
X5973638Y-25052952D01*
X5954590Y-25062476D01*
X5935543Y-25062476D01*
X5916495Y-25052952D01*
X5906971Y-25043428D01*
X5897448Y-25024381D01*
X5887924Y-24986286D01*
X5887924Y-24938667D01*
X5897448Y-24900571D01*
X5906971Y-24881524D01*
X5916495Y-24872000D01*
X5935543Y-24862476D01*
X6126019Y-24862476D02*
X6145067Y-24862476D01*
X6164114Y-24872000D01*
X6173638Y-24881524D01*
X6183162Y-24900571D01*
X6192686Y-24938667D01*
X6192686Y-24986286D01*
X6183162Y-25024381D01*
X6173638Y-25043428D01*
X6164114Y-25052952D01*
X6145067Y-25062476D01*
X6126019Y-25062476D01*
X6106971Y-25052952D01*
X6097448Y-25043428D01*
X6087924Y-25024381D01*
X6078400Y-24986286D01*
X6078400Y-24938667D01*
X6087924Y-24900571D01*
X6097448Y-24881524D01*
X6106971Y-24872000D01*
X6126019Y-24862476D01*
X6268876Y-24862476D02*
X6268876Y-24900571D01*
X6345067Y-24862476D02*
X6345067Y-24900571D01*
X6640305Y-25138667D02*
X6630781Y-25129143D01*
X6611733Y-25100571D01*
X6602209Y-25081524D01*
X6592686Y-25052952D01*
X6583162Y-25005333D01*
X6583162Y-24967238D01*
X6592686Y-24919619D01*
X6602209Y-24891048D01*
X6611733Y-24872000D01*
X6630781Y-24843428D01*
X6640305Y-24833905D01*
X6697448Y-24862476D02*
X6821257Y-24862476D01*
X6754590Y-24938667D01*
X6783162Y-24938667D01*
X6802209Y-24948190D01*
X6811733Y-24957714D01*
X6821257Y-24976762D01*
X6821257Y-25024381D01*
X6811733Y-25043428D01*
X6802209Y-25052952D01*
X6783162Y-25062476D01*
X6726019Y-25062476D01*
X6706971Y-25052952D01*
X6697448Y-25043428D01*
X7059352Y-25062476D02*
X7059352Y-24862476D01*
X7145067Y-25062476D02*
X7145067Y-24957714D01*
X7135543Y-24938667D01*
X7116495Y-24929143D01*
X7087924Y-24929143D01*
X7068876Y-24938667D01*
X7059352Y-24948190D01*
X7268876Y-25062476D02*
X7249828Y-25052952D01*
X7240305Y-25043428D01*
X7230781Y-25024381D01*
X7230781Y-24967238D01*
X7240305Y-24948190D01*
X7249828Y-24938667D01*
X7268876Y-24929143D01*
X7297448Y-24929143D01*
X7316495Y-24938667D01*
X7326019Y-24948190D01*
X7335543Y-24967238D01*
X7335543Y-25024381D01*
X7326019Y-25043428D01*
X7316495Y-25052952D01*
X7297448Y-25062476D01*
X7268876Y-25062476D01*
X7449828Y-25062476D02*
X7430781Y-25052952D01*
X7421257Y-25033905D01*
X7421257Y-24862476D01*
X7602209Y-25052952D02*
X7583162Y-25062476D01*
X7545067Y-25062476D01*
X7526019Y-25052952D01*
X7516495Y-25033905D01*
X7516495Y-24957714D01*
X7526019Y-24938667D01*
X7545067Y-24929143D01*
X7583162Y-24929143D01*
X7602209Y-24938667D01*
X7611733Y-24957714D01*
X7611733Y-24976762D01*
X7516495Y-24995809D01*
X7687924Y-25052952D02*
X7706971Y-25062476D01*
X7745067Y-25062476D01*
X7764114Y-25052952D01*
X7773638Y-25033905D01*
X7773638Y-25024381D01*
X7764114Y-25005333D01*
X7745067Y-24995809D01*
X7716495Y-24995809D01*
X7697448Y-24986286D01*
X7687924Y-24967238D01*
X7687924Y-24957714D01*
X7697448Y-24938667D01*
X7716495Y-24929143D01*
X7745067Y-24929143D01*
X7764114Y-24938667D01*
X7840305Y-25138667D02*
X7849828Y-25129143D01*
X7868876Y-25100571D01*
X7878400Y-25081524D01*
X7887924Y-25052952D01*
X7897448Y-25005333D01*
X7897448Y-24967238D01*
X7887924Y-24919619D01*
X7878400Y-24891048D01*
X7868876Y-24872000D01*
X7849828Y-24843428D01*
X7840305Y-24833905D01*
D21*
X2958400Y-25181000D02*
X3068400Y-25291000D01*
X3068400Y-25181000D02*
X2958400Y-25291000D01*
X3013400Y-25291000D02*
X3068400Y-25236000D01*
X3013400Y-25181000D01*
X2958400Y-25236000D01*
X3013400Y-25291000D01*
D12*
X3430781Y-25326476D02*
X3316495Y-25326476D01*
X3373638Y-25326476D02*
X3373638Y-25126476D01*
X3354590Y-25155048D01*
X3335543Y-25174095D01*
X3316495Y-25183619D01*
X3516495Y-25307428D02*
X3526019Y-25316952D01*
X3516495Y-25326476D01*
X3506971Y-25316952D01*
X3516495Y-25307428D01*
X3516495Y-25326476D01*
X3716495Y-25326476D02*
X3602209Y-25326476D01*
X3659352Y-25326476D02*
X3659352Y-25126476D01*
X3640305Y-25155048D01*
X3621257Y-25174095D01*
X3602209Y-25183619D01*
X3840305Y-25126476D02*
X3859352Y-25126476D01*
X3878400Y-25136000D01*
X3887924Y-25145524D01*
X3897448Y-25164571D01*
X3906971Y-25202667D01*
X3906971Y-25250286D01*
X3897448Y-25288381D01*
X3887924Y-25307428D01*
X3878400Y-25316952D01*
X3859352Y-25326476D01*
X3840305Y-25326476D01*
X3821257Y-25316952D01*
X3811733Y-25307428D01*
X3802209Y-25288381D01*
X3792686Y-25250286D01*
X3792686Y-25202667D01*
X3802209Y-25164571D01*
X3811733Y-25145524D01*
X3821257Y-25136000D01*
X3840305Y-25126476D01*
X4030781Y-25126476D02*
X4049828Y-25126476D01*
X4068876Y-25136000D01*
X4078400Y-25145524D01*
X4087924Y-25164571D01*
X4097448Y-25202667D01*
X4097448Y-25250286D01*
X4087924Y-25288381D01*
X4078400Y-25307428D01*
X4068876Y-25316952D01*
X4049828Y-25326476D01*
X4030781Y-25326476D01*
X4011733Y-25316952D01*
X4002209Y-25307428D01*
X3992686Y-25288381D01*
X3983162Y-25250286D01*
X3983162Y-25202667D01*
X3992686Y-25164571D01*
X4002209Y-25145524D01*
X4011733Y-25136000D01*
X4030781Y-25126476D01*
X4183162Y-25326476D02*
X4183162Y-25193143D01*
X4183162Y-25212190D02*
X4192686Y-25202667D01*
X4211733Y-25193143D01*
X4240305Y-25193143D01*
X4259352Y-25202667D01*
X4268876Y-25221714D01*
X4268876Y-25326476D01*
X4268876Y-25221714D02*
X4278400Y-25202667D01*
X4297448Y-25193143D01*
X4326019Y-25193143D01*
X4345067Y-25202667D01*
X4354590Y-25221714D01*
X4354590Y-25326476D01*
X4449829Y-25326476D02*
X4449829Y-25193143D01*
X4449829Y-25212190D02*
X4459352Y-25202667D01*
X4478400Y-25193143D01*
X4506971Y-25193143D01*
X4526019Y-25202667D01*
X4535543Y-25221714D01*
X4535543Y-25326476D01*
X4535543Y-25221714D02*
X4545067Y-25202667D01*
X4564114Y-25193143D01*
X4592686Y-25193143D01*
X4611733Y-25202667D01*
X4621257Y-25221714D01*
X4621257Y-25326476D01*
X5011733Y-25116952D02*
X4840305Y-25374095D01*
X5268876Y-25126476D02*
X5287924Y-25126476D01*
X5306971Y-25136000D01*
X5316495Y-25145524D01*
X5326019Y-25164571D01*
X5335543Y-25202667D01*
X5335543Y-25250286D01*
X5326019Y-25288381D01*
X5316495Y-25307428D01*
X5306971Y-25316952D01*
X5287924Y-25326476D01*
X5268876Y-25326476D01*
X5249829Y-25316952D01*
X5240305Y-25307428D01*
X5230781Y-25288381D01*
X5221257Y-25250286D01*
X5221257Y-25202667D01*
X5230781Y-25164571D01*
X5240305Y-25145524D01*
X5249829Y-25136000D01*
X5268876Y-25126476D01*
X5421257Y-25307428D02*
X5430781Y-25316952D01*
X5421257Y-25326476D01*
X5411733Y-25316952D01*
X5421257Y-25307428D01*
X5421257Y-25326476D01*
X5554590Y-25126476D02*
X5573638Y-25126476D01*
X5592686Y-25136000D01*
X5602209Y-25145524D01*
X5611733Y-25164571D01*
X5621257Y-25202667D01*
X5621257Y-25250286D01*
X5611733Y-25288381D01*
X5602209Y-25307428D01*
X5592686Y-25316952D01*
X5573638Y-25326476D01*
X5554590Y-25326476D01*
X5535543Y-25316952D01*
X5526019Y-25307428D01*
X5516495Y-25288381D01*
X5506971Y-25250286D01*
X5506971Y-25202667D01*
X5516495Y-25164571D01*
X5526019Y-25145524D01*
X5535543Y-25136000D01*
X5554590Y-25126476D01*
X5792686Y-25193143D02*
X5792686Y-25326476D01*
X5745067Y-25116952D02*
X5697448Y-25259809D01*
X5821257Y-25259809D01*
X5878400Y-25126476D02*
X6002209Y-25126476D01*
X5935543Y-25202667D01*
X5964114Y-25202667D01*
X5983162Y-25212190D01*
X5992686Y-25221714D01*
X6002209Y-25240762D01*
X6002209Y-25288381D01*
X5992686Y-25307428D01*
X5983162Y-25316952D01*
X5964114Y-25326476D01*
X5906971Y-25326476D01*
X5887924Y-25316952D01*
X5878400Y-25307428D01*
X6068876Y-25126476D02*
X6192686Y-25126476D01*
X6126019Y-25202667D01*
X6154590Y-25202667D01*
X6173638Y-25212190D01*
X6183162Y-25221714D01*
X6192686Y-25240762D01*
X6192686Y-25288381D01*
X6183162Y-25307428D01*
X6173638Y-25316952D01*
X6154590Y-25326476D01*
X6097448Y-25326476D01*
X6078400Y-25316952D01*
X6068876Y-25307428D01*
X6268876Y-25126476D02*
X6268876Y-25164571D01*
X6345067Y-25126476D02*
X6345067Y-25164571D01*
X6640305Y-25402667D02*
X6630781Y-25393143D01*
X6611733Y-25364571D01*
X6602209Y-25345524D01*
X6592686Y-25316952D01*
X6583162Y-25269333D01*
X6583162Y-25231238D01*
X6592686Y-25183619D01*
X6602209Y-25155048D01*
X6611733Y-25136000D01*
X6630781Y-25107428D01*
X6640305Y-25097905D01*
X6821257Y-25326476D02*
X6706971Y-25326476D01*
X6764114Y-25326476D02*
X6764114Y-25126476D01*
X6745067Y-25155048D01*
X6726019Y-25174095D01*
X6706971Y-25183619D01*
X6992686Y-25193143D02*
X6992686Y-25326476D01*
X6945067Y-25116952D02*
X6897448Y-25259809D01*
X7021257Y-25259809D01*
X7249828Y-25326476D02*
X7249828Y-25126476D01*
X7335543Y-25326476D02*
X7335543Y-25221714D01*
X7326019Y-25202667D01*
X7306971Y-25193143D01*
X7278400Y-25193143D01*
X7259352Y-25202667D01*
X7249828Y-25212190D01*
X7459352Y-25326476D02*
X7440305Y-25316952D01*
X7430781Y-25307428D01*
X7421257Y-25288381D01*
X7421257Y-25231238D01*
X7430781Y-25212190D01*
X7440305Y-25202667D01*
X7459352Y-25193143D01*
X7487924Y-25193143D01*
X7506971Y-25202667D01*
X7516495Y-25212190D01*
X7526019Y-25231238D01*
X7526019Y-25288381D01*
X7516495Y-25307428D01*
X7506971Y-25316952D01*
X7487924Y-25326476D01*
X7459352Y-25326476D01*
X7640305Y-25326476D02*
X7621257Y-25316952D01*
X7611733Y-25297905D01*
X7611733Y-25126476D01*
X7792686Y-25316952D02*
X7773638Y-25326476D01*
X7735543Y-25326476D01*
X7716495Y-25316952D01*
X7706971Y-25297905D01*
X7706971Y-25221714D01*
X7716495Y-25202667D01*
X7735543Y-25193143D01*
X7773638Y-25193143D01*
X7792686Y-25202667D01*
X7802209Y-25221714D01*
X7802209Y-25240762D01*
X7706971Y-25259809D01*
X7878400Y-25316952D02*
X7897448Y-25326476D01*
X7935543Y-25326476D01*
X7954590Y-25316952D01*
X7964114Y-25297905D01*
X7964114Y-25288381D01*
X7954590Y-25269333D01*
X7935543Y-25259809D01*
X7906971Y-25259809D01*
X7887924Y-25250286D01*
X7878400Y-25231238D01*
X7878400Y-25221714D01*
X7887924Y-25202667D01*
X7906971Y-25193143D01*
X7935543Y-25193143D01*
X7954590Y-25202667D01*
X8030781Y-25402667D02*
X8040305Y-25393143D01*
X8059352Y-25364571D01*
X8068876Y-25345524D01*
X8078400Y-25316952D01*
X8087924Y-25269333D01*
X8087924Y-25231238D01*
X8078400Y-25183619D01*
X8068876Y-25155048D01*
X8059352Y-25136000D01*
X8040305Y-25107428D01*
X8030781Y-25097905D01*
D22*
X3008400Y-25440000D02*
X3008400Y-25560000D01*
X2948400Y-25500000D02*
X3068400Y-25500000D01*
X3068400Y-25500000D02*
G75*
G03*
X3068400Y-25500000I-60000J0D01*
G01*
D12*
X3430781Y-25590476D02*
X3316495Y-25590476D01*
X3373638Y-25590476D02*
X3373638Y-25390476D01*
X3354590Y-25419048D01*
X3335543Y-25438095D01*
X3316495Y-25447619D01*
X3516495Y-25571428D02*
X3526019Y-25580952D01*
X3516495Y-25590476D01*
X3506971Y-25580952D01*
X3516495Y-25571428D01*
X3516495Y-25590476D01*
X3602209Y-25409524D02*
X3611733Y-25400000D01*
X3630781Y-25390476D01*
X3678400Y-25390476D01*
X3697448Y-25400000D01*
X3706971Y-25409524D01*
X3716495Y-25428571D01*
X3716495Y-25447619D01*
X3706971Y-25476190D01*
X3592686Y-25590476D01*
X3716495Y-25590476D01*
X3840305Y-25390476D02*
X3859352Y-25390476D01*
X3878400Y-25400000D01*
X3887924Y-25409524D01*
X3897448Y-25428571D01*
X3906971Y-25466667D01*
X3906971Y-25514286D01*
X3897448Y-25552381D01*
X3887924Y-25571428D01*
X3878400Y-25580952D01*
X3859352Y-25590476D01*
X3840305Y-25590476D01*
X3821257Y-25580952D01*
X3811733Y-25571428D01*
X3802209Y-25552381D01*
X3792686Y-25514286D01*
X3792686Y-25466667D01*
X3802209Y-25428571D01*
X3811733Y-25409524D01*
X3821257Y-25400000D01*
X3840305Y-25390476D01*
X4030781Y-25390476D02*
X4049828Y-25390476D01*
X4068876Y-25400000D01*
X4078400Y-25409524D01*
X4087924Y-25428571D01*
X4097448Y-25466667D01*
X4097448Y-25514286D01*
X4087924Y-25552381D01*
X4078400Y-25571428D01*
X4068876Y-25580952D01*
X4049828Y-25590476D01*
X4030781Y-25590476D01*
X4011733Y-25580952D01*
X4002209Y-25571428D01*
X3992686Y-25552381D01*
X3983162Y-25514286D01*
X3983162Y-25466667D01*
X3992686Y-25428571D01*
X4002209Y-25409524D01*
X4011733Y-25400000D01*
X4030781Y-25390476D01*
X4183162Y-25590476D02*
X4183162Y-25457143D01*
X4183162Y-25476190D02*
X4192686Y-25466667D01*
X4211733Y-25457143D01*
X4240305Y-25457143D01*
X4259352Y-25466667D01*
X4268876Y-25485714D01*
X4268876Y-25590476D01*
X4268876Y-25485714D02*
X4278400Y-25466667D01*
X4297448Y-25457143D01*
X4326019Y-25457143D01*
X4345067Y-25466667D01*
X4354590Y-25485714D01*
X4354590Y-25590476D01*
X4449829Y-25590476D02*
X4449829Y-25457143D01*
X4449829Y-25476190D02*
X4459352Y-25466667D01*
X4478400Y-25457143D01*
X4506971Y-25457143D01*
X4526019Y-25466667D01*
X4535543Y-25485714D01*
X4535543Y-25590476D01*
X4535543Y-25485714D02*
X4545067Y-25466667D01*
X4564114Y-25457143D01*
X4592686Y-25457143D01*
X4611733Y-25466667D01*
X4621257Y-25485714D01*
X4621257Y-25590476D01*
X5011733Y-25380952D02*
X4840305Y-25638095D01*
X5268876Y-25390476D02*
X5287924Y-25390476D01*
X5306971Y-25400000D01*
X5316495Y-25409524D01*
X5326019Y-25428571D01*
X5335543Y-25466667D01*
X5335543Y-25514286D01*
X5326019Y-25552381D01*
X5316495Y-25571428D01*
X5306971Y-25580952D01*
X5287924Y-25590476D01*
X5268876Y-25590476D01*
X5249829Y-25580952D01*
X5240305Y-25571428D01*
X5230781Y-25552381D01*
X5221257Y-25514286D01*
X5221257Y-25466667D01*
X5230781Y-25428571D01*
X5240305Y-25409524D01*
X5249829Y-25400000D01*
X5268876Y-25390476D01*
X5421257Y-25571428D02*
X5430781Y-25580952D01*
X5421257Y-25590476D01*
X5411733Y-25580952D01*
X5421257Y-25571428D01*
X5421257Y-25590476D01*
X5554590Y-25390476D02*
X5573638Y-25390476D01*
X5592686Y-25400000D01*
X5602209Y-25409524D01*
X5611733Y-25428571D01*
X5621257Y-25466667D01*
X5621257Y-25514286D01*
X5611733Y-25552381D01*
X5602209Y-25571428D01*
X5592686Y-25580952D01*
X5573638Y-25590476D01*
X5554590Y-25590476D01*
X5535543Y-25580952D01*
X5526019Y-25571428D01*
X5516495Y-25552381D01*
X5506971Y-25514286D01*
X5506971Y-25466667D01*
X5516495Y-25428571D01*
X5526019Y-25409524D01*
X5535543Y-25400000D01*
X5554590Y-25390476D01*
X5792686Y-25457143D02*
X5792686Y-25590476D01*
X5745067Y-25380952D02*
X5697448Y-25523809D01*
X5821257Y-25523809D01*
X5878400Y-25390476D02*
X6011733Y-25390476D01*
X5926019Y-25590476D01*
X6078400Y-25409524D02*
X6087924Y-25400000D01*
X6106971Y-25390476D01*
X6154590Y-25390476D01*
X6173638Y-25400000D01*
X6183162Y-25409524D01*
X6192686Y-25428571D01*
X6192686Y-25447619D01*
X6183162Y-25476190D01*
X6068876Y-25590476D01*
X6192686Y-25590476D01*
X6268876Y-25390476D02*
X6268876Y-25428571D01*
X6345067Y-25390476D02*
X6345067Y-25428571D01*
X6640305Y-25666667D02*
X6630781Y-25657143D01*
X6611733Y-25628571D01*
X6602209Y-25609524D01*
X6592686Y-25580952D01*
X6583162Y-25533333D01*
X6583162Y-25495238D01*
X6592686Y-25447619D01*
X6602209Y-25419048D01*
X6611733Y-25400000D01*
X6630781Y-25371428D01*
X6640305Y-25361905D01*
X6726019Y-25590476D02*
X6764114Y-25590476D01*
X6783162Y-25580952D01*
X6792686Y-25571428D01*
X6811733Y-25542857D01*
X6821257Y-25504762D01*
X6821257Y-25428571D01*
X6811733Y-25409524D01*
X6802209Y-25400000D01*
X6783162Y-25390476D01*
X6745067Y-25390476D01*
X6726019Y-25400000D01*
X6716495Y-25409524D01*
X6706971Y-25428571D01*
X6706971Y-25476190D01*
X6716495Y-25495238D01*
X6726019Y-25504762D01*
X6745067Y-25514286D01*
X6783162Y-25514286D01*
X6802209Y-25504762D01*
X6811733Y-25495238D01*
X6821257Y-25476190D01*
X7059352Y-25590476D02*
X7059352Y-25390476D01*
X7145067Y-25590476D02*
X7145067Y-25485714D01*
X7135543Y-25466667D01*
X7116495Y-25457143D01*
X7087924Y-25457143D01*
X7068876Y-25466667D01*
X7059352Y-25476190D01*
X7268876Y-25590476D02*
X7249828Y-25580952D01*
X7240305Y-25571428D01*
X7230781Y-25552381D01*
X7230781Y-25495238D01*
X7240305Y-25476190D01*
X7249828Y-25466667D01*
X7268876Y-25457143D01*
X7297448Y-25457143D01*
X7316495Y-25466667D01*
X7326019Y-25476190D01*
X7335543Y-25495238D01*
X7335543Y-25552381D01*
X7326019Y-25571428D01*
X7316495Y-25580952D01*
X7297448Y-25590476D01*
X7268876Y-25590476D01*
X7449828Y-25590476D02*
X7430781Y-25580952D01*
X7421257Y-25561905D01*
X7421257Y-25390476D01*
X7602209Y-25580952D02*
X7583162Y-25590476D01*
X7545067Y-25590476D01*
X7526019Y-25580952D01*
X7516495Y-25561905D01*
X7516495Y-25485714D01*
X7526019Y-25466667D01*
X7545067Y-25457143D01*
X7583162Y-25457143D01*
X7602209Y-25466667D01*
X7611733Y-25485714D01*
X7611733Y-25504762D01*
X7516495Y-25523809D01*
X7687924Y-25580952D02*
X7706971Y-25590476D01*
X7745067Y-25590476D01*
X7764114Y-25580952D01*
X7773638Y-25561905D01*
X7773638Y-25552381D01*
X7764114Y-25533333D01*
X7745067Y-25523809D01*
X7716495Y-25523809D01*
X7697448Y-25514286D01*
X7687924Y-25495238D01*
X7687924Y-25485714D01*
X7697448Y-25466667D01*
X7716495Y-25457143D01*
X7745067Y-25457143D01*
X7764114Y-25466667D01*
X7840305Y-25666667D02*
X7849828Y-25657143D01*
X7868876Y-25628571D01*
X7878400Y-25609524D01*
X7887924Y-25580952D01*
X7897448Y-25533333D01*
X7897448Y-25495238D01*
X7887924Y-25447619D01*
X7878400Y-25419048D01*
X7868876Y-25400000D01*
X7849828Y-25371428D01*
X7840305Y-25361905D01*
D23*
X3043505Y-25824105D02*
X3043505Y-25703895D01*
X2923295Y-25703895D01*
X2923295Y-25824105D01*
X3043505Y-25824105D01*
X3068400Y-25764000D02*
G75*
G03*
X3068400Y-25764000I-85000J0D01*
G01*
D12*
X3430781Y-25854476D02*
X3316495Y-25854476D01*
X3373638Y-25854476D02*
X3373638Y-25654476D01*
X3354590Y-25683048D01*
X3335543Y-25702095D01*
X3316495Y-25711619D01*
X3516495Y-25835428D02*
X3526019Y-25844952D01*
X3516495Y-25854476D01*
X3506971Y-25844952D01*
X3516495Y-25835428D01*
X3516495Y-25854476D01*
X3592686Y-25654476D02*
X3726019Y-25654476D01*
X3640305Y-25854476D01*
X3840305Y-25654476D02*
X3859352Y-25654476D01*
X3878400Y-25664000D01*
X3887924Y-25673524D01*
X3897448Y-25692571D01*
X3906971Y-25730667D01*
X3906971Y-25778286D01*
X3897448Y-25816381D01*
X3887924Y-25835428D01*
X3878400Y-25844952D01*
X3859352Y-25854476D01*
X3840305Y-25854476D01*
X3821257Y-25844952D01*
X3811733Y-25835428D01*
X3802209Y-25816381D01*
X3792686Y-25778286D01*
X3792686Y-25730667D01*
X3802209Y-25692571D01*
X3811733Y-25673524D01*
X3821257Y-25664000D01*
X3840305Y-25654476D01*
X4030781Y-25654476D02*
X4049828Y-25654476D01*
X4068876Y-25664000D01*
X4078400Y-25673524D01*
X4087924Y-25692571D01*
X4097448Y-25730667D01*
X4097448Y-25778286D01*
X4087924Y-25816381D01*
X4078400Y-25835428D01*
X4068876Y-25844952D01*
X4049828Y-25854476D01*
X4030781Y-25854476D01*
X4011733Y-25844952D01*
X4002209Y-25835428D01*
X3992686Y-25816381D01*
X3983162Y-25778286D01*
X3983162Y-25730667D01*
X3992686Y-25692571D01*
X4002209Y-25673524D01*
X4011733Y-25664000D01*
X4030781Y-25654476D01*
X4183162Y-25854476D02*
X4183162Y-25721143D01*
X4183162Y-25740190D02*
X4192686Y-25730667D01*
X4211733Y-25721143D01*
X4240305Y-25721143D01*
X4259352Y-25730667D01*
X4268876Y-25749714D01*
X4268876Y-25854476D01*
X4268876Y-25749714D02*
X4278400Y-25730667D01*
X4297448Y-25721143D01*
X4326019Y-25721143D01*
X4345067Y-25730667D01*
X4354590Y-25749714D01*
X4354590Y-25854476D01*
X4449829Y-25854476D02*
X4449829Y-25721143D01*
X4449829Y-25740190D02*
X4459352Y-25730667D01*
X4478400Y-25721143D01*
X4506971Y-25721143D01*
X4526019Y-25730667D01*
X4535543Y-25749714D01*
X4535543Y-25854476D01*
X4535543Y-25749714D02*
X4545067Y-25730667D01*
X4564114Y-25721143D01*
X4592686Y-25721143D01*
X4611733Y-25730667D01*
X4621257Y-25749714D01*
X4621257Y-25854476D01*
X5011733Y-25644952D02*
X4840305Y-25902095D01*
X5268876Y-25654476D02*
X5287924Y-25654476D01*
X5306971Y-25664000D01*
X5316495Y-25673524D01*
X5326019Y-25692571D01*
X5335543Y-25730667D01*
X5335543Y-25778286D01*
X5326019Y-25816381D01*
X5316495Y-25835428D01*
X5306971Y-25844952D01*
X5287924Y-25854476D01*
X5268876Y-25854476D01*
X5249829Y-25844952D01*
X5240305Y-25835428D01*
X5230781Y-25816381D01*
X5221257Y-25778286D01*
X5221257Y-25730667D01*
X5230781Y-25692571D01*
X5240305Y-25673524D01*
X5249829Y-25664000D01*
X5268876Y-25654476D01*
X5421257Y-25835428D02*
X5430781Y-25844952D01*
X5421257Y-25854476D01*
X5411733Y-25844952D01*
X5421257Y-25835428D01*
X5421257Y-25854476D01*
X5554590Y-25654476D02*
X5573638Y-25654476D01*
X5592686Y-25664000D01*
X5602209Y-25673524D01*
X5611733Y-25692571D01*
X5621257Y-25730667D01*
X5621257Y-25778286D01*
X5611733Y-25816381D01*
X5602209Y-25835428D01*
X5592686Y-25844952D01*
X5573638Y-25854476D01*
X5554590Y-25854476D01*
X5535543Y-25844952D01*
X5526019Y-25835428D01*
X5516495Y-25816381D01*
X5506971Y-25778286D01*
X5506971Y-25730667D01*
X5516495Y-25692571D01*
X5526019Y-25673524D01*
X5535543Y-25664000D01*
X5554590Y-25654476D01*
X5792686Y-25654476D02*
X5754590Y-25654476D01*
X5735543Y-25664000D01*
X5726019Y-25673524D01*
X5706971Y-25702095D01*
X5697448Y-25740190D01*
X5697448Y-25816381D01*
X5706971Y-25835428D01*
X5716495Y-25844952D01*
X5735543Y-25854476D01*
X5773638Y-25854476D01*
X5792686Y-25844952D01*
X5802209Y-25835428D01*
X5811733Y-25816381D01*
X5811733Y-25768762D01*
X5802209Y-25749714D01*
X5792686Y-25740190D01*
X5773638Y-25730667D01*
X5735543Y-25730667D01*
X5716495Y-25740190D01*
X5706971Y-25749714D01*
X5697448Y-25768762D01*
X5983162Y-25654476D02*
X5945067Y-25654476D01*
X5926019Y-25664000D01*
X5916495Y-25673524D01*
X5897448Y-25702095D01*
X5887924Y-25740190D01*
X5887924Y-25816381D01*
X5897448Y-25835428D01*
X5906971Y-25844952D01*
X5926019Y-25854476D01*
X5964114Y-25854476D01*
X5983162Y-25844952D01*
X5992686Y-25835428D01*
X6002209Y-25816381D01*
X6002209Y-25768762D01*
X5992686Y-25749714D01*
X5983162Y-25740190D01*
X5964114Y-25730667D01*
X5926019Y-25730667D01*
X5906971Y-25740190D01*
X5897448Y-25749714D01*
X5887924Y-25768762D01*
X6097448Y-25854476D02*
X6135543Y-25854476D01*
X6154590Y-25844952D01*
X6164114Y-25835428D01*
X6183162Y-25806857D01*
X6192686Y-25768762D01*
X6192686Y-25692571D01*
X6183162Y-25673524D01*
X6173638Y-25664000D01*
X6154590Y-25654476D01*
X6116495Y-25654476D01*
X6097448Y-25664000D01*
X6087924Y-25673524D01*
X6078400Y-25692571D01*
X6078400Y-25740190D01*
X6087924Y-25759238D01*
X6097448Y-25768762D01*
X6116495Y-25778286D01*
X6154590Y-25778286D01*
X6173638Y-25768762D01*
X6183162Y-25759238D01*
X6192686Y-25740190D01*
X6268876Y-25654476D02*
X6268876Y-25692571D01*
X6345067Y-25654476D02*
X6345067Y-25692571D01*
X6640305Y-25930667D02*
X6630781Y-25921143D01*
X6611733Y-25892571D01*
X6602209Y-25873524D01*
X6592686Y-25844952D01*
X6583162Y-25797333D01*
X6583162Y-25759238D01*
X6592686Y-25711619D01*
X6602209Y-25683048D01*
X6611733Y-25664000D01*
X6630781Y-25635428D01*
X6640305Y-25625905D01*
X6821257Y-25854476D02*
X6706971Y-25854476D01*
X6764114Y-25854476D02*
X6764114Y-25654476D01*
X6745067Y-25683048D01*
X6726019Y-25702095D01*
X6706971Y-25711619D01*
X6897448Y-25673524D02*
X6906971Y-25664000D01*
X6926019Y-25654476D01*
X6973638Y-25654476D01*
X6992686Y-25664000D01*
X7002209Y-25673524D01*
X7011733Y-25692571D01*
X7011733Y-25711619D01*
X7002209Y-25740190D01*
X6887924Y-25854476D01*
X7011733Y-25854476D01*
X7249828Y-25854476D02*
X7249828Y-25654476D01*
X7335543Y-25854476D02*
X7335543Y-25749714D01*
X7326019Y-25730667D01*
X7306971Y-25721143D01*
X7278400Y-25721143D01*
X7259352Y-25730667D01*
X7249828Y-25740190D01*
X7459352Y-25854476D02*
X7440305Y-25844952D01*
X7430781Y-25835428D01*
X7421257Y-25816381D01*
X7421257Y-25759238D01*
X7430781Y-25740190D01*
X7440305Y-25730667D01*
X7459352Y-25721143D01*
X7487924Y-25721143D01*
X7506971Y-25730667D01*
X7516495Y-25740190D01*
X7526019Y-25759238D01*
X7526019Y-25816381D01*
X7516495Y-25835428D01*
X7506971Y-25844952D01*
X7487924Y-25854476D01*
X7459352Y-25854476D01*
X7640305Y-25854476D02*
X7621257Y-25844952D01*
X7611733Y-25825905D01*
X7611733Y-25654476D01*
X7792686Y-25844952D02*
X7773638Y-25854476D01*
X7735543Y-25854476D01*
X7716495Y-25844952D01*
X7706971Y-25825905D01*
X7706971Y-25749714D01*
X7716495Y-25730667D01*
X7735543Y-25721143D01*
X7773638Y-25721143D01*
X7792686Y-25730667D01*
X7802209Y-25749714D01*
X7802209Y-25768762D01*
X7706971Y-25787809D01*
X7878400Y-25844952D02*
X7897448Y-25854476D01*
X7935543Y-25854476D01*
X7954590Y-25844952D01*
X7964114Y-25825905D01*
X7964114Y-25816381D01*
X7954590Y-25797333D01*
X7935543Y-25787809D01*
X7906971Y-25787809D01*
X7887924Y-25778286D01*
X7878400Y-25759238D01*
X7878400Y-25749714D01*
X7887924Y-25730667D01*
X7906971Y-25721143D01*
X7935543Y-25721143D01*
X7954590Y-25730667D01*
X8030781Y-25930667D02*
X8040305Y-25921143D01*
X8059352Y-25892571D01*
X8068876Y-25873524D01*
X8078400Y-25844952D01*
X8087924Y-25797333D01*
X8087924Y-25759238D01*
X8078400Y-25711619D01*
X8068876Y-25683048D01*
X8059352Y-25664000D01*
X8040305Y-25635428D01*
X8030781Y-25625905D01*
X2968400Y-26154000D02*
X3068400Y-26054000D01*
X2968400Y-25954000D01*
X2868400Y-26054000D01*
X2968400Y-26154000D01*
X3068400Y-26054000D02*
G75*
G03*
X3068400Y-26054000I-100000J0D01*
G01*
X3306971Y-25944476D02*
X3430781Y-25944476D01*
X3364114Y-26020667D01*
X3392686Y-26020667D01*
X3411733Y-26030190D01*
X3421257Y-26039714D01*
X3430781Y-26058762D01*
X3430781Y-26106381D01*
X3421257Y-26125428D01*
X3411733Y-26134952D01*
X3392686Y-26144476D01*
X3335543Y-26144476D01*
X3316495Y-26134952D01*
X3306971Y-26125428D01*
X3516495Y-26125428D02*
X3526019Y-26134952D01*
X3516495Y-26144476D01*
X3506971Y-26134952D01*
X3516495Y-26125428D01*
X3516495Y-26144476D01*
X3649828Y-25944476D02*
X3668876Y-25944476D01*
X3687924Y-25954000D01*
X3697448Y-25963524D01*
X3706971Y-25982571D01*
X3716495Y-26020667D01*
X3716495Y-26068286D01*
X3706971Y-26106381D01*
X3697448Y-26125428D01*
X3687924Y-26134952D01*
X3668876Y-26144476D01*
X3649828Y-26144476D01*
X3630781Y-26134952D01*
X3621257Y-26125428D01*
X3611733Y-26106381D01*
X3602209Y-26068286D01*
X3602209Y-26020667D01*
X3611733Y-25982571D01*
X3621257Y-25963524D01*
X3630781Y-25954000D01*
X3649828Y-25944476D01*
X3840305Y-25944476D02*
X3859352Y-25944476D01*
X3878400Y-25954000D01*
X3887924Y-25963524D01*
X3897448Y-25982571D01*
X3906971Y-26020667D01*
X3906971Y-26068286D01*
X3897448Y-26106381D01*
X3887924Y-26125428D01*
X3878400Y-26134952D01*
X3859352Y-26144476D01*
X3840305Y-26144476D01*
X3821257Y-26134952D01*
X3811733Y-26125428D01*
X3802209Y-26106381D01*
X3792686Y-26068286D01*
X3792686Y-26020667D01*
X3802209Y-25982571D01*
X3811733Y-25963524D01*
X3821257Y-25954000D01*
X3840305Y-25944476D01*
X4030781Y-25944476D02*
X4049828Y-25944476D01*
X4068876Y-25954000D01*
X4078400Y-25963524D01*
X4087924Y-25982571D01*
X4097448Y-26020667D01*
X4097448Y-26068286D01*
X4087924Y-26106381D01*
X4078400Y-26125428D01*
X4068876Y-26134952D01*
X4049828Y-26144476D01*
X4030781Y-26144476D01*
X4011733Y-26134952D01*
X4002209Y-26125428D01*
X3992686Y-26106381D01*
X3983162Y-26068286D01*
X3983162Y-26020667D01*
X3992686Y-25982571D01*
X4002209Y-25963524D01*
X4011733Y-25954000D01*
X4030781Y-25944476D01*
X4183162Y-26144476D02*
X4183162Y-26011143D01*
X4183162Y-26030190D02*
X4192686Y-26020667D01*
X4211733Y-26011143D01*
X4240305Y-26011143D01*
X4259352Y-26020667D01*
X4268876Y-26039714D01*
X4268876Y-26144476D01*
X4268876Y-26039714D02*
X4278400Y-26020667D01*
X4297448Y-26011143D01*
X4326019Y-26011143D01*
X4345067Y-26020667D01*
X4354590Y-26039714D01*
X4354590Y-26144476D01*
X4449829Y-26144476D02*
X4449829Y-26011143D01*
X4449829Y-26030190D02*
X4459352Y-26020667D01*
X4478400Y-26011143D01*
X4506971Y-26011143D01*
X4526019Y-26020667D01*
X4535543Y-26039714D01*
X4535543Y-26144476D01*
X4535543Y-26039714D02*
X4545067Y-26020667D01*
X4564114Y-26011143D01*
X4592686Y-26011143D01*
X4611733Y-26020667D01*
X4621257Y-26039714D01*
X4621257Y-26144476D01*
X5011733Y-25934952D02*
X4840305Y-26192095D01*
X5268876Y-25944476D02*
X5287924Y-25944476D01*
X5306971Y-25954000D01*
X5316495Y-25963524D01*
X5326019Y-25982571D01*
X5335543Y-26020667D01*
X5335543Y-26068286D01*
X5326019Y-26106381D01*
X5316495Y-26125428D01*
X5306971Y-26134952D01*
X5287924Y-26144476D01*
X5268876Y-26144476D01*
X5249829Y-26134952D01*
X5240305Y-26125428D01*
X5230781Y-26106381D01*
X5221257Y-26068286D01*
X5221257Y-26020667D01*
X5230781Y-25982571D01*
X5240305Y-25963524D01*
X5249829Y-25954000D01*
X5268876Y-25944476D01*
X5421257Y-26125428D02*
X5430781Y-26134952D01*
X5421257Y-26144476D01*
X5411733Y-26134952D01*
X5421257Y-26125428D01*
X5421257Y-26144476D01*
X5621257Y-26144476D02*
X5506971Y-26144476D01*
X5564114Y-26144476D02*
X5564114Y-25944476D01*
X5545067Y-25973048D01*
X5526019Y-25992095D01*
X5506971Y-26001619D01*
X5811733Y-26144476D02*
X5697448Y-26144476D01*
X5754590Y-26144476D02*
X5754590Y-25944476D01*
X5735543Y-25973048D01*
X5716495Y-25992095D01*
X5697448Y-26001619D01*
X5926019Y-26030190D02*
X5906971Y-26020667D01*
X5897448Y-26011143D01*
X5887924Y-25992095D01*
X5887924Y-25982571D01*
X5897448Y-25963524D01*
X5906971Y-25954000D01*
X5926019Y-25944476D01*
X5964114Y-25944476D01*
X5983162Y-25954000D01*
X5992686Y-25963524D01*
X6002209Y-25982571D01*
X6002209Y-25992095D01*
X5992686Y-26011143D01*
X5983162Y-26020667D01*
X5964114Y-26030190D01*
X5926019Y-26030190D01*
X5906971Y-26039714D01*
X5897448Y-26049238D01*
X5887924Y-26068286D01*
X5887924Y-26106381D01*
X5897448Y-26125428D01*
X5906971Y-26134952D01*
X5926019Y-26144476D01*
X5964114Y-26144476D01*
X5983162Y-26134952D01*
X5992686Y-26125428D01*
X6002209Y-26106381D01*
X6002209Y-26068286D01*
X5992686Y-26049238D01*
X5983162Y-26039714D01*
X5964114Y-26030190D01*
X6192686Y-26144476D02*
X6078400Y-26144476D01*
X6135543Y-26144476D02*
X6135543Y-25944476D01*
X6116495Y-25973048D01*
X6097448Y-25992095D01*
X6078400Y-26001619D01*
X6268876Y-25944476D02*
X6268876Y-25982571D01*
X6345067Y-25944476D02*
X6345067Y-25982571D01*
X6640305Y-26220667D02*
X6630781Y-26211143D01*
X6611733Y-26182571D01*
X6602209Y-26163524D01*
X6592686Y-26134952D01*
X6583162Y-26087333D01*
X6583162Y-26049238D01*
X6592686Y-26001619D01*
X6602209Y-25973048D01*
X6611733Y-25954000D01*
X6630781Y-25925428D01*
X6640305Y-25915905D01*
X6802209Y-26011143D02*
X6802209Y-26144476D01*
X6754590Y-25934952D02*
X6706971Y-26077809D01*
X6830781Y-26077809D01*
X7059352Y-26144476D02*
X7059352Y-25944476D01*
X7145067Y-26144476D02*
X7145067Y-26039714D01*
X7135543Y-26020667D01*
X7116495Y-26011143D01*
X7087924Y-26011143D01*
X7068876Y-26020667D01*
X7059352Y-26030190D01*
X7268876Y-26144476D02*
X7249828Y-26134952D01*
X7240305Y-26125428D01*
X7230781Y-26106381D01*
X7230781Y-26049238D01*
X7240305Y-26030190D01*
X7249828Y-26020667D01*
X7268876Y-26011143D01*
X7297448Y-26011143D01*
X7316495Y-26020667D01*
X7326019Y-26030190D01*
X7335543Y-26049238D01*
X7335543Y-26106381D01*
X7326019Y-26125428D01*
X7316495Y-26134952D01*
X7297448Y-26144476D01*
X7268876Y-26144476D01*
X7449828Y-26144476D02*
X7430781Y-26134952D01*
X7421257Y-26115905D01*
X7421257Y-25944476D01*
X7602209Y-26134952D02*
X7583162Y-26144476D01*
X7545067Y-26144476D01*
X7526019Y-26134952D01*
X7516495Y-26115905D01*
X7516495Y-26039714D01*
X7526019Y-26020667D01*
X7545067Y-26011143D01*
X7583162Y-26011143D01*
X7602209Y-26020667D01*
X7611733Y-26039714D01*
X7611733Y-26058762D01*
X7516495Y-26077809D01*
X7687924Y-26134952D02*
X7706971Y-26144476D01*
X7745067Y-26144476D01*
X7764114Y-26134952D01*
X7773638Y-26115905D01*
X7773638Y-26106381D01*
X7764114Y-26087333D01*
X7745067Y-26077809D01*
X7716495Y-26077809D01*
X7697448Y-26068286D01*
X7687924Y-26049238D01*
X7687924Y-26039714D01*
X7697448Y-26020667D01*
X7716495Y-26011143D01*
X7745067Y-26011143D01*
X7764114Y-26020667D01*
X7840305Y-26220667D02*
X7849828Y-26211143D01*
X7868876Y-26182571D01*
X7878400Y-26163524D01*
X7887924Y-26134952D01*
X7897448Y-26087333D01*
X7897448Y-26049238D01*
X7887924Y-26001619D01*
X7878400Y-25973048D01*
X7868876Y-25954000D01*
X7849828Y-25925428D01*
X7840305Y-25915905D01*
X2968400Y-26274000D02*
X2968400Y-26474000D01*
X2868400Y-26374000D02*
X3068400Y-26374000D01*
X3039111Y-26444711D02*
X3039111Y-26303289D01*
X2897689Y-26303289D01*
X2897689Y-26444711D01*
X3039111Y-26444711D01*
X3306971Y-26264476D02*
X3430781Y-26264476D01*
X3364114Y-26340667D01*
X3392686Y-26340667D01*
X3411733Y-26350190D01*
X3421257Y-26359714D01*
X3430781Y-26378762D01*
X3430781Y-26426381D01*
X3421257Y-26445428D01*
X3411733Y-26454952D01*
X3392686Y-26464476D01*
X3335543Y-26464476D01*
X3316495Y-26454952D01*
X3306971Y-26445428D01*
X3516495Y-26445428D02*
X3526019Y-26454952D01*
X3516495Y-26464476D01*
X3506971Y-26454952D01*
X3516495Y-26445428D01*
X3516495Y-26464476D01*
X3649828Y-26264476D02*
X3668876Y-26264476D01*
X3687924Y-26274000D01*
X3697448Y-26283524D01*
X3706971Y-26302571D01*
X3716495Y-26340667D01*
X3716495Y-26388286D01*
X3706971Y-26426381D01*
X3697448Y-26445428D01*
X3687924Y-26454952D01*
X3668876Y-26464476D01*
X3649828Y-26464476D01*
X3630781Y-26454952D01*
X3621257Y-26445428D01*
X3611733Y-26426381D01*
X3602209Y-26388286D01*
X3602209Y-26340667D01*
X3611733Y-26302571D01*
X3621257Y-26283524D01*
X3630781Y-26274000D01*
X3649828Y-26264476D01*
X3887924Y-26331143D02*
X3887924Y-26464476D01*
X3840305Y-26254952D02*
X3792686Y-26397809D01*
X3916495Y-26397809D01*
X4021257Y-26350190D02*
X4002209Y-26340667D01*
X3992686Y-26331143D01*
X3983162Y-26312095D01*
X3983162Y-26302571D01*
X3992686Y-26283524D01*
X4002209Y-26274000D01*
X4021257Y-26264476D01*
X4059352Y-26264476D01*
X4078400Y-26274000D01*
X4087924Y-26283524D01*
X4097448Y-26302571D01*
X4097448Y-26312095D01*
X4087924Y-26331143D01*
X4078400Y-26340667D01*
X4059352Y-26350190D01*
X4021257Y-26350190D01*
X4002209Y-26359714D01*
X3992686Y-26369238D01*
X3983162Y-26388286D01*
X3983162Y-26426381D01*
X3992686Y-26445428D01*
X4002209Y-26454952D01*
X4021257Y-26464476D01*
X4059352Y-26464476D01*
X4078400Y-26454952D01*
X4087924Y-26445428D01*
X4097448Y-26426381D01*
X4097448Y-26388286D01*
X4087924Y-26369238D01*
X4078400Y-26359714D01*
X4059352Y-26350190D01*
X4183162Y-26464476D02*
X4183162Y-26331143D01*
X4183162Y-26350190D02*
X4192686Y-26340667D01*
X4211733Y-26331143D01*
X4240305Y-26331143D01*
X4259352Y-26340667D01*
X4268876Y-26359714D01*
X4268876Y-26464476D01*
X4268876Y-26359714D02*
X4278400Y-26340667D01*
X4297448Y-26331143D01*
X4326019Y-26331143D01*
X4345067Y-26340667D01*
X4354590Y-26359714D01*
X4354590Y-26464476D01*
X4449829Y-26464476D02*
X4449829Y-26331143D01*
X4449829Y-26350190D02*
X4459352Y-26340667D01*
X4478400Y-26331143D01*
X4506971Y-26331143D01*
X4526019Y-26340667D01*
X4535543Y-26359714D01*
X4535543Y-26464476D01*
X4535543Y-26359714D02*
X4545067Y-26340667D01*
X4564114Y-26331143D01*
X4592686Y-26331143D01*
X4611733Y-26340667D01*
X4621257Y-26359714D01*
X4621257Y-26464476D01*
X5011733Y-26254952D02*
X4840305Y-26512095D01*
X5268876Y-26264476D02*
X5287924Y-26264476D01*
X5306971Y-26274000D01*
X5316495Y-26283524D01*
X5326019Y-26302571D01*
X5335543Y-26340667D01*
X5335543Y-26388286D01*
X5326019Y-26426381D01*
X5316495Y-26445428D01*
X5306971Y-26454952D01*
X5287924Y-26464476D01*
X5268876Y-26464476D01*
X5249829Y-26454952D01*
X5240305Y-26445428D01*
X5230781Y-26426381D01*
X5221257Y-26388286D01*
X5221257Y-26340667D01*
X5230781Y-26302571D01*
X5240305Y-26283524D01*
X5249829Y-26274000D01*
X5268876Y-26264476D01*
X5421257Y-26445428D02*
X5430781Y-26454952D01*
X5421257Y-26464476D01*
X5411733Y-26454952D01*
X5421257Y-26445428D01*
X5421257Y-26464476D01*
X5621257Y-26464476D02*
X5506971Y-26464476D01*
X5564114Y-26464476D02*
X5564114Y-26264476D01*
X5545067Y-26293048D01*
X5526019Y-26312095D01*
X5506971Y-26321619D01*
X5697448Y-26283524D02*
X5706971Y-26274000D01*
X5726019Y-26264476D01*
X5773638Y-26264476D01*
X5792686Y-26274000D01*
X5802209Y-26283524D01*
X5811733Y-26302571D01*
X5811733Y-26321619D01*
X5802209Y-26350190D01*
X5687924Y-26464476D01*
X5811733Y-26464476D01*
X5935543Y-26264476D02*
X5954590Y-26264476D01*
X5973638Y-26274000D01*
X5983162Y-26283524D01*
X5992686Y-26302571D01*
X6002209Y-26340667D01*
X6002209Y-26388286D01*
X5992686Y-26426381D01*
X5983162Y-26445428D01*
X5973638Y-26454952D01*
X5954590Y-26464476D01*
X5935543Y-26464476D01*
X5916495Y-26454952D01*
X5906971Y-26445428D01*
X5897448Y-26426381D01*
X5887924Y-26388286D01*
X5887924Y-26340667D01*
X5897448Y-26302571D01*
X5906971Y-26283524D01*
X5916495Y-26274000D01*
X5935543Y-26264476D01*
X6126019Y-26264476D02*
X6145067Y-26264476D01*
X6164114Y-26274000D01*
X6173638Y-26283524D01*
X6183162Y-26302571D01*
X6192686Y-26340667D01*
X6192686Y-26388286D01*
X6183162Y-26426381D01*
X6173638Y-26445428D01*
X6164114Y-26454952D01*
X6145067Y-26464476D01*
X6126019Y-26464476D01*
X6106971Y-26454952D01*
X6097448Y-26445428D01*
X6087924Y-26426381D01*
X6078400Y-26388286D01*
X6078400Y-26340667D01*
X6087924Y-26302571D01*
X6097448Y-26283524D01*
X6106971Y-26274000D01*
X6126019Y-26264476D01*
X6268876Y-26264476D02*
X6268876Y-26302571D01*
X6345067Y-26264476D02*
X6345067Y-26302571D01*
X6640305Y-26540667D02*
X6630781Y-26531143D01*
X6611733Y-26502571D01*
X6602209Y-26483524D01*
X6592686Y-26454952D01*
X6583162Y-26407333D01*
X6583162Y-26369238D01*
X6592686Y-26321619D01*
X6602209Y-26293048D01*
X6611733Y-26274000D01*
X6630781Y-26245428D01*
X6640305Y-26235905D01*
X6706971Y-26283524D02*
X6716495Y-26274000D01*
X6735543Y-26264476D01*
X6783162Y-26264476D01*
X6802209Y-26274000D01*
X6811733Y-26283524D01*
X6821257Y-26302571D01*
X6821257Y-26321619D01*
X6811733Y-26350190D01*
X6697448Y-26464476D01*
X6821257Y-26464476D01*
X7002209Y-26264476D02*
X6906971Y-26264476D01*
X6897448Y-26359714D01*
X6906971Y-26350190D01*
X6926019Y-26340667D01*
X6973638Y-26340667D01*
X6992686Y-26350190D01*
X7002209Y-26359714D01*
X7011733Y-26378762D01*
X7011733Y-26426381D01*
X7002209Y-26445428D01*
X6992686Y-26454952D01*
X6973638Y-26464476D01*
X6926019Y-26464476D01*
X6906971Y-26454952D01*
X6897448Y-26445428D01*
X7183162Y-26331143D02*
X7183162Y-26464476D01*
X7135543Y-26254952D02*
X7087924Y-26397809D01*
X7211733Y-26397809D01*
X7440305Y-26464476D02*
X7440305Y-26264476D01*
X7526019Y-26464476D02*
X7526019Y-26359714D01*
X7516495Y-26340667D01*
X7497448Y-26331143D01*
X7468876Y-26331143D01*
X7449828Y-26340667D01*
X7440305Y-26350190D01*
X7649828Y-26464476D02*
X7630781Y-26454952D01*
X7621257Y-26445428D01*
X7611733Y-26426381D01*
X7611733Y-26369238D01*
X7621257Y-26350190D01*
X7630781Y-26340667D01*
X7649828Y-26331143D01*
X7678400Y-26331143D01*
X7697448Y-26340667D01*
X7706971Y-26350190D01*
X7716495Y-26369238D01*
X7716495Y-26426381D01*
X7706971Y-26445428D01*
X7697448Y-26454952D01*
X7678400Y-26464476D01*
X7649828Y-26464476D01*
X7830781Y-26464476D02*
X7811733Y-26454952D01*
X7802209Y-26435905D01*
X7802209Y-26264476D01*
X7983162Y-26454952D02*
X7964114Y-26464476D01*
X7926019Y-26464476D01*
X7906971Y-26454952D01*
X7897448Y-26435905D01*
X7897448Y-26359714D01*
X7906971Y-26340667D01*
X7926019Y-26331143D01*
X7964114Y-26331143D01*
X7983162Y-26340667D01*
X7992686Y-26359714D01*
X7992686Y-26378762D01*
X7897448Y-26397809D01*
X8068876Y-26454952D02*
X8087924Y-26464476D01*
X8126019Y-26464476D01*
X8145067Y-26454952D01*
X8154590Y-26435905D01*
X8154590Y-26426381D01*
X8145067Y-26407333D01*
X8126019Y-26397809D01*
X8097448Y-26397809D01*
X8078400Y-26388286D01*
X8068876Y-26369238D01*
X8068876Y-26359714D01*
X8078400Y-26340667D01*
X8097448Y-26331143D01*
X8126019Y-26331143D01*
X8145067Y-26340667D01*
X8221257Y-26540667D02*
X8230781Y-26531143D01*
X8249828Y-26502571D01*
X8259352Y-26483524D01*
X8268876Y-26454952D01*
X8278400Y-26407333D01*
X8278400Y-26369238D01*
X8268876Y-26321619D01*
X8259352Y-26293048D01*
X8249828Y-26274000D01*
X8230781Y-26245428D01*
X8221257Y-26235905D01*
X2968400Y-26594000D02*
X2968400Y-26794000D01*
X2868400Y-26694000D02*
X3068400Y-26694000D01*
X2968400Y-26794000D02*
X3068400Y-26694000D01*
X2968400Y-26594000D01*
X2868400Y-26694000D01*
X2968400Y-26794000D01*
X3306971Y-26584476D02*
X3430781Y-26584476D01*
X3364114Y-26660667D01*
X3392686Y-26660667D01*
X3411733Y-26670190D01*
X3421257Y-26679714D01*
X3430781Y-26698762D01*
X3430781Y-26746381D01*
X3421257Y-26765428D01*
X3411733Y-26774952D01*
X3392686Y-26784476D01*
X3335543Y-26784476D01*
X3316495Y-26774952D01*
X3306971Y-26765428D01*
X3516495Y-26765428D02*
X3526019Y-26774952D01*
X3516495Y-26784476D01*
X3506971Y-26774952D01*
X3516495Y-26765428D01*
X3516495Y-26784476D01*
X3706971Y-26584476D02*
X3611733Y-26584476D01*
X3602209Y-26679714D01*
X3611733Y-26670190D01*
X3630781Y-26660667D01*
X3678400Y-26660667D01*
X3697448Y-26670190D01*
X3706971Y-26679714D01*
X3716495Y-26698762D01*
X3716495Y-26746381D01*
X3706971Y-26765428D01*
X3697448Y-26774952D01*
X3678400Y-26784476D01*
X3630781Y-26784476D01*
X3611733Y-26774952D01*
X3602209Y-26765428D01*
X3840305Y-26584476D02*
X3859352Y-26584476D01*
X3878400Y-26594000D01*
X3887924Y-26603524D01*
X3897448Y-26622571D01*
X3906971Y-26660667D01*
X3906971Y-26708286D01*
X3897448Y-26746381D01*
X3887924Y-26765428D01*
X3878400Y-26774952D01*
X3859352Y-26784476D01*
X3840305Y-26784476D01*
X3821257Y-26774952D01*
X3811733Y-26765428D01*
X3802209Y-26746381D01*
X3792686Y-26708286D01*
X3792686Y-26660667D01*
X3802209Y-26622571D01*
X3811733Y-26603524D01*
X3821257Y-26594000D01*
X3840305Y-26584476D01*
X4030781Y-26584476D02*
X4049828Y-26584476D01*
X4068876Y-26594000D01*
X4078400Y-26603524D01*
X4087924Y-26622571D01*
X4097448Y-26660667D01*
X4097448Y-26708286D01*
X4087924Y-26746381D01*
X4078400Y-26765428D01*
X4068876Y-26774952D01*
X4049828Y-26784476D01*
X4030781Y-26784476D01*
X4011733Y-26774952D01*
X4002209Y-26765428D01*
X3992686Y-26746381D01*
X3983162Y-26708286D01*
X3983162Y-26660667D01*
X3992686Y-26622571D01*
X4002209Y-26603524D01*
X4011733Y-26594000D01*
X4030781Y-26584476D01*
X4183162Y-26784476D02*
X4183162Y-26651143D01*
X4183162Y-26670190D02*
X4192686Y-26660667D01*
X4211733Y-26651143D01*
X4240305Y-26651143D01*
X4259352Y-26660667D01*
X4268876Y-26679714D01*
X4268876Y-26784476D01*
X4268876Y-26679714D02*
X4278400Y-26660667D01*
X4297448Y-26651143D01*
X4326019Y-26651143D01*
X4345067Y-26660667D01*
X4354590Y-26679714D01*
X4354590Y-26784476D01*
X4449829Y-26784476D02*
X4449829Y-26651143D01*
X4449829Y-26670190D02*
X4459352Y-26660667D01*
X4478400Y-26651143D01*
X4506971Y-26651143D01*
X4526019Y-26660667D01*
X4535543Y-26679714D01*
X4535543Y-26784476D01*
X4535543Y-26679714D02*
X4545067Y-26660667D01*
X4564114Y-26651143D01*
X4592686Y-26651143D01*
X4611733Y-26660667D01*
X4621257Y-26679714D01*
X4621257Y-26784476D01*
X5011733Y-26574952D02*
X4840305Y-26832095D01*
X5268876Y-26584476D02*
X5287924Y-26584476D01*
X5306971Y-26594000D01*
X5316495Y-26603524D01*
X5326019Y-26622571D01*
X5335543Y-26660667D01*
X5335543Y-26708286D01*
X5326019Y-26746381D01*
X5316495Y-26765428D01*
X5306971Y-26774952D01*
X5287924Y-26784476D01*
X5268876Y-26784476D01*
X5249829Y-26774952D01*
X5240305Y-26765428D01*
X5230781Y-26746381D01*
X5221257Y-26708286D01*
X5221257Y-26660667D01*
X5230781Y-26622571D01*
X5240305Y-26603524D01*
X5249829Y-26594000D01*
X5268876Y-26584476D01*
X5421257Y-26765428D02*
X5430781Y-26774952D01*
X5421257Y-26784476D01*
X5411733Y-26774952D01*
X5421257Y-26765428D01*
X5421257Y-26784476D01*
X5621257Y-26784476D02*
X5506971Y-26784476D01*
X5564114Y-26784476D02*
X5564114Y-26584476D01*
X5545067Y-26613048D01*
X5526019Y-26632095D01*
X5506971Y-26641619D01*
X5687924Y-26584476D02*
X5811733Y-26584476D01*
X5745067Y-26660667D01*
X5773638Y-26660667D01*
X5792686Y-26670190D01*
X5802209Y-26679714D01*
X5811733Y-26698762D01*
X5811733Y-26746381D01*
X5802209Y-26765428D01*
X5792686Y-26774952D01*
X5773638Y-26784476D01*
X5716495Y-26784476D01*
X5697448Y-26774952D01*
X5687924Y-26765428D01*
X5878400Y-26584476D02*
X6011733Y-26584476D01*
X5926019Y-26784476D01*
X6116495Y-26670190D02*
X6097448Y-26660667D01*
X6087924Y-26651143D01*
X6078400Y-26632095D01*
X6078400Y-26622571D01*
X6087924Y-26603524D01*
X6097448Y-26594000D01*
X6116495Y-26584476D01*
X6154590Y-26584476D01*
X6173638Y-26594000D01*
X6183162Y-26603524D01*
X6192686Y-26622571D01*
X6192686Y-26632095D01*
X6183162Y-26651143D01*
X6173638Y-26660667D01*
X6154590Y-26670190D01*
X6116495Y-26670190D01*
X6097448Y-26679714D01*
X6087924Y-26689238D01*
X6078400Y-26708286D01*
X6078400Y-26746381D01*
X6087924Y-26765428D01*
X6097448Y-26774952D01*
X6116495Y-26784476D01*
X6154590Y-26784476D01*
X6173638Y-26774952D01*
X6183162Y-26765428D01*
X6192686Y-26746381D01*
X6192686Y-26708286D01*
X6183162Y-26689238D01*
X6173638Y-26679714D01*
X6154590Y-26670190D01*
X6268876Y-26584476D02*
X6268876Y-26622571D01*
X6345067Y-26584476D02*
X6345067Y-26622571D01*
X6640305Y-26860667D02*
X6630781Y-26851143D01*
X6611733Y-26822571D01*
X6602209Y-26803524D01*
X6592686Y-26774952D01*
X6583162Y-26727333D01*
X6583162Y-26689238D01*
X6592686Y-26641619D01*
X6602209Y-26613048D01*
X6611733Y-26594000D01*
X6630781Y-26565428D01*
X6640305Y-26555905D01*
X6821257Y-26784476D02*
X6706971Y-26784476D01*
X6764114Y-26784476D02*
X6764114Y-26584476D01*
X6745067Y-26613048D01*
X6726019Y-26632095D01*
X6706971Y-26641619D01*
X7059352Y-26784476D02*
X7059352Y-26584476D01*
X7145067Y-26784476D02*
X7145067Y-26679714D01*
X7135543Y-26660667D01*
X7116495Y-26651143D01*
X7087924Y-26651143D01*
X7068876Y-26660667D01*
X7059352Y-26670190D01*
X7268876Y-26784476D02*
X7249828Y-26774952D01*
X7240305Y-26765428D01*
X7230781Y-26746381D01*
X7230781Y-26689238D01*
X7240305Y-26670190D01*
X7249828Y-26660667D01*
X7268876Y-26651143D01*
X7297448Y-26651143D01*
X7316495Y-26660667D01*
X7326019Y-26670190D01*
X7335543Y-26689238D01*
X7335543Y-26746381D01*
X7326019Y-26765428D01*
X7316495Y-26774952D01*
X7297448Y-26784476D01*
X7268876Y-26784476D01*
X7449828Y-26784476D02*
X7430781Y-26774952D01*
X7421257Y-26755905D01*
X7421257Y-26584476D01*
X7602209Y-26774952D02*
X7583162Y-26784476D01*
X7545067Y-26784476D01*
X7526019Y-26774952D01*
X7516495Y-26755905D01*
X7516495Y-26679714D01*
X7526019Y-26660667D01*
X7545067Y-26651143D01*
X7583162Y-26651143D01*
X7602209Y-26660667D01*
X7611733Y-26679714D01*
X7611733Y-26698762D01*
X7516495Y-26717809D01*
X7678400Y-26860667D02*
X7687924Y-26851143D01*
X7706971Y-26822571D01*
X7716495Y-26803524D01*
X7726019Y-26774952D01*
X7735543Y-26727333D01*
X7735543Y-26689238D01*
X7726019Y-26641619D01*
X7716495Y-26613048D01*
X7706971Y-26594000D01*
X7687924Y-26565428D01*
X7678400Y-26555905D01*
M02*
