G04 #@! TF.GenerationSoftware,KiCad,Pcbnew,(6.0.0-rc1-458-g78ff9a857a)*
G04 #@! TF.CreationDate,2022-12-03T17:01:27+01:00*
G04 #@! TF.ProjectId,berlin,6265726c-696e-42e6-9b69-6361645f7063,rev?*
G04 #@! TF.SameCoordinates,Original*
G04 #@! TF.FileFunction,Soldermask,Bot*
G04 #@! TF.FilePolarity,Negative*
%FSLAX46Y46*%
G04 Gerber Fmt 4.6, Leading zero omitted, Abs format (unit mm)*
G04 Created by KiCad (PCBNEW (6.0.0-rc1-458-g78ff9a857a)) date 2022-12-03 17:01:27*
%MOMM*%
%LPD*%
G01*
G04 APERTURE LIST*
G04 Aperture macros list*
%AMRoundRect*
0 Rectangle with rounded corners*
0 $1 Rounding radius*
0 $2 $3 $4 $5 $6 $7 $8 $9 X,Y pos of 4 corners*
0 Add a 4 corners polygon primitive as box body*
4,1,4,$2,$3,$4,$5,$6,$7,$8,$9,$2,$3,0*
0 Add four circle primitives for the rounded corners*
1,1,$1+$1,$2,$3*
1,1,$1+$1,$4,$5*
1,1,$1+$1,$6,$7*
1,1,$1+$1,$8,$9*
0 Add four rect primitives between the rounded corners*
20,1,$1+$1,$2,$3,$4,$5,0*
20,1,$1+$1,$4,$5,$6,$7,0*
20,1,$1+$1,$6,$7,$8,$9,0*
20,1,$1+$1,$8,$9,$2,$3,0*%
%AMFreePoly0*
4,1,30,0.664142,0.394142,0.670000,0.380000,0.664142,0.365858,0.650000,0.360000,0.639861,0.360000,0.636174,0.352626,0.643308,0.342871,0.640962,0.327744,0.637044,0.324879,0.548044,0.163025,0.471752,-0.010109,0.410918,-0.189260,0.367074,-0.368691,0.368024,-0.373451,0.364365,-0.378933,0.365871,-0.382599,0.359972,-0.396724,0.345813,-0.402541,-0.525058,-0.400000,-0.532122,-0.397050,
-0.539142,-0.394142,-0.539154,-0.394113,-0.539183,-0.394101,-0.542091,-0.387023,-0.545000,-0.380000,-0.545000,0.380000,-0.539142,0.394142,-0.525000,0.400000,0.650000,0.400000,0.664142,0.394142,0.664142,0.394142,$1*%
%AMFreePoly1*
4,1,31,0.359972,0.396724,0.365871,0.382599,0.360054,0.368440,0.348994,0.363821,0.350274,0.359338,0.350354,0.359393,0.365405,0.356608,0.374080,0.343995,0.373172,0.339090,0.419762,0.159498,0.483525,-0.019642,0.562810,-0.192474,0.654715,-0.353649,0.658787,-0.356530,0.660097,-0.364182,0.664142,-0.365858,0.670000,-0.380000,0.664142,-0.394142,0.650000,-0.400000,-0.525000,-0.400000,
-0.539142,-0.394142,-0.545000,-0.380000,-0.545000,0.380000,-0.542091,0.387023,-0.539183,0.394101,-0.539154,0.394113,-0.539142,0.394142,-0.532122,0.397050,-0.525058,0.400000,0.345813,0.402541,0.359972,0.396724,0.359972,0.396724,$1*%
%AMFreePoly2*
4,1,34,0.575001,0.424979,0.592678,0.417657,0.600000,0.399978,0.592678,0.382301,0.574999,0.374979,0.559851,0.374979,0.558503,0.372284,0.559452,0.372161,0.571134,0.357007,0.568678,0.338031,0.564708,0.334970,0.476371,0.164622,0.401213,-0.016966,0.341921,-0.204335,0.299948,-0.391580,0.301018,-0.396477,0.299513,-0.398824,0.300000,-0.400000,0.292678,-0.417678,0.275000,-0.425000,
-0.200000,-0.425000,-0.319736,-0.407785,-0.429772,-0.357533,-0.521194,-0.278316,-0.586594,-0.176551,-0.620674,-0.060484,-0.620674,0.060484,-0.586594,0.176551,-0.521194,0.278316,-0.429772,0.357533,-0.319736,0.407785,-0.200000,0.425000,-0.199999,0.425000,0.575001,0.424979,0.575001,0.424979,$1*%
G04 Aperture macros list end*
%ADD10C,4.250000*%
%ADD11FreePoly0,180.000000*%
%ADD12FreePoly1,180.000000*%
%ADD13FreePoly2,0.000000*%
%ADD14FreePoly1,0.000000*%
%ADD15FreePoly0,0.000000*%
%ADD16FreePoly2,180.000000*%
%ADD17C,0.889000*%
%ADD18C,1.800000*%
%ADD19R,2.000000X2.000000*%
%ADD20C,2.000000*%
%ADD21R,4.000000X3.000000*%
%ADD22R,3.000000X4.000000*%
%ADD23FreePoly0,90.000000*%
%ADD24FreePoly1,90.000000*%
%ADD25FreePoly2,270.000000*%
%ADD26FreePoly1,270.000000*%
%ADD27C,1.596000*%
%ADD28R,1.750000X1.750000*%
%ADD29C,1.750000*%
%ADD30C,2.700000*%
%ADD31FreePoly0,270.000000*%
%ADD32FreePoly2,90.000000*%
%ADD33C,0.800000*%
%ADD34C,7.000000*%
%ADD35R,1.524000X1.524000*%
%ADD36O,1.524000X1.524000*%
%ADD37RoundRect,0.250000X-0.350000X0.250000X-0.350000X-0.250000X0.350000X-0.250000X0.350000X0.250000X0*%
%ADD38C,3.600000*%
%ADD39C,1.701800*%
%ADD40C,3.987800*%
%ADD41RoundRect,0.254000X1.016000X1.016000X-1.016000X1.016000X-1.016000X-1.016000X1.016000X-1.016000X0*%
%ADD42RoundRect,0.250000X0.450000X-0.350000X0.450000X0.350000X-0.450000X0.350000X-0.450000X-0.350000X0*%
%ADD43RoundRect,0.250000X-0.450000X0.350000X-0.450000X-0.350000X0.450000X-0.350000X0.450000X0.350000X0*%
%ADD44RoundRect,0.250000X1.450000X-0.400000X1.450000X0.400000X-1.450000X0.400000X-1.450000X-0.400000X0*%
%ADD45RoundRect,0.250000X0.475000X-0.337500X0.475000X0.337500X-0.475000X0.337500X-0.475000X-0.337500X0*%
%ADD46RoundRect,0.250000X-0.475000X0.337500X-0.475000X-0.337500X0.475000X-0.337500X0.475000X0.337500X0*%
%ADD47R,1.487399X0.431000*%
%ADD48C,3.048000*%
%ADD49RoundRect,0.254000X1.016000X-1.016000X1.016000X1.016000X-1.016000X1.016000X-1.016000X-1.016000X0*%
%ADD50RoundRect,0.250000X-0.412500X-0.650000X0.412500X-0.650000X0.412500X0.650000X-0.412500X0.650000X0*%
%ADD51RoundRect,0.250000X0.650000X-0.412500X0.650000X0.412500X-0.650000X0.412500X-0.650000X-0.412500X0*%
%ADD52R,1.560000X0.650000*%
%ADD53C,0.650000*%
%ADD54RoundRect,0.150000X-0.150000X-0.575000X0.150000X-0.575000X0.150000X0.575000X-0.150000X0.575000X0*%
%ADD55RoundRect,0.075000X-0.075000X-0.650000X0.075000X-0.650000X0.075000X0.650000X-0.075000X0.650000X0*%
%ADD56O,1.100000X2.200000*%
%ADD57O,1.300000X1.900000*%
%ADD58RoundRect,0.250000X0.325000X0.450000X-0.325000X0.450000X-0.325000X-0.450000X0.325000X-0.450000X0*%
%ADD59RoundRect,0.250000X-0.350000X-0.450000X0.350000X-0.450000X0.350000X0.450000X-0.350000X0.450000X0*%
%ADD60RoundRect,0.250000X0.250000X0.350000X-0.250000X0.350000X-0.250000X-0.350000X0.250000X-0.350000X0*%
%ADD61R,0.650000X1.060000*%
%ADD62RoundRect,0.325000X0.000000X0.205000X0.000000X-0.205000X0.000000X-0.205000X0.000000X0.205000X0*%
%ADD63R,1.193800X0.304800*%
%ADD64R,0.304800X1.193800*%
%ADD65RoundRect,0.250000X0.350000X-0.250000X0.350000X0.250000X-0.350000X0.250000X-0.350000X-0.250000X0*%
%ADD66R,3.500000X2.350000*%
%ADD67R,0.650000X2.000000*%
%ADD68RoundRect,0.250000X-0.337500X-0.475000X0.337500X-0.475000X0.337500X0.475000X-0.337500X0.475000X0*%
%ADD69RoundRect,0.150000X-0.150000X0.587500X-0.150000X-0.587500X0.150000X-0.587500X0.150000X0.587500X0*%
%ADD70RoundRect,0.250000X0.350000X0.450000X-0.350000X0.450000X-0.350000X-0.450000X0.350000X-0.450000X0*%
%ADD71RoundRect,0.250000X0.337500X0.475000X-0.337500X0.475000X-0.337500X-0.475000X0.337500X-0.475000X0*%
%ADD72C,1.600000*%
%ADD73O,1.600000X1.600000*%
%ADD74R,0.610000X2.000000*%
%ADD75R,2.680000X3.600000*%
%ADD76RoundRect,0.250000X0.412500X0.650000X-0.412500X0.650000X-0.412500X-0.650000X0.412500X-0.650000X0*%
%ADD77RoundRect,0.250000X-0.450000X0.325000X-0.450000X-0.325000X0.450000X-0.325000X0.450000X0.325000X0*%
%ADD78RoundRect,0.250000X-0.250000X-0.350000X0.250000X-0.350000X0.250000X0.350000X-0.250000X0.350000X0*%
%ADD79C,1.000000*%
%ADD80C,1.200000*%
G04 APERTURE END LIST*
D10*
X231737500Y-141590500D03*
D11*
X234404500Y-142390500D03*
D12*
X234379100Y-140790500D03*
D13*
X229172100Y-140790500D03*
D14*
X229095900Y-142390500D03*
D10*
X60287500Y-141605000D03*
D11*
X62954500Y-142405000D03*
D12*
X62929100Y-140805000D03*
D13*
X57722100Y-140805000D03*
D14*
X57645900Y-142405000D03*
D10*
X126800000Y-217800000D03*
D11*
X129467000Y-218600000D03*
D12*
X129441600Y-217000000D03*
D13*
X124234600Y-217000000D03*
D14*
X124158400Y-218600000D03*
D10*
X250787500Y-113015500D03*
D15*
X248120500Y-112215500D03*
D14*
X248145900Y-113815500D03*
D16*
X253352900Y-113815500D03*
D12*
X253429100Y-112215500D03*
D10*
X136487500Y-141590500D03*
D11*
X139154500Y-142390500D03*
D12*
X139129100Y-140790500D03*
D13*
X133922100Y-140790500D03*
D14*
X133845900Y-142390500D03*
D10*
X198500000Y-113250000D03*
D15*
X195833000Y-112450000D03*
D14*
X195858400Y-114050000D03*
D16*
X201065400Y-114050000D03*
D12*
X201141600Y-112450000D03*
D10*
X67399500Y-217790500D03*
D11*
X70066500Y-218590500D03*
D12*
X70041100Y-216990500D03*
D13*
X64834100Y-216990500D03*
D14*
X64757900Y-218590500D03*
D10*
X179540500Y-94092500D03*
D11*
X182207500Y-94892500D03*
D12*
X182182100Y-93292500D03*
D13*
X176975100Y-93292500D03*
D14*
X176898900Y-94892500D03*
D10*
X69850000Y-93980000D03*
D11*
X72517000Y-94780000D03*
D12*
X72491600Y-93180000D03*
D13*
X67284600Y-93180000D03*
D14*
X67208400Y-94780000D03*
D17*
X297730000Y-61200000D03*
X300270000Y-61200000D03*
D10*
X184112500Y-160640500D03*
D15*
X181445500Y-159840500D03*
D14*
X181470900Y-161440500D03*
D16*
X186677900Y-161440500D03*
D12*
X186754100Y-159840500D03*
D10*
X246088500Y-179690500D03*
D11*
X248755500Y-180490500D03*
D12*
X248730100Y-178890500D03*
D13*
X243523100Y-178890500D03*
D14*
X243446900Y-180490500D03*
D10*
X160490500Y-94092500D03*
D11*
X163157500Y-94892500D03*
D12*
X163132100Y-93292500D03*
D13*
X157925100Y-93292500D03*
D14*
X157848900Y-94892500D03*
D18*
X376947000Y-65850000D03*
D19*
X362447000Y-67350000D03*
D20*
X362447000Y-72350000D03*
D18*
X376947000Y-67850000D03*
D20*
X362447000Y-69850000D03*
D18*
X376947000Y-71850000D03*
D21*
X369947000Y-62250000D03*
X369947000Y-77450000D03*
D18*
X376947000Y-73850000D03*
X376947000Y-69850000D03*
D10*
X198500000Y-217800000D03*
D11*
X201167000Y-218600000D03*
D12*
X201141600Y-217000000D03*
D13*
X195934600Y-217000000D03*
D14*
X195858400Y-218600000D03*
D10*
X126962500Y-160640500D03*
D15*
X124295500Y-159840500D03*
D14*
X124320900Y-161440500D03*
D16*
X129527900Y-161440500D03*
D12*
X129604100Y-159840500D03*
D10*
X155537500Y-141590500D03*
D11*
X158204500Y-142390500D03*
D12*
X158179100Y-140790500D03*
D13*
X152972100Y-140790500D03*
D14*
X152895900Y-142390500D03*
D10*
X162776500Y-217790500D03*
D11*
X165443500Y-218590500D03*
D12*
X165418100Y-216990500D03*
D13*
X160211100Y-216990500D03*
D14*
X160134900Y-218590500D03*
D10*
X331813500Y-160640500D03*
D11*
X334480500Y-161440500D03*
D12*
X334455100Y-159840500D03*
D13*
X329248100Y-159840500D03*
D14*
X329171900Y-161440500D03*
D10*
X198463500Y-198740500D03*
D15*
X195796500Y-197940500D03*
D14*
X195821900Y-199540500D03*
D16*
X201028900Y-199540500D03*
D12*
X201105100Y-197940500D03*
D10*
X250787500Y-93965500D03*
D11*
X253454500Y-94765500D03*
D12*
X253429100Y-93165500D03*
D13*
X248222100Y-93165500D03*
D14*
X248145900Y-94765500D03*
D10*
X207988500Y-179690500D03*
D11*
X210655500Y-180490500D03*
D12*
X210630100Y-178890500D03*
D13*
X205423100Y-178890500D03*
D14*
X205346900Y-180490500D03*
D10*
X393662500Y-141590500D03*
D11*
X396329500Y-142390500D03*
D12*
X396304100Y-140790500D03*
D13*
X391097100Y-140790500D03*
D14*
X391020900Y-142390500D03*
D10*
X74638500Y-179690500D03*
D11*
X77305500Y-180490500D03*
D12*
X77280100Y-178890500D03*
D13*
X72073100Y-178890500D03*
D14*
X71996900Y-180490500D03*
D10*
X331813500Y-93965500D03*
D15*
X329146500Y-93165500D03*
D14*
X329171900Y-94765500D03*
D16*
X334378900Y-94765500D03*
D12*
X334455100Y-93165500D03*
D10*
X127000000Y-93980000D03*
D11*
X129667000Y-94780000D03*
D12*
X129641600Y-93180000D03*
D13*
X124434600Y-93180000D03*
D14*
X124358400Y-94780000D03*
D10*
X369913500Y-113015500D03*
D11*
X372580500Y-113815500D03*
D12*
X372555100Y-112215500D03*
D13*
X367348100Y-112215500D03*
D14*
X367271900Y-113815500D03*
D10*
X350863500Y-113015500D03*
D11*
X353530500Y-113815500D03*
D12*
X353505100Y-112215500D03*
D13*
X348298100Y-112215500D03*
D14*
X348221900Y-113815500D03*
D10*
X241262500Y-160640500D03*
D15*
X238595500Y-159840500D03*
D14*
X238620900Y-161440500D03*
D16*
X243827900Y-161440500D03*
D12*
X243904100Y-159840500D03*
D10*
X217650000Y-113250000D03*
D15*
X214983000Y-112450000D03*
D14*
X215008400Y-114050000D03*
D16*
X220215400Y-114050000D03*
D12*
X220291600Y-112450000D03*
D10*
X331813500Y-141717500D03*
D15*
X329146500Y-140917500D03*
D14*
X329171900Y-142517500D03*
D16*
X334378900Y-142517500D03*
D12*
X334455100Y-140917500D03*
D10*
X174587500Y-141590500D03*
D11*
X177254500Y-142390500D03*
D12*
X177229100Y-140790500D03*
D13*
X172022100Y-140790500D03*
D14*
X171945900Y-142390500D03*
D10*
X107912500Y-113015500D03*
D15*
X105245500Y-112215500D03*
D14*
X105270900Y-113815500D03*
D16*
X110477900Y-113815500D03*
D12*
X110554100Y-112215500D03*
D10*
X43650500Y-217790500D03*
D11*
X46317500Y-218590500D03*
D12*
X46292100Y-216990500D03*
D13*
X41085100Y-216990500D03*
D14*
X41008900Y-218590500D03*
D10*
X412712500Y-160767500D03*
D15*
X410045500Y-159967500D03*
D14*
X410070900Y-161567500D03*
D16*
X415277900Y-161567500D03*
D12*
X415354100Y-159967500D03*
D10*
X212687500Y-141590500D03*
D11*
X215354500Y-142390500D03*
D12*
X215329100Y-140790500D03*
D13*
X210122100Y-140790500D03*
D14*
X210045900Y-142390500D03*
D18*
X45275000Y-83958000D03*
D19*
X43775000Y-69458000D03*
D18*
X43275000Y-83958000D03*
D20*
X38775000Y-69458000D03*
X41275000Y-69458000D03*
D18*
X39275000Y-83958000D03*
D22*
X48875000Y-76958000D03*
X33675000Y-76958000D03*
D18*
X37275000Y-83958000D03*
X41275000Y-83958000D03*
D10*
X107912500Y-160640500D03*
D15*
X105245500Y-159840500D03*
D14*
X105270900Y-161440500D03*
D16*
X110477900Y-161440500D03*
D12*
X110554100Y-159840500D03*
D10*
X269837500Y-93965500D03*
D11*
X272504500Y-94765500D03*
D12*
X272479100Y-93165500D03*
D13*
X267272100Y-93165500D03*
D14*
X267195900Y-94765500D03*
D10*
X46063500Y-160640500D03*
D15*
X43396500Y-159840500D03*
D14*
X43421900Y-161440500D03*
D16*
X48628900Y-161440500D03*
D12*
X48705100Y-159840500D03*
D10*
X445430000Y-203430000D03*
D23*
X444630000Y-206097000D03*
D24*
X446230000Y-206071600D03*
D25*
X446230000Y-200864600D03*
D26*
X444630000Y-200788400D03*
D10*
X107950000Y-93980000D03*
D11*
X110617000Y-94780000D03*
D12*
X110591600Y-93180000D03*
D13*
X105384600Y-93180000D03*
D14*
X105308400Y-94780000D03*
D10*
X412712500Y-141590500D03*
D11*
X415379500Y-142390500D03*
D12*
X415354100Y-140790500D03*
D13*
X410147100Y-140790500D03*
D14*
X410070900Y-142390500D03*
D10*
X48349500Y-179690500D03*
D11*
X51016500Y-180490500D03*
D12*
X50991100Y-178890500D03*
D13*
X45784100Y-178890500D03*
D14*
X45707900Y-180490500D03*
D10*
X98387500Y-141605000D03*
D11*
X101054500Y-142405000D03*
D12*
X101029100Y-140805000D03*
D13*
X95822100Y-140805000D03*
D14*
X95745900Y-142405000D03*
D10*
X146012500Y-160640500D03*
D15*
X143345500Y-159840500D03*
D14*
X143370900Y-161440500D03*
D16*
X148577900Y-161440500D03*
D12*
X148654100Y-159840500D03*
D27*
X33000000Y-60000000D03*
D10*
X350863500Y-141717500D03*
D15*
X348196500Y-140917500D03*
D14*
X348221900Y-142517500D03*
D16*
X353428900Y-142517500D03*
D12*
X353505100Y-140917500D03*
D10*
X179286500Y-198740500D03*
D15*
X176619500Y-197940500D03*
D14*
X176644900Y-199540500D03*
D16*
X181851900Y-199540500D03*
D12*
X181928100Y-197940500D03*
D10*
X169761500Y-179690500D03*
D11*
X172428500Y-180490500D03*
D12*
X172403100Y-178890500D03*
D13*
X167196100Y-178890500D03*
D14*
X167119900Y-180490500D03*
D10*
X412810000Y-198820000D03*
D15*
X410143000Y-198020000D03*
D14*
X410168400Y-199620000D03*
D16*
X415375400Y-199620000D03*
D12*
X415451600Y-198020000D03*
D10*
X350780000Y-198820000D03*
D15*
X348113000Y-198020000D03*
D14*
X348138400Y-199620000D03*
D16*
X353345400Y-199620000D03*
D12*
X353421600Y-198020000D03*
D10*
X69812500Y-160640500D03*
D15*
X67145500Y-159840500D03*
D14*
X67170900Y-161440500D03*
D16*
X72377900Y-161440500D03*
D12*
X72454100Y-159840500D03*
D10*
X350863500Y-217917500D03*
D11*
X353530500Y-218717500D03*
D12*
X353505100Y-217117500D03*
D13*
X348298100Y-217117500D03*
D14*
X348221900Y-218717500D03*
D10*
X284188500Y-179690500D03*
D15*
X281521500Y-178890500D03*
D14*
X281546900Y-180490500D03*
D16*
X286753900Y-180490500D03*
D12*
X286830100Y-178890500D03*
D28*
X61746250Y-68100000D03*
D29*
X61746250Y-71600000D03*
X135246250Y-68100000D03*
D30*
X131096250Y-74050000D03*
X65896250Y-74050000D03*
X67096250Y-65650000D03*
X129896250Y-65650000D03*
D10*
X84163500Y-198740500D03*
D15*
X81496500Y-197940500D03*
D14*
X81521900Y-199540500D03*
D16*
X86728900Y-199540500D03*
D12*
X86805100Y-197940500D03*
D10*
X222212500Y-160640500D03*
D15*
X219545500Y-159840500D03*
D14*
X219570900Y-161440500D03*
D16*
X224777900Y-161440500D03*
D12*
X224854100Y-159840500D03*
D10*
X350863500Y-160640500D03*
D11*
X353530500Y-161440500D03*
D12*
X353505100Y-159840500D03*
D13*
X348298100Y-159840500D03*
D14*
X348221900Y-161440500D03*
D17*
X315270000Y-61200000D03*
X312730000Y-61200000D03*
D10*
X298412500Y-141590500D03*
D15*
X295745500Y-140790500D03*
D14*
X295770900Y-142390500D03*
D16*
X300977900Y-142390500D03*
D12*
X301054100Y-140790500D03*
D10*
X260312500Y-160640500D03*
D15*
X257645500Y-159840500D03*
D14*
X257670900Y-161440500D03*
D16*
X262877900Y-161440500D03*
D12*
X262954100Y-159840500D03*
D10*
X369913500Y-141717500D03*
D15*
X367246500Y-140917500D03*
D14*
X367271900Y-142517500D03*
D16*
X372478900Y-142517500D03*
D12*
X372555100Y-140917500D03*
D10*
X91275500Y-217790500D03*
D11*
X93942500Y-218590500D03*
D12*
X93917100Y-216990500D03*
D13*
X88710100Y-216990500D03*
D14*
X88633900Y-218590500D03*
D10*
X445590000Y-165430000D03*
D31*
X446390000Y-162763000D03*
D26*
X444790000Y-162788400D03*
D32*
X444790000Y-167995400D03*
D24*
X446390000Y-168071600D03*
D10*
X227038500Y-179690500D03*
D11*
X229705500Y-180490500D03*
D12*
X229680100Y-178890500D03*
D13*
X224473100Y-178890500D03*
D14*
X224396900Y-180490500D03*
D10*
X431762500Y-217917500D03*
D11*
X434429500Y-218717500D03*
D12*
X434404100Y-217117500D03*
D13*
X429197100Y-217117500D03*
D14*
X429120900Y-218717500D03*
D10*
X369913500Y-217917500D03*
D11*
X372580500Y-218717500D03*
D12*
X372555100Y-217117500D03*
D13*
X367348100Y-217117500D03*
D14*
X367271900Y-218717500D03*
D17*
X282730000Y-61200000D03*
X285270000Y-61200000D03*
D10*
X217640500Y-94092500D03*
D11*
X220307500Y-94892500D03*
D12*
X220282100Y-93292500D03*
D13*
X215075100Y-93292500D03*
D14*
X214998900Y-94892500D03*
D10*
X431762500Y-160767500D03*
D15*
X429095500Y-159967500D03*
D14*
X429120900Y-161567500D03*
D16*
X434327900Y-161567500D03*
D12*
X434404100Y-159967500D03*
D10*
X450812500Y-141590500D03*
D11*
X453479500Y-142390500D03*
D12*
X453454100Y-140790500D03*
D13*
X448247100Y-140790500D03*
D14*
X448170900Y-142390500D03*
D10*
X403225000Y-217805000D03*
D11*
X405892000Y-218605000D03*
D12*
X405866600Y-217005000D03*
D13*
X400659600Y-217005000D03*
D14*
X400583400Y-218605000D03*
D33*
X329156155Y-172343845D03*
X327300000Y-176825000D03*
X329925000Y-174200000D03*
X325443845Y-176056155D03*
X325443845Y-172343845D03*
X327300000Y-171575000D03*
X329156155Y-176056155D03*
X324675000Y-174200000D03*
D34*
X327300000Y-174200000D03*
D27*
X460500000Y-222500000D03*
D10*
X431762500Y-198740500D03*
D15*
X429095500Y-197940500D03*
D14*
X429120900Y-199540500D03*
D16*
X434327900Y-199540500D03*
D12*
X434404100Y-197940500D03*
D10*
X188811500Y-179690500D03*
D11*
X191478500Y-180490500D03*
D12*
X191453100Y-178890500D03*
D13*
X186246100Y-178890500D03*
D14*
X186169900Y-180490500D03*
D10*
X431762500Y-141590500D03*
D11*
X434429500Y-142390500D03*
D12*
X434404100Y-140790500D03*
D13*
X429197100Y-140790500D03*
D14*
X429120900Y-142390500D03*
D10*
X291300500Y-198740500D03*
D15*
X288633500Y-197940500D03*
D14*
X288658900Y-199540500D03*
D16*
X293865900Y-199540500D03*
D12*
X293942100Y-197940500D03*
D20*
X230650000Y-60950000D03*
X237150000Y-60950000D03*
X237150000Y-65450000D03*
X230650000Y-65450000D03*
D10*
X431762500Y-179817500D03*
D11*
X434429500Y-180617500D03*
D12*
X434404100Y-179017500D03*
D13*
X429197100Y-179017500D03*
D14*
X429120900Y-180617500D03*
D10*
X269837500Y-113015500D03*
D15*
X267170500Y-112215500D03*
D14*
X267195900Y-113815500D03*
D16*
X272402900Y-113815500D03*
D12*
X272479100Y-112215500D03*
D10*
X103213500Y-198740500D03*
D15*
X100546500Y-197940500D03*
D14*
X100571900Y-199540500D03*
D16*
X105778900Y-199540500D03*
D12*
X105855100Y-197940500D03*
D10*
X279350000Y-160550000D03*
D11*
X282017000Y-161350000D03*
D12*
X281991600Y-159750000D03*
D13*
X276784600Y-159750000D03*
D14*
X276708400Y-161350000D03*
D10*
X369913500Y-160640500D03*
D11*
X372580500Y-161440500D03*
D12*
X372555100Y-159840500D03*
D13*
X367348100Y-159840500D03*
D14*
X367271900Y-161440500D03*
D10*
X265138500Y-179690500D03*
D11*
X267805500Y-180490500D03*
D12*
X267780100Y-178890500D03*
D13*
X262573100Y-178890500D03*
D14*
X262496900Y-180490500D03*
D10*
X141186500Y-198740500D03*
D15*
X138519500Y-197940500D03*
D14*
X138544900Y-199540500D03*
D16*
X143751900Y-199540500D03*
D12*
X143828100Y-197940500D03*
D10*
X369913500Y-93965500D03*
D15*
X367246500Y-93165500D03*
D14*
X367271900Y-94765500D03*
D16*
X372478900Y-94765500D03*
D12*
X372555100Y-93165500D03*
D35*
X232693500Y-68920000D03*
D36*
X235233500Y-68920000D03*
X232566500Y-71460000D03*
X235106500Y-71460000D03*
X232693500Y-74000000D03*
X235233500Y-74000000D03*
X232566500Y-76540000D03*
X235106500Y-76540000D03*
X232693500Y-79080000D03*
X235233500Y-79080000D03*
D10*
X65113500Y-198740500D03*
D15*
X62446500Y-197940500D03*
D14*
X62471900Y-199540500D03*
D16*
X67678900Y-199540500D03*
D12*
X67755100Y-197940500D03*
D10*
X288887500Y-93965500D03*
D11*
X291554500Y-94765500D03*
D12*
X291529100Y-93165500D03*
D13*
X286322100Y-93165500D03*
D14*
X286245900Y-94765500D03*
D10*
X43650500Y-198740500D03*
D15*
X40983500Y-197940500D03*
D14*
X41008900Y-199540500D03*
D16*
X46215900Y-199540500D03*
D12*
X46292100Y-197940500D03*
D10*
X257937000Y-217790500D03*
D11*
X260604000Y-218590500D03*
D12*
X260578600Y-216990500D03*
D13*
X255371600Y-216990500D03*
D14*
X255295400Y-218590500D03*
D10*
X93688500Y-179690500D03*
D11*
X96355500Y-180490500D03*
D12*
X96330100Y-178890500D03*
D13*
X91123100Y-178890500D03*
D14*
X91046900Y-180490500D03*
D27*
X33000000Y-222500000D03*
D10*
X179450000Y-113250000D03*
D15*
X176783000Y-112450000D03*
D14*
X176808400Y-114050000D03*
D16*
X182015400Y-114050000D03*
D12*
X182091600Y-112450000D03*
D10*
X41237500Y-141605000D03*
D11*
X43904500Y-142405000D03*
D12*
X43879100Y-140805000D03*
D13*
X38672100Y-140805000D03*
D14*
X38595900Y-142405000D03*
D10*
X393760000Y-198820000D03*
D15*
X391093000Y-198020000D03*
D14*
X391118400Y-199620000D03*
D16*
X396325400Y-199620000D03*
D12*
X396401600Y-198020000D03*
D10*
X307937500Y-113015500D03*
D15*
X305270500Y-112215500D03*
D14*
X305295900Y-113815500D03*
D16*
X310502900Y-113815500D03*
D12*
X310579100Y-112215500D03*
D10*
X88862500Y-160640500D03*
D15*
X86195500Y-159840500D03*
D14*
X86220900Y-161440500D03*
D16*
X91427900Y-161440500D03*
D12*
X91504100Y-159840500D03*
D10*
X126962500Y-113015500D03*
D15*
X124295500Y-112215500D03*
D14*
X124320900Y-113815500D03*
D16*
X129527900Y-113815500D03*
D12*
X129604100Y-112215500D03*
D10*
X250787500Y-141590500D03*
D11*
X253454500Y-142390500D03*
D12*
X253429100Y-140790500D03*
D13*
X248222100Y-140790500D03*
D14*
X248145900Y-142390500D03*
D10*
X305562000Y-170673500D03*
D15*
X302895000Y-169873500D03*
D14*
X302920400Y-171473500D03*
D16*
X308127400Y-171473500D03*
D12*
X308203600Y-169873500D03*
D10*
X331813500Y-217917500D03*
D11*
X334480500Y-218717500D03*
D12*
X334455100Y-217117500D03*
D13*
X329248100Y-217117500D03*
D14*
X329171900Y-218717500D03*
D10*
X41275000Y-113030000D03*
D15*
X38608000Y-112230000D03*
D14*
X38633400Y-113830000D03*
D16*
X43840400Y-113830000D03*
D12*
X43916600Y-112230000D03*
D10*
X307937500Y-93965500D03*
D11*
X310604500Y-94765500D03*
D12*
X310579100Y-93165500D03*
D13*
X305372100Y-93165500D03*
D14*
X305295900Y-94765500D03*
D10*
X88900000Y-93980000D03*
D11*
X91567000Y-94780000D03*
D12*
X91541600Y-93180000D03*
D13*
X86334600Y-93180000D03*
D14*
X86258400Y-94780000D03*
D10*
X117437500Y-141590500D03*
D11*
X120104500Y-142390500D03*
D12*
X120079100Y-140790500D03*
D13*
X114872100Y-140790500D03*
D14*
X114795900Y-142390500D03*
D10*
X255660000Y-199040000D03*
D15*
X252993000Y-198240000D03*
D14*
X253018400Y-199840000D03*
D16*
X258225400Y-199840000D03*
D12*
X258301600Y-198240000D03*
D10*
X393662500Y-160767500D03*
D15*
X390995500Y-159967500D03*
D14*
X391020900Y-161567500D03*
D16*
X396227900Y-161567500D03*
D12*
X396304100Y-159967500D03*
D10*
X331813500Y-113015500D03*
D11*
X334480500Y-113815500D03*
D12*
X334455100Y-112215500D03*
D13*
X329248100Y-112215500D03*
D14*
X329171900Y-113815500D03*
D10*
X112738500Y-179690500D03*
D11*
X115405500Y-180490500D03*
D12*
X115380100Y-178890500D03*
D13*
X110173100Y-178890500D03*
D14*
X110096900Y-180490500D03*
D10*
X234150500Y-217790500D03*
D11*
X236817500Y-218590500D03*
D12*
X236792100Y-216990500D03*
D13*
X231585100Y-216990500D03*
D14*
X231508900Y-218590500D03*
D10*
X131661500Y-179690500D03*
D11*
X134328500Y-180490500D03*
D12*
X134303100Y-178890500D03*
D13*
X129096100Y-178890500D03*
D14*
X129019900Y-180490500D03*
D10*
X203162500Y-160640500D03*
D15*
X200495500Y-159840500D03*
D14*
X200520900Y-161440500D03*
D16*
X205727900Y-161440500D03*
D12*
X205804100Y-159840500D03*
D10*
X88862500Y-113015500D03*
D15*
X86195500Y-112215500D03*
D14*
X86220900Y-113815500D03*
D16*
X91427900Y-113815500D03*
D12*
X91504100Y-112215500D03*
D10*
X281686000Y-217790500D03*
D11*
X284353000Y-218590500D03*
D12*
X284327600Y-216990500D03*
D13*
X279120600Y-216990500D03*
D14*
X279044400Y-218590500D03*
D10*
X165062500Y-160640500D03*
D15*
X162395500Y-159840500D03*
D14*
X162420900Y-161440500D03*
D16*
X167627900Y-161440500D03*
D12*
X167704100Y-159840500D03*
D28*
X242816500Y-68100000D03*
D29*
X242816500Y-71600000D03*
X316316500Y-68100000D03*
D30*
X310966500Y-65650000D03*
X312166500Y-74050000D03*
X246966500Y-74050000D03*
X248166500Y-65650000D03*
D10*
X393662500Y-179817500D03*
D11*
X396329500Y-180617500D03*
D12*
X396304100Y-179017500D03*
D13*
X391097100Y-179017500D03*
D14*
X391020900Y-180617500D03*
D10*
X288887500Y-113015500D03*
D15*
X286220500Y-112215500D03*
D14*
X286245900Y-113815500D03*
D16*
X291452900Y-113815500D03*
D12*
X291529100Y-112215500D03*
D10*
X269875000Y-141605000D03*
D11*
X272542000Y-142405000D03*
D12*
X272516600Y-140805000D03*
D13*
X267309600Y-140805000D03*
D14*
X267233400Y-142405000D03*
D10*
X217513500Y-198740500D03*
D15*
X214846500Y-197940500D03*
D14*
X214871900Y-199540500D03*
D16*
X220078900Y-199540500D03*
D12*
X220155100Y-197940500D03*
D10*
X122136500Y-198740500D03*
D15*
X119469500Y-197940500D03*
D14*
X119494900Y-199540500D03*
D16*
X124701900Y-199540500D03*
D12*
X124778100Y-197940500D03*
D10*
X160400000Y-113250000D03*
D15*
X157733000Y-112450000D03*
D14*
X157758400Y-114050000D03*
D16*
X162965400Y-114050000D03*
D12*
X163041600Y-112450000D03*
D10*
X236563500Y-198740500D03*
D15*
X233896500Y-197940500D03*
D14*
X233921900Y-199540500D03*
D16*
X239128900Y-199540500D03*
D12*
X239205100Y-197940500D03*
D10*
X350863500Y-74915500D03*
D11*
X353530500Y-75715500D03*
D12*
X353505100Y-74115500D03*
D13*
X348298100Y-74115500D03*
D14*
X348221900Y-75715500D03*
D10*
X305524500Y-217790500D03*
D11*
X308191500Y-218590500D03*
D12*
X308166100Y-216990500D03*
D13*
X302959100Y-216990500D03*
D14*
X302882900Y-218590500D03*
D10*
X79337500Y-141605000D03*
D11*
X82004500Y-142405000D03*
D12*
X81979100Y-140805000D03*
D13*
X76772100Y-140805000D03*
D14*
X76695900Y-142405000D03*
D10*
X150711500Y-179690500D03*
D11*
X153378500Y-180490500D03*
D12*
X153353100Y-178890500D03*
D13*
X148146100Y-178890500D03*
D14*
X148069900Y-180490500D03*
D28*
X152329000Y-68100000D03*
D29*
X152329000Y-71600000D03*
X225829000Y-68100000D03*
D30*
X221679000Y-74050000D03*
X156479000Y-74050000D03*
X157679000Y-65650000D03*
X220479000Y-65650000D03*
D10*
X331813500Y-74915500D03*
D11*
X334480500Y-75715500D03*
D12*
X334455100Y-74115500D03*
D13*
X329248100Y-74115500D03*
D14*
X329171900Y-75715500D03*
D10*
X198590500Y-94092500D03*
D11*
X201257500Y-94892500D03*
D12*
X201232100Y-93292500D03*
D13*
X196025100Y-93292500D03*
D14*
X195948900Y-94892500D03*
D10*
X160236500Y-198740500D03*
D15*
X157569500Y-197940500D03*
D14*
X157594900Y-199540500D03*
D16*
X162801900Y-199540500D03*
D12*
X162878100Y-197940500D03*
D10*
X350863500Y-93965500D03*
D15*
X348196500Y-93165500D03*
D14*
X348221900Y-94765500D03*
D16*
X353428900Y-94765500D03*
D12*
X353505100Y-93165500D03*
D27*
X460500000Y-60000000D03*
D10*
X193637500Y-141590500D03*
D11*
X196304500Y-142390500D03*
D12*
X196279100Y-140790500D03*
D13*
X191072100Y-140790500D03*
D14*
X190995900Y-142390500D03*
D10*
X412712500Y-179817500D03*
D11*
X415379500Y-180617500D03*
D12*
X415354100Y-179017500D03*
D13*
X410147100Y-179017500D03*
D14*
X410070900Y-180617500D03*
D10*
X69812500Y-113015500D03*
D15*
X67145500Y-112215500D03*
D14*
X67170900Y-113815500D03*
D16*
X72377900Y-113815500D03*
D12*
X72454100Y-112215500D03*
D37*
X147320000Y-128398000D03*
X147320000Y-131698000D03*
D38*
X166020750Y-172116750D03*
D39*
X174910750Y-174656750D03*
D38*
X172370750Y-169576750D03*
D39*
X164750750Y-174656750D03*
D40*
X169830750Y-174656750D03*
D41*
X175926750Y-169576750D03*
X162464750Y-172116750D03*
D37*
X261620000Y-80265000D03*
X261620000Y-83565000D03*
D40*
X279368250Y-155606750D03*
D39*
X284448250Y-155606750D03*
D38*
X281908250Y-150526750D03*
D39*
X274288250Y-155606750D03*
D38*
X275558250Y-153066750D03*
D41*
X285464250Y-150526750D03*
X272002250Y-153066750D03*
D37*
X361696000Y-128398000D03*
X361696000Y-131698000D03*
X109220000Y-128398000D03*
X109220000Y-131698000D03*
D42*
X317650000Y-78000000D03*
X317650000Y-76000000D03*
D37*
X299720000Y-99315000D03*
X299720000Y-102615000D03*
D43*
X67150000Y-122100000D03*
X67150000Y-124100000D03*
D37*
X35306000Y-185548000D03*
X35306000Y-188848000D03*
X152400000Y-99315000D03*
X152400000Y-102615000D03*
X240715800Y-131344400D03*
X240715800Y-134644400D03*
D38*
X143795750Y-188626750D03*
D39*
X136175750Y-193706750D03*
D40*
X141255750Y-193706750D03*
D38*
X137445750Y-191166750D03*
D39*
X146335750Y-193706750D03*
D41*
X147351750Y-188626750D03*
X133889750Y-191166750D03*
D38*
X272383250Y-102901750D03*
D39*
X274923250Y-107981750D03*
D38*
X266033250Y-105441750D03*
D40*
X269843250Y-107981750D03*
D39*
X264763250Y-107981750D03*
D41*
X275939250Y-102901750D03*
X262477250Y-105441750D03*
D44*
X140462000Y-75631000D03*
X140462000Y-71181000D03*
D37*
X52070000Y-128398000D03*
X52070000Y-131698000D03*
D38*
X389858250Y-191198500D03*
D39*
X398748250Y-193738500D03*
D40*
X393668250Y-193738500D03*
D39*
X388588250Y-193738500D03*
D38*
X396208250Y-188658500D03*
D41*
X399764250Y-188658500D03*
X386302250Y-191198500D03*
D37*
X190500000Y-99315000D03*
X190500000Y-102615000D03*
D39*
X345725750Y-193738500D03*
D38*
X353345750Y-188658500D03*
D39*
X355885750Y-193738500D03*
D40*
X350805750Y-193738500D03*
D38*
X346995750Y-191198500D03*
D41*
X356901750Y-188658500D03*
X343439750Y-191198500D03*
D37*
X361696000Y-80646000D03*
X361696000Y-83946000D03*
D40*
X174593250Y-136556750D03*
D38*
X170783250Y-134016750D03*
X177133250Y-131476750D03*
D39*
X179673250Y-136556750D03*
X169513250Y-136556750D03*
D41*
X180689250Y-131476750D03*
X167227250Y-134016750D03*
D37*
X242570000Y-99315000D03*
X242570000Y-102615000D03*
X323596000Y-147194000D03*
X323596000Y-150494000D03*
D45*
X245720000Y-125307500D03*
X245720000Y-123232500D03*
D40*
X136493250Y-136556750D03*
D38*
X139033250Y-131476750D03*
D39*
X131413250Y-136556750D03*
X141573250Y-136556750D03*
D38*
X132683250Y-134016750D03*
D41*
X142589250Y-131476750D03*
X129127250Y-134016750D03*
D37*
X37592000Y-147448000D03*
X37592000Y-150748000D03*
D38*
X347027500Y-153035000D03*
X353377500Y-150495000D03*
D39*
X345757500Y-155575000D03*
D40*
X350837500Y-155575000D03*
D39*
X355917500Y-155575000D03*
D41*
X356933500Y-150495000D03*
X343471500Y-153035000D03*
D37*
X204470000Y-128398000D03*
X204470000Y-131698000D03*
X453390000Y-182500000D03*
X453390000Y-185800000D03*
D46*
X226568000Y-125759300D03*
X226568000Y-127834300D03*
D37*
X61595000Y-99315000D03*
X61595000Y-102615000D03*
D38*
X110458250Y-83851750D03*
D39*
X112998250Y-88931750D03*
X102838250Y-88931750D03*
D40*
X107918250Y-88931750D03*
D38*
X104108250Y-86391750D03*
D41*
X114014250Y-83851750D03*
X100552250Y-86391750D03*
D38*
X246983410Y-86391750D03*
D39*
X245713410Y-88931750D03*
X255873410Y-88931750D03*
D38*
X253333410Y-83851750D03*
D40*
X250793410Y-88931750D03*
D41*
X256889410Y-83851750D03*
X243427410Y-86391750D03*
D37*
X114046000Y-185548000D03*
X114046000Y-188848000D03*
D47*
X380517400Y-71459999D03*
X380517400Y-70810001D03*
X380517400Y-70159999D03*
X380517400Y-69510001D03*
X384784600Y-69510001D03*
X384784600Y-70159999D03*
X384784600Y-70810001D03*
X384784600Y-71459999D03*
D48*
X457803250Y-177101500D03*
D39*
X450818250Y-160083500D03*
D40*
X442563250Y-153225500D03*
D38*
X455898250Y-167703500D03*
X453358250Y-161353500D03*
D40*
X450818250Y-165163500D03*
D39*
X450818250Y-170243500D03*
D48*
X457803250Y-153225500D03*
D40*
X442563250Y-177101500D03*
D49*
X455898250Y-171259500D03*
X453358250Y-157797500D03*
D37*
X118872000Y-147448000D03*
X118872000Y-150748000D03*
D39*
X293973250Y-88931750D03*
D38*
X291433250Y-83851750D03*
X285083250Y-86391750D03*
D39*
X283813250Y-88931750D03*
D40*
X288893250Y-88931750D03*
D41*
X294989250Y-83851750D03*
X281527250Y-86391750D03*
D40*
X126970000Y-107980000D03*
D38*
X123160000Y-105440000D03*
X129510000Y-102900000D03*
D39*
X121890000Y-107980000D03*
X132050000Y-107980000D03*
D41*
X133066000Y-102900000D03*
X119604000Y-105440000D03*
D37*
X249428000Y-204598000D03*
X249428000Y-207898000D03*
D38*
X427958250Y-172148500D03*
D39*
X436848250Y-174688500D03*
X426688250Y-174688500D03*
D40*
X431768250Y-174688500D03*
D38*
X434308250Y-169608500D03*
D41*
X437864250Y-169608500D03*
X424402250Y-172148500D03*
D38*
X334327500Y-64770000D03*
D40*
X331787500Y-69850000D03*
D38*
X327977500Y-67310000D03*
D39*
X336867500Y-69850000D03*
X326707500Y-69850000D03*
D41*
X337883500Y-64770000D03*
X324421500Y-67310000D03*
D38*
X158083250Y-131476750D03*
X151733250Y-134016750D03*
D40*
X155543250Y-136556750D03*
D39*
X150463250Y-136556750D03*
X160623250Y-136556750D03*
D41*
X161639250Y-131476750D03*
X148177250Y-134016750D03*
D40*
X331787500Y-136525000D03*
D38*
X334327500Y-131445000D03*
D39*
X326707500Y-136525000D03*
X336867500Y-136525000D03*
D38*
X327977500Y-133985000D03*
D41*
X337883500Y-131445000D03*
X324421500Y-133985000D03*
D37*
X323596000Y-99696000D03*
X323596000Y-102996000D03*
D50*
X234237500Y-92200000D03*
X237362500Y-92200000D03*
D43*
X63950000Y-122100000D03*
X63950000Y-124100000D03*
D37*
X156972000Y-147448000D03*
X156972000Y-150748000D03*
X385572000Y-147448000D03*
X385572000Y-150748000D03*
X142748000Y-166752000D03*
X142748000Y-170052000D03*
X259765800Y-130760200D03*
X259765800Y-134060200D03*
D39*
X132048250Y-155606750D03*
D38*
X129508250Y-150526750D03*
D40*
X126968250Y-155606750D03*
D39*
X121888250Y-155606750D03*
D38*
X123158250Y-153066750D03*
D41*
X133064250Y-150526750D03*
X119602250Y-153066750D03*
D39*
X263017000Y-212756750D03*
D38*
X260477000Y-207676750D03*
D40*
X257937000Y-212756750D03*
D38*
X254127000Y-210216750D03*
D39*
X252857000Y-212756750D03*
D41*
X264033000Y-207676750D03*
X250571000Y-210216750D03*
D37*
X99822000Y-147448000D03*
X99822000Y-150748000D03*
D51*
X54500000Y-110362500D03*
X54500000Y-107237500D03*
D38*
X61245750Y-191166750D03*
X67595750Y-188626750D03*
D39*
X59975750Y-193706750D03*
D40*
X65055750Y-193706750D03*
D39*
X70135750Y-193706750D03*
D41*
X71151750Y-188626750D03*
X57689750Y-191166750D03*
D38*
X262858250Y-150526750D03*
X256508250Y-153066750D03*
D40*
X260318250Y-155606750D03*
D39*
X265398250Y-155606750D03*
X255238250Y-155606750D03*
D41*
X266414250Y-150526750D03*
X252952250Y-153066750D03*
D37*
X225552000Y-204598000D03*
X225552000Y-207898000D03*
D38*
X127920750Y-172116750D03*
X134270750Y-169576750D03*
D39*
X126650750Y-174656750D03*
X136810750Y-174656750D03*
D40*
X131730750Y-174656750D03*
D41*
X137826750Y-169576750D03*
X124364750Y-172116750D03*
D52*
X55866000Y-122954000D03*
X55866000Y-123904000D03*
X55866000Y-124854000D03*
X53166000Y-124854000D03*
X53166000Y-123904000D03*
X53166000Y-122954000D03*
D37*
X71120000Y-128398000D03*
X71120000Y-131698000D03*
D40*
X184118250Y-155606750D03*
D38*
X180308250Y-153066750D03*
D39*
X189198250Y-155606750D03*
X179038250Y-155606750D03*
D38*
X186658250Y-150526750D03*
D41*
X190214250Y-150526750D03*
X176752250Y-153066750D03*
D37*
X180848000Y-166752000D03*
X180848000Y-170052000D03*
X161798000Y-166752000D03*
X161798000Y-170052000D03*
X190246000Y-185548000D03*
X190246000Y-188848000D03*
X128270000Y-128398000D03*
X128270000Y-131698000D03*
D40*
X160305750Y-193706750D03*
D39*
X155225750Y-193706750D03*
D38*
X156495750Y-191166750D03*
D39*
X165385750Y-193706750D03*
D38*
X162845750Y-188626750D03*
D41*
X166401750Y-188626750D03*
X152939750Y-191166750D03*
D37*
X423672000Y-204344000D03*
X423672000Y-207644000D03*
X199898000Y-166498000D03*
X199898000Y-169798000D03*
D20*
X230250000Y-82450000D03*
X236750000Y-82450000D03*
X230250000Y-86950000D03*
X236750000Y-86950000D03*
D39*
X260635750Y-193706750D03*
D38*
X258095750Y-188626750D03*
D40*
X255555750Y-193706750D03*
D39*
X250475750Y-193706750D03*
D38*
X251745750Y-191166750D03*
D41*
X261651750Y-188626750D03*
X248189750Y-191166750D03*
D37*
X190500000Y-80265000D03*
X190500000Y-83565000D03*
D38*
X310483250Y-83851750D03*
D39*
X313023250Y-88931750D03*
D38*
X304133250Y-86391750D03*
D39*
X302863250Y-88931750D03*
D40*
X307943250Y-88931750D03*
D41*
X314039250Y-83851750D03*
X300577250Y-86391750D03*
D37*
X99695000Y-99315000D03*
X99695000Y-102615000D03*
X385572000Y-166498000D03*
X385572000Y-169798000D03*
D39*
X374967500Y-107950000D03*
D40*
X369887500Y-107950000D03*
D38*
X366077500Y-105410000D03*
D39*
X364807500Y-107950000D03*
D38*
X372427500Y-102870000D03*
D41*
X375983500Y-102870000D03*
X362521500Y-105410000D03*
D37*
X261620000Y-99315000D03*
X261620000Y-102615000D03*
D45*
X52040000Y-110427500D03*
X52040000Y-108352500D03*
D53*
X140620000Y-56046500D03*
X146400000Y-56046500D03*
D54*
X140260000Y-57372500D03*
X141060000Y-57372500D03*
D55*
X142260000Y-57372500D03*
X143256000Y-57372500D03*
X143760000Y-57372500D03*
X144760000Y-57372500D03*
D54*
X146760000Y-57372500D03*
X145960000Y-57372500D03*
D55*
X145260000Y-57372500D03*
X144260000Y-57372500D03*
X142760000Y-57372500D03*
X141760000Y-57372500D03*
D56*
X139210000Y-56597500D03*
D57*
X147810000Y-52397500D03*
X139210000Y-52397500D03*
D56*
X147810000Y-56597500D03*
D58*
X54365000Y-76962000D03*
X52315000Y-76962000D03*
D37*
X154178000Y-204598000D03*
X154178000Y-207898000D03*
X423672000Y-185802000D03*
X423672000Y-189102000D03*
D38*
X285083250Y-105441750D03*
X291433250Y-102901750D03*
D39*
X293973250Y-107981750D03*
D40*
X288893250Y-107981750D03*
D39*
X283813250Y-107981750D03*
D41*
X294989250Y-102901750D03*
X281527250Y-105441750D03*
D38*
X66008250Y-105441750D03*
D40*
X69818250Y-107981750D03*
D38*
X72358250Y-102901750D03*
D39*
X64738250Y-107981750D03*
X74898250Y-107981750D03*
D41*
X75914250Y-102901750D03*
X62452250Y-105441750D03*
D59*
X137176000Y-80178000D03*
X139176000Y-80178000D03*
D38*
X69977000Y-207676750D03*
X63627000Y-210216750D03*
D39*
X62357000Y-212756750D03*
X72517000Y-212756750D03*
D40*
X67437000Y-212756750D03*
D41*
X73533000Y-207676750D03*
X60071000Y-210216750D03*
D60*
X37083000Y-99314000D03*
X33783000Y-99314000D03*
D39*
X246348250Y-155606750D03*
D40*
X241268250Y-155606750D03*
D38*
X237458250Y-153066750D03*
X243808250Y-150526750D03*
D39*
X236188250Y-155606750D03*
D41*
X247364250Y-150526750D03*
X233902250Y-153066750D03*
D40*
X284130750Y-174656750D03*
D39*
X289210750Y-174656750D03*
D38*
X286670750Y-169576750D03*
X280320750Y-172116750D03*
D39*
X279050750Y-174656750D03*
D41*
X290226750Y-169576750D03*
X276764750Y-172116750D03*
D37*
X404622000Y-147448000D03*
X404622000Y-150748000D03*
D48*
X443833250Y-191325500D03*
D40*
X459073250Y-191325500D03*
D39*
X450818250Y-208343500D03*
D40*
X459073250Y-215201500D03*
D39*
X450818250Y-198183500D03*
D48*
X443833250Y-215201500D03*
D38*
X455898250Y-205803500D03*
X453358250Y-199453500D03*
D40*
X450818250Y-203263500D03*
D49*
X455898250Y-209359500D03*
X453358250Y-195897500D03*
D37*
X342646000Y-147194000D03*
X342646000Y-150494000D03*
X342646000Y-185548000D03*
X342646000Y-188848000D03*
D61*
X147066000Y-108966000D03*
D62*
X148016000Y-108966000D03*
X148966000Y-108966000D03*
X148966000Y-111166000D03*
X148016000Y-111166000D03*
X147066000Y-111166000D03*
D37*
X209296000Y-185548000D03*
X209296000Y-188848000D03*
X85598000Y-166498000D03*
X85598000Y-169798000D03*
D63*
X242065000Y-111474999D03*
X242065000Y-111975001D03*
X242065000Y-112475000D03*
X242065000Y-112974999D03*
X242065000Y-113475000D03*
X242065000Y-113974999D03*
X242065000Y-114475001D03*
X242065000Y-114975000D03*
X242065000Y-115474999D03*
X242065000Y-115975000D03*
X242065000Y-116474999D03*
X242065000Y-116974998D03*
X242065000Y-117475000D03*
X242065000Y-117974999D03*
X242065000Y-118475001D03*
X242065000Y-118975000D03*
X242065000Y-119474999D03*
X242065000Y-119975000D03*
X242065000Y-120474999D03*
X242065000Y-120975001D03*
X242065000Y-121475000D03*
X242065000Y-121974999D03*
X242065000Y-122475000D03*
X242065000Y-122974999D03*
X242065000Y-123475001D03*
D64*
X240315001Y-125225000D03*
X239814999Y-125225000D03*
X239315000Y-125225000D03*
X238815001Y-125225000D03*
X238315000Y-125225000D03*
X237815001Y-125225000D03*
X237314999Y-125225000D03*
X236815000Y-125225000D03*
X236315001Y-125225000D03*
X235815000Y-125225000D03*
X235315001Y-125225000D03*
X234814999Y-125225000D03*
X234315000Y-125225000D03*
X233815001Y-125225000D03*
X233314999Y-125225000D03*
X232815000Y-125225000D03*
X232314999Y-125225000D03*
X231815000Y-125225000D03*
X231315001Y-125225000D03*
X230814999Y-125225000D03*
X230315000Y-125225000D03*
X229814999Y-125225000D03*
X229315000Y-125225000D03*
X228815001Y-125225000D03*
X228314999Y-125225000D03*
D63*
X226565000Y-123475001D03*
X226565000Y-122974999D03*
X226565000Y-122475000D03*
X226565000Y-121975001D03*
X226565000Y-121475000D03*
X226565000Y-120975001D03*
X226565000Y-120474999D03*
X226565000Y-119975000D03*
X226565000Y-119475001D03*
X226565000Y-118975000D03*
X226565000Y-118475001D03*
X226565000Y-117974999D03*
X226565000Y-117475000D03*
X226565000Y-116975001D03*
X226565000Y-116474999D03*
X226565000Y-115975000D03*
X226565000Y-115474999D03*
X226565000Y-114975000D03*
X226565000Y-114475001D03*
X226565000Y-113974999D03*
X226565000Y-113475000D03*
X226565000Y-112974999D03*
X226565000Y-112475000D03*
X226565000Y-111975001D03*
X226565000Y-111474999D03*
D64*
X228314999Y-109725000D03*
X228815001Y-109725000D03*
X229315000Y-109725000D03*
X229814999Y-109725000D03*
X230315000Y-109725000D03*
X230814999Y-109725000D03*
X231315001Y-109725000D03*
X231815000Y-109725000D03*
X232314999Y-109725000D03*
X232815000Y-109725000D03*
X233314999Y-109725000D03*
X233815001Y-109725000D03*
X234315000Y-109725000D03*
X234814999Y-109725000D03*
X235315001Y-109725000D03*
X235815000Y-109725000D03*
X236315001Y-109725000D03*
X236815000Y-109725000D03*
X237314999Y-109725000D03*
X237815001Y-109725000D03*
X238315000Y-109725000D03*
X238815001Y-109725000D03*
X239315000Y-109725000D03*
X239814999Y-109725000D03*
X240315001Y-109725000D03*
D37*
X137922000Y-147448000D03*
X137922000Y-150748000D03*
D50*
X143217500Y-95451000D03*
X146342500Y-95451000D03*
D38*
X153320750Y-169576750D03*
D39*
X155860750Y-174656750D03*
D40*
X150780750Y-174656750D03*
D39*
X145700750Y-174656750D03*
D38*
X146970750Y-172116750D03*
D41*
X156876750Y-169576750D03*
X143414750Y-172116750D03*
D65*
X276098000Y-178942000D03*
X276098000Y-175642000D03*
D45*
X59004000Y-125087500D03*
X59004000Y-123012500D03*
D37*
X323596000Y-80646000D03*
X323596000Y-83946000D03*
D40*
X246030750Y-174656750D03*
D38*
X248570750Y-169576750D03*
D39*
X240950750Y-174656750D03*
X251110750Y-174656750D03*
D38*
X242220750Y-172116750D03*
D41*
X252126750Y-169576750D03*
X238664750Y-172116750D03*
D40*
X412718250Y-193738500D03*
D39*
X407638250Y-193738500D03*
D38*
X408908250Y-191198500D03*
X415258250Y-188658500D03*
D39*
X417798250Y-193738500D03*
D41*
X418814250Y-188658500D03*
X405352250Y-191198500D03*
D48*
X286480250Y-129571750D03*
D40*
X298418250Y-136556750D03*
X286480250Y-144811750D03*
D39*
X303498250Y-136556750D03*
X293338250Y-136556750D03*
D38*
X300958250Y-131476750D03*
D48*
X310356250Y-129571750D03*
D40*
X310356250Y-144811750D03*
D38*
X294608250Y-134016750D03*
D41*
X304514250Y-131476750D03*
X291052250Y-134016750D03*
D37*
X242570000Y-80265000D03*
X242570000Y-83565000D03*
X402894800Y-130658600D03*
X402894800Y-133958600D03*
X123698000Y-166752000D03*
X123698000Y-170052000D03*
D39*
X222631000Y-88931750D03*
D40*
X217551000Y-88931750D03*
D38*
X213741000Y-86391750D03*
X220091000Y-83851750D03*
D39*
X212471000Y-88931750D03*
D41*
X223647000Y-83851750D03*
X210185000Y-86391750D03*
D39*
X83788250Y-107981750D03*
D40*
X88868250Y-107981750D03*
D38*
X85058250Y-105441750D03*
D39*
X93948250Y-107981750D03*
D38*
X91408250Y-102901750D03*
D41*
X94964250Y-102901750D03*
X81502250Y-105441750D03*
D37*
X90170000Y-128398000D03*
X90170000Y-131698000D03*
X118745000Y-80265000D03*
X118745000Y-83565000D03*
D38*
X50927000Y-169576750D03*
D40*
X48387000Y-174656750D03*
D39*
X43307000Y-174656750D03*
X53467000Y-174656750D03*
D38*
X44577000Y-172116750D03*
D41*
X54483000Y-169576750D03*
X41021000Y-172116750D03*
D66*
X140208000Y-98829000D03*
X140208000Y-104879000D03*
D37*
X280670000Y-80265000D03*
X280670000Y-83565000D03*
D51*
X57800000Y-158062500D03*
X57800000Y-154937500D03*
D37*
X35306000Y-204598000D03*
X35306000Y-207898000D03*
X385826000Y-206884000D03*
X385826000Y-210184000D03*
D60*
X458342000Y-147574000D03*
X455042000Y-147574000D03*
D38*
X415258250Y-131508500D03*
X408908250Y-134048500D03*
D39*
X407638250Y-136588500D03*
X417798250Y-136588500D03*
D40*
X412718250Y-136588500D03*
D41*
X418814250Y-131508500D03*
X405352250Y-134048500D03*
D37*
X214122000Y-147448000D03*
X214122000Y-150748000D03*
D67*
X137403800Y-91660400D03*
X138353800Y-91660400D03*
X139303800Y-91660400D03*
X139303800Y-95080400D03*
X138353800Y-95080400D03*
X137403800Y-95080400D03*
D40*
X162687000Y-212756750D03*
D48*
X212725000Y-205771750D03*
D40*
X212725000Y-221011750D03*
D48*
X112649000Y-205771750D03*
D38*
X158877000Y-210216750D03*
D39*
X157607000Y-212756750D03*
D38*
X165227000Y-207676750D03*
D40*
X112649000Y-221011750D03*
D39*
X167767000Y-212756750D03*
D41*
X168783000Y-207676750D03*
X155321000Y-210216750D03*
D68*
X388090500Y-73152000D03*
X390165500Y-73152000D03*
D69*
X239150000Y-92812500D03*
X241050000Y-92812500D03*
X240100000Y-94687500D03*
D38*
X42195750Y-153066750D03*
D39*
X51085750Y-155606750D03*
D40*
X46005750Y-155606750D03*
D39*
X40925750Y-155606750D03*
D38*
X48545750Y-150526750D03*
D41*
X52101750Y-150526750D03*
X38639750Y-153066750D03*
D40*
X117443250Y-136556750D03*
D39*
X122523250Y-136556750D03*
D38*
X119983250Y-131476750D03*
X113633250Y-134016750D03*
D39*
X112363250Y-136556750D03*
D41*
X123539250Y-131476750D03*
X110077250Y-134016750D03*
D39*
X198088250Y-155606750D03*
X208248250Y-155606750D03*
D38*
X199358250Y-153066750D03*
D40*
X203168250Y-155606750D03*
D38*
X205708250Y-150526750D03*
D41*
X209264250Y-150526750D03*
X195802250Y-153066750D03*
D38*
X181991106Y-83851750D03*
D39*
X184531106Y-88931750D03*
X174371106Y-88931750D03*
D40*
X179451106Y-88931750D03*
D38*
X175641106Y-86391750D03*
D41*
X185547106Y-83851750D03*
X172085106Y-86391750D03*
D37*
X257048000Y-166498000D03*
X257048000Y-169798000D03*
X361696000Y-204344000D03*
X361696000Y-207644000D03*
D51*
X248180000Y-125242500D03*
X248180000Y-122117500D03*
D70*
X140217400Y-62407800D03*
X138217400Y-62407800D03*
D71*
X240940500Y-106476800D03*
X238865500Y-106476800D03*
D39*
X48704500Y-193706750D03*
D38*
X46164500Y-188626750D03*
D40*
X43624500Y-193706750D03*
D38*
X39814500Y-191166750D03*
D39*
X38544500Y-193706750D03*
D41*
X49720500Y-188626750D03*
X36258500Y-191166750D03*
D37*
X423672000Y-147448000D03*
X423672000Y-150748000D03*
D38*
X104108250Y-153066750D03*
D39*
X112998250Y-155606750D03*
D40*
X107918250Y-155606750D03*
D38*
X110458250Y-150526750D03*
D39*
X102838250Y-155606750D03*
D41*
X114014250Y-150526750D03*
X100552250Y-153066750D03*
D37*
X323596000Y-204344000D03*
X323596000Y-207644000D03*
D65*
X247400000Y-197290000D03*
X247400000Y-193990000D03*
D39*
X255873250Y-107981750D03*
D40*
X250793250Y-107981750D03*
D39*
X245713250Y-107981750D03*
D38*
X246983250Y-105441750D03*
X253333250Y-102901750D03*
D41*
X256889250Y-102901750D03*
X243427250Y-105441750D03*
D37*
X297180000Y-204598000D03*
X297180000Y-207898000D03*
X61595000Y-80265000D03*
X61595000Y-83565000D03*
X40132000Y-166244000D03*
X40132000Y-169544000D03*
D39*
X436848250Y-136588500D03*
D40*
X431768250Y-136588500D03*
D38*
X427958250Y-134048500D03*
D39*
X426688250Y-136588500D03*
D38*
X434308250Y-131508500D03*
D41*
X437864250Y-131508500D03*
X424402250Y-134048500D03*
D65*
X273420000Y-198180000D03*
X273420000Y-194880000D03*
D39*
X155321090Y-88931750D03*
X165481090Y-88931750D03*
D38*
X162941090Y-83851750D03*
D40*
X160401090Y-88931750D03*
D38*
X156591090Y-86391750D03*
D41*
X166497090Y-83851750D03*
X153035090Y-86391750D03*
D40*
X350837500Y-107950000D03*
D39*
X355917500Y-107950000D03*
D38*
X353377500Y-102870000D03*
D39*
X345757500Y-107950000D03*
D38*
X347027500Y-105410000D03*
D41*
X356933500Y-102870000D03*
X343471500Y-105410000D03*
D58*
X375929000Y-62230000D03*
X373879000Y-62230000D03*
D42*
X230400000Y-91600000D03*
X230400000Y-89600000D03*
D37*
X82804000Y-204852000D03*
X82804000Y-208152000D03*
D39*
X236823250Y-136556750D03*
D38*
X227933250Y-134016750D03*
X234283250Y-131476750D03*
D40*
X231743250Y-136556750D03*
D39*
X226663250Y-136556750D03*
D41*
X237839250Y-131476750D03*
X224377250Y-134016750D03*
D38*
X89820750Y-172116750D03*
D39*
X88550750Y-174656750D03*
X98710750Y-174656750D03*
D38*
X96170750Y-169576750D03*
D40*
X93630750Y-174656750D03*
D41*
X99726750Y-169576750D03*
X86264750Y-172116750D03*
D39*
X398748250Y-174688500D03*
D38*
X396208250Y-169608500D03*
D40*
X393668250Y-174688500D03*
D39*
X388588250Y-174688500D03*
D38*
X389858250Y-172148500D03*
D41*
X399764250Y-169608500D03*
X386302250Y-172148500D03*
D38*
X208883250Y-134016750D03*
D40*
X212693250Y-136556750D03*
D39*
X207613250Y-136556750D03*
X217773250Y-136556750D03*
D38*
X215233250Y-131476750D03*
D41*
X218789250Y-131476750D03*
X205327250Y-134016750D03*
D40*
X69818250Y-88931750D03*
D39*
X74898250Y-88931750D03*
X64738250Y-88931750D03*
D38*
X72358250Y-83851750D03*
X66008250Y-86391750D03*
D41*
X75914250Y-83851750D03*
X62452250Y-86391750D03*
D48*
X312547000Y-177069750D03*
D40*
X297307000Y-153193750D03*
X305562000Y-165131750D03*
D39*
X300482000Y-165131750D03*
D38*
X308102000Y-160051750D03*
X301752000Y-162591750D03*
D39*
X310642000Y-165131750D03*
D40*
X297307000Y-177069750D03*
D48*
X312547000Y-153193750D03*
D41*
X311658000Y-160051750D03*
X298196000Y-162591750D03*
D37*
X404622000Y-166498000D03*
X404622000Y-169798000D03*
D39*
X241585750Y-193706750D03*
D40*
X236505750Y-193706750D03*
D38*
X239045750Y-188626750D03*
D39*
X231425750Y-193706750D03*
D38*
X232695750Y-191166750D03*
D41*
X242601750Y-188626750D03*
X229139750Y-191166750D03*
D45*
X55340000Y-158127500D03*
X55340000Y-156052500D03*
D72*
X272600000Y-61200000D03*
D73*
X280220000Y-61200000D03*
D68*
X150676700Y-108381800D03*
X152751700Y-108381800D03*
D39*
X46323250Y-107981750D03*
D40*
X41243250Y-107981750D03*
D38*
X43783250Y-102901750D03*
D39*
X36163250Y-107981750D03*
D38*
X37433250Y-105441750D03*
D41*
X47339250Y-102901750D03*
X33877250Y-105441750D03*
D50*
X143217500Y-90551000D03*
X146342500Y-90551000D03*
D37*
X104648000Y-166498000D03*
X104648000Y-169798000D03*
X228346000Y-185548000D03*
X228346000Y-188848000D03*
X299720000Y-80265000D03*
X299720000Y-83565000D03*
D39*
X222535750Y-193706750D03*
D38*
X213645750Y-191166750D03*
X219995750Y-188626750D03*
D39*
X212375750Y-193706750D03*
D40*
X217455750Y-193706750D03*
D41*
X223551750Y-188626750D03*
X210089750Y-191166750D03*
D38*
X185065000Y-172135000D03*
D39*
X193955000Y-174675000D03*
X183795000Y-174675000D03*
D40*
X188875000Y-174675000D03*
D38*
X191415000Y-169595000D03*
D41*
X194971000Y-169595000D03*
X181509000Y-172135000D03*
D39*
X398748250Y-136588500D03*
D38*
X389858250Y-134048500D03*
X396208250Y-131508500D03*
D40*
X393668250Y-136588500D03*
D39*
X388588250Y-136588500D03*
D41*
X399764250Y-131508500D03*
X386302250Y-134048500D03*
D74*
X256790000Y-124630000D03*
X257790000Y-124630000D03*
X258790000Y-124630000D03*
X259790000Y-124630000D03*
X260790000Y-124630000D03*
X261790000Y-124630000D03*
X262790000Y-124630000D03*
X263790000Y-124630000D03*
X264790000Y-124630000D03*
X265790000Y-124630000D03*
X266790000Y-124630000D03*
X267790000Y-124630000D03*
X268790000Y-124630000D03*
X269790000Y-124630000D03*
X270790000Y-124630000D03*
X271790000Y-124630000D03*
X272790000Y-124630000D03*
X273790000Y-124630000D03*
X274790000Y-124630000D03*
X275790000Y-124630000D03*
D75*
X253800000Y-121830000D03*
X278780000Y-121830000D03*
D76*
X139484500Y-82550000D03*
X136359500Y-82550000D03*
D38*
X194691000Y-105441750D03*
X201041000Y-102901750D03*
D40*
X198501000Y-107981750D03*
D39*
X203581000Y-107981750D03*
X193421000Y-107981750D03*
D41*
X204597000Y-102901750D03*
X191135000Y-105441750D03*
D39*
X159988250Y-155606750D03*
D40*
X165068250Y-155606750D03*
D39*
X170148250Y-155606750D03*
D38*
X167608250Y-150526750D03*
X161258250Y-153066750D03*
D41*
X171164250Y-150526750D03*
X157702250Y-153066750D03*
D40*
X146018250Y-155606750D03*
D39*
X151098250Y-155606750D03*
D38*
X142208250Y-153066750D03*
X148558250Y-150526750D03*
D39*
X140938250Y-155606750D03*
D41*
X152114250Y-150526750D03*
X138652250Y-153066750D03*
D39*
X96329500Y-212756750D03*
D38*
X87439500Y-210216750D03*
D39*
X86169500Y-212756750D03*
D38*
X93789500Y-207676750D03*
D40*
X91249500Y-212756750D03*
D41*
X97345500Y-207676750D03*
X83883500Y-210216750D03*
D39*
X417798250Y-155638500D03*
D38*
X415258250Y-150558500D03*
X408908250Y-153098500D03*
D40*
X412718250Y-155638500D03*
D39*
X407638250Y-155638500D03*
D41*
X418814250Y-150558500D03*
X405352250Y-153098500D03*
D40*
X226980750Y-174656750D03*
D39*
X232060750Y-174656750D03*
X221900750Y-174656750D03*
D38*
X229520750Y-169576750D03*
X223170750Y-172116750D03*
D41*
X233076750Y-169576750D03*
X219614750Y-172116750D03*
D37*
X342646000Y-128398000D03*
X342646000Y-131698000D03*
X152146000Y-185548000D03*
X152146000Y-188848000D03*
D47*
X52137400Y-82578999D03*
X52137400Y-81929001D03*
X52137400Y-81278999D03*
X52137400Y-80629001D03*
X56404600Y-80629001D03*
X56404600Y-81278999D03*
X56404600Y-81929001D03*
X56404600Y-82578999D03*
D37*
X185420000Y-128398000D03*
X185420000Y-131698000D03*
D39*
X274923250Y-88931750D03*
X264763250Y-88931750D03*
D38*
X272383250Y-83851750D03*
X266033250Y-86391750D03*
D40*
X269843250Y-88931750D03*
D41*
X275939250Y-83851750D03*
X262477250Y-86391750D03*
D37*
X80645000Y-80265000D03*
X80645000Y-83565000D03*
D72*
X287600000Y-61200000D03*
D73*
X295220000Y-61200000D03*
D37*
X171450000Y-80265000D03*
X171450000Y-83565000D03*
D38*
X353377500Y-131445000D03*
D39*
X355917500Y-136525000D03*
D40*
X350837500Y-136525000D03*
D38*
X347027500Y-133985000D03*
D39*
X345757500Y-136525000D03*
D41*
X356933500Y-131445000D03*
X343471500Y-133985000D03*
D40*
X369887500Y-88900000D03*
D38*
X372427500Y-83820000D03*
X366077500Y-86360000D03*
D39*
X374967500Y-88900000D03*
X364807500Y-88900000D03*
D41*
X375983500Y-83820000D03*
X362521500Y-86360000D03*
D70*
X147862800Y-61900000D03*
X145862800Y-61900000D03*
D37*
X342646000Y-99696000D03*
X342646000Y-102996000D03*
D39*
X336867500Y-88900000D03*
D40*
X331787500Y-88900000D03*
D38*
X334327500Y-83820000D03*
X327977500Y-86360000D03*
D39*
X326707500Y-88900000D03*
D41*
X337883500Y-83820000D03*
X324421500Y-86360000D03*
D39*
X217138250Y-155606750D03*
D38*
X218408250Y-153066750D03*
D39*
X227298250Y-155606750D03*
D38*
X224758250Y-150526750D03*
D40*
X222218250Y-155606750D03*
D41*
X228314250Y-150526750D03*
X214852250Y-153066750D03*
D40*
X412718250Y-174688500D03*
D38*
X415258250Y-169608500D03*
X408908250Y-172148500D03*
D39*
X407638250Y-174688500D03*
X417798250Y-174688500D03*
D41*
X418814250Y-169608500D03*
X405352250Y-172148500D03*
D38*
X277939500Y-210216750D03*
D39*
X276669500Y-212756750D03*
D40*
X281749500Y-212756750D03*
D39*
X286829500Y-212756750D03*
D38*
X284289500Y-207676750D03*
D41*
X287845500Y-207676750D03*
X274383500Y-210216750D03*
D37*
X273304000Y-204598000D03*
X273304000Y-207898000D03*
X80772000Y-147448000D03*
X80772000Y-150748000D03*
D65*
X292440000Y-179050000D03*
X292440000Y-175750000D03*
D37*
X342646000Y-204344000D03*
X342646000Y-207644000D03*
D43*
X50446000Y-121968000D03*
X50446000Y-123968000D03*
D37*
X385572000Y-185802000D03*
X385572000Y-189102000D03*
D38*
X220091000Y-102901750D03*
X213741000Y-105441750D03*
D40*
X217551000Y-107981750D03*
D39*
X212471000Y-107981750D03*
X222631000Y-107981750D03*
D41*
X223647000Y-102901750D03*
X210185000Y-105441750D03*
D39*
X455898250Y-136588500D03*
X445738250Y-136588500D03*
D40*
X450818250Y-136588500D03*
D38*
X453358250Y-131508500D03*
X447008250Y-134048500D03*
D41*
X456914250Y-131508500D03*
X443452250Y-134048500D03*
D37*
X421792400Y-130658600D03*
X421792400Y-133958600D03*
D39*
X38544500Y-212756750D03*
D38*
X46164500Y-207676750D03*
D39*
X48704500Y-212756750D03*
D40*
X43624500Y-212756750D03*
D38*
X39814500Y-210216750D03*
D41*
X49720500Y-207676750D03*
X36258500Y-210216750D03*
D40*
X269843250Y-136556750D03*
D38*
X266033250Y-134016750D03*
D39*
X264763250Y-136556750D03*
X274923250Y-136556750D03*
D38*
X272383250Y-131476750D03*
D41*
X275939250Y-131476750D03*
X262477250Y-134016750D03*
D43*
X239350000Y-88050000D03*
X239350000Y-90050000D03*
D39*
X302863250Y-107981750D03*
D38*
X304133250Y-105441750D03*
D39*
X313023250Y-107981750D03*
D38*
X310483250Y-102901750D03*
D40*
X307943250Y-107981750D03*
D41*
X314039250Y-102901750D03*
X300577250Y-105441750D03*
D71*
X228037500Y-63400000D03*
X225962500Y-63400000D03*
D38*
X175641000Y-105441750D03*
D39*
X184531000Y-107981750D03*
D38*
X181991000Y-102901750D03*
D39*
X174371000Y-107981750D03*
D40*
X179451000Y-107981750D03*
D41*
X185547000Y-102901750D03*
X172085000Y-105441750D03*
D37*
X342646000Y-80646000D03*
X342646000Y-83946000D03*
D39*
X310642000Y-212756750D03*
D38*
X308102000Y-207676750D03*
X301752000Y-210216750D03*
D40*
X305562000Y-212756750D03*
D39*
X300482000Y-212756750D03*
D41*
X311658000Y-207676750D03*
X298196000Y-210216750D03*
D77*
X149987000Y-57191800D03*
X149987000Y-59241800D03*
D40*
X69818250Y-155606750D03*
D38*
X72358250Y-150526750D03*
X66008250Y-153066750D03*
D39*
X74898250Y-155606750D03*
X64738250Y-155606750D03*
D41*
X75914250Y-150526750D03*
X62452250Y-153066750D03*
D38*
X43783250Y-131476750D03*
D39*
X36163250Y-136556750D03*
D38*
X37433250Y-134016750D03*
D39*
X46323250Y-136556750D03*
D40*
X41243250Y-136556750D03*
D41*
X47339250Y-131476750D03*
X33877250Y-134016750D03*
D76*
X375142500Y-166480000D03*
X372017500Y-166480000D03*
D38*
X194595750Y-191166750D03*
D39*
X203485750Y-193706750D03*
D38*
X200945750Y-188626750D03*
D39*
X193325750Y-193706750D03*
D40*
X198405750Y-193706750D03*
D41*
X204501750Y-188626750D03*
X191039750Y-191166750D03*
D38*
X56483250Y-134016750D03*
D39*
X55213250Y-136556750D03*
D40*
X60293250Y-136556750D03*
D38*
X62833250Y-131476750D03*
D39*
X65373250Y-136556750D03*
D41*
X66389250Y-131476750D03*
X52927250Y-134016750D03*
D71*
X54250500Y-86614000D03*
X52175500Y-86614000D03*
D37*
X99695000Y-80265000D03*
X99695000Y-83565000D03*
X252222000Y-147448000D03*
X252222000Y-150748000D03*
D39*
X374935750Y-212788500D03*
D38*
X372395750Y-207708500D03*
X366045750Y-210248500D03*
D39*
X364775750Y-212788500D03*
D40*
X369855750Y-212788500D03*
D41*
X375951750Y-207708500D03*
X362489750Y-210248500D03*
D37*
X59182000Y-204852000D03*
X59182000Y-208152000D03*
D50*
X143217500Y-93051000D03*
X146342500Y-93051000D03*
D37*
X195072000Y-147448000D03*
X195072000Y-150748000D03*
X342646000Y-61596000D03*
X342646000Y-64896000D03*
X56896000Y-185548000D03*
X56896000Y-188848000D03*
X441858400Y-128499600D03*
X441858400Y-131799600D03*
D71*
X226538700Y-109067600D03*
X224463700Y-109067600D03*
D37*
X209550000Y-80265000D03*
X209550000Y-83565000D03*
D70*
X390001000Y-69850000D03*
X388001000Y-69850000D03*
D72*
X302600000Y-61200000D03*
D73*
X310220000Y-61200000D03*
D37*
X166370000Y-128398000D03*
X166370000Y-131698000D03*
D40*
X122205750Y-193706750D03*
D39*
X127285750Y-193706750D03*
D38*
X118395750Y-191166750D03*
D39*
X117125750Y-193706750D03*
D38*
X124745750Y-188626750D03*
D41*
X128301750Y-188626750D03*
X114839750Y-191166750D03*
D37*
X80645000Y-99315000D03*
X80645000Y-102615000D03*
X383844800Y-131446000D03*
X383844800Y-134746000D03*
X404622000Y-185802000D03*
X404622000Y-189102000D03*
X152400000Y-80250000D03*
X152400000Y-83550000D03*
D39*
X155321000Y-107981750D03*
D38*
X162941000Y-102901750D03*
D39*
X165481000Y-107981750D03*
D40*
X160401000Y-107981750D03*
D38*
X156591000Y-105441750D03*
D41*
X166497000Y-102901750D03*
X153035000Y-105441750D03*
D70*
X236204000Y-94361000D03*
X234204000Y-94361000D03*
D40*
X107918250Y-107981750D03*
D38*
X110458250Y-102901750D03*
X104108250Y-105441750D03*
D39*
X102838250Y-107981750D03*
X112998250Y-107981750D03*
D41*
X114014250Y-102901750D03*
X100552250Y-105441750D03*
D60*
X139318000Y-77978000D03*
X136018000Y-77978000D03*
D39*
X398748250Y-155638500D03*
D38*
X389858250Y-153098500D03*
D40*
X393668250Y-155638500D03*
D38*
X396208250Y-150558500D03*
D39*
X388588250Y-155638500D03*
D41*
X399764250Y-150558500D03*
X386302250Y-153098500D03*
D39*
X245713250Y-136556750D03*
D38*
X253333250Y-131476750D03*
D39*
X255873250Y-136556750D03*
D38*
X246983250Y-134016750D03*
D40*
X250793250Y-136556750D03*
D41*
X256889250Y-131476750D03*
X243427250Y-134016750D03*
D38*
X75533250Y-134016750D03*
D39*
X84423250Y-136556750D03*
D38*
X81883250Y-131476750D03*
D40*
X79343250Y-136556750D03*
D39*
X74263250Y-136556750D03*
D41*
X85439250Y-131476750D03*
X71977250Y-134016750D03*
D39*
X83788250Y-155606750D03*
X93948250Y-155606750D03*
D40*
X88868250Y-155606750D03*
D38*
X85058250Y-153066750D03*
X91408250Y-150526750D03*
D41*
X94964250Y-150526750D03*
X81502250Y-153066750D03*
D77*
X335106500Y-176750500D03*
X335106500Y-178800500D03*
D40*
X331755750Y-212788500D03*
D38*
X334295750Y-207708500D03*
D39*
X326675750Y-212788500D03*
X336835750Y-212788500D03*
D38*
X327945750Y-210248500D03*
D41*
X337851750Y-207708500D03*
X324389750Y-210248500D03*
D37*
X361696000Y-147194000D03*
X361696000Y-150494000D03*
D71*
X375207500Y-168940000D03*
X373132500Y-168940000D03*
D39*
X260000750Y-174656750D03*
D38*
X267620750Y-169576750D03*
D40*
X265080750Y-174656750D03*
D39*
X270160750Y-174656750D03*
D38*
X261270750Y-172116750D03*
D41*
X271176750Y-169576750D03*
X257714750Y-172116750D03*
D37*
X66548000Y-166498000D03*
X66548000Y-169798000D03*
X133096000Y-185548000D03*
X133096000Y-188848000D03*
D39*
X426688250Y-193738500D03*
D38*
X434308250Y-188658500D03*
D39*
X436848250Y-193738500D03*
D38*
X427958250Y-191198500D03*
D40*
X431768250Y-193738500D03*
D41*
X437864250Y-188658500D03*
X424402250Y-191198500D03*
D39*
X239204500Y-212756750D03*
D40*
X234124500Y-212756750D03*
D38*
X230314500Y-210216750D03*
D39*
X229044500Y-212756750D03*
D38*
X236664500Y-207676750D03*
D41*
X240220500Y-207676750D03*
X226758500Y-210216750D03*
D39*
X132048250Y-88931750D03*
X121888250Y-88931750D03*
D40*
X126968250Y-88931750D03*
D38*
X123158250Y-86391750D03*
X129508250Y-83851750D03*
D41*
X133064250Y-83851750D03*
X119602250Y-86391750D03*
D46*
X135509000Y-95228500D03*
X135509000Y-97303500D03*
D37*
X423672000Y-166498000D03*
X423672000Y-169798000D03*
X280670000Y-99315000D03*
X280670000Y-102615000D03*
D40*
X88868250Y-88931750D03*
D38*
X85058250Y-86391750D03*
X91408250Y-83851750D03*
D39*
X83788250Y-88931750D03*
X93948250Y-88931750D03*
D41*
X94964250Y-83851750D03*
X81502250Y-86391750D03*
D39*
X364807500Y-136525000D03*
D40*
X369887500Y-136525000D03*
D39*
X374967500Y-136525000D03*
D38*
X372427500Y-131445000D03*
X366077500Y-133985000D03*
D41*
X375983500Y-131445000D03*
X362521500Y-133985000D03*
D37*
X94996000Y-185548000D03*
X94996000Y-188848000D03*
D38*
X86645750Y-188626750D03*
D39*
X79025750Y-193706750D03*
X89185750Y-193706750D03*
D40*
X84105750Y-193706750D03*
D38*
X80295750Y-191166750D03*
D41*
X90201750Y-188626750D03*
X76739750Y-191166750D03*
D39*
X184435750Y-193706750D03*
D38*
X175545750Y-191166750D03*
D39*
X174275750Y-193706750D03*
D40*
X179355750Y-193706750D03*
D38*
X181895750Y-188626750D03*
D41*
X185451750Y-188626750D03*
X171989750Y-191166750D03*
D38*
X77120750Y-169576750D03*
X70770750Y-172116750D03*
D39*
X69500750Y-174656750D03*
D40*
X74580750Y-174656750D03*
D39*
X79660750Y-174656750D03*
D41*
X80676750Y-169576750D03*
X67214750Y-172116750D03*
D38*
X427958250Y-153098500D03*
D40*
X431768250Y-155638500D03*
D39*
X426688250Y-155638500D03*
X436848250Y-155638500D03*
D38*
X434308250Y-150558500D03*
D41*
X437864250Y-150558500D03*
X424402250Y-153098500D03*
D78*
X233450000Y-89800000D03*
X236750000Y-89800000D03*
D40*
X391255250Y-221043500D03*
D38*
X405733250Y-207708500D03*
D39*
X398113250Y-212788500D03*
D40*
X403193250Y-212788500D03*
D39*
X408273250Y-212788500D03*
D40*
X415131250Y-221043500D03*
D38*
X399383250Y-210248500D03*
D48*
X415131250Y-205803500D03*
X391255250Y-205803500D03*
D41*
X409289250Y-207708500D03*
X395827250Y-210248500D03*
D39*
X117760750Y-174656750D03*
D38*
X115220750Y-169576750D03*
D39*
X107600750Y-174656750D03*
D40*
X112680750Y-174656750D03*
D38*
X108870750Y-172116750D03*
D41*
X118776750Y-169576750D03*
X105314750Y-172116750D03*
D38*
X293814500Y-188626750D03*
D40*
X279336500Y-201961750D03*
D38*
X287464500Y-191166750D03*
D40*
X303212500Y-201961750D03*
D39*
X296354500Y-193706750D03*
D48*
X303212500Y-186721750D03*
D40*
X291274500Y-193706750D03*
D39*
X286194500Y-193706750D03*
D48*
X279336500Y-186721750D03*
D41*
X297370500Y-188626750D03*
X283908500Y-191166750D03*
D39*
X364807500Y-155575000D03*
D38*
X372427500Y-150495000D03*
D39*
X374967500Y-155575000D03*
D38*
X366077500Y-153035000D03*
D40*
X369887500Y-155575000D03*
D41*
X375983500Y-150495000D03*
X362521500Y-153035000D03*
D50*
X317337500Y-98500000D03*
X320462500Y-98500000D03*
D40*
X198501000Y-88931750D03*
D38*
X201041000Y-83851750D03*
D39*
X193421000Y-88931750D03*
X203581000Y-88931750D03*
D38*
X194691000Y-86391750D03*
D41*
X204597000Y-83851750D03*
X191135000Y-86391750D03*
D46*
X241400000Y-88812500D03*
X241400000Y-90887500D03*
D37*
X171450000Y-99315000D03*
X171450000Y-102615000D03*
X233172000Y-147448000D03*
X233172000Y-150748000D03*
D76*
X228062500Y-60940000D03*
X224937500Y-60940000D03*
D38*
X210470750Y-169576750D03*
D39*
X202850750Y-174656750D03*
D38*
X204120750Y-172116750D03*
D39*
X213010750Y-174656750D03*
D40*
X207930750Y-174656750D03*
D41*
X214026750Y-169576750D03*
X200564750Y-172116750D03*
D40*
X431768250Y-212788500D03*
D38*
X427958250Y-210248500D03*
X434308250Y-207708500D03*
D39*
X426688250Y-212788500D03*
X436848250Y-212788500D03*
D41*
X437864250Y-207708500D03*
X424402250Y-210248500D03*
D38*
X334327500Y-102870000D03*
X327977500Y-105410000D03*
D39*
X326707500Y-107950000D03*
X336867500Y-107950000D03*
D40*
X331787500Y-107950000D03*
D41*
X337883500Y-102870000D03*
X324421500Y-105410000D03*
D37*
X361696000Y-99696000D03*
X361696000Y-102996000D03*
D68*
X317472500Y-100740000D03*
X319547500Y-100740000D03*
D37*
X61722000Y-147448000D03*
X61722000Y-150748000D03*
X323596000Y-61596000D03*
X323596000Y-64896000D03*
X209550000Y-99315000D03*
X209550000Y-102615000D03*
D38*
X353345750Y-207708500D03*
D39*
X345725750Y-212788500D03*
D40*
X350805750Y-212788500D03*
D39*
X355885750Y-212788500D03*
D38*
X346995750Y-210248500D03*
D41*
X356901750Y-207708500D03*
X343439750Y-210248500D03*
D60*
X297325000Y-127630000D03*
X294025000Y-127630000D03*
D37*
X218948000Y-166498000D03*
X218948000Y-169798000D03*
D39*
X188563250Y-136556750D03*
D40*
X193643250Y-136556750D03*
D38*
X196183250Y-131476750D03*
D39*
X198723250Y-136556750D03*
D38*
X189833250Y-134016750D03*
D41*
X199739250Y-131476750D03*
X186277250Y-134016750D03*
D42*
X56388000Y-88657000D03*
X56388000Y-86657000D03*
D40*
X103155750Y-193706750D03*
D39*
X108235750Y-193706750D03*
D38*
X99345750Y-191166750D03*
X105695750Y-188626750D03*
D39*
X98075750Y-193706750D03*
D41*
X109251750Y-188626750D03*
X95789750Y-191166750D03*
D37*
X323596000Y-128398000D03*
X323596000Y-131698000D03*
D38*
X334327500Y-150495000D03*
D39*
X336867500Y-155575000D03*
D40*
X331787500Y-155575000D03*
D38*
X327977500Y-153035000D03*
D39*
X326707500Y-155575000D03*
D41*
X337883500Y-150495000D03*
X324421500Y-153035000D03*
D37*
X237998000Y-166498000D03*
X237998000Y-169798000D03*
D42*
X314250000Y-78000000D03*
X314250000Y-76000000D03*
D39*
X345757500Y-88900000D03*
X355917500Y-88900000D03*
D38*
X347027500Y-86360000D03*
X353377500Y-83820000D03*
D40*
X350837500Y-88900000D03*
D41*
X356933500Y-83820000D03*
X343471500Y-86360000D03*
D37*
X221843600Y-130176000D03*
X221843600Y-133476000D03*
X171196000Y-185548000D03*
X171196000Y-188848000D03*
X176022000Y-147448000D03*
X176022000Y-150748000D03*
D60*
X47750000Y-128300000D03*
X44450000Y-128300000D03*
D38*
X94583250Y-134016750D03*
D40*
X98393250Y-136556750D03*
D39*
X103473250Y-136556750D03*
D38*
X100933250Y-131476750D03*
D39*
X93313250Y-136556750D03*
D41*
X104489250Y-131476750D03*
X91027250Y-134016750D03*
D37*
X118745000Y-99315000D03*
X118745000Y-102615000D03*
X75946000Y-185548000D03*
X75946000Y-188848000D03*
D65*
X271272000Y-159130000D03*
X271272000Y-155830000D03*
D38*
X347027500Y-67310000D03*
D39*
X345757500Y-69850000D03*
D40*
X350837500Y-69850000D03*
D38*
X353377500Y-64770000D03*
D39*
X355917500Y-69850000D03*
D41*
X356933500Y-64770000D03*
X343471500Y-67310000D03*
D33*
X232400000Y-104450000D03*
X234050000Y-81700000D03*
X374540000Y-112310000D03*
X234000000Y-80500000D03*
X55800000Y-121200000D03*
X376160000Y-93550000D03*
X145500000Y-112200000D03*
X327352500Y-218717500D03*
X279530000Y-180540000D03*
X55400000Y-119800000D03*
X281200000Y-128700000D03*
X132700000Y-93200000D03*
X267410000Y-201080000D03*
X334210000Y-197090000D03*
X153247576Y-96270265D03*
X233350000Y-106900000D03*
X453500000Y-139700000D03*
X58100000Y-95800000D03*
X447830000Y-168410000D03*
X243600000Y-115200000D03*
X248400000Y-201720000D03*
X234100000Y-106050000D03*
X230850000Y-103601250D03*
X56900000Y-119000000D03*
X152250000Y-110300000D03*
X388900000Y-142400000D03*
X231805378Y-103694622D03*
X296300000Y-116800000D03*
X446480000Y-208830000D03*
X311350000Y-181100000D03*
X223750000Y-112450000D03*
X245872000Y-121666000D03*
X289180000Y-180850000D03*
X271526000Y-150368000D03*
X230000000Y-94250000D03*
X237750000Y-94150000D03*
X37350000Y-139730000D03*
X207264000Y-107188000D03*
X145800000Y-82900000D03*
X53400000Y-79300000D03*
X240210000Y-111580000D03*
X57400000Y-123900000D03*
X224800000Y-94250000D03*
X228440000Y-111580000D03*
X164330000Y-114930000D03*
X255100000Y-114660000D03*
X133400000Y-96140000D03*
X379020000Y-119470000D03*
X274260000Y-114650000D03*
X259588000Y-91059000D03*
X261874000Y-139065000D03*
X226441000Y-139827000D03*
X320548000Y-149733000D03*
X141100000Y-95000000D03*
X237750000Y-95100000D03*
X292890000Y-158740000D03*
X228440000Y-123370000D03*
X188214000Y-107188000D03*
X240210000Y-123370000D03*
X145550000Y-110150000D03*
X238125000Y-105410000D03*
X245450000Y-92850000D03*
X241400000Y-125600000D03*
X294890000Y-161740000D03*
X183500000Y-114940000D03*
X285496000Y-199263000D03*
X379300000Y-68400000D03*
X244250000Y-92850000D03*
X140589000Y-95885000D03*
X426590000Y-140630000D03*
X201820000Y-114920000D03*
X224028000Y-106871500D03*
X290890000Y-161740000D03*
X228150000Y-128350000D03*
X379020000Y-118020000D03*
X145800000Y-83900000D03*
X145700000Y-116032500D03*
X380050000Y-67500000D03*
X132710000Y-97830000D03*
X221790000Y-113910000D03*
X261590000Y-200070000D03*
X292820000Y-114710000D03*
X288200000Y-181700000D03*
D79*
X283845000Y-120777000D03*
D33*
X145846800Y-60114600D03*
X139039600Y-69697600D03*
X140970000Y-69697600D03*
X141147800Y-60121800D03*
X141147800Y-59221800D03*
X145846800Y-59214600D03*
X140004800Y-69697600D03*
X141935200Y-69697600D03*
X234800000Y-88250000D03*
X134200000Y-80300000D03*
X235244622Y-81494622D03*
X152400000Y-78000000D03*
X235100000Y-104400000D03*
X45200000Y-117000000D03*
X62900000Y-117800000D03*
X313308000Y-99315000D03*
X152400000Y-96800000D03*
X322072000Y-80670400D03*
X132080000Y-100076000D03*
X404773400Y-130658600D03*
X376450000Y-100190000D03*
X385826000Y-130810000D03*
X321208400Y-101574600D03*
X307300000Y-126800000D03*
X423823400Y-130658600D03*
X210179997Y-127691237D03*
X211530000Y-148480000D03*
X211569769Y-166497000D03*
X210246991Y-126693982D03*
X229980000Y-129440000D03*
X308170000Y-204610000D03*
X240770000Y-197040000D03*
X320860000Y-204400000D03*
X93218000Y-118950000D03*
X112800000Y-119150000D03*
X131350000Y-119350000D03*
X145650000Y-119400000D03*
X222821505Y-127405673D03*
X232300000Y-129476500D03*
X250012200Y-130581400D03*
X269824200Y-130059700D03*
X335300000Y-127200000D03*
X354400000Y-127500000D03*
X357593872Y-116923872D03*
X240100000Y-86600000D03*
X249300500Y-117775501D03*
X227803378Y-108396622D03*
X224026218Y-111273782D03*
X222977189Y-119650000D03*
X240400000Y-99600000D03*
X228900000Y-68100000D03*
X226478378Y-107071622D03*
X254310000Y-125720000D03*
X264475000Y-127665000D03*
X244200000Y-121800000D03*
X245900980Y-112000000D03*
X224945464Y-125250464D03*
X226500000Y-98699500D03*
D80*
X144400000Y-97727500D03*
X144400000Y-98900000D03*
X139400000Y-124200000D03*
X155030000Y-97690000D03*
D33*
X255300000Y-125720000D03*
D80*
X142200000Y-121400000D03*
D33*
X237340000Y-107900000D03*
X236300000Y-96150000D03*
X42545000Y-158115000D03*
X56300000Y-96750000D03*
X49047000Y-220447000D03*
X34925000Y-113411000D03*
X156200000Y-96200000D03*
X309245000Y-139700000D03*
X294132000Y-140843000D03*
X314680000Y-163470000D03*
X138900000Y-89500000D03*
X34925000Y-119126000D03*
X390000000Y-67500000D03*
X56311000Y-110440000D03*
X156960000Y-100540000D03*
X437460000Y-144540000D03*
X450320000Y-148130000D03*
X37592000Y-181483000D03*
X46880000Y-144540000D03*
X40738021Y-196161979D03*
X82600000Y-118800000D03*
X212850000Y-120039020D03*
X242500020Y-124968364D03*
X213850000Y-120039031D03*
X243200000Y-125800000D03*
X163050000Y-119639500D03*
X244200000Y-125600000D03*
X211650000Y-121900500D03*
X212368400Y-185548000D03*
X61200000Y-124300000D03*
X239522000Y-96266000D03*
X244602000Y-112014000D03*
X244856000Y-95758000D03*
X323596000Y-78994000D03*
M02*
