M48
; DRILL file {KiCad (6.0.0-rc1-458-g78ff9a857a)} date Sat Dec  3 17:04:12 2022
; FORMAT={-:-/ absolute / metric / decimal}
; #@! TF.CreationDate,2022-12-03T17:04:12+01:00
; #@! TF.GenerationSoftware,Kicad,Pcbnew,(6.0.0-rc1-458-g78ff9a857a)
; #@! TF.FileFunction,Plated,1,2,PTH
FMAT,2
METRIC
; #@! TA.AperFunction,Plated,PTH,ViaDrill
T1C0.400
; #@! TA.AperFunction,Plated,PTH,ComponentDrill
T2C0.500
; #@! TA.AperFunction,Plated,PTH,ComponentDrill
T3C0.600
; #@! TA.AperFunction,Plated,PTH,ComponentDrill
T4C0.762
; #@! TA.AperFunction,Plated,PTH,ComponentDrill
T5C0.800
; #@! TA.AperFunction,Plated,PTH,ComponentDrill
T6C0.991
; #@! TA.AperFunction,Plated,PTH,ComponentDrill
T7C1.000
; #@! TA.AperFunction,Plated,PTH,ComponentDrill
T8C1.016
; #@! TA.AperFunction,Plated,PTH,ComponentDrill
T9C1.100
; #@! TA.AperFunction,Plated,PTH,ComponentDrill
T10C1.200
; #@! TA.AperFunction,Plated,PTH,ComponentDrill
T11C1.700
; #@! TA.AperFunction,Plated,PTH,ComponentDrill
T12C3.000
; #@! TA.AperFunction,Plated,PTH,ComponentDrill
T13C3.048
; #@! TA.AperFunction,Plated,PTH,ComponentDrill
T14C3.500
%
G90
G05
T1
X34.925Y-113.411
X34.925Y-119.126
X37.35Y-139.73
X37.592Y-181.483
X40.738Y-196.162
X42.545Y-158.115
X45.2Y-117.0
X46.88Y-144.54
X49.047Y-220.447
X53.4Y-79.3
X55.4Y-119.8
X55.8Y-121.2
X56.3Y-96.75
X56.311Y-110.44
X56.9Y-119.0
X57.4Y-123.9
X58.1Y-95.8
X61.2Y-124.3
X62.9Y-117.8
X82.6Y-118.8
X93.218Y-118.95
X112.8Y-119.15
X131.35Y-119.35
X132.08Y-100.076
X132.7Y-93.2
X132.71Y-97.83
X133.4Y-96.14
X134.2Y-80.3
X138.9Y-89.5
X139.04Y-69.698
X139.4Y-124.2
X140.005Y-69.698
X140.589Y-95.885
X140.97Y-69.698
X141.1Y-95.0
X141.148Y-59.222
X141.148Y-60.122
X141.935Y-69.698
X142.2Y-121.4
X144.4Y-97.727
X144.4Y-98.9
X145.5Y-112.2
X145.55Y-110.15
X145.65Y-119.4
X145.7Y-116.032
X145.8Y-82.9
X145.8Y-83.9
X145.847Y-59.215
X145.847Y-60.115
X152.25Y-110.3
X152.4Y-78.0
X152.4Y-96.8
X153.248Y-96.27
X155.03Y-97.69
X156.2Y-96.2
X156.96Y-100.54
X163.05Y-119.639
X164.33Y-114.93
X183.5Y-114.94
X188.214Y-107.188
X201.82Y-114.92
X207.264Y-107.188
X210.18Y-127.691
X210.247Y-126.694
X211.53Y-148.48
X211.57Y-166.497
X211.65Y-121.9
X212.368Y-185.548
X212.85Y-120.039
X213.85Y-120.039
X221.79Y-113.91
X222.822Y-127.406
X222.977Y-119.65
X223.75Y-112.45
X224.026Y-111.274
X224.028Y-106.871
X224.8Y-94.25
X224.945Y-125.25
X226.441Y-139.827
X226.478Y-107.072
X226.5Y-98.7
X227.803Y-108.397
X228.15Y-128.35
X228.44Y-111.58
X228.44Y-123.37
X228.9Y-68.1
X229.98Y-129.44
X230.0Y-94.25
X230.85Y-103.601
X231.805Y-103.695
X232.3Y-129.476
X232.4Y-104.45
X233.35Y-106.9
X234.0Y-80.5
X234.05Y-81.7
X234.1Y-106.05
X234.8Y-88.25
X235.1Y-104.4
X235.245Y-81.495
X236.3Y-96.15
X237.34Y-107.9
X237.75Y-94.15
X237.75Y-95.1
X238.125Y-105.41
X239.522Y-96.266
X240.1Y-86.6
X240.21Y-111.58
X240.21Y-123.37
X240.4Y-99.6
X240.77Y-197.04
X241.4Y-125.6
X242.5Y-124.968
X243.2Y-125.8
X243.6Y-115.2
X244.2Y-121.8
X244.2Y-125.6
X244.25Y-92.85
X244.602Y-112.014
X244.856Y-95.758
X245.45Y-92.85
X245.872Y-121.666
X245.901Y-112.0
X248.4Y-201.72
X249.3Y-117.776
X250.012Y-130.581
X254.31Y-125.72
X255.1Y-114.66
X255.3Y-125.72
X259.588Y-91.059
X261.59Y-200.07
X261.874Y-139.065
X264.475Y-127.665
X267.41Y-201.08
X269.824Y-130.06
X271.526Y-150.368
X274.26Y-114.65
X279.53Y-180.54
X281.2Y-128.7
X283.845Y-120.777
X285.496Y-199.263
X288.2Y-181.7
X289.18Y-180.85
X290.89Y-161.74
X292.82Y-114.71
X292.89Y-158.74
X294.132Y-140.843
X294.89Y-161.74
X296.3Y-116.8
X307.3Y-126.8
X308.17Y-204.61
X309.245Y-139.7
X311.35Y-181.1
X313.308Y-99.315
X314.68Y-163.47
X320.548Y-149.733
X320.86Y-204.4
X321.208Y-101.575
X322.072Y-80.67
X323.596Y-78.994
X327.352Y-218.718
X334.21Y-197.09
X335.3Y-127.2
X354.4Y-127.5
X357.594Y-116.924
X374.54Y-112.31
X376.16Y-93.55
X376.45Y-100.19
X379.02Y-118.02
X379.02Y-119.47
X379.3Y-68.4
X380.05Y-67.5
X385.826Y-130.81
X388.9Y-142.4
X390.0Y-67.5
X404.773Y-130.659
X423.823Y-130.659
X426.59Y-140.63
X437.46Y-144.54
X446.48Y-208.83
X447.83Y-168.41
X450.32Y-148.13
X453.5Y-139.7
T2
X324.675Y-174.2
X325.444Y-172.344
X325.444Y-176.056
X327.3Y-171.575
X327.3Y-176.825
X329.156Y-172.344
X329.156Y-176.056
X329.925Y-174.2
T4
X232.566Y-71.46
X232.566Y-76.54
X232.694Y-68.92
X232.694Y-74.0
X232.694Y-79.08
X235.106Y-71.46
X235.106Y-76.54
X235.233Y-68.92
X235.233Y-74.0
X235.233Y-79.08
T5
X272.6Y-61.2
X280.22Y-61.2
X287.6Y-61.2
X295.22Y-61.2
X302.6Y-61.2
X310.22Y-61.2
T6
X285.27Y-61.2
X300.27Y-61.2
X315.27Y-61.2
T7
X37.275Y-83.958
X39.275Y-83.958
X41.275Y-83.958
X43.275Y-83.958
X45.275Y-83.958
X376.947Y-65.85
X376.947Y-67.85
X376.947Y-69.85
X376.947Y-71.85
X376.947Y-73.85
T8
X282.73Y-61.2
X297.73Y-61.2
X312.73Y-61.2
T9
X38.775Y-69.458
X41.275Y-69.458
X43.775Y-69.458
X230.25Y-82.45
X230.25Y-86.95
X230.65Y-60.95
X230.65Y-65.45
X236.75Y-82.45
X236.75Y-86.95
X237.15Y-60.95
X237.15Y-65.45
X362.447Y-67.35
X362.447Y-69.85
X362.447Y-72.35
T10
X61.746Y-68.1
X61.746Y-71.6
X135.246Y-68.1
X152.329Y-68.1
X152.329Y-71.6
X225.829Y-68.1
X242.816Y-68.1
X242.816Y-71.6
X316.316Y-68.1
T11
X65.896Y-74.05
X67.096Y-65.65
X129.896Y-65.65
X131.096Y-74.05
X156.479Y-74.05
X157.679Y-65.65
X220.479Y-65.65
X221.679Y-74.05
X246.966Y-74.05
X248.166Y-65.65
X310.966Y-65.65
X312.166Y-74.05
T12
X33.675Y-76.958
X48.875Y-76.958
X369.947Y-62.25
X369.947Y-77.45
T13
X37.433Y-105.442
X37.433Y-134.017
X39.814Y-191.167
X39.814Y-210.217
X42.196Y-153.067
X43.783Y-102.902
X43.783Y-131.477
X44.577Y-172.117
X46.164Y-188.627
X46.164Y-207.677
X48.546Y-150.527
X50.927Y-169.577
X56.483Y-134.017
X61.246Y-191.167
X62.833Y-131.477
X63.627Y-210.217
X66.008Y-86.392
X66.008Y-105.442
X66.008Y-153.067
X67.596Y-188.627
X69.977Y-207.677
X70.771Y-172.117
X72.358Y-83.852
X72.358Y-102.902
X72.358Y-150.527
X75.533Y-134.017
X77.121Y-169.577
X80.296Y-191.167
X81.883Y-131.477
X85.058Y-86.392
X85.058Y-105.442
X85.058Y-153.067
X86.646Y-188.627
X87.439Y-210.217
X89.821Y-172.117
X91.408Y-83.852
X91.408Y-102.902
X91.408Y-150.527
X93.789Y-207.677
X94.583Y-134.017
X96.171Y-169.577
X99.346Y-191.167
X100.933Y-131.477
X104.108Y-86.392
X104.108Y-105.442
X104.108Y-153.067
X105.696Y-188.627
X108.871Y-172.117
X110.458Y-83.852
X110.458Y-102.902
X110.458Y-150.527
X113.633Y-134.017
X115.221Y-169.577
X118.396Y-191.167
X119.983Y-131.477
X123.158Y-86.392
X123.158Y-153.067
X123.16Y-105.44
X124.746Y-188.627
X127.921Y-172.117
X129.508Y-83.852
X129.508Y-150.527
X129.51Y-102.9
X132.683Y-134.017
X134.271Y-169.577
X137.446Y-191.167
X139.033Y-131.477
X142.208Y-153.067
X143.796Y-188.627
X146.971Y-172.117
X148.558Y-150.527
X151.733Y-134.017
X153.321Y-169.577
X156.496Y-191.167
X156.591Y-105.442
X156.591Y-86.392
X158.083Y-131.477
X158.877Y-210.217
X161.258Y-153.067
X162.846Y-188.627
X162.941Y-102.902
X162.941Y-83.852
X165.227Y-207.677
X166.021Y-172.117
X167.608Y-150.527
X170.783Y-134.017
X172.371Y-169.577
X175.546Y-191.167
X175.641Y-105.442
X175.641Y-86.392
X177.133Y-131.477
X180.308Y-153.067
X181.896Y-188.627
X181.991Y-102.902
X181.991Y-83.852
X185.065Y-172.135
X186.658Y-150.527
X189.833Y-134.017
X191.415Y-169.595
X194.596Y-191.167
X194.691Y-86.392
X194.691Y-105.442
X196.183Y-131.477
X199.358Y-153.067
X200.946Y-188.627
X201.041Y-83.852
X201.041Y-102.902
X204.121Y-172.117
X205.708Y-150.527
X208.883Y-134.017
X210.471Y-169.577
X213.646Y-191.167
X213.741Y-86.392
X213.741Y-105.442
X215.233Y-131.477
X218.408Y-153.067
X219.996Y-188.627
X220.091Y-83.852
X220.091Y-102.902
X223.171Y-172.117
X224.758Y-150.527
X227.933Y-134.017
X229.521Y-169.577
X230.314Y-210.217
X232.696Y-191.167
X234.283Y-131.477
X236.664Y-207.677
X237.458Y-153.067
X239.046Y-188.627
X242.221Y-172.117
X243.808Y-150.527
X246.983Y-105.442
X246.983Y-134.017
X246.983Y-86.392
X248.571Y-169.577
X251.746Y-191.167
X253.333Y-102.902
X253.333Y-131.477
X253.333Y-83.852
X254.127Y-210.217
X256.508Y-153.067
X258.096Y-188.627
X260.477Y-207.677
X261.271Y-172.117
X262.858Y-150.527
X266.033Y-86.392
X266.033Y-105.442
X266.033Y-134.017
X267.621Y-169.577
X272.383Y-83.852
X272.383Y-102.902
X272.383Y-131.477
X275.558Y-153.067
X277.94Y-210.217
X280.321Y-172.117
X281.908Y-150.527
X284.289Y-207.677
X285.083Y-86.392
X285.083Y-105.442
X286.671Y-169.577
X287.464Y-191.167
X291.433Y-83.852
X291.433Y-102.902
X293.815Y-188.627
X294.608Y-134.017
X300.958Y-131.477
X301.752Y-162.592
X301.752Y-210.217
X304.133Y-86.392
X304.133Y-105.442
X308.102Y-160.052
X308.102Y-207.677
X310.483Y-83.852
X310.483Y-102.902
X327.946Y-210.248
X327.977Y-67.31
X327.977Y-86.36
X327.977Y-105.41
X327.977Y-133.985
X327.977Y-153.035
X334.296Y-207.708
X334.327Y-64.77
X334.327Y-83.82
X334.327Y-102.87
X334.327Y-131.445
X334.327Y-150.495
X346.996Y-191.198
X346.996Y-210.248
X347.027Y-67.31
X347.027Y-86.36
X347.027Y-105.41
X347.027Y-133.985
X347.027Y-153.035
X353.346Y-188.659
X353.346Y-207.708
X353.377Y-64.77
X353.377Y-83.82
X353.377Y-102.87
X353.377Y-131.445
X353.377Y-150.495
X366.046Y-210.248
X366.077Y-86.36
X366.077Y-105.41
X366.077Y-133.985
X366.077Y-153.035
X372.396Y-207.708
X372.428Y-83.82
X372.428Y-102.87
X372.428Y-131.445
X372.428Y-150.495
X389.858Y-134.048
X389.858Y-153.099
X389.858Y-172.148
X389.858Y-191.198
X396.208Y-131.508
X396.208Y-150.558
X396.208Y-169.608
X396.208Y-188.659
X399.383Y-210.248
X405.733Y-207.708
X408.908Y-134.048
X408.908Y-153.099
X408.908Y-172.148
X408.908Y-191.198
X415.258Y-131.508
X415.258Y-150.558
X415.258Y-169.608
X415.258Y-188.659
X427.958Y-134.048
X427.958Y-153.099
X427.958Y-172.148
X427.958Y-191.198
X427.958Y-210.248
X434.308Y-131.508
X434.308Y-150.558
X434.308Y-169.608
X434.308Y-188.659
X434.308Y-207.708
X447.008Y-134.048
X453.358Y-131.508
X453.358Y-161.353
X453.358Y-199.453
X455.898Y-167.703
X455.898Y-205.803
T14
X327.3Y-174.2
T3
X139.21Y-52.097G85X139.21Y-52.697
G05
X139.21Y-56.047G85X139.21Y-57.148
G05
X147.81Y-52.097G85X147.81Y-52.697
G05
X147.81Y-56.047G85X147.81Y-57.148
G05
T0
M30
