M48
; DRILL file {KiCad (6.0.0-rc1-458-g78ff9a857a)} date Wed Jan 11 21:38:01 2023
; FORMAT={-:-/ absolute / metric / decimal}
; #@! TF.CreationDate,2023-01-11T21:38:01+01:00
; #@! TF.GenerationSoftware,Kicad,Pcbnew,(6.0.0-rc1-458-g78ff9a857a)
; #@! TF.FileFunction,Plated,1,2,PTH
FMAT,2
METRIC
; #@! TA.AperFunction,Plated,PTH,ViaDrill
T1C0.400
; #@! TA.AperFunction,Plated,PTH,ComponentDrill
T2C0.500
; #@! TA.AperFunction,Plated,PTH,ComponentDrill
T3C0.600
; #@! TA.AperFunction,Plated,PTH,ComponentDrill
T4C0.762
; #@! TA.AperFunction,Plated,PTH,ComponentDrill
T5C0.800
; #@! TA.AperFunction,Plated,PTH,ComponentDrill
T6C0.991
; #@! TA.AperFunction,Plated,PTH,ComponentDrill
T7C1.000
; #@! TA.AperFunction,Plated,PTH,ComponentDrill
T8C1.016
; #@! TA.AperFunction,Plated,PTH,ComponentDrill
T9C1.100
; #@! TA.AperFunction,Plated,PTH,ComponentDrill
T10C1.200
; #@! TA.AperFunction,Plated,PTH,ComponentDrill
T11C1.700
; #@! TA.AperFunction,Plated,PTH,ComponentDrill
T12C3.000
; #@! TA.AperFunction,Plated,PTH,ComponentDrill
T13C3.048
; #@! TA.AperFunction,Plated,PTH,ComponentDrill
T14C3.500
%
G90
G05
T1
X37.4Y-89.886
X37.4Y-95.601
X39.825Y-116.205
X40.067Y-157.958
X43.213Y-172.637
X45.02Y-134.59
X47.675Y-93.475
X49.355Y-121.015
X51.522Y-196.922
X55.875Y-55.775
X57.875Y-96.275
X58.275Y-97.675
X58.475Y-94.116
X58.775Y-73.225
X58.786Y-87.175
X59.775Y-71.675
X59.875Y-100.375
X63.675Y-100.775
X65.375Y-94.275
X85.075Y-95.275
X95.693Y-95.425
X115.275Y-95.625
X133.825Y-95.825
X134.555Y-76.551
X134.825Y-69.675
X135.185Y-74.305
X135.875Y-72.615
X136.675Y-56.775
X141.375Y-65.975
X141.515Y-46.173
X141.875Y-100.675
X142.48Y-46.173
X143.064Y-72.36
X143.445Y-46.173
X143.575Y-71.475
X143.623Y-35.697
X143.623Y-36.597
X144.41Y-46.173
X144.675Y-97.875
X146.875Y-74.203
X146.875Y-75.375
X147.975Y-88.675
X148.025Y-86.625
X148.125Y-95.875
X148.175Y-92.507
X148.275Y-59.375
X148.275Y-60.375
X148.322Y-35.69
X148.322Y-36.59
X154.725Y-86.775
X154.875Y-54.475
X154.875Y-73.275
X155.723Y-72.745
X157.505Y-74.165
X158.675Y-72.675
X159.435Y-77.015
X165.525Y-96.114
X166.805Y-91.405
X185.975Y-91.415
X190.689Y-83.663
X204.295Y-91.395
X209.739Y-83.663
X212.655Y-104.166
X212.722Y-103.169
X214.005Y-124.955
X214.045Y-142.972
X214.125Y-98.376
X214.843Y-162.023
X215.325Y-96.514
X216.325Y-96.514
X224.265Y-90.385
X225.297Y-103.881
X225.452Y-96.125
X226.225Y-88.925
X226.501Y-87.749
X226.503Y-83.346
X227.275Y-70.725
X227.42Y-101.725
X228.425Y-83.975
X228.916Y-116.302
X228.975Y-75.725
X230.278Y-84.872
X230.625Y-104.825
X230.915Y-88.055
X230.915Y-99.845
X231.224Y-45.411
X232.455Y-105.915
X232.475Y-70.725
X233.325Y-80.076
X234.28Y-80.17
X234.775Y-105.951
X234.875Y-80.925
X235.825Y-83.375
X236.128Y-57.322
X236.511Y-58.225
X236.575Y-82.525
X237.275Y-64.725
X237.575Y-80.875
X237.603Y-58.086
X238.775Y-72.625
X239.815Y-84.375
X240.225Y-70.625
X240.225Y-71.575
X240.6Y-81.885
X241.997Y-72.741
X242.575Y-63.075
X242.685Y-88.055
X242.685Y-99.845
X242.875Y-76.075
X243.245Y-173.515
X243.875Y-102.075
X244.975Y-101.443
X245.675Y-102.275
X246.075Y-91.675
X246.675Y-98.275
X246.675Y-102.075
X246.725Y-69.325
X247.077Y-88.489
X247.331Y-72.233
X247.925Y-69.325
X248.347Y-98.141
X248.376Y-88.475
X250.875Y-178.195
X251.775Y-94.251
X252.487Y-107.056
X256.785Y-102.195
X257.575Y-91.135
X257.775Y-102.195
X262.063Y-67.534
X264.065Y-176.545
X264.349Y-115.54
X266.95Y-104.14
X272.299Y-106.535
X273.825Y-178.275
X274.001Y-126.843
X276.735Y-91.125
X282.005Y-157.015
X283.675Y-105.175
X286.32Y-97.252
X287.971Y-175.738
X290.675Y-158.175
X291.655Y-157.325
X293.365Y-138.215
X295.295Y-91.185
X295.365Y-135.215
X296.607Y-117.318
X297.365Y-138.215
X298.775Y-93.275
X309.775Y-103.275
X310.645Y-181.085
X311.72Y-116.175
X313.825Y-157.575
X315.783Y-75.79
X317.155Y-139.945
X323.023Y-126.208
X323.335Y-180.875
X323.683Y-78.05
X324.547Y-57.145
X326.071Y-55.469
X329.025Y-176.475
X329.827Y-195.192
X337.775Y-103.675
X338.575Y-176.675
X356.875Y-103.975
X360.069Y-93.399
X377.015Y-88.785
X377.525Y-176.075
X378.635Y-70.025
X378.925Y-76.665
X381.495Y-94.495
X381.495Y-95.945
X381.775Y-44.875
X382.525Y-43.975
X388.301Y-107.285
X391.375Y-118.875
X392.475Y-43.975
X407.248Y-107.134
X426.298Y-107.134
X429.065Y-117.105
X439.935Y-121.015
X448.955Y-185.305
X450.305Y-144.885
X452.795Y-124.605
X455.975Y-116.175
T2
X327.15Y-150.675
X327.919Y-148.819
X327.919Y-152.531
X329.775Y-148.05
X329.775Y-153.3
X331.631Y-148.819
X331.631Y-152.531
X332.4Y-150.675
T4
X233.809Y-45.411
X233.809Y-50.491
X233.809Y-55.571
X233.936Y-47.951
X233.936Y-53.031
X236.345Y-45.411
X236.345Y-50.491
X236.345Y-55.571
X236.472Y-47.951
X236.472Y-53.031
X238.885Y-45.411
X238.885Y-50.491
X238.885Y-55.571
X239.012Y-47.951
X239.012Y-53.031
T5
X275.075Y-37.675
X282.695Y-37.675
X290.075Y-37.675
X297.695Y-37.675
X305.075Y-37.675
X312.695Y-37.675
T6
X287.745Y-37.675
X302.745Y-37.675
X317.745Y-37.675
T7
X39.75Y-60.433
X41.75Y-60.433
X43.75Y-60.433
X45.75Y-60.433
X47.75Y-60.433
X379.422Y-42.325
X379.422Y-44.325
X379.422Y-46.325
X379.422Y-48.325
X379.422Y-50.325
T8
X285.205Y-37.675
X300.205Y-37.675
X315.205Y-37.675
T9
X41.25Y-45.933
X43.75Y-45.933
X46.25Y-45.933
X232.725Y-58.925
X232.725Y-63.425
X233.125Y-37.425
X233.125Y-41.925
X239.225Y-58.925
X239.225Y-63.425
X239.625Y-37.425
X239.625Y-41.925
X364.922Y-43.825
X364.922Y-46.325
X364.922Y-48.825
T10
X64.221Y-44.575
X64.221Y-48.075
X137.721Y-44.575
X154.804Y-44.575
X154.804Y-48.075
X228.304Y-44.575
X245.291Y-44.575
X245.291Y-48.075
X318.791Y-44.575
T11
X68.371Y-50.525
X69.571Y-42.125
X132.371Y-42.125
X133.571Y-50.525
X158.954Y-50.525
X160.154Y-42.125
X222.954Y-42.125
X224.154Y-50.525
X249.441Y-50.525
X250.641Y-42.125
X313.441Y-42.125
X314.642Y-50.525
T12
X36.15Y-53.433
X51.35Y-53.433
X372.422Y-38.725
X372.422Y-53.925
T13
X39.908Y-81.917
X39.908Y-110.492
X42.289Y-167.642
X42.289Y-186.692
X44.671Y-129.542
X46.258Y-79.377
X46.258Y-107.952
X47.052Y-148.592
X48.639Y-165.102
X48.639Y-184.152
X51.021Y-127.002
X53.402Y-146.052
X58.958Y-110.492
X63.721Y-167.642
X65.308Y-107.952
X66.102Y-186.692
X68.483Y-62.867
X68.483Y-81.917
X68.483Y-129.542
X70.071Y-165.102
X72.452Y-184.152
X73.246Y-148.592
X74.833Y-60.327
X74.833Y-79.377
X74.833Y-127.002
X78.008Y-110.492
X79.596Y-146.052
X82.771Y-167.642
X84.358Y-107.952
X87.533Y-62.867
X87.533Y-81.917
X87.533Y-129.542
X89.121Y-165.102
X89.914Y-186.692
X92.296Y-148.592
X93.883Y-60.327
X93.883Y-79.377
X93.883Y-127.002
X96.264Y-184.152
X97.058Y-110.492
X98.646Y-146.052
X101.821Y-167.642
X103.408Y-107.952
X106.583Y-62.867
X106.583Y-81.917
X106.583Y-129.542
X108.171Y-165.102
X111.346Y-148.592
X112.933Y-60.327
X112.933Y-79.377
X112.933Y-127.002
X116.108Y-110.492
X117.696Y-146.052
X120.865Y-186.685
X120.871Y-167.642
X122.458Y-107.952
X125.633Y-62.867
X125.633Y-129.542
X125.635Y-81.915
X127.215Y-184.145
X127.221Y-165.102
X130.396Y-148.592
X131.983Y-60.327
X131.983Y-127.002
X131.985Y-79.375
X135.158Y-110.492
X136.746Y-146.052
X139.921Y-167.642
X139.925Y-186.675
X141.508Y-107.952
X144.683Y-129.542
X146.271Y-165.102
X146.275Y-184.135
X149.446Y-148.592
X151.033Y-127.002
X154.208Y-110.492
X155.796Y-146.052
X158.971Y-167.642
X159.066Y-81.917
X159.066Y-62.867
X160.558Y-107.952
X161.352Y-186.692
X163.733Y-129.542
X165.321Y-165.102
X165.416Y-79.377
X165.416Y-60.327
X167.702Y-184.152
X168.496Y-148.592
X170.083Y-127.002
X173.258Y-110.492
X174.846Y-146.052
X178.021Y-167.642
X178.116Y-81.917
X178.116Y-62.867
X179.608Y-107.952
X182.783Y-129.542
X184.371Y-165.102
X184.466Y-79.377
X184.466Y-60.327
X187.54Y-148.61
X189.133Y-127.002
X192.308Y-110.492
X193.89Y-146.07
X197.065Y-186.685
X197.071Y-167.642
X197.166Y-62.867
X197.166Y-81.917
X198.658Y-107.952
X201.833Y-129.542
X203.415Y-184.145
X203.421Y-165.102
X203.516Y-60.327
X203.516Y-79.377
X206.596Y-148.592
X208.183Y-127.002
X211.358Y-110.492
X212.946Y-146.052
X216.121Y-167.642
X216.216Y-62.867
X216.216Y-81.917
X217.708Y-107.952
X220.883Y-129.542
X222.471Y-165.102
X222.566Y-60.327
X222.566Y-79.377
X225.646Y-148.592
X227.233Y-127.002
X230.408Y-110.492
X231.996Y-146.052
X232.789Y-186.692
X235.171Y-167.642
X236.758Y-107.952
X239.139Y-184.152
X239.933Y-129.542
X241.521Y-165.102
X244.696Y-148.592
X246.283Y-127.002
X249.458Y-81.917
X249.458Y-110.492
X249.458Y-62.867
X251.046Y-146.052
X254.221Y-167.642
X255.808Y-79.377
X255.808Y-107.952
X255.808Y-60.327
X256.602Y-186.692
X258.983Y-129.542
X260.571Y-165.102
X262.952Y-184.152
X263.746Y-148.592
X265.333Y-127.002
X268.508Y-62.867
X268.508Y-81.917
X268.508Y-110.492
X270.096Y-146.052
X274.858Y-60.327
X274.858Y-79.377
X274.858Y-107.952
X278.033Y-129.542
X280.414Y-186.692
X282.796Y-148.592
X284.383Y-127.002
X286.764Y-184.152
X287.558Y-62.867
X287.558Y-81.917
X289.146Y-146.052
X289.94Y-167.642
X293.908Y-60.327
X293.908Y-79.377
X296.289Y-165.102
X297.083Y-110.492
X303.433Y-107.952
X304.227Y-139.067
X304.227Y-186.692
X306.608Y-62.867
X306.608Y-81.917
X310.577Y-136.527
X310.577Y-184.152
X312.958Y-60.327
X312.958Y-79.377
X330.421Y-186.724
X330.425Y-167.675
X330.452Y-43.785
X330.452Y-62.835
X330.452Y-81.885
X330.452Y-110.46
X330.452Y-129.51
X336.771Y-184.183
X336.775Y-165.135
X336.803Y-41.245
X336.803Y-60.295
X336.803Y-79.345
X336.803Y-107.92
X336.803Y-126.97
X349.471Y-167.673
X349.471Y-186.724
X349.502Y-43.785
X349.502Y-62.835
X349.502Y-81.885
X349.502Y-110.46
X349.502Y-129.51
X355.821Y-165.133
X355.821Y-184.183
X355.852Y-41.245
X355.852Y-60.295
X355.852Y-79.345
X355.852Y-107.92
X355.852Y-126.97
X368.515Y-167.66
X368.521Y-186.724
X368.553Y-62.835
X368.553Y-81.885
X368.553Y-110.46
X368.553Y-129.51
X374.865Y-165.12
X374.871Y-184.183
X374.902Y-60.295
X374.902Y-79.345
X374.902Y-107.92
X374.902Y-126.97
X392.333Y-110.523
X392.333Y-129.573
X392.333Y-148.624
X392.333Y-167.673
X398.683Y-107.983
X398.683Y-127.033
X398.683Y-146.083
X398.683Y-165.133
X401.858Y-186.724
X408.208Y-184.183
X411.383Y-110.523
X411.383Y-129.573
X411.383Y-148.624
X411.383Y-167.673
X417.733Y-107.983
X417.733Y-127.033
X417.733Y-146.083
X417.733Y-165.133
X430.433Y-110.523
X430.433Y-129.573
X430.433Y-148.624
X430.433Y-167.673
X430.433Y-186.724
X436.783Y-107.983
X436.783Y-127.033
X436.783Y-146.083
X436.783Y-165.133
X436.783Y-184.183
X449.483Y-110.523
X455.833Y-107.983
X455.833Y-137.828
X455.833Y-175.928
X458.373Y-144.178
X458.373Y-182.278
T14
X329.775Y-150.675
T3
X141.685Y-28.572G85X141.685Y-29.172
G05
X141.685Y-32.523G85X141.685Y-33.622
G05
X150.285Y-28.572G85X150.285Y-29.172
G05
X150.285Y-32.523G85X150.285Y-33.622
G05
T0
M30
