G04 #@! TF.GenerationSoftware,KiCad,Pcbnew,(6.0.0-rc1-458-g78ff9a857a)*
G04 #@! TF.CreationDate,2022-12-04T21:38:43+01:00*
G04 #@! TF.ProjectId,berlin,6265726c-696e-42e6-9b69-6361645f7063,rev?*
G04 #@! TF.SameCoordinates,Original*
G04 #@! TF.FileFunction,Soldermask,Top*
G04 #@! TF.FilePolarity,Negative*
%FSLAX46Y46*%
G04 Gerber Fmt 4.6, Leading zero omitted, Abs format (unit mm)*
G04 Created by KiCad (PCBNEW (6.0.0-rc1-458-g78ff9a857a)) date 2022-12-04 21:38:43*
%MOMM*%
%LPD*%
G01*
G04 APERTURE LIST*
G04 Aperture macros list*
%AMRoundRect*
0 Rectangle with rounded corners*
0 $1 Rounding radius*
0 $2 $3 $4 $5 $6 $7 $8 $9 X,Y pos of 4 corners*
0 Add a 4 corners polygon primitive as box body*
4,1,4,$2,$3,$4,$5,$6,$7,$8,$9,$2,$3,0*
0 Add four circle primitives for the rounded corners*
1,1,$1+$1,$2,$3*
1,1,$1+$1,$4,$5*
1,1,$1+$1,$6,$7*
1,1,$1+$1,$8,$9*
0 Add four rect primitives between the rounded corners*
20,1,$1+$1,$2,$3,$4,$5,0*
20,1,$1+$1,$4,$5,$6,$7,0*
20,1,$1+$1,$6,$7,$8,$9,0*
20,1,$1+$1,$8,$9,$2,$3,0*%
G04 Aperture macros list end*
%ADD10C,4.250000*%
%ADD11C,1.778000*%
%ADD12RoundRect,0.177800X-0.711200X-0.711200X0.711200X-0.711200X0.711200X0.711200X-0.711200X0.711200X0*%
%ADD13C,1.800000*%
%ADD14R,2.000000X2.000000*%
%ADD15C,2.000000*%
%ADD16R,4.000000X3.000000*%
%ADD17R,3.000000X4.000000*%
%ADD18C,1.596000*%
%ADD19R,1.750000X1.750000*%
%ADD20C,1.750000*%
%ADD21C,2.700000*%
%ADD22C,0.800000*%
%ADD23C,7.000000*%
%ADD24R,1.524000X1.524000*%
%ADD25O,1.524000X1.524000*%
%ADD26C,3.600000*%
%ADD27C,1.701800*%
%ADD28C,3.987800*%
%ADD29C,3.048000*%
%ADD30C,0.650000*%
%ADD31O,1.100000X2.200000*%
%ADD32O,1.300000X1.900000*%
%ADD33C,1.600000*%
%ADD34O,1.600000X1.600000*%
%ADD35C,1.000000*%
%ADD36C,1.200000*%
G04 APERTURE END LIST*
D10*
X231737500Y-141590500D03*
X60287500Y-141605000D03*
X126800000Y-217800000D03*
X250787500Y-113015500D03*
X136487500Y-141590500D03*
X198500000Y-113250000D03*
X67399500Y-217790500D03*
X179540500Y-94092500D03*
X69850000Y-93980000D03*
D11*
X297730000Y-61200000D03*
D12*
X300270000Y-61200000D03*
D10*
X184112500Y-160640500D03*
X246088500Y-179690500D03*
X160490500Y-94092500D03*
D13*
X376947000Y-65850000D03*
D14*
X362447000Y-67350000D03*
D15*
X362447000Y-72350000D03*
D13*
X376947000Y-67850000D03*
D15*
X362447000Y-69850000D03*
D13*
X376947000Y-71850000D03*
D16*
X369947000Y-62250000D03*
X369947000Y-77450000D03*
D13*
X376947000Y-73850000D03*
X376947000Y-69850000D03*
D10*
X198500000Y-217800000D03*
X126962500Y-160640500D03*
X155537500Y-141590500D03*
X162776500Y-217790500D03*
X331813500Y-160640500D03*
X198463500Y-198740500D03*
X250787500Y-93965500D03*
X207988500Y-179690500D03*
X393662500Y-141590500D03*
X74638500Y-179690500D03*
X331813500Y-93965500D03*
X127000000Y-93980000D03*
X369913500Y-113015500D03*
X350863500Y-113015500D03*
X241262500Y-160640500D03*
X217650000Y-113250000D03*
X331813500Y-141717500D03*
X174587500Y-141590500D03*
X107912500Y-113015500D03*
X43650500Y-217790500D03*
X412712500Y-160767500D03*
X212687500Y-141590500D03*
D13*
X45275000Y-83958000D03*
D14*
X43775000Y-69458000D03*
D13*
X43275000Y-83958000D03*
D15*
X38775000Y-69458000D03*
X41275000Y-69458000D03*
D13*
X39275000Y-83958000D03*
D17*
X48875000Y-76958000D03*
X33675000Y-76958000D03*
D13*
X37275000Y-83958000D03*
X41275000Y-83958000D03*
D10*
X107912500Y-160640500D03*
X269837500Y-93965500D03*
X46063500Y-160640500D03*
X445430000Y-203430000D03*
X107950000Y-93980000D03*
X412712500Y-141590500D03*
X48349500Y-179690500D03*
X98387500Y-141605000D03*
X146012500Y-160640500D03*
D18*
X33000000Y-60000000D03*
D10*
X350863500Y-141717500D03*
X179286500Y-198740500D03*
X169761500Y-179690500D03*
X412810000Y-198820000D03*
X350780000Y-198820000D03*
X69812500Y-160640500D03*
X350863500Y-217917500D03*
X284188500Y-179690500D03*
D19*
X61746250Y-68100000D03*
D20*
X61746250Y-71600000D03*
X135246250Y-68100000D03*
D21*
X131096250Y-74050000D03*
X65896250Y-74050000D03*
X67096250Y-65650000D03*
X129896250Y-65650000D03*
D10*
X84163500Y-198740500D03*
X222212500Y-160640500D03*
X350863500Y-160640500D03*
D11*
X312730000Y-61200000D03*
D12*
X315270000Y-61200000D03*
D10*
X298412500Y-141590500D03*
X260312500Y-160640500D03*
X369913500Y-141717500D03*
X91275500Y-217790500D03*
X445590000Y-165430000D03*
X227038500Y-179690500D03*
X431762500Y-217917500D03*
X369913500Y-217917500D03*
D11*
X282730000Y-61200000D03*
D12*
X285270000Y-61200000D03*
D10*
X217640500Y-94092500D03*
X431762500Y-160767500D03*
X450812500Y-141590500D03*
X403225000Y-217805000D03*
D22*
X329156155Y-172343845D03*
X327300000Y-176825000D03*
X329925000Y-174200000D03*
X325443845Y-176056155D03*
X325443845Y-172343845D03*
X327300000Y-171575000D03*
X329156155Y-176056155D03*
X324675000Y-174200000D03*
D23*
X327300000Y-174200000D03*
D18*
X460500000Y-222500000D03*
D10*
X431762500Y-198740500D03*
X188811500Y-179690500D03*
X431762500Y-141590500D03*
X291300500Y-198740500D03*
D15*
X230650000Y-60950000D03*
X237150000Y-60950000D03*
X237150000Y-65450000D03*
X230650000Y-65450000D03*
D10*
X431762500Y-179817500D03*
X269837500Y-113015500D03*
X103213500Y-198740500D03*
X279350000Y-160550000D03*
X369913500Y-160640500D03*
X369875000Y-198925000D03*
X265138500Y-179690500D03*
X141186500Y-198740500D03*
X369913500Y-93965500D03*
D24*
X232693500Y-68920000D03*
D25*
X235233500Y-68920000D03*
X232566500Y-71460000D03*
X235106500Y-71460000D03*
X232693500Y-74000000D03*
X235233500Y-74000000D03*
X232566500Y-76540000D03*
X235106500Y-76540000D03*
X232693500Y-79080000D03*
X235233500Y-79080000D03*
D10*
X65113500Y-198740500D03*
X288887500Y-93965500D03*
X43650500Y-198740500D03*
X257937000Y-217790500D03*
X93688500Y-179690500D03*
D18*
X33000000Y-222500000D03*
D10*
X179450000Y-113250000D03*
X41237500Y-141605000D03*
X393760000Y-198820000D03*
X331450000Y-199200000D03*
X307937500Y-113015500D03*
X88862500Y-160640500D03*
X126962500Y-113015500D03*
X250787500Y-141590500D03*
X305562000Y-170673500D03*
X331813500Y-217917500D03*
X41100000Y-113650000D03*
X307937500Y-93965500D03*
X88900000Y-93980000D03*
X117437500Y-141590500D03*
X255660000Y-199040000D03*
X393662500Y-160767500D03*
X331813500Y-113015500D03*
X112738500Y-179690500D03*
X234150500Y-217790500D03*
X131661500Y-179690500D03*
X203162500Y-160640500D03*
X88862500Y-113015500D03*
X281686000Y-217790500D03*
X165062500Y-160640500D03*
D19*
X242816500Y-68100000D03*
D20*
X242816500Y-71600000D03*
X316316500Y-68100000D03*
D21*
X310966500Y-65650000D03*
X312166500Y-74050000D03*
X246966500Y-74050000D03*
X248166500Y-65650000D03*
D10*
X393662500Y-179817500D03*
X288887500Y-113015500D03*
X269875000Y-141605000D03*
X217513500Y-198740500D03*
X122136500Y-198740500D03*
X160400000Y-113250000D03*
X236563500Y-198740500D03*
X350863500Y-74915500D03*
X305524500Y-217790500D03*
X79337500Y-141605000D03*
X150711500Y-179690500D03*
D19*
X152329000Y-68100000D03*
D20*
X152329000Y-71600000D03*
X225829000Y-68100000D03*
D21*
X221679000Y-74050000D03*
X156479000Y-74050000D03*
X157679000Y-65650000D03*
X220479000Y-65650000D03*
D10*
X331813500Y-74915500D03*
X198590500Y-94092500D03*
X160236500Y-198740500D03*
X350863500Y-93965500D03*
D18*
X460500000Y-60000000D03*
D10*
X193637500Y-141590500D03*
X412712500Y-179817500D03*
X69812500Y-113015500D03*
D26*
X166020750Y-172116750D03*
D27*
X174910750Y-174656750D03*
D26*
X172370750Y-169576750D03*
D27*
X164750750Y-174656750D03*
D28*
X169830750Y-174656750D03*
X279368250Y-155606750D03*
D27*
X284448250Y-155606750D03*
D26*
X281908250Y-150526750D03*
D27*
X274288250Y-155606750D03*
D26*
X275558250Y-153066750D03*
X143795750Y-188626750D03*
D27*
X136175750Y-193706750D03*
D28*
X141255750Y-193706750D03*
D26*
X137445750Y-191166750D03*
D27*
X146335750Y-193706750D03*
D26*
X272383250Y-102901750D03*
D27*
X274923250Y-107981750D03*
D26*
X266033250Y-105441750D03*
D28*
X269843250Y-107981750D03*
D27*
X264763250Y-107981750D03*
D26*
X389858250Y-191198500D03*
D27*
X398748250Y-193738500D03*
D28*
X393668250Y-193738500D03*
D27*
X388588250Y-193738500D03*
D26*
X396208250Y-188658500D03*
D28*
X350805750Y-193738500D03*
D27*
X345725750Y-193738500D03*
D26*
X353345750Y-188658500D03*
D27*
X355885750Y-193738500D03*
D26*
X346995750Y-191198500D03*
D28*
X174593250Y-136556750D03*
D26*
X170783250Y-134016750D03*
X177133250Y-131476750D03*
D27*
X179673250Y-136556750D03*
X169513250Y-136556750D03*
D28*
X136493250Y-136556750D03*
D26*
X139033250Y-131476750D03*
D27*
X131413250Y-136556750D03*
X141573250Y-136556750D03*
D26*
X132683250Y-134016750D03*
X347027500Y-153035000D03*
X353377500Y-150495000D03*
D27*
X345757500Y-155575000D03*
D28*
X350837500Y-155575000D03*
D27*
X355917500Y-155575000D03*
D26*
X110458250Y-83851750D03*
D27*
X112998250Y-88931750D03*
X102838250Y-88931750D03*
D28*
X107918250Y-88931750D03*
D26*
X104108250Y-86391750D03*
X246983410Y-86391750D03*
D27*
X245713410Y-88931750D03*
X255873410Y-88931750D03*
D26*
X253333410Y-83851750D03*
D28*
X250793410Y-88931750D03*
D29*
X457803250Y-177101500D03*
D27*
X450818250Y-160083500D03*
D28*
X442563250Y-153225500D03*
D26*
X455898250Y-167703500D03*
X453358250Y-161353500D03*
D28*
X450818250Y-165163500D03*
D27*
X450818250Y-170243500D03*
D29*
X457803250Y-153225500D03*
D28*
X442563250Y-177101500D03*
D27*
X293973250Y-88931750D03*
D26*
X291433250Y-83851750D03*
X285083250Y-86391750D03*
D27*
X283813250Y-88931750D03*
D28*
X288893250Y-88931750D03*
X126970000Y-107980000D03*
D26*
X123160000Y-105440000D03*
X129510000Y-102900000D03*
D27*
X121890000Y-107980000D03*
X132050000Y-107980000D03*
D26*
X427958250Y-172148500D03*
D27*
X436848250Y-174688500D03*
X426688250Y-174688500D03*
D28*
X431768250Y-174688500D03*
D26*
X434308250Y-169608500D03*
X334327500Y-64770000D03*
D28*
X331787500Y-69850000D03*
D26*
X327977500Y-67310000D03*
D27*
X336867500Y-69850000D03*
X326707500Y-69850000D03*
D26*
X158083250Y-131476750D03*
X151733250Y-134016750D03*
D28*
X155543250Y-136556750D03*
D27*
X150463250Y-136556750D03*
X160623250Y-136556750D03*
D28*
X331787500Y-136525000D03*
D26*
X334327500Y-131445000D03*
D27*
X326707500Y-136525000D03*
X336867500Y-136525000D03*
D26*
X327977500Y-133985000D03*
D27*
X132048250Y-155606750D03*
D26*
X129508250Y-150526750D03*
D28*
X126968250Y-155606750D03*
D27*
X121888250Y-155606750D03*
D26*
X123158250Y-153066750D03*
D27*
X263017000Y-212756750D03*
D26*
X260477000Y-207676750D03*
D28*
X257937000Y-212756750D03*
D26*
X254127000Y-210216750D03*
D27*
X252857000Y-212756750D03*
D26*
X61245750Y-191166750D03*
X67595750Y-188626750D03*
D27*
X59975750Y-193706750D03*
D28*
X65055750Y-193706750D03*
D27*
X70135750Y-193706750D03*
D26*
X262858250Y-150526750D03*
X256508250Y-153066750D03*
D28*
X260318250Y-155606750D03*
D27*
X265398250Y-155606750D03*
X255238250Y-155606750D03*
D28*
X122200000Y-212750000D03*
D27*
X127280000Y-212750000D03*
D26*
X118390000Y-210210000D03*
D27*
X117120000Y-212750000D03*
D26*
X124740000Y-207670000D03*
X127920750Y-172116750D03*
X134270750Y-169576750D03*
D27*
X126650750Y-174656750D03*
X136810750Y-174656750D03*
D28*
X131730750Y-174656750D03*
X184118250Y-155606750D03*
D26*
X180308250Y-153066750D03*
D27*
X189198250Y-155606750D03*
X179038250Y-155606750D03*
D26*
X186658250Y-150526750D03*
D28*
X160305750Y-193706750D03*
D27*
X155225750Y-193706750D03*
D26*
X156495750Y-191166750D03*
D27*
X165385750Y-193706750D03*
D26*
X162845750Y-188626750D03*
D15*
X230250000Y-82450000D03*
X236750000Y-82450000D03*
X230250000Y-86950000D03*
X236750000Y-86950000D03*
D27*
X260635750Y-193706750D03*
D26*
X258095750Y-188626750D03*
D28*
X255555750Y-193706750D03*
D27*
X250475750Y-193706750D03*
D26*
X251745750Y-191166750D03*
X310483250Y-83851750D03*
D27*
X313023250Y-88931750D03*
D26*
X304133250Y-86391750D03*
D27*
X302863250Y-88931750D03*
D28*
X307943250Y-88931750D03*
D27*
X374967500Y-107950000D03*
D28*
X369887500Y-107950000D03*
D26*
X366077500Y-105410000D03*
D27*
X364807500Y-107950000D03*
D26*
X372427500Y-102870000D03*
D30*
X140620000Y-56046500D03*
X146400000Y-56046500D03*
D31*
X139210000Y-56597500D03*
D32*
X147810000Y-52397500D03*
X139210000Y-52397500D03*
D31*
X147810000Y-56597500D03*
D26*
X285083250Y-105441750D03*
X291433250Y-102901750D03*
D27*
X293973250Y-107981750D03*
D28*
X288893250Y-107981750D03*
D27*
X283813250Y-107981750D03*
D26*
X66008250Y-105441750D03*
D28*
X69818250Y-107981750D03*
D26*
X72358250Y-102901750D03*
D27*
X64738250Y-107981750D03*
X74898250Y-107981750D03*
D26*
X69977000Y-207676750D03*
X63627000Y-210216750D03*
D27*
X62357000Y-212756750D03*
X72517000Y-212756750D03*
D28*
X67437000Y-212756750D03*
D27*
X246348250Y-155606750D03*
D28*
X241268250Y-155606750D03*
D26*
X237458250Y-153066750D03*
X243808250Y-150526750D03*
D27*
X236188250Y-155606750D03*
D28*
X284130750Y-174656750D03*
D27*
X289210750Y-174656750D03*
D26*
X286670750Y-169576750D03*
X280320750Y-172116750D03*
D27*
X279050750Y-174656750D03*
D29*
X443833250Y-191325500D03*
D28*
X459073250Y-191325500D03*
D27*
X450818250Y-208343500D03*
D28*
X459073250Y-215201500D03*
D27*
X450818250Y-198183500D03*
D29*
X443833250Y-215201500D03*
D26*
X455898250Y-205803500D03*
X453358250Y-199453500D03*
D28*
X450818250Y-203263500D03*
X331760000Y-193740000D03*
D27*
X336840000Y-193740000D03*
D26*
X327950000Y-191200000D03*
X334300000Y-188660000D03*
D27*
X326680000Y-193740000D03*
D26*
X153320750Y-169576750D03*
D27*
X155860750Y-174656750D03*
D28*
X150780750Y-174656750D03*
D27*
X145700750Y-174656750D03*
D26*
X146970750Y-172116750D03*
D28*
X246030750Y-174656750D03*
D26*
X248570750Y-169576750D03*
D27*
X240950750Y-174656750D03*
X251110750Y-174656750D03*
D26*
X242220750Y-172116750D03*
D28*
X412718250Y-193738500D03*
D27*
X407638250Y-193738500D03*
D26*
X408908250Y-191198500D03*
X415258250Y-188658500D03*
D27*
X417798250Y-193738500D03*
D29*
X286480250Y-129571750D03*
D28*
X298418250Y-136556750D03*
X286480250Y-144811750D03*
D27*
X303498250Y-136556750D03*
X293338250Y-136556750D03*
D26*
X300958250Y-131476750D03*
D29*
X310356250Y-129571750D03*
D28*
X310356250Y-144811750D03*
D26*
X294608250Y-134016750D03*
D27*
X222631000Y-88931750D03*
D28*
X217551000Y-88931750D03*
D26*
X213741000Y-86391750D03*
X220091000Y-83851750D03*
D27*
X212471000Y-88931750D03*
X83788250Y-107981750D03*
D28*
X88868250Y-107981750D03*
D26*
X85058250Y-105441750D03*
D27*
X93948250Y-107981750D03*
D26*
X91408250Y-102901750D03*
X50927000Y-169576750D03*
D28*
X48387000Y-174656750D03*
D27*
X43307000Y-174656750D03*
X53467000Y-174656750D03*
D26*
X44577000Y-172116750D03*
X415258250Y-131508500D03*
X408908250Y-134048500D03*
D27*
X407638250Y-136588500D03*
X417798250Y-136588500D03*
D28*
X412718250Y-136588500D03*
X162687000Y-212756750D03*
D29*
X212725000Y-205771750D03*
D28*
X212725000Y-221011750D03*
D29*
X112649000Y-205771750D03*
D26*
X158877000Y-210216750D03*
D27*
X157607000Y-212756750D03*
D26*
X165227000Y-207676750D03*
D28*
X112649000Y-221011750D03*
D27*
X167767000Y-212756750D03*
D26*
X42195750Y-153066750D03*
D27*
X51085750Y-155606750D03*
D28*
X46005750Y-155606750D03*
D27*
X40925750Y-155606750D03*
D26*
X48545750Y-150526750D03*
D28*
X117443250Y-136556750D03*
D27*
X122523250Y-136556750D03*
D26*
X119983250Y-131476750D03*
X113633250Y-134016750D03*
D27*
X112363250Y-136556750D03*
X198088250Y-155606750D03*
X208248250Y-155606750D03*
D26*
X199358250Y-153066750D03*
D28*
X203168250Y-155606750D03*
D26*
X205708250Y-150526750D03*
X181991106Y-83851750D03*
D27*
X184531106Y-88931750D03*
X174371106Y-88931750D03*
D28*
X179451106Y-88931750D03*
D26*
X175641106Y-86391750D03*
D27*
X48704500Y-193706750D03*
D26*
X46164500Y-188626750D03*
D28*
X43624500Y-193706750D03*
D26*
X39814500Y-191166750D03*
D27*
X38544500Y-193706750D03*
D26*
X104108250Y-153066750D03*
D27*
X112998250Y-155606750D03*
D28*
X107918250Y-155606750D03*
D26*
X110458250Y-150526750D03*
D27*
X102838250Y-155606750D03*
X255873250Y-107981750D03*
D28*
X250793250Y-107981750D03*
D27*
X245713250Y-107981750D03*
D26*
X246983250Y-105441750D03*
X253333250Y-102901750D03*
D27*
X436848250Y-136588500D03*
D28*
X431768250Y-136588500D03*
D26*
X427958250Y-134048500D03*
D27*
X426688250Y-136588500D03*
D26*
X434308250Y-131508500D03*
D27*
X155321090Y-88931750D03*
X165481090Y-88931750D03*
D26*
X162941090Y-83851750D03*
D28*
X160401090Y-88931750D03*
D26*
X156591090Y-86391750D03*
D28*
X350837500Y-107950000D03*
D27*
X355917500Y-107950000D03*
D26*
X353377500Y-102870000D03*
D27*
X345757500Y-107950000D03*
D26*
X347027500Y-105410000D03*
D27*
X236823250Y-136556750D03*
D26*
X227933250Y-134016750D03*
X234283250Y-131476750D03*
D28*
X231743250Y-136556750D03*
D27*
X226663250Y-136556750D03*
D26*
X194590000Y-210210000D03*
D27*
X193320000Y-212750000D03*
X203480000Y-212750000D03*
D26*
X200940000Y-207670000D03*
D28*
X198400000Y-212750000D03*
D26*
X89820750Y-172116750D03*
D27*
X88550750Y-174656750D03*
X98710750Y-174656750D03*
D26*
X96170750Y-169576750D03*
D28*
X93630750Y-174656750D03*
D27*
X398748250Y-174688500D03*
D26*
X396208250Y-169608500D03*
D28*
X393668250Y-174688500D03*
D27*
X388588250Y-174688500D03*
D26*
X389858250Y-172148500D03*
X208883250Y-134016750D03*
D28*
X212693250Y-136556750D03*
D27*
X207613250Y-136556750D03*
X217773250Y-136556750D03*
D26*
X215233250Y-131476750D03*
D28*
X69818250Y-88931750D03*
D27*
X74898250Y-88931750D03*
X64738250Y-88931750D03*
D26*
X72358250Y-83851750D03*
X66008250Y-86391750D03*
D29*
X312547000Y-177069750D03*
D28*
X297307000Y-153193750D03*
X305562000Y-165131750D03*
D27*
X300482000Y-165131750D03*
D26*
X308102000Y-160051750D03*
X301752000Y-162591750D03*
D27*
X310642000Y-165131750D03*
D28*
X297307000Y-177069750D03*
D29*
X312547000Y-153193750D03*
D27*
X241585750Y-193706750D03*
D28*
X236505750Y-193706750D03*
D26*
X239045750Y-188626750D03*
D27*
X231425750Y-193706750D03*
D26*
X232695750Y-191166750D03*
D33*
X272600000Y-61200000D03*
D34*
X280220000Y-61200000D03*
D27*
X46323250Y-107981750D03*
D28*
X41243250Y-107981750D03*
D26*
X43783250Y-102901750D03*
D27*
X36163250Y-107981750D03*
D26*
X37433250Y-105441750D03*
D27*
X146340000Y-212740000D03*
D26*
X143800000Y-207660000D03*
X137450000Y-210200000D03*
D28*
X141260000Y-212740000D03*
D27*
X136180000Y-212740000D03*
X222535750Y-193706750D03*
D26*
X213645750Y-191166750D03*
X219995750Y-188626750D03*
D27*
X212375750Y-193706750D03*
D28*
X217455750Y-193706750D03*
D26*
X185065000Y-172135000D03*
D27*
X193955000Y-174675000D03*
X183795000Y-174675000D03*
D28*
X188875000Y-174675000D03*
D26*
X191415000Y-169595000D03*
D27*
X398748250Y-136588500D03*
D26*
X389858250Y-134048500D03*
X396208250Y-131508500D03*
D28*
X393668250Y-136588500D03*
D27*
X388588250Y-136588500D03*
D26*
X194691000Y-105441750D03*
X201041000Y-102901750D03*
D28*
X198501000Y-107981750D03*
D27*
X203581000Y-107981750D03*
X193421000Y-107981750D03*
X159988250Y-155606750D03*
D28*
X165068250Y-155606750D03*
D27*
X170148250Y-155606750D03*
D26*
X167608250Y-150526750D03*
X161258250Y-153066750D03*
D28*
X146018250Y-155606750D03*
D27*
X151098250Y-155606750D03*
D26*
X142208250Y-153066750D03*
X148558250Y-150526750D03*
D27*
X140938250Y-155606750D03*
X96329500Y-212756750D03*
D26*
X87439500Y-210216750D03*
D27*
X86169500Y-212756750D03*
D26*
X93789500Y-207676750D03*
D28*
X91249500Y-212756750D03*
D27*
X417798250Y-155638500D03*
D26*
X415258250Y-150558500D03*
X408908250Y-153098500D03*
D28*
X412718250Y-155638500D03*
D27*
X407638250Y-155638500D03*
D28*
X226980750Y-174656750D03*
D27*
X232060750Y-174656750D03*
X221900750Y-174656750D03*
D26*
X229520750Y-169576750D03*
X223170750Y-172116750D03*
D27*
X274923250Y-88931750D03*
X264763250Y-88931750D03*
D26*
X272383250Y-83851750D03*
X266033250Y-86391750D03*
D28*
X269843250Y-88931750D03*
D33*
X287600000Y-61200000D03*
D34*
X295220000Y-61200000D03*
D26*
X353377500Y-131445000D03*
D27*
X355917500Y-136525000D03*
D28*
X350837500Y-136525000D03*
D26*
X347027500Y-133985000D03*
D27*
X345757500Y-136525000D03*
D28*
X369887500Y-88900000D03*
D26*
X372427500Y-83820000D03*
X366077500Y-86360000D03*
D27*
X374967500Y-88900000D03*
X364807500Y-88900000D03*
X336867500Y-88900000D03*
D28*
X331787500Y-88900000D03*
D26*
X334327500Y-83820000D03*
X327977500Y-86360000D03*
D27*
X326707500Y-88900000D03*
X217138250Y-155606750D03*
D26*
X218408250Y-153066750D03*
D27*
X227298250Y-155606750D03*
D26*
X224758250Y-150526750D03*
D28*
X222218250Y-155606750D03*
X412718250Y-174688500D03*
D26*
X415258250Y-169608500D03*
X408908250Y-172148500D03*
D27*
X407638250Y-174688500D03*
X417798250Y-174688500D03*
D26*
X277939500Y-210216750D03*
D27*
X276669500Y-212756750D03*
D28*
X281749500Y-212756750D03*
D27*
X286829500Y-212756750D03*
D26*
X284289500Y-207676750D03*
X220091000Y-102901750D03*
X213741000Y-105441750D03*
D28*
X217551000Y-107981750D03*
D27*
X212471000Y-107981750D03*
X222631000Y-107981750D03*
X455898250Y-136588500D03*
X445738250Y-136588500D03*
D28*
X450818250Y-136588500D03*
D26*
X453358250Y-131508500D03*
X447008250Y-134048500D03*
D27*
X38544500Y-212756750D03*
D26*
X46164500Y-207676750D03*
D27*
X48704500Y-212756750D03*
D28*
X43624500Y-212756750D03*
D26*
X39814500Y-210216750D03*
D28*
X269843250Y-136556750D03*
D26*
X266033250Y-134016750D03*
D27*
X264763250Y-136556750D03*
X274923250Y-136556750D03*
D26*
X272383250Y-131476750D03*
D27*
X302863250Y-107981750D03*
D26*
X304133250Y-105441750D03*
D27*
X313023250Y-107981750D03*
D26*
X310483250Y-102901750D03*
D28*
X307943250Y-107981750D03*
D26*
X175641000Y-105441750D03*
D27*
X184531000Y-107981750D03*
D26*
X181991000Y-102901750D03*
D27*
X174371000Y-107981750D03*
D28*
X179451000Y-107981750D03*
D27*
X310642000Y-212756750D03*
D26*
X308102000Y-207676750D03*
X301752000Y-210216750D03*
D28*
X305562000Y-212756750D03*
D27*
X300482000Y-212756750D03*
D28*
X69818250Y-155606750D03*
D26*
X72358250Y-150526750D03*
X66008250Y-153066750D03*
D27*
X74898250Y-155606750D03*
X64738250Y-155606750D03*
D26*
X43783250Y-131476750D03*
D27*
X36163250Y-136556750D03*
D26*
X37433250Y-134016750D03*
D27*
X46323250Y-136556750D03*
D28*
X41243250Y-136556750D03*
D26*
X194595750Y-191166750D03*
D27*
X203485750Y-193706750D03*
D26*
X200945750Y-188626750D03*
D27*
X193325750Y-193706750D03*
D28*
X198405750Y-193706750D03*
D26*
X56483250Y-134016750D03*
D27*
X55213250Y-136556750D03*
D28*
X60293250Y-136556750D03*
D26*
X62833250Y-131476750D03*
D27*
X65373250Y-136556750D03*
X374935750Y-212788500D03*
D26*
X372395750Y-207708500D03*
X366045750Y-210248500D03*
D27*
X364775750Y-212788500D03*
D28*
X369855750Y-212788500D03*
D33*
X302600000Y-61200000D03*
D34*
X310220000Y-61200000D03*
D27*
X364770000Y-193725000D03*
D28*
X369850000Y-193725000D03*
D27*
X374930000Y-193725000D03*
D26*
X372390000Y-188645000D03*
X366040000Y-191185000D03*
D27*
X117125750Y-193706750D03*
X127285750Y-193706750D03*
D28*
X122205750Y-193706750D03*
D26*
X118395750Y-191166750D03*
X124745750Y-188626750D03*
D27*
X155321000Y-107981750D03*
D26*
X162941000Y-102901750D03*
D27*
X165481000Y-107981750D03*
D28*
X160401000Y-107981750D03*
D26*
X156591000Y-105441750D03*
D28*
X107918250Y-107981750D03*
D26*
X110458250Y-102901750D03*
X104108250Y-105441750D03*
D27*
X102838250Y-107981750D03*
X112998250Y-107981750D03*
X398748250Y-155638500D03*
D26*
X389858250Y-153098500D03*
D28*
X393668250Y-155638500D03*
D26*
X396208250Y-150558500D03*
D27*
X388588250Y-155638500D03*
X245713250Y-136556750D03*
D26*
X253333250Y-131476750D03*
D27*
X255873250Y-136556750D03*
D26*
X246983250Y-134016750D03*
D28*
X250793250Y-136556750D03*
D26*
X75533250Y-134016750D03*
D27*
X84423250Y-136556750D03*
D26*
X81883250Y-131476750D03*
D28*
X79343250Y-136556750D03*
D27*
X74263250Y-136556750D03*
X83788250Y-155606750D03*
X93948250Y-155606750D03*
D28*
X88868250Y-155606750D03*
D26*
X85058250Y-153066750D03*
X91408250Y-150526750D03*
D28*
X331755750Y-212788500D03*
D26*
X334295750Y-207708500D03*
D27*
X326675750Y-212788500D03*
X336835750Y-212788500D03*
D26*
X327945750Y-210248500D03*
D27*
X260000750Y-174656750D03*
D26*
X267620750Y-169576750D03*
D28*
X265080750Y-174656750D03*
D27*
X270160750Y-174656750D03*
D26*
X261270750Y-172116750D03*
D27*
X426688250Y-193738500D03*
D26*
X434308250Y-188658500D03*
D27*
X436848250Y-193738500D03*
D26*
X427958250Y-191198500D03*
D28*
X431768250Y-193738500D03*
D27*
X239204500Y-212756750D03*
D28*
X234124500Y-212756750D03*
D26*
X230314500Y-210216750D03*
D27*
X229044500Y-212756750D03*
D26*
X236664500Y-207676750D03*
D27*
X132048250Y-88931750D03*
X121888250Y-88931750D03*
D28*
X126968250Y-88931750D03*
D26*
X123158250Y-86391750D03*
X129508250Y-83851750D03*
D28*
X88868250Y-88931750D03*
D26*
X85058250Y-86391750D03*
X91408250Y-83851750D03*
D27*
X83788250Y-88931750D03*
X93948250Y-88931750D03*
X364807500Y-136525000D03*
D28*
X369887500Y-136525000D03*
D27*
X374967500Y-136525000D03*
D26*
X372427500Y-131445000D03*
X366077500Y-133985000D03*
X86645750Y-188626750D03*
D27*
X79025750Y-193706750D03*
X89185750Y-193706750D03*
D28*
X84105750Y-193706750D03*
D26*
X80295750Y-191166750D03*
D27*
X184435750Y-193706750D03*
D26*
X175545750Y-191166750D03*
D27*
X174275750Y-193706750D03*
D28*
X179355750Y-193706750D03*
D26*
X181895750Y-188626750D03*
X77120750Y-169576750D03*
X70770750Y-172116750D03*
D27*
X69500750Y-174656750D03*
D28*
X74580750Y-174656750D03*
D27*
X79660750Y-174656750D03*
D26*
X427958250Y-153098500D03*
D28*
X431768250Y-155638500D03*
D27*
X426688250Y-155638500D03*
X436848250Y-155638500D03*
D26*
X434308250Y-150558500D03*
D28*
X391255250Y-221043500D03*
D26*
X405733250Y-207708500D03*
D27*
X398113250Y-212788500D03*
D28*
X403193250Y-212788500D03*
D27*
X408273250Y-212788500D03*
D28*
X415131250Y-221043500D03*
D26*
X399383250Y-210248500D03*
D29*
X415131250Y-205803500D03*
X391255250Y-205803500D03*
D27*
X117760750Y-174656750D03*
D26*
X115220750Y-169576750D03*
D27*
X107600750Y-174656750D03*
D28*
X112680750Y-174656750D03*
D26*
X108870750Y-172116750D03*
X293814500Y-188626750D03*
D28*
X279336500Y-201961750D03*
D26*
X287464500Y-191166750D03*
D28*
X303212500Y-201961750D03*
D27*
X296354500Y-193706750D03*
D29*
X303212500Y-186721750D03*
D28*
X291274500Y-193706750D03*
D27*
X286194500Y-193706750D03*
D29*
X279336500Y-186721750D03*
D27*
X364807500Y-155575000D03*
D26*
X372427500Y-150495000D03*
D27*
X374967500Y-155575000D03*
D26*
X366077500Y-153035000D03*
D28*
X369887500Y-155575000D03*
X198501000Y-88931750D03*
D26*
X201041000Y-83851750D03*
D27*
X193421000Y-88931750D03*
X203581000Y-88931750D03*
D26*
X194691000Y-86391750D03*
X210470750Y-169576750D03*
D27*
X202850750Y-174656750D03*
D26*
X204120750Y-172116750D03*
D27*
X213010750Y-174656750D03*
D28*
X207930750Y-174656750D03*
X431768250Y-212788500D03*
D26*
X427958250Y-210248500D03*
X434308250Y-207708500D03*
D27*
X426688250Y-212788500D03*
X436848250Y-212788500D03*
D26*
X334327500Y-102870000D03*
X327977500Y-105410000D03*
D27*
X326707500Y-107950000D03*
X336867500Y-107950000D03*
D28*
X331787500Y-107950000D03*
D26*
X353345750Y-207708500D03*
D27*
X345725750Y-212788500D03*
D28*
X350805750Y-212788500D03*
D27*
X355885750Y-212788500D03*
D26*
X346995750Y-210248500D03*
D27*
X188563250Y-136556750D03*
D28*
X193643250Y-136556750D03*
D26*
X196183250Y-131476750D03*
D27*
X198723250Y-136556750D03*
D26*
X189833250Y-134016750D03*
D28*
X103155750Y-193706750D03*
D27*
X108235750Y-193706750D03*
D26*
X99345750Y-191166750D03*
X105695750Y-188626750D03*
D27*
X98075750Y-193706750D03*
D26*
X334327500Y-150495000D03*
D27*
X336867500Y-155575000D03*
D28*
X331787500Y-155575000D03*
D26*
X327977500Y-153035000D03*
D27*
X326707500Y-155575000D03*
X345757500Y-88900000D03*
X355917500Y-88900000D03*
D26*
X347027500Y-86360000D03*
X353377500Y-83820000D03*
D28*
X350837500Y-88900000D03*
D26*
X94583250Y-134016750D03*
D28*
X98393250Y-136556750D03*
D27*
X103473250Y-136556750D03*
D26*
X100933250Y-131476750D03*
D27*
X93313250Y-136556750D03*
D26*
X347027500Y-67310000D03*
D27*
X345757500Y-69850000D03*
D28*
X350837500Y-69850000D03*
D26*
X353377500Y-64770000D03*
D27*
X355917500Y-69850000D03*
D22*
X232400000Y-104450000D03*
X234050000Y-81700000D03*
X374540000Y-112310000D03*
X234000000Y-80500000D03*
X55800000Y-121200000D03*
X376160000Y-93550000D03*
X145500000Y-112200000D03*
X327352500Y-218717500D03*
X279530000Y-180540000D03*
X55400000Y-119800000D03*
X281200000Y-128700000D03*
X132350000Y-93200000D03*
X267410000Y-201080000D03*
X326550000Y-200000000D03*
X153247576Y-96270265D03*
X233350000Y-106900000D03*
X453500000Y-139700000D03*
X58100000Y-95800000D03*
X447830000Y-168410000D03*
X243600000Y-115200000D03*
X248400000Y-201720000D03*
X234100000Y-106050000D03*
X230850000Y-103601250D03*
X56900000Y-119000000D03*
X152250000Y-110300000D03*
X388900000Y-142400000D03*
X231805378Y-103694622D03*
X296300000Y-116800000D03*
X446480000Y-208830000D03*
X311350000Y-181100000D03*
X223750000Y-112450000D03*
X245872000Y-121666000D03*
X289180000Y-180850000D03*
X271526000Y-150368000D03*
X230000000Y-94250000D03*
X237750000Y-94150000D03*
X37350000Y-139730000D03*
X207264000Y-107188000D03*
X145800000Y-82900000D03*
X375050000Y-199600000D03*
X53400000Y-79300000D03*
X240210000Y-111580000D03*
X57400000Y-123900000D03*
X224800000Y-94250000D03*
X228440000Y-111580000D03*
X164330000Y-114930000D03*
X255100000Y-114660000D03*
X133400000Y-96140000D03*
X379020000Y-119470000D03*
X274260000Y-114650000D03*
X259588000Y-91059000D03*
X261874000Y-139065000D03*
X336100000Y-200200000D03*
X226441000Y-139827000D03*
X320548000Y-149733000D03*
X141100000Y-95000000D03*
X237750000Y-95100000D03*
X292890000Y-158740000D03*
X228440000Y-123370000D03*
X188214000Y-107188000D03*
X240210000Y-123370000D03*
X145550000Y-110150000D03*
X238125000Y-105410000D03*
X245450000Y-92850000D03*
X241400000Y-125600000D03*
X294890000Y-161740000D03*
X183500000Y-114940000D03*
X285496000Y-199263000D03*
X379300000Y-68400000D03*
X244250000Y-92850000D03*
X140589000Y-95885000D03*
X426590000Y-140630000D03*
X201820000Y-114920000D03*
X224028000Y-106871500D03*
X290890000Y-161740000D03*
X228150000Y-128350000D03*
X379020000Y-118020000D03*
X145800000Y-83900000D03*
X145700000Y-116032500D03*
X380050000Y-67500000D03*
X132710000Y-97830000D03*
X221790000Y-113910000D03*
X261590000Y-200070000D03*
X292820000Y-114710000D03*
X288200000Y-181700000D03*
D35*
X283845000Y-120777000D03*
D22*
X145846800Y-60114600D03*
X139039600Y-69697600D03*
X140970000Y-69697600D03*
X141147800Y-60121800D03*
X141147800Y-59221800D03*
X145846800Y-59214600D03*
X140004800Y-69697600D03*
X141935200Y-69697600D03*
X234800000Y-88250000D03*
X134200000Y-80300000D03*
X235244622Y-81494622D03*
X152400000Y-78000000D03*
X235100000Y-104400000D03*
X45200000Y-117000000D03*
X62900000Y-117800000D03*
X313308000Y-99315000D03*
X152400000Y-96800000D03*
X322072000Y-80670400D03*
X132080000Y-100076000D03*
X404773400Y-130658600D03*
X376450000Y-100190000D03*
X385826000Y-130810000D03*
X321208400Y-101574600D03*
X307300000Y-126800000D03*
X423823400Y-130658600D03*
X210179997Y-127691237D03*
X211530000Y-148480000D03*
X211569769Y-166497000D03*
X210246991Y-126693982D03*
X229980000Y-129440000D03*
X308170000Y-204610000D03*
X240770000Y-197040000D03*
X320860000Y-204400000D03*
X93218000Y-118950000D03*
X112800000Y-119150000D03*
X131350000Y-119350000D03*
X145650000Y-119400000D03*
X222821505Y-127405673D03*
X232300000Y-129476500D03*
X250012200Y-130581400D03*
X269824200Y-130059700D03*
X335300000Y-127200000D03*
X354400000Y-127500000D03*
X357593872Y-116923872D03*
X240100000Y-86600000D03*
X249300500Y-117775501D03*
X227803378Y-108396622D03*
X224026218Y-111273782D03*
X222977189Y-119650000D03*
X240400000Y-99600000D03*
D36*
X228900000Y-68100000D03*
X225950000Y-107500000D03*
D22*
X254310000Y-125720000D03*
X264475000Y-127665000D03*
X244200000Y-121800000D03*
X245900980Y-112000000D03*
X224945464Y-125250464D03*
D36*
X226500000Y-99250000D03*
X144400000Y-97727500D03*
X144400000Y-98900000D03*
X139400000Y-124200000D03*
X155030000Y-97690000D03*
D22*
X255300000Y-125720000D03*
D36*
X142200000Y-121400000D03*
D22*
X237340000Y-107900000D03*
X236300000Y-96150000D03*
X42545000Y-158115000D03*
D36*
X56300000Y-96750000D03*
D22*
X49047000Y-220447000D03*
D36*
X34925000Y-113411000D03*
D22*
X156200000Y-96200000D03*
X309245000Y-139700000D03*
X294132000Y-140843000D03*
X314680000Y-163470000D03*
X138900000Y-89500000D03*
X34925000Y-119126000D03*
X390000000Y-67500000D03*
D36*
X56311000Y-110700000D03*
D22*
X156960000Y-100540000D03*
X437460000Y-144540000D03*
X450320000Y-148130000D03*
X37592000Y-181483000D03*
X46880000Y-144540000D03*
X40738021Y-196161979D03*
X82600000Y-118800000D03*
X212850000Y-120039020D03*
X242500020Y-124968364D03*
X213850000Y-120039031D03*
X243200000Y-125800000D03*
X163050000Y-119639500D03*
X244200000Y-125600000D03*
X211650000Y-121900500D03*
X212368400Y-185548000D03*
X61200000Y-124300000D03*
X239522000Y-96266000D03*
X244602000Y-112014000D03*
X244856000Y-95758000D03*
X323596000Y-78994000D03*
M02*
