G04 #@! TF.GenerationSoftware,KiCad,Pcbnew,7.0.1*
G04 #@! TF.CreationDate,2023-03-18T22:20:59+01:00*
G04 #@! TF.ProjectId,berlin,6265726c-696e-42e6-9b69-6361645f7063,0.7*
G04 #@! TF.SameCoordinates,Original*
G04 #@! TF.FileFunction,Soldermask,Top*
G04 #@! TF.FilePolarity,Negative*
%FSLAX46Y46*%
G04 Gerber Fmt 4.6, Leading zero omitted, Abs format (unit mm)*
G04 Created by KiCad (PCBNEW 7.0.1) date 2023-03-18 22:20:59*
%MOMM*%
%LPD*%
G01*
G04 APERTURE LIST*
G04 Aperture macros list*
%AMRoundRect*
0 Rectangle with rounded corners*
0 $1 Rounding radius*
0 $2 $3 $4 $5 $6 $7 $8 $9 X,Y pos of 4 corners*
0 Add a 4 corners polygon primitive as box body*
4,1,4,$2,$3,$4,$5,$6,$7,$8,$9,$2,$3,0*
0 Add four circle primitives for the rounded corners*
1,1,$1+$1,$2,$3*
1,1,$1+$1,$4,$5*
1,1,$1+$1,$6,$7*
1,1,$1+$1,$8,$9*
0 Add four rect primitives between the rounded corners*
20,1,$1+$1,$2,$3,$4,$5,0*
20,1,$1+$1,$4,$5,$6,$7,0*
20,1,$1+$1,$6,$7,$8,$9,0*
20,1,$1+$1,$8,$9,$2,$3,0*%
G04 Aperture macros list end*
%ADD10C,4.250000*%
%ADD11C,1.778000*%
%ADD12RoundRect,0.177800X-0.711200X-0.711200X0.711200X-0.711200X0.711200X0.711200X-0.711200X0.711200X0*%
%ADD13C,1.800000*%
%ADD14R,2.000000X2.000000*%
%ADD15C,2.000000*%
%ADD16R,4.000000X3.000000*%
%ADD17R,3.000000X4.000000*%
%ADD18C,1.596000*%
%ADD19R,1.750000X1.750000*%
%ADD20C,1.750000*%
%ADD21C,2.700000*%
%ADD22C,0.800000*%
%ADD23C,7.000000*%
%ADD24C,3.600000*%
%ADD25C,1.701800*%
%ADD26C,3.987800*%
%ADD27C,3.048000*%
%ADD28C,0.650000*%
%ADD29O,1.100000X2.200000*%
%ADD30O,1.300000X1.900000*%
%ADD31R,1.524000X1.524000*%
%ADD32O,1.524000X1.524000*%
%ADD33C,1.600000*%
%ADD34O,1.600000X1.600000*%
G04 APERTURE END LIST*
D10*
X234212500Y-118065500D03*
X62762500Y-118080000D03*
X129275000Y-194275000D03*
X253262500Y-89490500D03*
X138962500Y-118065500D03*
X200975000Y-89725000D03*
X69874500Y-194265500D03*
X182015500Y-70567500D03*
X72325000Y-70455000D03*
D11*
X300205000Y-37675000D03*
D12*
X302745000Y-37675000D03*
D10*
X186587500Y-137115500D03*
X248563500Y-156165500D03*
X162965500Y-70567500D03*
D13*
X379422000Y-42325000D03*
D14*
X364922000Y-43825000D03*
D15*
X364922000Y-48825000D03*
D13*
X379422000Y-44325000D03*
D15*
X364922000Y-46325000D03*
D13*
X379422000Y-48325000D03*
D16*
X372422000Y-38725000D03*
X372422000Y-53925000D03*
D13*
X379422000Y-50325000D03*
X379422000Y-46325000D03*
D10*
X200975000Y-194275000D03*
X129437500Y-137115500D03*
X158012500Y-118065500D03*
X165251500Y-194265500D03*
X334288500Y-137115500D03*
X200938500Y-175215500D03*
X253262500Y-70440500D03*
X210463500Y-156165500D03*
X396137500Y-118065500D03*
X77113500Y-156165500D03*
X334288500Y-70440500D03*
X129475000Y-70455000D03*
X372388500Y-89490500D03*
X353338500Y-89490500D03*
X243737500Y-137115500D03*
X220125000Y-89725000D03*
X334288500Y-118192500D03*
X177062500Y-118065500D03*
X110387500Y-89490500D03*
X46125500Y-194265500D03*
X415187500Y-137242500D03*
X215162500Y-118065500D03*
D13*
X47750000Y-60433000D03*
D14*
X46250000Y-45933000D03*
D13*
X45750000Y-60433000D03*
D15*
X41250000Y-45933000D03*
X43750000Y-45933000D03*
D13*
X41750000Y-60433000D03*
D17*
X51350000Y-53433000D03*
X36150000Y-53433000D03*
D13*
X39750000Y-60433000D03*
X43750000Y-60433000D03*
D10*
X110387500Y-137115500D03*
X272312500Y-70440500D03*
X48538500Y-137115500D03*
X447905000Y-179905000D03*
X110425000Y-70455000D03*
X415187500Y-118065500D03*
X50824500Y-156165500D03*
X100862500Y-118080000D03*
X148487500Y-137115500D03*
D18*
X35475000Y-36475000D03*
D10*
X353338500Y-118192500D03*
X181761500Y-175215500D03*
X172236500Y-156165500D03*
X415285000Y-175295000D03*
X353255000Y-175295000D03*
X72287500Y-137115500D03*
X353338500Y-194392500D03*
X286663500Y-156165500D03*
D19*
X64221250Y-44575000D03*
D20*
X64221250Y-48075000D03*
X137721250Y-44575000D03*
D21*
X133571250Y-50525000D03*
X68371250Y-50525000D03*
X69571250Y-42125000D03*
X132371250Y-42125000D03*
D10*
X86638500Y-175215500D03*
X224687500Y-137115500D03*
X353338500Y-137115500D03*
D11*
X315205000Y-37675000D03*
D12*
X317745000Y-37675000D03*
D10*
X300887500Y-118065500D03*
X262787500Y-137115500D03*
X372388500Y-118192500D03*
X93750500Y-194265500D03*
X448065000Y-141905000D03*
X229513500Y-156165500D03*
X434237500Y-194392500D03*
X372388500Y-194392500D03*
D11*
X285205000Y-37675000D03*
D12*
X287745000Y-37675000D03*
D10*
X220115500Y-70567500D03*
X434237500Y-137242500D03*
X453287500Y-118065500D03*
X405700000Y-194280000D03*
D22*
X331631155Y-148818845D03*
X329775000Y-153300000D03*
X332400000Y-150675000D03*
X327918845Y-152531155D03*
X327918845Y-148818845D03*
X329775000Y-148050000D03*
X331631155Y-152531155D03*
X327150000Y-150675000D03*
D23*
X329775000Y-150675000D03*
D18*
X462975000Y-198975000D03*
D10*
X434237500Y-175215500D03*
X191286500Y-156165500D03*
X434237500Y-118065500D03*
X293775500Y-175215500D03*
D15*
X233125000Y-37425000D03*
X239625000Y-37425000D03*
X239625000Y-41925000D03*
X233125000Y-41925000D03*
D10*
X434237500Y-156292500D03*
X272312500Y-89490500D03*
X105688500Y-175215500D03*
X281825000Y-137025000D03*
X372388500Y-137115500D03*
X372350000Y-175400000D03*
X267613500Y-156165500D03*
X143661500Y-175215500D03*
X372388500Y-70440500D03*
X67588500Y-175215500D03*
X291362500Y-70440500D03*
X46125500Y-175215500D03*
X260412000Y-194265500D03*
X96163500Y-156165500D03*
D18*
X35475000Y-198975000D03*
D10*
X181925000Y-89725000D03*
X43712500Y-118080000D03*
X396235000Y-175295000D03*
X333925000Y-175675000D03*
X310412500Y-89490500D03*
X91337500Y-137115500D03*
X129437500Y-89490500D03*
X253262500Y-118065500D03*
X308037000Y-147148500D03*
X334288500Y-194392500D03*
X43575000Y-90125000D03*
X310412500Y-70440500D03*
X91375000Y-70455000D03*
X119912500Y-118065500D03*
X258135000Y-175515000D03*
X396137500Y-137242500D03*
X334288500Y-89490500D03*
X115213500Y-156165500D03*
X236625500Y-194265500D03*
X134136500Y-156165500D03*
X205637500Y-137115500D03*
X91337500Y-89490500D03*
X284161000Y-194265500D03*
X167537500Y-137115500D03*
D19*
X245291500Y-44575000D03*
D20*
X245291500Y-48075000D03*
X318791500Y-44575000D03*
D21*
X313441500Y-42125000D03*
X314641500Y-50525000D03*
X249441500Y-50525000D03*
X250641500Y-42125000D03*
D10*
X396137500Y-156292500D03*
X291362500Y-89490500D03*
X272350000Y-118080000D03*
X219988500Y-175215500D03*
X124611500Y-175215500D03*
X162875000Y-89725000D03*
X239038500Y-175215500D03*
X353338500Y-51390500D03*
X307999500Y-194265500D03*
X81812500Y-118080000D03*
X153186500Y-156165500D03*
D19*
X154804000Y-44575000D03*
D20*
X154804000Y-48075000D03*
X228304000Y-44575000D03*
D21*
X224154000Y-50525000D03*
X158954000Y-50525000D03*
X160154000Y-42125000D03*
X222954000Y-42125000D03*
D10*
X334288500Y-51390500D03*
X201065500Y-70567500D03*
X162711500Y-175215500D03*
X353338500Y-70440500D03*
D18*
X462975000Y-36475000D03*
D10*
X196112500Y-118065500D03*
X415187500Y-156292500D03*
X72287500Y-89490500D03*
D24*
X168495750Y-148591750D03*
D25*
X177385750Y-151131750D03*
D24*
X174845750Y-146051750D03*
D25*
X167225750Y-151131750D03*
D26*
X172305750Y-151131750D03*
X281843250Y-132081750D03*
D25*
X286923250Y-132081750D03*
D24*
X284383250Y-127001750D03*
D25*
X276763250Y-132081750D03*
D24*
X278033250Y-129541750D03*
X146270750Y-165101750D03*
D25*
X138650750Y-170181750D03*
D26*
X143730750Y-170181750D03*
D24*
X139920750Y-167641750D03*
D25*
X148810750Y-170181750D03*
D24*
X274858250Y-79376750D03*
D25*
X277398250Y-84456750D03*
D24*
X268508250Y-81916750D03*
D26*
X272318250Y-84456750D03*
D25*
X267238250Y-84456750D03*
D24*
X392333250Y-167673500D03*
D25*
X401223250Y-170213500D03*
D26*
X396143250Y-170213500D03*
D25*
X391063250Y-170213500D03*
D24*
X398683250Y-165133500D03*
D26*
X353280750Y-170213500D03*
D25*
X348200750Y-170213500D03*
D24*
X355820750Y-165133500D03*
D25*
X358360750Y-170213500D03*
D24*
X349470750Y-167673500D03*
D26*
X177068250Y-113031750D03*
D24*
X173258250Y-110491750D03*
X179608250Y-107951750D03*
D25*
X182148250Y-113031750D03*
X171988250Y-113031750D03*
D26*
X138968250Y-113031750D03*
D24*
X141508250Y-107951750D03*
D25*
X133888250Y-113031750D03*
X144048250Y-113031750D03*
D24*
X135158250Y-110491750D03*
X349502500Y-129510000D03*
X355852500Y-126970000D03*
D25*
X348232500Y-132050000D03*
D26*
X353312500Y-132050000D03*
D25*
X358392500Y-132050000D03*
D24*
X112933250Y-60326750D03*
D25*
X115473250Y-65406750D03*
X105313250Y-65406750D03*
D26*
X110393250Y-65406750D03*
D24*
X106583250Y-62866750D03*
X249458410Y-62866750D03*
D25*
X248188410Y-65406750D03*
X258348410Y-65406750D03*
D24*
X255808410Y-60326750D03*
D26*
X253268410Y-65406750D03*
D27*
X460278250Y-153576500D03*
D25*
X453293250Y-136558500D03*
D26*
X445038250Y-129700500D03*
D24*
X458373250Y-144178500D03*
X455833250Y-137828500D03*
D26*
X453293250Y-141638500D03*
D25*
X453293250Y-146718500D03*
D27*
X460278250Y-129700500D03*
D26*
X445038250Y-153576500D03*
D25*
X296448250Y-65406750D03*
D24*
X293908250Y-60326750D03*
X287558250Y-62866750D03*
D25*
X286288250Y-65406750D03*
D26*
X291368250Y-65406750D03*
X129445000Y-84455000D03*
D24*
X125635000Y-81915000D03*
X131985000Y-79375000D03*
D25*
X124365000Y-84455000D03*
X134525000Y-84455000D03*
D24*
X430433250Y-148623500D03*
D25*
X439323250Y-151163500D03*
X429163250Y-151163500D03*
D26*
X434243250Y-151163500D03*
D24*
X436783250Y-146083500D03*
X336802500Y-41245000D03*
D26*
X334262500Y-46325000D03*
D24*
X330452500Y-43785000D03*
D25*
X339342500Y-46325000D03*
X329182500Y-46325000D03*
D24*
X160558250Y-107951750D03*
X154208250Y-110491750D03*
D26*
X158018250Y-113031750D03*
D25*
X152938250Y-113031750D03*
X163098250Y-113031750D03*
D26*
X334262500Y-113000000D03*
D24*
X336802500Y-107920000D03*
D25*
X329182500Y-113000000D03*
X339342500Y-113000000D03*
D24*
X330452500Y-110460000D03*
D25*
X134523250Y-132081750D03*
D24*
X131983250Y-127001750D03*
D26*
X129443250Y-132081750D03*
D25*
X124363250Y-132081750D03*
D24*
X125633250Y-129541750D03*
D25*
X265492000Y-189231750D03*
D24*
X262952000Y-184151750D03*
D26*
X260412000Y-189231750D03*
D24*
X256602000Y-186691750D03*
D25*
X255332000Y-189231750D03*
D24*
X63720750Y-167641750D03*
X70070750Y-165101750D03*
D25*
X62450750Y-170181750D03*
D26*
X67530750Y-170181750D03*
D25*
X72610750Y-170181750D03*
D24*
X265333250Y-127001750D03*
X258983250Y-129541750D03*
D26*
X262793250Y-132081750D03*
D25*
X267873250Y-132081750D03*
X257713250Y-132081750D03*
D26*
X124675000Y-189225000D03*
D25*
X129755000Y-189225000D03*
D24*
X120865000Y-186685000D03*
D25*
X119595000Y-189225000D03*
D24*
X127215000Y-184145000D03*
X130395750Y-148591750D03*
X136745750Y-146051750D03*
D25*
X129125750Y-151131750D03*
X139285750Y-151131750D03*
D26*
X134205750Y-151131750D03*
X186593250Y-132081750D03*
D24*
X182783250Y-129541750D03*
D25*
X191673250Y-132081750D03*
X181513250Y-132081750D03*
D24*
X189133250Y-127001750D03*
D26*
X162780750Y-170181750D03*
D25*
X157700750Y-170181750D03*
D24*
X158970750Y-167641750D03*
D25*
X167860750Y-170181750D03*
D24*
X165320750Y-165101750D03*
D15*
X232725000Y-58925000D03*
X239225000Y-58925000D03*
X232725000Y-63425000D03*
X239225000Y-63425000D03*
D25*
X263110750Y-170181750D03*
D24*
X260570750Y-165101750D03*
D26*
X258030750Y-170181750D03*
D25*
X252950750Y-170181750D03*
D24*
X254220750Y-167641750D03*
X312958250Y-60326750D03*
D25*
X315498250Y-65406750D03*
D24*
X306608250Y-62866750D03*
D25*
X305338250Y-65406750D03*
D26*
X310418250Y-65406750D03*
D25*
X377442500Y-84425000D03*
D26*
X372362500Y-84425000D03*
D24*
X368552500Y-81885000D03*
D25*
X367282500Y-84425000D03*
D24*
X374902500Y-79345000D03*
D28*
X143095000Y-32521500D03*
X148875000Y-32521500D03*
D29*
X141685000Y-33072500D03*
D30*
X150285000Y-28872500D03*
X141685000Y-28872500D03*
D29*
X150285000Y-33072500D03*
D24*
X287558250Y-81916750D03*
X293908250Y-79376750D03*
D25*
X296448250Y-84456750D03*
D26*
X291368250Y-84456750D03*
D25*
X286288250Y-84456750D03*
D24*
X68483250Y-81916750D03*
D26*
X72293250Y-84456750D03*
D24*
X74833250Y-79376750D03*
D25*
X67213250Y-84456750D03*
X77373250Y-84456750D03*
D24*
X72452000Y-184151750D03*
X66102000Y-186691750D03*
D25*
X64832000Y-189231750D03*
X74992000Y-189231750D03*
D26*
X69912000Y-189231750D03*
D25*
X248823250Y-132081750D03*
D26*
X243743250Y-132081750D03*
D24*
X239933250Y-129541750D03*
X246283250Y-127001750D03*
D25*
X238663250Y-132081750D03*
D26*
X286605750Y-151131750D03*
D25*
X291685750Y-151131750D03*
D24*
X289145750Y-146051750D03*
X282795750Y-148591750D03*
D25*
X281525750Y-151131750D03*
D27*
X446308250Y-167800500D03*
D26*
X461548250Y-167800500D03*
D25*
X453293250Y-184818500D03*
D26*
X461548250Y-191676500D03*
D25*
X453293250Y-174658500D03*
D27*
X446308250Y-191676500D03*
D24*
X458373250Y-182278500D03*
X455833250Y-175928500D03*
D26*
X453293250Y-179738500D03*
X334235000Y-170215000D03*
D25*
X339315000Y-170215000D03*
D24*
X330425000Y-167675000D03*
X336775000Y-165135000D03*
D25*
X329155000Y-170215000D03*
D31*
X238885500Y-45410600D03*
X233809500Y-45410600D03*
D32*
X236345500Y-45410600D03*
X233936500Y-47950600D03*
X239012500Y-47950600D03*
X236472500Y-47950600D03*
X233809500Y-50490600D03*
X238885500Y-50490600D03*
X236345500Y-50490600D03*
X233936500Y-53030600D03*
X239012500Y-53030600D03*
X236472500Y-53030600D03*
X238885500Y-55570600D03*
X233809500Y-55570600D03*
X236345500Y-55570600D03*
D24*
X155795750Y-146051750D03*
D25*
X158335750Y-151131750D03*
D26*
X153255750Y-151131750D03*
D25*
X148175750Y-151131750D03*
D24*
X149445750Y-148591750D03*
D26*
X248505750Y-151131750D03*
D24*
X251045750Y-146051750D03*
D25*
X243425750Y-151131750D03*
X253585750Y-151131750D03*
D24*
X244695750Y-148591750D03*
D26*
X415193250Y-170213500D03*
D25*
X410113250Y-170213500D03*
D24*
X411383250Y-167673500D03*
X417733250Y-165133500D03*
D25*
X420273250Y-170213500D03*
D27*
X288955250Y-106046750D03*
D26*
X300893250Y-113031750D03*
X288955250Y-121286750D03*
D25*
X305973250Y-113031750D03*
X295813250Y-113031750D03*
D24*
X303433250Y-107951750D03*
D27*
X312831250Y-106046750D03*
D26*
X312831250Y-121286750D03*
D24*
X297083250Y-110491750D03*
D25*
X225106000Y-65406750D03*
D26*
X220026000Y-65406750D03*
D24*
X216216000Y-62866750D03*
X222566000Y-60326750D03*
D25*
X214946000Y-65406750D03*
X86263250Y-84456750D03*
D26*
X91343250Y-84456750D03*
D24*
X87533250Y-81916750D03*
D25*
X96423250Y-84456750D03*
D24*
X93883250Y-79376750D03*
X53402000Y-146051750D03*
D26*
X50862000Y-151131750D03*
D25*
X45782000Y-151131750D03*
X55942000Y-151131750D03*
D24*
X47052000Y-148591750D03*
X417733250Y-107983500D03*
X411383250Y-110523500D03*
D25*
X410113250Y-113063500D03*
X420273250Y-113063500D03*
D26*
X415193250Y-113063500D03*
X165162000Y-189231750D03*
D27*
X215200000Y-182246750D03*
D26*
X215200000Y-197486750D03*
D27*
X115124000Y-182246750D03*
D24*
X161352000Y-186691750D03*
D25*
X160082000Y-189231750D03*
D24*
X167702000Y-184151750D03*
D26*
X115124000Y-197486750D03*
D25*
X170242000Y-189231750D03*
D24*
X44670750Y-129541750D03*
D25*
X53560750Y-132081750D03*
D26*
X48480750Y-132081750D03*
D25*
X43400750Y-132081750D03*
D24*
X51020750Y-127001750D03*
D26*
X119918250Y-113031750D03*
D25*
X124998250Y-113031750D03*
D24*
X122458250Y-107951750D03*
X116108250Y-110491750D03*
D25*
X114838250Y-113031750D03*
X200563250Y-132081750D03*
X210723250Y-132081750D03*
D24*
X201833250Y-129541750D03*
D26*
X205643250Y-132081750D03*
D24*
X208183250Y-127001750D03*
X184466106Y-60326750D03*
D25*
X187006106Y-65406750D03*
X176846106Y-65406750D03*
D26*
X181926106Y-65406750D03*
D24*
X178116106Y-62866750D03*
D25*
X51179500Y-170181750D03*
D24*
X48639500Y-165101750D03*
D26*
X46099500Y-170181750D03*
D24*
X42289500Y-167641750D03*
D25*
X41019500Y-170181750D03*
D24*
X106583250Y-129541750D03*
D25*
X115473250Y-132081750D03*
D26*
X110393250Y-132081750D03*
D24*
X112933250Y-127001750D03*
D25*
X105313250Y-132081750D03*
X258348250Y-84456750D03*
D26*
X253268250Y-84456750D03*
D25*
X248188250Y-84456750D03*
D24*
X249458250Y-81916750D03*
X255808250Y-79376750D03*
D25*
X439323250Y-113063500D03*
D26*
X434243250Y-113063500D03*
D24*
X430433250Y-110523500D03*
D25*
X429163250Y-113063500D03*
D24*
X436783250Y-107983500D03*
D25*
X157796090Y-65406750D03*
X167956090Y-65406750D03*
D24*
X165416090Y-60326750D03*
D26*
X162876090Y-65406750D03*
D24*
X159066090Y-62866750D03*
D26*
X353312500Y-84425000D03*
D25*
X358392500Y-84425000D03*
D24*
X355852500Y-79345000D03*
D25*
X348232500Y-84425000D03*
D24*
X349502500Y-81885000D03*
D25*
X239298250Y-113031750D03*
D24*
X230408250Y-110491750D03*
X236758250Y-107951750D03*
D26*
X234218250Y-113031750D03*
D25*
X229138250Y-113031750D03*
D24*
X197065000Y-186685000D03*
D25*
X195795000Y-189225000D03*
X205955000Y-189225000D03*
D24*
X203415000Y-184145000D03*
D26*
X200875000Y-189225000D03*
D24*
X92295750Y-148591750D03*
D25*
X91025750Y-151131750D03*
X101185750Y-151131750D03*
D24*
X98645750Y-146051750D03*
D26*
X96105750Y-151131750D03*
D25*
X401223250Y-151163500D03*
D24*
X398683250Y-146083500D03*
D26*
X396143250Y-151163500D03*
D25*
X391063250Y-151163500D03*
D24*
X392333250Y-148623500D03*
X211358250Y-110491750D03*
D26*
X215168250Y-113031750D03*
D25*
X210088250Y-113031750D03*
X220248250Y-113031750D03*
D24*
X217708250Y-107951750D03*
D26*
X72293250Y-65406750D03*
D25*
X77373250Y-65406750D03*
X67213250Y-65406750D03*
D24*
X74833250Y-60326750D03*
X68483250Y-62866750D03*
D27*
X315022000Y-153544750D03*
D26*
X299782000Y-129668750D03*
X308037000Y-141606750D03*
D25*
X302957000Y-141606750D03*
D24*
X310577000Y-136526750D03*
X304227000Y-139066750D03*
D25*
X313117000Y-141606750D03*
D26*
X299782000Y-153544750D03*
D27*
X315022000Y-129668750D03*
D25*
X244060750Y-170181750D03*
D26*
X238980750Y-170181750D03*
D24*
X241520750Y-165101750D03*
D25*
X233900750Y-170181750D03*
D24*
X235170750Y-167641750D03*
D33*
X275075000Y-37675000D03*
D34*
X282695000Y-37675000D03*
D25*
X48798250Y-84456750D03*
D26*
X43718250Y-84456750D03*
D24*
X46258250Y-79376750D03*
D25*
X38638250Y-84456750D03*
D24*
X39908250Y-81916750D03*
D25*
X148815000Y-189215000D03*
D24*
X146275000Y-184135000D03*
X139925000Y-186675000D03*
D26*
X143735000Y-189215000D03*
D25*
X138655000Y-189215000D03*
X225010750Y-170181750D03*
D24*
X216120750Y-167641750D03*
X222470750Y-165101750D03*
D25*
X214850750Y-170181750D03*
D26*
X219930750Y-170181750D03*
D24*
X187540000Y-148610000D03*
D25*
X196430000Y-151150000D03*
X186270000Y-151150000D03*
D26*
X191350000Y-151150000D03*
D24*
X193890000Y-146070000D03*
D25*
X401223250Y-113063500D03*
D24*
X392333250Y-110523500D03*
X398683250Y-107983500D03*
D26*
X396143250Y-113063500D03*
D25*
X391063250Y-113063500D03*
D24*
X197166000Y-81916750D03*
X203516000Y-79376750D03*
D26*
X200976000Y-84456750D03*
D25*
X206056000Y-84456750D03*
X195896000Y-84456750D03*
X162463250Y-132081750D03*
D26*
X167543250Y-132081750D03*
D25*
X172623250Y-132081750D03*
D24*
X170083250Y-127001750D03*
X163733250Y-129541750D03*
D26*
X148493250Y-132081750D03*
D25*
X153573250Y-132081750D03*
D24*
X144683250Y-129541750D03*
X151033250Y-127001750D03*
D25*
X143413250Y-132081750D03*
X98804500Y-189231750D03*
D24*
X89914500Y-186691750D03*
D25*
X88644500Y-189231750D03*
D24*
X96264500Y-184151750D03*
D26*
X93724500Y-189231750D03*
D25*
X420273250Y-132113500D03*
D24*
X417733250Y-127033500D03*
X411383250Y-129573500D03*
D26*
X415193250Y-132113500D03*
D25*
X410113250Y-132113500D03*
D26*
X229455750Y-151131750D03*
D25*
X234535750Y-151131750D03*
X224375750Y-151131750D03*
D24*
X231995750Y-146051750D03*
X225645750Y-148591750D03*
D25*
X277398250Y-65406750D03*
X267238250Y-65406750D03*
D24*
X274858250Y-60326750D03*
X268508250Y-62866750D03*
D26*
X272318250Y-65406750D03*
D33*
X290075000Y-37675000D03*
D34*
X297695000Y-37675000D03*
D24*
X355852500Y-107920000D03*
D25*
X358392500Y-113000000D03*
D26*
X353312500Y-113000000D03*
D24*
X349502500Y-110460000D03*
D25*
X348232500Y-113000000D03*
D26*
X372362500Y-65375000D03*
D24*
X374902500Y-60295000D03*
X368552500Y-62835000D03*
D25*
X377442500Y-65375000D03*
X367282500Y-65375000D03*
X339342500Y-65375000D03*
D26*
X334262500Y-65375000D03*
D24*
X336802500Y-60295000D03*
X330452500Y-62835000D03*
D25*
X329182500Y-65375000D03*
X219613250Y-132081750D03*
D24*
X220883250Y-129541750D03*
D25*
X229773250Y-132081750D03*
D24*
X227233250Y-127001750D03*
D26*
X224693250Y-132081750D03*
X415193250Y-151163500D03*
D24*
X417733250Y-146083500D03*
X411383250Y-148623500D03*
D25*
X410113250Y-151163500D03*
X420273250Y-151163500D03*
D24*
X280414500Y-186691750D03*
D25*
X279144500Y-189231750D03*
D26*
X284224500Y-189231750D03*
D25*
X289304500Y-189231750D03*
D24*
X286764500Y-184151750D03*
X222566000Y-79376750D03*
X216216000Y-81916750D03*
D26*
X220026000Y-84456750D03*
D25*
X214946000Y-84456750D03*
X225106000Y-84456750D03*
X458373250Y-113063500D03*
X448213250Y-113063500D03*
D26*
X453293250Y-113063500D03*
D24*
X455833250Y-107983500D03*
X449483250Y-110523500D03*
D25*
X41019500Y-189231750D03*
D24*
X48639500Y-184151750D03*
D25*
X51179500Y-189231750D03*
D26*
X46099500Y-189231750D03*
D24*
X42289500Y-186691750D03*
D26*
X272318250Y-113031750D03*
D24*
X268508250Y-110491750D03*
D25*
X267238250Y-113031750D03*
X277398250Y-113031750D03*
D24*
X274858250Y-107951750D03*
D25*
X305338250Y-84456750D03*
D24*
X306608250Y-81916750D03*
D25*
X315498250Y-84456750D03*
D24*
X312958250Y-79376750D03*
D26*
X310418250Y-84456750D03*
D24*
X178116000Y-81916750D03*
D25*
X187006000Y-84456750D03*
D24*
X184466000Y-79376750D03*
D25*
X176846000Y-84456750D03*
D26*
X181926000Y-84456750D03*
D25*
X313117000Y-189231750D03*
D24*
X310577000Y-184151750D03*
X304227000Y-186691750D03*
D26*
X308037000Y-189231750D03*
D25*
X302957000Y-189231750D03*
D26*
X72293250Y-132081750D03*
D24*
X74833250Y-127001750D03*
X68483250Y-129541750D03*
D25*
X77373250Y-132081750D03*
X67213250Y-132081750D03*
D24*
X46258250Y-107951750D03*
D25*
X38638250Y-113031750D03*
D24*
X39908250Y-110491750D03*
D25*
X48798250Y-113031750D03*
D26*
X43718250Y-113031750D03*
D24*
X197070750Y-167641750D03*
D25*
X205960750Y-170181750D03*
D24*
X203420750Y-165101750D03*
D25*
X195800750Y-170181750D03*
D26*
X200880750Y-170181750D03*
D24*
X58958250Y-110491750D03*
D25*
X57688250Y-113031750D03*
D26*
X62768250Y-113031750D03*
D24*
X65308250Y-107951750D03*
D25*
X67848250Y-113031750D03*
X377410750Y-189263500D03*
D24*
X374870750Y-184183500D03*
X368520750Y-186723500D03*
D25*
X367250750Y-189263500D03*
D26*
X372330750Y-189263500D03*
D33*
X305075000Y-37675000D03*
D34*
X312695000Y-37675000D03*
D25*
X367245000Y-170200000D03*
D26*
X372325000Y-170200000D03*
D25*
X377405000Y-170200000D03*
D24*
X374865000Y-165120000D03*
X368515000Y-167660000D03*
D25*
X119600750Y-170181750D03*
X129760750Y-170181750D03*
D26*
X124680750Y-170181750D03*
D24*
X120870750Y-167641750D03*
X127220750Y-165101750D03*
D25*
X157796000Y-84456750D03*
D24*
X165416000Y-79376750D03*
D25*
X167956000Y-84456750D03*
D26*
X162876000Y-84456750D03*
D24*
X159066000Y-81916750D03*
D26*
X110393250Y-84456750D03*
D24*
X112933250Y-79376750D03*
X106583250Y-81916750D03*
D25*
X105313250Y-84456750D03*
X115473250Y-84456750D03*
X401223250Y-132113500D03*
D24*
X392333250Y-129573500D03*
D26*
X396143250Y-132113500D03*
D24*
X398683250Y-127033500D03*
D25*
X391063250Y-132113500D03*
X248188250Y-113031750D03*
D24*
X255808250Y-107951750D03*
D25*
X258348250Y-113031750D03*
D24*
X249458250Y-110491750D03*
D26*
X253268250Y-113031750D03*
D24*
X78008250Y-110491750D03*
D25*
X86898250Y-113031750D03*
D24*
X84358250Y-107951750D03*
D26*
X81818250Y-113031750D03*
D25*
X76738250Y-113031750D03*
X86263250Y-132081750D03*
X96423250Y-132081750D03*
D26*
X91343250Y-132081750D03*
D24*
X87533250Y-129541750D03*
X93883250Y-127001750D03*
D26*
X334230750Y-189263500D03*
D24*
X336770750Y-184183500D03*
D25*
X329150750Y-189263500D03*
X339310750Y-189263500D03*
D24*
X330420750Y-186723500D03*
D25*
X262475750Y-151131750D03*
D24*
X270095750Y-146051750D03*
D26*
X267555750Y-151131750D03*
D25*
X272635750Y-151131750D03*
D24*
X263745750Y-148591750D03*
D25*
X429163250Y-170213500D03*
D24*
X436783250Y-165133500D03*
D25*
X439323250Y-170213500D03*
D24*
X430433250Y-167673500D03*
D26*
X434243250Y-170213500D03*
D25*
X241679500Y-189231750D03*
D26*
X236599500Y-189231750D03*
D24*
X232789500Y-186691750D03*
D25*
X231519500Y-189231750D03*
D24*
X239139500Y-184151750D03*
D25*
X134523250Y-65406750D03*
X124363250Y-65406750D03*
D26*
X129443250Y-65406750D03*
D24*
X125633250Y-62866750D03*
X131983250Y-60326750D03*
D26*
X91343250Y-65406750D03*
D24*
X87533250Y-62866750D03*
X93883250Y-60326750D03*
D25*
X86263250Y-65406750D03*
X96423250Y-65406750D03*
X367282500Y-113000000D03*
D26*
X372362500Y-113000000D03*
D25*
X377442500Y-113000000D03*
D24*
X374902500Y-107920000D03*
X368552500Y-110460000D03*
X89120750Y-165101750D03*
D25*
X81500750Y-170181750D03*
X91660750Y-170181750D03*
D26*
X86580750Y-170181750D03*
D24*
X82770750Y-167641750D03*
D25*
X186910750Y-170181750D03*
D24*
X178020750Y-167641750D03*
D25*
X176750750Y-170181750D03*
D26*
X181830750Y-170181750D03*
D24*
X184370750Y-165101750D03*
X79595750Y-146051750D03*
X73245750Y-148591750D03*
D25*
X71975750Y-151131750D03*
D26*
X77055750Y-151131750D03*
D25*
X82135750Y-151131750D03*
D24*
X430433250Y-129573500D03*
D26*
X434243250Y-132113500D03*
D25*
X429163250Y-132113500D03*
X439323250Y-132113500D03*
D24*
X436783250Y-127033500D03*
D26*
X393730250Y-197518500D03*
D24*
X408208250Y-184183500D03*
D25*
X400588250Y-189263500D03*
D26*
X405668250Y-189263500D03*
D25*
X410748250Y-189263500D03*
D26*
X417606250Y-197518500D03*
D24*
X401858250Y-186723500D03*
D27*
X417606250Y-182278500D03*
X393730250Y-182278500D03*
D25*
X120235750Y-151131750D03*
D24*
X117695750Y-146051750D03*
D25*
X110075750Y-151131750D03*
D26*
X115155750Y-151131750D03*
D24*
X111345750Y-148591750D03*
X296289500Y-165101750D03*
D26*
X281811500Y-178436750D03*
D24*
X289939500Y-167641750D03*
D26*
X305687500Y-178436750D03*
D25*
X298829500Y-170181750D03*
D27*
X305687500Y-163196750D03*
D26*
X293749500Y-170181750D03*
D25*
X288669500Y-170181750D03*
D27*
X281811500Y-163196750D03*
D25*
X367282500Y-132050000D03*
D24*
X374902500Y-126970000D03*
D25*
X377442500Y-132050000D03*
D24*
X368552500Y-129510000D03*
D26*
X372362500Y-132050000D03*
X200976000Y-65406750D03*
D24*
X203516000Y-60326750D03*
D25*
X195896000Y-65406750D03*
X206056000Y-65406750D03*
D24*
X197166000Y-62866750D03*
X212945750Y-146051750D03*
D25*
X205325750Y-151131750D03*
D24*
X206595750Y-148591750D03*
D25*
X215485750Y-151131750D03*
D26*
X210405750Y-151131750D03*
X434243250Y-189263500D03*
D24*
X430433250Y-186723500D03*
X436783250Y-184183500D03*
D25*
X429163250Y-189263500D03*
X439323250Y-189263500D03*
D24*
X336802500Y-79345000D03*
X330452500Y-81885000D03*
D25*
X329182500Y-84425000D03*
X339342500Y-84425000D03*
D26*
X334262500Y-84425000D03*
D24*
X355820750Y-184183500D03*
D25*
X348200750Y-189263500D03*
D26*
X353280750Y-189263500D03*
D25*
X358360750Y-189263500D03*
D24*
X349470750Y-186723500D03*
D25*
X191038250Y-113031750D03*
D26*
X196118250Y-113031750D03*
D24*
X198658250Y-107951750D03*
D25*
X201198250Y-113031750D03*
D24*
X192308250Y-110491750D03*
D26*
X105630750Y-170181750D03*
D25*
X110710750Y-170181750D03*
D24*
X101820750Y-167641750D03*
X108170750Y-165101750D03*
D25*
X100550750Y-170181750D03*
D24*
X336802500Y-126970000D03*
D25*
X339342500Y-132050000D03*
D26*
X334262500Y-132050000D03*
D24*
X330452500Y-129510000D03*
D25*
X329182500Y-132050000D03*
X348232500Y-65375000D03*
X358392500Y-65375000D03*
D24*
X349502500Y-62835000D03*
X355852500Y-60295000D03*
D26*
X353312500Y-65375000D03*
D24*
X97058250Y-110491750D03*
D26*
X100868250Y-113031750D03*
D25*
X105948250Y-113031750D03*
D24*
X103408250Y-107951750D03*
D25*
X95788250Y-113031750D03*
D24*
X349502500Y-43785000D03*
D25*
X348232500Y-46325000D03*
D26*
X353312500Y-46325000D03*
D24*
X355852500Y-41245000D03*
D25*
X358392500Y-46325000D03*
M02*
