G04 #@! TF.GenerationSoftware,KiCad,Pcbnew,7.0.1*
G04 #@! TF.CreationDate,2023-03-18T22:20:59+01:00*
G04 #@! TF.ProjectId,berlin,6265726c-696e-42e6-9b69-6361645f7063,0.7*
G04 #@! TF.SameCoordinates,Original*
G04 #@! TF.FileFunction,Soldermask,Bot*
G04 #@! TF.FilePolarity,Negative*
%FSLAX46Y46*%
G04 Gerber Fmt 4.6, Leading zero omitted, Abs format (unit mm)*
G04 Created by KiCad (PCBNEW 7.0.1) date 2023-03-18 22:20:59*
%MOMM*%
%LPD*%
G01*
G04 APERTURE LIST*
G04 Aperture macros list*
%AMRoundRect*
0 Rectangle with rounded corners*
0 $1 Rounding radius*
0 $2 $3 $4 $5 $6 $7 $8 $9 X,Y pos of 4 corners*
0 Add a 4 corners polygon primitive as box body*
4,1,4,$2,$3,$4,$5,$6,$7,$8,$9,$2,$3,0*
0 Add four circle primitives for the rounded corners*
1,1,$1+$1,$2,$3*
1,1,$1+$1,$4,$5*
1,1,$1+$1,$6,$7*
1,1,$1+$1,$8,$9*
0 Add four rect primitives between the rounded corners*
20,1,$1+$1,$2,$3,$4,$5,0*
20,1,$1+$1,$4,$5,$6,$7,0*
20,1,$1+$1,$6,$7,$8,$9,0*
20,1,$1+$1,$8,$9,$2,$3,0*%
%AMFreePoly0*
4,1,30,0.664142,0.394142,0.670000,0.380000,0.664142,0.365858,0.650000,0.360000,0.639861,0.360000,0.634589,0.349456,0.637054,0.347963,0.641840,0.336566,0.639014,0.324533,0.590226,0.244034,0.507054,0.075143,0.438918,-0.100353,0.386337,-0.281120,0.368024,-0.373451,0.364615,-0.379544,0.365871,-0.382599,0.359972,-0.396724,0.345813,-0.402541,-0.525058,-0.400000,-0.532121,-0.397049,
-0.539142,-0.394142,-0.539153,-0.394113,-0.539183,-0.394101,-0.542094,-0.387015,-0.545000,-0.380000,-0.545000,0.380000,-0.539142,0.394142,-0.525000,0.400000,0.650000,0.400000,0.664142,0.394142,0.664142,0.394142,$1*%
%AMFreePoly1*
4,1,30,0.359972,0.396724,0.365871,0.382599,0.360054,0.368440,0.348993,0.363820,0.355759,0.340140,0.360464,0.341185,0.371801,0.336259,0.378079,0.325611,0.398169,0.235096,0.453754,0.058186,0.524322,-0.113298,0.609351,-0.278090,0.658787,-0.356530,0.660798,-0.364473,0.664142,-0.365858,0.670000,-0.380000,0.664142,-0.394142,0.650000,-0.400000,-0.525000,-0.400000,-0.539142,-0.394142,
-0.545000,-0.380000,-0.545000,0.380000,-0.542090,0.387022,-0.539183,0.394101,-0.539153,0.394113,-0.539142,0.394142,-0.532121,0.397049,-0.525058,0.400000,0.345813,0.402541,0.359972,0.396724,0.359972,0.396724,$1*%
%AMFreePoly2*
4,1,31,0.575001,0.424979,0.592678,0.417657,0.600000,0.399978,0.592678,0.382301,0.574999,0.374979,0.559850,0.374979,0.541893,0.339064,0.547469,0.335977,0.554005,0.321977,0.551065,0.306808,0.490426,0.197399,0.393857,-0.033392,0.323058,-0.273344,0.301018,-0.396477,0.299621,-0.399085,0.300000,-0.400000,0.292678,-0.417678,0.275000,-0.425000,-0.200000,-0.425000,-0.319736,-0.407785,
-0.429772,-0.357533,-0.521194,-0.278316,-0.586594,-0.176551,-0.620674,-0.060484,-0.620674,0.060484,-0.586594,0.176551,-0.521194,0.278316,-0.429772,0.357533,-0.319736,0.407785,-0.199999,0.425000,0.575001,0.424979,0.575001,0.424979,$1*%
G04 Aperture macros list end*
%ADD10C,4.250000*%
%ADD11FreePoly0,180.000000*%
%ADD12FreePoly1,180.000000*%
%ADD13FreePoly2,0.000000*%
%ADD14FreePoly1,0.000000*%
%ADD15FreePoly0,0.000000*%
%ADD16FreePoly2,180.000000*%
%ADD17C,0.889000*%
%ADD18C,1.778000*%
%ADD19RoundRect,0.177800X-0.711200X-0.711200X0.711200X-0.711200X0.711200X0.711200X-0.711200X0.711200X0*%
%ADD20C,1.800000*%
%ADD21R,2.000000X2.000000*%
%ADD22C,2.000000*%
%ADD23R,4.000000X3.000000*%
%ADD24R,3.000000X4.000000*%
%ADD25FreePoly0,90.000000*%
%ADD26FreePoly1,90.000000*%
%ADD27FreePoly2,270.000000*%
%ADD28FreePoly1,270.000000*%
%ADD29C,1.596000*%
%ADD30R,1.750000X1.750000*%
%ADD31C,1.750000*%
%ADD32C,2.700000*%
%ADD33FreePoly0,270.000000*%
%ADD34FreePoly2,90.000000*%
%ADD35C,0.800000*%
%ADD36C,7.000000*%
%ADD37RoundRect,0.250000X-0.350000X0.250000X-0.350000X-0.250000X0.350000X-0.250000X0.350000X0.250000X0*%
%ADD38C,3.600000*%
%ADD39C,1.701800*%
%ADD40C,3.987800*%
%ADD41RoundRect,0.254000X1.016000X1.016000X-1.016000X1.016000X-1.016000X-1.016000X1.016000X-1.016000X0*%
%ADD42RoundRect,0.250000X0.450000X-0.350000X0.450000X0.350000X-0.450000X0.350000X-0.450000X-0.350000X0*%
%ADD43RoundRect,0.250000X-0.450000X0.350000X-0.450000X-0.350000X0.450000X-0.350000X0.450000X0.350000X0*%
%ADD44RoundRect,0.250000X1.450000X-0.400000X1.450000X0.400000X-1.450000X0.400000X-1.450000X-0.400000X0*%
%ADD45RoundRect,0.250000X0.475000X-0.337500X0.475000X0.337500X-0.475000X0.337500X-0.475000X-0.337500X0*%
%ADD46RoundRect,0.250000X-0.475000X0.337500X-0.475000X-0.337500X0.475000X-0.337500X0.475000X0.337500X0*%
%ADD47R,1.487399X0.431000*%
%ADD48C,3.048000*%
%ADD49RoundRect,0.254000X1.016000X-1.016000X1.016000X1.016000X-1.016000X1.016000X-1.016000X-1.016000X0*%
%ADD50RoundRect,0.250000X-0.412500X-0.650000X0.412500X-0.650000X0.412500X0.650000X-0.412500X0.650000X0*%
%ADD51RoundRect,0.250000X0.650000X-0.412500X0.650000X0.412500X-0.650000X0.412500X-0.650000X-0.412500X0*%
%ADD52R,1.560000X0.650000*%
%ADD53C,0.650000*%
%ADD54RoundRect,0.150000X-0.150000X-0.575000X0.150000X-0.575000X0.150000X0.575000X-0.150000X0.575000X0*%
%ADD55RoundRect,0.075000X-0.075000X-0.650000X0.075000X-0.650000X0.075000X0.650000X-0.075000X0.650000X0*%
%ADD56O,1.100000X2.200000*%
%ADD57O,1.300000X1.900000*%
%ADD58RoundRect,0.250000X0.325000X0.450000X-0.325000X0.450000X-0.325000X-0.450000X0.325000X-0.450000X0*%
%ADD59RoundRect,0.250000X-0.350000X-0.450000X0.350000X-0.450000X0.350000X0.450000X-0.350000X0.450000X0*%
%ADD60RoundRect,0.250000X0.250000X0.350000X-0.250000X0.350000X-0.250000X-0.350000X0.250000X-0.350000X0*%
%ADD61R,1.000000X1.500000*%
%ADD62R,0.650000X1.060000*%
%ADD63RoundRect,0.325000X0.000000X0.205000X0.000000X-0.205000X0.000000X-0.205000X0.000000X0.205000X0*%
%ADD64R,1.524000X1.524000*%
%ADD65O,1.524000X1.524000*%
%ADD66R,1.193800X0.304800*%
%ADD67R,0.304800X1.193800*%
%ADD68RoundRect,0.250000X0.350000X-0.250000X0.350000X0.250000X-0.350000X0.250000X-0.350000X-0.250000X0*%
%ADD69R,3.500000X2.350000*%
%ADD70R,0.650000X2.000000*%
%ADD71RoundRect,0.250000X-0.337500X-0.475000X0.337500X-0.475000X0.337500X0.475000X-0.337500X0.475000X0*%
%ADD72RoundRect,0.150000X-0.150000X0.587500X-0.150000X-0.587500X0.150000X-0.587500X0.150000X0.587500X0*%
%ADD73RoundRect,0.250000X0.350000X0.450000X-0.350000X0.450000X-0.350000X-0.450000X0.350000X-0.450000X0*%
%ADD74RoundRect,0.250000X0.337500X0.475000X-0.337500X0.475000X-0.337500X-0.475000X0.337500X-0.475000X0*%
%ADD75C,1.600000*%
%ADD76O,1.600000X1.600000*%
%ADD77R,0.610000X2.000000*%
%ADD78R,2.680000X3.600000*%
%ADD79RoundRect,0.250000X0.412500X0.650000X-0.412500X0.650000X-0.412500X-0.650000X0.412500X-0.650000X0*%
%ADD80RoundRect,0.250000X-0.450000X0.325000X-0.450000X-0.325000X0.450000X-0.325000X0.450000X0.325000X0*%
%ADD81RoundRect,0.250000X-0.250000X-0.350000X0.250000X-0.350000X0.250000X0.350000X-0.250000X0.350000X0*%
G04 APERTURE END LIST*
D10*
X234212500Y-118065500D03*
D11*
X236879500Y-118865500D03*
D12*
X236854100Y-117265500D03*
D13*
X231647100Y-117265500D03*
D14*
X231570900Y-118865500D03*
D10*
X62762500Y-118080000D03*
D11*
X65429500Y-118880000D03*
D12*
X65404100Y-117280000D03*
D13*
X60197100Y-117280000D03*
D14*
X60120900Y-118880000D03*
D10*
X129275000Y-194275000D03*
D11*
X131942000Y-195075000D03*
D12*
X131916600Y-193475000D03*
D13*
X126709600Y-193475000D03*
D14*
X126633400Y-195075000D03*
D10*
X253262500Y-89490500D03*
D15*
X250595500Y-88690500D03*
D14*
X250620900Y-90290500D03*
D16*
X255827900Y-90290500D03*
D12*
X255904100Y-88690500D03*
D10*
X138962500Y-118065500D03*
D11*
X141629500Y-118865500D03*
D12*
X141604100Y-117265500D03*
D13*
X136397100Y-117265500D03*
D14*
X136320900Y-118865500D03*
D10*
X200975000Y-89725000D03*
D15*
X198308000Y-88925000D03*
D14*
X198333400Y-90525000D03*
D16*
X203540400Y-90525000D03*
D12*
X203616600Y-88925000D03*
D10*
X69874500Y-194265500D03*
D11*
X72541500Y-195065500D03*
D12*
X72516100Y-193465500D03*
D13*
X67309100Y-193465500D03*
D14*
X67232900Y-195065500D03*
D10*
X182015500Y-70567500D03*
D11*
X184682500Y-71367500D03*
D12*
X184657100Y-69767500D03*
D13*
X179450100Y-69767500D03*
D14*
X179373900Y-71367500D03*
D10*
X72325000Y-70455000D03*
D11*
X74992000Y-71255000D03*
D12*
X74966600Y-69655000D03*
D13*
X69759600Y-69655000D03*
D14*
X69683400Y-71255000D03*
D17*
X300205000Y-37675000D03*
X302745000Y-37675000D03*
D18*
X300205000Y-37675000D03*
D19*
X302745000Y-37675000D03*
D10*
X186587500Y-137115500D03*
D15*
X183920500Y-136315500D03*
D14*
X183945900Y-137915500D03*
D16*
X189152900Y-137915500D03*
D12*
X189229100Y-136315500D03*
D10*
X248563500Y-156165500D03*
D11*
X251230500Y-156965500D03*
D12*
X251205100Y-155365500D03*
D13*
X245998100Y-155365500D03*
D14*
X245921900Y-156965500D03*
D10*
X162965500Y-70567500D03*
D11*
X165632500Y-71367500D03*
D12*
X165607100Y-69767500D03*
D13*
X160400100Y-69767500D03*
D14*
X160323900Y-71367500D03*
D20*
X379422000Y-42325000D03*
D21*
X364922000Y-43825000D03*
D22*
X364922000Y-48825000D03*
D20*
X379422000Y-44325000D03*
D22*
X364922000Y-46325000D03*
D20*
X379422000Y-48325000D03*
D23*
X372422000Y-38725000D03*
X372422000Y-53925000D03*
D20*
X379422000Y-50325000D03*
X379422000Y-46325000D03*
D10*
X200975000Y-194275000D03*
D11*
X203642000Y-195075000D03*
D12*
X203616600Y-193475000D03*
D13*
X198409600Y-193475000D03*
D14*
X198333400Y-195075000D03*
D10*
X129437500Y-137115500D03*
D15*
X126770500Y-136315500D03*
D14*
X126795900Y-137915500D03*
D16*
X132002900Y-137915500D03*
D12*
X132079100Y-136315500D03*
D10*
X158012500Y-118065500D03*
D11*
X160679500Y-118865500D03*
D12*
X160654100Y-117265500D03*
D13*
X155447100Y-117265500D03*
D14*
X155370900Y-118865500D03*
D10*
X165251500Y-194265500D03*
D11*
X167918500Y-195065500D03*
D12*
X167893100Y-193465500D03*
D13*
X162686100Y-193465500D03*
D14*
X162609900Y-195065500D03*
D10*
X334288500Y-137115500D03*
D11*
X336955500Y-137915500D03*
D12*
X336930100Y-136315500D03*
D13*
X331723100Y-136315500D03*
D14*
X331646900Y-137915500D03*
D10*
X200938500Y-175215500D03*
D15*
X198271500Y-174415500D03*
D14*
X198296900Y-176015500D03*
D16*
X203503900Y-176015500D03*
D12*
X203580100Y-174415500D03*
D10*
X253262500Y-70440500D03*
D11*
X255929500Y-71240500D03*
D12*
X255904100Y-69640500D03*
D13*
X250697100Y-69640500D03*
D14*
X250620900Y-71240500D03*
D10*
X210463500Y-156165500D03*
D11*
X213130500Y-156965500D03*
D12*
X213105100Y-155365500D03*
D13*
X207898100Y-155365500D03*
D14*
X207821900Y-156965500D03*
D10*
X396137500Y-118065500D03*
D11*
X398804500Y-118865500D03*
D12*
X398779100Y-117265500D03*
D13*
X393572100Y-117265500D03*
D14*
X393495900Y-118865500D03*
D10*
X77113500Y-156165500D03*
D11*
X79780500Y-156965500D03*
D12*
X79755100Y-155365500D03*
D13*
X74548100Y-155365500D03*
D14*
X74471900Y-156965500D03*
D10*
X334288500Y-70440500D03*
D15*
X331621500Y-69640500D03*
D14*
X331646900Y-71240500D03*
D16*
X336853900Y-71240500D03*
D12*
X336930100Y-69640500D03*
D10*
X129475000Y-70455000D03*
D11*
X132142000Y-71255000D03*
D12*
X132116600Y-69655000D03*
D13*
X126909600Y-69655000D03*
D14*
X126833400Y-71255000D03*
D10*
X372388500Y-89490500D03*
D11*
X375055500Y-90290500D03*
D12*
X375030100Y-88690500D03*
D13*
X369823100Y-88690500D03*
D14*
X369746900Y-90290500D03*
D10*
X353338500Y-89490500D03*
D11*
X356005500Y-90290500D03*
D12*
X355980100Y-88690500D03*
D13*
X350773100Y-88690500D03*
D14*
X350696900Y-90290500D03*
D10*
X243737500Y-137115500D03*
D15*
X241070500Y-136315500D03*
D14*
X241095900Y-137915500D03*
D16*
X246302900Y-137915500D03*
D12*
X246379100Y-136315500D03*
D10*
X220125000Y-89725000D03*
D15*
X217458000Y-88925000D03*
D14*
X217483400Y-90525000D03*
D16*
X222690400Y-90525000D03*
D12*
X222766600Y-88925000D03*
D10*
X334288500Y-118192500D03*
D15*
X331621500Y-117392500D03*
D14*
X331646900Y-118992500D03*
D16*
X336853900Y-118992500D03*
D12*
X336930100Y-117392500D03*
D10*
X177062500Y-118065500D03*
D11*
X179729500Y-118865500D03*
D12*
X179704100Y-117265500D03*
D13*
X174497100Y-117265500D03*
D14*
X174420900Y-118865500D03*
D10*
X110387500Y-89490500D03*
D15*
X107720500Y-88690500D03*
D14*
X107745900Y-90290500D03*
D16*
X112952900Y-90290500D03*
D12*
X113029100Y-88690500D03*
D10*
X46125500Y-194265500D03*
D11*
X48792500Y-195065500D03*
D12*
X48767100Y-193465500D03*
D13*
X43560100Y-193465500D03*
D14*
X43483900Y-195065500D03*
D10*
X415187500Y-137242500D03*
D15*
X412520500Y-136442500D03*
D14*
X412545900Y-138042500D03*
D16*
X417752900Y-138042500D03*
D12*
X417829100Y-136442500D03*
D10*
X215162500Y-118065500D03*
D11*
X217829500Y-118865500D03*
D12*
X217804100Y-117265500D03*
D13*
X212597100Y-117265500D03*
D14*
X212520900Y-118865500D03*
D20*
X47750000Y-60433000D03*
D21*
X46250000Y-45933000D03*
D20*
X45750000Y-60433000D03*
D22*
X41250000Y-45933000D03*
X43750000Y-45933000D03*
D20*
X41750000Y-60433000D03*
D24*
X51350000Y-53433000D03*
X36150000Y-53433000D03*
D20*
X39750000Y-60433000D03*
X43750000Y-60433000D03*
D10*
X110387500Y-137115500D03*
D15*
X107720500Y-136315500D03*
D14*
X107745900Y-137915500D03*
D16*
X112952900Y-137915500D03*
D12*
X113029100Y-136315500D03*
D10*
X272312500Y-70440500D03*
D11*
X274979500Y-71240500D03*
D12*
X274954100Y-69640500D03*
D13*
X269747100Y-69640500D03*
D14*
X269670900Y-71240500D03*
D10*
X48538500Y-137115500D03*
D15*
X45871500Y-136315500D03*
D14*
X45896900Y-137915500D03*
D16*
X51103900Y-137915500D03*
D12*
X51180100Y-136315500D03*
D10*
X447905000Y-179905000D03*
D25*
X447105000Y-182572000D03*
D26*
X448705000Y-182546600D03*
D27*
X448705000Y-177339600D03*
D28*
X447105000Y-177263400D03*
D10*
X110425000Y-70455000D03*
D11*
X113092000Y-71255000D03*
D12*
X113066600Y-69655000D03*
D13*
X107859600Y-69655000D03*
D14*
X107783400Y-71255000D03*
D10*
X415187500Y-118065500D03*
D11*
X417854500Y-118865500D03*
D12*
X417829100Y-117265500D03*
D13*
X412622100Y-117265500D03*
D14*
X412545900Y-118865500D03*
D10*
X50824500Y-156165500D03*
D11*
X53491500Y-156965500D03*
D12*
X53466100Y-155365500D03*
D13*
X48259100Y-155365500D03*
D14*
X48182900Y-156965500D03*
D10*
X100862500Y-118080000D03*
D11*
X103529500Y-118880000D03*
D12*
X103504100Y-117280000D03*
D13*
X98297100Y-117280000D03*
D14*
X98220900Y-118880000D03*
D10*
X148487500Y-137115500D03*
D15*
X145820500Y-136315500D03*
D14*
X145845900Y-137915500D03*
D16*
X151052900Y-137915500D03*
D12*
X151129100Y-136315500D03*
D29*
X35475000Y-36475000D03*
D10*
X353338500Y-118192500D03*
D15*
X350671500Y-117392500D03*
D14*
X350696900Y-118992500D03*
D16*
X355903900Y-118992500D03*
D12*
X355980100Y-117392500D03*
D10*
X181761500Y-175215500D03*
D15*
X179094500Y-174415500D03*
D14*
X179119900Y-176015500D03*
D16*
X184326900Y-176015500D03*
D12*
X184403100Y-174415500D03*
D10*
X172236500Y-156165500D03*
D11*
X174903500Y-156965500D03*
D12*
X174878100Y-155365500D03*
D13*
X169671100Y-155365500D03*
D14*
X169594900Y-156965500D03*
D10*
X415285000Y-175295000D03*
D15*
X412618000Y-174495000D03*
D14*
X412643400Y-176095000D03*
D16*
X417850400Y-176095000D03*
D12*
X417926600Y-174495000D03*
D10*
X353255000Y-175295000D03*
D15*
X350588000Y-174495000D03*
D14*
X350613400Y-176095000D03*
D16*
X355820400Y-176095000D03*
D12*
X355896600Y-174495000D03*
D10*
X72287500Y-137115500D03*
D15*
X69620500Y-136315500D03*
D14*
X69645900Y-137915500D03*
D16*
X74852900Y-137915500D03*
D12*
X74929100Y-136315500D03*
D10*
X353338500Y-194392500D03*
D11*
X356005500Y-195192500D03*
D12*
X355980100Y-193592500D03*
D13*
X350773100Y-193592500D03*
D14*
X350696900Y-195192500D03*
D10*
X286663500Y-156165500D03*
D15*
X283996500Y-155365500D03*
D14*
X284021900Y-156965500D03*
D16*
X289228900Y-156965500D03*
D12*
X289305100Y-155365500D03*
D30*
X64221250Y-44575000D03*
D31*
X64221250Y-48075000D03*
X137721250Y-44575000D03*
D32*
X133571250Y-50525000D03*
X68371250Y-50525000D03*
X69571250Y-42125000D03*
X132371250Y-42125000D03*
D10*
X86638500Y-175215500D03*
D15*
X83971500Y-174415500D03*
D14*
X83996900Y-176015500D03*
D16*
X89203900Y-176015500D03*
D12*
X89280100Y-174415500D03*
D10*
X224687500Y-137115500D03*
D15*
X222020500Y-136315500D03*
D14*
X222045900Y-137915500D03*
D16*
X227252900Y-137915500D03*
D12*
X227329100Y-136315500D03*
D10*
X353338500Y-137115500D03*
D11*
X356005500Y-137915500D03*
D12*
X355980100Y-136315500D03*
D13*
X350773100Y-136315500D03*
D14*
X350696900Y-137915500D03*
D17*
X317745000Y-37675000D03*
X315205000Y-37675000D03*
D18*
X315205000Y-37675000D03*
D19*
X317745000Y-37675000D03*
D10*
X300887500Y-118065500D03*
D15*
X298220500Y-117265500D03*
D14*
X298245900Y-118865500D03*
D16*
X303452900Y-118865500D03*
D12*
X303529100Y-117265500D03*
D10*
X262787500Y-137115500D03*
D15*
X260120500Y-136315500D03*
D14*
X260145900Y-137915500D03*
D16*
X265352900Y-137915500D03*
D12*
X265429100Y-136315500D03*
D10*
X372388500Y-118192500D03*
D15*
X369721500Y-117392500D03*
D14*
X369746900Y-118992500D03*
D16*
X374953900Y-118992500D03*
D12*
X375030100Y-117392500D03*
D10*
X93750500Y-194265500D03*
D11*
X96417500Y-195065500D03*
D12*
X96392100Y-193465500D03*
D13*
X91185100Y-193465500D03*
D14*
X91108900Y-195065500D03*
D10*
X448065000Y-141905000D03*
D33*
X448865000Y-139238000D03*
D28*
X447265000Y-139263400D03*
D34*
X447265000Y-144470400D03*
D26*
X448865000Y-144546600D03*
D10*
X229513500Y-156165500D03*
D11*
X232180500Y-156965500D03*
D12*
X232155100Y-155365500D03*
D13*
X226948100Y-155365500D03*
D14*
X226871900Y-156965500D03*
D10*
X434237500Y-194392500D03*
D11*
X436904500Y-195192500D03*
D12*
X436879100Y-193592500D03*
D13*
X431672100Y-193592500D03*
D14*
X431595900Y-195192500D03*
D10*
X372388500Y-194392500D03*
D11*
X375055500Y-195192500D03*
D12*
X375030100Y-193592500D03*
D13*
X369823100Y-193592500D03*
D14*
X369746900Y-195192500D03*
D17*
X285205000Y-37675000D03*
X287745000Y-37675000D03*
D18*
X285205000Y-37675000D03*
D19*
X287745000Y-37675000D03*
D10*
X220115500Y-70567500D03*
D11*
X222782500Y-71367500D03*
D12*
X222757100Y-69767500D03*
D13*
X217550100Y-69767500D03*
D14*
X217473900Y-71367500D03*
D10*
X434237500Y-137242500D03*
D15*
X431570500Y-136442500D03*
D14*
X431595900Y-138042500D03*
D16*
X436802900Y-138042500D03*
D12*
X436879100Y-136442500D03*
D10*
X453287500Y-118065500D03*
D11*
X455954500Y-118865500D03*
D12*
X455929100Y-117265500D03*
D13*
X450722100Y-117265500D03*
D14*
X450645900Y-118865500D03*
D10*
X405700000Y-194280000D03*
D11*
X408367000Y-195080000D03*
D12*
X408341600Y-193480000D03*
D13*
X403134600Y-193480000D03*
D14*
X403058400Y-195080000D03*
D35*
X331631155Y-148818845D03*
X329775000Y-153300000D03*
X332400000Y-150675000D03*
X327918845Y-152531155D03*
X327918845Y-148818845D03*
X329775000Y-148050000D03*
X331631155Y-152531155D03*
X327150000Y-150675000D03*
D36*
X329775000Y-150675000D03*
D29*
X462975000Y-198975000D03*
D10*
X434237500Y-175215500D03*
D15*
X431570500Y-174415500D03*
D14*
X431595900Y-176015500D03*
D16*
X436802900Y-176015500D03*
D12*
X436879100Y-174415500D03*
D10*
X191286500Y-156165500D03*
D11*
X193953500Y-156965500D03*
D12*
X193928100Y-155365500D03*
D13*
X188721100Y-155365500D03*
D14*
X188644900Y-156965500D03*
D10*
X434237500Y-118065500D03*
D11*
X436904500Y-118865500D03*
D12*
X436879100Y-117265500D03*
D13*
X431672100Y-117265500D03*
D14*
X431595900Y-118865500D03*
D10*
X293775500Y-175215500D03*
D15*
X291108500Y-174415500D03*
D14*
X291133900Y-176015500D03*
D16*
X296340900Y-176015500D03*
D12*
X296417100Y-174415500D03*
D22*
X233125000Y-37425000D03*
X239625000Y-37425000D03*
X239625000Y-41925000D03*
X233125000Y-41925000D03*
D10*
X434237500Y-156292500D03*
D11*
X436904500Y-157092500D03*
D12*
X436879100Y-155492500D03*
D13*
X431672100Y-155492500D03*
D14*
X431595900Y-157092500D03*
D10*
X272312500Y-89490500D03*
D15*
X269645500Y-88690500D03*
D14*
X269670900Y-90290500D03*
D16*
X274877900Y-90290500D03*
D12*
X274954100Y-88690500D03*
D10*
X105688500Y-175215500D03*
D15*
X103021500Y-174415500D03*
D14*
X103046900Y-176015500D03*
D16*
X108253900Y-176015500D03*
D12*
X108330100Y-174415500D03*
D10*
X281825000Y-137025000D03*
D11*
X284492000Y-137825000D03*
D12*
X284466600Y-136225000D03*
D13*
X279259600Y-136225000D03*
D14*
X279183400Y-137825000D03*
D10*
X372388500Y-137115500D03*
D11*
X375055500Y-137915500D03*
D12*
X375030100Y-136315500D03*
D13*
X369823100Y-136315500D03*
D14*
X369746900Y-137915500D03*
D10*
X372350000Y-175400000D03*
D15*
X369683000Y-174600000D03*
D14*
X369708400Y-176200000D03*
D16*
X374915400Y-176200000D03*
D12*
X374991600Y-174600000D03*
D10*
X267613500Y-156165500D03*
D11*
X270280500Y-156965500D03*
D12*
X270255100Y-155365500D03*
D13*
X265048100Y-155365500D03*
D14*
X264971900Y-156965500D03*
D10*
X143661500Y-175215500D03*
D15*
X140994500Y-174415500D03*
D14*
X141019900Y-176015500D03*
D16*
X146226900Y-176015500D03*
D12*
X146303100Y-174415500D03*
D10*
X372388500Y-70440500D03*
D15*
X369721500Y-69640500D03*
D14*
X369746900Y-71240500D03*
D16*
X374953900Y-71240500D03*
D12*
X375030100Y-69640500D03*
D10*
X67588500Y-175215500D03*
D15*
X64921500Y-174415500D03*
D14*
X64946900Y-176015500D03*
D16*
X70153900Y-176015500D03*
D12*
X70230100Y-174415500D03*
D10*
X291362500Y-70440500D03*
D11*
X294029500Y-71240500D03*
D12*
X294004100Y-69640500D03*
D13*
X288797100Y-69640500D03*
D14*
X288720900Y-71240500D03*
D10*
X46125500Y-175215500D03*
D15*
X43458500Y-174415500D03*
D14*
X43483900Y-176015500D03*
D16*
X48690900Y-176015500D03*
D12*
X48767100Y-174415500D03*
D10*
X260412000Y-194265500D03*
D11*
X263079000Y-195065500D03*
D12*
X263053600Y-193465500D03*
D13*
X257846600Y-193465500D03*
D14*
X257770400Y-195065500D03*
D10*
X96163500Y-156165500D03*
D11*
X98830500Y-156965500D03*
D12*
X98805100Y-155365500D03*
D13*
X93598100Y-155365500D03*
D14*
X93521900Y-156965500D03*
D29*
X35475000Y-198975000D03*
D10*
X181925000Y-89725000D03*
D15*
X179258000Y-88925000D03*
D14*
X179283400Y-90525000D03*
D16*
X184490400Y-90525000D03*
D12*
X184566600Y-88925000D03*
D10*
X43712500Y-118080000D03*
D11*
X46379500Y-118880000D03*
D12*
X46354100Y-117280000D03*
D13*
X41147100Y-117280000D03*
D14*
X41070900Y-118880000D03*
D10*
X396235000Y-175295000D03*
D15*
X393568000Y-174495000D03*
D14*
X393593400Y-176095000D03*
D16*
X398800400Y-176095000D03*
D12*
X398876600Y-174495000D03*
D10*
X333925000Y-175675000D03*
D15*
X331258000Y-174875000D03*
D14*
X331283400Y-176475000D03*
D16*
X336490400Y-176475000D03*
D12*
X336566600Y-174875000D03*
D10*
X310412500Y-89490500D03*
D15*
X307745500Y-88690500D03*
D14*
X307770900Y-90290500D03*
D16*
X312977900Y-90290500D03*
D12*
X313054100Y-88690500D03*
D10*
X91337500Y-137115500D03*
D15*
X88670500Y-136315500D03*
D14*
X88695900Y-137915500D03*
D16*
X93902900Y-137915500D03*
D12*
X93979100Y-136315500D03*
D10*
X129437500Y-89490500D03*
D15*
X126770500Y-88690500D03*
D14*
X126795900Y-90290500D03*
D16*
X132002900Y-90290500D03*
D12*
X132079100Y-88690500D03*
D10*
X253262500Y-118065500D03*
D11*
X255929500Y-118865500D03*
D12*
X255904100Y-117265500D03*
D13*
X250697100Y-117265500D03*
D14*
X250620900Y-118865500D03*
D10*
X308037000Y-147148500D03*
D15*
X305370000Y-146348500D03*
D14*
X305395400Y-147948500D03*
D16*
X310602400Y-147948500D03*
D12*
X310678600Y-146348500D03*
D10*
X334288500Y-194392500D03*
D11*
X336955500Y-195192500D03*
D12*
X336930100Y-193592500D03*
D13*
X331723100Y-193592500D03*
D14*
X331646900Y-195192500D03*
D10*
X43575000Y-90125000D03*
D15*
X40908000Y-89325000D03*
D14*
X40933400Y-90925000D03*
D16*
X46140400Y-90925000D03*
D12*
X46216600Y-89325000D03*
D10*
X310412500Y-70440500D03*
D11*
X313079500Y-71240500D03*
D12*
X313054100Y-69640500D03*
D13*
X307847100Y-69640500D03*
D14*
X307770900Y-71240500D03*
D10*
X91375000Y-70455000D03*
D11*
X94042000Y-71255000D03*
D12*
X94016600Y-69655000D03*
D13*
X88809600Y-69655000D03*
D14*
X88733400Y-71255000D03*
D10*
X119912500Y-118065500D03*
D11*
X122579500Y-118865500D03*
D12*
X122554100Y-117265500D03*
D13*
X117347100Y-117265500D03*
D14*
X117270900Y-118865500D03*
D10*
X258135000Y-175515000D03*
D15*
X255468000Y-174715000D03*
D14*
X255493400Y-176315000D03*
D16*
X260700400Y-176315000D03*
D12*
X260776600Y-174715000D03*
D10*
X396137500Y-137242500D03*
D15*
X393470500Y-136442500D03*
D14*
X393495900Y-138042500D03*
D16*
X398702900Y-138042500D03*
D12*
X398779100Y-136442500D03*
D10*
X334288500Y-89490500D03*
D11*
X336955500Y-90290500D03*
D12*
X336930100Y-88690500D03*
D13*
X331723100Y-88690500D03*
D14*
X331646900Y-90290500D03*
D10*
X115213500Y-156165500D03*
D11*
X117880500Y-156965500D03*
D12*
X117855100Y-155365500D03*
D13*
X112648100Y-155365500D03*
D14*
X112571900Y-156965500D03*
D10*
X236625500Y-194265500D03*
D11*
X239292500Y-195065500D03*
D12*
X239267100Y-193465500D03*
D13*
X234060100Y-193465500D03*
D14*
X233983900Y-195065500D03*
D10*
X134136500Y-156165500D03*
D11*
X136803500Y-156965500D03*
D12*
X136778100Y-155365500D03*
D13*
X131571100Y-155365500D03*
D14*
X131494900Y-156965500D03*
D10*
X205637500Y-137115500D03*
D15*
X202970500Y-136315500D03*
D14*
X202995900Y-137915500D03*
D16*
X208202900Y-137915500D03*
D12*
X208279100Y-136315500D03*
D10*
X91337500Y-89490500D03*
D15*
X88670500Y-88690500D03*
D14*
X88695900Y-90290500D03*
D16*
X93902900Y-90290500D03*
D12*
X93979100Y-88690500D03*
D10*
X284161000Y-194265500D03*
D11*
X286828000Y-195065500D03*
D12*
X286802600Y-193465500D03*
D13*
X281595600Y-193465500D03*
D14*
X281519400Y-195065500D03*
D10*
X167537500Y-137115500D03*
D15*
X164870500Y-136315500D03*
D14*
X164895900Y-137915500D03*
D16*
X170102900Y-137915500D03*
D12*
X170179100Y-136315500D03*
D30*
X245291500Y-44575000D03*
D31*
X245291500Y-48075000D03*
X318791500Y-44575000D03*
D32*
X313441500Y-42125000D03*
X314641500Y-50525000D03*
X249441500Y-50525000D03*
X250641500Y-42125000D03*
D10*
X396137500Y-156292500D03*
D11*
X398804500Y-157092500D03*
D12*
X398779100Y-155492500D03*
D13*
X393572100Y-155492500D03*
D14*
X393495900Y-157092500D03*
D10*
X291362500Y-89490500D03*
D15*
X288695500Y-88690500D03*
D14*
X288720900Y-90290500D03*
D16*
X293927900Y-90290500D03*
D12*
X294004100Y-88690500D03*
D10*
X272350000Y-118080000D03*
D11*
X275017000Y-118880000D03*
D12*
X274991600Y-117280000D03*
D13*
X269784600Y-117280000D03*
D14*
X269708400Y-118880000D03*
D10*
X219988500Y-175215500D03*
D15*
X217321500Y-174415500D03*
D14*
X217346900Y-176015500D03*
D16*
X222553900Y-176015500D03*
D12*
X222630100Y-174415500D03*
D10*
X124611500Y-175215500D03*
D15*
X121944500Y-174415500D03*
D14*
X121969900Y-176015500D03*
D16*
X127176900Y-176015500D03*
D12*
X127253100Y-174415500D03*
D10*
X162875000Y-89725000D03*
D15*
X160208000Y-88925000D03*
D14*
X160233400Y-90525000D03*
D16*
X165440400Y-90525000D03*
D12*
X165516600Y-88925000D03*
D10*
X239038500Y-175215500D03*
D15*
X236371500Y-174415500D03*
D14*
X236396900Y-176015500D03*
D16*
X241603900Y-176015500D03*
D12*
X241680100Y-174415500D03*
D10*
X353338500Y-51390500D03*
D11*
X356005500Y-52190500D03*
D12*
X355980100Y-50590500D03*
D13*
X350773100Y-50590500D03*
D14*
X350696900Y-52190500D03*
D10*
X307999500Y-194265500D03*
D11*
X310666500Y-195065500D03*
D12*
X310641100Y-193465500D03*
D13*
X305434100Y-193465500D03*
D14*
X305357900Y-195065500D03*
D10*
X81812500Y-118080000D03*
D11*
X84479500Y-118880000D03*
D12*
X84454100Y-117280000D03*
D13*
X79247100Y-117280000D03*
D14*
X79170900Y-118880000D03*
D10*
X153186500Y-156165500D03*
D11*
X155853500Y-156965500D03*
D12*
X155828100Y-155365500D03*
D13*
X150621100Y-155365500D03*
D14*
X150544900Y-156965500D03*
D30*
X154804000Y-44575000D03*
D31*
X154804000Y-48075000D03*
X228304000Y-44575000D03*
D32*
X224154000Y-50525000D03*
X158954000Y-50525000D03*
X160154000Y-42125000D03*
X222954000Y-42125000D03*
D10*
X334288500Y-51390500D03*
D11*
X336955500Y-52190500D03*
D12*
X336930100Y-50590500D03*
D13*
X331723100Y-50590500D03*
D14*
X331646900Y-52190500D03*
D10*
X201065500Y-70567500D03*
D11*
X203732500Y-71367500D03*
D12*
X203707100Y-69767500D03*
D13*
X198500100Y-69767500D03*
D14*
X198423900Y-71367500D03*
D10*
X162711500Y-175215500D03*
D15*
X160044500Y-174415500D03*
D14*
X160069900Y-176015500D03*
D16*
X165276900Y-176015500D03*
D12*
X165353100Y-174415500D03*
D10*
X353338500Y-70440500D03*
D15*
X350671500Y-69640500D03*
D14*
X350696900Y-71240500D03*
D16*
X355903900Y-71240500D03*
D12*
X355980100Y-69640500D03*
D29*
X462975000Y-36475000D03*
D10*
X196112500Y-118065500D03*
D11*
X198779500Y-118865500D03*
D12*
X198754100Y-117265500D03*
D13*
X193547100Y-117265500D03*
D14*
X193470900Y-118865500D03*
D10*
X415187500Y-156292500D03*
D11*
X417854500Y-157092500D03*
D12*
X417829100Y-155492500D03*
D13*
X412622100Y-155492500D03*
D14*
X412545900Y-157092500D03*
D10*
X72287500Y-89490500D03*
D15*
X69620500Y-88690500D03*
D14*
X69645900Y-90290500D03*
D16*
X74852900Y-90290500D03*
D12*
X74929100Y-88690500D03*
D37*
X149795000Y-104873000D03*
X149795000Y-108173000D03*
D38*
X168495750Y-148591750D03*
D39*
X177385750Y-151131750D03*
D38*
X174845750Y-146051750D03*
D39*
X167225750Y-151131750D03*
D40*
X172305750Y-151131750D03*
D41*
X178401750Y-146051750D03*
X164939750Y-148591750D03*
D37*
X264095000Y-56740000D03*
X264095000Y-60040000D03*
D40*
X281843250Y-132081750D03*
D39*
X286923250Y-132081750D03*
D38*
X284383250Y-127001750D03*
D39*
X276763250Y-132081750D03*
D38*
X278033250Y-129541750D03*
D41*
X287939250Y-127001750D03*
X274477250Y-129541750D03*
D37*
X364171000Y-104873000D03*
X364171000Y-108173000D03*
X111695000Y-104873000D03*
X111695000Y-108173000D03*
D42*
X320125000Y-54475000D03*
X320125000Y-52475000D03*
D37*
X302195000Y-75790000D03*
X302195000Y-79090000D03*
D43*
X69625000Y-98575000D03*
X69625000Y-100575000D03*
D37*
X37781000Y-162023000D03*
X37781000Y-165323000D03*
X154875000Y-75790000D03*
X154875000Y-79090000D03*
X243190800Y-107819400D03*
X243190800Y-111119400D03*
D38*
X146270750Y-165101750D03*
D39*
X138650750Y-170181750D03*
D40*
X143730750Y-170181750D03*
D38*
X139920750Y-167641750D03*
D39*
X148810750Y-170181750D03*
D41*
X149826750Y-165101750D03*
X136364750Y-167641750D03*
D38*
X274858250Y-79376750D03*
D39*
X277398250Y-84456750D03*
D38*
X268508250Y-81916750D03*
D40*
X272318250Y-84456750D03*
D39*
X267238250Y-84456750D03*
D41*
X278414250Y-79376750D03*
X264952250Y-81916750D03*
D44*
X142937000Y-52106000D03*
X142937000Y-47656000D03*
D37*
X54545000Y-104873000D03*
X54545000Y-108173000D03*
D38*
X392333250Y-167673500D03*
D39*
X401223250Y-170213500D03*
D40*
X396143250Y-170213500D03*
D39*
X391063250Y-170213500D03*
D38*
X398683250Y-165133500D03*
D41*
X402239250Y-165133500D03*
X388777250Y-167673500D03*
D37*
X192975000Y-75790000D03*
X192975000Y-79090000D03*
D40*
X353280750Y-170213500D03*
D39*
X348200750Y-170213500D03*
D38*
X355820750Y-165133500D03*
D39*
X358360750Y-170213500D03*
D38*
X349470750Y-167673500D03*
D41*
X359376750Y-165133500D03*
X345914750Y-167673500D03*
D37*
X364171000Y-57121000D03*
X364171000Y-60421000D03*
D40*
X177068250Y-113031750D03*
D38*
X173258250Y-110491750D03*
X179608250Y-107951750D03*
D39*
X182148250Y-113031750D03*
X171988250Y-113031750D03*
D41*
X183164250Y-107951750D03*
X169702250Y-110491750D03*
D37*
X245045000Y-75790000D03*
X245045000Y-79090000D03*
X326071000Y-123669000D03*
X326071000Y-126969000D03*
D45*
X248195000Y-101782500D03*
X248195000Y-99707500D03*
D40*
X138968250Y-113031750D03*
D38*
X141508250Y-107951750D03*
D39*
X133888250Y-113031750D03*
X144048250Y-113031750D03*
D38*
X135158250Y-110491750D03*
D41*
X145064250Y-107951750D03*
X131602250Y-110491750D03*
D37*
X40067000Y-123923000D03*
X40067000Y-127223000D03*
D38*
X349502500Y-129510000D03*
X355852500Y-126970000D03*
D39*
X348232500Y-132050000D03*
D40*
X353312500Y-132050000D03*
D39*
X358392500Y-132050000D03*
D41*
X359408500Y-126970000D03*
X345946500Y-129510000D03*
D37*
X206945000Y-104873000D03*
X206945000Y-108173000D03*
X455865000Y-158975000D03*
X455865000Y-162275000D03*
D46*
X229043000Y-102234300D03*
X229043000Y-104309300D03*
D37*
X64070000Y-75790000D03*
X64070000Y-79090000D03*
D38*
X112933250Y-60326750D03*
D39*
X115473250Y-65406750D03*
X105313250Y-65406750D03*
D40*
X110393250Y-65406750D03*
D38*
X106583250Y-62866750D03*
D41*
X116489250Y-60326750D03*
X103027250Y-62866750D03*
D38*
X249458410Y-62866750D03*
D39*
X248188410Y-65406750D03*
X258348410Y-65406750D03*
D38*
X255808410Y-60326750D03*
D40*
X253268410Y-65406750D03*
D41*
X259364410Y-60326750D03*
X245902410Y-62866750D03*
D37*
X116521000Y-162023000D03*
X116521000Y-165323000D03*
D47*
X382992400Y-47934999D03*
X382992400Y-47285001D03*
X382992400Y-46634999D03*
X382992400Y-45985001D03*
X387259600Y-45985001D03*
X387259600Y-46634999D03*
X387259600Y-47285001D03*
X387259600Y-47934999D03*
D48*
X460278250Y-153576500D03*
D39*
X453293250Y-136558500D03*
D40*
X445038250Y-129700500D03*
D38*
X458373250Y-144178500D03*
X455833250Y-137828500D03*
D40*
X453293250Y-141638500D03*
D39*
X453293250Y-146718500D03*
D48*
X460278250Y-129700500D03*
D40*
X445038250Y-153576500D03*
D49*
X458373250Y-147734500D03*
X455833250Y-134272500D03*
D37*
X121347000Y-123923000D03*
X121347000Y-127223000D03*
D39*
X296448250Y-65406750D03*
D38*
X293908250Y-60326750D03*
X287558250Y-62866750D03*
D39*
X286288250Y-65406750D03*
D40*
X291368250Y-65406750D03*
D41*
X297464250Y-60326750D03*
X284002250Y-62866750D03*
D40*
X129445000Y-84455000D03*
D38*
X125635000Y-81915000D03*
X131985000Y-79375000D03*
D39*
X124365000Y-84455000D03*
X134525000Y-84455000D03*
D41*
X135541000Y-79375000D03*
X122079000Y-81915000D03*
D37*
X251903000Y-181073000D03*
X251903000Y-184373000D03*
D38*
X430433250Y-148623500D03*
D39*
X439323250Y-151163500D03*
X429163250Y-151163500D03*
D40*
X434243250Y-151163500D03*
D38*
X436783250Y-146083500D03*
D41*
X440339250Y-146083500D03*
X426877250Y-148623500D03*
D38*
X336802500Y-41245000D03*
D40*
X334262500Y-46325000D03*
D38*
X330452500Y-43785000D03*
D39*
X339342500Y-46325000D03*
X329182500Y-46325000D03*
D41*
X340358500Y-41245000D03*
X326896500Y-43785000D03*
D38*
X160558250Y-107951750D03*
X154208250Y-110491750D03*
D40*
X158018250Y-113031750D03*
D39*
X152938250Y-113031750D03*
X163098250Y-113031750D03*
D41*
X164114250Y-107951750D03*
X150652250Y-110491750D03*
D40*
X334262500Y-113000000D03*
D38*
X336802500Y-107920000D03*
D39*
X329182500Y-113000000D03*
X339342500Y-113000000D03*
D38*
X330452500Y-110460000D03*
D41*
X340358500Y-107920000D03*
X326896500Y-110460000D03*
D37*
X326071000Y-76171000D03*
X326071000Y-79471000D03*
D50*
X236712500Y-68675000D03*
X239837500Y-68675000D03*
D43*
X66425000Y-98575000D03*
X66425000Y-100575000D03*
D37*
X159447000Y-123923000D03*
X159447000Y-127223000D03*
X388047000Y-123923000D03*
X388047000Y-127223000D03*
X145223000Y-143227000D03*
X145223000Y-146527000D03*
X262240800Y-107235200D03*
X262240800Y-110535200D03*
D39*
X134523250Y-132081750D03*
D38*
X131983250Y-127001750D03*
D40*
X129443250Y-132081750D03*
D39*
X124363250Y-132081750D03*
D38*
X125633250Y-129541750D03*
D41*
X135539250Y-127001750D03*
X122077250Y-129541750D03*
D39*
X265492000Y-189231750D03*
D38*
X262952000Y-184151750D03*
D40*
X260412000Y-189231750D03*
D38*
X256602000Y-186691750D03*
D39*
X255332000Y-189231750D03*
D41*
X266508000Y-184151750D03*
X253046000Y-186691750D03*
D37*
X102297000Y-123923000D03*
X102297000Y-127223000D03*
D51*
X56975000Y-86837500D03*
X56975000Y-83712500D03*
D38*
X63720750Y-167641750D03*
X70070750Y-165101750D03*
D39*
X62450750Y-170181750D03*
D40*
X67530750Y-170181750D03*
D39*
X72610750Y-170181750D03*
D41*
X73626750Y-165101750D03*
X60164750Y-167641750D03*
D38*
X265333250Y-127001750D03*
X258983250Y-129541750D03*
D40*
X262793250Y-132081750D03*
D39*
X267873250Y-132081750D03*
X257713250Y-132081750D03*
D41*
X268889250Y-127001750D03*
X255427250Y-129541750D03*
D37*
X228027000Y-181073000D03*
X228027000Y-184373000D03*
D40*
X124675000Y-189225000D03*
D39*
X129755000Y-189225000D03*
D38*
X120865000Y-186685000D03*
D39*
X119595000Y-189225000D03*
D38*
X127215000Y-184145000D03*
D41*
X130771000Y-184145000D03*
X117309000Y-186685000D03*
D38*
X130395750Y-148591750D03*
X136745750Y-146051750D03*
D39*
X129125750Y-151131750D03*
X139285750Y-151131750D03*
D40*
X134205750Y-151131750D03*
D41*
X140301750Y-146051750D03*
X126839750Y-148591750D03*
D52*
X58341000Y-99429000D03*
X58341000Y-100379000D03*
X58341000Y-101329000D03*
X55641000Y-101329000D03*
X55641000Y-100379000D03*
X55641000Y-99429000D03*
D37*
X73595000Y-104873000D03*
X73595000Y-108173000D03*
D40*
X186593250Y-132081750D03*
D38*
X182783250Y-129541750D03*
D39*
X191673250Y-132081750D03*
X181513250Y-132081750D03*
D38*
X189133250Y-127001750D03*
D41*
X192689250Y-127001750D03*
X179227250Y-129541750D03*
D37*
X183323000Y-143227000D03*
X183323000Y-146527000D03*
X164273000Y-143227000D03*
X164273000Y-146527000D03*
X192721000Y-162023000D03*
X192721000Y-165323000D03*
X130745000Y-104873000D03*
X130745000Y-108173000D03*
D40*
X162780750Y-170181750D03*
D39*
X157700750Y-170181750D03*
D38*
X158970750Y-167641750D03*
D39*
X167860750Y-170181750D03*
D38*
X165320750Y-165101750D03*
D41*
X168876750Y-165101750D03*
X155414750Y-167641750D03*
D37*
X426147000Y-180819000D03*
X426147000Y-184119000D03*
X202373000Y-142973000D03*
X202373000Y-146273000D03*
D22*
X232725000Y-58925000D03*
X239225000Y-58925000D03*
X232725000Y-63425000D03*
X239225000Y-63425000D03*
D39*
X263110750Y-170181750D03*
D38*
X260570750Y-165101750D03*
D40*
X258030750Y-170181750D03*
D39*
X252950750Y-170181750D03*
D38*
X254220750Y-167641750D03*
D41*
X264126750Y-165101750D03*
X250664750Y-167641750D03*
D37*
X192975000Y-56740000D03*
X192975000Y-60040000D03*
D38*
X312958250Y-60326750D03*
D39*
X315498250Y-65406750D03*
D38*
X306608250Y-62866750D03*
D39*
X305338250Y-65406750D03*
D40*
X310418250Y-65406750D03*
D41*
X316514250Y-60326750D03*
X303052250Y-62866750D03*
D37*
X102170000Y-75790000D03*
X102170000Y-79090000D03*
X388047000Y-142973000D03*
X388047000Y-146273000D03*
D39*
X377442500Y-84425000D03*
D40*
X372362500Y-84425000D03*
D38*
X368552500Y-81885000D03*
D39*
X367282500Y-84425000D03*
D38*
X374902500Y-79345000D03*
D41*
X378458500Y-79345000D03*
X364996500Y-81885000D03*
D37*
X264095000Y-75790000D03*
X264095000Y-79090000D03*
D45*
X54515000Y-86902500D03*
X54515000Y-84827500D03*
D53*
X143095000Y-32521500D03*
X148875000Y-32521500D03*
D54*
X142735000Y-33847500D03*
X143535000Y-33847500D03*
D55*
X144735000Y-33847500D03*
X145731000Y-33847500D03*
X146235000Y-33847500D03*
X147235000Y-33847500D03*
D54*
X149235000Y-33847500D03*
X148435000Y-33847500D03*
D55*
X147735000Y-33847500D03*
X146735000Y-33847500D03*
X145235000Y-33847500D03*
X144235000Y-33847500D03*
D56*
X141685000Y-33072500D03*
D57*
X150285000Y-28872500D03*
X141685000Y-28872500D03*
D56*
X150285000Y-33072500D03*
D58*
X56840000Y-53437000D03*
X54790000Y-53437000D03*
D37*
X156625000Y-179775000D03*
X156625000Y-183075000D03*
X426147000Y-162277000D03*
X426147000Y-165577000D03*
D38*
X287558250Y-81916750D03*
X293908250Y-79376750D03*
D39*
X296448250Y-84456750D03*
D40*
X291368250Y-84456750D03*
D39*
X286288250Y-84456750D03*
D41*
X297464250Y-79376750D03*
X284002250Y-81916750D03*
D38*
X68483250Y-81916750D03*
D40*
X72293250Y-84456750D03*
D38*
X74833250Y-79376750D03*
D39*
X67213250Y-84456750D03*
X77373250Y-84456750D03*
D41*
X78389250Y-79376750D03*
X64927250Y-81916750D03*
D59*
X139651000Y-56653000D03*
X141651000Y-56653000D03*
D38*
X72452000Y-184151750D03*
X66102000Y-186691750D03*
D39*
X64832000Y-189231750D03*
X74992000Y-189231750D03*
D40*
X69912000Y-189231750D03*
D41*
X76008000Y-184151750D03*
X62546000Y-186691750D03*
D60*
X39558000Y-75789000D03*
X36258000Y-75789000D03*
D39*
X248823250Y-132081750D03*
D40*
X243743250Y-132081750D03*
D38*
X239933250Y-129541750D03*
X246283250Y-127001750D03*
D39*
X238663250Y-132081750D03*
D41*
X249839250Y-127001750D03*
X236377250Y-129541750D03*
D40*
X286605750Y-151131750D03*
D39*
X291685750Y-151131750D03*
D38*
X289145750Y-146051750D03*
X282795750Y-148591750D03*
D39*
X281525750Y-151131750D03*
D41*
X292701750Y-146051750D03*
X279239750Y-148591750D03*
D37*
X407097000Y-123923000D03*
X407097000Y-127223000D03*
D48*
X446308250Y-167800500D03*
D40*
X461548250Y-167800500D03*
D39*
X453293250Y-184818500D03*
D40*
X461548250Y-191676500D03*
D39*
X453293250Y-174658500D03*
D48*
X446308250Y-191676500D03*
D38*
X458373250Y-182278500D03*
X455833250Y-175928500D03*
D40*
X453293250Y-179738500D03*
D49*
X458373250Y-185834500D03*
X455833250Y-172372500D03*
D40*
X334235000Y-170215000D03*
D39*
X339315000Y-170215000D03*
D38*
X330425000Y-167675000D03*
X336775000Y-165135000D03*
D39*
X329155000Y-170215000D03*
D41*
X340331000Y-165135000D03*
X326869000Y-167675000D03*
D61*
X375325000Y-178825000D03*
X376625000Y-178825000D03*
D37*
X345121000Y-123669000D03*
X345121000Y-126969000D03*
X345121000Y-162023000D03*
X345121000Y-165323000D03*
D62*
X149541000Y-85441000D03*
D63*
X150491000Y-85441000D03*
X151441000Y-85441000D03*
X151441000Y-87641000D03*
X150491000Y-87641000D03*
X149541000Y-87641000D03*
D37*
X135375000Y-179825000D03*
X135375000Y-183125000D03*
X211771000Y-162023000D03*
X211771000Y-165323000D03*
D64*
X238885500Y-45410600D03*
X233809500Y-45410600D03*
D65*
X236345500Y-45410600D03*
X233936500Y-47950600D03*
X239012500Y-47950600D03*
X236472500Y-47950600D03*
X233809500Y-50490600D03*
X238885500Y-50490600D03*
X236345500Y-50490600D03*
X233936500Y-53030600D03*
X239012500Y-53030600D03*
X236472500Y-53030600D03*
X238885500Y-55570600D03*
X233809500Y-55570600D03*
X236345500Y-55570600D03*
D37*
X88073000Y-142973000D03*
X88073000Y-146273000D03*
D66*
X244540000Y-87949999D03*
X244540000Y-88450001D03*
X244540000Y-88950000D03*
X244540000Y-89449999D03*
X244540000Y-89950000D03*
X244540000Y-90449999D03*
X244540000Y-90950001D03*
X244540000Y-91450000D03*
X244540000Y-91949999D03*
X244540000Y-92450000D03*
X244540000Y-92949999D03*
X244540000Y-93449998D03*
X244540000Y-93950000D03*
X244540000Y-94449999D03*
X244540000Y-94950001D03*
X244540000Y-95450000D03*
X244540000Y-95949999D03*
X244540000Y-96450000D03*
X244540000Y-96949999D03*
X244540000Y-97450001D03*
X244540000Y-97950000D03*
X244540000Y-98449999D03*
X244540000Y-98950000D03*
X244540000Y-99449999D03*
X244540000Y-99950001D03*
D67*
X242790001Y-101700000D03*
X242289999Y-101700000D03*
X241790000Y-101700000D03*
X241290001Y-101700000D03*
X240790000Y-101700000D03*
X240290001Y-101700000D03*
X239789999Y-101700000D03*
X239290000Y-101700000D03*
X238790001Y-101700000D03*
X238290000Y-101700000D03*
X237790001Y-101700000D03*
X237289999Y-101700000D03*
X236790000Y-101700000D03*
X236290001Y-101700000D03*
X235789999Y-101700000D03*
X235290000Y-101700000D03*
X234789999Y-101700000D03*
X234290000Y-101700000D03*
X233790001Y-101700000D03*
X233289999Y-101700000D03*
X232790000Y-101700000D03*
X232289999Y-101700000D03*
X231790000Y-101700000D03*
X231290001Y-101700000D03*
X230789999Y-101700000D03*
D66*
X229040000Y-99950001D03*
X229040000Y-99449999D03*
X229040000Y-98950000D03*
X229040000Y-98450001D03*
X229040000Y-97950000D03*
X229040000Y-97450001D03*
X229040000Y-96949999D03*
X229040000Y-96450000D03*
X229040000Y-95950001D03*
X229040000Y-95450000D03*
X229040000Y-94950001D03*
X229040000Y-94449999D03*
X229040000Y-93950000D03*
X229040000Y-93450001D03*
X229040000Y-92949999D03*
X229040000Y-92450000D03*
X229040000Y-91949999D03*
X229040000Y-91450000D03*
X229040000Y-90950001D03*
X229040000Y-90449999D03*
X229040000Y-89950000D03*
X229040000Y-89449999D03*
X229040000Y-88950000D03*
X229040000Y-88450001D03*
X229040000Y-87949999D03*
D67*
X230789999Y-86200000D03*
X231290001Y-86200000D03*
X231790000Y-86200000D03*
X232289999Y-86200000D03*
X232790000Y-86200000D03*
X233289999Y-86200000D03*
X233790001Y-86200000D03*
X234290000Y-86200000D03*
X234789999Y-86200000D03*
X235290000Y-86200000D03*
X235789999Y-86200000D03*
X236290001Y-86200000D03*
X236790000Y-86200000D03*
X237289999Y-86200000D03*
X237790001Y-86200000D03*
X238290000Y-86200000D03*
X238790001Y-86200000D03*
X239290000Y-86200000D03*
X239789999Y-86200000D03*
X240290001Y-86200000D03*
X240790000Y-86200000D03*
X241290001Y-86200000D03*
X241790000Y-86200000D03*
X242289999Y-86200000D03*
X242790001Y-86200000D03*
D37*
X140397000Y-123923000D03*
X140397000Y-127223000D03*
D50*
X145692500Y-71926000D03*
X148817500Y-71926000D03*
D38*
X155795750Y-146051750D03*
D39*
X158335750Y-151131750D03*
D40*
X153255750Y-151131750D03*
D39*
X148175750Y-151131750D03*
D38*
X149445750Y-148591750D03*
D41*
X159351750Y-146051750D03*
X145889750Y-148591750D03*
D68*
X278573000Y-155417000D03*
X278573000Y-152117000D03*
D45*
X61479000Y-101562500D03*
X61479000Y-99487500D03*
D37*
X326071000Y-57121000D03*
X326071000Y-60421000D03*
D40*
X248505750Y-151131750D03*
D38*
X251045750Y-146051750D03*
D39*
X243425750Y-151131750D03*
X253585750Y-151131750D03*
D38*
X244695750Y-148591750D03*
D41*
X254601750Y-146051750D03*
X241139750Y-148591750D03*
D40*
X415193250Y-170213500D03*
D39*
X410113250Y-170213500D03*
D38*
X411383250Y-167673500D03*
X417733250Y-165133500D03*
D39*
X420273250Y-170213500D03*
D41*
X421289250Y-165133500D03*
X407827250Y-167673500D03*
D48*
X288955250Y-106046750D03*
D40*
X300893250Y-113031750D03*
X288955250Y-121286750D03*
D39*
X305973250Y-113031750D03*
X295813250Y-113031750D03*
D38*
X303433250Y-107951750D03*
D48*
X312831250Y-106046750D03*
D40*
X312831250Y-121286750D03*
D38*
X297083250Y-110491750D03*
D41*
X306989250Y-107951750D03*
X293527250Y-110491750D03*
D37*
X245045000Y-56740000D03*
X245045000Y-60040000D03*
X405369800Y-107133600D03*
X405369800Y-110433600D03*
X126173000Y-143227000D03*
X126173000Y-146527000D03*
D39*
X225106000Y-65406750D03*
D40*
X220026000Y-65406750D03*
D38*
X216216000Y-62866750D03*
X222566000Y-60326750D03*
D39*
X214946000Y-65406750D03*
D41*
X226122000Y-60326750D03*
X212660000Y-62866750D03*
D39*
X86263250Y-84456750D03*
D40*
X91343250Y-84456750D03*
D38*
X87533250Y-81916750D03*
D39*
X96423250Y-84456750D03*
D38*
X93883250Y-79376750D03*
D41*
X97439250Y-79376750D03*
X83977250Y-81916750D03*
D37*
X92645000Y-104873000D03*
X92645000Y-108173000D03*
X121220000Y-56740000D03*
X121220000Y-60040000D03*
X326065250Y-162034500D03*
X326065250Y-165334500D03*
D38*
X53402000Y-146051750D03*
D40*
X50862000Y-151131750D03*
D39*
X45782000Y-151131750D03*
X55942000Y-151131750D03*
D38*
X47052000Y-148591750D03*
D41*
X56958000Y-146051750D03*
X43496000Y-148591750D03*
D69*
X142683000Y-75304000D03*
X142683000Y-81354000D03*
D37*
X283145000Y-56740000D03*
X283145000Y-60040000D03*
D51*
X60275000Y-134537500D03*
X60275000Y-131412500D03*
D37*
X37781000Y-181073000D03*
X37781000Y-184373000D03*
X388375000Y-180825000D03*
X388375000Y-184125000D03*
D60*
X460817000Y-124049000D03*
X457517000Y-124049000D03*
D38*
X417733250Y-107983500D03*
X411383250Y-110523500D03*
D39*
X410113250Y-113063500D03*
X420273250Y-113063500D03*
D40*
X415193250Y-113063500D03*
D41*
X421289250Y-107983500D03*
X407827250Y-110523500D03*
D37*
X216597000Y-123923000D03*
X216597000Y-127223000D03*
D70*
X139878800Y-68135400D03*
X140828800Y-68135400D03*
X141778800Y-68135400D03*
X141778800Y-71555400D03*
X140828800Y-71555400D03*
X139878800Y-71555400D03*
D40*
X165162000Y-189231750D03*
D48*
X215200000Y-182246750D03*
D40*
X215200000Y-197486750D03*
D48*
X115124000Y-182246750D03*
D38*
X161352000Y-186691750D03*
D39*
X160082000Y-189231750D03*
D38*
X167702000Y-184151750D03*
D40*
X115124000Y-197486750D03*
D39*
X170242000Y-189231750D03*
D41*
X171258000Y-184151750D03*
X157796000Y-186691750D03*
D71*
X390565500Y-49627000D03*
X392640500Y-49627000D03*
D72*
X241625000Y-69287500D03*
X243525000Y-69287500D03*
X242575000Y-71162500D03*
D38*
X44670750Y-129541750D03*
D39*
X53560750Y-132081750D03*
D40*
X48480750Y-132081750D03*
D39*
X43400750Y-132081750D03*
D38*
X51020750Y-127001750D03*
D41*
X54576750Y-127001750D03*
X41114750Y-129541750D03*
D40*
X119918250Y-113031750D03*
D39*
X124998250Y-113031750D03*
D38*
X122458250Y-107951750D03*
X116108250Y-110491750D03*
D39*
X114838250Y-113031750D03*
D41*
X126014250Y-107951750D03*
X112552250Y-110491750D03*
D39*
X200563250Y-132081750D03*
X210723250Y-132081750D03*
D38*
X201833250Y-129541750D03*
D40*
X205643250Y-132081750D03*
D38*
X208183250Y-127001750D03*
D41*
X211739250Y-127001750D03*
X198277250Y-129541750D03*
D38*
X184466106Y-60326750D03*
D39*
X187006106Y-65406750D03*
X176846106Y-65406750D03*
D40*
X181926106Y-65406750D03*
D38*
X178116106Y-62866750D03*
D41*
X188022106Y-60326750D03*
X174560106Y-62866750D03*
D37*
X259523000Y-142973000D03*
X259523000Y-146273000D03*
X364171000Y-180819000D03*
X364171000Y-184119000D03*
D51*
X250655000Y-101717500D03*
X250655000Y-98592500D03*
D73*
X142692400Y-38882800D03*
X140692400Y-38882800D03*
D74*
X243415500Y-82951800D03*
X241340500Y-82951800D03*
D39*
X51179500Y-170181750D03*
D38*
X48639500Y-165101750D03*
D40*
X46099500Y-170181750D03*
D38*
X42289500Y-167641750D03*
D39*
X41019500Y-170181750D03*
D41*
X52195500Y-165101750D03*
X38733500Y-167641750D03*
D37*
X426147000Y-123923000D03*
X426147000Y-127223000D03*
D38*
X106583250Y-129541750D03*
D39*
X115473250Y-132081750D03*
D40*
X110393250Y-132081750D03*
D38*
X112933250Y-127001750D03*
D39*
X105313250Y-132081750D03*
D41*
X116489250Y-127001750D03*
X103027250Y-129541750D03*
D37*
X326071000Y-180819000D03*
X326071000Y-184119000D03*
D68*
X249875000Y-173765000D03*
X249875000Y-170465000D03*
D39*
X258348250Y-84456750D03*
D40*
X253268250Y-84456750D03*
D39*
X248188250Y-84456750D03*
D38*
X249458250Y-81916750D03*
X255808250Y-79376750D03*
D41*
X259364250Y-79376750D03*
X245902250Y-81916750D03*
D37*
X299655000Y-181073000D03*
X299655000Y-184373000D03*
X64070000Y-56740000D03*
X64070000Y-60040000D03*
X42607000Y-142719000D03*
X42607000Y-146019000D03*
D39*
X439323250Y-113063500D03*
D40*
X434243250Y-113063500D03*
D38*
X430433250Y-110523500D03*
D39*
X429163250Y-113063500D03*
D38*
X436783250Y-107983500D03*
D41*
X440339250Y-107983500D03*
X426877250Y-110523500D03*
D68*
X275895000Y-174655000D03*
X275895000Y-171355000D03*
D39*
X157796090Y-65406750D03*
X167956090Y-65406750D03*
D38*
X165416090Y-60326750D03*
D40*
X162876090Y-65406750D03*
D38*
X159066090Y-62866750D03*
D41*
X168972090Y-60326750D03*
X155510090Y-62866750D03*
D40*
X353312500Y-84425000D03*
D39*
X358392500Y-84425000D03*
D38*
X355852500Y-79345000D03*
D39*
X348232500Y-84425000D03*
D38*
X349502500Y-81885000D03*
D41*
X359408500Y-79345000D03*
X345946500Y-81885000D03*
D58*
X378404000Y-38705000D03*
X376354000Y-38705000D03*
D42*
X232875000Y-68075000D03*
X232875000Y-66075000D03*
D37*
X85279000Y-181327000D03*
X85279000Y-184627000D03*
D39*
X239298250Y-113031750D03*
D38*
X230408250Y-110491750D03*
X236758250Y-107951750D03*
D40*
X234218250Y-113031750D03*
D39*
X229138250Y-113031750D03*
D41*
X240314250Y-107951750D03*
X226852250Y-110491750D03*
D38*
X197065000Y-186685000D03*
D39*
X195795000Y-189225000D03*
X205955000Y-189225000D03*
D38*
X203415000Y-184145000D03*
D40*
X200875000Y-189225000D03*
D41*
X206971000Y-184145000D03*
X193509000Y-186685000D03*
D38*
X92295750Y-148591750D03*
D39*
X91025750Y-151131750D03*
X101185750Y-151131750D03*
D38*
X98645750Y-146051750D03*
D40*
X96105750Y-151131750D03*
D41*
X102201750Y-146051750D03*
X88739750Y-148591750D03*
D39*
X401223250Y-151163500D03*
D38*
X398683250Y-146083500D03*
D40*
X396143250Y-151163500D03*
D39*
X391063250Y-151163500D03*
D38*
X392333250Y-148623500D03*
D41*
X402239250Y-146083500D03*
X388777250Y-148623500D03*
D38*
X211358250Y-110491750D03*
D40*
X215168250Y-113031750D03*
D39*
X210088250Y-113031750D03*
X220248250Y-113031750D03*
D38*
X217708250Y-107951750D03*
D41*
X221264250Y-107951750D03*
X207802250Y-110491750D03*
D40*
X72293250Y-65406750D03*
D39*
X77373250Y-65406750D03*
X67213250Y-65406750D03*
D38*
X74833250Y-60326750D03*
X68483250Y-62866750D03*
D41*
X78389250Y-60326750D03*
X64927250Y-62866750D03*
D48*
X315022000Y-153544750D03*
D40*
X299782000Y-129668750D03*
X308037000Y-141606750D03*
D39*
X302957000Y-141606750D03*
D38*
X310577000Y-136526750D03*
X304227000Y-139066750D03*
D39*
X313117000Y-141606750D03*
D40*
X299782000Y-153544750D03*
D48*
X315022000Y-129668750D03*
D41*
X314133000Y-136526750D03*
X300671000Y-139066750D03*
D37*
X407097000Y-142973000D03*
X407097000Y-146273000D03*
D39*
X244060750Y-170181750D03*
D40*
X238980750Y-170181750D03*
D38*
X241520750Y-165101750D03*
D39*
X233900750Y-170181750D03*
D38*
X235170750Y-167641750D03*
D41*
X245076750Y-165101750D03*
X231614750Y-167641750D03*
D45*
X57815000Y-134602500D03*
X57815000Y-132527500D03*
D75*
X275075000Y-37675000D03*
D76*
X282695000Y-37675000D03*
D71*
X153151700Y-84856800D03*
X155226700Y-84856800D03*
D39*
X48798250Y-84456750D03*
D40*
X43718250Y-84456750D03*
D38*
X46258250Y-79376750D03*
D39*
X38638250Y-84456750D03*
D38*
X39908250Y-81916750D03*
D41*
X49814250Y-79376750D03*
X36352250Y-81916750D03*
D39*
X148815000Y-189215000D03*
D38*
X146275000Y-184135000D03*
X139925000Y-186675000D03*
D40*
X143735000Y-189215000D03*
D39*
X138655000Y-189215000D03*
D41*
X149831000Y-184135000D03*
X136369000Y-186675000D03*
D50*
X145692500Y-67026000D03*
X148817500Y-67026000D03*
D37*
X107123000Y-142973000D03*
X107123000Y-146273000D03*
X230821000Y-162023000D03*
X230821000Y-165323000D03*
X302195000Y-56740000D03*
X302195000Y-60040000D03*
D39*
X225010750Y-170181750D03*
D38*
X216120750Y-167641750D03*
X222470750Y-165101750D03*
D39*
X214850750Y-170181750D03*
D40*
X219930750Y-170181750D03*
D41*
X226026750Y-165101750D03*
X212564750Y-167641750D03*
D38*
X187540000Y-148610000D03*
D39*
X196430000Y-151150000D03*
X186270000Y-151150000D03*
D40*
X191350000Y-151150000D03*
D38*
X193890000Y-146070000D03*
D41*
X197446000Y-146070000D03*
X183984000Y-148610000D03*
D39*
X401223250Y-113063500D03*
D38*
X392333250Y-110523500D03*
X398683250Y-107983500D03*
D40*
X396143250Y-113063500D03*
D39*
X391063250Y-113063500D03*
D41*
X402239250Y-107983500D03*
X388777250Y-110523500D03*
D37*
X109275000Y-181325000D03*
X109275000Y-184625000D03*
D77*
X259265000Y-101105000D03*
X260265000Y-101105000D03*
X261265000Y-101105000D03*
X262265000Y-101105000D03*
X263265000Y-101105000D03*
X264265000Y-101105000D03*
X265265000Y-101105000D03*
X266265000Y-101105000D03*
X267265000Y-101105000D03*
X268265000Y-101105000D03*
X269265000Y-101105000D03*
X270265000Y-101105000D03*
X271265000Y-101105000D03*
X272265000Y-101105000D03*
X273265000Y-101105000D03*
X274265000Y-101105000D03*
X275265000Y-101105000D03*
X276265000Y-101105000D03*
X277265000Y-101105000D03*
X278265000Y-101105000D03*
D78*
X256275000Y-98305000D03*
X281255000Y-98305000D03*
D79*
X141959500Y-59025000D03*
X138834500Y-59025000D03*
D38*
X197166000Y-81916750D03*
X203516000Y-79376750D03*
D40*
X200976000Y-84456750D03*
D39*
X206056000Y-84456750D03*
X195896000Y-84456750D03*
D41*
X207072000Y-79376750D03*
X193610000Y-81916750D03*
D39*
X162463250Y-132081750D03*
D40*
X167543250Y-132081750D03*
D39*
X172623250Y-132081750D03*
D38*
X170083250Y-127001750D03*
X163733250Y-129541750D03*
D41*
X173639250Y-127001750D03*
X160177250Y-129541750D03*
D40*
X148493250Y-132081750D03*
D39*
X153573250Y-132081750D03*
D38*
X144683250Y-129541750D03*
X151033250Y-127001750D03*
D39*
X143413250Y-132081750D03*
D41*
X154589250Y-127001750D03*
X141127250Y-129541750D03*
D39*
X98804500Y-189231750D03*
D38*
X89914500Y-186691750D03*
D39*
X88644500Y-189231750D03*
D38*
X96264500Y-184151750D03*
D40*
X93724500Y-189231750D03*
D41*
X99820500Y-184151750D03*
X86358500Y-186691750D03*
D39*
X420273250Y-132113500D03*
D38*
X417733250Y-127033500D03*
X411383250Y-129573500D03*
D40*
X415193250Y-132113500D03*
D39*
X410113250Y-132113500D03*
D41*
X421289250Y-127033500D03*
X407827250Y-129573500D03*
D40*
X229455750Y-151131750D03*
D39*
X234535750Y-151131750D03*
X224375750Y-151131750D03*
D38*
X231995750Y-146051750D03*
X225645750Y-148591750D03*
D41*
X235551750Y-146051750D03*
X222089750Y-148591750D03*
D37*
X345121000Y-104873000D03*
X345121000Y-108173000D03*
X154621000Y-162023000D03*
X154621000Y-165323000D03*
D47*
X54612400Y-59053999D03*
X54612400Y-58404001D03*
X54612400Y-57753999D03*
X54612400Y-57104001D03*
X58879600Y-57104001D03*
X58879600Y-57753999D03*
X58879600Y-58404001D03*
X58879600Y-59053999D03*
D37*
X187895000Y-104873000D03*
X187895000Y-108173000D03*
D39*
X277398250Y-65406750D03*
X267238250Y-65406750D03*
D38*
X274858250Y-60326750D03*
X268508250Y-62866750D03*
D40*
X272318250Y-65406750D03*
D41*
X278414250Y-60326750D03*
X264952250Y-62866750D03*
D37*
X83120000Y-56740000D03*
X83120000Y-60040000D03*
D75*
X290075000Y-37675000D03*
D76*
X297695000Y-37675000D03*
D37*
X173925000Y-56740000D03*
X173925000Y-60040000D03*
D38*
X355852500Y-107920000D03*
D39*
X358392500Y-113000000D03*
D40*
X353312500Y-113000000D03*
D38*
X349502500Y-110460000D03*
D39*
X348232500Y-113000000D03*
D41*
X359408500Y-107920000D03*
X345946500Y-110460000D03*
D40*
X372362500Y-65375000D03*
D38*
X374902500Y-60295000D03*
X368552500Y-62835000D03*
D39*
X377442500Y-65375000D03*
X367282500Y-65375000D03*
D41*
X378458500Y-60295000D03*
X364996500Y-62835000D03*
D73*
X150337800Y-38375000D03*
X148337800Y-38375000D03*
D37*
X345121000Y-76171000D03*
X345121000Y-79471000D03*
D39*
X339342500Y-65375000D03*
D40*
X334262500Y-65375000D03*
D38*
X336802500Y-60295000D03*
X330452500Y-62835000D03*
D39*
X329182500Y-65375000D03*
D41*
X340358500Y-60295000D03*
X326896500Y-62835000D03*
D39*
X219613250Y-132081750D03*
D38*
X220883250Y-129541750D03*
D39*
X229773250Y-132081750D03*
D38*
X227233250Y-127001750D03*
D40*
X224693250Y-132081750D03*
D41*
X230789250Y-127001750D03*
X217327250Y-129541750D03*
D40*
X415193250Y-151163500D03*
D38*
X417733250Y-146083500D03*
X411383250Y-148623500D03*
D39*
X410113250Y-151163500D03*
X420273250Y-151163500D03*
D41*
X421289250Y-146083500D03*
X407827250Y-148623500D03*
D38*
X280414500Y-186691750D03*
D39*
X279144500Y-189231750D03*
D40*
X284224500Y-189231750D03*
D39*
X289304500Y-189231750D03*
D38*
X286764500Y-184151750D03*
D41*
X290320500Y-184151750D03*
X276858500Y-186691750D03*
D37*
X275779000Y-181073000D03*
X275779000Y-184373000D03*
X83247000Y-123923000D03*
X83247000Y-127223000D03*
D68*
X294915000Y-155525000D03*
X294915000Y-152225000D03*
D37*
X345121000Y-180819000D03*
X345121000Y-184119000D03*
D43*
X52921000Y-98443000D03*
X52921000Y-100443000D03*
D37*
X388047000Y-162277000D03*
X388047000Y-165577000D03*
D38*
X222566000Y-79376750D03*
X216216000Y-81916750D03*
D40*
X220026000Y-84456750D03*
D39*
X214946000Y-84456750D03*
X225106000Y-84456750D03*
D41*
X226122000Y-79376750D03*
X212660000Y-81916750D03*
D39*
X458373250Y-113063500D03*
X448213250Y-113063500D03*
D40*
X453293250Y-113063500D03*
D38*
X455833250Y-107983500D03*
X449483250Y-110523500D03*
D41*
X459389250Y-107983500D03*
X445927250Y-110523500D03*
D37*
X424267400Y-107133600D03*
X424267400Y-110433600D03*
D39*
X41019500Y-189231750D03*
D38*
X48639500Y-184151750D03*
D39*
X51179500Y-189231750D03*
D40*
X46099500Y-189231750D03*
D38*
X42289500Y-186691750D03*
D41*
X52195500Y-184151750D03*
X38733500Y-186691750D03*
D40*
X272318250Y-113031750D03*
D38*
X268508250Y-110491750D03*
D39*
X267238250Y-113031750D03*
X277398250Y-113031750D03*
D38*
X274858250Y-107951750D03*
D41*
X278414250Y-107951750D03*
X264952250Y-110491750D03*
D43*
X241825000Y-64525000D03*
X241825000Y-66525000D03*
D39*
X305338250Y-84456750D03*
D38*
X306608250Y-81916750D03*
D39*
X315498250Y-84456750D03*
D38*
X312958250Y-79376750D03*
D40*
X310418250Y-84456750D03*
D41*
X316514250Y-79376750D03*
X303052250Y-81916750D03*
D74*
X230512500Y-39875000D03*
X228437500Y-39875000D03*
D38*
X178116000Y-81916750D03*
D39*
X187006000Y-84456750D03*
D38*
X184466000Y-79376750D03*
D39*
X176846000Y-84456750D03*
D40*
X181926000Y-84456750D03*
D41*
X188022000Y-79376750D03*
X174560000Y-81916750D03*
D37*
X345121000Y-57121000D03*
X345121000Y-60421000D03*
D39*
X313117000Y-189231750D03*
D38*
X310577000Y-184151750D03*
X304227000Y-186691750D03*
D40*
X308037000Y-189231750D03*
D39*
X302957000Y-189231750D03*
D41*
X314133000Y-184151750D03*
X300671000Y-186691750D03*
D80*
X152462000Y-33666800D03*
X152462000Y-35716800D03*
D40*
X72293250Y-132081750D03*
D38*
X74833250Y-127001750D03*
X68483250Y-129541750D03*
D39*
X77373250Y-132081750D03*
X67213250Y-132081750D03*
D41*
X78389250Y-127001750D03*
X64927250Y-129541750D03*
D38*
X46258250Y-107951750D03*
D39*
X38638250Y-113031750D03*
D38*
X39908250Y-110491750D03*
D39*
X48798250Y-113031750D03*
D40*
X43718250Y-113031750D03*
D41*
X49814250Y-107951750D03*
X36352250Y-110491750D03*
D79*
X377617500Y-142955000D03*
X374492500Y-142955000D03*
D38*
X197070750Y-167641750D03*
D39*
X205960750Y-170181750D03*
D38*
X203420750Y-165101750D03*
D39*
X195800750Y-170181750D03*
D40*
X200880750Y-170181750D03*
D41*
X206976750Y-165101750D03*
X193514750Y-167641750D03*
D38*
X58958250Y-110491750D03*
D39*
X57688250Y-113031750D03*
D40*
X62768250Y-113031750D03*
D38*
X65308250Y-107951750D03*
D39*
X67848250Y-113031750D03*
D41*
X68864250Y-107951750D03*
X55402250Y-110491750D03*
D74*
X56725500Y-63089000D03*
X54650500Y-63089000D03*
D37*
X102170000Y-56740000D03*
X102170000Y-60040000D03*
X254697000Y-123923000D03*
X254697000Y-127223000D03*
D39*
X377410750Y-189263500D03*
D38*
X374870750Y-184183500D03*
X368520750Y-186723500D03*
D39*
X367250750Y-189263500D03*
D40*
X372330750Y-189263500D03*
D41*
X378426750Y-184183500D03*
X364964750Y-186723500D03*
D37*
X61657000Y-181327000D03*
X61657000Y-184627000D03*
D50*
X145692500Y-69526000D03*
X148817500Y-69526000D03*
D37*
X197547000Y-123923000D03*
X197547000Y-127223000D03*
X345121000Y-38071000D03*
X345121000Y-41371000D03*
X59371000Y-162023000D03*
X59371000Y-165323000D03*
X445175000Y-105025000D03*
X445175000Y-108325000D03*
D74*
X229013700Y-85542600D03*
X226938700Y-85542600D03*
D37*
X212025000Y-56740000D03*
X212025000Y-60040000D03*
D73*
X392476000Y-46325000D03*
X390476000Y-46325000D03*
D75*
X305075000Y-37675000D03*
D76*
X312695000Y-37675000D03*
D37*
X168845000Y-104873000D03*
X168845000Y-108173000D03*
D39*
X367245000Y-170200000D03*
D40*
X372325000Y-170200000D03*
D39*
X377405000Y-170200000D03*
D38*
X374865000Y-165120000D03*
X368515000Y-167660000D03*
D41*
X378421000Y-165120000D03*
X364959000Y-167660000D03*
D39*
X119600750Y-170181750D03*
X129760750Y-170181750D03*
D40*
X124680750Y-170181750D03*
D38*
X120870750Y-167641750D03*
X127220750Y-165101750D03*
D41*
X130776750Y-165101750D03*
X117314750Y-167641750D03*
D37*
X83120000Y-75790000D03*
X83120000Y-79090000D03*
X386319800Y-107921000D03*
X386319800Y-111221000D03*
X407097000Y-162277000D03*
X407097000Y-165577000D03*
X154875000Y-56725000D03*
X154875000Y-60025000D03*
D39*
X157796000Y-84456750D03*
D38*
X165416000Y-79376750D03*
D39*
X167956000Y-84456750D03*
D40*
X162876000Y-84456750D03*
D38*
X159066000Y-81916750D03*
D41*
X168972000Y-79376750D03*
X155510000Y-81916750D03*
D73*
X238679000Y-70836000D03*
X236679000Y-70836000D03*
D40*
X110393250Y-84456750D03*
D38*
X112933250Y-79376750D03*
X106583250Y-81916750D03*
D39*
X105313250Y-84456750D03*
X115473250Y-84456750D03*
D41*
X116489250Y-79376750D03*
X103027250Y-81916750D03*
D60*
X141793000Y-54453000D03*
X138493000Y-54453000D03*
D39*
X401223250Y-132113500D03*
D38*
X392333250Y-129573500D03*
D40*
X396143250Y-132113500D03*
D38*
X398683250Y-127033500D03*
D39*
X391063250Y-132113500D03*
D41*
X402239250Y-127033500D03*
X388777250Y-129573500D03*
D39*
X248188250Y-113031750D03*
D38*
X255808250Y-107951750D03*
D39*
X258348250Y-113031750D03*
D38*
X249458250Y-110491750D03*
D40*
X253268250Y-113031750D03*
D41*
X259364250Y-107951750D03*
X245902250Y-110491750D03*
D38*
X78008250Y-110491750D03*
D39*
X86898250Y-113031750D03*
D38*
X84358250Y-107951750D03*
D40*
X81818250Y-113031750D03*
D39*
X76738250Y-113031750D03*
D41*
X87914250Y-107951750D03*
X74452250Y-110491750D03*
D39*
X86263250Y-132081750D03*
X96423250Y-132081750D03*
D40*
X91343250Y-132081750D03*
D38*
X87533250Y-129541750D03*
X93883250Y-127001750D03*
D41*
X97439250Y-127001750D03*
X83977250Y-129541750D03*
D61*
X342475000Y-176475000D03*
X341175000Y-176475000D03*
D80*
X337581500Y-153225500D03*
X337581500Y-155275500D03*
D40*
X334230750Y-189263500D03*
D38*
X336770750Y-184183500D03*
D39*
X329150750Y-189263500D03*
X339310750Y-189263500D03*
D38*
X330420750Y-186723500D03*
D41*
X340326750Y-184183500D03*
X326864750Y-186723500D03*
D37*
X364171000Y-123669000D03*
X364171000Y-126969000D03*
D74*
X377682500Y-145415000D03*
X375607500Y-145415000D03*
D39*
X262475750Y-151131750D03*
D38*
X270095750Y-146051750D03*
D40*
X267555750Y-151131750D03*
D39*
X272635750Y-151131750D03*
D38*
X263745750Y-148591750D03*
D41*
X273651750Y-146051750D03*
X260189750Y-148591750D03*
D37*
X69023000Y-142973000D03*
X69023000Y-146273000D03*
X135571000Y-162023000D03*
X135571000Y-165323000D03*
D39*
X429163250Y-170213500D03*
D38*
X436783250Y-165133500D03*
D39*
X439323250Y-170213500D03*
D38*
X430433250Y-167673500D03*
D40*
X434243250Y-170213500D03*
D41*
X440339250Y-165133500D03*
X426877250Y-167673500D03*
D39*
X241679500Y-189231750D03*
D40*
X236599500Y-189231750D03*
D38*
X232789500Y-186691750D03*
D39*
X231519500Y-189231750D03*
D38*
X239139500Y-184151750D03*
D41*
X242695500Y-184151750D03*
X229233500Y-186691750D03*
D39*
X134523250Y-65406750D03*
X124363250Y-65406750D03*
D40*
X129443250Y-65406750D03*
D38*
X125633250Y-62866750D03*
X131983250Y-60326750D03*
D41*
X135539250Y-60326750D03*
X122077250Y-62866750D03*
D46*
X137984000Y-71703500D03*
X137984000Y-73778500D03*
D37*
X426147000Y-142973000D03*
X426147000Y-146273000D03*
X283145000Y-75790000D03*
X283145000Y-79090000D03*
D40*
X91343250Y-65406750D03*
D38*
X87533250Y-62866750D03*
X93883250Y-60326750D03*
D39*
X86263250Y-65406750D03*
X96423250Y-65406750D03*
D41*
X97439250Y-60326750D03*
X83977250Y-62866750D03*
D39*
X367282500Y-113000000D03*
D40*
X372362500Y-113000000D03*
D39*
X377442500Y-113000000D03*
D38*
X374902500Y-107920000D03*
X368552500Y-110460000D03*
D41*
X378458500Y-107920000D03*
X364996500Y-110460000D03*
D37*
X97471000Y-162023000D03*
X97471000Y-165323000D03*
D38*
X89120750Y-165101750D03*
D39*
X81500750Y-170181750D03*
X91660750Y-170181750D03*
D40*
X86580750Y-170181750D03*
D38*
X82770750Y-167641750D03*
D41*
X92676750Y-165101750D03*
X79214750Y-167641750D03*
D39*
X186910750Y-170181750D03*
D38*
X178020750Y-167641750D03*
D39*
X176750750Y-170181750D03*
D40*
X181830750Y-170181750D03*
D38*
X184370750Y-165101750D03*
D41*
X187926750Y-165101750D03*
X174464750Y-167641750D03*
D38*
X79595750Y-146051750D03*
X73245750Y-148591750D03*
D39*
X71975750Y-151131750D03*
D40*
X77055750Y-151131750D03*
D39*
X82135750Y-151131750D03*
D41*
X83151750Y-146051750D03*
X69689750Y-148591750D03*
D38*
X430433250Y-129573500D03*
D40*
X434243250Y-132113500D03*
D39*
X429163250Y-132113500D03*
X439323250Y-132113500D03*
D38*
X436783250Y-127033500D03*
D41*
X440339250Y-127033500D03*
X426877250Y-129573500D03*
D81*
X235925000Y-66275000D03*
X239225000Y-66275000D03*
D40*
X393730250Y-197518500D03*
D38*
X408208250Y-184183500D03*
D39*
X400588250Y-189263500D03*
D40*
X405668250Y-189263500D03*
D39*
X410748250Y-189263500D03*
D40*
X417606250Y-197518500D03*
D38*
X401858250Y-186723500D03*
D48*
X417606250Y-182278500D03*
X393730250Y-182278500D03*
D41*
X411764250Y-184183500D03*
X398302250Y-186723500D03*
D39*
X120235750Y-151131750D03*
D38*
X117695750Y-146051750D03*
D39*
X110075750Y-151131750D03*
D40*
X115155750Y-151131750D03*
D38*
X111345750Y-148591750D03*
D41*
X121251750Y-146051750D03*
X107789750Y-148591750D03*
D38*
X296289500Y-165101750D03*
D40*
X281811500Y-178436750D03*
D38*
X289939500Y-167641750D03*
D40*
X305687500Y-178436750D03*
D39*
X298829500Y-170181750D03*
D48*
X305687500Y-163196750D03*
D40*
X293749500Y-170181750D03*
D39*
X288669500Y-170181750D03*
D48*
X281811500Y-163196750D03*
D41*
X299845500Y-165101750D03*
X286383500Y-167641750D03*
D39*
X367282500Y-132050000D03*
D38*
X374902500Y-126970000D03*
D39*
X377442500Y-132050000D03*
D38*
X368552500Y-129510000D03*
D40*
X372362500Y-132050000D03*
D41*
X378458500Y-126970000D03*
X364996500Y-129510000D03*
D50*
X319812500Y-74975000D03*
X322937500Y-74975000D03*
D40*
X200976000Y-65406750D03*
D38*
X203516000Y-60326750D03*
D39*
X195896000Y-65406750D03*
X206056000Y-65406750D03*
D38*
X197166000Y-62866750D03*
D41*
X207072000Y-60326750D03*
X193610000Y-62866750D03*
D46*
X243875000Y-65287500D03*
X243875000Y-67362500D03*
D37*
X173925000Y-75790000D03*
X173925000Y-79090000D03*
X235647000Y-123923000D03*
X235647000Y-127223000D03*
D79*
X230537500Y-37415000D03*
X227412500Y-37415000D03*
D38*
X212945750Y-146051750D03*
D39*
X205325750Y-151131750D03*
D38*
X206595750Y-148591750D03*
D39*
X215485750Y-151131750D03*
D40*
X210405750Y-151131750D03*
D41*
X216501750Y-146051750D03*
X203039750Y-148591750D03*
D40*
X434243250Y-189263500D03*
D38*
X430433250Y-186723500D03*
X436783250Y-184183500D03*
D39*
X429163250Y-189263500D03*
X439323250Y-189263500D03*
D41*
X440339250Y-184183500D03*
X426877250Y-186723500D03*
D37*
X364165250Y-162009500D03*
X364165250Y-165309500D03*
D38*
X336802500Y-79345000D03*
X330452500Y-81885000D03*
D39*
X329182500Y-84425000D03*
X339342500Y-84425000D03*
D40*
X334262500Y-84425000D03*
D41*
X340358500Y-79345000D03*
X326896500Y-81885000D03*
D37*
X364171000Y-76171000D03*
X364171000Y-79471000D03*
D71*
X319947500Y-77215000D03*
X322022500Y-77215000D03*
D37*
X64197000Y-123923000D03*
X64197000Y-127223000D03*
X326071000Y-38071000D03*
X326071000Y-41371000D03*
X212025000Y-75790000D03*
X212025000Y-79090000D03*
D38*
X355820750Y-184183500D03*
D39*
X348200750Y-189263500D03*
D40*
X353280750Y-189263500D03*
D39*
X358360750Y-189263500D03*
D38*
X349470750Y-186723500D03*
D41*
X359376750Y-184183500D03*
X345914750Y-186723500D03*
D60*
X299800000Y-104105000D03*
X296500000Y-104105000D03*
D37*
X221423000Y-142973000D03*
X221423000Y-146273000D03*
D39*
X191038250Y-113031750D03*
D40*
X196118250Y-113031750D03*
D38*
X198658250Y-107951750D03*
D39*
X201198250Y-113031750D03*
D38*
X192308250Y-110491750D03*
D41*
X202214250Y-107951750D03*
X188752250Y-110491750D03*
D42*
X58863000Y-65132000D03*
X58863000Y-63132000D03*
D40*
X105630750Y-170181750D03*
D39*
X110710750Y-170181750D03*
D38*
X101820750Y-167641750D03*
X108170750Y-165101750D03*
D39*
X100550750Y-170181750D03*
D41*
X111726750Y-165101750D03*
X98264750Y-167641750D03*
D37*
X326071000Y-104873000D03*
X326071000Y-108173000D03*
D38*
X336802500Y-126970000D03*
D39*
X339342500Y-132050000D03*
D40*
X334262500Y-132050000D03*
D38*
X330452500Y-129510000D03*
D39*
X329182500Y-132050000D03*
D41*
X340358500Y-126970000D03*
X326896500Y-129510000D03*
D37*
X240473000Y-142973000D03*
X240473000Y-146273000D03*
D42*
X316725000Y-54475000D03*
X316725000Y-52475000D03*
D39*
X348232500Y-65375000D03*
X358392500Y-65375000D03*
D38*
X349502500Y-62835000D03*
X355852500Y-60295000D03*
D40*
X353312500Y-65375000D03*
D41*
X359408500Y-60295000D03*
X345946500Y-62835000D03*
D37*
X224318600Y-106651000D03*
X224318600Y-109951000D03*
X192525000Y-179775000D03*
X192525000Y-183075000D03*
X173671000Y-162023000D03*
X173671000Y-165323000D03*
X178497000Y-123923000D03*
X178497000Y-127223000D03*
D60*
X50225000Y-104775000D03*
X46925000Y-104775000D03*
D38*
X97058250Y-110491750D03*
D40*
X100868250Y-113031750D03*
D39*
X105948250Y-113031750D03*
D38*
X103408250Y-107951750D03*
D39*
X95788250Y-113031750D03*
D41*
X106964250Y-107951750D03*
X93502250Y-110491750D03*
D37*
X121220000Y-75790000D03*
X121220000Y-79090000D03*
X78421000Y-162023000D03*
X78421000Y-165323000D03*
D68*
X273747000Y-135605000D03*
X273747000Y-132305000D03*
D38*
X349502500Y-43785000D03*
D39*
X348232500Y-46325000D03*
D40*
X353312500Y-46325000D03*
D38*
X355852500Y-41245000D03*
D39*
X358392500Y-46325000D03*
D41*
X359408500Y-41245000D03*
X345946500Y-43785000D03*
M02*
