%TF.GenerationSoftware,KiCad,Pcbnew,(6.0.6)*%
%TF.CreationDate,2022-08-08T17:13:51+02:00*%
%TF.ProjectId,berlin,6265726c-696e-42e6-9b69-6361645f7063,rev?*%
%TF.SameCoordinates,Original*%
%TF.FileFunction,OtherDrawing,Comment*%
%FSLAX46Y46*%
G04 Gerber Fmt 4.6, Leading zero omitted, Abs format (unit mm)*
G04 Created by KiCad (PCBNEW (6.0.6)) date 2022-08-08 17:13:51*
%MOMM*%
%LPD*%
G01*
G04 APERTURE LIST*
%ADD10C,0.150000*%
%ADD11C,0.100000*%
%ADD12C,0.050800*%
%ADD13C,0.050000*%
G04 APERTURE END LIST*
D10*
X383700000Y-76650000D02*
X390700000Y-76650000D01*
X390700000Y-76650000D02*
X390700000Y-100450000D01*
X390700000Y-100450000D02*
X383700000Y-100450000D01*
X383700000Y-100450000D02*
X383700000Y-76650000D01*
G36*
X383700000Y-76650000D02*
G01*
X390700000Y-76650000D01*
X390700000Y-100450000D01*
X383700000Y-100450000D01*
X383700000Y-76650000D01*
G37*
X468300000Y-73100000D02*
X460600000Y-73100000D01*
X381150000Y-73100000D02*
X383700000Y-73100000D01*
X462915000Y-224790000D02*
X30734000Y-224790000D01*
X30734000Y-224790000D02*
X30734000Y-57785000D01*
X30734000Y-57785000D02*
X462915000Y-57785000D01*
X462915000Y-57785000D02*
X462915000Y-224790000D01*
X149225000Y-48895000D02*
X137795000Y-48895000D01*
X137795000Y-48895000D02*
X137795000Y-57785000D01*
X137795000Y-57785000D02*
X149225000Y-57785000D01*
X149225000Y-57785000D02*
X149225000Y-48895000D01*
X468150000Y-104100000D02*
X460600000Y-104100000D01*
X383700000Y-60100000D02*
X460600000Y-60100000D01*
X460600000Y-60100000D02*
X460600000Y-124000000D01*
X460600000Y-124000000D02*
X383700000Y-124000000D01*
X383700000Y-124000000D02*
X383700000Y-60100000D01*
X468150000Y-115100000D02*
X460600000Y-115100000D01*
X381150000Y-62100000D02*
X381150000Y-73100000D01*
X381150000Y-115100000D02*
X383700000Y-115100000D01*
X473650000Y-67600000D02*
G75*
G03*
X473650000Y-67600000I-5500000J0D01*
G01*
X473650000Y-109600000D02*
G75*
G03*
X473650000Y-109600000I-5500000J0D01*
G01*
X381150000Y-104100000D02*
X383700000Y-104100000D01*
X381150000Y-62100000D02*
X383700000Y-62100000D01*
X381150000Y-104100000D02*
X381150000Y-115100000D01*
X468150000Y-62100000D02*
X460600000Y-62100000D01*
X402200000Y-67574761D02*
X402200000Y-65574761D01*
X403342857Y-67574761D01*
X403342857Y-65574761D01*
X404295238Y-67574761D02*
X404295238Y-65574761D01*
X404295238Y-66527142D02*
X405438095Y-66527142D01*
X405438095Y-67574761D02*
X405438095Y-65574761D01*
X406390476Y-67574761D02*
X406390476Y-65574761D01*
X406866666Y-65574761D01*
X407152380Y-65670000D01*
X407342857Y-65860476D01*
X407438095Y-66050952D01*
X407533333Y-66431904D01*
X407533333Y-66717619D01*
X407438095Y-67098571D01*
X407342857Y-67289047D01*
X407152380Y-67479523D01*
X406866666Y-67574761D01*
X406390476Y-67574761D01*
X408390476Y-66812857D02*
X409914285Y-66812857D01*
X410676190Y-65574761D02*
X411914285Y-65574761D01*
X411247619Y-66336666D01*
X411533333Y-66336666D01*
X411723809Y-66431904D01*
X411819047Y-66527142D01*
X411914285Y-66717619D01*
X411914285Y-67193809D01*
X411819047Y-67384285D01*
X411723809Y-67479523D01*
X411533333Y-67574761D01*
X410961904Y-67574761D01*
X410771428Y-67479523D01*
X410676190Y-67384285D01*
X412771428Y-67384285D02*
X412866666Y-67479523D01*
X412771428Y-67574761D01*
X412676190Y-67479523D01*
X412771428Y-67384285D01*
X412771428Y-67574761D01*
X414676190Y-65574761D02*
X413723809Y-65574761D01*
X413628571Y-66527142D01*
X413723809Y-66431904D01*
X413914285Y-66336666D01*
X414390476Y-66336666D01*
X414580952Y-66431904D01*
X414676190Y-66527142D01*
X414771428Y-66717619D01*
X414771428Y-67193809D01*
X414676190Y-67384285D01*
X414580952Y-67479523D01*
X414390476Y-67574761D01*
X413914285Y-67574761D01*
X413723809Y-67479523D01*
X413628571Y-67384285D01*
X415628571Y-66812857D02*
X417152380Y-66812857D01*
X417914285Y-65574761D02*
X419152380Y-65574761D01*
X418485714Y-66336666D01*
X418771428Y-66336666D01*
X418961904Y-66431904D01*
X419057142Y-66527142D01*
X419152380Y-66717619D01*
X419152380Y-67193809D01*
X419057142Y-67384285D01*
X418961904Y-67479523D01*
X418771428Y-67574761D01*
X418200000Y-67574761D01*
X418009523Y-67479523D01*
X417914285Y-67384285D01*
X419914285Y-65765238D02*
X420009523Y-65670000D01*
X420200000Y-65574761D01*
X420676190Y-65574761D01*
X420866666Y-65670000D01*
X420961904Y-65765238D01*
X421057142Y-65955714D01*
X421057142Y-66146190D01*
X420961904Y-66431904D01*
X419819047Y-67574761D01*
X421057142Y-67574761D01*
X422295238Y-65574761D02*
X422485714Y-65574761D01*
X422676190Y-65670000D01*
X422771428Y-65765238D01*
X422866666Y-65955714D01*
X422961904Y-66336666D01*
X422961904Y-66812857D01*
X422866666Y-67193809D01*
X422771428Y-67384285D01*
X422676190Y-67479523D01*
X422485714Y-67574761D01*
X422295238Y-67574761D01*
X422104761Y-67479523D01*
X422009523Y-67384285D01*
X421914285Y-67193809D01*
X421819047Y-66812857D01*
X421819047Y-66336666D01*
X421914285Y-65955714D01*
X422009523Y-65765238D01*
X422104761Y-65670000D01*
X422295238Y-65574761D01*
X423723809Y-65765238D02*
X423819047Y-65670000D01*
X424009523Y-65574761D01*
X424485714Y-65574761D01*
X424676190Y-65670000D01*
X424771428Y-65765238D01*
X424866666Y-65955714D01*
X424866666Y-66146190D01*
X424771428Y-66431904D01*
X423628571Y-67574761D01*
X424866666Y-67574761D01*
X426580952Y-66241428D02*
X426580952Y-67574761D01*
X426104761Y-65479523D02*
X425628571Y-66908095D01*
X426866666Y-66908095D01*
X428009523Y-65574761D02*
X428200000Y-65574761D01*
X428390476Y-65670000D01*
X428485714Y-65765238D01*
X428580952Y-65955714D01*
X428676190Y-66336666D01*
X428676190Y-66812857D01*
X428580952Y-67193809D01*
X428485714Y-67384285D01*
X428390476Y-67479523D01*
X428200000Y-67574761D01*
X428009523Y-67574761D01*
X427819047Y-67479523D01*
X427723809Y-67384285D01*
X427628571Y-67193809D01*
X427533333Y-66812857D01*
X427533333Y-66336666D01*
X427628571Y-65955714D01*
X427723809Y-65765238D01*
X427819047Y-65670000D01*
X428009523Y-65574761D01*
X430200000Y-66527142D02*
X429533333Y-66527142D01*
X429533333Y-67574761D02*
X429533333Y-65574761D01*
X430485714Y-65574761D01*
X430961904Y-65574761D02*
X432104761Y-65574761D01*
X431533333Y-67574761D02*
X431533333Y-65574761D01*
X432771428Y-66812857D02*
X434295238Y-66812857D01*
X436390476Y-67384285D02*
X436295238Y-67479523D01*
X436009523Y-67574761D01*
X435819047Y-67574761D01*
X435533333Y-67479523D01*
X435342857Y-67289047D01*
X435247619Y-67098571D01*
X435152380Y-66717619D01*
X435152380Y-66431904D01*
X435247619Y-66050952D01*
X435342857Y-65860476D01*
X435533333Y-65670000D01*
X435819047Y-65574761D01*
X436009523Y-65574761D01*
X436295238Y-65670000D01*
X436390476Y-65765238D01*
X437152380Y-67479523D02*
X437438095Y-67574761D01*
X437914285Y-67574761D01*
X438104761Y-67479523D01*
X438200000Y-67384285D01*
X438295238Y-67193809D01*
X438295238Y-67003333D01*
X438200000Y-66812857D01*
X438104761Y-66717619D01*
X437914285Y-66622380D01*
X437533333Y-66527142D01*
X437342857Y-66431904D01*
X437247619Y-66336666D01*
X437152380Y-66146190D01*
X437152380Y-65955714D01*
X437247619Y-65765238D01*
X437342857Y-65670000D01*
X437533333Y-65574761D01*
X438009523Y-65574761D01*
X438295238Y-65670000D01*
X438961904Y-65574761D02*
X440295238Y-67574761D01*
X440295238Y-65574761D02*
X438961904Y-67574761D01*
X441057142Y-67574761D02*
X441057142Y-65574761D01*
X442200000Y-67574761D01*
X442200000Y-65574761D01*
X443152380Y-66812857D02*
X444676190Y-66812857D01*
X445342857Y-65574761D02*
X446485714Y-65574761D01*
X445914285Y-67574761D02*
X445914285Y-65574761D01*
X403914285Y-70794761D02*
X403247619Y-69842380D01*
X402771428Y-70794761D02*
X402771428Y-68794761D01*
X403533333Y-68794761D01*
X403723809Y-68890000D01*
X403819047Y-68985238D01*
X403914285Y-69175714D01*
X403914285Y-69461428D01*
X403819047Y-69651904D01*
X403723809Y-69747142D01*
X403533333Y-69842380D01*
X402771428Y-69842380D01*
X405533333Y-70699523D02*
X405342857Y-70794761D01*
X404961904Y-70794761D01*
X404771428Y-70699523D01*
X404676190Y-70509047D01*
X404676190Y-69747142D01*
X404771428Y-69556666D01*
X404961904Y-69461428D01*
X405342857Y-69461428D01*
X405533333Y-69556666D01*
X405628571Y-69747142D01*
X405628571Y-69937619D01*
X404676190Y-70128095D01*
X406390476Y-70699523D02*
X406580952Y-70794761D01*
X406961904Y-70794761D01*
X407152380Y-70699523D01*
X407247619Y-70509047D01*
X407247619Y-70413809D01*
X407152380Y-70223333D01*
X406961904Y-70128095D01*
X406676190Y-70128095D01*
X406485714Y-70032857D01*
X406390476Y-69842380D01*
X406390476Y-69747142D01*
X406485714Y-69556666D01*
X406676190Y-69461428D01*
X406961904Y-69461428D01*
X407152380Y-69556666D01*
X408104761Y-70604285D02*
X408200000Y-70699523D01*
X408104761Y-70794761D01*
X408009523Y-70699523D01*
X408104761Y-70604285D01*
X408104761Y-70794761D01*
X410295238Y-68794761D02*
X411438095Y-68794761D01*
X410866666Y-70794761D02*
X410866666Y-68794761D01*
X412390476Y-70794761D02*
X412200000Y-70699523D01*
X412104761Y-70604285D01*
X412009523Y-70413809D01*
X412009523Y-69842380D01*
X412104761Y-69651904D01*
X412200000Y-69556666D01*
X412390476Y-69461428D01*
X412676190Y-69461428D01*
X412866666Y-69556666D01*
X412961904Y-69651904D01*
X413057142Y-69842380D01*
X413057142Y-70413809D01*
X412961904Y-70604285D01*
X412866666Y-70699523D01*
X412676190Y-70794761D01*
X412390476Y-70794761D01*
X414771428Y-69461428D02*
X414771428Y-70794761D01*
X413914285Y-69461428D02*
X413914285Y-70509047D01*
X414009523Y-70699523D01*
X414200000Y-70794761D01*
X414485714Y-70794761D01*
X414676190Y-70699523D01*
X414771428Y-70604285D01*
X416580952Y-70699523D02*
X416390476Y-70794761D01*
X416009523Y-70794761D01*
X415819047Y-70699523D01*
X415723809Y-70604285D01*
X415628571Y-70413809D01*
X415628571Y-69842380D01*
X415723809Y-69651904D01*
X415819047Y-69556666D01*
X416009523Y-69461428D01*
X416390476Y-69461428D01*
X416580952Y-69556666D01*
X417438095Y-70794761D02*
X417438095Y-68794761D01*
X418295238Y-70794761D02*
X418295238Y-69747142D01*
X418200000Y-69556666D01*
X418009523Y-69461428D01*
X417723809Y-69461428D01*
X417533333Y-69556666D01*
X417438095Y-69651904D01*
X420771428Y-69747142D02*
X421438095Y-69747142D01*
X421723809Y-70794761D02*
X420771428Y-70794761D01*
X420771428Y-68794761D01*
X421723809Y-68794761D01*
X422295238Y-68794761D02*
X422961904Y-70794761D01*
X423628571Y-68794761D01*
X424295238Y-69747142D02*
X424961904Y-69747142D01*
X425247619Y-70794761D02*
X424295238Y-70794761D01*
X424295238Y-68794761D01*
X425247619Y-68794761D01*
X426009523Y-68985238D02*
X426104761Y-68890000D01*
X426295238Y-68794761D01*
X426771428Y-68794761D01*
X426961904Y-68890000D01*
X427057142Y-68985238D01*
X427152380Y-69175714D01*
X427152380Y-69366190D01*
X427057142Y-69651904D01*
X425914285Y-70794761D01*
X427152380Y-70794761D01*
X429247619Y-68794761D02*
X430390476Y-68794761D01*
X429819047Y-70794761D02*
X429819047Y-68794761D01*
X431723809Y-69747142D02*
X431057142Y-69747142D01*
X431057142Y-70794761D02*
X431057142Y-68794761D01*
X432009523Y-68794761D01*
X432485714Y-68794761D02*
X433628571Y-68794761D01*
X433057142Y-70794761D02*
X433057142Y-68794761D01*
X435819047Y-70794761D02*
X435819047Y-68794761D01*
X436295238Y-68794761D01*
X436580952Y-68890000D01*
X436771428Y-69080476D01*
X436866666Y-69270952D01*
X436961904Y-69651904D01*
X436961904Y-69937619D01*
X436866666Y-70318571D01*
X436771428Y-70509047D01*
X436580952Y-70699523D01*
X436295238Y-70794761D01*
X435819047Y-70794761D01*
X437819047Y-70794761D02*
X437819047Y-69461428D01*
X437819047Y-68794761D02*
X437723809Y-68890000D01*
X437819047Y-68985238D01*
X437914285Y-68890000D01*
X437819047Y-68794761D01*
X437819047Y-68985238D01*
X438676190Y-70699523D02*
X438866666Y-70794761D01*
X439247619Y-70794761D01*
X439438095Y-70699523D01*
X439533333Y-70509047D01*
X439533333Y-70413809D01*
X439438095Y-70223333D01*
X439247619Y-70128095D01*
X438961904Y-70128095D01*
X438771428Y-70032857D01*
X438676190Y-69842380D01*
X438676190Y-69747142D01*
X438771428Y-69556666D01*
X438961904Y-69461428D01*
X439247619Y-69461428D01*
X439438095Y-69556666D01*
X440390476Y-69461428D02*
X440390476Y-71461428D01*
X440390476Y-69556666D02*
X440580952Y-69461428D01*
X440961904Y-69461428D01*
X441152380Y-69556666D01*
X441247619Y-69651904D01*
X441342857Y-69842380D01*
X441342857Y-70413809D01*
X441247619Y-70604285D01*
X441152380Y-70699523D01*
X440961904Y-70794761D01*
X440580952Y-70794761D01*
X440390476Y-70699523D01*
X442485714Y-70794761D02*
X442295238Y-70699523D01*
X442200000Y-70509047D01*
X442200000Y-68794761D01*
X444104761Y-70794761D02*
X444104761Y-69747142D01*
X444009523Y-69556666D01*
X443819047Y-69461428D01*
X443438095Y-69461428D01*
X443247619Y-69556666D01*
X444104761Y-70699523D02*
X443914285Y-70794761D01*
X443438095Y-70794761D01*
X443247619Y-70699523D01*
X443152380Y-70509047D01*
X443152380Y-70318571D01*
X443247619Y-70128095D01*
X443438095Y-70032857D01*
X443914285Y-70032857D01*
X444104761Y-69937619D01*
X444866666Y-69461428D02*
X445342857Y-70794761D01*
X445819047Y-69461428D02*
X445342857Y-70794761D01*
X445152380Y-71270952D01*
X445057142Y-71366190D01*
X444866666Y-71461428D01*
X393914285Y-73919523D02*
X393723809Y-74014761D01*
X393342857Y-74014761D01*
X393152380Y-73919523D01*
X393057142Y-73824285D01*
X392961904Y-73633809D01*
X392961904Y-73062380D01*
X393057142Y-72871904D01*
X393152380Y-72776666D01*
X393342857Y-72681428D01*
X393723809Y-72681428D01*
X393914285Y-72776666D01*
X395057142Y-74014761D02*
X394866666Y-73919523D01*
X394771428Y-73824285D01*
X394676190Y-73633809D01*
X394676190Y-73062380D01*
X394771428Y-72871904D01*
X394866666Y-72776666D01*
X395057142Y-72681428D01*
X395342857Y-72681428D01*
X395533333Y-72776666D01*
X395628571Y-72871904D01*
X395723809Y-73062380D01*
X395723809Y-73633809D01*
X395628571Y-73824285D01*
X395533333Y-73919523D01*
X395342857Y-74014761D01*
X395057142Y-74014761D01*
X396580952Y-72681428D02*
X396580952Y-74014761D01*
X396580952Y-72871904D02*
X396676190Y-72776666D01*
X396866666Y-72681428D01*
X397152380Y-72681428D01*
X397342857Y-72776666D01*
X397438095Y-72967142D01*
X397438095Y-74014761D01*
X398390476Y-72681428D02*
X398390476Y-74014761D01*
X398390476Y-72871904D02*
X398485714Y-72776666D01*
X398676190Y-72681428D01*
X398961904Y-72681428D01*
X399152380Y-72776666D01*
X399247619Y-72967142D01*
X399247619Y-74014761D01*
X400961904Y-73919523D02*
X400771428Y-74014761D01*
X400390476Y-74014761D01*
X400200000Y-73919523D01*
X400104761Y-73729047D01*
X400104761Y-72967142D01*
X400200000Y-72776666D01*
X400390476Y-72681428D01*
X400771428Y-72681428D01*
X400961904Y-72776666D01*
X401057142Y-72967142D01*
X401057142Y-73157619D01*
X400104761Y-73348095D01*
X402771428Y-73919523D02*
X402580952Y-74014761D01*
X402200000Y-74014761D01*
X402009523Y-73919523D01*
X401914285Y-73824285D01*
X401819047Y-73633809D01*
X401819047Y-73062380D01*
X401914285Y-72871904D01*
X402009523Y-72776666D01*
X402200000Y-72681428D01*
X402580952Y-72681428D01*
X402771428Y-72776666D01*
X403342857Y-72681428D02*
X404104761Y-72681428D01*
X403628571Y-72014761D02*
X403628571Y-73729047D01*
X403723809Y-73919523D01*
X403914285Y-74014761D01*
X404104761Y-74014761D01*
X405533333Y-73919523D02*
X405342857Y-74014761D01*
X404961904Y-74014761D01*
X404771428Y-73919523D01*
X404676190Y-73729047D01*
X404676190Y-72967142D01*
X404771428Y-72776666D01*
X404961904Y-72681428D01*
X405342857Y-72681428D01*
X405533333Y-72776666D01*
X405628571Y-72967142D01*
X405628571Y-73157619D01*
X404676190Y-73348095D01*
X407342857Y-74014761D02*
X407342857Y-72014761D01*
X407342857Y-73919523D02*
X407152380Y-74014761D01*
X406771428Y-74014761D01*
X406580952Y-73919523D01*
X406485714Y-73824285D01*
X406390476Y-73633809D01*
X406390476Y-73062380D01*
X406485714Y-72871904D01*
X406580952Y-72776666D01*
X406771428Y-72681428D01*
X407152380Y-72681428D01*
X407342857Y-72776666D01*
X409628571Y-72681428D02*
X410104761Y-74014761D01*
X410580952Y-72681428D01*
X411342857Y-74014761D02*
X411342857Y-72681428D01*
X411342857Y-72014761D02*
X411247619Y-72110000D01*
X411342857Y-72205238D01*
X411438095Y-72110000D01*
X411342857Y-72014761D01*
X411342857Y-72205238D01*
X413152380Y-74014761D02*
X413152380Y-72967142D01*
X413057142Y-72776666D01*
X412866666Y-72681428D01*
X412485714Y-72681428D01*
X412295238Y-72776666D01*
X413152380Y-73919523D02*
X412961904Y-74014761D01*
X412485714Y-74014761D01*
X412295238Y-73919523D01*
X412200000Y-73729047D01*
X412200000Y-73538571D01*
X412295238Y-73348095D01*
X412485714Y-73252857D01*
X412961904Y-73252857D01*
X413152380Y-73157619D01*
X415533333Y-72205238D02*
X415628571Y-72110000D01*
X415819047Y-72014761D01*
X416295238Y-72014761D01*
X416485714Y-72110000D01*
X416580952Y-72205238D01*
X416676190Y-72395714D01*
X416676190Y-72586190D01*
X416580952Y-72871904D01*
X415438095Y-74014761D01*
X416676190Y-74014761D01*
X417914285Y-72014761D02*
X418104761Y-72014761D01*
X418295238Y-72110000D01*
X418390476Y-72205238D01*
X418485714Y-72395714D01*
X418580952Y-72776666D01*
X418580952Y-73252857D01*
X418485714Y-73633809D01*
X418390476Y-73824285D01*
X418295238Y-73919523D01*
X418104761Y-74014761D01*
X417914285Y-74014761D01*
X417723809Y-73919523D01*
X417628571Y-73824285D01*
X417533333Y-73633809D01*
X417438095Y-73252857D01*
X417438095Y-72776666D01*
X417533333Y-72395714D01*
X417628571Y-72205238D01*
X417723809Y-72110000D01*
X417914285Y-72014761D01*
X419247619Y-74014761D02*
X420295238Y-72681428D01*
X419247619Y-72681428D02*
X420295238Y-74014761D01*
X422104761Y-74014761D02*
X420961904Y-74014761D01*
X421533333Y-74014761D02*
X421533333Y-72014761D01*
X421342857Y-72300476D01*
X421152380Y-72490952D01*
X420961904Y-72586190D01*
X422961904Y-73824285D02*
X423057142Y-73919523D01*
X422961904Y-74014761D01*
X422866666Y-73919523D01*
X422961904Y-73824285D01*
X422961904Y-74014761D01*
X424295238Y-72014761D02*
X424485714Y-72014761D01*
X424676190Y-72110000D01*
X424771428Y-72205238D01*
X424866666Y-72395714D01*
X424961904Y-72776666D01*
X424961904Y-73252857D01*
X424866666Y-73633809D01*
X424771428Y-73824285D01*
X424676190Y-73919523D01*
X424485714Y-74014761D01*
X424295238Y-74014761D01*
X424104761Y-73919523D01*
X424009523Y-73824285D01*
X423914285Y-73633809D01*
X423819047Y-73252857D01*
X423819047Y-72776666D01*
X423914285Y-72395714D01*
X424009523Y-72205238D01*
X424104761Y-72110000D01*
X424295238Y-72014761D01*
X426199999Y-72014761D02*
X426390476Y-72014761D01*
X426580952Y-72110000D01*
X426676190Y-72205238D01*
X426771428Y-72395714D01*
X426866666Y-72776666D01*
X426866666Y-73252857D01*
X426771428Y-73633809D01*
X426676190Y-73824285D01*
X426580952Y-73919523D01*
X426390476Y-74014761D01*
X426199999Y-74014761D01*
X426009523Y-73919523D01*
X425914285Y-73824285D01*
X425819047Y-73633809D01*
X425723809Y-73252857D01*
X425723809Y-72776666D01*
X425819047Y-72395714D01*
X425914285Y-72205238D01*
X426009523Y-72110000D01*
X426199999Y-72014761D01*
X427723809Y-74014761D02*
X427723809Y-72681428D01*
X427723809Y-72871904D02*
X427819047Y-72776666D01*
X428009523Y-72681428D01*
X428295238Y-72681428D01*
X428485714Y-72776666D01*
X428580952Y-72967142D01*
X428580952Y-74014761D01*
X428580952Y-72967142D02*
X428676190Y-72776666D01*
X428866666Y-72681428D01*
X429152380Y-72681428D01*
X429342857Y-72776666D01*
X429438095Y-72967142D01*
X429438095Y-74014761D01*
X430390476Y-74014761D02*
X430390476Y-72681428D01*
X430390476Y-72871904D02*
X430485714Y-72776666D01*
X430676190Y-72681428D01*
X430961904Y-72681428D01*
X431152380Y-72776666D01*
X431247619Y-72967142D01*
X431247619Y-74014761D01*
X431247619Y-72967142D02*
X431342857Y-72776666D01*
X431533333Y-72681428D01*
X431819047Y-72681428D01*
X432009523Y-72776666D01*
X432104761Y-72967142D01*
X432104761Y-74014761D01*
X435247619Y-72967142D02*
X434580952Y-72967142D01*
X434580952Y-74014761D02*
X434580952Y-72014761D01*
X435533333Y-72014761D01*
X436961904Y-72967142D02*
X436295238Y-72967142D01*
X436295238Y-74014761D02*
X436295238Y-72014761D01*
X437247619Y-72014761D01*
X439152380Y-73824285D02*
X439057142Y-73919523D01*
X438771428Y-74014761D01*
X438580952Y-74014761D01*
X438295238Y-73919523D01*
X438104761Y-73729047D01*
X438009523Y-73538571D01*
X437914285Y-73157619D01*
X437914285Y-72871904D01*
X438009523Y-72490952D01*
X438104761Y-72300476D01*
X438295238Y-72110000D01*
X438580952Y-72014761D01*
X438771428Y-72014761D01*
X439057142Y-72110000D01*
X439152380Y-72205238D01*
X442390476Y-73919523D02*
X442199999Y-74014761D01*
X441819047Y-74014761D01*
X441628571Y-73919523D01*
X441533333Y-73824285D01*
X441438095Y-73633809D01*
X441438095Y-73062380D01*
X441533333Y-72871904D01*
X441628571Y-72776666D01*
X441819047Y-72681428D01*
X442199999Y-72681428D01*
X442390476Y-72776666D01*
X443533333Y-74014761D02*
X443342857Y-73919523D01*
X443247619Y-73824285D01*
X443152380Y-73633809D01*
X443152380Y-73062380D01*
X443247619Y-72871904D01*
X443342857Y-72776666D01*
X443533333Y-72681428D01*
X443819047Y-72681428D01*
X444009523Y-72776666D01*
X444104761Y-72871904D01*
X444199999Y-73062380D01*
X444199999Y-73633809D01*
X444104761Y-73824285D01*
X444009523Y-73919523D01*
X443819047Y-74014761D01*
X443533333Y-74014761D01*
X445057142Y-72681428D02*
X445057142Y-74014761D01*
X445057142Y-72871904D02*
X445152380Y-72776666D01*
X445342857Y-72681428D01*
X445628571Y-72681428D01*
X445819047Y-72776666D01*
X445914285Y-72967142D01*
X445914285Y-74014761D01*
X446866666Y-72681428D02*
X446866666Y-74014761D01*
X446866666Y-72871904D02*
X446961904Y-72776666D01*
X447152380Y-72681428D01*
X447438095Y-72681428D01*
X447628571Y-72776666D01*
X447723809Y-72967142D01*
X447723809Y-74014761D01*
X449438095Y-73919523D02*
X449247619Y-74014761D01*
X448866666Y-74014761D01*
X448676190Y-73919523D01*
X448580952Y-73729047D01*
X448580952Y-72967142D01*
X448676190Y-72776666D01*
X448866666Y-72681428D01*
X449247619Y-72681428D01*
X449438095Y-72776666D01*
X449533333Y-72967142D01*
X449533333Y-73157619D01*
X448580952Y-73348095D01*
X451247619Y-73919523D02*
X451057142Y-74014761D01*
X450676190Y-74014761D01*
X450485714Y-73919523D01*
X450390476Y-73824285D01*
X450295238Y-73633809D01*
X450295238Y-73062380D01*
X450390476Y-72871904D01*
X450485714Y-72776666D01*
X450676190Y-72681428D01*
X451057142Y-72681428D01*
X451247619Y-72776666D01*
X451819047Y-72681428D02*
X452580952Y-72681428D01*
X452104761Y-72014761D02*
X452104761Y-73729047D01*
X452199999Y-73919523D01*
X452390476Y-74014761D01*
X452580952Y-74014761D01*
X453533333Y-74014761D02*
X453342857Y-73919523D01*
X453247619Y-73824285D01*
X453152380Y-73633809D01*
X453152380Y-73062380D01*
X453247619Y-72871904D01*
X453342857Y-72776666D01*
X453533333Y-72681428D01*
X453819047Y-72681428D01*
X454009523Y-72776666D01*
X454104761Y-72871904D01*
X454199999Y-73062380D01*
X454199999Y-73633809D01*
X454104761Y-73824285D01*
X454009523Y-73919523D01*
X453819047Y-74014761D01*
X453533333Y-74014761D01*
X455057142Y-74014761D02*
X455057142Y-72681428D01*
X455057142Y-73062380D02*
X455152380Y-72871904D01*
X455247619Y-72776666D01*
X455438095Y-72681428D01*
X455628571Y-72681428D01*
X405057142Y-77996666D02*
X404961904Y-77901428D01*
X404771428Y-77615714D01*
X404676190Y-77425238D01*
X404580952Y-77139523D01*
X404485714Y-76663333D01*
X404485714Y-76282380D01*
X404580952Y-75806190D01*
X404676190Y-75520476D01*
X404771428Y-75330000D01*
X404961904Y-75044285D01*
X405057142Y-74949047D01*
X405819047Y-77234761D02*
X405819047Y-75901428D01*
X405819047Y-76091904D02*
X405914285Y-75996666D01*
X406104761Y-75901428D01*
X406390476Y-75901428D01*
X406580952Y-75996666D01*
X406676190Y-76187142D01*
X406676190Y-77234761D01*
X406676190Y-76187142D02*
X406771428Y-75996666D01*
X406961904Y-75901428D01*
X407247619Y-75901428D01*
X407438095Y-75996666D01*
X407533333Y-76187142D01*
X407533333Y-77234761D01*
X408771428Y-77234761D02*
X408580952Y-77139523D01*
X408485714Y-77044285D01*
X408390476Y-76853809D01*
X408390476Y-76282380D01*
X408485714Y-76091904D01*
X408580952Y-75996666D01*
X408771428Y-75901428D01*
X409057142Y-75901428D01*
X409247619Y-75996666D01*
X409342857Y-76091904D01*
X409438095Y-76282380D01*
X409438095Y-76853809D01*
X409342857Y-77044285D01*
X409247619Y-77139523D01*
X409057142Y-77234761D01*
X408771428Y-77234761D01*
X411152380Y-75901428D02*
X411152380Y-77234761D01*
X410295238Y-75901428D02*
X410295238Y-76949047D01*
X410390476Y-77139523D01*
X410580952Y-77234761D01*
X410866666Y-77234761D01*
X411057142Y-77139523D01*
X411152380Y-77044285D01*
X412104761Y-75901428D02*
X412104761Y-77234761D01*
X412104761Y-76091904D02*
X412200000Y-75996666D01*
X412390476Y-75901428D01*
X412676190Y-75901428D01*
X412866666Y-75996666D01*
X412961904Y-76187142D01*
X412961904Y-77234761D01*
X413628571Y-75901428D02*
X414390476Y-75901428D01*
X413914285Y-75234761D02*
X413914285Y-76949047D01*
X414009523Y-77139523D01*
X414200000Y-77234761D01*
X414390476Y-77234761D01*
X415057142Y-77234761D02*
X415057142Y-75901428D01*
X415057142Y-75234761D02*
X414961904Y-75330000D01*
X415057142Y-75425238D01*
X415152380Y-75330000D01*
X415057142Y-75234761D01*
X415057142Y-75425238D01*
X416009523Y-75901428D02*
X416009523Y-77234761D01*
X416009523Y-76091904D02*
X416104761Y-75996666D01*
X416295238Y-75901428D01*
X416580952Y-75901428D01*
X416771428Y-75996666D01*
X416866666Y-76187142D01*
X416866666Y-77234761D01*
X418676190Y-75901428D02*
X418676190Y-77520476D01*
X418580952Y-77710952D01*
X418485714Y-77806190D01*
X418295238Y-77901428D01*
X418009523Y-77901428D01*
X417819047Y-77806190D01*
X418676190Y-77139523D02*
X418485714Y-77234761D01*
X418104761Y-77234761D01*
X417914285Y-77139523D01*
X417819047Y-77044285D01*
X417723809Y-76853809D01*
X417723809Y-76282380D01*
X417819047Y-76091904D01*
X417914285Y-75996666D01*
X418104761Y-75901428D01*
X418485714Y-75901428D01*
X418676190Y-75996666D01*
X421152380Y-77234761D02*
X421152380Y-75234761D01*
X422009523Y-77234761D02*
X422009523Y-76187142D01*
X421914285Y-75996666D01*
X421723809Y-75901428D01*
X421438095Y-75901428D01*
X421247619Y-75996666D01*
X421152380Y-76091904D01*
X423247619Y-77234761D02*
X423057142Y-77139523D01*
X422961904Y-77044285D01*
X422866666Y-76853809D01*
X422866666Y-76282380D01*
X422961904Y-76091904D01*
X423057142Y-75996666D01*
X423247619Y-75901428D01*
X423533333Y-75901428D01*
X423723809Y-75996666D01*
X423819047Y-76091904D01*
X423914285Y-76282380D01*
X423914285Y-76853809D01*
X423819047Y-77044285D01*
X423723809Y-77139523D01*
X423533333Y-77234761D01*
X423247619Y-77234761D01*
X425057142Y-77234761D02*
X424866666Y-77139523D01*
X424771428Y-76949047D01*
X424771428Y-75234761D01*
X426580952Y-77139523D02*
X426390476Y-77234761D01*
X426009523Y-77234761D01*
X425819047Y-77139523D01*
X425723809Y-76949047D01*
X425723809Y-76187142D01*
X425819047Y-75996666D01*
X426009523Y-75901428D01*
X426390476Y-75901428D01*
X426580952Y-75996666D01*
X426676190Y-76187142D01*
X426676190Y-76377619D01*
X425723809Y-76568095D01*
X427438095Y-77139523D02*
X427628571Y-77234761D01*
X428009523Y-77234761D01*
X428200000Y-77139523D01*
X428295238Y-76949047D01*
X428295238Y-76853809D01*
X428200000Y-76663333D01*
X428009523Y-76568095D01*
X427723809Y-76568095D01*
X427533333Y-76472857D01*
X427438095Y-76282380D01*
X427438095Y-76187142D01*
X427533333Y-75996666D01*
X427723809Y-75901428D01*
X428009523Y-75901428D01*
X428200000Y-75996666D01*
X430676190Y-77234761D02*
X430676190Y-75901428D01*
X430676190Y-76091904D02*
X430771428Y-75996666D01*
X430961904Y-75901428D01*
X431247619Y-75901428D01*
X431438095Y-75996666D01*
X431533333Y-76187142D01*
X431533333Y-77234761D01*
X431533333Y-76187142D02*
X431628571Y-75996666D01*
X431819047Y-75901428D01*
X432104761Y-75901428D01*
X432295238Y-75996666D01*
X432390476Y-76187142D01*
X432390476Y-77234761D01*
X433628571Y-77234761D02*
X433438095Y-77139523D01*
X433342857Y-77044285D01*
X433247619Y-76853809D01*
X433247619Y-76282380D01*
X433342857Y-76091904D01*
X433438095Y-75996666D01*
X433628571Y-75901428D01*
X433914285Y-75901428D01*
X434104761Y-75996666D01*
X434200000Y-76091904D01*
X434295238Y-76282380D01*
X434295238Y-76853809D01*
X434200000Y-77044285D01*
X434104761Y-77139523D01*
X433914285Y-77234761D01*
X433628571Y-77234761D01*
X436009523Y-77234761D02*
X436009523Y-75234761D01*
X436009523Y-77139523D02*
X435819047Y-77234761D01*
X435438095Y-77234761D01*
X435247619Y-77139523D01*
X435152380Y-77044285D01*
X435057142Y-76853809D01*
X435057142Y-76282380D01*
X435152380Y-76091904D01*
X435247619Y-75996666D01*
X435438095Y-75901428D01*
X435819047Y-75901428D01*
X436009523Y-75996666D01*
X436961904Y-77234761D02*
X436961904Y-75901428D01*
X436961904Y-75234761D02*
X436866666Y-75330000D01*
X436961904Y-75425238D01*
X437057142Y-75330000D01*
X436961904Y-75234761D01*
X436961904Y-75425238D01*
X437628571Y-75901428D02*
X438390476Y-75901428D01*
X437914285Y-77234761D02*
X437914285Y-75520476D01*
X438009523Y-75330000D01*
X438200000Y-75234761D01*
X438390476Y-75234761D01*
X439057142Y-77234761D02*
X439057142Y-75901428D01*
X439057142Y-75234761D02*
X438961904Y-75330000D01*
X439057142Y-75425238D01*
X439152380Y-75330000D01*
X439057142Y-75234761D01*
X439057142Y-75425238D01*
X440771428Y-77139523D02*
X440580952Y-77234761D01*
X440200000Y-77234761D01*
X440009523Y-77139523D01*
X439914285Y-76949047D01*
X439914285Y-76187142D01*
X440009523Y-75996666D01*
X440200000Y-75901428D01*
X440580952Y-75901428D01*
X440771428Y-75996666D01*
X440866666Y-76187142D01*
X440866666Y-76377619D01*
X439914285Y-76568095D01*
X442580952Y-77234761D02*
X442580952Y-75234761D01*
X442580952Y-77139523D02*
X442390476Y-77234761D01*
X442009523Y-77234761D01*
X441819047Y-77139523D01*
X441723809Y-77044285D01*
X441628571Y-76853809D01*
X441628571Y-76282380D01*
X441723809Y-76091904D01*
X441819047Y-75996666D01*
X442009523Y-75901428D01*
X442390476Y-75901428D01*
X442580952Y-75996666D01*
X443342857Y-77996666D02*
X443438095Y-77901428D01*
X443628571Y-77615714D01*
X443723809Y-77425238D01*
X443819047Y-77139523D01*
X443914285Y-76663333D01*
X443914285Y-76282380D01*
X443819047Y-75806190D01*
X443723809Y-75520476D01*
X443628571Y-75330000D01*
X443438095Y-75044285D01*
X443342857Y-74949047D01*
D11*
%TO.C,SW5\u002C7*%
X179355750Y-184181750D02*
X160305750Y-184181750D01*
X160305750Y-184181750D02*
X160305750Y-165131750D01*
X179355750Y-165131750D02*
X160305750Y-165131750D01*
X179355750Y-165131750D02*
X179355750Y-184181750D01*
%TO.C,SW5\u002C13*%
X288893250Y-146081750D02*
X288893250Y-165131750D01*
X288893250Y-146081750D02*
X269843250Y-146081750D01*
X288893250Y-165131750D02*
X269843250Y-165131750D01*
X269843250Y-165131750D02*
X269843250Y-146081750D01*
%TO.C,SW6\u002C6*%
X131730750Y-203231750D02*
X131730750Y-184181750D01*
X150780750Y-184181750D02*
X131730750Y-184181750D01*
X150780750Y-203231750D02*
X131730750Y-203231750D01*
X150780750Y-184181750D02*
X150780750Y-203231750D01*
%TO.C,SW2\u002C11*%
X260318250Y-117506750D02*
X260318250Y-98456750D01*
X279368250Y-98456750D02*
X260318250Y-98456750D01*
X279368250Y-117506750D02*
X260318250Y-117506750D01*
X279368250Y-98456750D02*
X279368250Y-117506750D01*
%TO.C,SW6\u002C17*%
X403193250Y-184213500D02*
X384143250Y-184213500D01*
X403193250Y-184213500D02*
X403193250Y-203263500D01*
X403193250Y-203263500D02*
X384143250Y-203263500D01*
X384143250Y-203263500D02*
X384143250Y-184213500D01*
%TO.C,SW6\u002C15*%
X341280750Y-203263500D02*
X341280750Y-184213500D01*
X360330750Y-184213500D02*
X360330750Y-203263500D01*
X360330750Y-203263500D02*
X341280750Y-203263500D01*
X360330750Y-184213500D02*
X341280750Y-184213500D01*
%TO.C,SW3\u002C8*%
X184118250Y-127031750D02*
X184118250Y-146081750D01*
X184118250Y-127031750D02*
X165068250Y-127031750D01*
X165068250Y-146081750D02*
X165068250Y-127031750D01*
X184118250Y-146081750D02*
X165068250Y-146081750D01*
%TO.C,SW3\u002C6*%
X126968250Y-146081750D02*
X126968250Y-127031750D01*
X146018250Y-127031750D02*
X126968250Y-127031750D01*
X146018250Y-146081750D02*
X126968250Y-146081750D01*
X146018250Y-127031750D02*
X146018250Y-146081750D01*
%TO.C,SW5\u002C15*%
X360362500Y-146050000D02*
X341312500Y-146050000D01*
X341312500Y-165100000D02*
X341312500Y-146050000D01*
X360362500Y-165100000D02*
X341312500Y-165100000D01*
X360362500Y-146050000D02*
X360362500Y-165100000D01*
%TO.C,SW1\u002C4*%
X117443250Y-79406750D02*
X117443250Y-98456750D01*
X117443250Y-79406750D02*
X98393250Y-79406750D01*
X117443250Y-98456750D02*
X98393250Y-98456750D01*
X98393250Y-98456750D02*
X98393250Y-79406750D01*
%TO.C,SW1\u002C10*%
X241268410Y-98456750D02*
X241268410Y-79406750D01*
X260318410Y-79406750D02*
X260318410Y-98456750D01*
X260318410Y-79406750D02*
X241268410Y-79406750D01*
X260318410Y-98456750D02*
X241268410Y-98456750D01*
D12*
%TO.C,SW2\u002C18*%
X446500250Y-162877500D02*
X444976250Y-162877500D01*
X446754250Y-163385500D02*
X446500250Y-163385500D01*
D11*
X441293250Y-184213500D02*
X441293250Y-146113500D01*
X460343250Y-184213500D02*
X441293250Y-184213500D01*
X460343250Y-184213500D02*
X460343250Y-146113500D01*
D12*
X446500250Y-167449500D02*
X446500250Y-165925500D01*
X444722250Y-163385500D02*
X444722250Y-166941500D01*
X444976250Y-162877500D02*
X444976250Y-164401500D01*
X444976250Y-163385500D02*
X444722250Y-163385500D01*
X444722250Y-166941500D02*
X444976250Y-166941500D01*
X446500250Y-164401500D02*
X446500250Y-162877500D01*
X444976250Y-165925500D02*
X444976250Y-167449500D01*
X446754250Y-166941500D02*
X446754250Y-163385500D01*
X446500250Y-166941500D02*
X446754250Y-166941500D01*
X446500250Y-165925500D02*
X444976250Y-165925500D01*
D11*
X460343250Y-146113500D02*
X441293250Y-146113500D01*
D12*
X444976250Y-164401500D02*
X446500250Y-164401500D01*
X444976250Y-167449500D02*
X446500250Y-167449500D01*
D11*
%TO.C,SW1\u002C12*%
X279368250Y-98456750D02*
X279368250Y-79406750D01*
X298418250Y-79406750D02*
X298418250Y-98456750D01*
X298418250Y-98456750D02*
X279368250Y-98456750D01*
X298418250Y-79406750D02*
X279368250Y-79406750D01*
%TO.C,SW2\u002C5*%
X136495000Y-98455000D02*
X117445000Y-98455000D01*
X136495000Y-98455000D02*
X136495000Y-117505000D01*
X136495000Y-117505000D02*
X117445000Y-117505000D01*
X117445000Y-117505000D02*
X117445000Y-98455000D01*
%TO.C,SW5\u002C19*%
X422243250Y-184213500D02*
X422243250Y-165163500D01*
X441293250Y-184213500D02*
X422243250Y-184213500D01*
X441293250Y-165163500D02*
X441293250Y-184213500D01*
X441293250Y-165163500D02*
X422243250Y-165163500D01*
%TO.C,SW1\u002C14*%
X341312500Y-60325000D02*
X322262500Y-60325000D01*
X341312500Y-60325000D02*
X341312500Y-79375000D01*
X322262500Y-79375000D02*
X322262500Y-60325000D01*
X341312500Y-79375000D02*
X322262500Y-79375000D01*
%TO.C,SW3\u002C7*%
X165068250Y-127031750D02*
X146018250Y-127031750D01*
X165068250Y-127031750D02*
X165068250Y-146081750D01*
X146018250Y-146081750D02*
X146018250Y-127031750D01*
X165068250Y-146081750D02*
X146018250Y-146081750D01*
%TO.C,SW4\u002C14*%
X341312500Y-127000000D02*
X341312500Y-146050000D01*
X322262500Y-146050000D02*
X322262500Y-127000000D01*
X341312500Y-146050000D02*
X322262500Y-146050000D01*
X341312500Y-127000000D02*
X322262500Y-127000000D01*
%TO.C,SW4\u002C5*%
X136493250Y-146081750D02*
X136493250Y-165131750D01*
X136493250Y-165131750D02*
X117443250Y-165131750D01*
X117443250Y-165131750D02*
X117443250Y-146081750D01*
X136493250Y-146081750D02*
X117443250Y-146081750D01*
D12*
%TO.C,SW7\u002C9*%
X259715000Y-218852750D02*
X259715000Y-218598750D01*
X258699000Y-218598750D02*
X258699000Y-217074750D01*
X259715000Y-218852750D02*
X256159000Y-218852750D01*
X259715000Y-216820750D02*
X259715000Y-217074750D01*
X258699000Y-217074750D02*
X260223000Y-217074750D01*
D11*
X269843250Y-203231750D02*
X269843250Y-222281750D01*
X269843250Y-222281750D02*
X246030750Y-222281750D01*
D12*
X256159000Y-218852750D02*
X256159000Y-218598750D01*
X256159000Y-217074750D02*
X256159000Y-216820750D01*
X260223000Y-217074750D02*
X260223000Y-218598750D01*
D11*
X269843250Y-203231750D02*
X246030750Y-203231750D01*
D12*
X256159000Y-216820750D02*
X259715000Y-216820750D01*
X260223000Y-218598750D02*
X258699000Y-218598750D01*
X255651000Y-218598750D02*
X257175000Y-218598750D01*
D11*
X246030750Y-222281750D02*
X246030750Y-203231750D01*
D12*
X257175000Y-217074750D02*
X255651000Y-217074750D01*
X257175000Y-218598750D02*
X257175000Y-217074750D01*
X255651000Y-217074750D02*
X255651000Y-218598750D01*
D11*
%TO.C,SW6\u002C2*%
X74580750Y-203231750D02*
X55530750Y-203231750D01*
X74580750Y-184181750D02*
X74580750Y-203231750D01*
X55530750Y-203231750D02*
X55530750Y-184181750D01*
X74580750Y-184181750D02*
X55530750Y-184181750D01*
%TO.C,SW4\u002C12*%
X269843250Y-146081750D02*
X269843250Y-165131750D01*
X269843250Y-165131750D02*
X250793250Y-165131750D01*
X269843250Y-146081750D02*
X250793250Y-146081750D01*
X250793250Y-165131750D02*
X250793250Y-146081750D01*
%TO.C,SW5\u002C5*%
X141255750Y-165131750D02*
X141255750Y-184181750D01*
X141255750Y-184181750D02*
X122205750Y-184181750D01*
X141255750Y-165131750D02*
X122205750Y-165131750D01*
X122205750Y-184181750D02*
X122205750Y-165131750D01*
%TO.C,SW4\u002C8*%
X193643250Y-146081750D02*
X193643250Y-165131750D01*
X174593250Y-165131750D02*
X174593250Y-146081750D01*
X193643250Y-165131750D02*
X174593250Y-165131750D01*
X193643250Y-146081750D02*
X174593250Y-146081750D01*
%TO.C,SW6\u002C7*%
X169830750Y-203231750D02*
X150780750Y-203231750D01*
X150780750Y-203231750D02*
X150780750Y-184181750D01*
X169830750Y-184181750D02*
X169830750Y-203231750D01*
X169830750Y-184181750D02*
X150780750Y-184181750D01*
%TO.C,SW7\u002C12*%
X265080750Y-184181750D02*
X246030750Y-184181750D01*
X246030750Y-203231750D02*
X246030750Y-184181750D01*
X265080750Y-203231750D02*
X246030750Y-203231750D01*
X265080750Y-184181750D02*
X265080750Y-203231750D01*
%TO.C,SW1\u002C13*%
X298418250Y-98456750D02*
X298418250Y-79406750D01*
X317468250Y-79406750D02*
X298418250Y-79406750D01*
X317468250Y-98456750D02*
X298418250Y-98456750D01*
X317468250Y-79406750D02*
X317468250Y-98456750D01*
%TO.C,SW3\u002C16*%
X360362500Y-117475000D02*
X360362500Y-98425000D01*
X379412500Y-117475000D02*
X360362500Y-117475000D01*
X379412500Y-98425000D02*
X360362500Y-98425000D01*
X379412500Y-98425000D02*
X379412500Y-117475000D01*
%TO.C,SW2\u002C12*%
X298418250Y-98456750D02*
X298418250Y-117506750D01*
X279368250Y-117506750D02*
X279368250Y-98456750D01*
X298418250Y-98456750D02*
X279368250Y-98456750D01*
X298418250Y-117506750D02*
X279368250Y-117506750D01*
%TO.C,SW2\u002C2*%
X79343250Y-117506750D02*
X60293250Y-117506750D01*
X60293250Y-117506750D02*
X60293250Y-98456750D01*
X79343250Y-98456750D02*
X60293250Y-98456750D01*
X79343250Y-98456750D02*
X79343250Y-117506750D01*
%TO.C,SW7\u002C2*%
X79343250Y-222281750D02*
X55530750Y-222281750D01*
D12*
X66675000Y-218598750D02*
X66675000Y-217074750D01*
D11*
X79343250Y-203231750D02*
X79343250Y-222281750D01*
D12*
X68199000Y-217074750D02*
X69723000Y-217074750D01*
D11*
X79343250Y-203231750D02*
X55530750Y-203231750D01*
X55530750Y-222281750D02*
X55530750Y-203231750D01*
D12*
X69215000Y-218852750D02*
X69215000Y-218598750D01*
X69723000Y-218598750D02*
X68199000Y-218598750D01*
X66675000Y-217074750D02*
X65151000Y-217074750D01*
X69215000Y-216820750D02*
X69215000Y-217074750D01*
X68199000Y-218598750D02*
X68199000Y-217074750D01*
X69215000Y-218852750D02*
X65659000Y-218852750D01*
X65659000Y-218852750D02*
X65659000Y-218598750D01*
X65151000Y-217074750D02*
X65151000Y-218598750D01*
X65659000Y-217074750D02*
X65659000Y-216820750D01*
X69723000Y-217074750D02*
X69723000Y-218598750D01*
X65151000Y-218598750D02*
X66675000Y-218598750D01*
X65659000Y-216820750D02*
X69215000Y-216820750D01*
D11*
%TO.C,SW4\u002C11*%
X231743250Y-165131750D02*
X231743250Y-146081750D01*
X250793250Y-146081750D02*
X250793250Y-165131750D01*
X250793250Y-146081750D02*
X231743250Y-146081750D01*
X250793250Y-165131750D02*
X231743250Y-165131750D01*
%TO.C,SW6\u002C12*%
X293655750Y-165131750D02*
X293655750Y-184181750D01*
X293655750Y-165131750D02*
X274605750Y-165131750D01*
X293655750Y-184181750D02*
X274605750Y-184181750D01*
X274605750Y-184181750D02*
X274605750Y-165131750D01*
D12*
%TO.C,SW2\u002C19*%
X444976250Y-204025500D02*
X444976250Y-205549500D01*
D11*
X460343250Y-222313500D02*
X460343250Y-184213500D01*
D12*
X444976250Y-205549500D02*
X446500250Y-205549500D01*
X446500250Y-202501500D02*
X446500250Y-200977500D01*
X446754250Y-201485500D02*
X446500250Y-201485500D01*
X444976250Y-202501500D02*
X446500250Y-202501500D01*
X446500250Y-205041500D02*
X446754250Y-205041500D01*
X444976250Y-201485500D02*
X444722250Y-201485500D01*
X446754250Y-205041500D02*
X446754250Y-201485500D01*
D11*
X441293250Y-222313500D02*
X441293250Y-184213500D01*
X460343250Y-222313500D02*
X441293250Y-222313500D01*
D12*
X446500250Y-205549500D02*
X446500250Y-204025500D01*
X444976250Y-200977500D02*
X444976250Y-202501500D01*
D11*
X460343250Y-184213500D02*
X441293250Y-184213500D01*
D12*
X446500250Y-200977500D02*
X444976250Y-200977500D01*
X446500250Y-204025500D02*
X444976250Y-204025500D01*
X444722250Y-205041500D02*
X444976250Y-205041500D01*
X444722250Y-201485500D02*
X444722250Y-205041500D01*
D11*
%TO.C,SW5\u002C6*%
X141255750Y-184181750D02*
X141255750Y-165131750D01*
X160305750Y-165131750D02*
X141255750Y-165131750D01*
X160305750Y-184181750D02*
X141255750Y-184181750D01*
X160305750Y-165131750D02*
X160305750Y-184181750D01*
%TO.C,SW5\u002C11*%
X255555750Y-165131750D02*
X236505750Y-165131750D01*
X255555750Y-184181750D02*
X236505750Y-184181750D01*
X255555750Y-165131750D02*
X255555750Y-184181750D01*
X236505750Y-184181750D02*
X236505750Y-165131750D01*
%TO.C,SW6\u002C18*%
X422243250Y-184213500D02*
X403193250Y-184213500D01*
X403193250Y-203263500D02*
X403193250Y-184213500D01*
X422243250Y-184213500D02*
X422243250Y-203263500D01*
X422243250Y-203263500D02*
X403193250Y-203263500D01*
D12*
%TO.C,SW4\u002C13*%
X296640250Y-142398750D02*
X296640250Y-142652750D01*
X300196250Y-140620750D02*
X296640250Y-140620750D01*
D11*
X279368250Y-127031750D02*
X279368250Y-146081750D01*
D12*
X300704250Y-140874750D02*
X299180250Y-140874750D01*
D11*
X317468250Y-127031750D02*
X279368250Y-127031750D01*
D12*
X300196250Y-142652750D02*
X300196250Y-142398750D01*
X296132250Y-142398750D02*
X297656250Y-142398750D01*
X297656250Y-142398750D02*
X297656250Y-140874750D01*
X300704250Y-142398750D02*
X300704250Y-140874750D01*
X296640250Y-140620750D02*
X296640250Y-140874750D01*
X296132250Y-140874750D02*
X296132250Y-142398750D01*
D11*
X317468250Y-146081750D02*
X279368250Y-146081750D01*
D12*
X297656250Y-140874750D02*
X296132250Y-140874750D01*
D11*
X317468250Y-127031750D02*
X317468250Y-146081750D01*
D12*
X299180250Y-140874750D02*
X299180250Y-142398750D01*
X299180250Y-142398750D02*
X300704250Y-142398750D01*
X296640250Y-142652750D02*
X300196250Y-142652750D01*
X300196250Y-140874750D02*
X300196250Y-140620750D01*
D11*
%TO.C,SW1\u002C9*%
X227076000Y-79406750D02*
X208026000Y-79406750D01*
X208026000Y-98456750D02*
X208026000Y-79406750D01*
X227076000Y-98456750D02*
X208026000Y-98456750D01*
X227076000Y-79406750D02*
X227076000Y-98456750D01*
%TO.C,SW2\u002C3*%
X79343250Y-117506750D02*
X79343250Y-98456750D01*
X98393250Y-98456750D02*
X98393250Y-117506750D01*
X98393250Y-98456750D02*
X79343250Y-98456750D01*
X98393250Y-117506750D02*
X79343250Y-117506750D01*
D12*
%TO.C,SW5\u002C1*%
X49149000Y-180498750D02*
X49149000Y-178974750D01*
X47625000Y-178974750D02*
X46101000Y-178974750D01*
X46609000Y-178720750D02*
X50165000Y-178720750D01*
X46609000Y-178974750D02*
X46609000Y-178720750D01*
D11*
X65055750Y-165131750D02*
X31718250Y-165131750D01*
X65055750Y-184181750D02*
X31718250Y-184181750D01*
D12*
X50165000Y-178720750D02*
X50165000Y-178974750D01*
X49149000Y-178974750D02*
X50673000Y-178974750D01*
X46101000Y-178974750D02*
X46101000Y-180498750D01*
X47625000Y-180498750D02*
X47625000Y-178974750D01*
X50165000Y-180752750D02*
X46609000Y-180752750D01*
X46101000Y-180498750D02*
X47625000Y-180498750D01*
D11*
X31718250Y-184181750D02*
X31718250Y-165131750D01*
D12*
X46609000Y-180752750D02*
X46609000Y-180498750D01*
X50673000Y-180498750D02*
X49149000Y-180498750D01*
D11*
X65055750Y-165131750D02*
X65055750Y-184181750D01*
D12*
X50165000Y-180752750D02*
X50165000Y-180498750D01*
X50673000Y-178974750D02*
X50673000Y-180498750D01*
D11*
%TO.C,SW3\u002C18*%
X422243250Y-127063500D02*
X403193250Y-127063500D01*
X422243250Y-127063500D02*
X422243250Y-146113500D01*
X403193250Y-146113500D02*
X403193250Y-127063500D01*
X422243250Y-146113500D02*
X403193250Y-146113500D01*
%TO.C,SW7\u002C6*%
X222218250Y-203231750D02*
X103155750Y-203231750D01*
D12*
X164465000Y-218852750D02*
X164465000Y-218598750D01*
X161925000Y-217074750D02*
X160401000Y-217074750D01*
X164973000Y-217074750D02*
X163449000Y-217074750D01*
X161925000Y-218598750D02*
X161925000Y-217074750D01*
X160909000Y-216820750D02*
X160909000Y-217074750D01*
X160401000Y-218598750D02*
X161925000Y-218598750D01*
X160909000Y-218852750D02*
X164465000Y-218852750D01*
X164973000Y-218598750D02*
X164973000Y-217074750D01*
X160401000Y-217074750D02*
X160401000Y-218598750D01*
X164465000Y-216820750D02*
X160909000Y-216820750D01*
X163449000Y-218598750D02*
X164973000Y-218598750D01*
X163449000Y-217074750D02*
X163449000Y-218598750D01*
D11*
X222218250Y-203231750D02*
X222218250Y-222281750D01*
X103155750Y-203231750D02*
X103155750Y-222281750D01*
D12*
X164465000Y-217074750D02*
X164465000Y-216820750D01*
D11*
X222218250Y-222281750D02*
X103155750Y-222281750D01*
D12*
X160909000Y-218598750D02*
X160909000Y-218852750D01*
%TO.C,SW4\u002C1*%
X44227750Y-159670750D02*
X47783750Y-159670750D01*
X48291750Y-161448750D02*
X46767750Y-161448750D01*
X48291750Y-159924750D02*
X48291750Y-161448750D01*
X47783750Y-161702750D02*
X47783750Y-161448750D01*
D11*
X31718250Y-165131750D02*
X31718250Y-146081750D01*
D12*
X45243750Y-159924750D02*
X43719750Y-159924750D01*
X44227750Y-161702750D02*
X44227750Y-161448750D01*
X44227750Y-159924750D02*
X44227750Y-159670750D01*
X46767750Y-159924750D02*
X48291750Y-159924750D01*
X47783750Y-159670750D02*
X47783750Y-159924750D01*
D11*
X60293250Y-146081750D02*
X31718250Y-146081750D01*
D12*
X43719750Y-159924750D02*
X43719750Y-161448750D01*
X45243750Y-161448750D02*
X45243750Y-159924750D01*
X43719750Y-161448750D02*
X45243750Y-161448750D01*
D11*
X60293250Y-165131750D02*
X31718250Y-165131750D01*
D12*
X46767750Y-161448750D02*
X46767750Y-159924750D01*
X47783750Y-161702750D02*
X44227750Y-161702750D01*
D11*
X60293250Y-146081750D02*
X60293250Y-165131750D01*
%TO.C,SW3\u002C5*%
X126968250Y-146081750D02*
X107918250Y-146081750D01*
X126968250Y-127031750D02*
X107918250Y-127031750D01*
X107918250Y-146081750D02*
X107918250Y-127031750D01*
X126968250Y-127031750D02*
X126968250Y-146081750D01*
%TO.C,SW4\u002C9*%
X212693250Y-146081750D02*
X193643250Y-146081750D01*
X193643250Y-165131750D02*
X193643250Y-146081750D01*
X212693250Y-165131750D02*
X193643250Y-165131750D01*
X212693250Y-146081750D02*
X212693250Y-165131750D01*
%TO.C,SW1\u002C7*%
X169926106Y-98456750D02*
X169926106Y-79406750D01*
X188976106Y-79406750D02*
X188976106Y-98456750D01*
X188976106Y-79406750D02*
X169926106Y-79406750D01*
X188976106Y-98456750D02*
X169926106Y-98456750D01*
D12*
%TO.C,SW6\u002C1*%
X41846500Y-197770750D02*
X45402500Y-197770750D01*
D11*
X55530750Y-203231750D02*
X31718250Y-203231750D01*
D12*
X42862500Y-198024750D02*
X41338500Y-198024750D01*
X41846500Y-199802750D02*
X41846500Y-199548750D01*
X42862500Y-199548750D02*
X42862500Y-198024750D01*
X44386500Y-198024750D02*
X45910500Y-198024750D01*
X45402500Y-197770750D02*
X45402500Y-198024750D01*
D11*
X55530750Y-184181750D02*
X55530750Y-203231750D01*
D12*
X44386500Y-199548750D02*
X44386500Y-198024750D01*
D11*
X55530750Y-184181750D02*
X31718250Y-184181750D01*
D12*
X45402500Y-199802750D02*
X45402500Y-199548750D01*
X45910500Y-198024750D02*
X45910500Y-199548750D01*
D11*
X31718250Y-203231750D02*
X31718250Y-184181750D01*
D12*
X41338500Y-198024750D02*
X41338500Y-199548750D01*
X45402500Y-199802750D02*
X41846500Y-199802750D01*
X41338500Y-199548750D02*
X42862500Y-199548750D01*
X41846500Y-198024750D02*
X41846500Y-197770750D01*
X45910500Y-199548750D02*
X44386500Y-199548750D01*
D11*
%TO.C,SW4\u002C4*%
X117443250Y-146081750D02*
X117443250Y-165131750D01*
X98393250Y-165131750D02*
X98393250Y-146081750D01*
X117443250Y-146081750D02*
X98393250Y-146081750D01*
X117443250Y-165131750D02*
X98393250Y-165131750D01*
%TO.C,SW2\u002C10*%
X260318250Y-98456750D02*
X241268250Y-98456750D01*
X260318250Y-117506750D02*
X241268250Y-117506750D01*
X260318250Y-98456750D02*
X260318250Y-117506750D01*
X241268250Y-117506750D02*
X241268250Y-98456750D01*
%TO.C,SW3\u002C19*%
X441293250Y-127063500D02*
X441293250Y-146113500D01*
X422243250Y-146113500D02*
X422243250Y-127063500D01*
X441293250Y-127063500D02*
X422243250Y-127063500D01*
X441293250Y-146113500D02*
X422243250Y-146113500D01*
%TO.C,SW1\u002C6*%
X169926090Y-79406750D02*
X169926090Y-98456750D01*
X150876090Y-98456750D02*
X150876090Y-79406750D01*
X169926090Y-98456750D02*
X150876090Y-98456750D01*
X169926090Y-79406750D02*
X150876090Y-79406750D01*
%TO.C,SW3\u002C15*%
X360362500Y-117475000D02*
X341312500Y-117475000D01*
X341312500Y-117475000D02*
X341312500Y-98425000D01*
X360362500Y-98425000D02*
X360362500Y-117475000D01*
X360362500Y-98425000D02*
X341312500Y-98425000D01*
%TO.C,SW3\u002C11*%
X241268250Y-127031750D02*
X222218250Y-127031750D01*
X222218250Y-146081750D02*
X222218250Y-127031750D01*
X241268250Y-146081750D02*
X222218250Y-146081750D01*
X241268250Y-127031750D02*
X241268250Y-146081750D01*
%TO.C,SW5\u002C3*%
X103155750Y-184181750D02*
X84105750Y-184181750D01*
X84105750Y-184181750D02*
X84105750Y-165131750D01*
X103155750Y-165131750D02*
X84105750Y-165131750D01*
X103155750Y-165131750D02*
X103155750Y-184181750D01*
%TO.C,SW5\u002C17*%
X403193250Y-165163500D02*
X403193250Y-184213500D01*
X384143250Y-184213500D02*
X384143250Y-165163500D01*
X403193250Y-184213500D02*
X384143250Y-184213500D01*
X403193250Y-165163500D02*
X384143250Y-165163500D01*
%TO.C,SW3\u002C10*%
X222218250Y-127031750D02*
X222218250Y-146081750D01*
X203168250Y-146081750D02*
X203168250Y-127031750D01*
X222218250Y-146081750D02*
X203168250Y-146081750D01*
X222218250Y-127031750D02*
X203168250Y-127031750D01*
%TO.C,SW1\u002C2*%
X79343250Y-79406750D02*
X79343250Y-98456750D01*
X79343250Y-98456750D02*
X60293250Y-98456750D01*
X79343250Y-79406750D02*
X60293250Y-79406750D01*
X60293250Y-98456750D02*
X60293250Y-79406750D01*
%TO.C,SW6\u002C13*%
X317468250Y-184181750D02*
X317468250Y-146081750D01*
X306070000Y-169449750D02*
X307594000Y-169449750D01*
X288893250Y-146081750D02*
X317468250Y-146081750D01*
X306070000Y-169449750D02*
X306070000Y-170973750D01*
X307594000Y-169449750D02*
X307594000Y-170973750D01*
D13*
X305689000Y-170211750D02*
X305435000Y-170211750D01*
D11*
X293655750Y-184181750D02*
X293655750Y-165131750D01*
D13*
X305562000Y-170338750D02*
X305562000Y-170084750D01*
D11*
X288893250Y-165131750D02*
X288893250Y-146081750D01*
X288893250Y-165131750D02*
X293655750Y-165131750D01*
X293655750Y-184181750D02*
X317468250Y-184181750D01*
X307594000Y-170973750D02*
X306070000Y-170973750D01*
X305095219Y-170211750D02*
G75*
G03*
X305095219Y-170211750I-803219J0D01*
G01*
%TO.C,SW6\u002C11*%
X246030750Y-203231750D02*
X226980750Y-203231750D01*
X246030750Y-184181750D02*
X226980750Y-184181750D01*
X226980750Y-203231750D02*
X226980750Y-184181750D01*
X246030750Y-184181750D02*
X246030750Y-203231750D01*
%TO.C,SW2\u002C1*%
X50768250Y-98456750D02*
X50768250Y-117506750D01*
X50768250Y-117506750D02*
X31718250Y-117506750D01*
X50768250Y-98456750D02*
X31718250Y-98456750D01*
X31718250Y-117506750D02*
X31718250Y-98456750D01*
%TO.C,SW6\u002C10*%
X226980750Y-184181750D02*
X207930750Y-184181750D01*
X226980750Y-184181750D02*
X226980750Y-203231750D01*
X207930750Y-203231750D02*
X207930750Y-184181750D01*
X226980750Y-203231750D02*
X207930750Y-203231750D01*
%TO.C,SW5\u002C8*%
X198400000Y-184200000D02*
X179350000Y-184200000D01*
X198400000Y-165150000D02*
X179350000Y-165150000D01*
X198400000Y-165150000D02*
X198400000Y-184200000D01*
X179350000Y-184200000D02*
X179350000Y-165150000D01*
%TO.C,SW3\u002C17*%
X403193250Y-127063500D02*
X384143250Y-127063500D01*
X403193250Y-127063500D02*
X403193250Y-146113500D01*
X403193250Y-146113500D02*
X384143250Y-146113500D01*
X384143250Y-146113500D02*
X384143250Y-127063500D01*
%TO.C,SW2\u002C8*%
X208026000Y-117506750D02*
X188976000Y-117506750D01*
X208026000Y-98456750D02*
X208026000Y-117506750D01*
X188976000Y-117506750D02*
X188976000Y-98456750D01*
X208026000Y-98456750D02*
X188976000Y-98456750D01*
%TO.C,SW4\u002C7*%
X155543250Y-165131750D02*
X155543250Y-146081750D01*
X174593250Y-146081750D02*
X155543250Y-146081750D01*
X174593250Y-146081750D02*
X174593250Y-165131750D01*
X174593250Y-165131750D02*
X155543250Y-165131750D01*
%TO.C,SW4\u002C6*%
X155543250Y-146081750D02*
X155543250Y-165131750D01*
X155543250Y-146081750D02*
X136493250Y-146081750D01*
X136493250Y-165131750D02*
X136493250Y-146081750D01*
X155543250Y-165131750D02*
X136493250Y-165131750D01*
D12*
%TO.C,SW7\u002C3*%
X93535500Y-218598750D02*
X92011500Y-218598750D01*
X88963500Y-217074750D02*
X88963500Y-218598750D01*
X88963500Y-218598750D02*
X90487500Y-218598750D01*
D11*
X103155750Y-203231750D02*
X103155750Y-222281750D01*
D12*
X93027500Y-216820750D02*
X93027500Y-217074750D01*
D11*
X79343250Y-222281750D02*
X79343250Y-203231750D01*
D12*
X89471500Y-217074750D02*
X89471500Y-216820750D01*
X90487500Y-218598750D02*
X90487500Y-217074750D01*
X92011500Y-217074750D02*
X93535500Y-217074750D01*
X89471500Y-218852750D02*
X89471500Y-218598750D01*
X93027500Y-218852750D02*
X93027500Y-218598750D01*
X92011500Y-218598750D02*
X92011500Y-217074750D01*
D11*
X103155750Y-203231750D02*
X79343250Y-203231750D01*
D12*
X89471500Y-216820750D02*
X93027500Y-216820750D01*
X90487500Y-217074750D02*
X88963500Y-217074750D01*
D11*
X103155750Y-222281750D02*
X79343250Y-222281750D01*
D12*
X93535500Y-217074750D02*
X93535500Y-218598750D01*
X93027500Y-218852750D02*
X89471500Y-218852750D01*
D11*
%TO.C,SW4\u002C18*%
X422243250Y-146113500D02*
X422243250Y-165163500D01*
X403193250Y-165163500D02*
X403193250Y-146113500D01*
X422243250Y-165163500D02*
X403193250Y-165163500D01*
X422243250Y-146113500D02*
X403193250Y-146113500D01*
%TO.C,SW5\u002C10*%
X217455750Y-184181750D02*
X217455750Y-165131750D01*
X236505750Y-165131750D02*
X236505750Y-184181750D01*
X236505750Y-184181750D02*
X217455750Y-184181750D01*
X236505750Y-165131750D02*
X217455750Y-165131750D01*
%TO.C,SW1\u002C11*%
X260318250Y-98456750D02*
X260318250Y-79406750D01*
X279368250Y-79406750D02*
X260318250Y-79406750D01*
X279368250Y-98456750D02*
X260318250Y-98456750D01*
X279368250Y-79406750D02*
X279368250Y-98456750D01*
%TO.C,SW4\u002C15*%
X360362500Y-127000000D02*
X341312500Y-127000000D01*
X341312500Y-146050000D02*
X341312500Y-127000000D01*
X360362500Y-146050000D02*
X341312500Y-146050000D01*
X360362500Y-127000000D02*
X360362500Y-146050000D01*
%TO.C,SW2\u002C16*%
X360362500Y-98425000D02*
X360362500Y-79375000D01*
X379412500Y-79375000D02*
X360362500Y-79375000D01*
X379412500Y-98425000D02*
X360362500Y-98425000D01*
X379412500Y-79375000D02*
X379412500Y-98425000D01*
%TO.C,SW2\u002C14*%
X341312500Y-79375000D02*
X322262500Y-79375000D01*
X341312500Y-98425000D02*
X322262500Y-98425000D01*
X322262500Y-98425000D02*
X322262500Y-79375000D01*
X341312500Y-79375000D02*
X341312500Y-98425000D01*
%TO.C,SW4\u002C10*%
X231743250Y-146081750D02*
X231743250Y-165131750D01*
X231743250Y-165131750D02*
X212693250Y-165131750D01*
X212693250Y-165131750D02*
X212693250Y-146081750D01*
X231743250Y-146081750D02*
X212693250Y-146081750D01*
%TO.C,SW5\u002C18*%
X403193250Y-184213500D02*
X403193250Y-165163500D01*
X422243250Y-165163500D02*
X422243250Y-184213500D01*
X422243250Y-184213500D02*
X403193250Y-184213500D01*
X422243250Y-165163500D02*
X403193250Y-165163500D01*
%TO.C,SW7\u002C10*%
X269843250Y-222281750D02*
X269843250Y-203231750D01*
D12*
X279971500Y-217074750D02*
X279971500Y-216820750D01*
X279971500Y-216820750D02*
X283527500Y-216820750D01*
D11*
X293655750Y-203231750D02*
X293655750Y-222281750D01*
D12*
X279971500Y-218852750D02*
X279971500Y-218598750D01*
X283527500Y-218852750D02*
X279971500Y-218852750D01*
X282511500Y-217074750D02*
X284035500Y-217074750D01*
X284035500Y-218598750D02*
X282511500Y-218598750D01*
X279463500Y-217074750D02*
X279463500Y-218598750D01*
D11*
X293655750Y-203231750D02*
X269843250Y-203231750D01*
D12*
X283527500Y-218852750D02*
X283527500Y-218598750D01*
X280987500Y-217074750D02*
X279463500Y-217074750D01*
X284035500Y-217074750D02*
X284035500Y-218598750D01*
X279463500Y-218598750D02*
X280987500Y-218598750D01*
X282511500Y-218598750D02*
X282511500Y-217074750D01*
D11*
X293655750Y-222281750D02*
X269843250Y-222281750D01*
D12*
X280987500Y-218598750D02*
X280987500Y-217074750D01*
X283527500Y-216820750D02*
X283527500Y-217074750D01*
D11*
%TO.C,SW2\u002C9*%
X208026000Y-117506750D02*
X208026000Y-98456750D01*
X227076000Y-117506750D02*
X208026000Y-117506750D01*
X227076000Y-98456750D02*
X208026000Y-98456750D01*
X227076000Y-98456750D02*
X227076000Y-117506750D01*
%TO.C,SW2\u002C17*%
X460343250Y-146113500D02*
X441293250Y-146113500D01*
X460343250Y-127063500D02*
X460343250Y-146113500D01*
X441293250Y-146113500D02*
X441293250Y-127063500D01*
X460343250Y-127063500D02*
X441293250Y-127063500D01*
%TO.C,SW7\u002C1*%
X55530750Y-203231750D02*
X55530750Y-222281750D01*
D12*
X42862500Y-218598750D02*
X42862500Y-217074750D01*
X41846500Y-217074750D02*
X41846500Y-216820750D01*
X41338500Y-218598750D02*
X42862500Y-218598750D01*
X45402500Y-218852750D02*
X45402500Y-218598750D01*
X44386500Y-217074750D02*
X45910500Y-217074750D01*
X41338500Y-217074750D02*
X41338500Y-218598750D01*
X45910500Y-218598750D02*
X44386500Y-218598750D01*
X45402500Y-218852750D02*
X41846500Y-218852750D01*
X44386500Y-218598750D02*
X44386500Y-217074750D01*
X45910500Y-217074750D02*
X45910500Y-218598750D01*
X42862500Y-217074750D02*
X41338500Y-217074750D01*
D11*
X55530750Y-203231750D02*
X31718250Y-203231750D01*
X31718250Y-222281750D02*
X31718250Y-203231750D01*
D12*
X45402500Y-216820750D02*
X45402500Y-217074750D01*
X41846500Y-216820750D02*
X45402500Y-216820750D01*
D11*
X55530750Y-222281750D02*
X31718250Y-222281750D01*
D12*
X41846500Y-218852750D02*
X41846500Y-218598750D01*
D11*
%TO.C,SW3\u002C13*%
X279368250Y-127031750D02*
X279368250Y-146081750D01*
X279368250Y-127031750D02*
X260318250Y-127031750D01*
X260318250Y-146081750D02*
X260318250Y-127031750D01*
X279368250Y-146081750D02*
X260318250Y-146081750D01*
%TO.C,SW2\u002C13*%
X317468250Y-98456750D02*
X298418250Y-98456750D01*
X317468250Y-117506750D02*
X298418250Y-117506750D01*
X317468250Y-98456750D02*
X317468250Y-117506750D01*
X298418250Y-117506750D02*
X298418250Y-98456750D01*
%TO.C,SW2\u002C7*%
X169926000Y-117506750D02*
X169926000Y-98456750D01*
X188976000Y-117506750D02*
X169926000Y-117506750D01*
X188976000Y-98456750D02*
X169926000Y-98456750D01*
X188976000Y-98456750D02*
X188976000Y-117506750D01*
D12*
%TO.C,SW7\u002C11*%
X303784000Y-217074750D02*
X303784000Y-216820750D01*
D11*
X293655750Y-222281750D02*
X293655750Y-203231750D01*
D12*
X303276000Y-218598750D02*
X304800000Y-218598750D01*
X306324000Y-218598750D02*
X306324000Y-217074750D01*
X307340000Y-216820750D02*
X307340000Y-217074750D01*
X307340000Y-218852750D02*
X303784000Y-218852750D01*
X306324000Y-217074750D02*
X307848000Y-217074750D01*
X303276000Y-217074750D02*
X303276000Y-218598750D01*
X304800000Y-218598750D02*
X304800000Y-217074750D01*
X303784000Y-218852750D02*
X303784000Y-218598750D01*
D11*
X317468250Y-203231750D02*
X293655750Y-203231750D01*
D12*
X303784000Y-216820750D02*
X307340000Y-216820750D01*
X307848000Y-218598750D02*
X306324000Y-218598750D01*
D11*
X317468250Y-222281750D02*
X293655750Y-222281750D01*
X317468250Y-203231750D02*
X317468250Y-222281750D01*
D12*
X304800000Y-217074750D02*
X303276000Y-217074750D01*
X307848000Y-217074750D02*
X307848000Y-218598750D01*
X307340000Y-218852750D02*
X307340000Y-218598750D01*
D11*
%TO.C,SW4\u002C2*%
X60293250Y-165131750D02*
X60293250Y-146081750D01*
X79343250Y-146081750D02*
X60293250Y-146081750D01*
X79343250Y-165131750D02*
X60293250Y-165131750D01*
X79343250Y-146081750D02*
X79343250Y-165131750D01*
%TO.C,SW3\u002C1*%
X31718250Y-146081750D02*
X31718250Y-127031750D01*
X50768250Y-127031750D02*
X31718250Y-127031750D01*
X50768250Y-127031750D02*
X50768250Y-146081750D01*
X50768250Y-146081750D02*
X31718250Y-146081750D01*
%TO.C,SW6\u002C9*%
X188880750Y-203231750D02*
X188880750Y-184181750D01*
X207930750Y-184181750D02*
X188880750Y-184181750D01*
X207930750Y-203231750D02*
X188880750Y-203231750D01*
X207930750Y-184181750D02*
X207930750Y-203231750D01*
%TO.C,SW3\u002C2*%
X69818250Y-146081750D02*
X50768250Y-146081750D01*
X69818250Y-127031750D02*
X50768250Y-127031750D01*
X50768250Y-146081750D02*
X50768250Y-127031750D01*
X69818250Y-127031750D02*
X69818250Y-146081750D01*
%TO.C,SW7\u002C16*%
X379380750Y-222313500D02*
X360330750Y-222313500D01*
X379380750Y-203263500D02*
X360330750Y-203263500D01*
X360330750Y-222313500D02*
X360330750Y-203263500D01*
X379380750Y-203263500D02*
X379380750Y-222313500D01*
%TO.C,SW6\u002C5*%
X112680750Y-203231750D02*
X112680750Y-184181750D01*
X131730750Y-184181750D02*
X131730750Y-203231750D01*
X131730750Y-203231750D02*
X112680750Y-203231750D01*
X131730750Y-184181750D02*
X112680750Y-184181750D01*
%TO.C,SW2\u002C6*%
X150876000Y-117506750D02*
X150876000Y-98456750D01*
X169926000Y-98456750D02*
X169926000Y-117506750D01*
X169926000Y-98456750D02*
X150876000Y-98456750D01*
X169926000Y-117506750D02*
X150876000Y-117506750D01*
%TO.C,SW2\u002C4*%
X117443250Y-98456750D02*
X98393250Y-98456750D01*
X117443250Y-117506750D02*
X98393250Y-117506750D01*
X117443250Y-98456750D02*
X117443250Y-117506750D01*
X98393250Y-117506750D02*
X98393250Y-98456750D01*
%TO.C,SW4\u002C17*%
X384143250Y-165163500D02*
X384143250Y-146113500D01*
X403193250Y-146113500D02*
X384143250Y-146113500D01*
X403193250Y-146113500D02*
X403193250Y-165163500D01*
X403193250Y-165163500D02*
X384143250Y-165163500D01*
%TO.C,SW3\u002C12*%
X260318250Y-146081750D02*
X241268250Y-146081750D01*
X260318250Y-127031750D02*
X241268250Y-127031750D01*
X260318250Y-127031750D02*
X260318250Y-146081750D01*
X241268250Y-146081750D02*
X241268250Y-127031750D01*
%TO.C,SW3\u002C3*%
X88868250Y-127031750D02*
X88868250Y-146081750D01*
X88868250Y-127031750D02*
X69818250Y-127031750D01*
X88868250Y-146081750D02*
X69818250Y-146081750D01*
X69818250Y-146081750D02*
X69818250Y-127031750D01*
%TO.C,SW4\u002C3*%
X98393250Y-146081750D02*
X79343250Y-146081750D01*
X98393250Y-165131750D02*
X79343250Y-165131750D01*
X79343250Y-165131750D02*
X79343250Y-146081750D01*
X98393250Y-146081750D02*
X98393250Y-165131750D01*
%TO.C,SW7\u002C14*%
X322230750Y-222313500D02*
X322230750Y-203263500D01*
X341280750Y-203263500D02*
X322230750Y-203263500D01*
X341280750Y-222313500D02*
X322230750Y-222313500D01*
X341280750Y-203263500D02*
X341280750Y-222313500D01*
%TO.C,SW5\u002C12*%
X255555750Y-184181750D02*
X255555750Y-165131750D01*
X274605750Y-165131750D02*
X255555750Y-165131750D01*
X274605750Y-184181750D02*
X255555750Y-184181750D01*
X274605750Y-165131750D02*
X274605750Y-184181750D01*
%TO.C,SW6\u002C19*%
X441293250Y-184213500D02*
X441293250Y-203263500D01*
X441293250Y-184213500D02*
X422243250Y-184213500D01*
X441293250Y-203263500D02*
X422243250Y-203263500D01*
X422243250Y-203263500D02*
X422243250Y-184213500D01*
%TO.C,SW7\u002C8*%
X246030750Y-222281750D02*
X222218250Y-222281750D01*
D12*
X235902500Y-218852750D02*
X235902500Y-218598750D01*
X234886500Y-217074750D02*
X236410500Y-217074750D01*
X232346500Y-216820750D02*
X235902500Y-216820750D01*
X231838500Y-217074750D02*
X231838500Y-218598750D01*
X236410500Y-218598750D02*
X234886500Y-218598750D01*
X232346500Y-218852750D02*
X232346500Y-218598750D01*
X234886500Y-218598750D02*
X234886500Y-217074750D01*
X233362500Y-217074750D02*
X231838500Y-217074750D01*
X236410500Y-217074750D02*
X236410500Y-218598750D01*
D11*
X222218250Y-222281750D02*
X222218250Y-203231750D01*
D12*
X233362500Y-218598750D02*
X233362500Y-217074750D01*
D11*
X246030750Y-203231750D02*
X246030750Y-222281750D01*
D12*
X232346500Y-217074750D02*
X232346500Y-216820750D01*
D11*
X246030750Y-203231750D02*
X222218250Y-203231750D01*
D12*
X235902500Y-218852750D02*
X232346500Y-218852750D01*
X235902500Y-216820750D02*
X235902500Y-217074750D01*
X231838500Y-218598750D02*
X233362500Y-218598750D01*
D11*
%TO.C,SW1\u002C5*%
X136493250Y-98456750D02*
X117443250Y-98456750D01*
X136493250Y-79406750D02*
X136493250Y-98456750D01*
X136493250Y-79406750D02*
X117443250Y-79406750D01*
X117443250Y-98456750D02*
X117443250Y-79406750D01*
%TO.C,SW1\u002C3*%
X98393250Y-98456750D02*
X79343250Y-98456750D01*
X98393250Y-79406750D02*
X98393250Y-98456750D01*
X98393250Y-79406750D02*
X79343250Y-79406750D01*
X79343250Y-98456750D02*
X79343250Y-79406750D01*
%TO.C,SW4\u002C16*%
X379412500Y-127000000D02*
X379412500Y-146050000D01*
X379412500Y-146050000D02*
X360362500Y-146050000D01*
X360362500Y-146050000D02*
X360362500Y-127000000D01*
X379412500Y-127000000D02*
X360362500Y-127000000D01*
%TO.C,SW6\u002C3*%
X93630750Y-203231750D02*
X74580750Y-203231750D01*
X74580750Y-203231750D02*
X74580750Y-184181750D01*
X93630750Y-184181750D02*
X74580750Y-184181750D01*
X93630750Y-184181750D02*
X93630750Y-203231750D01*
%TO.C,SW6\u002C8*%
X188880750Y-184181750D02*
X169830750Y-184181750D01*
X188880750Y-184181750D02*
X188880750Y-203231750D01*
X169830750Y-203231750D02*
X169830750Y-184181750D01*
X188880750Y-203231750D02*
X169830750Y-203231750D01*
%TO.C,SW5\u002C2*%
X84105750Y-165131750D02*
X84105750Y-184181750D01*
X65055750Y-184181750D02*
X65055750Y-165131750D01*
X84105750Y-165131750D02*
X65055750Y-165131750D01*
X84105750Y-184181750D02*
X65055750Y-184181750D01*
%TO.C,SW4\u002C19*%
X422243250Y-165163500D02*
X422243250Y-146113500D01*
X441293250Y-165163500D02*
X422243250Y-165163500D01*
X441293250Y-146113500D02*
X441293250Y-165163500D01*
X441293250Y-146113500D02*
X422243250Y-146113500D01*
D12*
%TO.C,SW7\u002C17*%
X404971250Y-216852500D02*
X401415250Y-216852500D01*
X402431250Y-218630500D02*
X402431250Y-217106500D01*
X401415250Y-218630500D02*
X401415250Y-218884500D01*
X402431250Y-217106500D02*
X400907250Y-217106500D01*
X403955250Y-217106500D02*
X403955250Y-218630500D01*
X404971250Y-217106500D02*
X404971250Y-216852500D01*
X405479250Y-217106500D02*
X403955250Y-217106500D01*
D11*
X422243250Y-203263500D02*
X384143250Y-203263500D01*
D12*
X405479250Y-218630500D02*
X405479250Y-217106500D01*
X400907250Y-217106500D02*
X400907250Y-218630500D01*
X401415250Y-216852500D02*
X401415250Y-217106500D01*
X400907250Y-218630500D02*
X402431250Y-218630500D01*
X404971250Y-218884500D02*
X404971250Y-218630500D01*
D11*
X384143250Y-203263500D02*
X384143250Y-222313500D01*
D12*
X401415250Y-218884500D02*
X404971250Y-218884500D01*
D11*
X422243250Y-222313500D02*
X384143250Y-222313500D01*
X422243250Y-203263500D02*
X422243250Y-222313500D01*
D12*
X403955250Y-218630500D02*
X405479250Y-218630500D01*
D11*
%TO.C,SW5\u002C4*%
X122205750Y-165131750D02*
X122205750Y-184181750D01*
X103155750Y-184181750D02*
X103155750Y-165131750D01*
X122205750Y-184181750D02*
X103155750Y-184181750D01*
X122205750Y-165131750D02*
X103155750Y-165131750D01*
D12*
%TO.C,SW7\u002C13*%
X288988500Y-199548750D02*
X290512500Y-199548750D01*
X290512500Y-198024750D02*
X288988500Y-198024750D01*
X289496500Y-199802750D02*
X293052500Y-199802750D01*
X293052500Y-199802750D02*
X293052500Y-199548750D01*
X293560500Y-198024750D02*
X292036500Y-198024750D01*
D11*
X317468250Y-184181750D02*
X317468250Y-203231750D01*
D12*
X289496500Y-199548750D02*
X289496500Y-199802750D01*
X293052500Y-198024750D02*
X293052500Y-197770750D01*
X290512500Y-199548750D02*
X290512500Y-198024750D01*
X288988500Y-198024750D02*
X288988500Y-199548750D01*
D11*
X317468250Y-184181750D02*
X265080750Y-184181750D01*
D12*
X292036500Y-198024750D02*
X292036500Y-199548750D01*
X293560500Y-199548750D02*
X293560500Y-198024750D01*
X292036500Y-199548750D02*
X293560500Y-199548750D01*
D11*
X317468250Y-203231750D02*
X265080750Y-203231750D01*
D12*
X289496500Y-197770750D02*
X289496500Y-198024750D01*
D11*
X265080750Y-184181750D02*
X265080750Y-203231750D01*
D12*
X293052500Y-197770750D02*
X289496500Y-197770750D01*
D11*
%TO.C,SW5\u002C16*%
X379412500Y-165100000D02*
X360362500Y-165100000D01*
X379412500Y-146050000D02*
X360362500Y-146050000D01*
X379412500Y-146050000D02*
X379412500Y-165100000D01*
X360362500Y-165100000D02*
X360362500Y-146050000D01*
%TO.C,SW1\u002C8*%
X208026000Y-79406750D02*
X188976000Y-79406750D01*
X208026000Y-79406750D02*
X208026000Y-98456750D01*
X208026000Y-98456750D02*
X188976000Y-98456750D01*
X188976000Y-98456750D02*
X188976000Y-79406750D01*
%TO.C,SW5\u002C9*%
X198405750Y-184181750D02*
X198405750Y-165131750D01*
X217455750Y-165131750D02*
X198405750Y-165131750D01*
X217455750Y-165131750D02*
X217455750Y-184181750D01*
X217455750Y-184181750D02*
X198405750Y-184181750D01*
%TO.C,SW7\u002C18*%
X441293250Y-222313500D02*
X422243250Y-222313500D01*
X441293250Y-203263500D02*
X422243250Y-203263500D01*
X422243250Y-222313500D02*
X422243250Y-203263500D01*
X441293250Y-203263500D02*
X441293250Y-222313500D01*
%TO.C,SW3\u002C14*%
X322262500Y-117475000D02*
X322262500Y-98425000D01*
X341312500Y-98425000D02*
X322262500Y-98425000D01*
X341312500Y-117475000D02*
X322262500Y-117475000D01*
X341312500Y-98425000D02*
X341312500Y-117475000D01*
%TO.C,SW7\u002C15*%
X360330750Y-203263500D02*
X360330750Y-222313500D01*
X360330750Y-222313500D02*
X341280750Y-222313500D01*
X341280750Y-222313500D02*
X341280750Y-203263500D01*
X360330750Y-203263500D02*
X341280750Y-203263500D01*
%TO.C,SW3\u002C9*%
X184118250Y-146081750D02*
X184118250Y-127031750D01*
X203168250Y-127031750D02*
X184118250Y-127031750D01*
X203168250Y-146081750D02*
X184118250Y-146081750D01*
X203168250Y-127031750D02*
X203168250Y-146081750D01*
%TO.C,SW6\u002C4*%
X112680750Y-184181750D02*
X112680750Y-203231750D01*
X93630750Y-203231750D02*
X93630750Y-184181750D01*
X112680750Y-184181750D02*
X93630750Y-184181750D01*
X112680750Y-203231750D02*
X93630750Y-203231750D01*
%TO.C,SW5\u002C14*%
X341312500Y-146050000D02*
X322262500Y-146050000D01*
X322262500Y-165100000D02*
X322262500Y-146050000D01*
X341312500Y-165100000D02*
X322262500Y-165100000D01*
X341312500Y-146050000D02*
X341312500Y-165100000D01*
%TO.C,SW2\u002C15*%
X360362500Y-79375000D02*
X360362500Y-98425000D01*
X360362500Y-98425000D02*
X341312500Y-98425000D01*
X341312500Y-98425000D02*
X341312500Y-79375000D01*
X360362500Y-79375000D02*
X341312500Y-79375000D01*
%TO.C,SW3\u002C4*%
X88868250Y-146081750D02*
X88868250Y-127031750D01*
X107918250Y-127031750D02*
X88868250Y-127031750D01*
X107918250Y-127031750D02*
X107918250Y-146081750D01*
X107918250Y-146081750D02*
X88868250Y-146081750D01*
%TO.C,SW1\u002C15*%
X341312500Y-79375000D02*
X341312500Y-60325000D01*
X360362500Y-79375000D02*
X341312500Y-79375000D01*
X360362500Y-60325000D02*
X341312500Y-60325000D01*
X360362500Y-60325000D02*
X360362500Y-79375000D01*
%TD*%
M02*
