G04 #@! TF.GenerationSoftware,KiCad,Pcbnew,(6.0.0-rc1-458-g78ff9a857a)*
G04 #@! TF.CreationDate,2022-12-03T17:01:27+01:00*
G04 #@! TF.ProjectId,berlin,6265726c-696e-42e6-9b69-6361645f7063,rev?*
G04 #@! TF.SameCoordinates,Original*
G04 #@! TF.FileFunction,Legend,Top*
G04 #@! TF.FilePolarity,Positive*
%FSLAX46Y46*%
G04 Gerber Fmt 4.6, Leading zero omitted, Abs format (unit mm)*
G04 Created by KiCad (PCBNEW (6.0.0-rc1-458-g78ff9a857a)) date 2022-12-03 17:01:27*
%MOMM*%
%LPD*%
G01*
G04 APERTURE LIST*
G04 Aperture macros list*
%AMRoundRect*
0 Rectangle with rounded corners*
0 $1 Rounding radius*
0 $2 $3 $4 $5 $6 $7 $8 $9 X,Y pos of 4 corners*
0 Add a 4 corners polygon primitive as box body*
4,1,4,$2,$3,$4,$5,$6,$7,$8,$9,$2,$3,0*
0 Add four circle primitives for the rounded corners*
1,1,$1+$1,$2,$3*
1,1,$1+$1,$4,$5*
1,1,$1+$1,$6,$7*
1,1,$1+$1,$8,$9*
0 Add four rect primitives between the rounded corners*
20,1,$1+$1,$2,$3,$4,$5,0*
20,1,$1+$1,$4,$5,$6,$7,0*
20,1,$1+$1,$6,$7,$8,$9,0*
20,1,$1+$1,$8,$9,$2,$3,0*%
G04 Aperture macros list end*
%ADD10C,0.100000*%
%ADD11C,0.150000*%
%ADD12C,0.120000*%
%ADD13C,4.250000*%
%ADD14C,1.778000*%
%ADD15RoundRect,0.177800X-0.711200X-0.711200X0.711200X-0.711200X0.711200X0.711200X-0.711200X0.711200X0*%
%ADD16C,1.800000*%
%ADD17R,2.000000X2.000000*%
%ADD18C,2.000000*%
%ADD19R,4.000000X3.000000*%
%ADD20R,3.000000X4.000000*%
%ADD21C,1.596000*%
%ADD22R,1.750000X1.750000*%
%ADD23C,1.750000*%
%ADD24C,2.700000*%
%ADD25C,0.800000*%
%ADD26C,7.000000*%
%ADD27R,1.524000X1.524000*%
%ADD28O,1.524000X1.524000*%
%ADD29C,3.600000*%
%ADD30C,1.701800*%
%ADD31C,3.987800*%
%ADD32C,3.048000*%
%ADD33C,0.650000*%
%ADD34O,1.100000X2.200000*%
%ADD35O,1.300000X1.900000*%
%ADD36C,1.600000*%
%ADD37O,1.600000X1.600000*%
%ADD38C,1.000000*%
%ADD39C,1.200000*%
G04 APERTURE END LIST*
D10*
X391892857Y-101392857D02*
X391892857Y-101892857D01*
X392678571Y-101892857D02*
X391178571Y-101892857D01*
X391178571Y-101178571D01*
X391892857Y-100107142D02*
X391892857Y-100607142D01*
X392678571Y-100607142D02*
X391178571Y-100607142D01*
X391178571Y-99892857D01*
X392535714Y-98464285D02*
X392607142Y-98535714D01*
X392678571Y-98750000D01*
X392678571Y-98892857D01*
X392607142Y-99107142D01*
X392464285Y-99250000D01*
X392321428Y-99321428D01*
X392035714Y-99392857D01*
X391821428Y-99392857D01*
X391535714Y-99321428D01*
X391392857Y-99250000D01*
X391250000Y-99107142D01*
X391178571Y-98892857D01*
X391178571Y-98750000D01*
X391250000Y-98535714D01*
X391321428Y-98464285D01*
X392535714Y-95821428D02*
X392607142Y-95892857D01*
X392678571Y-96107142D01*
X392678571Y-96250000D01*
X392607142Y-96464285D01*
X392464285Y-96607142D01*
X392321428Y-96678571D01*
X392035714Y-96750000D01*
X391821428Y-96750000D01*
X391535714Y-96678571D01*
X391392857Y-96607142D01*
X391250000Y-96464285D01*
X391178571Y-96250000D01*
X391178571Y-96107142D01*
X391250000Y-95892857D01*
X391321428Y-95821428D01*
X392678571Y-94535714D02*
X391892857Y-94535714D01*
X391750000Y-94607142D01*
X391678571Y-94750000D01*
X391678571Y-95035714D01*
X391750000Y-95178571D01*
X392607142Y-94535714D02*
X392678571Y-94678571D01*
X392678571Y-95035714D01*
X392607142Y-95178571D01*
X392464285Y-95250000D01*
X392321428Y-95250000D01*
X392178571Y-95178571D01*
X392107142Y-95035714D01*
X392107142Y-94678571D01*
X392035714Y-94535714D01*
X392678571Y-93821428D02*
X391178571Y-93821428D01*
X391750000Y-93821428D02*
X391678571Y-93678571D01*
X391678571Y-93392857D01*
X391750000Y-93250000D01*
X391821428Y-93178571D01*
X391964285Y-93107142D01*
X392392857Y-93107142D01*
X392535714Y-93178571D01*
X392607142Y-93250000D01*
X392678571Y-93392857D01*
X392678571Y-93678571D01*
X392607142Y-93821428D01*
X392678571Y-92250000D02*
X392607142Y-92392857D01*
X392464285Y-92464285D01*
X391178571Y-92464285D01*
X392607142Y-91107142D02*
X392678571Y-91250000D01*
X392678571Y-91535714D01*
X392607142Y-91678571D01*
X392464285Y-91750000D01*
X391892857Y-91750000D01*
X391750000Y-91678571D01*
X391678571Y-91535714D01*
X391678571Y-91250000D01*
X391750000Y-91107142D01*
X391892857Y-91035714D01*
X392035714Y-91035714D01*
X392178571Y-91750000D01*
X392678571Y-89250000D02*
X391678571Y-89250000D01*
X391964285Y-89250000D02*
X391821428Y-89178571D01*
X391750000Y-89107142D01*
X391678571Y-88964285D01*
X391678571Y-88821428D01*
X392678571Y-88107142D02*
X392607142Y-88250000D01*
X392535714Y-88321428D01*
X392392857Y-88392857D01*
X391964285Y-88392857D01*
X391821428Y-88321428D01*
X391750000Y-88250000D01*
X391678571Y-88107142D01*
X391678571Y-87892857D01*
X391750000Y-87750000D01*
X391821428Y-87678571D01*
X391964285Y-87607142D01*
X392392857Y-87607142D01*
X392535714Y-87678571D01*
X392607142Y-87750000D01*
X392678571Y-87892857D01*
X392678571Y-88107142D01*
X391678571Y-86321428D02*
X392678571Y-86321428D01*
X391678571Y-86964285D02*
X392464285Y-86964285D01*
X392607142Y-86892857D01*
X392678571Y-86750000D01*
X392678571Y-86535714D01*
X392607142Y-86392857D01*
X392535714Y-86321428D01*
X391678571Y-85821428D02*
X391678571Y-85250000D01*
X391178571Y-85607142D02*
X392464285Y-85607142D01*
X392607142Y-85535714D01*
X392678571Y-85392857D01*
X392678571Y-85250000D01*
X392678571Y-84750000D02*
X391678571Y-84750000D01*
X391178571Y-84750000D02*
X391250000Y-84821428D01*
X391321428Y-84750000D01*
X391250000Y-84678571D01*
X391178571Y-84750000D01*
X391321428Y-84750000D01*
X391678571Y-84035714D02*
X392678571Y-84035714D01*
X391821428Y-84035714D02*
X391750000Y-83964285D01*
X391678571Y-83821428D01*
X391678571Y-83607142D01*
X391750000Y-83464285D01*
X391892857Y-83392857D01*
X392678571Y-83392857D01*
X391678571Y-82035714D02*
X392892857Y-82035714D01*
X393035714Y-82107142D01*
X393107142Y-82178571D01*
X393178571Y-82321428D01*
X393178571Y-82535714D01*
X393107142Y-82678571D01*
X392607142Y-82035714D02*
X392678571Y-82178571D01*
X392678571Y-82464285D01*
X392607142Y-82607142D01*
X392535714Y-82678571D01*
X392392857Y-82750000D01*
X391964285Y-82750000D01*
X391821428Y-82678571D01*
X391750000Y-82607142D01*
X391678571Y-82464285D01*
X391678571Y-82178571D01*
X391750000Y-82035714D01*
X392678571Y-80178571D02*
X391178571Y-80178571D01*
X392678571Y-79535714D02*
X391892857Y-79535714D01*
X391750000Y-79607142D01*
X391678571Y-79750000D01*
X391678571Y-79964285D01*
X391750000Y-80107142D01*
X391821428Y-80178571D01*
X392678571Y-78607142D02*
X392607142Y-78750000D01*
X392535714Y-78821428D01*
X392392857Y-78892857D01*
X391964285Y-78892857D01*
X391821428Y-78821428D01*
X391750000Y-78750000D01*
X391678571Y-78607142D01*
X391678571Y-78392857D01*
X391750000Y-78250000D01*
X391821428Y-78178571D01*
X391964285Y-78107142D01*
X392392857Y-78107142D01*
X392535714Y-78178571D01*
X392607142Y-78250000D01*
X392678571Y-78392857D01*
X392678571Y-78607142D01*
X392678571Y-77250000D02*
X392607142Y-77392857D01*
X392464285Y-77464285D01*
X391178571Y-77464285D01*
X392607142Y-76107142D02*
X392678571Y-76250000D01*
X392678571Y-76535714D01*
X392607142Y-76678571D01*
X392464285Y-76750000D01*
X391892857Y-76750000D01*
X391750000Y-76678571D01*
X391678571Y-76535714D01*
X391678571Y-76250000D01*
X391750000Y-76107142D01*
X391892857Y-76035714D01*
X392035714Y-76035714D01*
X392178571Y-76750000D01*
D11*
X383847619Y-127004761D02*
X383847619Y-125004761D01*
X384990476Y-127004761D01*
X384990476Y-125004761D01*
X385942857Y-127004761D02*
X385942857Y-125004761D01*
X385942857Y-125957142D02*
X387085714Y-125957142D01*
X387085714Y-127004761D02*
X387085714Y-125004761D01*
X388038095Y-127004761D02*
X388038095Y-125004761D01*
X388514285Y-125004761D01*
X388800000Y-125100000D01*
X388990476Y-125290476D01*
X389085714Y-125480952D01*
X389180952Y-125861904D01*
X389180952Y-126147619D01*
X389085714Y-126528571D01*
X388990476Y-126719047D01*
X388800000Y-126909523D01*
X388514285Y-127004761D01*
X388038095Y-127004761D01*
X390038095Y-126242857D02*
X391561904Y-126242857D01*
X392323809Y-125004761D02*
X393561904Y-125004761D01*
X392895238Y-125766666D01*
X393180952Y-125766666D01*
X393371428Y-125861904D01*
X393466666Y-125957142D01*
X393561904Y-126147619D01*
X393561904Y-126623809D01*
X393466666Y-126814285D01*
X393371428Y-126909523D01*
X393180952Y-127004761D01*
X392609523Y-127004761D01*
X392419047Y-126909523D01*
X392323809Y-126814285D01*
X394419047Y-126814285D02*
X394514285Y-126909523D01*
X394419047Y-127004761D01*
X394323809Y-126909523D01*
X394419047Y-126814285D01*
X394419047Y-127004761D01*
X396323809Y-125004761D02*
X395371428Y-125004761D01*
X395276190Y-125957142D01*
X395371428Y-125861904D01*
X395561904Y-125766666D01*
X396038095Y-125766666D01*
X396228571Y-125861904D01*
X396323809Y-125957142D01*
X396419047Y-126147619D01*
X396419047Y-126623809D01*
X396323809Y-126814285D01*
X396228571Y-126909523D01*
X396038095Y-127004761D01*
X395561904Y-127004761D01*
X395371428Y-126909523D01*
X395276190Y-126814285D01*
X397276190Y-126242857D02*
X398800000Y-126242857D01*
X399561904Y-125004761D02*
X400800000Y-125004761D01*
X400133333Y-125766666D01*
X400419047Y-125766666D01*
X400609523Y-125861904D01*
X400704761Y-125957142D01*
X400800000Y-126147619D01*
X400800000Y-126623809D01*
X400704761Y-126814285D01*
X400609523Y-126909523D01*
X400419047Y-127004761D01*
X399847619Y-127004761D01*
X399657142Y-126909523D01*
X399561904Y-126814285D01*
X401561904Y-125195238D02*
X401657142Y-125100000D01*
X401847619Y-125004761D01*
X402323809Y-125004761D01*
X402514285Y-125100000D01*
X402609523Y-125195238D01*
X402704761Y-125385714D01*
X402704761Y-125576190D01*
X402609523Y-125861904D01*
X401466666Y-127004761D01*
X402704761Y-127004761D01*
X403942857Y-125004761D02*
X404133333Y-125004761D01*
X404323809Y-125100000D01*
X404419047Y-125195238D01*
X404514285Y-125385714D01*
X404609523Y-125766666D01*
X404609523Y-126242857D01*
X404514285Y-126623809D01*
X404419047Y-126814285D01*
X404323809Y-126909523D01*
X404133333Y-127004761D01*
X403942857Y-127004761D01*
X403752380Y-126909523D01*
X403657142Y-126814285D01*
X403561904Y-126623809D01*
X403466666Y-126242857D01*
X403466666Y-125766666D01*
X403561904Y-125385714D01*
X403657142Y-125195238D01*
X403752380Y-125100000D01*
X403942857Y-125004761D01*
X405371428Y-125195238D02*
X405466666Y-125100000D01*
X405657142Y-125004761D01*
X406133333Y-125004761D01*
X406323809Y-125100000D01*
X406419047Y-125195238D01*
X406514285Y-125385714D01*
X406514285Y-125576190D01*
X406419047Y-125861904D01*
X405276190Y-127004761D01*
X406514285Y-127004761D01*
X408228571Y-125671428D02*
X408228571Y-127004761D01*
X407752380Y-124909523D02*
X407276190Y-126338095D01*
X408514285Y-126338095D01*
X409657142Y-125004761D02*
X409847619Y-125004761D01*
X410038095Y-125100000D01*
X410133333Y-125195238D01*
X410228571Y-125385714D01*
X410323809Y-125766666D01*
X410323809Y-126242857D01*
X410228571Y-126623809D01*
X410133333Y-126814285D01*
X410038095Y-126909523D01*
X409847619Y-127004761D01*
X409657142Y-127004761D01*
X409466666Y-126909523D01*
X409371428Y-126814285D01*
X409276190Y-126623809D01*
X409180952Y-126242857D01*
X409180952Y-125766666D01*
X409276190Y-125385714D01*
X409371428Y-125195238D01*
X409466666Y-125100000D01*
X409657142Y-125004761D01*
X411847619Y-125957142D02*
X411180952Y-125957142D01*
X411180952Y-127004761D02*
X411180952Y-125004761D01*
X412133333Y-125004761D01*
X412609523Y-125004761D02*
X413752380Y-125004761D01*
X413180952Y-127004761D02*
X413180952Y-125004761D01*
X414419047Y-126242857D02*
X415942857Y-126242857D01*
X418038095Y-126814285D02*
X417942857Y-126909523D01*
X417657142Y-127004761D01*
X417466666Y-127004761D01*
X417180952Y-126909523D01*
X416990476Y-126719047D01*
X416895238Y-126528571D01*
X416800000Y-126147619D01*
X416800000Y-125861904D01*
X416895238Y-125480952D01*
X416990476Y-125290476D01*
X417180952Y-125100000D01*
X417466666Y-125004761D01*
X417657142Y-125004761D01*
X417942857Y-125100000D01*
X418038095Y-125195238D01*
X418800000Y-126909523D02*
X419085714Y-127004761D01*
X419561904Y-127004761D01*
X419752380Y-126909523D01*
X419847619Y-126814285D01*
X419942857Y-126623809D01*
X419942857Y-126433333D01*
X419847619Y-126242857D01*
X419752380Y-126147619D01*
X419561904Y-126052380D01*
X419180952Y-125957142D01*
X418990476Y-125861904D01*
X418895238Y-125766666D01*
X418800000Y-125576190D01*
X418800000Y-125385714D01*
X418895238Y-125195238D01*
X418990476Y-125100000D01*
X419180952Y-125004761D01*
X419657142Y-125004761D01*
X419942857Y-125100000D01*
X420609523Y-125004761D02*
X421942857Y-127004761D01*
X421942857Y-125004761D02*
X420609523Y-127004761D01*
X422704761Y-127004761D02*
X422704761Y-125004761D01*
X423466666Y-125004761D01*
X423657142Y-125100000D01*
X423752380Y-125195238D01*
X423847619Y-125385714D01*
X423847619Y-125671428D01*
X423752380Y-125861904D01*
X423657142Y-125957142D01*
X423466666Y-126052380D01*
X422704761Y-126052380D01*
X424704761Y-126242857D02*
X426228571Y-126242857D01*
X426895238Y-125004761D02*
X428038095Y-125004761D01*
X427466666Y-127004761D02*
X427466666Y-125004761D01*
X361673190Y-62104761D02*
X361816047Y-62152380D01*
X362054142Y-62152380D01*
X362149380Y-62104761D01*
X362197000Y-62057142D01*
X362244619Y-61961904D01*
X362244619Y-61866666D01*
X362197000Y-61771428D01*
X362149380Y-61723809D01*
X362054142Y-61676190D01*
X361863666Y-61628571D01*
X361768428Y-61580952D01*
X361720809Y-61533333D01*
X361673190Y-61438095D01*
X361673190Y-61342857D01*
X361720809Y-61247619D01*
X361768428Y-61200000D01*
X361863666Y-61152380D01*
X362101761Y-61152380D01*
X362244619Y-61200000D01*
X362577952Y-61152380D02*
X362816047Y-62152380D01*
X363006523Y-61438095D01*
X363197000Y-62152380D01*
X363435095Y-61152380D01*
X364339857Y-62152380D02*
X363768428Y-62152380D01*
X364054142Y-62152380D02*
X364054142Y-61152380D01*
X363958904Y-61295238D01*
X363863666Y-61390476D01*
X363768428Y-61438095D01*
X364816047Y-62104761D02*
X364816047Y-62152380D01*
X364768428Y-62247619D01*
X364720809Y-62295238D01*
X365768428Y-62152380D02*
X365197000Y-62152380D01*
X365482714Y-62152380D02*
X365482714Y-61152380D01*
X365387476Y-61295238D01*
X365292238Y-61390476D01*
X365197000Y-61438095D01*
X366625571Y-61152380D02*
X366435095Y-61152380D01*
X366339857Y-61200000D01*
X366292238Y-61247619D01*
X366197000Y-61390476D01*
X366149380Y-61580952D01*
X366149380Y-61961904D01*
X366197000Y-62057142D01*
X366244619Y-62104761D01*
X366339857Y-62152380D01*
X366530333Y-62152380D01*
X366625571Y-62104761D01*
X366673190Y-62057142D01*
X366720809Y-61961904D01*
X366720809Y-61723809D01*
X366673190Y-61628571D01*
X366625571Y-61580952D01*
X366530333Y-61533333D01*
X366339857Y-61533333D01*
X366244619Y-61580952D01*
X366197000Y-61628571D01*
X366149380Y-61723809D01*
X49829761Y-73255619D02*
X49877380Y-73112761D01*
X49877380Y-72874666D01*
X49829761Y-72779428D01*
X49782142Y-72731809D01*
X49686904Y-72684190D01*
X49591666Y-72684190D01*
X49496428Y-72731809D01*
X49448809Y-72779428D01*
X49401190Y-72874666D01*
X49353571Y-73065142D01*
X49305952Y-73160380D01*
X49258333Y-73208000D01*
X49163095Y-73255619D01*
X49067857Y-73255619D01*
X48972619Y-73208000D01*
X48925000Y-73160380D01*
X48877380Y-73065142D01*
X48877380Y-72827047D01*
X48925000Y-72684190D01*
X48877380Y-72350857D02*
X49877380Y-72112761D01*
X49163095Y-71922285D01*
X49877380Y-71731809D01*
X48877380Y-71493714D01*
X49877380Y-70588952D02*
X49877380Y-71160380D01*
X49877380Y-70874666D02*
X48877380Y-70874666D01*
X49020238Y-70969904D01*
X49115476Y-71065142D01*
X49163095Y-71160380D01*
X49829761Y-70112761D02*
X49877380Y-70112761D01*
X49972619Y-70160380D01*
X50020238Y-70208000D01*
X49877380Y-69160380D02*
X49877380Y-69731809D01*
X49877380Y-69446095D02*
X48877380Y-69446095D01*
X49020238Y-69541333D01*
X49115476Y-69636571D01*
X49163095Y-69731809D01*
X31057142Y-59052380D02*
X31057142Y-58052380D01*
X31057142Y-58528571D02*
X31628571Y-58528571D01*
X31628571Y-59052380D02*
X31628571Y-58052380D01*
X32057142Y-58766666D02*
X32533333Y-58766666D01*
X31961904Y-59052380D02*
X32295238Y-58052380D01*
X32628571Y-59052380D01*
X32914285Y-58147619D02*
X32961904Y-58100000D01*
X33057142Y-58052380D01*
X33295238Y-58052380D01*
X33390476Y-58100000D01*
X33438095Y-58147619D01*
X33485714Y-58242857D01*
X33485714Y-58338095D01*
X33438095Y-58480952D01*
X32866666Y-59052380D01*
X33485714Y-59052380D01*
X34104761Y-58052380D02*
X34200000Y-58052380D01*
X34295238Y-58100000D01*
X34342857Y-58147619D01*
X34390476Y-58242857D01*
X34438095Y-58433333D01*
X34438095Y-58671428D01*
X34390476Y-58861904D01*
X34342857Y-58957142D01*
X34295238Y-59004761D01*
X34200000Y-59052380D01*
X34104761Y-59052380D01*
X34009523Y-59004761D01*
X33961904Y-58957142D01*
X33914285Y-58861904D01*
X33866666Y-58671428D01*
X33866666Y-58433333D01*
X33914285Y-58242857D01*
X33961904Y-58147619D01*
X34009523Y-58100000D01*
X34104761Y-58052380D01*
X35390476Y-59052380D02*
X34819047Y-59052380D01*
X35104761Y-59052380D02*
X35104761Y-58052380D01*
X35009523Y-58195238D01*
X34914285Y-58290476D01*
X34819047Y-58338095D01*
X96948630Y-64552380D02*
X96615297Y-64076190D01*
X96377202Y-64552380D02*
X96377202Y-63552380D01*
X96758154Y-63552380D01*
X96853392Y-63600000D01*
X96901011Y-63647619D01*
X96948630Y-63742857D01*
X96948630Y-63885714D01*
X96901011Y-63980952D01*
X96853392Y-64028571D01*
X96758154Y-64076190D01*
X96377202Y-64076190D01*
X97234345Y-63552380D02*
X97567678Y-64552380D01*
X97901011Y-63552380D01*
X98186726Y-63647619D02*
X98234345Y-63600000D01*
X98329583Y-63552380D01*
X98567678Y-63552380D01*
X98662916Y-63600000D01*
X98710535Y-63647619D01*
X98758154Y-63742857D01*
X98758154Y-63838095D01*
X98710535Y-63980952D01*
X98139107Y-64552380D01*
X98758154Y-64552380D01*
X99377202Y-63552380D02*
X99472440Y-63552380D01*
X99567678Y-63600000D01*
X99615297Y-63647619D01*
X99662916Y-63742857D01*
X99710535Y-63933333D01*
X99710535Y-64171428D01*
X99662916Y-64361904D01*
X99615297Y-64457142D01*
X99567678Y-64504761D01*
X99472440Y-64552380D01*
X99377202Y-64552380D01*
X99281964Y-64504761D01*
X99234345Y-64457142D01*
X99186726Y-64361904D01*
X99139107Y-64171428D01*
X99139107Y-63933333D01*
X99186726Y-63742857D01*
X99234345Y-63647619D01*
X99281964Y-63600000D01*
X99377202Y-63552380D01*
X100567678Y-63885714D02*
X100567678Y-64552380D01*
X100329583Y-63504761D02*
X100091488Y-64219047D01*
X100710535Y-64219047D01*
X325585714Y-179052380D02*
X325585714Y-178052380D01*
X325585714Y-178528571D02*
X326157142Y-178528571D01*
X326157142Y-179052380D02*
X326157142Y-178052380D01*
X326585714Y-178147619D02*
X326633333Y-178100000D01*
X326728571Y-178052380D01*
X326966666Y-178052380D01*
X327061904Y-178100000D01*
X327109523Y-178147619D01*
X327157142Y-178242857D01*
X327157142Y-178338095D01*
X327109523Y-178480952D01*
X326538095Y-179052380D01*
X327157142Y-179052380D01*
X327776190Y-178052380D02*
X327871428Y-178052380D01*
X327966666Y-178100000D01*
X328014285Y-178147619D01*
X328061904Y-178242857D01*
X328109523Y-178433333D01*
X328109523Y-178671428D01*
X328061904Y-178861904D01*
X328014285Y-178957142D01*
X327966666Y-179004761D01*
X327871428Y-179052380D01*
X327776190Y-179052380D01*
X327680952Y-179004761D01*
X327633333Y-178957142D01*
X327585714Y-178861904D01*
X327538095Y-178671428D01*
X327538095Y-178433333D01*
X327585714Y-178242857D01*
X327633333Y-178147619D01*
X327680952Y-178100000D01*
X327776190Y-178052380D01*
X329061904Y-179052380D02*
X328490476Y-179052380D01*
X328776190Y-179052380D02*
X328776190Y-178052380D01*
X328680952Y-178195238D01*
X328585714Y-178290476D01*
X328490476Y-178338095D01*
X458257142Y-221452380D02*
X458257142Y-220452380D01*
X458257142Y-220928571D02*
X458828571Y-220928571D01*
X458828571Y-221452380D02*
X458828571Y-220452380D01*
X459257142Y-221166666D02*
X459733333Y-221166666D01*
X459161904Y-221452380D02*
X459495238Y-220452380D01*
X459828571Y-221452380D01*
X460114285Y-220547619D02*
X460161904Y-220500000D01*
X460257142Y-220452380D01*
X460495238Y-220452380D01*
X460590476Y-220500000D01*
X460638095Y-220547619D01*
X460685714Y-220642857D01*
X460685714Y-220738095D01*
X460638095Y-220880952D01*
X460066666Y-221452380D01*
X460685714Y-221452380D01*
X461304761Y-220452380D02*
X461400000Y-220452380D01*
X461495238Y-220500000D01*
X461542857Y-220547619D01*
X461590476Y-220642857D01*
X461638095Y-220833333D01*
X461638095Y-221071428D01*
X461590476Y-221261904D01*
X461542857Y-221357142D01*
X461495238Y-221404761D01*
X461400000Y-221452380D01*
X461304761Y-221452380D01*
X461209523Y-221404761D01*
X461161904Y-221357142D01*
X461114285Y-221261904D01*
X461066666Y-221071428D01*
X461066666Y-220833333D01*
X461114285Y-220642857D01*
X461161904Y-220547619D01*
X461209523Y-220500000D01*
X461304761Y-220452380D01*
X462495238Y-220785714D02*
X462495238Y-221452380D01*
X462257142Y-220404761D02*
X462019047Y-221119047D01*
X462638095Y-221119047D01*
X231614285Y-59354761D02*
X231757142Y-59402380D01*
X231995238Y-59402380D01*
X232090476Y-59354761D01*
X232138095Y-59307142D01*
X232185714Y-59211904D01*
X232185714Y-59116666D01*
X232138095Y-59021428D01*
X232090476Y-58973809D01*
X231995238Y-58926190D01*
X231804761Y-58878571D01*
X231709523Y-58830952D01*
X231661904Y-58783333D01*
X231614285Y-58688095D01*
X231614285Y-58592857D01*
X231661904Y-58497619D01*
X231709523Y-58450000D01*
X231804761Y-58402380D01*
X232042857Y-58402380D01*
X232185714Y-58450000D01*
X232519047Y-58402380D02*
X232757142Y-59402380D01*
X232947619Y-58688095D01*
X233138095Y-59402380D01*
X233376190Y-58402380D01*
X233709523Y-58497619D02*
X233757142Y-58450000D01*
X233852380Y-58402380D01*
X234090476Y-58402380D01*
X234185714Y-58450000D01*
X234233333Y-58497619D01*
X234280952Y-58592857D01*
X234280952Y-58688095D01*
X234233333Y-58830952D01*
X233661904Y-59402380D01*
X234280952Y-59402380D01*
X234900000Y-58402380D02*
X234995238Y-58402380D01*
X235090476Y-58450000D01*
X235138095Y-58497619D01*
X235185714Y-58592857D01*
X235233333Y-58783333D01*
X235233333Y-59021428D01*
X235185714Y-59211904D01*
X235138095Y-59307142D01*
X235090476Y-59354761D01*
X234995238Y-59402380D01*
X234900000Y-59402380D01*
X234804761Y-59354761D01*
X234757142Y-59307142D01*
X234709523Y-59211904D01*
X234661904Y-59021428D01*
X234661904Y-58783333D01*
X234709523Y-58592857D01*
X234757142Y-58497619D01*
X234804761Y-58450000D01*
X234900000Y-58402380D01*
X235614285Y-58497619D02*
X235661904Y-58450000D01*
X235757142Y-58402380D01*
X235995238Y-58402380D01*
X236090476Y-58450000D01*
X236138095Y-58497619D01*
X236185714Y-58592857D01*
X236185714Y-58688095D01*
X236138095Y-58830952D01*
X235566666Y-59402380D01*
X236185714Y-59402380D01*
X229129071Y-71160000D02*
X229071928Y-71131428D01*
X228986214Y-71131428D01*
X228900500Y-71160000D01*
X228843357Y-71217142D01*
X228814785Y-71274285D01*
X228786214Y-71388571D01*
X228786214Y-71474285D01*
X228814785Y-71588571D01*
X228843357Y-71645714D01*
X228900500Y-71702857D01*
X228986214Y-71731428D01*
X229043357Y-71731428D01*
X229129071Y-71702857D01*
X229157642Y-71674285D01*
X229157642Y-71474285D01*
X229043357Y-71474285D01*
X229414785Y-71731428D02*
X229414785Y-71131428D01*
X229757642Y-71731428D01*
X229757642Y-71131428D01*
X230043357Y-71731428D02*
X230043357Y-71131428D01*
X230186214Y-71131428D01*
X230271928Y-71160000D01*
X230329071Y-71217142D01*
X230357642Y-71274285D01*
X230386214Y-71388571D01*
X230386214Y-71474285D01*
X230357642Y-71588571D01*
X230329071Y-71645714D01*
X230271928Y-71702857D01*
X230186214Y-71731428D01*
X230043357Y-71731428D01*
X237442357Y-76811428D02*
X237442357Y-76211428D01*
X237785214Y-76811428D01*
X237785214Y-76211428D01*
X238413785Y-76754285D02*
X238385214Y-76782857D01*
X238299500Y-76811428D01*
X238242357Y-76811428D01*
X238156642Y-76782857D01*
X238099500Y-76725714D01*
X238070928Y-76668571D01*
X238042357Y-76554285D01*
X238042357Y-76468571D01*
X238070928Y-76354285D01*
X238099500Y-76297142D01*
X238156642Y-76240000D01*
X238242357Y-76211428D01*
X238299500Y-76211428D01*
X238385214Y-76240000D01*
X238413785Y-76268571D01*
X229129071Y-73700000D02*
X229071928Y-73671428D01*
X228986214Y-73671428D01*
X228900500Y-73700000D01*
X228843357Y-73757142D01*
X228814785Y-73814285D01*
X228786214Y-73928571D01*
X228786214Y-74014285D01*
X228814785Y-74128571D01*
X228843357Y-74185714D01*
X228900500Y-74242857D01*
X228986214Y-74271428D01*
X229043357Y-74271428D01*
X229129071Y-74242857D01*
X229157642Y-74214285D01*
X229157642Y-74014285D01*
X229043357Y-74014285D01*
X229414785Y-74271428D02*
X229414785Y-73671428D01*
X229757642Y-74271428D01*
X229757642Y-73671428D01*
X230043357Y-74271428D02*
X230043357Y-73671428D01*
X230186214Y-73671428D01*
X230271928Y-73700000D01*
X230329071Y-73757142D01*
X230357642Y-73814285D01*
X230386214Y-73928571D01*
X230386214Y-74014285D01*
X230357642Y-74128571D01*
X230329071Y-74185714D01*
X230271928Y-74242857D01*
X230186214Y-74271428D01*
X230043357Y-74271428D01*
X228929071Y-68591428D02*
X229300500Y-68591428D01*
X229100500Y-68820000D01*
X229186214Y-68820000D01*
X229243357Y-68848571D01*
X229271928Y-68877142D01*
X229300500Y-68934285D01*
X229300500Y-69077142D01*
X229271928Y-69134285D01*
X229243357Y-69162857D01*
X229186214Y-69191428D01*
X229014785Y-69191428D01*
X228957642Y-69162857D01*
X228929071Y-69134285D01*
X229471928Y-68591428D02*
X229671928Y-69191428D01*
X229871928Y-68591428D01*
X230014785Y-68591428D02*
X230386214Y-68591428D01*
X230186214Y-68820000D01*
X230271928Y-68820000D01*
X230329071Y-68848571D01*
X230357642Y-68877142D01*
X230386214Y-68934285D01*
X230386214Y-69077142D01*
X230357642Y-69134285D01*
X230329071Y-69162857D01*
X230271928Y-69191428D01*
X230100500Y-69191428D01*
X230043357Y-69162857D01*
X230014785Y-69134285D01*
X237413785Y-74242857D02*
X237499500Y-74271428D01*
X237642357Y-74271428D01*
X237699500Y-74242857D01*
X237728071Y-74214285D01*
X237756642Y-74157142D01*
X237756642Y-74100000D01*
X237728071Y-74042857D01*
X237699500Y-74014285D01*
X237642357Y-73985714D01*
X237528071Y-73957142D01*
X237470928Y-73928571D01*
X237442357Y-73900000D01*
X237413785Y-73842857D01*
X237413785Y-73785714D01*
X237442357Y-73728571D01*
X237470928Y-73700000D01*
X237528071Y-73671428D01*
X237670928Y-73671428D01*
X237756642Y-73700000D01*
X237956642Y-73671428D02*
X238099500Y-74271428D01*
X238213785Y-73842857D01*
X238328071Y-74271428D01*
X238470928Y-73671428D01*
X238813785Y-73671428D02*
X238928071Y-73671428D01*
X238985214Y-73700000D01*
X239042357Y-73757142D01*
X239070928Y-73871428D01*
X239070928Y-74071428D01*
X239042357Y-74185714D01*
X238985214Y-74242857D01*
X238928071Y-74271428D01*
X238813785Y-74271428D01*
X238756642Y-74242857D01*
X238699500Y-74185714D01*
X238670928Y-74071428D01*
X238670928Y-73871428D01*
X238699500Y-73757142D01*
X238756642Y-73700000D01*
X238813785Y-73671428D01*
X229129071Y-78780000D02*
X229071928Y-78751428D01*
X228986214Y-78751428D01*
X228900500Y-78780000D01*
X228843357Y-78837142D01*
X228814785Y-78894285D01*
X228786214Y-79008571D01*
X228786214Y-79094285D01*
X228814785Y-79208571D01*
X228843357Y-79265714D01*
X228900500Y-79322857D01*
X228986214Y-79351428D01*
X229043357Y-79351428D01*
X229129071Y-79322857D01*
X229157642Y-79294285D01*
X229157642Y-79094285D01*
X229043357Y-79094285D01*
X229414785Y-79351428D02*
X229414785Y-78751428D01*
X229757642Y-79351428D01*
X229757642Y-78751428D01*
X230043357Y-79351428D02*
X230043357Y-78751428D01*
X230186214Y-78751428D01*
X230271928Y-78780000D01*
X230329071Y-78837142D01*
X230357642Y-78894285D01*
X230386214Y-79008571D01*
X230386214Y-79094285D01*
X230357642Y-79208571D01*
X230329071Y-79265714D01*
X230271928Y-79322857D01*
X230186214Y-79351428D01*
X230043357Y-79351428D01*
X229414785Y-76811428D02*
X229414785Y-76211428D01*
X229757642Y-76811428D01*
X229757642Y-76211428D01*
X230386214Y-76754285D02*
X230357642Y-76782857D01*
X230271928Y-76811428D01*
X230214785Y-76811428D01*
X230129071Y-76782857D01*
X230071928Y-76725714D01*
X230043357Y-76668571D01*
X230014785Y-76554285D01*
X230014785Y-76468571D01*
X230043357Y-76354285D01*
X230071928Y-76297142D01*
X230129071Y-76240000D01*
X230214785Y-76211428D01*
X230271928Y-76211428D01*
X230357642Y-76240000D01*
X230386214Y-76268571D01*
X237413785Y-71702857D02*
X237499500Y-71731428D01*
X237642357Y-71731428D01*
X237699500Y-71702857D01*
X237728071Y-71674285D01*
X237756642Y-71617142D01*
X237756642Y-71560000D01*
X237728071Y-71502857D01*
X237699500Y-71474285D01*
X237642357Y-71445714D01*
X237528071Y-71417142D01*
X237470928Y-71388571D01*
X237442357Y-71360000D01*
X237413785Y-71302857D01*
X237413785Y-71245714D01*
X237442357Y-71188571D01*
X237470928Y-71160000D01*
X237528071Y-71131428D01*
X237670928Y-71131428D01*
X237756642Y-71160000D01*
X237956642Y-71131428D02*
X238099500Y-71731428D01*
X238213785Y-71302857D01*
X238328071Y-71731428D01*
X238470928Y-71131428D01*
X239042357Y-71674285D02*
X239013785Y-71702857D01*
X238928071Y-71731428D01*
X238870928Y-71731428D01*
X238785214Y-71702857D01*
X238728071Y-71645714D01*
X238699500Y-71588571D01*
X238670928Y-71474285D01*
X238670928Y-71388571D01*
X238699500Y-71274285D01*
X238728071Y-71217142D01*
X238785214Y-71160000D01*
X238870928Y-71131428D01*
X238928071Y-71131428D01*
X239013785Y-71160000D01*
X239042357Y-71188571D01*
X239585214Y-71731428D02*
X239299500Y-71731428D01*
X239299500Y-71131428D01*
X239785214Y-71731428D02*
X239785214Y-71131428D01*
X240128071Y-71731428D02*
X239870928Y-71388571D01*
X240128071Y-71131428D02*
X239785214Y-71474285D01*
X237413785Y-69162857D02*
X237499500Y-69191428D01*
X237642357Y-69191428D01*
X237699500Y-69162857D01*
X237728071Y-69134285D01*
X237756642Y-69077142D01*
X237756642Y-69020000D01*
X237728071Y-68962857D01*
X237699500Y-68934285D01*
X237642357Y-68905714D01*
X237528071Y-68877142D01*
X237470928Y-68848571D01*
X237442357Y-68820000D01*
X237413785Y-68762857D01*
X237413785Y-68705714D01*
X237442357Y-68648571D01*
X237470928Y-68620000D01*
X237528071Y-68591428D01*
X237670928Y-68591428D01*
X237756642Y-68620000D01*
X237956642Y-68591428D02*
X238099500Y-69191428D01*
X238213785Y-68762857D01*
X238328071Y-69191428D01*
X238470928Y-68591428D01*
X238699500Y-69191428D02*
X238699500Y-68591428D01*
X238842357Y-68591428D01*
X238928071Y-68620000D01*
X238985214Y-68677142D01*
X239013785Y-68734285D01*
X239042357Y-68848571D01*
X239042357Y-68934285D01*
X239013785Y-69048571D01*
X238985214Y-69105714D01*
X238928071Y-69162857D01*
X238842357Y-69191428D01*
X238699500Y-69191428D01*
X239299500Y-69191428D02*
X239299500Y-68591428D01*
X239699500Y-68591428D02*
X239813785Y-68591428D01*
X239870928Y-68620000D01*
X239928071Y-68677142D01*
X239956642Y-68791428D01*
X239956642Y-68991428D01*
X239928071Y-69105714D01*
X239870928Y-69162857D01*
X239813785Y-69191428D01*
X239699500Y-69191428D01*
X239642357Y-69162857D01*
X239585214Y-69105714D01*
X239556642Y-68991428D01*
X239556642Y-68791428D01*
X239585214Y-68677142D01*
X239642357Y-68620000D01*
X239699500Y-68591428D01*
X237299500Y-78582000D02*
X237899500Y-78582000D01*
X237785214Y-79351428D02*
X237585214Y-79065714D01*
X237442357Y-79351428D02*
X237442357Y-78751428D01*
X237670928Y-78751428D01*
X237728071Y-78780000D01*
X237756642Y-78808571D01*
X237785214Y-78865714D01*
X237785214Y-78951428D01*
X237756642Y-79008571D01*
X237728071Y-79037142D01*
X237670928Y-79065714D01*
X237442357Y-79065714D01*
X237899500Y-78582000D02*
X238470928Y-78582000D01*
X238013785Y-79322857D02*
X238099500Y-79351428D01*
X238242357Y-79351428D01*
X238299500Y-79322857D01*
X238328071Y-79294285D01*
X238356642Y-79237142D01*
X238356642Y-79180000D01*
X238328071Y-79122857D01*
X238299500Y-79094285D01*
X238242357Y-79065714D01*
X238128071Y-79037142D01*
X238070928Y-79008571D01*
X238042357Y-78980000D01*
X238013785Y-78922857D01*
X238013785Y-78865714D01*
X238042357Y-78808571D01*
X238070928Y-78780000D01*
X238128071Y-78751428D01*
X238270928Y-78751428D01*
X238356642Y-78780000D01*
X238470928Y-78582000D02*
X238928071Y-78582000D01*
X238528071Y-78751428D02*
X238870928Y-78751428D01*
X238699500Y-79351428D02*
X238699500Y-78751428D01*
X31057142Y-220952380D02*
X31057142Y-219952380D01*
X31057142Y-220428571D02*
X31628571Y-220428571D01*
X31628571Y-220952380D02*
X31628571Y-219952380D01*
X32057142Y-220666666D02*
X32533333Y-220666666D01*
X31961904Y-220952380D02*
X32295238Y-219952380D01*
X32628571Y-220952380D01*
X32914285Y-220047619D02*
X32961904Y-220000000D01*
X33057142Y-219952380D01*
X33295238Y-219952380D01*
X33390476Y-220000000D01*
X33438095Y-220047619D01*
X33485714Y-220142857D01*
X33485714Y-220238095D01*
X33438095Y-220380952D01*
X32866666Y-220952380D01*
X33485714Y-220952380D01*
X34104761Y-219952380D02*
X34200000Y-219952380D01*
X34295238Y-220000000D01*
X34342857Y-220047619D01*
X34390476Y-220142857D01*
X34438095Y-220333333D01*
X34438095Y-220571428D01*
X34390476Y-220761904D01*
X34342857Y-220857142D01*
X34295238Y-220904761D01*
X34200000Y-220952380D01*
X34104761Y-220952380D01*
X34009523Y-220904761D01*
X33961904Y-220857142D01*
X33914285Y-220761904D01*
X33866666Y-220571428D01*
X33866666Y-220333333D01*
X33914285Y-220142857D01*
X33961904Y-220047619D01*
X34009523Y-220000000D01*
X34104761Y-219952380D01*
X34819047Y-220047619D02*
X34866666Y-220000000D01*
X34961904Y-219952380D01*
X35200000Y-219952380D01*
X35295238Y-220000000D01*
X35342857Y-220047619D01*
X35390476Y-220142857D01*
X35390476Y-220238095D01*
X35342857Y-220380952D01*
X34771428Y-220952380D01*
X35390476Y-220952380D01*
X278018880Y-64552380D02*
X277685547Y-64076190D01*
X277447452Y-64552380D02*
X277447452Y-63552380D01*
X277828404Y-63552380D01*
X277923642Y-63600000D01*
X277971261Y-63647619D01*
X278018880Y-63742857D01*
X278018880Y-63885714D01*
X277971261Y-63980952D01*
X277923642Y-64028571D01*
X277828404Y-64076190D01*
X277447452Y-64076190D01*
X278304595Y-63552380D02*
X278637928Y-64552380D01*
X278971261Y-63552380D01*
X279256976Y-63647619D02*
X279304595Y-63600000D01*
X279399833Y-63552380D01*
X279637928Y-63552380D01*
X279733166Y-63600000D01*
X279780785Y-63647619D01*
X279828404Y-63742857D01*
X279828404Y-63838095D01*
X279780785Y-63980952D01*
X279209357Y-64552380D01*
X279828404Y-64552380D01*
X280447452Y-63552380D02*
X280542690Y-63552380D01*
X280637928Y-63600000D01*
X280685547Y-63647619D01*
X280733166Y-63742857D01*
X280780785Y-63933333D01*
X280780785Y-64171428D01*
X280733166Y-64361904D01*
X280685547Y-64457142D01*
X280637928Y-64504761D01*
X280542690Y-64552380D01*
X280447452Y-64552380D01*
X280352214Y-64504761D01*
X280304595Y-64457142D01*
X280256976Y-64361904D01*
X280209357Y-64171428D01*
X280209357Y-63933333D01*
X280256976Y-63742857D01*
X280304595Y-63647619D01*
X280352214Y-63600000D01*
X280447452Y-63552380D01*
X281637928Y-63552380D02*
X281447452Y-63552380D01*
X281352214Y-63600000D01*
X281304595Y-63647619D01*
X281209357Y-63790476D01*
X281161738Y-63980952D01*
X281161738Y-64361904D01*
X281209357Y-64457142D01*
X281256976Y-64504761D01*
X281352214Y-64552380D01*
X281542690Y-64552380D01*
X281637928Y-64504761D01*
X281685547Y-64457142D01*
X281733166Y-64361904D01*
X281733166Y-64123809D01*
X281685547Y-64028571D01*
X281637928Y-63980952D01*
X281542690Y-63933333D01*
X281352214Y-63933333D01*
X281256976Y-63980952D01*
X281209357Y-64028571D01*
X281161738Y-64123809D01*
X187531380Y-64552380D02*
X187198047Y-64076190D01*
X186959952Y-64552380D02*
X186959952Y-63552380D01*
X187340904Y-63552380D01*
X187436142Y-63600000D01*
X187483761Y-63647619D01*
X187531380Y-63742857D01*
X187531380Y-63885714D01*
X187483761Y-63980952D01*
X187436142Y-64028571D01*
X187340904Y-64076190D01*
X186959952Y-64076190D01*
X187817095Y-63552380D02*
X188150428Y-64552380D01*
X188483761Y-63552380D01*
X188769476Y-63647619D02*
X188817095Y-63600000D01*
X188912333Y-63552380D01*
X189150428Y-63552380D01*
X189245666Y-63600000D01*
X189293285Y-63647619D01*
X189340904Y-63742857D01*
X189340904Y-63838095D01*
X189293285Y-63980952D01*
X188721857Y-64552380D01*
X189340904Y-64552380D01*
X189959952Y-63552380D02*
X190055190Y-63552380D01*
X190150428Y-63600000D01*
X190198047Y-63647619D01*
X190245666Y-63742857D01*
X190293285Y-63933333D01*
X190293285Y-64171428D01*
X190245666Y-64361904D01*
X190198047Y-64457142D01*
X190150428Y-64504761D01*
X190055190Y-64552380D01*
X189959952Y-64552380D01*
X189864714Y-64504761D01*
X189817095Y-64457142D01*
X189769476Y-64361904D01*
X189721857Y-64171428D01*
X189721857Y-63933333D01*
X189769476Y-63742857D01*
X189817095Y-63647619D01*
X189864714Y-63600000D01*
X189959952Y-63552380D01*
X191198047Y-63552380D02*
X190721857Y-63552380D01*
X190674238Y-64028571D01*
X190721857Y-63980952D01*
X190817095Y-63933333D01*
X191055190Y-63933333D01*
X191150428Y-63980952D01*
X191198047Y-64028571D01*
X191245666Y-64123809D01*
X191245666Y-64361904D01*
X191198047Y-64457142D01*
X191150428Y-64504761D01*
X191055190Y-64552380D01*
X190817095Y-64552380D01*
X190721857Y-64504761D01*
X190674238Y-64457142D01*
X458257142Y-62252380D02*
X458257142Y-61252380D01*
X458257142Y-61728571D02*
X458828571Y-61728571D01*
X458828571Y-62252380D02*
X458828571Y-61252380D01*
X459257142Y-61966666D02*
X459733333Y-61966666D01*
X459161904Y-62252380D02*
X459495238Y-61252380D01*
X459828571Y-62252380D01*
X460114285Y-61347619D02*
X460161904Y-61300000D01*
X460257142Y-61252380D01*
X460495238Y-61252380D01*
X460590476Y-61300000D01*
X460638095Y-61347619D01*
X460685714Y-61442857D01*
X460685714Y-61538095D01*
X460638095Y-61680952D01*
X460066666Y-62252380D01*
X460685714Y-62252380D01*
X461304761Y-61252380D02*
X461400000Y-61252380D01*
X461495238Y-61300000D01*
X461542857Y-61347619D01*
X461590476Y-61442857D01*
X461638095Y-61633333D01*
X461638095Y-61871428D01*
X461590476Y-62061904D01*
X461542857Y-62157142D01*
X461495238Y-62204761D01*
X461400000Y-62252380D01*
X461304761Y-62252380D01*
X461209523Y-62204761D01*
X461161904Y-62157142D01*
X461114285Y-62061904D01*
X461066666Y-61871428D01*
X461066666Y-61633333D01*
X461114285Y-61442857D01*
X461161904Y-61347619D01*
X461209523Y-61300000D01*
X461304761Y-61252380D01*
X461971428Y-61252380D02*
X462590476Y-61252380D01*
X462257142Y-61633333D01*
X462400000Y-61633333D01*
X462495238Y-61680952D01*
X462542857Y-61728571D01*
X462590476Y-61823809D01*
X462590476Y-62061904D01*
X462542857Y-62157142D01*
X462495238Y-62204761D01*
X462400000Y-62252380D01*
X462114285Y-62252380D01*
X462019047Y-62204761D01*
X461971428Y-62157142D01*
D12*
X362147000Y-65750000D02*
X362747000Y-65750000D01*
X376247000Y-74800000D02*
X376247000Y-76750000D01*
X362747000Y-65750000D02*
X362447000Y-66050000D01*
X367547000Y-62950000D02*
X363647000Y-62950000D01*
X376247000Y-76750000D02*
X372347000Y-76750000D01*
X362447000Y-66050000D02*
X362147000Y-65750000D01*
X367547000Y-76750000D02*
X363647000Y-76750000D01*
X376247000Y-62950000D02*
X376247000Y-64900000D01*
X363647000Y-62950000D02*
X363647000Y-76750000D01*
X372347000Y-62950000D02*
X376247000Y-62950000D01*
X369447000Y-69850000D02*
X370447000Y-69850000D01*
X369947000Y-69350000D02*
X369947000Y-70350000D01*
X372947000Y-69850000D02*
G75*
G03*
X372947000Y-69850000I-3000000J0D01*
G01*
X45075000Y-69458000D02*
X45375000Y-69158000D01*
X45375000Y-69158000D02*
X45375000Y-69758000D01*
X36325000Y-83258000D02*
X34375000Y-83258000D01*
X34375000Y-83258000D02*
X34375000Y-79358000D01*
X34375000Y-74558000D02*
X34375000Y-70658000D01*
X48175000Y-83258000D02*
X46225000Y-83258000D01*
X41775000Y-76958000D02*
X40775000Y-76958000D01*
X48175000Y-79358000D02*
X48175000Y-83258000D01*
X41275000Y-76458000D02*
X41275000Y-77458000D01*
X48175000Y-74558000D02*
X48175000Y-70658000D01*
X48175000Y-70658000D02*
X34375000Y-70658000D01*
X45375000Y-69758000D02*
X45075000Y-69458000D01*
X44275000Y-76958000D02*
G75*
G03*
X44275000Y-76958000I-3000000J0D01*
G01*
X69246250Y-69100000D02*
X68496250Y-69850000D01*
X60876250Y-74470000D02*
X64261250Y-74470000D01*
X136116250Y-65230000D02*
X136116250Y-67277000D01*
X60071250Y-68600000D02*
X60571250Y-68100000D01*
X128496250Y-69850000D02*
X127746250Y-70600000D01*
X132732250Y-74470000D02*
X136116250Y-74470000D01*
X131532250Y-65230000D02*
X136116250Y-65230000D01*
X68732250Y-65230000D02*
X128261250Y-65230000D01*
X67532250Y-74470000D02*
X129461250Y-74470000D01*
X128496250Y-68350000D02*
X128496250Y-71350000D01*
X127746250Y-69100000D02*
X128496250Y-69850000D01*
X60876250Y-65230000D02*
X65461250Y-65230000D01*
X136116250Y-68923000D02*
X136116250Y-74470000D01*
X60071250Y-67600000D02*
X60071250Y-68600000D01*
X60876250Y-69275000D02*
X60876250Y-70778000D01*
X60876250Y-65230000D02*
X60876250Y-66925000D01*
X68496250Y-69850000D02*
X69246250Y-70600000D01*
X60571250Y-68100000D02*
X60071250Y-67600000D01*
X68496250Y-68350000D02*
X68496250Y-71350000D01*
X68496250Y-69850000D02*
X128496250Y-69850000D01*
X60876250Y-72423000D02*
X60876250Y-74470000D01*
X230400000Y-62450000D02*
X230400000Y-63950000D01*
X237400000Y-63950000D02*
X237400000Y-62450000D01*
X231650000Y-66450000D02*
X236150000Y-66450000D01*
X236150000Y-59950000D02*
X231650000Y-59950000D01*
X236440000Y-72984000D02*
X236440000Y-75016000D01*
X231360000Y-77556000D02*
X231360000Y-75524000D01*
X236186000Y-77810000D02*
X236440000Y-78064000D01*
X236186000Y-72730000D02*
X236440000Y-72984000D01*
X236186000Y-70190000D02*
X236440000Y-70444000D01*
X236440000Y-80096000D02*
X236186000Y-80350000D01*
X231360000Y-69936000D02*
X231360000Y-67904000D01*
X236440000Y-69936000D02*
X236186000Y-70190000D01*
X236440000Y-78064000D02*
X236440000Y-80096000D01*
X236186000Y-70190000D02*
X236440000Y-70444000D01*
X236440000Y-72476000D02*
X236186000Y-72730000D01*
X231360000Y-75016000D02*
X231360000Y-72984000D01*
X231360000Y-72984000D02*
X231614000Y-72730000D01*
X236186000Y-75270000D02*
X236440000Y-75524000D01*
X236440000Y-67904000D02*
X236440000Y-69936000D01*
X236186000Y-80350000D02*
X234154000Y-80350000D01*
X236440000Y-75524000D02*
X236440000Y-77556000D01*
X236440000Y-75016000D02*
X236186000Y-75270000D01*
X231360000Y-70444000D02*
X231614000Y-70190000D01*
X234154000Y-67650000D02*
X236186000Y-67650000D01*
X231614000Y-72730000D02*
X231360000Y-72476000D01*
X231360000Y-67904000D02*
X231614000Y-67650000D01*
X236440000Y-70444000D02*
X236440000Y-72476000D01*
X231360000Y-67904000D02*
X231614000Y-67650000D01*
X233646000Y-67650000D02*
X231614000Y-67650000D01*
X231614000Y-75270000D02*
X231360000Y-75016000D01*
X231360000Y-75524000D02*
X231614000Y-75270000D01*
X234154000Y-80350000D02*
X233900000Y-80096000D01*
X236440000Y-77556000D02*
X236186000Y-77810000D01*
X233646000Y-80350000D02*
X233900000Y-80096000D01*
X231360000Y-78064000D02*
X231614000Y-77810000D01*
X233646000Y-80350000D02*
X231614000Y-80350000D01*
X231614000Y-80350000D02*
X231360000Y-80096000D01*
X233900000Y-67904000D02*
X233646000Y-67650000D01*
X236186000Y-67650000D02*
X236440000Y-67904000D01*
X234154000Y-67650000D02*
X233900000Y-67904000D01*
X231360000Y-80096000D02*
X231360000Y-78064000D01*
X231360000Y-72476000D02*
X231360000Y-70444000D01*
X231614000Y-70190000D02*
X231360000Y-69936000D01*
X231614000Y-77810000D02*
X231360000Y-77556000D01*
X317186500Y-68923000D02*
X317186500Y-74470000D01*
X312602500Y-65230000D02*
X317186500Y-65230000D01*
X241641500Y-68100000D02*
X241141500Y-67600000D01*
X313802500Y-74470000D02*
X317186500Y-74470000D01*
X241141500Y-67600000D02*
X241141500Y-68600000D01*
X309566500Y-68350000D02*
X309566500Y-71350000D01*
X249566500Y-69850000D02*
X309566500Y-69850000D01*
X309566500Y-69850000D02*
X308816500Y-70600000D01*
X241946500Y-74470000D02*
X245331500Y-74470000D01*
X248602500Y-74470000D02*
X310531500Y-74470000D01*
X241946500Y-65230000D02*
X246531500Y-65230000D01*
X249802500Y-65230000D02*
X309331500Y-65230000D01*
X241946500Y-65230000D02*
X241946500Y-66925000D01*
X249566500Y-69850000D02*
X250316500Y-70600000D01*
X241946500Y-69275000D02*
X241946500Y-70778000D01*
X249566500Y-68350000D02*
X249566500Y-71350000D01*
X308816500Y-69100000D02*
X309566500Y-69850000D01*
X317186500Y-65230000D02*
X317186500Y-67277000D01*
X250316500Y-69100000D02*
X249566500Y-69850000D01*
X241946500Y-72423000D02*
X241946500Y-74470000D01*
X241141500Y-68600000D02*
X241641500Y-68100000D01*
X219079000Y-69850000D02*
X218329000Y-70600000D01*
X150654000Y-67600000D02*
X150654000Y-68600000D01*
X223315000Y-74470000D02*
X226699000Y-74470000D01*
X218329000Y-69100000D02*
X219079000Y-69850000D01*
X151154000Y-68100000D02*
X150654000Y-67600000D01*
X158115000Y-74470000D02*
X220044000Y-74470000D01*
X159079000Y-69850000D02*
X159829000Y-70600000D01*
X219079000Y-68350000D02*
X219079000Y-71350000D01*
X222115000Y-65230000D02*
X226699000Y-65230000D01*
X226699000Y-68923000D02*
X226699000Y-74470000D01*
X151459000Y-72423000D02*
X151459000Y-74470000D01*
X159079000Y-68350000D02*
X159079000Y-71350000D01*
X151459000Y-65230000D02*
X151459000Y-66925000D01*
X151459000Y-65230000D02*
X156044000Y-65230000D01*
X159829000Y-69100000D02*
X159079000Y-69850000D01*
X159315000Y-65230000D02*
X218844000Y-65230000D01*
X159079000Y-69850000D02*
X219079000Y-69850000D01*
X226699000Y-65230000D02*
X226699000Y-67277000D01*
X151459000Y-74470000D02*
X154844000Y-74470000D01*
X151459000Y-69275000D02*
X151459000Y-70778000D01*
X150654000Y-68600000D02*
X151154000Y-68100000D01*
%LPC*%
D13*
X231737500Y-141590500D03*
X60287500Y-141605000D03*
X126800000Y-217800000D03*
X250787500Y-113015500D03*
X136487500Y-141590500D03*
X198500000Y-113250000D03*
X67399500Y-217790500D03*
X179540500Y-94092500D03*
X69850000Y-93980000D03*
D14*
X297730000Y-61200000D03*
D15*
X300270000Y-61200000D03*
D13*
X184112500Y-160640500D03*
X246088500Y-179690500D03*
X160490500Y-94092500D03*
D16*
X376947000Y-65850000D03*
D17*
X362447000Y-67350000D03*
D18*
X362447000Y-72350000D03*
D16*
X376947000Y-67850000D03*
D18*
X362447000Y-69850000D03*
D16*
X376947000Y-71850000D03*
D19*
X369947000Y-62250000D03*
X369947000Y-77450000D03*
D16*
X376947000Y-73850000D03*
X376947000Y-69850000D03*
D13*
X198500000Y-217800000D03*
X126962500Y-160640500D03*
X155537500Y-141590500D03*
X162776500Y-217790500D03*
X331813500Y-160640500D03*
X198463500Y-198740500D03*
X250787500Y-93965500D03*
X207988500Y-179690500D03*
X393662500Y-141590500D03*
X74638500Y-179690500D03*
X331813500Y-93965500D03*
X127000000Y-93980000D03*
X369913500Y-113015500D03*
X350863500Y-113015500D03*
X241262500Y-160640500D03*
X217650000Y-113250000D03*
X331813500Y-141717500D03*
X174587500Y-141590500D03*
X107912500Y-113015500D03*
X43650500Y-217790500D03*
X412712500Y-160767500D03*
X212687500Y-141590500D03*
D16*
X45275000Y-83958000D03*
D17*
X43775000Y-69458000D03*
D16*
X43275000Y-83958000D03*
D18*
X38775000Y-69458000D03*
X41275000Y-69458000D03*
D16*
X39275000Y-83958000D03*
D20*
X48875000Y-76958000D03*
X33675000Y-76958000D03*
D16*
X37275000Y-83958000D03*
X41275000Y-83958000D03*
D13*
X107912500Y-160640500D03*
X269837500Y-93965500D03*
X46063500Y-160640500D03*
X445430000Y-203430000D03*
X107950000Y-93980000D03*
X412712500Y-141590500D03*
X48349500Y-179690500D03*
X98387500Y-141605000D03*
X146012500Y-160640500D03*
D21*
X33000000Y-60000000D03*
D13*
X350863500Y-141717500D03*
X179286500Y-198740500D03*
X169761500Y-179690500D03*
X412810000Y-198820000D03*
X350780000Y-198820000D03*
X69812500Y-160640500D03*
X350863500Y-217917500D03*
X284188500Y-179690500D03*
D22*
X61746250Y-68100000D03*
D23*
X61746250Y-71600000D03*
X135246250Y-68100000D03*
D24*
X131096250Y-74050000D03*
X65896250Y-74050000D03*
X67096250Y-65650000D03*
X129896250Y-65650000D03*
D13*
X84163500Y-198740500D03*
X222212500Y-160640500D03*
X350863500Y-160640500D03*
D14*
X312730000Y-61200000D03*
D15*
X315270000Y-61200000D03*
D13*
X298412500Y-141590500D03*
X260312500Y-160640500D03*
X369913500Y-141717500D03*
X91275500Y-217790500D03*
X445590000Y-165430000D03*
X227038500Y-179690500D03*
X431762500Y-217917500D03*
X369913500Y-217917500D03*
D14*
X282730000Y-61200000D03*
D15*
X285270000Y-61200000D03*
D13*
X217640500Y-94092500D03*
X431762500Y-160767500D03*
X450812500Y-141590500D03*
X403225000Y-217805000D03*
D25*
X329156155Y-172343845D03*
X327300000Y-176825000D03*
X329925000Y-174200000D03*
X325443845Y-176056155D03*
X325443845Y-172343845D03*
X327300000Y-171575000D03*
X329156155Y-176056155D03*
X324675000Y-174200000D03*
D26*
X327300000Y-174200000D03*
D21*
X460500000Y-222500000D03*
D13*
X431762500Y-198740500D03*
X188811500Y-179690500D03*
X431762500Y-141590500D03*
X291300500Y-198740500D03*
D18*
X230650000Y-60950000D03*
X237150000Y-60950000D03*
X237150000Y-65450000D03*
X230650000Y-65450000D03*
D13*
X431762500Y-179817500D03*
X269837500Y-113015500D03*
X103213500Y-198740500D03*
X279350000Y-160550000D03*
X369913500Y-160640500D03*
X265138500Y-179690500D03*
X141186500Y-198740500D03*
X369913500Y-93965500D03*
D27*
X232693500Y-68920000D03*
D28*
X235233500Y-68920000D03*
X232566500Y-71460000D03*
X235106500Y-71460000D03*
X232693500Y-74000000D03*
X235233500Y-74000000D03*
X232566500Y-76540000D03*
X235106500Y-76540000D03*
X232693500Y-79080000D03*
X235233500Y-79080000D03*
D13*
X65113500Y-198740500D03*
X288887500Y-93965500D03*
X43650500Y-198740500D03*
X257937000Y-217790500D03*
X93688500Y-179690500D03*
D21*
X33000000Y-222500000D03*
D13*
X179450000Y-113250000D03*
X41237500Y-141605000D03*
X393760000Y-198820000D03*
X307937500Y-113015500D03*
X88862500Y-160640500D03*
X126962500Y-113015500D03*
X250787500Y-141590500D03*
X305562000Y-170673500D03*
X331813500Y-217917500D03*
X41275000Y-113030000D03*
X307937500Y-93965500D03*
X88900000Y-93980000D03*
X117437500Y-141590500D03*
X255660000Y-199040000D03*
X393662500Y-160767500D03*
X331813500Y-113015500D03*
X112738500Y-179690500D03*
X234150500Y-217790500D03*
X131661500Y-179690500D03*
X203162500Y-160640500D03*
X88862500Y-113015500D03*
X281686000Y-217790500D03*
X165062500Y-160640500D03*
D22*
X242816500Y-68100000D03*
D23*
X242816500Y-71600000D03*
X316316500Y-68100000D03*
D24*
X310966500Y-65650000D03*
X312166500Y-74050000D03*
X246966500Y-74050000D03*
X248166500Y-65650000D03*
D13*
X393662500Y-179817500D03*
X288887500Y-113015500D03*
X269875000Y-141605000D03*
X217513500Y-198740500D03*
X122136500Y-198740500D03*
X160400000Y-113250000D03*
X236563500Y-198740500D03*
X350863500Y-74915500D03*
X305524500Y-217790500D03*
X79337500Y-141605000D03*
X150711500Y-179690500D03*
D22*
X152329000Y-68100000D03*
D23*
X152329000Y-71600000D03*
X225829000Y-68100000D03*
D24*
X221679000Y-74050000D03*
X156479000Y-74050000D03*
X157679000Y-65650000D03*
X220479000Y-65650000D03*
D13*
X331813500Y-74915500D03*
X198590500Y-94092500D03*
X160236500Y-198740500D03*
X350863500Y-93965500D03*
D21*
X460500000Y-60000000D03*
D13*
X193637500Y-141590500D03*
X412712500Y-179817500D03*
X69812500Y-113015500D03*
D29*
X166020750Y-172116750D03*
D30*
X174910750Y-174656750D03*
D29*
X172370750Y-169576750D03*
D30*
X164750750Y-174656750D03*
D31*
X169830750Y-174656750D03*
X279368250Y-155606750D03*
D30*
X284448250Y-155606750D03*
D29*
X281908250Y-150526750D03*
D30*
X274288250Y-155606750D03*
D29*
X275558250Y-153066750D03*
X143795750Y-188626750D03*
D30*
X136175750Y-193706750D03*
D31*
X141255750Y-193706750D03*
D29*
X137445750Y-191166750D03*
D30*
X146335750Y-193706750D03*
D29*
X272383250Y-102901750D03*
D30*
X274923250Y-107981750D03*
D29*
X266033250Y-105441750D03*
D31*
X269843250Y-107981750D03*
D30*
X264763250Y-107981750D03*
D29*
X389858250Y-191198500D03*
D30*
X398748250Y-193738500D03*
D31*
X393668250Y-193738500D03*
D30*
X388588250Y-193738500D03*
D29*
X396208250Y-188658500D03*
D30*
X345725750Y-193738500D03*
D29*
X353345750Y-188658500D03*
D30*
X355885750Y-193738500D03*
D31*
X350805750Y-193738500D03*
D29*
X346995750Y-191198500D03*
D31*
X174593250Y-136556750D03*
D29*
X170783250Y-134016750D03*
X177133250Y-131476750D03*
D30*
X179673250Y-136556750D03*
X169513250Y-136556750D03*
D31*
X136493250Y-136556750D03*
D29*
X139033250Y-131476750D03*
D30*
X131413250Y-136556750D03*
X141573250Y-136556750D03*
D29*
X132683250Y-134016750D03*
X347027500Y-153035000D03*
X353377500Y-150495000D03*
D30*
X345757500Y-155575000D03*
D31*
X350837500Y-155575000D03*
D30*
X355917500Y-155575000D03*
D29*
X110458250Y-83851750D03*
D30*
X112998250Y-88931750D03*
X102838250Y-88931750D03*
D31*
X107918250Y-88931750D03*
D29*
X104108250Y-86391750D03*
X246983410Y-86391750D03*
D30*
X245713410Y-88931750D03*
X255873410Y-88931750D03*
D29*
X253333410Y-83851750D03*
D31*
X250793410Y-88931750D03*
D32*
X457803250Y-177101500D03*
D30*
X450818250Y-160083500D03*
D31*
X442563250Y-153225500D03*
D29*
X455898250Y-167703500D03*
X453358250Y-161353500D03*
D31*
X450818250Y-165163500D03*
D30*
X450818250Y-170243500D03*
D32*
X457803250Y-153225500D03*
D31*
X442563250Y-177101500D03*
D30*
X293973250Y-88931750D03*
D29*
X291433250Y-83851750D03*
X285083250Y-86391750D03*
D30*
X283813250Y-88931750D03*
D31*
X288893250Y-88931750D03*
X126970000Y-107980000D03*
D29*
X123160000Y-105440000D03*
X129510000Y-102900000D03*
D30*
X121890000Y-107980000D03*
X132050000Y-107980000D03*
D29*
X427958250Y-172148500D03*
D30*
X436848250Y-174688500D03*
X426688250Y-174688500D03*
D31*
X431768250Y-174688500D03*
D29*
X434308250Y-169608500D03*
X334327500Y-64770000D03*
D31*
X331787500Y-69850000D03*
D29*
X327977500Y-67310000D03*
D30*
X336867500Y-69850000D03*
X326707500Y-69850000D03*
D29*
X158083250Y-131476750D03*
X151733250Y-134016750D03*
D31*
X155543250Y-136556750D03*
D30*
X150463250Y-136556750D03*
X160623250Y-136556750D03*
D31*
X331787500Y-136525000D03*
D29*
X334327500Y-131445000D03*
D30*
X326707500Y-136525000D03*
X336867500Y-136525000D03*
D29*
X327977500Y-133985000D03*
D30*
X132048250Y-155606750D03*
D29*
X129508250Y-150526750D03*
D31*
X126968250Y-155606750D03*
D30*
X121888250Y-155606750D03*
D29*
X123158250Y-153066750D03*
D30*
X263017000Y-212756750D03*
D29*
X260477000Y-207676750D03*
D31*
X257937000Y-212756750D03*
D29*
X254127000Y-210216750D03*
D30*
X252857000Y-212756750D03*
D29*
X61245750Y-191166750D03*
X67595750Y-188626750D03*
D30*
X59975750Y-193706750D03*
D31*
X65055750Y-193706750D03*
D30*
X70135750Y-193706750D03*
D29*
X262858250Y-150526750D03*
X256508250Y-153066750D03*
D31*
X260318250Y-155606750D03*
D30*
X265398250Y-155606750D03*
X255238250Y-155606750D03*
D29*
X127920750Y-172116750D03*
X134270750Y-169576750D03*
D30*
X126650750Y-174656750D03*
X136810750Y-174656750D03*
D31*
X131730750Y-174656750D03*
X184118250Y-155606750D03*
D29*
X180308250Y-153066750D03*
D30*
X189198250Y-155606750D03*
X179038250Y-155606750D03*
D29*
X186658250Y-150526750D03*
D31*
X160305750Y-193706750D03*
D30*
X155225750Y-193706750D03*
D29*
X156495750Y-191166750D03*
D30*
X165385750Y-193706750D03*
D29*
X162845750Y-188626750D03*
D18*
X230250000Y-82450000D03*
X236750000Y-82450000D03*
X230250000Y-86950000D03*
X236750000Y-86950000D03*
D30*
X260635750Y-193706750D03*
D29*
X258095750Y-188626750D03*
D31*
X255555750Y-193706750D03*
D30*
X250475750Y-193706750D03*
D29*
X251745750Y-191166750D03*
X310483250Y-83851750D03*
D30*
X313023250Y-88931750D03*
D29*
X304133250Y-86391750D03*
D30*
X302863250Y-88931750D03*
D31*
X307943250Y-88931750D03*
D30*
X374967500Y-107950000D03*
D31*
X369887500Y-107950000D03*
D29*
X366077500Y-105410000D03*
D30*
X364807500Y-107950000D03*
D29*
X372427500Y-102870000D03*
D33*
X140620000Y-56046500D03*
X146400000Y-56046500D03*
D34*
X139210000Y-56597500D03*
D35*
X147810000Y-52397500D03*
X139210000Y-52397500D03*
D34*
X147810000Y-56597500D03*
D29*
X285083250Y-105441750D03*
X291433250Y-102901750D03*
D30*
X293973250Y-107981750D03*
D31*
X288893250Y-107981750D03*
D30*
X283813250Y-107981750D03*
D29*
X66008250Y-105441750D03*
D31*
X69818250Y-107981750D03*
D29*
X72358250Y-102901750D03*
D30*
X64738250Y-107981750D03*
X74898250Y-107981750D03*
D29*
X69977000Y-207676750D03*
X63627000Y-210216750D03*
D30*
X62357000Y-212756750D03*
X72517000Y-212756750D03*
D31*
X67437000Y-212756750D03*
D30*
X246348250Y-155606750D03*
D31*
X241268250Y-155606750D03*
D29*
X237458250Y-153066750D03*
X243808250Y-150526750D03*
D30*
X236188250Y-155606750D03*
D31*
X284130750Y-174656750D03*
D30*
X289210750Y-174656750D03*
D29*
X286670750Y-169576750D03*
X280320750Y-172116750D03*
D30*
X279050750Y-174656750D03*
D32*
X443833250Y-191325500D03*
D31*
X459073250Y-191325500D03*
D30*
X450818250Y-208343500D03*
D31*
X459073250Y-215201500D03*
D30*
X450818250Y-198183500D03*
D32*
X443833250Y-215201500D03*
D29*
X455898250Y-205803500D03*
X453358250Y-199453500D03*
D31*
X450818250Y-203263500D03*
D29*
X153320750Y-169576750D03*
D30*
X155860750Y-174656750D03*
D31*
X150780750Y-174656750D03*
D30*
X145700750Y-174656750D03*
D29*
X146970750Y-172116750D03*
D31*
X246030750Y-174656750D03*
D29*
X248570750Y-169576750D03*
D30*
X240950750Y-174656750D03*
X251110750Y-174656750D03*
D29*
X242220750Y-172116750D03*
D31*
X412718250Y-193738500D03*
D30*
X407638250Y-193738500D03*
D29*
X408908250Y-191198500D03*
X415258250Y-188658500D03*
D30*
X417798250Y-193738500D03*
D32*
X286480250Y-129571750D03*
D31*
X298418250Y-136556750D03*
X286480250Y-144811750D03*
D30*
X303498250Y-136556750D03*
X293338250Y-136556750D03*
D29*
X300958250Y-131476750D03*
D32*
X310356250Y-129571750D03*
D31*
X310356250Y-144811750D03*
D29*
X294608250Y-134016750D03*
D30*
X222631000Y-88931750D03*
D31*
X217551000Y-88931750D03*
D29*
X213741000Y-86391750D03*
X220091000Y-83851750D03*
D30*
X212471000Y-88931750D03*
X83788250Y-107981750D03*
D31*
X88868250Y-107981750D03*
D29*
X85058250Y-105441750D03*
D30*
X93948250Y-107981750D03*
D29*
X91408250Y-102901750D03*
X50927000Y-169576750D03*
D31*
X48387000Y-174656750D03*
D30*
X43307000Y-174656750D03*
X53467000Y-174656750D03*
D29*
X44577000Y-172116750D03*
X415258250Y-131508500D03*
X408908250Y-134048500D03*
D30*
X407638250Y-136588500D03*
X417798250Y-136588500D03*
D31*
X412718250Y-136588500D03*
X162687000Y-212756750D03*
D32*
X212725000Y-205771750D03*
D31*
X212725000Y-221011750D03*
D32*
X112649000Y-205771750D03*
D29*
X158877000Y-210216750D03*
D30*
X157607000Y-212756750D03*
D29*
X165227000Y-207676750D03*
D31*
X112649000Y-221011750D03*
D30*
X167767000Y-212756750D03*
D29*
X42195750Y-153066750D03*
D30*
X51085750Y-155606750D03*
D31*
X46005750Y-155606750D03*
D30*
X40925750Y-155606750D03*
D29*
X48545750Y-150526750D03*
D31*
X117443250Y-136556750D03*
D30*
X122523250Y-136556750D03*
D29*
X119983250Y-131476750D03*
X113633250Y-134016750D03*
D30*
X112363250Y-136556750D03*
X198088250Y-155606750D03*
X208248250Y-155606750D03*
D29*
X199358250Y-153066750D03*
D31*
X203168250Y-155606750D03*
D29*
X205708250Y-150526750D03*
X181991106Y-83851750D03*
D30*
X184531106Y-88931750D03*
X174371106Y-88931750D03*
D31*
X179451106Y-88931750D03*
D29*
X175641106Y-86391750D03*
D30*
X48704500Y-193706750D03*
D29*
X46164500Y-188626750D03*
D31*
X43624500Y-193706750D03*
D29*
X39814500Y-191166750D03*
D30*
X38544500Y-193706750D03*
D29*
X104108250Y-153066750D03*
D30*
X112998250Y-155606750D03*
D31*
X107918250Y-155606750D03*
D29*
X110458250Y-150526750D03*
D30*
X102838250Y-155606750D03*
X255873250Y-107981750D03*
D31*
X250793250Y-107981750D03*
D30*
X245713250Y-107981750D03*
D29*
X246983250Y-105441750D03*
X253333250Y-102901750D03*
D30*
X436848250Y-136588500D03*
D31*
X431768250Y-136588500D03*
D29*
X427958250Y-134048500D03*
D30*
X426688250Y-136588500D03*
D29*
X434308250Y-131508500D03*
D30*
X155321090Y-88931750D03*
X165481090Y-88931750D03*
D29*
X162941090Y-83851750D03*
D31*
X160401090Y-88931750D03*
D29*
X156591090Y-86391750D03*
D31*
X350837500Y-107950000D03*
D30*
X355917500Y-107950000D03*
D29*
X353377500Y-102870000D03*
D30*
X345757500Y-107950000D03*
D29*
X347027500Y-105410000D03*
D30*
X236823250Y-136556750D03*
D29*
X227933250Y-134016750D03*
X234283250Y-131476750D03*
D31*
X231743250Y-136556750D03*
D30*
X226663250Y-136556750D03*
D29*
X89820750Y-172116750D03*
D30*
X88550750Y-174656750D03*
X98710750Y-174656750D03*
D29*
X96170750Y-169576750D03*
D31*
X93630750Y-174656750D03*
D30*
X398748250Y-174688500D03*
D29*
X396208250Y-169608500D03*
D31*
X393668250Y-174688500D03*
D30*
X388588250Y-174688500D03*
D29*
X389858250Y-172148500D03*
X208883250Y-134016750D03*
D31*
X212693250Y-136556750D03*
D30*
X207613250Y-136556750D03*
X217773250Y-136556750D03*
D29*
X215233250Y-131476750D03*
D31*
X69818250Y-88931750D03*
D30*
X74898250Y-88931750D03*
X64738250Y-88931750D03*
D29*
X72358250Y-83851750D03*
X66008250Y-86391750D03*
D32*
X312547000Y-177069750D03*
D31*
X297307000Y-153193750D03*
X305562000Y-165131750D03*
D30*
X300482000Y-165131750D03*
D29*
X308102000Y-160051750D03*
X301752000Y-162591750D03*
D30*
X310642000Y-165131750D03*
D31*
X297307000Y-177069750D03*
D32*
X312547000Y-153193750D03*
D30*
X241585750Y-193706750D03*
D31*
X236505750Y-193706750D03*
D29*
X239045750Y-188626750D03*
D30*
X231425750Y-193706750D03*
D29*
X232695750Y-191166750D03*
D36*
X272600000Y-61200000D03*
D37*
X280220000Y-61200000D03*
D30*
X46323250Y-107981750D03*
D31*
X41243250Y-107981750D03*
D29*
X43783250Y-102901750D03*
D30*
X36163250Y-107981750D03*
D29*
X37433250Y-105441750D03*
D30*
X222535750Y-193706750D03*
D29*
X213645750Y-191166750D03*
X219995750Y-188626750D03*
D30*
X212375750Y-193706750D03*
D31*
X217455750Y-193706750D03*
D29*
X185065000Y-172135000D03*
D30*
X193955000Y-174675000D03*
X183795000Y-174675000D03*
D31*
X188875000Y-174675000D03*
D29*
X191415000Y-169595000D03*
D30*
X398748250Y-136588500D03*
D29*
X389858250Y-134048500D03*
X396208250Y-131508500D03*
D31*
X393668250Y-136588500D03*
D30*
X388588250Y-136588500D03*
D29*
X194691000Y-105441750D03*
X201041000Y-102901750D03*
D31*
X198501000Y-107981750D03*
D30*
X203581000Y-107981750D03*
X193421000Y-107981750D03*
X159988250Y-155606750D03*
D31*
X165068250Y-155606750D03*
D30*
X170148250Y-155606750D03*
D29*
X167608250Y-150526750D03*
X161258250Y-153066750D03*
D31*
X146018250Y-155606750D03*
D30*
X151098250Y-155606750D03*
D29*
X142208250Y-153066750D03*
X148558250Y-150526750D03*
D30*
X140938250Y-155606750D03*
X96329500Y-212756750D03*
D29*
X87439500Y-210216750D03*
D30*
X86169500Y-212756750D03*
D29*
X93789500Y-207676750D03*
D31*
X91249500Y-212756750D03*
D30*
X417798250Y-155638500D03*
D29*
X415258250Y-150558500D03*
X408908250Y-153098500D03*
D31*
X412718250Y-155638500D03*
D30*
X407638250Y-155638500D03*
D31*
X226980750Y-174656750D03*
D30*
X232060750Y-174656750D03*
X221900750Y-174656750D03*
D29*
X229520750Y-169576750D03*
X223170750Y-172116750D03*
D30*
X274923250Y-88931750D03*
X264763250Y-88931750D03*
D29*
X272383250Y-83851750D03*
X266033250Y-86391750D03*
D31*
X269843250Y-88931750D03*
D36*
X287600000Y-61200000D03*
D37*
X295220000Y-61200000D03*
D29*
X353377500Y-131445000D03*
D30*
X355917500Y-136525000D03*
D31*
X350837500Y-136525000D03*
D29*
X347027500Y-133985000D03*
D30*
X345757500Y-136525000D03*
D31*
X369887500Y-88900000D03*
D29*
X372427500Y-83820000D03*
X366077500Y-86360000D03*
D30*
X374967500Y-88900000D03*
X364807500Y-88900000D03*
X336867500Y-88900000D03*
D31*
X331787500Y-88900000D03*
D29*
X334327500Y-83820000D03*
X327977500Y-86360000D03*
D30*
X326707500Y-88900000D03*
X217138250Y-155606750D03*
D29*
X218408250Y-153066750D03*
D30*
X227298250Y-155606750D03*
D29*
X224758250Y-150526750D03*
D31*
X222218250Y-155606750D03*
X412718250Y-174688500D03*
D29*
X415258250Y-169608500D03*
X408908250Y-172148500D03*
D30*
X407638250Y-174688500D03*
X417798250Y-174688500D03*
D29*
X277939500Y-210216750D03*
D30*
X276669500Y-212756750D03*
D31*
X281749500Y-212756750D03*
D30*
X286829500Y-212756750D03*
D29*
X284289500Y-207676750D03*
X220091000Y-102901750D03*
X213741000Y-105441750D03*
D31*
X217551000Y-107981750D03*
D30*
X212471000Y-107981750D03*
X222631000Y-107981750D03*
X455898250Y-136588500D03*
X445738250Y-136588500D03*
D31*
X450818250Y-136588500D03*
D29*
X453358250Y-131508500D03*
X447008250Y-134048500D03*
D30*
X38544500Y-212756750D03*
D29*
X46164500Y-207676750D03*
D30*
X48704500Y-212756750D03*
D31*
X43624500Y-212756750D03*
D29*
X39814500Y-210216750D03*
D31*
X269843250Y-136556750D03*
D29*
X266033250Y-134016750D03*
D30*
X264763250Y-136556750D03*
X274923250Y-136556750D03*
D29*
X272383250Y-131476750D03*
D30*
X302863250Y-107981750D03*
D29*
X304133250Y-105441750D03*
D30*
X313023250Y-107981750D03*
D29*
X310483250Y-102901750D03*
D31*
X307943250Y-107981750D03*
D29*
X175641000Y-105441750D03*
D30*
X184531000Y-107981750D03*
D29*
X181991000Y-102901750D03*
D30*
X174371000Y-107981750D03*
D31*
X179451000Y-107981750D03*
D30*
X310642000Y-212756750D03*
D29*
X308102000Y-207676750D03*
X301752000Y-210216750D03*
D31*
X305562000Y-212756750D03*
D30*
X300482000Y-212756750D03*
D31*
X69818250Y-155606750D03*
D29*
X72358250Y-150526750D03*
X66008250Y-153066750D03*
D30*
X74898250Y-155606750D03*
X64738250Y-155606750D03*
D29*
X43783250Y-131476750D03*
D30*
X36163250Y-136556750D03*
D29*
X37433250Y-134016750D03*
D30*
X46323250Y-136556750D03*
D31*
X41243250Y-136556750D03*
D29*
X194595750Y-191166750D03*
D30*
X203485750Y-193706750D03*
D29*
X200945750Y-188626750D03*
D30*
X193325750Y-193706750D03*
D31*
X198405750Y-193706750D03*
D29*
X56483250Y-134016750D03*
D30*
X55213250Y-136556750D03*
D31*
X60293250Y-136556750D03*
D29*
X62833250Y-131476750D03*
D30*
X65373250Y-136556750D03*
X374935750Y-212788500D03*
D29*
X372395750Y-207708500D03*
X366045750Y-210248500D03*
D30*
X364775750Y-212788500D03*
D31*
X369855750Y-212788500D03*
D36*
X302600000Y-61200000D03*
D37*
X310220000Y-61200000D03*
D31*
X122205750Y-193706750D03*
D30*
X127285750Y-193706750D03*
D29*
X118395750Y-191166750D03*
D30*
X117125750Y-193706750D03*
D29*
X124745750Y-188626750D03*
D30*
X155321000Y-107981750D03*
D29*
X162941000Y-102901750D03*
D30*
X165481000Y-107981750D03*
D31*
X160401000Y-107981750D03*
D29*
X156591000Y-105441750D03*
D31*
X107918250Y-107981750D03*
D29*
X110458250Y-102901750D03*
X104108250Y-105441750D03*
D30*
X102838250Y-107981750D03*
X112998250Y-107981750D03*
X398748250Y-155638500D03*
D29*
X389858250Y-153098500D03*
D31*
X393668250Y-155638500D03*
D29*
X396208250Y-150558500D03*
D30*
X388588250Y-155638500D03*
X245713250Y-136556750D03*
D29*
X253333250Y-131476750D03*
D30*
X255873250Y-136556750D03*
D29*
X246983250Y-134016750D03*
D31*
X250793250Y-136556750D03*
D29*
X75533250Y-134016750D03*
D30*
X84423250Y-136556750D03*
D29*
X81883250Y-131476750D03*
D31*
X79343250Y-136556750D03*
D30*
X74263250Y-136556750D03*
X83788250Y-155606750D03*
X93948250Y-155606750D03*
D31*
X88868250Y-155606750D03*
D29*
X85058250Y-153066750D03*
X91408250Y-150526750D03*
D31*
X331755750Y-212788500D03*
D29*
X334295750Y-207708500D03*
D30*
X326675750Y-212788500D03*
X336835750Y-212788500D03*
D29*
X327945750Y-210248500D03*
D30*
X260000750Y-174656750D03*
D29*
X267620750Y-169576750D03*
D31*
X265080750Y-174656750D03*
D30*
X270160750Y-174656750D03*
D29*
X261270750Y-172116750D03*
D30*
X426688250Y-193738500D03*
D29*
X434308250Y-188658500D03*
D30*
X436848250Y-193738500D03*
D29*
X427958250Y-191198500D03*
D31*
X431768250Y-193738500D03*
D30*
X239204500Y-212756750D03*
D31*
X234124500Y-212756750D03*
D29*
X230314500Y-210216750D03*
D30*
X229044500Y-212756750D03*
D29*
X236664500Y-207676750D03*
D30*
X132048250Y-88931750D03*
X121888250Y-88931750D03*
D31*
X126968250Y-88931750D03*
D29*
X123158250Y-86391750D03*
X129508250Y-83851750D03*
D31*
X88868250Y-88931750D03*
D29*
X85058250Y-86391750D03*
X91408250Y-83851750D03*
D30*
X83788250Y-88931750D03*
X93948250Y-88931750D03*
X364807500Y-136525000D03*
D31*
X369887500Y-136525000D03*
D30*
X374967500Y-136525000D03*
D29*
X372427500Y-131445000D03*
X366077500Y-133985000D03*
X86645750Y-188626750D03*
D30*
X79025750Y-193706750D03*
X89185750Y-193706750D03*
D31*
X84105750Y-193706750D03*
D29*
X80295750Y-191166750D03*
D30*
X184435750Y-193706750D03*
D29*
X175545750Y-191166750D03*
D30*
X174275750Y-193706750D03*
D31*
X179355750Y-193706750D03*
D29*
X181895750Y-188626750D03*
X77120750Y-169576750D03*
X70770750Y-172116750D03*
D30*
X69500750Y-174656750D03*
D31*
X74580750Y-174656750D03*
D30*
X79660750Y-174656750D03*
D29*
X427958250Y-153098500D03*
D31*
X431768250Y-155638500D03*
D30*
X426688250Y-155638500D03*
X436848250Y-155638500D03*
D29*
X434308250Y-150558500D03*
D31*
X391255250Y-221043500D03*
D29*
X405733250Y-207708500D03*
D30*
X398113250Y-212788500D03*
D31*
X403193250Y-212788500D03*
D30*
X408273250Y-212788500D03*
D31*
X415131250Y-221043500D03*
D29*
X399383250Y-210248500D03*
D32*
X415131250Y-205803500D03*
X391255250Y-205803500D03*
D30*
X117760750Y-174656750D03*
D29*
X115220750Y-169576750D03*
D30*
X107600750Y-174656750D03*
D31*
X112680750Y-174656750D03*
D29*
X108870750Y-172116750D03*
X293814500Y-188626750D03*
D31*
X279336500Y-201961750D03*
D29*
X287464500Y-191166750D03*
D31*
X303212500Y-201961750D03*
D30*
X296354500Y-193706750D03*
D32*
X303212500Y-186721750D03*
D31*
X291274500Y-193706750D03*
D30*
X286194500Y-193706750D03*
D32*
X279336500Y-186721750D03*
D30*
X364807500Y-155575000D03*
D29*
X372427500Y-150495000D03*
D30*
X374967500Y-155575000D03*
D29*
X366077500Y-153035000D03*
D31*
X369887500Y-155575000D03*
X198501000Y-88931750D03*
D29*
X201041000Y-83851750D03*
D30*
X193421000Y-88931750D03*
X203581000Y-88931750D03*
D29*
X194691000Y-86391750D03*
X210470750Y-169576750D03*
D30*
X202850750Y-174656750D03*
D29*
X204120750Y-172116750D03*
D30*
X213010750Y-174656750D03*
D31*
X207930750Y-174656750D03*
X431768250Y-212788500D03*
D29*
X427958250Y-210248500D03*
X434308250Y-207708500D03*
D30*
X426688250Y-212788500D03*
X436848250Y-212788500D03*
D29*
X334327500Y-102870000D03*
X327977500Y-105410000D03*
D30*
X326707500Y-107950000D03*
X336867500Y-107950000D03*
D31*
X331787500Y-107950000D03*
D29*
X353345750Y-207708500D03*
D30*
X345725750Y-212788500D03*
D31*
X350805750Y-212788500D03*
D30*
X355885750Y-212788500D03*
D29*
X346995750Y-210248500D03*
D30*
X188563250Y-136556750D03*
D31*
X193643250Y-136556750D03*
D29*
X196183250Y-131476750D03*
D30*
X198723250Y-136556750D03*
D29*
X189833250Y-134016750D03*
D31*
X103155750Y-193706750D03*
D30*
X108235750Y-193706750D03*
D29*
X99345750Y-191166750D03*
X105695750Y-188626750D03*
D30*
X98075750Y-193706750D03*
D29*
X334327500Y-150495000D03*
D30*
X336867500Y-155575000D03*
D31*
X331787500Y-155575000D03*
D29*
X327977500Y-153035000D03*
D30*
X326707500Y-155575000D03*
X345757500Y-88900000D03*
X355917500Y-88900000D03*
D29*
X347027500Y-86360000D03*
X353377500Y-83820000D03*
D31*
X350837500Y-88900000D03*
D29*
X94583250Y-134016750D03*
D31*
X98393250Y-136556750D03*
D30*
X103473250Y-136556750D03*
D29*
X100933250Y-131476750D03*
D30*
X93313250Y-136556750D03*
D29*
X347027500Y-67310000D03*
D30*
X345757500Y-69850000D03*
D31*
X350837500Y-69850000D03*
D29*
X353377500Y-64770000D03*
D30*
X355917500Y-69850000D03*
D25*
X232400000Y-104450000D03*
X234050000Y-81700000D03*
X374540000Y-112310000D03*
X234000000Y-80500000D03*
X55800000Y-121200000D03*
X376160000Y-93550000D03*
X145500000Y-112200000D03*
X327352500Y-218717500D03*
X279530000Y-180540000D03*
X55400000Y-119800000D03*
X281200000Y-128700000D03*
X132700000Y-93200000D03*
X267410000Y-201080000D03*
X334210000Y-197090000D03*
X153247576Y-96270265D03*
X233350000Y-106900000D03*
X453500000Y-139700000D03*
X58100000Y-95800000D03*
X447830000Y-168410000D03*
X243600000Y-115200000D03*
X248400000Y-201720000D03*
X234100000Y-106050000D03*
X230850000Y-103601250D03*
X56900000Y-119000000D03*
X152250000Y-110300000D03*
X388900000Y-142400000D03*
X231805378Y-103694622D03*
X296300000Y-116800000D03*
X446480000Y-208830000D03*
X311350000Y-181100000D03*
X223750000Y-112450000D03*
X245872000Y-121666000D03*
X289180000Y-180850000D03*
X271526000Y-150368000D03*
X230000000Y-94250000D03*
X237750000Y-94150000D03*
X37350000Y-139730000D03*
X207264000Y-107188000D03*
X145800000Y-82900000D03*
X53400000Y-79300000D03*
X240210000Y-111580000D03*
X57400000Y-123900000D03*
X224800000Y-94250000D03*
X228440000Y-111580000D03*
X164330000Y-114930000D03*
X255100000Y-114660000D03*
X133400000Y-96140000D03*
X379020000Y-119470000D03*
X274260000Y-114650000D03*
X259588000Y-91059000D03*
X261874000Y-139065000D03*
X226441000Y-139827000D03*
X320548000Y-149733000D03*
X141100000Y-95000000D03*
X237750000Y-95100000D03*
X292890000Y-158740000D03*
X228440000Y-123370000D03*
X188214000Y-107188000D03*
X240210000Y-123370000D03*
X145550000Y-110150000D03*
X238125000Y-105410000D03*
X245450000Y-92850000D03*
X241400000Y-125600000D03*
X294890000Y-161740000D03*
X183500000Y-114940000D03*
X285496000Y-199263000D03*
X379300000Y-68400000D03*
X244250000Y-92850000D03*
X140589000Y-95885000D03*
X426590000Y-140630000D03*
X201820000Y-114920000D03*
X224028000Y-106871500D03*
X290890000Y-161740000D03*
X228150000Y-128350000D03*
X379020000Y-118020000D03*
X145800000Y-83900000D03*
X145700000Y-116032500D03*
X380050000Y-67500000D03*
X132710000Y-97830000D03*
X221790000Y-113910000D03*
X261590000Y-200070000D03*
X292820000Y-114710000D03*
X288200000Y-181700000D03*
D38*
X283845000Y-120777000D03*
D25*
X145846800Y-60114600D03*
X139039600Y-69697600D03*
X140970000Y-69697600D03*
X141147800Y-60121800D03*
X141147800Y-59221800D03*
X145846800Y-59214600D03*
X140004800Y-69697600D03*
X141935200Y-69697600D03*
X234800000Y-88250000D03*
X134200000Y-80300000D03*
X235244622Y-81494622D03*
X152400000Y-78000000D03*
X235100000Y-104400000D03*
X45200000Y-117000000D03*
X62900000Y-117800000D03*
X313308000Y-99315000D03*
X152400000Y-96800000D03*
X322072000Y-80670400D03*
X132080000Y-100076000D03*
X404773400Y-130658600D03*
X376450000Y-100190000D03*
X385826000Y-130810000D03*
X321208400Y-101574600D03*
X307300000Y-126800000D03*
X423823400Y-130658600D03*
X210179997Y-127691237D03*
X211530000Y-148480000D03*
X211569769Y-166497000D03*
X210246991Y-126693982D03*
X229980000Y-129440000D03*
X308170000Y-204610000D03*
X240770000Y-197040000D03*
X320860000Y-204400000D03*
X93218000Y-118950000D03*
X112800000Y-119150000D03*
X131350000Y-119350000D03*
X145650000Y-119400000D03*
X222821505Y-127405673D03*
X232300000Y-129476500D03*
X250012200Y-130581400D03*
X269824200Y-130059700D03*
X335300000Y-127200000D03*
X354400000Y-127500000D03*
X357593872Y-116923872D03*
X240100000Y-86600000D03*
X249300500Y-117775501D03*
X227803378Y-108396622D03*
X224026218Y-111273782D03*
X222977189Y-119650000D03*
X240400000Y-99600000D03*
X228900000Y-68100000D03*
X226478378Y-107071622D03*
X254310000Y-125720000D03*
X264475000Y-127665000D03*
X244200000Y-121800000D03*
X245900980Y-112000000D03*
X224945464Y-125250464D03*
X226500000Y-98699500D03*
D39*
X144400000Y-97727500D03*
X144400000Y-98900000D03*
X139400000Y-124200000D03*
X155030000Y-97690000D03*
D25*
X255300000Y-125720000D03*
D39*
X142200000Y-121400000D03*
D25*
X237340000Y-107900000D03*
X236300000Y-96150000D03*
X42545000Y-158115000D03*
X56300000Y-96750000D03*
X49047000Y-220447000D03*
X34925000Y-113411000D03*
X156200000Y-96200000D03*
X309245000Y-139700000D03*
X294132000Y-140843000D03*
X314680000Y-163470000D03*
X138900000Y-89500000D03*
X34925000Y-119126000D03*
X390000000Y-67500000D03*
X56311000Y-110440000D03*
X156960000Y-100540000D03*
X437460000Y-144540000D03*
X450320000Y-148130000D03*
X37592000Y-181483000D03*
X46880000Y-144540000D03*
X40738021Y-196161979D03*
X82600000Y-118800000D03*
X212850000Y-120039020D03*
X242500020Y-124968364D03*
X213850000Y-120039031D03*
X243200000Y-125800000D03*
X163050000Y-119639500D03*
X244200000Y-125600000D03*
X211650000Y-121900500D03*
X212368400Y-185548000D03*
X61200000Y-124300000D03*
X239522000Y-96266000D03*
X244602000Y-112014000D03*
X244856000Y-95758000D03*
X323596000Y-78994000D03*
M02*
