G04 #@! TF.GenerationSoftware,KiCad,Pcbnew,(6.0.0-rc1-458-g78ff9a857a)*
G04 #@! TF.CreationDate,2023-01-11T22:18:48+01:00*
G04 #@! TF.ProjectId,berlin,6265726c-696e-42e6-9b69-6361645f7063,0.7*
G04 #@! TF.SameCoordinates,Original*
G04 #@! TF.FileFunction,Legend,Top*
G04 #@! TF.FilePolarity,Positive*
%FSLAX46Y46*%
G04 Gerber Fmt 4.6, Leading zero omitted, Abs format (unit mm)*
G04 Created by KiCad (PCBNEW (6.0.0-rc1-458-g78ff9a857a)) date 2023-01-11 22:18:48*
%MOMM*%
%LPD*%
G01*
G04 APERTURE LIST*
G04 Aperture macros list*
%AMRoundRect*
0 Rectangle with rounded corners*
0 $1 Rounding radius*
0 $2 $3 $4 $5 $6 $7 $8 $9 X,Y pos of 4 corners*
0 Add a 4 corners polygon primitive as box body*
4,1,4,$2,$3,$4,$5,$6,$7,$8,$9,$2,$3,0*
0 Add four circle primitives for the rounded corners*
1,1,$1+$1,$2,$3*
1,1,$1+$1,$4,$5*
1,1,$1+$1,$6,$7*
1,1,$1+$1,$8,$9*
0 Add four rect primitives between the rounded corners*
20,1,$1+$1,$2,$3,$4,$5,0*
20,1,$1+$1,$4,$5,$6,$7,0*
20,1,$1+$1,$6,$7,$8,$9,0*
20,1,$1+$1,$8,$9,$2,$3,0*%
G04 Aperture macros list end*
%ADD10C,0.150000*%
%ADD11C,0.100000*%
%ADD12C,0.120000*%
%ADD13C,4.250000*%
%ADD14C,1.778000*%
%ADD15RoundRect,0.177800X-0.711200X-0.711200X0.711200X-0.711200X0.711200X0.711200X-0.711200X0.711200X0*%
%ADD16C,1.800000*%
%ADD17R,2.000000X2.000000*%
%ADD18C,2.000000*%
%ADD19R,4.000000X3.000000*%
%ADD20R,3.000000X4.000000*%
%ADD21C,1.596000*%
%ADD22R,1.750000X1.750000*%
%ADD23C,1.750000*%
%ADD24C,2.700000*%
%ADD25C,0.800000*%
%ADD26C,7.000000*%
%ADD27C,3.600000*%
%ADD28C,1.701800*%
%ADD29C,3.987800*%
%ADD30C,3.048000*%
%ADD31C,0.650000*%
%ADD32O,1.100000X2.200000*%
%ADD33O,1.300000X1.900000*%
%ADD34R,1.524000X1.524000*%
%ADD35O,1.524000X1.524000*%
%ADD36C,1.600000*%
%ADD37O,1.600000X1.600000*%
%ADD38C,1.000000*%
%ADD39C,1.200000*%
G04 APERTURE END LIST*
D10*
X386322619Y-103479761D02*
X386322619Y-101479761D01*
X387465476Y-103479761D01*
X387465476Y-101479761D01*
X388417857Y-103479761D02*
X388417857Y-101479761D01*
X388417857Y-102432142D02*
X389560714Y-102432142D01*
X389560714Y-103479761D02*
X389560714Y-101479761D01*
X390513095Y-103479761D02*
X390513095Y-101479761D01*
X390989285Y-101479761D01*
X391275000Y-101575000D01*
X391465476Y-101765476D01*
X391560714Y-101955952D01*
X391655952Y-102336904D01*
X391655952Y-102622619D01*
X391560714Y-103003571D01*
X391465476Y-103194047D01*
X391275000Y-103384523D01*
X390989285Y-103479761D01*
X390513095Y-103479761D01*
X392513095Y-102717857D02*
X394036904Y-102717857D01*
X394798809Y-101479761D02*
X396036904Y-101479761D01*
X395370238Y-102241666D01*
X395655952Y-102241666D01*
X395846428Y-102336904D01*
X395941666Y-102432142D01*
X396036904Y-102622619D01*
X396036904Y-103098809D01*
X395941666Y-103289285D01*
X395846428Y-103384523D01*
X395655952Y-103479761D01*
X395084523Y-103479761D01*
X394894047Y-103384523D01*
X394798809Y-103289285D01*
X396894047Y-103289285D02*
X396989285Y-103384523D01*
X396894047Y-103479761D01*
X396798809Y-103384523D01*
X396894047Y-103289285D01*
X396894047Y-103479761D01*
X398798809Y-101479761D02*
X397846428Y-101479761D01*
X397751190Y-102432142D01*
X397846428Y-102336904D01*
X398036904Y-102241666D01*
X398513095Y-102241666D01*
X398703571Y-102336904D01*
X398798809Y-102432142D01*
X398894047Y-102622619D01*
X398894047Y-103098809D01*
X398798809Y-103289285D01*
X398703571Y-103384523D01*
X398513095Y-103479761D01*
X398036904Y-103479761D01*
X397846428Y-103384523D01*
X397751190Y-103289285D01*
X399751190Y-102717857D02*
X401275000Y-102717857D01*
X402036904Y-101479761D02*
X403275000Y-101479761D01*
X402608333Y-102241666D01*
X402894047Y-102241666D01*
X403084523Y-102336904D01*
X403179761Y-102432142D01*
X403275000Y-102622619D01*
X403275000Y-103098809D01*
X403179761Y-103289285D01*
X403084523Y-103384523D01*
X402894047Y-103479761D01*
X402322619Y-103479761D01*
X402132142Y-103384523D01*
X402036904Y-103289285D01*
X404036904Y-101670238D02*
X404132142Y-101575000D01*
X404322619Y-101479761D01*
X404798809Y-101479761D01*
X404989285Y-101575000D01*
X405084523Y-101670238D01*
X405179761Y-101860714D01*
X405179761Y-102051190D01*
X405084523Y-102336904D01*
X403941666Y-103479761D01*
X405179761Y-103479761D01*
X406417857Y-101479761D02*
X406608333Y-101479761D01*
X406798809Y-101575000D01*
X406894047Y-101670238D01*
X406989285Y-101860714D01*
X407084523Y-102241666D01*
X407084523Y-102717857D01*
X406989285Y-103098809D01*
X406894047Y-103289285D01*
X406798809Y-103384523D01*
X406608333Y-103479761D01*
X406417857Y-103479761D01*
X406227380Y-103384523D01*
X406132142Y-103289285D01*
X406036904Y-103098809D01*
X405941666Y-102717857D01*
X405941666Y-102241666D01*
X406036904Y-101860714D01*
X406132142Y-101670238D01*
X406227380Y-101575000D01*
X406417857Y-101479761D01*
X407846428Y-101670238D02*
X407941666Y-101575000D01*
X408132142Y-101479761D01*
X408608333Y-101479761D01*
X408798809Y-101575000D01*
X408894047Y-101670238D01*
X408989285Y-101860714D01*
X408989285Y-102051190D01*
X408894047Y-102336904D01*
X407751190Y-103479761D01*
X408989285Y-103479761D01*
X410703571Y-102146428D02*
X410703571Y-103479761D01*
X410227380Y-101384523D02*
X409751190Y-102813095D01*
X410989285Y-102813095D01*
X412132142Y-101479761D02*
X412322619Y-101479761D01*
X412513095Y-101575000D01*
X412608333Y-101670238D01*
X412703571Y-101860714D01*
X412798809Y-102241666D01*
X412798809Y-102717857D01*
X412703571Y-103098809D01*
X412608333Y-103289285D01*
X412513095Y-103384523D01*
X412322619Y-103479761D01*
X412132142Y-103479761D01*
X411941666Y-103384523D01*
X411846428Y-103289285D01*
X411751190Y-103098809D01*
X411655952Y-102717857D01*
X411655952Y-102241666D01*
X411751190Y-101860714D01*
X411846428Y-101670238D01*
X411941666Y-101575000D01*
X412132142Y-101479761D01*
X414322619Y-102432142D02*
X413655952Y-102432142D01*
X413655952Y-103479761D02*
X413655952Y-101479761D01*
X414608333Y-101479761D01*
X415084523Y-101479761D02*
X416227380Y-101479761D01*
X415655952Y-103479761D02*
X415655952Y-101479761D01*
X416894047Y-102717857D02*
X418417857Y-102717857D01*
X420513095Y-103289285D02*
X420417857Y-103384523D01*
X420132142Y-103479761D01*
X419941666Y-103479761D01*
X419655952Y-103384523D01*
X419465476Y-103194047D01*
X419370238Y-103003571D01*
X419275000Y-102622619D01*
X419275000Y-102336904D01*
X419370238Y-101955952D01*
X419465476Y-101765476D01*
X419655952Y-101575000D01*
X419941666Y-101479761D01*
X420132142Y-101479761D01*
X420417857Y-101575000D01*
X420513095Y-101670238D01*
X421275000Y-103384523D02*
X421560714Y-103479761D01*
X422036904Y-103479761D01*
X422227380Y-103384523D01*
X422322619Y-103289285D01*
X422417857Y-103098809D01*
X422417857Y-102908333D01*
X422322619Y-102717857D01*
X422227380Y-102622619D01*
X422036904Y-102527380D01*
X421655952Y-102432142D01*
X421465476Y-102336904D01*
X421370238Y-102241666D01*
X421275000Y-102051190D01*
X421275000Y-101860714D01*
X421370238Y-101670238D01*
X421465476Y-101575000D01*
X421655952Y-101479761D01*
X422132142Y-101479761D01*
X422417857Y-101575000D01*
X423084523Y-101479761D02*
X424417857Y-103479761D01*
X424417857Y-101479761D02*
X423084523Y-103479761D01*
X425179761Y-103479761D02*
X425179761Y-101479761D01*
X425941666Y-101479761D01*
X426132142Y-101575000D01*
X426227380Y-101670238D01*
X426322619Y-101860714D01*
X426322619Y-102146428D01*
X426227380Y-102336904D01*
X426132142Y-102432142D01*
X425941666Y-102527380D01*
X425179761Y-102527380D01*
X427179761Y-102717857D02*
X428703571Y-102717857D01*
X429370238Y-101479761D02*
X430513095Y-101479761D01*
X429941666Y-103479761D02*
X429941666Y-101479761D01*
D11*
X394367857Y-77867857D02*
X394367857Y-78367857D01*
X395153571Y-78367857D02*
X393653571Y-78367857D01*
X393653571Y-77653571D01*
X394367857Y-76582142D02*
X394367857Y-77082142D01*
X395153571Y-77082142D02*
X393653571Y-77082142D01*
X393653571Y-76367857D01*
X395010714Y-74939285D02*
X395082142Y-75010714D01*
X395153571Y-75225000D01*
X395153571Y-75367857D01*
X395082142Y-75582142D01*
X394939285Y-75725000D01*
X394796428Y-75796428D01*
X394510714Y-75867857D01*
X394296428Y-75867857D01*
X394010714Y-75796428D01*
X393867857Y-75725000D01*
X393725000Y-75582142D01*
X393653571Y-75367857D01*
X393653571Y-75225000D01*
X393725000Y-75010714D01*
X393796428Y-74939285D01*
X395010714Y-72296428D02*
X395082142Y-72367857D01*
X395153571Y-72582142D01*
X395153571Y-72725000D01*
X395082142Y-72939285D01*
X394939285Y-73082142D01*
X394796428Y-73153571D01*
X394510714Y-73225000D01*
X394296428Y-73225000D01*
X394010714Y-73153571D01*
X393867857Y-73082142D01*
X393725000Y-72939285D01*
X393653571Y-72725000D01*
X393653571Y-72582142D01*
X393725000Y-72367857D01*
X393796428Y-72296428D01*
X395153571Y-71010714D02*
X394367857Y-71010714D01*
X394225000Y-71082142D01*
X394153571Y-71225000D01*
X394153571Y-71510714D01*
X394225000Y-71653571D01*
X395082142Y-71010714D02*
X395153571Y-71153571D01*
X395153571Y-71510714D01*
X395082142Y-71653571D01*
X394939285Y-71725000D01*
X394796428Y-71725000D01*
X394653571Y-71653571D01*
X394582142Y-71510714D01*
X394582142Y-71153571D01*
X394510714Y-71010714D01*
X395153571Y-70296428D02*
X393653571Y-70296428D01*
X394225000Y-70296428D02*
X394153571Y-70153571D01*
X394153571Y-69867857D01*
X394225000Y-69725000D01*
X394296428Y-69653571D01*
X394439285Y-69582142D01*
X394867857Y-69582142D01*
X395010714Y-69653571D01*
X395082142Y-69725000D01*
X395153571Y-69867857D01*
X395153571Y-70153571D01*
X395082142Y-70296428D01*
X395153571Y-68725000D02*
X395082142Y-68867857D01*
X394939285Y-68939285D01*
X393653571Y-68939285D01*
X395082142Y-67582142D02*
X395153571Y-67725000D01*
X395153571Y-68010714D01*
X395082142Y-68153571D01*
X394939285Y-68225000D01*
X394367857Y-68225000D01*
X394225000Y-68153571D01*
X394153571Y-68010714D01*
X394153571Y-67725000D01*
X394225000Y-67582142D01*
X394367857Y-67510714D01*
X394510714Y-67510714D01*
X394653571Y-68225000D01*
X395153571Y-65725000D02*
X394153571Y-65725000D01*
X394439285Y-65725000D02*
X394296428Y-65653571D01*
X394225000Y-65582142D01*
X394153571Y-65439285D01*
X394153571Y-65296428D01*
X395153571Y-64582142D02*
X395082142Y-64725000D01*
X395010714Y-64796428D01*
X394867857Y-64867857D01*
X394439285Y-64867857D01*
X394296428Y-64796428D01*
X394225000Y-64725000D01*
X394153571Y-64582142D01*
X394153571Y-64367857D01*
X394225000Y-64225000D01*
X394296428Y-64153571D01*
X394439285Y-64082142D01*
X394867857Y-64082142D01*
X395010714Y-64153571D01*
X395082142Y-64225000D01*
X395153571Y-64367857D01*
X395153571Y-64582142D01*
X394153571Y-62796428D02*
X395153571Y-62796428D01*
X394153571Y-63439285D02*
X394939285Y-63439285D01*
X395082142Y-63367857D01*
X395153571Y-63225000D01*
X395153571Y-63010714D01*
X395082142Y-62867857D01*
X395010714Y-62796428D01*
X394153571Y-62296428D02*
X394153571Y-61725000D01*
X393653571Y-62082142D02*
X394939285Y-62082142D01*
X395082142Y-62010714D01*
X395153571Y-61867857D01*
X395153571Y-61725000D01*
X395153571Y-61225000D02*
X394153571Y-61225000D01*
X393653571Y-61225000D02*
X393725000Y-61296428D01*
X393796428Y-61225000D01*
X393725000Y-61153571D01*
X393653571Y-61225000D01*
X393796428Y-61225000D01*
X394153571Y-60510714D02*
X395153571Y-60510714D01*
X394296428Y-60510714D02*
X394225000Y-60439285D01*
X394153571Y-60296428D01*
X394153571Y-60082142D01*
X394225000Y-59939285D01*
X394367857Y-59867857D01*
X395153571Y-59867857D01*
X394153571Y-58510714D02*
X395367857Y-58510714D01*
X395510714Y-58582142D01*
X395582142Y-58653571D01*
X395653571Y-58796428D01*
X395653571Y-59010714D01*
X395582142Y-59153571D01*
X395082142Y-58510714D02*
X395153571Y-58653571D01*
X395153571Y-58939285D01*
X395082142Y-59082142D01*
X395010714Y-59153571D01*
X394867857Y-59225000D01*
X394439285Y-59225000D01*
X394296428Y-59153571D01*
X394225000Y-59082142D01*
X394153571Y-58939285D01*
X394153571Y-58653571D01*
X394225000Y-58510714D01*
X395153571Y-56653571D02*
X393653571Y-56653571D01*
X395153571Y-56010714D02*
X394367857Y-56010714D01*
X394225000Y-56082142D01*
X394153571Y-56225000D01*
X394153571Y-56439285D01*
X394225000Y-56582142D01*
X394296428Y-56653571D01*
X395153571Y-55082142D02*
X395082142Y-55225000D01*
X395010714Y-55296428D01*
X394867857Y-55367857D01*
X394439285Y-55367857D01*
X394296428Y-55296428D01*
X394225000Y-55225000D01*
X394153571Y-55082142D01*
X394153571Y-54867857D01*
X394225000Y-54725000D01*
X394296428Y-54653571D01*
X394439285Y-54582142D01*
X394867857Y-54582142D01*
X395010714Y-54653571D01*
X395082142Y-54725000D01*
X395153571Y-54867857D01*
X395153571Y-55082142D01*
X395153571Y-53725000D02*
X395082142Y-53867857D01*
X394939285Y-53939285D01*
X393653571Y-53939285D01*
X395082142Y-52582142D02*
X395153571Y-52725000D01*
X395153571Y-53010714D01*
X395082142Y-53153571D01*
X394939285Y-53225000D01*
X394367857Y-53225000D01*
X394225000Y-53153571D01*
X394153571Y-53010714D01*
X394153571Y-52725000D01*
X394225000Y-52582142D01*
X394367857Y-52510714D01*
X394510714Y-52510714D01*
X394653571Y-53225000D01*
D10*
X364148190Y-38579761D02*
X364291047Y-38627380D01*
X364529142Y-38627380D01*
X364624380Y-38579761D01*
X364672000Y-38532142D01*
X364719619Y-38436904D01*
X364719619Y-38341666D01*
X364672000Y-38246428D01*
X364624380Y-38198809D01*
X364529142Y-38151190D01*
X364338666Y-38103571D01*
X364243428Y-38055952D01*
X364195809Y-38008333D01*
X364148190Y-37913095D01*
X364148190Y-37817857D01*
X364195809Y-37722619D01*
X364243428Y-37675000D01*
X364338666Y-37627380D01*
X364576761Y-37627380D01*
X364719619Y-37675000D01*
X365052952Y-37627380D02*
X365291047Y-38627380D01*
X365481523Y-37913095D01*
X365672000Y-38627380D01*
X365910095Y-37627380D01*
X366814857Y-38627380D02*
X366243428Y-38627380D01*
X366529142Y-38627380D02*
X366529142Y-37627380D01*
X366433904Y-37770238D01*
X366338666Y-37865476D01*
X366243428Y-37913095D01*
X367291047Y-38579761D02*
X367291047Y-38627380D01*
X367243428Y-38722619D01*
X367195809Y-38770238D01*
X368243428Y-38627380D02*
X367672000Y-38627380D01*
X367957714Y-38627380D02*
X367957714Y-37627380D01*
X367862476Y-37770238D01*
X367767238Y-37865476D01*
X367672000Y-37913095D01*
X369100571Y-37627380D02*
X368910095Y-37627380D01*
X368814857Y-37675000D01*
X368767238Y-37722619D01*
X368672000Y-37865476D01*
X368624380Y-38055952D01*
X368624380Y-38436904D01*
X368672000Y-38532142D01*
X368719619Y-38579761D01*
X368814857Y-38627380D01*
X369005333Y-38627380D01*
X369100571Y-38579761D01*
X369148190Y-38532142D01*
X369195809Y-38436904D01*
X369195809Y-38198809D01*
X369148190Y-38103571D01*
X369100571Y-38055952D01*
X369005333Y-38008333D01*
X368814857Y-38008333D01*
X368719619Y-38055952D01*
X368672000Y-38103571D01*
X368624380Y-38198809D01*
X52304761Y-49730619D02*
X52352380Y-49587761D01*
X52352380Y-49349666D01*
X52304761Y-49254428D01*
X52257142Y-49206809D01*
X52161904Y-49159190D01*
X52066666Y-49159190D01*
X51971428Y-49206809D01*
X51923809Y-49254428D01*
X51876190Y-49349666D01*
X51828571Y-49540142D01*
X51780952Y-49635380D01*
X51733333Y-49683000D01*
X51638095Y-49730619D01*
X51542857Y-49730619D01*
X51447619Y-49683000D01*
X51400000Y-49635380D01*
X51352380Y-49540142D01*
X51352380Y-49302047D01*
X51400000Y-49159190D01*
X51352380Y-48825857D02*
X52352380Y-48587761D01*
X51638095Y-48397285D01*
X52352380Y-48206809D01*
X51352380Y-47968714D01*
X52352380Y-47063952D02*
X52352380Y-47635380D01*
X52352380Y-47349666D02*
X51352380Y-47349666D01*
X51495238Y-47444904D01*
X51590476Y-47540142D01*
X51638095Y-47635380D01*
X52304761Y-46587761D02*
X52352380Y-46587761D01*
X52447619Y-46635380D01*
X52495238Y-46683000D01*
X52352380Y-45635380D02*
X52352380Y-46206809D01*
X52352380Y-45921095D02*
X51352380Y-45921095D01*
X51495238Y-46016333D01*
X51590476Y-46111571D01*
X51638095Y-46206809D01*
X33532142Y-35527380D02*
X33532142Y-34527380D01*
X33532142Y-35003571D02*
X34103571Y-35003571D01*
X34103571Y-35527380D02*
X34103571Y-34527380D01*
X34532142Y-35241666D02*
X35008333Y-35241666D01*
X34436904Y-35527380D02*
X34770238Y-34527380D01*
X35103571Y-35527380D01*
X35389285Y-34622619D02*
X35436904Y-34575000D01*
X35532142Y-34527380D01*
X35770238Y-34527380D01*
X35865476Y-34575000D01*
X35913095Y-34622619D01*
X35960714Y-34717857D01*
X35960714Y-34813095D01*
X35913095Y-34955952D01*
X35341666Y-35527380D01*
X35960714Y-35527380D01*
X36579761Y-34527380D02*
X36675000Y-34527380D01*
X36770238Y-34575000D01*
X36817857Y-34622619D01*
X36865476Y-34717857D01*
X36913095Y-34908333D01*
X36913095Y-35146428D01*
X36865476Y-35336904D01*
X36817857Y-35432142D01*
X36770238Y-35479761D01*
X36675000Y-35527380D01*
X36579761Y-35527380D01*
X36484523Y-35479761D01*
X36436904Y-35432142D01*
X36389285Y-35336904D01*
X36341666Y-35146428D01*
X36341666Y-34908333D01*
X36389285Y-34717857D01*
X36436904Y-34622619D01*
X36484523Y-34575000D01*
X36579761Y-34527380D01*
X37865476Y-35527380D02*
X37294047Y-35527380D01*
X37579761Y-35527380D02*
X37579761Y-34527380D01*
X37484523Y-34670238D01*
X37389285Y-34765476D01*
X37294047Y-34813095D01*
X99423630Y-41027380D02*
X99090297Y-40551190D01*
X98852202Y-41027380D02*
X98852202Y-40027380D01*
X99233154Y-40027380D01*
X99328392Y-40075000D01*
X99376011Y-40122619D01*
X99423630Y-40217857D01*
X99423630Y-40360714D01*
X99376011Y-40455952D01*
X99328392Y-40503571D01*
X99233154Y-40551190D01*
X98852202Y-40551190D01*
X99709345Y-40027380D02*
X100042678Y-41027380D01*
X100376011Y-40027380D01*
X100661726Y-40122619D02*
X100709345Y-40075000D01*
X100804583Y-40027380D01*
X101042678Y-40027380D01*
X101137916Y-40075000D01*
X101185535Y-40122619D01*
X101233154Y-40217857D01*
X101233154Y-40313095D01*
X101185535Y-40455952D01*
X100614107Y-41027380D01*
X101233154Y-41027380D01*
X101852202Y-40027380D02*
X101947440Y-40027380D01*
X102042678Y-40075000D01*
X102090297Y-40122619D01*
X102137916Y-40217857D01*
X102185535Y-40408333D01*
X102185535Y-40646428D01*
X102137916Y-40836904D01*
X102090297Y-40932142D01*
X102042678Y-40979761D01*
X101947440Y-41027380D01*
X101852202Y-41027380D01*
X101756964Y-40979761D01*
X101709345Y-40932142D01*
X101661726Y-40836904D01*
X101614107Y-40646428D01*
X101614107Y-40408333D01*
X101661726Y-40217857D01*
X101709345Y-40122619D01*
X101756964Y-40075000D01*
X101852202Y-40027380D01*
X103042678Y-40360714D02*
X103042678Y-41027380D01*
X102804583Y-39979761D02*
X102566488Y-40694047D01*
X103185535Y-40694047D01*
X328060714Y-155527380D02*
X328060714Y-154527380D01*
X328060714Y-155003571D02*
X328632142Y-155003571D01*
X328632142Y-155527380D02*
X328632142Y-154527380D01*
X329060714Y-154622619D02*
X329108333Y-154575000D01*
X329203571Y-154527380D01*
X329441666Y-154527380D01*
X329536904Y-154575000D01*
X329584523Y-154622619D01*
X329632142Y-154717857D01*
X329632142Y-154813095D01*
X329584523Y-154955952D01*
X329013095Y-155527380D01*
X329632142Y-155527380D01*
X330251190Y-154527380D02*
X330346428Y-154527380D01*
X330441666Y-154575000D01*
X330489285Y-154622619D01*
X330536904Y-154717857D01*
X330584523Y-154908333D01*
X330584523Y-155146428D01*
X330536904Y-155336904D01*
X330489285Y-155432142D01*
X330441666Y-155479761D01*
X330346428Y-155527380D01*
X330251190Y-155527380D01*
X330155952Y-155479761D01*
X330108333Y-155432142D01*
X330060714Y-155336904D01*
X330013095Y-155146428D01*
X330013095Y-154908333D01*
X330060714Y-154717857D01*
X330108333Y-154622619D01*
X330155952Y-154575000D01*
X330251190Y-154527380D01*
X331536904Y-155527380D02*
X330965476Y-155527380D01*
X331251190Y-155527380D02*
X331251190Y-154527380D01*
X331155952Y-154670238D01*
X331060714Y-154765476D01*
X330965476Y-154813095D01*
X460732142Y-197927380D02*
X460732142Y-196927380D01*
X460732142Y-197403571D02*
X461303571Y-197403571D01*
X461303571Y-197927380D02*
X461303571Y-196927380D01*
X461732142Y-197641666D02*
X462208333Y-197641666D01*
X461636904Y-197927380D02*
X461970238Y-196927380D01*
X462303571Y-197927380D01*
X462589285Y-197022619D02*
X462636904Y-196975000D01*
X462732142Y-196927380D01*
X462970238Y-196927380D01*
X463065476Y-196975000D01*
X463113095Y-197022619D01*
X463160714Y-197117857D01*
X463160714Y-197213095D01*
X463113095Y-197355952D01*
X462541666Y-197927380D01*
X463160714Y-197927380D01*
X463779761Y-196927380D02*
X463875000Y-196927380D01*
X463970238Y-196975000D01*
X464017857Y-197022619D01*
X464065476Y-197117857D01*
X464113095Y-197308333D01*
X464113095Y-197546428D01*
X464065476Y-197736904D01*
X464017857Y-197832142D01*
X463970238Y-197879761D01*
X463875000Y-197927380D01*
X463779761Y-197927380D01*
X463684523Y-197879761D01*
X463636904Y-197832142D01*
X463589285Y-197736904D01*
X463541666Y-197546428D01*
X463541666Y-197308333D01*
X463589285Y-197117857D01*
X463636904Y-197022619D01*
X463684523Y-196975000D01*
X463779761Y-196927380D01*
X464970238Y-197260714D02*
X464970238Y-197927380D01*
X464732142Y-196879761D02*
X464494047Y-197594047D01*
X465113095Y-197594047D01*
X234089285Y-35829761D02*
X234232142Y-35877380D01*
X234470238Y-35877380D01*
X234565476Y-35829761D01*
X234613095Y-35782142D01*
X234660714Y-35686904D01*
X234660714Y-35591666D01*
X234613095Y-35496428D01*
X234565476Y-35448809D01*
X234470238Y-35401190D01*
X234279761Y-35353571D01*
X234184523Y-35305952D01*
X234136904Y-35258333D01*
X234089285Y-35163095D01*
X234089285Y-35067857D01*
X234136904Y-34972619D01*
X234184523Y-34925000D01*
X234279761Y-34877380D01*
X234517857Y-34877380D01*
X234660714Y-34925000D01*
X234994047Y-34877380D02*
X235232142Y-35877380D01*
X235422619Y-35163095D01*
X235613095Y-35877380D01*
X235851190Y-34877380D01*
X236184523Y-34972619D02*
X236232142Y-34925000D01*
X236327380Y-34877380D01*
X236565476Y-34877380D01*
X236660714Y-34925000D01*
X236708333Y-34972619D01*
X236755952Y-35067857D01*
X236755952Y-35163095D01*
X236708333Y-35305952D01*
X236136904Y-35877380D01*
X236755952Y-35877380D01*
X237375000Y-34877380D02*
X237470238Y-34877380D01*
X237565476Y-34925000D01*
X237613095Y-34972619D01*
X237660714Y-35067857D01*
X237708333Y-35258333D01*
X237708333Y-35496428D01*
X237660714Y-35686904D01*
X237613095Y-35782142D01*
X237565476Y-35829761D01*
X237470238Y-35877380D01*
X237375000Y-35877380D01*
X237279761Y-35829761D01*
X237232142Y-35782142D01*
X237184523Y-35686904D01*
X237136904Y-35496428D01*
X237136904Y-35258333D01*
X237184523Y-35067857D01*
X237232142Y-34972619D01*
X237279761Y-34925000D01*
X237375000Y-34877380D01*
X238089285Y-34972619D02*
X238136904Y-34925000D01*
X238232142Y-34877380D01*
X238470238Y-34877380D01*
X238565476Y-34925000D01*
X238613095Y-34972619D01*
X238660714Y-35067857D01*
X238660714Y-35163095D01*
X238613095Y-35305952D01*
X238041666Y-35877380D01*
X238660714Y-35877380D01*
X33532142Y-197427380D02*
X33532142Y-196427380D01*
X33532142Y-196903571D02*
X34103571Y-196903571D01*
X34103571Y-197427380D02*
X34103571Y-196427380D01*
X34532142Y-197141666D02*
X35008333Y-197141666D01*
X34436904Y-197427380D02*
X34770238Y-196427380D01*
X35103571Y-197427380D01*
X35389285Y-196522619D02*
X35436904Y-196475000D01*
X35532142Y-196427380D01*
X35770238Y-196427380D01*
X35865476Y-196475000D01*
X35913095Y-196522619D01*
X35960714Y-196617857D01*
X35960714Y-196713095D01*
X35913095Y-196855952D01*
X35341666Y-197427380D01*
X35960714Y-197427380D01*
X36579761Y-196427380D02*
X36675000Y-196427380D01*
X36770238Y-196475000D01*
X36817857Y-196522619D01*
X36865476Y-196617857D01*
X36913095Y-196808333D01*
X36913095Y-197046428D01*
X36865476Y-197236904D01*
X36817857Y-197332142D01*
X36770238Y-197379761D01*
X36675000Y-197427380D01*
X36579761Y-197427380D01*
X36484523Y-197379761D01*
X36436904Y-197332142D01*
X36389285Y-197236904D01*
X36341666Y-197046428D01*
X36341666Y-196808333D01*
X36389285Y-196617857D01*
X36436904Y-196522619D01*
X36484523Y-196475000D01*
X36579761Y-196427380D01*
X37294047Y-196522619D02*
X37341666Y-196475000D01*
X37436904Y-196427380D01*
X37675000Y-196427380D01*
X37770238Y-196475000D01*
X37817857Y-196522619D01*
X37865476Y-196617857D01*
X37865476Y-196713095D01*
X37817857Y-196855952D01*
X37246428Y-197427380D01*
X37865476Y-197427380D01*
X280493880Y-41027380D02*
X280160547Y-40551190D01*
X279922452Y-41027380D02*
X279922452Y-40027380D01*
X280303404Y-40027380D01*
X280398642Y-40075000D01*
X280446261Y-40122619D01*
X280493880Y-40217857D01*
X280493880Y-40360714D01*
X280446261Y-40455952D01*
X280398642Y-40503571D01*
X280303404Y-40551190D01*
X279922452Y-40551190D01*
X280779595Y-40027380D02*
X281112928Y-41027380D01*
X281446261Y-40027380D01*
X281731976Y-40122619D02*
X281779595Y-40075000D01*
X281874833Y-40027380D01*
X282112928Y-40027380D01*
X282208166Y-40075000D01*
X282255785Y-40122619D01*
X282303404Y-40217857D01*
X282303404Y-40313095D01*
X282255785Y-40455952D01*
X281684357Y-41027380D01*
X282303404Y-41027380D01*
X282922452Y-40027380D02*
X283017690Y-40027380D01*
X283112928Y-40075000D01*
X283160547Y-40122619D01*
X283208166Y-40217857D01*
X283255785Y-40408333D01*
X283255785Y-40646428D01*
X283208166Y-40836904D01*
X283160547Y-40932142D01*
X283112928Y-40979761D01*
X283017690Y-41027380D01*
X282922452Y-41027380D01*
X282827214Y-40979761D01*
X282779595Y-40932142D01*
X282731976Y-40836904D01*
X282684357Y-40646428D01*
X282684357Y-40408333D01*
X282731976Y-40217857D01*
X282779595Y-40122619D01*
X282827214Y-40075000D01*
X282922452Y-40027380D01*
X284112928Y-40027380D02*
X283922452Y-40027380D01*
X283827214Y-40075000D01*
X283779595Y-40122619D01*
X283684357Y-40265476D01*
X283636738Y-40455952D01*
X283636738Y-40836904D01*
X283684357Y-40932142D01*
X283731976Y-40979761D01*
X283827214Y-41027380D01*
X284017690Y-41027380D01*
X284112928Y-40979761D01*
X284160547Y-40932142D01*
X284208166Y-40836904D01*
X284208166Y-40598809D01*
X284160547Y-40503571D01*
X284112928Y-40455952D01*
X284017690Y-40408333D01*
X283827214Y-40408333D01*
X283731976Y-40455952D01*
X283684357Y-40503571D01*
X283636738Y-40598809D01*
X190006380Y-41027380D02*
X189673047Y-40551190D01*
X189434952Y-41027380D02*
X189434952Y-40027380D01*
X189815904Y-40027380D01*
X189911142Y-40075000D01*
X189958761Y-40122619D01*
X190006380Y-40217857D01*
X190006380Y-40360714D01*
X189958761Y-40455952D01*
X189911142Y-40503571D01*
X189815904Y-40551190D01*
X189434952Y-40551190D01*
X190292095Y-40027380D02*
X190625428Y-41027380D01*
X190958761Y-40027380D01*
X191244476Y-40122619D02*
X191292095Y-40075000D01*
X191387333Y-40027380D01*
X191625428Y-40027380D01*
X191720666Y-40075000D01*
X191768285Y-40122619D01*
X191815904Y-40217857D01*
X191815904Y-40313095D01*
X191768285Y-40455952D01*
X191196857Y-41027380D01*
X191815904Y-41027380D01*
X192434952Y-40027380D02*
X192530190Y-40027380D01*
X192625428Y-40075000D01*
X192673047Y-40122619D01*
X192720666Y-40217857D01*
X192768285Y-40408333D01*
X192768285Y-40646428D01*
X192720666Y-40836904D01*
X192673047Y-40932142D01*
X192625428Y-40979761D01*
X192530190Y-41027380D01*
X192434952Y-41027380D01*
X192339714Y-40979761D01*
X192292095Y-40932142D01*
X192244476Y-40836904D01*
X192196857Y-40646428D01*
X192196857Y-40408333D01*
X192244476Y-40217857D01*
X192292095Y-40122619D01*
X192339714Y-40075000D01*
X192434952Y-40027380D01*
X193673047Y-40027380D02*
X193196857Y-40027380D01*
X193149238Y-40503571D01*
X193196857Y-40455952D01*
X193292095Y-40408333D01*
X193530190Y-40408333D01*
X193625428Y-40455952D01*
X193673047Y-40503571D01*
X193720666Y-40598809D01*
X193720666Y-40836904D01*
X193673047Y-40932142D01*
X193625428Y-40979761D01*
X193530190Y-41027380D01*
X193292095Y-41027380D01*
X193196857Y-40979761D01*
X193149238Y-40932142D01*
X460732142Y-38727380D02*
X460732142Y-37727380D01*
X460732142Y-38203571D02*
X461303571Y-38203571D01*
X461303571Y-38727380D02*
X461303571Y-37727380D01*
X461732142Y-38441666D02*
X462208333Y-38441666D01*
X461636904Y-38727380D02*
X461970238Y-37727380D01*
X462303571Y-38727380D01*
X462589285Y-37822619D02*
X462636904Y-37775000D01*
X462732142Y-37727380D01*
X462970238Y-37727380D01*
X463065476Y-37775000D01*
X463113095Y-37822619D01*
X463160714Y-37917857D01*
X463160714Y-38013095D01*
X463113095Y-38155952D01*
X462541666Y-38727380D01*
X463160714Y-38727380D01*
X463779761Y-37727380D02*
X463875000Y-37727380D01*
X463970238Y-37775000D01*
X464017857Y-37822619D01*
X464065476Y-37917857D01*
X464113095Y-38108333D01*
X464113095Y-38346428D01*
X464065476Y-38536904D01*
X464017857Y-38632142D01*
X463970238Y-38679761D01*
X463875000Y-38727380D01*
X463779761Y-38727380D01*
X463684523Y-38679761D01*
X463636904Y-38632142D01*
X463589285Y-38536904D01*
X463541666Y-38346428D01*
X463541666Y-38108333D01*
X463589285Y-37917857D01*
X463636904Y-37822619D01*
X463684523Y-37775000D01*
X463779761Y-37727380D01*
X464446428Y-37727380D02*
X465065476Y-37727380D01*
X464732142Y-38108333D01*
X464875000Y-38108333D01*
X464970238Y-38155952D01*
X465017857Y-38203571D01*
X465065476Y-38298809D01*
X465065476Y-38536904D01*
X465017857Y-38632142D01*
X464970238Y-38679761D01*
X464875000Y-38727380D01*
X464589285Y-38727380D01*
X464494047Y-38679761D01*
X464446428Y-38632142D01*
X229581071Y-47785600D02*
X229523928Y-47757028D01*
X229438214Y-47757028D01*
X229352500Y-47785600D01*
X229295357Y-47842742D01*
X229266785Y-47899885D01*
X229238214Y-48014171D01*
X229238214Y-48099885D01*
X229266785Y-48214171D01*
X229295357Y-48271314D01*
X229352500Y-48328457D01*
X229438214Y-48357028D01*
X229495357Y-48357028D01*
X229581071Y-48328457D01*
X229609642Y-48299885D01*
X229609642Y-48099885D01*
X229495357Y-48099885D01*
X229866785Y-48357028D02*
X229866785Y-47757028D01*
X230209642Y-48357028D01*
X230209642Y-47757028D01*
X230495357Y-48357028D02*
X230495357Y-47757028D01*
X230638214Y-47757028D01*
X230723928Y-47785600D01*
X230781071Y-47842742D01*
X230809642Y-47899885D01*
X230838214Y-48014171D01*
X230838214Y-48099885D01*
X230809642Y-48214171D01*
X230781071Y-48271314D01*
X230723928Y-48328457D01*
X230638214Y-48357028D01*
X230495357Y-48357028D01*
X241561785Y-45703457D02*
X241647500Y-45732028D01*
X241790357Y-45732028D01*
X241847500Y-45703457D01*
X241876071Y-45674885D01*
X241904642Y-45617742D01*
X241904642Y-45560600D01*
X241876071Y-45503457D01*
X241847500Y-45474885D01*
X241790357Y-45446314D01*
X241676071Y-45417742D01*
X241618928Y-45389171D01*
X241590357Y-45360600D01*
X241561785Y-45303457D01*
X241561785Y-45246314D01*
X241590357Y-45189171D01*
X241618928Y-45160600D01*
X241676071Y-45132028D01*
X241818928Y-45132028D01*
X241904642Y-45160600D01*
X242104642Y-45132028D02*
X242247500Y-45732028D01*
X242361785Y-45303457D01*
X242476071Y-45732028D01*
X242618928Y-45132028D01*
X242847500Y-45732028D02*
X242847500Y-45132028D01*
X242990357Y-45132028D01*
X243076071Y-45160600D01*
X243133214Y-45217742D01*
X243161785Y-45274885D01*
X243190357Y-45389171D01*
X243190357Y-45474885D01*
X243161785Y-45589171D01*
X243133214Y-45646314D01*
X243076071Y-45703457D01*
X242990357Y-45732028D01*
X242847500Y-45732028D01*
X243447500Y-45732028D02*
X243447500Y-45132028D01*
X243847500Y-45132028D02*
X243961785Y-45132028D01*
X244018928Y-45160600D01*
X244076071Y-45217742D01*
X244104642Y-45332028D01*
X244104642Y-45532028D01*
X244076071Y-45646314D01*
X244018928Y-45703457D01*
X243961785Y-45732028D01*
X243847500Y-45732028D01*
X243790357Y-45703457D01*
X243733214Y-45646314D01*
X243704642Y-45532028D01*
X243704642Y-45332028D01*
X243733214Y-45217742D01*
X243790357Y-45160600D01*
X243847500Y-45132028D01*
X229260071Y-45217028D02*
X229631500Y-45217028D01*
X229431500Y-45445600D01*
X229517214Y-45445600D01*
X229574357Y-45474171D01*
X229602928Y-45502742D01*
X229631500Y-45559885D01*
X229631500Y-45702742D01*
X229602928Y-45759885D01*
X229574357Y-45788457D01*
X229517214Y-45817028D01*
X229345785Y-45817028D01*
X229288642Y-45788457D01*
X229260071Y-45759885D01*
X229802928Y-45217028D02*
X230002928Y-45817028D01*
X230202928Y-45217028D01*
X230345785Y-45217028D02*
X230717214Y-45217028D01*
X230517214Y-45445600D01*
X230602928Y-45445600D01*
X230660071Y-45474171D01*
X230688642Y-45502742D01*
X230717214Y-45559885D01*
X230717214Y-45702742D01*
X230688642Y-45759885D01*
X230660071Y-45788457D01*
X230602928Y-45817028D01*
X230431500Y-45817028D01*
X230374357Y-45788457D01*
X230345785Y-45759885D01*
X229495785Y-53437028D02*
X229495785Y-52837028D01*
X229838642Y-53437028D01*
X229838642Y-52837028D01*
X230467214Y-53379885D02*
X230438642Y-53408457D01*
X230352928Y-53437028D01*
X230295785Y-53437028D01*
X230210071Y-53408457D01*
X230152928Y-53351314D01*
X230124357Y-53294171D01*
X230095785Y-53179885D01*
X230095785Y-53094171D01*
X230124357Y-52979885D01*
X230152928Y-52922742D01*
X230210071Y-52865600D01*
X230295785Y-52837028D01*
X230352928Y-52837028D01*
X230438642Y-52865600D01*
X230467214Y-52894171D01*
X241461785Y-48203457D02*
X241547500Y-48232028D01*
X241690357Y-48232028D01*
X241747500Y-48203457D01*
X241776071Y-48174885D01*
X241804642Y-48117742D01*
X241804642Y-48060600D01*
X241776071Y-48003457D01*
X241747500Y-47974885D01*
X241690357Y-47946314D01*
X241576071Y-47917742D01*
X241518928Y-47889171D01*
X241490357Y-47860600D01*
X241461785Y-47803457D01*
X241461785Y-47746314D01*
X241490357Y-47689171D01*
X241518928Y-47660600D01*
X241576071Y-47632028D01*
X241718928Y-47632028D01*
X241804642Y-47660600D01*
X242004642Y-47632028D02*
X242147500Y-48232028D01*
X242261785Y-47803457D01*
X242376071Y-48232028D01*
X242518928Y-47632028D01*
X243090357Y-48174885D02*
X243061785Y-48203457D01*
X242976071Y-48232028D01*
X242918928Y-48232028D01*
X242833214Y-48203457D01*
X242776071Y-48146314D01*
X242747500Y-48089171D01*
X242718928Y-47974885D01*
X242718928Y-47889171D01*
X242747500Y-47774885D01*
X242776071Y-47717742D01*
X242833214Y-47660600D01*
X242918928Y-47632028D01*
X242976071Y-47632028D01*
X243061785Y-47660600D01*
X243090357Y-47689171D01*
X243633214Y-48232028D02*
X243347500Y-48232028D01*
X243347500Y-47632028D01*
X243833214Y-48232028D02*
X243833214Y-47632028D01*
X244176071Y-48232028D02*
X243918928Y-47889171D01*
X244176071Y-47632028D02*
X243833214Y-47974885D01*
X229560071Y-50335000D02*
X229502928Y-50306428D01*
X229417214Y-50306428D01*
X229331500Y-50335000D01*
X229274357Y-50392142D01*
X229245785Y-50449285D01*
X229217214Y-50563571D01*
X229217214Y-50649285D01*
X229245785Y-50763571D01*
X229274357Y-50820714D01*
X229331500Y-50877857D01*
X229417214Y-50906428D01*
X229474357Y-50906428D01*
X229560071Y-50877857D01*
X229588642Y-50849285D01*
X229588642Y-50649285D01*
X229474357Y-50649285D01*
X229845785Y-50906428D02*
X229845785Y-50306428D01*
X230188642Y-50906428D01*
X230188642Y-50306428D01*
X230474357Y-50906428D02*
X230474357Y-50306428D01*
X230617214Y-50306428D01*
X230702928Y-50335000D01*
X230760071Y-50392142D01*
X230788642Y-50449285D01*
X230817214Y-50563571D01*
X230817214Y-50649285D01*
X230788642Y-50763571D01*
X230760071Y-50820714D01*
X230702928Y-50877857D01*
X230617214Y-50906428D01*
X230474357Y-50906428D01*
X241961785Y-50703457D02*
X242047500Y-50732028D01*
X242190357Y-50732028D01*
X242247500Y-50703457D01*
X242276071Y-50674885D01*
X242304642Y-50617742D01*
X242304642Y-50560600D01*
X242276071Y-50503457D01*
X242247500Y-50474885D01*
X242190357Y-50446314D01*
X242076071Y-50417742D01*
X242018928Y-50389171D01*
X241990357Y-50360600D01*
X241961785Y-50303457D01*
X241961785Y-50246314D01*
X241990357Y-50189171D01*
X242018928Y-50160600D01*
X242076071Y-50132028D01*
X242218928Y-50132028D01*
X242304642Y-50160600D01*
X242504642Y-50132028D02*
X242647500Y-50732028D01*
X242761785Y-50303457D01*
X242876071Y-50732028D01*
X243018928Y-50132028D01*
X243361785Y-50132028D02*
X243476071Y-50132028D01*
X243533214Y-50160600D01*
X243590357Y-50217742D01*
X243618928Y-50332028D01*
X243618928Y-50532028D01*
X243590357Y-50646314D01*
X243533214Y-50703457D01*
X243476071Y-50732028D01*
X243361785Y-50732028D01*
X243304642Y-50703457D01*
X243247500Y-50646314D01*
X243218928Y-50532028D01*
X243218928Y-50332028D01*
X243247500Y-50217742D01*
X243304642Y-50160600D01*
X243361785Y-50132028D01*
X229581071Y-55405600D02*
X229523928Y-55377028D01*
X229438214Y-55377028D01*
X229352500Y-55405600D01*
X229295357Y-55462742D01*
X229266785Y-55519885D01*
X229238214Y-55634171D01*
X229238214Y-55719885D01*
X229266785Y-55834171D01*
X229295357Y-55891314D01*
X229352500Y-55948457D01*
X229438214Y-55977028D01*
X229495357Y-55977028D01*
X229581071Y-55948457D01*
X229609642Y-55919885D01*
X229609642Y-55719885D01*
X229495357Y-55719885D01*
X229866785Y-55977028D02*
X229866785Y-55377028D01*
X230209642Y-55977028D01*
X230209642Y-55377028D01*
X230495357Y-55977028D02*
X230495357Y-55377028D01*
X230638214Y-55377028D01*
X230723928Y-55405600D01*
X230781071Y-55462742D01*
X230809642Y-55519885D01*
X230838214Y-55634171D01*
X230838214Y-55719885D01*
X230809642Y-55834171D01*
X230781071Y-55891314D01*
X230723928Y-55948457D01*
X230638214Y-55977028D01*
X230495357Y-55977028D01*
X241972500Y-55137600D02*
X242572500Y-55137600D01*
X242458214Y-55907028D02*
X242258214Y-55621314D01*
X242115357Y-55907028D02*
X242115357Y-55307028D01*
X242343928Y-55307028D01*
X242401071Y-55335600D01*
X242429642Y-55364171D01*
X242458214Y-55421314D01*
X242458214Y-55507028D01*
X242429642Y-55564171D01*
X242401071Y-55592742D01*
X242343928Y-55621314D01*
X242115357Y-55621314D01*
X242572500Y-55137600D02*
X243143928Y-55137600D01*
X242686785Y-55878457D02*
X242772500Y-55907028D01*
X242915357Y-55907028D01*
X242972500Y-55878457D01*
X243001071Y-55849885D01*
X243029642Y-55792742D01*
X243029642Y-55735600D01*
X243001071Y-55678457D01*
X242972500Y-55649885D01*
X242915357Y-55621314D01*
X242801071Y-55592742D01*
X242743928Y-55564171D01*
X242715357Y-55535600D01*
X242686785Y-55478457D01*
X242686785Y-55421314D01*
X242715357Y-55364171D01*
X242743928Y-55335600D01*
X242801071Y-55307028D01*
X242943928Y-55307028D01*
X243029642Y-55335600D01*
X243143928Y-55137600D02*
X243601071Y-55137600D01*
X243201071Y-55307028D02*
X243543928Y-55307028D01*
X243372500Y-55907028D02*
X243372500Y-55307028D01*
X242340357Y-53382028D02*
X242340357Y-52782028D01*
X242683214Y-53382028D01*
X242683214Y-52782028D01*
X243311785Y-53324885D02*
X243283214Y-53353457D01*
X243197500Y-53382028D01*
X243140357Y-53382028D01*
X243054642Y-53353457D01*
X242997500Y-53296314D01*
X242968928Y-53239171D01*
X242940357Y-53124885D01*
X242940357Y-53039171D01*
X242968928Y-52924885D01*
X242997500Y-52867742D01*
X243054642Y-52810600D01*
X243140357Y-52782028D01*
X243197500Y-52782028D01*
X243283214Y-52810600D01*
X243311785Y-52839171D01*
D12*
X364622000Y-42225000D02*
X365222000Y-42225000D01*
X378722000Y-51275000D02*
X378722000Y-53225000D01*
X365222000Y-42225000D02*
X364922000Y-42525000D01*
X370022000Y-39425000D02*
X366122000Y-39425000D01*
X378722000Y-53225000D02*
X374822000Y-53225000D01*
X364922000Y-42525000D02*
X364622000Y-42225000D01*
X370022000Y-53225000D02*
X366122000Y-53225000D01*
X378722000Y-39425000D02*
X378722000Y-41375000D01*
X366122000Y-39425000D02*
X366122000Y-53225000D01*
X374822000Y-39425000D02*
X378722000Y-39425000D01*
X371922000Y-46325000D02*
X372922000Y-46325000D01*
X372422000Y-45825000D02*
X372422000Y-46825000D01*
X375422000Y-46325000D02*
G75*
G03*
X375422000Y-46325000I-3000000J0D01*
G01*
X47550000Y-45933000D02*
X47850000Y-45633000D01*
X47850000Y-45633000D02*
X47850000Y-46233000D01*
X38800000Y-59733000D02*
X36850000Y-59733000D01*
X36850000Y-59733000D02*
X36850000Y-55833000D01*
X36850000Y-51033000D02*
X36850000Y-47133000D01*
X50650000Y-59733000D02*
X48700000Y-59733000D01*
X44250000Y-53433000D02*
X43250000Y-53433000D01*
X50650000Y-55833000D02*
X50650000Y-59733000D01*
X43750000Y-52933000D02*
X43750000Y-53933000D01*
X50650000Y-51033000D02*
X50650000Y-47133000D01*
X50650000Y-47133000D02*
X36850000Y-47133000D01*
X47850000Y-46233000D02*
X47550000Y-45933000D01*
X46750000Y-53433000D02*
G75*
G03*
X46750000Y-53433000I-3000000J0D01*
G01*
X71721250Y-45575000D02*
X70971250Y-46325000D01*
X63351250Y-50945000D02*
X66736250Y-50945000D01*
X138591250Y-41705000D02*
X138591250Y-43752000D01*
X62546250Y-45075000D02*
X63046250Y-44575000D01*
X130971250Y-46325000D02*
X130221250Y-47075000D01*
X135207250Y-50945000D02*
X138591250Y-50945000D01*
X134007250Y-41705000D02*
X138591250Y-41705000D01*
X71207250Y-41705000D02*
X130736250Y-41705000D01*
X70007250Y-50945000D02*
X131936250Y-50945000D01*
X130971250Y-44825000D02*
X130971250Y-47825000D01*
X130221250Y-45575000D02*
X130971250Y-46325000D01*
X63351250Y-41705000D02*
X67936250Y-41705000D01*
X138591250Y-45398000D02*
X138591250Y-50945000D01*
X62546250Y-44075000D02*
X62546250Y-45075000D01*
X63351250Y-45750000D02*
X63351250Y-47253000D01*
X63351250Y-41705000D02*
X63351250Y-43400000D01*
X70971250Y-46325000D02*
X71721250Y-47075000D01*
X63046250Y-44575000D02*
X62546250Y-44075000D01*
X70971250Y-44825000D02*
X70971250Y-47825000D01*
X70971250Y-46325000D02*
X130971250Y-46325000D01*
X63351250Y-48898000D02*
X63351250Y-50945000D01*
X232875000Y-38925000D02*
X232875000Y-40425000D01*
X239875000Y-40425000D02*
X239875000Y-38925000D01*
X234125000Y-42925000D02*
X238625000Y-42925000D01*
X238625000Y-36425000D02*
X234125000Y-36425000D01*
X319661500Y-45398000D02*
X319661500Y-50945000D01*
X315077500Y-41705000D02*
X319661500Y-41705000D01*
X244116500Y-44575000D02*
X243616500Y-44075000D01*
X316277500Y-50945000D02*
X319661500Y-50945000D01*
X243616500Y-44075000D02*
X243616500Y-45075000D01*
X312041500Y-44825000D02*
X312041500Y-47825000D01*
X252041500Y-46325000D02*
X312041500Y-46325000D01*
X312041500Y-46325000D02*
X311291500Y-47075000D01*
X244421500Y-50945000D02*
X247806500Y-50945000D01*
X251077500Y-50945000D02*
X313006500Y-50945000D01*
X244421500Y-41705000D02*
X249006500Y-41705000D01*
X252277500Y-41705000D02*
X311806500Y-41705000D01*
X244421500Y-41705000D02*
X244421500Y-43400000D01*
X252041500Y-46325000D02*
X252791500Y-47075000D01*
X244421500Y-45750000D02*
X244421500Y-47253000D01*
X252041500Y-44825000D02*
X252041500Y-47825000D01*
X311291500Y-45575000D02*
X312041500Y-46325000D01*
X319661500Y-41705000D02*
X319661500Y-43752000D01*
X252791500Y-45575000D02*
X252041500Y-46325000D01*
X244421500Y-48898000D02*
X244421500Y-50945000D01*
X243616500Y-45075000D02*
X244116500Y-44575000D01*
X221554000Y-46325000D02*
X220804000Y-47075000D01*
X153129000Y-44075000D02*
X153129000Y-45075000D01*
X225790000Y-50945000D02*
X229174000Y-50945000D01*
X220804000Y-45575000D02*
X221554000Y-46325000D01*
X153629000Y-44575000D02*
X153129000Y-44075000D01*
X160590000Y-50945000D02*
X222519000Y-50945000D01*
X161554000Y-46325000D02*
X162304000Y-47075000D01*
X221554000Y-44825000D02*
X221554000Y-47825000D01*
X224590000Y-41705000D02*
X229174000Y-41705000D01*
X229174000Y-45398000D02*
X229174000Y-50945000D01*
X153934000Y-48898000D02*
X153934000Y-50945000D01*
X161554000Y-44825000D02*
X161554000Y-47825000D01*
X153934000Y-41705000D02*
X153934000Y-43400000D01*
X153934000Y-41705000D02*
X158519000Y-41705000D01*
X162304000Y-45575000D02*
X161554000Y-46325000D01*
X161790000Y-41705000D02*
X221319000Y-41705000D01*
X161554000Y-46325000D02*
X221554000Y-46325000D01*
X229174000Y-41705000D02*
X229174000Y-43752000D01*
X153934000Y-50945000D02*
X157319000Y-50945000D01*
X153934000Y-45750000D02*
X153934000Y-47253000D01*
X153129000Y-45075000D02*
X153629000Y-44575000D01*
X239969000Y-56835600D02*
X240223000Y-56581600D01*
X235143000Y-48932600D02*
X235143000Y-46900600D01*
X240223000Y-51501600D02*
X240223000Y-49469600D01*
X240223000Y-54549600D02*
X239969000Y-54295600D01*
X235397000Y-56835600D02*
X235143000Y-56581600D01*
X237683000Y-44389600D02*
X237683000Y-46421600D01*
X232857000Y-46675600D02*
X232603000Y-46421600D01*
X237429000Y-46675600D02*
X237683000Y-46929600D01*
X237429000Y-44135600D02*
X237683000Y-44389600D01*
X237683000Y-48961600D02*
X237429000Y-49215600D01*
X237429000Y-51755600D02*
X237683000Y-52009600D01*
X232603000Y-44389600D02*
X232857000Y-44135600D01*
X235397000Y-49186600D02*
X235143000Y-48932600D01*
X236575000Y-43085600D02*
X236575000Y-44135600D01*
X237683000Y-46421600D02*
X237429000Y-46675600D01*
X232603000Y-48961600D02*
X232603000Y-46929600D01*
X232857000Y-54295600D02*
X232603000Y-54041600D01*
X237429000Y-46675600D02*
X237683000Y-46929600D01*
X232603000Y-54041600D02*
X232603000Y-52009600D01*
X235397000Y-44135600D02*
X237429000Y-44135600D01*
X239969000Y-49215600D02*
X240223000Y-48961600D01*
X240223000Y-56581600D02*
X240223000Y-54549600D01*
X232603000Y-46929600D02*
X232857000Y-46675600D01*
X237683000Y-51501600D02*
X237429000Y-51755600D01*
X235143000Y-56552600D02*
X235143000Y-54520600D01*
X233875000Y-57985600D02*
X233875000Y-56835600D01*
X235397000Y-46646600D02*
X235143000Y-46392600D01*
X237937000Y-56835600D02*
X239969000Y-56835600D01*
X232857000Y-51755600D02*
X232603000Y-51501600D01*
X237937000Y-44135600D02*
X239969000Y-44135600D01*
X237683000Y-54041600D02*
X237429000Y-54295600D01*
X232603000Y-44389600D02*
X232857000Y-44135600D01*
X232603000Y-54549600D02*
X232857000Y-54295600D01*
X237683000Y-46929600D02*
X237683000Y-48961600D01*
X235143000Y-54012600D02*
X235143000Y-51980600D01*
X237683000Y-52009600D02*
X237683000Y-54041600D01*
X239969000Y-54295600D02*
X240223000Y-54041600D01*
X235143000Y-46900600D02*
X235397000Y-46646600D01*
X234889000Y-56835600D02*
X232857000Y-56835600D01*
X235143000Y-54520600D02*
X235397000Y-54266600D01*
X234889000Y-44135600D02*
X232857000Y-44135600D01*
X237683000Y-54549600D02*
X237683000Y-56581600D01*
X237683000Y-49469600D02*
X237683000Y-51501600D01*
X240223000Y-52009600D02*
X239969000Y-51755600D01*
X240223000Y-46929600D02*
X239969000Y-46675600D01*
X235143000Y-51980600D02*
X235397000Y-51726600D01*
X240223000Y-44389600D02*
X239969000Y-44135600D01*
X232857000Y-56835600D02*
X232603000Y-56581600D01*
X240223000Y-44389600D02*
X239969000Y-44135600D01*
X237937000Y-56835600D02*
X237683000Y-56581600D01*
X235397000Y-44135600D02*
X235143000Y-44389600D01*
X242800000Y-44135600D02*
X242800000Y-43085600D01*
X237429000Y-54295600D02*
X237683000Y-54549600D01*
X232603000Y-49469600D02*
X232857000Y-49215600D01*
X235143000Y-44389600D02*
X234889000Y-44135600D01*
X240223000Y-49469600D02*
X239969000Y-49215600D01*
X239969000Y-51755600D02*
X240223000Y-51501600D01*
X242800000Y-43085600D02*
X236575000Y-43085600D01*
X232603000Y-51501600D02*
X232603000Y-49469600D01*
X237683000Y-44389600D02*
X237937000Y-44135600D01*
X232857000Y-49215600D02*
X232603000Y-48961600D01*
X240223000Y-46421600D02*
X240223000Y-44389600D01*
X232603000Y-56581600D02*
X232603000Y-54549600D01*
X240223000Y-48961600D02*
X240223000Y-46929600D01*
X234889000Y-56835600D02*
X235143000Y-56581600D01*
X237429000Y-49215600D02*
X237683000Y-49469600D01*
X235143000Y-46392600D02*
X235143000Y-44360600D01*
X232603000Y-46421600D02*
X232603000Y-44389600D01*
X239969000Y-46675600D02*
X240223000Y-46421600D01*
X237683000Y-56581600D02*
X237429000Y-56835600D01*
X239050000Y-57985600D02*
X230025000Y-57985600D01*
X240223000Y-54041600D02*
X240223000Y-52009600D01*
X235143000Y-49440600D02*
X235397000Y-49186600D01*
X235397000Y-51726600D02*
X235143000Y-51472600D01*
X237429000Y-56835600D02*
X235397000Y-56835600D01*
X232603000Y-52009600D02*
X232857000Y-51755600D01*
X235143000Y-51472600D02*
X235143000Y-49440600D01*
X239050000Y-57985600D02*
X239050000Y-56860600D01*
X235397000Y-54266600D02*
X235143000Y-54012600D01*
X230029000Y-56825600D02*
X230025000Y-57985600D01*
X244500000Y-44135600D02*
X241100000Y-44135600D01*
X241100000Y-44135600D02*
X241100000Y-56710600D01*
X241100000Y-56710600D02*
X244500000Y-56710600D01*
X244500000Y-56710600D02*
X244500000Y-44135600D01*
X231704000Y-56825600D02*
X228354000Y-56825600D01*
X228354000Y-56825600D02*
X228354000Y-44300600D01*
X228354000Y-44300600D02*
X231704000Y-44300600D01*
X231704000Y-44300600D02*
X231704000Y-56825600D01*
%LPC*%
D13*
X234212500Y-118065500D03*
X62762500Y-118080000D03*
X129275000Y-194275000D03*
X253262500Y-89490500D03*
X138962500Y-118065500D03*
X200975000Y-89725000D03*
X69874500Y-194265500D03*
X182015500Y-70567500D03*
X72325000Y-70455000D03*
D14*
X300205000Y-37675000D03*
D15*
X302745000Y-37675000D03*
D13*
X186587500Y-137115500D03*
X248563500Y-156165500D03*
X162965500Y-70567500D03*
D16*
X379422000Y-42325000D03*
D17*
X364922000Y-43825000D03*
D18*
X364922000Y-48825000D03*
D16*
X379422000Y-44325000D03*
D18*
X364922000Y-46325000D03*
D16*
X379422000Y-48325000D03*
D19*
X372422000Y-38725000D03*
X372422000Y-53925000D03*
D16*
X379422000Y-50325000D03*
X379422000Y-46325000D03*
D13*
X200975000Y-194275000D03*
X129437500Y-137115500D03*
X158012500Y-118065500D03*
X165251500Y-194265500D03*
X334288500Y-137115500D03*
X200938500Y-175215500D03*
X253262500Y-70440500D03*
X210463500Y-156165500D03*
X396137500Y-118065500D03*
X77113500Y-156165500D03*
X334288500Y-70440500D03*
X129475000Y-70455000D03*
X372388500Y-89490500D03*
X353338500Y-89490500D03*
X243737500Y-137115500D03*
X220125000Y-89725000D03*
X334288500Y-118192500D03*
X177062500Y-118065500D03*
X110387500Y-89490500D03*
X46125500Y-194265500D03*
X415187500Y-137242500D03*
X215162500Y-118065500D03*
D16*
X47750000Y-60433000D03*
D17*
X46250000Y-45933000D03*
D16*
X45750000Y-60433000D03*
D18*
X41250000Y-45933000D03*
X43750000Y-45933000D03*
D16*
X41750000Y-60433000D03*
D20*
X51350000Y-53433000D03*
X36150000Y-53433000D03*
D16*
X39750000Y-60433000D03*
X43750000Y-60433000D03*
D13*
X110387500Y-137115500D03*
X272312500Y-70440500D03*
X48538500Y-137115500D03*
X447905000Y-179905000D03*
X110425000Y-70455000D03*
X415187500Y-118065500D03*
X50824500Y-156165500D03*
X100862500Y-118080000D03*
X148487500Y-137115500D03*
D21*
X35475000Y-36475000D03*
D13*
X353338500Y-118192500D03*
X181761500Y-175215500D03*
X172236500Y-156165500D03*
X415285000Y-175295000D03*
X353255000Y-175295000D03*
X72287500Y-137115500D03*
X353338500Y-194392500D03*
X286663500Y-156165500D03*
D22*
X64221250Y-44575000D03*
D23*
X64221250Y-48075000D03*
X137721250Y-44575000D03*
D24*
X133571250Y-50525000D03*
X68371250Y-50525000D03*
X69571250Y-42125000D03*
X132371250Y-42125000D03*
D13*
X86638500Y-175215500D03*
X224687500Y-137115500D03*
X353338500Y-137115500D03*
D14*
X315205000Y-37675000D03*
D15*
X317745000Y-37675000D03*
D13*
X300887500Y-118065500D03*
X262787500Y-137115500D03*
X372388500Y-118192500D03*
X93750500Y-194265500D03*
X448065000Y-141905000D03*
X229513500Y-156165500D03*
X434237500Y-194392500D03*
X372388500Y-194392500D03*
D14*
X285205000Y-37675000D03*
D15*
X287745000Y-37675000D03*
D13*
X220115500Y-70567500D03*
X434237500Y-137242500D03*
X453287500Y-118065500D03*
X405700000Y-194280000D03*
D25*
X331631155Y-148818845D03*
X329775000Y-153300000D03*
X332400000Y-150675000D03*
X327918845Y-152531155D03*
X327918845Y-148818845D03*
X329775000Y-148050000D03*
X331631155Y-152531155D03*
X327150000Y-150675000D03*
D26*
X329775000Y-150675000D03*
D21*
X462975000Y-198975000D03*
D13*
X434237500Y-175215500D03*
X191286500Y-156165500D03*
X434237500Y-118065500D03*
X293775500Y-175215500D03*
D18*
X233125000Y-37425000D03*
X239625000Y-37425000D03*
X239625000Y-41925000D03*
X233125000Y-41925000D03*
D13*
X434237500Y-156292500D03*
X272312500Y-89490500D03*
X105688500Y-175215500D03*
X281825000Y-137025000D03*
X372388500Y-137115500D03*
X372350000Y-175400000D03*
X267613500Y-156165500D03*
X143661500Y-175215500D03*
X372388500Y-70440500D03*
X67588500Y-175215500D03*
X291362500Y-70440500D03*
X46125500Y-175215500D03*
X260412000Y-194265500D03*
X96163500Y-156165500D03*
D21*
X35475000Y-198975000D03*
D13*
X181925000Y-89725000D03*
X43712500Y-118080000D03*
X396235000Y-175295000D03*
X333925000Y-175675000D03*
X310412500Y-89490500D03*
X91337500Y-137115500D03*
X129437500Y-89490500D03*
X253262500Y-118065500D03*
X308037000Y-147148500D03*
X334288500Y-194392500D03*
X43575000Y-90125000D03*
X310412500Y-70440500D03*
X91375000Y-70455000D03*
X119912500Y-118065500D03*
X258135000Y-175515000D03*
X396137500Y-137242500D03*
X334288500Y-89490500D03*
X115213500Y-156165500D03*
X236625500Y-194265500D03*
X134136500Y-156165500D03*
X205637500Y-137115500D03*
X91337500Y-89490500D03*
X284161000Y-194265500D03*
X167537500Y-137115500D03*
D22*
X245291500Y-44575000D03*
D23*
X245291500Y-48075000D03*
X318791500Y-44575000D03*
D24*
X313441500Y-42125000D03*
X314641500Y-50525000D03*
X249441500Y-50525000D03*
X250641500Y-42125000D03*
D13*
X396137500Y-156292500D03*
X291362500Y-89490500D03*
X272350000Y-118080000D03*
X219988500Y-175215500D03*
X124611500Y-175215500D03*
X162875000Y-89725000D03*
X239038500Y-175215500D03*
X353338500Y-51390500D03*
X307999500Y-194265500D03*
X81812500Y-118080000D03*
X153186500Y-156165500D03*
D22*
X154804000Y-44575000D03*
D23*
X154804000Y-48075000D03*
X228304000Y-44575000D03*
D24*
X224154000Y-50525000D03*
X158954000Y-50525000D03*
X160154000Y-42125000D03*
X222954000Y-42125000D03*
D13*
X334288500Y-51390500D03*
X201065500Y-70567500D03*
X162711500Y-175215500D03*
X353338500Y-70440500D03*
D21*
X462975000Y-36475000D03*
D13*
X196112500Y-118065500D03*
X415187500Y-156292500D03*
X72287500Y-89490500D03*
D27*
X168495750Y-148591750D03*
D28*
X177385750Y-151131750D03*
D27*
X174845750Y-146051750D03*
D28*
X167225750Y-151131750D03*
D29*
X172305750Y-151131750D03*
X281843250Y-132081750D03*
D28*
X286923250Y-132081750D03*
D27*
X284383250Y-127001750D03*
D28*
X276763250Y-132081750D03*
D27*
X278033250Y-129541750D03*
X146270750Y-165101750D03*
D28*
X138650750Y-170181750D03*
D29*
X143730750Y-170181750D03*
D27*
X139920750Y-167641750D03*
D28*
X148810750Y-170181750D03*
D27*
X274858250Y-79376750D03*
D28*
X277398250Y-84456750D03*
D27*
X268508250Y-81916750D03*
D29*
X272318250Y-84456750D03*
D28*
X267238250Y-84456750D03*
D27*
X392333250Y-167673500D03*
D28*
X401223250Y-170213500D03*
D29*
X396143250Y-170213500D03*
D28*
X391063250Y-170213500D03*
D27*
X398683250Y-165133500D03*
D29*
X353280750Y-170213500D03*
D28*
X348200750Y-170213500D03*
D27*
X355820750Y-165133500D03*
D28*
X358360750Y-170213500D03*
D27*
X349470750Y-167673500D03*
D29*
X177068250Y-113031750D03*
D27*
X173258250Y-110491750D03*
X179608250Y-107951750D03*
D28*
X182148250Y-113031750D03*
X171988250Y-113031750D03*
D29*
X138968250Y-113031750D03*
D27*
X141508250Y-107951750D03*
D28*
X133888250Y-113031750D03*
X144048250Y-113031750D03*
D27*
X135158250Y-110491750D03*
X349502500Y-129510000D03*
X355852500Y-126970000D03*
D28*
X348232500Y-132050000D03*
D29*
X353312500Y-132050000D03*
D28*
X358392500Y-132050000D03*
D27*
X112933250Y-60326750D03*
D28*
X115473250Y-65406750D03*
X105313250Y-65406750D03*
D29*
X110393250Y-65406750D03*
D27*
X106583250Y-62866750D03*
X249458410Y-62866750D03*
D28*
X248188410Y-65406750D03*
X258348410Y-65406750D03*
D27*
X255808410Y-60326750D03*
D29*
X253268410Y-65406750D03*
D30*
X460278250Y-153576500D03*
D28*
X453293250Y-136558500D03*
D29*
X445038250Y-129700500D03*
D27*
X458373250Y-144178500D03*
X455833250Y-137828500D03*
D29*
X453293250Y-141638500D03*
D28*
X453293250Y-146718500D03*
D30*
X460278250Y-129700500D03*
D29*
X445038250Y-153576500D03*
D28*
X296448250Y-65406750D03*
D27*
X293908250Y-60326750D03*
X287558250Y-62866750D03*
D28*
X286288250Y-65406750D03*
D29*
X291368250Y-65406750D03*
X129445000Y-84455000D03*
D27*
X125635000Y-81915000D03*
X131985000Y-79375000D03*
D28*
X124365000Y-84455000D03*
X134525000Y-84455000D03*
D27*
X430433250Y-148623500D03*
D28*
X439323250Y-151163500D03*
X429163250Y-151163500D03*
D29*
X434243250Y-151163500D03*
D27*
X436783250Y-146083500D03*
X336802500Y-41245000D03*
D29*
X334262500Y-46325000D03*
D27*
X330452500Y-43785000D03*
D28*
X339342500Y-46325000D03*
X329182500Y-46325000D03*
D27*
X160558250Y-107951750D03*
X154208250Y-110491750D03*
D29*
X158018250Y-113031750D03*
D28*
X152938250Y-113031750D03*
X163098250Y-113031750D03*
D29*
X334262500Y-113000000D03*
D27*
X336802500Y-107920000D03*
D28*
X329182500Y-113000000D03*
X339342500Y-113000000D03*
D27*
X330452500Y-110460000D03*
D28*
X134523250Y-132081750D03*
D27*
X131983250Y-127001750D03*
D29*
X129443250Y-132081750D03*
D28*
X124363250Y-132081750D03*
D27*
X125633250Y-129541750D03*
D28*
X265492000Y-189231750D03*
D27*
X262952000Y-184151750D03*
D29*
X260412000Y-189231750D03*
D27*
X256602000Y-186691750D03*
D28*
X255332000Y-189231750D03*
D27*
X63720750Y-167641750D03*
X70070750Y-165101750D03*
D28*
X62450750Y-170181750D03*
D29*
X67530750Y-170181750D03*
D28*
X72610750Y-170181750D03*
D27*
X265333250Y-127001750D03*
X258983250Y-129541750D03*
D29*
X262793250Y-132081750D03*
D28*
X267873250Y-132081750D03*
X257713250Y-132081750D03*
D29*
X124675000Y-189225000D03*
D28*
X129755000Y-189225000D03*
D27*
X120865000Y-186685000D03*
D28*
X119595000Y-189225000D03*
D27*
X127215000Y-184145000D03*
X130395750Y-148591750D03*
X136745750Y-146051750D03*
D28*
X129125750Y-151131750D03*
X139285750Y-151131750D03*
D29*
X134205750Y-151131750D03*
X186593250Y-132081750D03*
D27*
X182783250Y-129541750D03*
D28*
X191673250Y-132081750D03*
X181513250Y-132081750D03*
D27*
X189133250Y-127001750D03*
D29*
X162780750Y-170181750D03*
D28*
X157700750Y-170181750D03*
D27*
X158970750Y-167641750D03*
D28*
X167860750Y-170181750D03*
D27*
X165320750Y-165101750D03*
D18*
X232725000Y-58925000D03*
X239225000Y-58925000D03*
X232725000Y-63425000D03*
X239225000Y-63425000D03*
D28*
X263110750Y-170181750D03*
D27*
X260570750Y-165101750D03*
D29*
X258030750Y-170181750D03*
D28*
X252950750Y-170181750D03*
D27*
X254220750Y-167641750D03*
X312958250Y-60326750D03*
D28*
X315498250Y-65406750D03*
D27*
X306608250Y-62866750D03*
D28*
X305338250Y-65406750D03*
D29*
X310418250Y-65406750D03*
D28*
X377442500Y-84425000D03*
D29*
X372362500Y-84425000D03*
D27*
X368552500Y-81885000D03*
D28*
X367282500Y-84425000D03*
D27*
X374902500Y-79345000D03*
D31*
X143095000Y-32521500D03*
X148875000Y-32521500D03*
D32*
X141685000Y-33072500D03*
D33*
X150285000Y-28872500D03*
X141685000Y-28872500D03*
D32*
X150285000Y-33072500D03*
D27*
X287558250Y-81916750D03*
X293908250Y-79376750D03*
D28*
X296448250Y-84456750D03*
D29*
X291368250Y-84456750D03*
D28*
X286288250Y-84456750D03*
D27*
X68483250Y-81916750D03*
D29*
X72293250Y-84456750D03*
D27*
X74833250Y-79376750D03*
D28*
X67213250Y-84456750D03*
X77373250Y-84456750D03*
D27*
X72452000Y-184151750D03*
X66102000Y-186691750D03*
D28*
X64832000Y-189231750D03*
X74992000Y-189231750D03*
D29*
X69912000Y-189231750D03*
D28*
X248823250Y-132081750D03*
D29*
X243743250Y-132081750D03*
D27*
X239933250Y-129541750D03*
X246283250Y-127001750D03*
D28*
X238663250Y-132081750D03*
D29*
X286605750Y-151131750D03*
D28*
X291685750Y-151131750D03*
D27*
X289145750Y-146051750D03*
X282795750Y-148591750D03*
D28*
X281525750Y-151131750D03*
D30*
X446308250Y-167800500D03*
D29*
X461548250Y-167800500D03*
D28*
X453293250Y-184818500D03*
D29*
X461548250Y-191676500D03*
D28*
X453293250Y-174658500D03*
D30*
X446308250Y-191676500D03*
D27*
X458373250Y-182278500D03*
X455833250Y-175928500D03*
D29*
X453293250Y-179738500D03*
X334235000Y-170215000D03*
D28*
X339315000Y-170215000D03*
D27*
X330425000Y-167675000D03*
X336775000Y-165135000D03*
D28*
X329155000Y-170215000D03*
D34*
X238885500Y-45410600D03*
X233809500Y-45410600D03*
D35*
X236345500Y-45410600D03*
X233936500Y-47950600D03*
X239012500Y-47950600D03*
X236472500Y-47950600D03*
X233809500Y-50490600D03*
X238885500Y-50490600D03*
X236345500Y-50490600D03*
X233936500Y-53030600D03*
X239012500Y-53030600D03*
X236472500Y-53030600D03*
X238885500Y-55570600D03*
X233809500Y-55570600D03*
X236345500Y-55570600D03*
D27*
X155795750Y-146051750D03*
D28*
X158335750Y-151131750D03*
D29*
X153255750Y-151131750D03*
D28*
X148175750Y-151131750D03*
D27*
X149445750Y-148591750D03*
D29*
X248505750Y-151131750D03*
D27*
X251045750Y-146051750D03*
D28*
X243425750Y-151131750D03*
X253585750Y-151131750D03*
D27*
X244695750Y-148591750D03*
D29*
X415193250Y-170213500D03*
D28*
X410113250Y-170213500D03*
D27*
X411383250Y-167673500D03*
X417733250Y-165133500D03*
D28*
X420273250Y-170213500D03*
D30*
X288955250Y-106046750D03*
D29*
X300893250Y-113031750D03*
X288955250Y-121286750D03*
D28*
X305973250Y-113031750D03*
X295813250Y-113031750D03*
D27*
X303433250Y-107951750D03*
D30*
X312831250Y-106046750D03*
D29*
X312831250Y-121286750D03*
D27*
X297083250Y-110491750D03*
D28*
X225106000Y-65406750D03*
D29*
X220026000Y-65406750D03*
D27*
X216216000Y-62866750D03*
X222566000Y-60326750D03*
D28*
X214946000Y-65406750D03*
X86263250Y-84456750D03*
D29*
X91343250Y-84456750D03*
D27*
X87533250Y-81916750D03*
D28*
X96423250Y-84456750D03*
D27*
X93883250Y-79376750D03*
X53402000Y-146051750D03*
D29*
X50862000Y-151131750D03*
D28*
X45782000Y-151131750D03*
X55942000Y-151131750D03*
D27*
X47052000Y-148591750D03*
X417733250Y-107983500D03*
X411383250Y-110523500D03*
D28*
X410113250Y-113063500D03*
X420273250Y-113063500D03*
D29*
X415193250Y-113063500D03*
X165162000Y-189231750D03*
D30*
X215200000Y-182246750D03*
D29*
X215200000Y-197486750D03*
D30*
X115124000Y-182246750D03*
D27*
X161352000Y-186691750D03*
D28*
X160082000Y-189231750D03*
D27*
X167702000Y-184151750D03*
D29*
X115124000Y-197486750D03*
D28*
X170242000Y-189231750D03*
D27*
X44670750Y-129541750D03*
D28*
X53560750Y-132081750D03*
D29*
X48480750Y-132081750D03*
D28*
X43400750Y-132081750D03*
D27*
X51020750Y-127001750D03*
D29*
X119918250Y-113031750D03*
D28*
X124998250Y-113031750D03*
D27*
X122458250Y-107951750D03*
X116108250Y-110491750D03*
D28*
X114838250Y-113031750D03*
X200563250Y-132081750D03*
X210723250Y-132081750D03*
D27*
X201833250Y-129541750D03*
D29*
X205643250Y-132081750D03*
D27*
X208183250Y-127001750D03*
X184466106Y-60326750D03*
D28*
X187006106Y-65406750D03*
X176846106Y-65406750D03*
D29*
X181926106Y-65406750D03*
D27*
X178116106Y-62866750D03*
D28*
X51179500Y-170181750D03*
D27*
X48639500Y-165101750D03*
D29*
X46099500Y-170181750D03*
D27*
X42289500Y-167641750D03*
D28*
X41019500Y-170181750D03*
D27*
X106583250Y-129541750D03*
D28*
X115473250Y-132081750D03*
D29*
X110393250Y-132081750D03*
D27*
X112933250Y-127001750D03*
D28*
X105313250Y-132081750D03*
X258348250Y-84456750D03*
D29*
X253268250Y-84456750D03*
D28*
X248188250Y-84456750D03*
D27*
X249458250Y-81916750D03*
X255808250Y-79376750D03*
D28*
X439323250Y-113063500D03*
D29*
X434243250Y-113063500D03*
D27*
X430433250Y-110523500D03*
D28*
X429163250Y-113063500D03*
D27*
X436783250Y-107983500D03*
D28*
X157796090Y-65406750D03*
X167956090Y-65406750D03*
D27*
X165416090Y-60326750D03*
D29*
X162876090Y-65406750D03*
D27*
X159066090Y-62866750D03*
D29*
X353312500Y-84425000D03*
D28*
X358392500Y-84425000D03*
D27*
X355852500Y-79345000D03*
D28*
X348232500Y-84425000D03*
D27*
X349502500Y-81885000D03*
D28*
X239298250Y-113031750D03*
D27*
X230408250Y-110491750D03*
X236758250Y-107951750D03*
D29*
X234218250Y-113031750D03*
D28*
X229138250Y-113031750D03*
D27*
X197065000Y-186685000D03*
D28*
X195795000Y-189225000D03*
X205955000Y-189225000D03*
D27*
X203415000Y-184145000D03*
D29*
X200875000Y-189225000D03*
D27*
X92295750Y-148591750D03*
D28*
X91025750Y-151131750D03*
X101185750Y-151131750D03*
D27*
X98645750Y-146051750D03*
D29*
X96105750Y-151131750D03*
D28*
X401223250Y-151163500D03*
D27*
X398683250Y-146083500D03*
D29*
X396143250Y-151163500D03*
D28*
X391063250Y-151163500D03*
D27*
X392333250Y-148623500D03*
X211358250Y-110491750D03*
D29*
X215168250Y-113031750D03*
D28*
X210088250Y-113031750D03*
X220248250Y-113031750D03*
D27*
X217708250Y-107951750D03*
D29*
X72293250Y-65406750D03*
D28*
X77373250Y-65406750D03*
X67213250Y-65406750D03*
D27*
X74833250Y-60326750D03*
X68483250Y-62866750D03*
D30*
X315022000Y-153544750D03*
D29*
X299782000Y-129668750D03*
X308037000Y-141606750D03*
D28*
X302957000Y-141606750D03*
D27*
X310577000Y-136526750D03*
X304227000Y-139066750D03*
D28*
X313117000Y-141606750D03*
D29*
X299782000Y-153544750D03*
D30*
X315022000Y-129668750D03*
D28*
X244060750Y-170181750D03*
D29*
X238980750Y-170181750D03*
D27*
X241520750Y-165101750D03*
D28*
X233900750Y-170181750D03*
D27*
X235170750Y-167641750D03*
D36*
X275075000Y-37675000D03*
D37*
X282695000Y-37675000D03*
D28*
X48798250Y-84456750D03*
D29*
X43718250Y-84456750D03*
D27*
X46258250Y-79376750D03*
D28*
X38638250Y-84456750D03*
D27*
X39908250Y-81916750D03*
D28*
X148815000Y-189215000D03*
D27*
X146275000Y-184135000D03*
X139925000Y-186675000D03*
D29*
X143735000Y-189215000D03*
D28*
X138655000Y-189215000D03*
X225010750Y-170181750D03*
D27*
X216120750Y-167641750D03*
X222470750Y-165101750D03*
D28*
X214850750Y-170181750D03*
D29*
X219930750Y-170181750D03*
D27*
X187540000Y-148610000D03*
D28*
X196430000Y-151150000D03*
X186270000Y-151150000D03*
D29*
X191350000Y-151150000D03*
D27*
X193890000Y-146070000D03*
D28*
X401223250Y-113063500D03*
D27*
X392333250Y-110523500D03*
X398683250Y-107983500D03*
D29*
X396143250Y-113063500D03*
D28*
X391063250Y-113063500D03*
D27*
X197166000Y-81916750D03*
X203516000Y-79376750D03*
D29*
X200976000Y-84456750D03*
D28*
X206056000Y-84456750D03*
X195896000Y-84456750D03*
X162463250Y-132081750D03*
D29*
X167543250Y-132081750D03*
D28*
X172623250Y-132081750D03*
D27*
X170083250Y-127001750D03*
X163733250Y-129541750D03*
D29*
X148493250Y-132081750D03*
D28*
X153573250Y-132081750D03*
D27*
X144683250Y-129541750D03*
X151033250Y-127001750D03*
D28*
X143413250Y-132081750D03*
X98804500Y-189231750D03*
D27*
X89914500Y-186691750D03*
D28*
X88644500Y-189231750D03*
D27*
X96264500Y-184151750D03*
D29*
X93724500Y-189231750D03*
D28*
X420273250Y-132113500D03*
D27*
X417733250Y-127033500D03*
X411383250Y-129573500D03*
D29*
X415193250Y-132113500D03*
D28*
X410113250Y-132113500D03*
D29*
X229455750Y-151131750D03*
D28*
X234535750Y-151131750D03*
X224375750Y-151131750D03*
D27*
X231995750Y-146051750D03*
X225645750Y-148591750D03*
D28*
X277398250Y-65406750D03*
X267238250Y-65406750D03*
D27*
X274858250Y-60326750D03*
X268508250Y-62866750D03*
D29*
X272318250Y-65406750D03*
D36*
X290075000Y-37675000D03*
D37*
X297695000Y-37675000D03*
D27*
X355852500Y-107920000D03*
D28*
X358392500Y-113000000D03*
D29*
X353312500Y-113000000D03*
D27*
X349502500Y-110460000D03*
D28*
X348232500Y-113000000D03*
D29*
X372362500Y-65375000D03*
D27*
X374902500Y-60295000D03*
X368552500Y-62835000D03*
D28*
X377442500Y-65375000D03*
X367282500Y-65375000D03*
X339342500Y-65375000D03*
D29*
X334262500Y-65375000D03*
D27*
X336802500Y-60295000D03*
X330452500Y-62835000D03*
D28*
X329182500Y-65375000D03*
X219613250Y-132081750D03*
D27*
X220883250Y-129541750D03*
D28*
X229773250Y-132081750D03*
D27*
X227233250Y-127001750D03*
D29*
X224693250Y-132081750D03*
X415193250Y-151163500D03*
D27*
X417733250Y-146083500D03*
X411383250Y-148623500D03*
D28*
X410113250Y-151163500D03*
X420273250Y-151163500D03*
D27*
X280414500Y-186691750D03*
D28*
X279144500Y-189231750D03*
D29*
X284224500Y-189231750D03*
D28*
X289304500Y-189231750D03*
D27*
X286764500Y-184151750D03*
X222566000Y-79376750D03*
X216216000Y-81916750D03*
D29*
X220026000Y-84456750D03*
D28*
X214946000Y-84456750D03*
X225106000Y-84456750D03*
X458373250Y-113063500D03*
X448213250Y-113063500D03*
D29*
X453293250Y-113063500D03*
D27*
X455833250Y-107983500D03*
X449483250Y-110523500D03*
D28*
X41019500Y-189231750D03*
D27*
X48639500Y-184151750D03*
D28*
X51179500Y-189231750D03*
D29*
X46099500Y-189231750D03*
D27*
X42289500Y-186691750D03*
D29*
X272318250Y-113031750D03*
D27*
X268508250Y-110491750D03*
D28*
X267238250Y-113031750D03*
X277398250Y-113031750D03*
D27*
X274858250Y-107951750D03*
D28*
X305338250Y-84456750D03*
D27*
X306608250Y-81916750D03*
D28*
X315498250Y-84456750D03*
D27*
X312958250Y-79376750D03*
D29*
X310418250Y-84456750D03*
D27*
X178116000Y-81916750D03*
D28*
X187006000Y-84456750D03*
D27*
X184466000Y-79376750D03*
D28*
X176846000Y-84456750D03*
D29*
X181926000Y-84456750D03*
D28*
X313117000Y-189231750D03*
D27*
X310577000Y-184151750D03*
X304227000Y-186691750D03*
D29*
X308037000Y-189231750D03*
D28*
X302957000Y-189231750D03*
D29*
X72293250Y-132081750D03*
D27*
X74833250Y-127001750D03*
X68483250Y-129541750D03*
D28*
X77373250Y-132081750D03*
X67213250Y-132081750D03*
D27*
X46258250Y-107951750D03*
D28*
X38638250Y-113031750D03*
D27*
X39908250Y-110491750D03*
D28*
X48798250Y-113031750D03*
D29*
X43718250Y-113031750D03*
D27*
X197070750Y-167641750D03*
D28*
X205960750Y-170181750D03*
D27*
X203420750Y-165101750D03*
D28*
X195800750Y-170181750D03*
D29*
X200880750Y-170181750D03*
D27*
X58958250Y-110491750D03*
D28*
X57688250Y-113031750D03*
D29*
X62768250Y-113031750D03*
D27*
X65308250Y-107951750D03*
D28*
X67848250Y-113031750D03*
X377410750Y-189263500D03*
D27*
X374870750Y-184183500D03*
X368520750Y-186723500D03*
D28*
X367250750Y-189263500D03*
D29*
X372330750Y-189263500D03*
D36*
X305075000Y-37675000D03*
D37*
X312695000Y-37675000D03*
D28*
X367245000Y-170200000D03*
D29*
X372325000Y-170200000D03*
D28*
X377405000Y-170200000D03*
D27*
X374865000Y-165120000D03*
X368515000Y-167660000D03*
D28*
X119600750Y-170181750D03*
X129760750Y-170181750D03*
D29*
X124680750Y-170181750D03*
D27*
X120870750Y-167641750D03*
X127220750Y-165101750D03*
D28*
X157796000Y-84456750D03*
D27*
X165416000Y-79376750D03*
D28*
X167956000Y-84456750D03*
D29*
X162876000Y-84456750D03*
D27*
X159066000Y-81916750D03*
D29*
X110393250Y-84456750D03*
D27*
X112933250Y-79376750D03*
X106583250Y-81916750D03*
D28*
X105313250Y-84456750D03*
X115473250Y-84456750D03*
X401223250Y-132113500D03*
D27*
X392333250Y-129573500D03*
D29*
X396143250Y-132113500D03*
D27*
X398683250Y-127033500D03*
D28*
X391063250Y-132113500D03*
X248188250Y-113031750D03*
D27*
X255808250Y-107951750D03*
D28*
X258348250Y-113031750D03*
D27*
X249458250Y-110491750D03*
D29*
X253268250Y-113031750D03*
D27*
X78008250Y-110491750D03*
D28*
X86898250Y-113031750D03*
D27*
X84358250Y-107951750D03*
D29*
X81818250Y-113031750D03*
D28*
X76738250Y-113031750D03*
X86263250Y-132081750D03*
X96423250Y-132081750D03*
D29*
X91343250Y-132081750D03*
D27*
X87533250Y-129541750D03*
X93883250Y-127001750D03*
D29*
X334230750Y-189263500D03*
D27*
X336770750Y-184183500D03*
D28*
X329150750Y-189263500D03*
X339310750Y-189263500D03*
D27*
X330420750Y-186723500D03*
D28*
X262475750Y-151131750D03*
D27*
X270095750Y-146051750D03*
D29*
X267555750Y-151131750D03*
D28*
X272635750Y-151131750D03*
D27*
X263745750Y-148591750D03*
D28*
X429163250Y-170213500D03*
D27*
X436783250Y-165133500D03*
D28*
X439323250Y-170213500D03*
D27*
X430433250Y-167673500D03*
D29*
X434243250Y-170213500D03*
D28*
X241679500Y-189231750D03*
D29*
X236599500Y-189231750D03*
D27*
X232789500Y-186691750D03*
D28*
X231519500Y-189231750D03*
D27*
X239139500Y-184151750D03*
D28*
X134523250Y-65406750D03*
X124363250Y-65406750D03*
D29*
X129443250Y-65406750D03*
D27*
X125633250Y-62866750D03*
X131983250Y-60326750D03*
D29*
X91343250Y-65406750D03*
D27*
X87533250Y-62866750D03*
X93883250Y-60326750D03*
D28*
X86263250Y-65406750D03*
X96423250Y-65406750D03*
X367282500Y-113000000D03*
D29*
X372362500Y-113000000D03*
D28*
X377442500Y-113000000D03*
D27*
X374902500Y-107920000D03*
X368552500Y-110460000D03*
X89120750Y-165101750D03*
D28*
X81500750Y-170181750D03*
X91660750Y-170181750D03*
D29*
X86580750Y-170181750D03*
D27*
X82770750Y-167641750D03*
D28*
X186910750Y-170181750D03*
D27*
X178020750Y-167641750D03*
D28*
X176750750Y-170181750D03*
D29*
X181830750Y-170181750D03*
D27*
X184370750Y-165101750D03*
X79595750Y-146051750D03*
X73245750Y-148591750D03*
D28*
X71975750Y-151131750D03*
D29*
X77055750Y-151131750D03*
D28*
X82135750Y-151131750D03*
D27*
X430433250Y-129573500D03*
D29*
X434243250Y-132113500D03*
D28*
X429163250Y-132113500D03*
X439323250Y-132113500D03*
D27*
X436783250Y-127033500D03*
D29*
X393730250Y-197518500D03*
D27*
X408208250Y-184183500D03*
D28*
X400588250Y-189263500D03*
D29*
X405668250Y-189263500D03*
D28*
X410748250Y-189263500D03*
D29*
X417606250Y-197518500D03*
D27*
X401858250Y-186723500D03*
D30*
X417606250Y-182278500D03*
X393730250Y-182278500D03*
D28*
X120235750Y-151131750D03*
D27*
X117695750Y-146051750D03*
D28*
X110075750Y-151131750D03*
D29*
X115155750Y-151131750D03*
D27*
X111345750Y-148591750D03*
X296289500Y-165101750D03*
D29*
X281811500Y-178436750D03*
D27*
X289939500Y-167641750D03*
D29*
X305687500Y-178436750D03*
D28*
X298829500Y-170181750D03*
D30*
X305687500Y-163196750D03*
D29*
X293749500Y-170181750D03*
D28*
X288669500Y-170181750D03*
D30*
X281811500Y-163196750D03*
D28*
X367282500Y-132050000D03*
D27*
X374902500Y-126970000D03*
D28*
X377442500Y-132050000D03*
D27*
X368552500Y-129510000D03*
D29*
X372362500Y-132050000D03*
X200976000Y-65406750D03*
D27*
X203516000Y-60326750D03*
D28*
X195896000Y-65406750D03*
X206056000Y-65406750D03*
D27*
X197166000Y-62866750D03*
X212945750Y-146051750D03*
D28*
X205325750Y-151131750D03*
D27*
X206595750Y-148591750D03*
D28*
X215485750Y-151131750D03*
D29*
X210405750Y-151131750D03*
X434243250Y-189263500D03*
D27*
X430433250Y-186723500D03*
X436783250Y-184183500D03*
D28*
X429163250Y-189263500D03*
X439323250Y-189263500D03*
D27*
X336802500Y-79345000D03*
X330452500Y-81885000D03*
D28*
X329182500Y-84425000D03*
X339342500Y-84425000D03*
D29*
X334262500Y-84425000D03*
D27*
X355820750Y-184183500D03*
D28*
X348200750Y-189263500D03*
D29*
X353280750Y-189263500D03*
D28*
X358360750Y-189263500D03*
D27*
X349470750Y-186723500D03*
D28*
X191038250Y-113031750D03*
D29*
X196118250Y-113031750D03*
D27*
X198658250Y-107951750D03*
D28*
X201198250Y-113031750D03*
D27*
X192308250Y-110491750D03*
D29*
X105630750Y-170181750D03*
D28*
X110710750Y-170181750D03*
D27*
X101820750Y-167641750D03*
X108170750Y-165101750D03*
D28*
X100550750Y-170181750D03*
D27*
X336802500Y-126970000D03*
D28*
X339342500Y-132050000D03*
D29*
X334262500Y-132050000D03*
D27*
X330452500Y-129510000D03*
D28*
X329182500Y-132050000D03*
X348232500Y-65375000D03*
X358392500Y-65375000D03*
D27*
X349502500Y-62835000D03*
X355852500Y-60295000D03*
D29*
X353312500Y-65375000D03*
D27*
X97058250Y-110491750D03*
D29*
X100868250Y-113031750D03*
D28*
X105948250Y-113031750D03*
D27*
X103408250Y-107951750D03*
D28*
X95788250Y-113031750D03*
D27*
X349502500Y-43785000D03*
D28*
X348232500Y-46325000D03*
D29*
X353312500Y-46325000D03*
D27*
X355852500Y-41245000D03*
D28*
X358392500Y-46325000D03*
D25*
X234875000Y-80925000D03*
X236510600Y-58225500D03*
X377015000Y-88785000D03*
X236128200Y-57321800D03*
X58275000Y-97675000D03*
X378635000Y-70025000D03*
X147975000Y-88675000D03*
X329827500Y-195192500D03*
X282005000Y-157015000D03*
X57875000Y-96275000D03*
X283675000Y-105175000D03*
X134825000Y-69675000D03*
X273825000Y-178275000D03*
X329025000Y-176475000D03*
X155722576Y-72745265D03*
X235825000Y-83375000D03*
X455975000Y-116175000D03*
X59775000Y-71675000D03*
X450305000Y-144885000D03*
X246075000Y-91675000D03*
X250875000Y-178195000D03*
X236575000Y-82525000D03*
X233325000Y-80076250D03*
X58475000Y-94116420D03*
X154725000Y-86775000D03*
X391375000Y-118875000D03*
X234280378Y-80169622D03*
X298775000Y-93275000D03*
X448955000Y-185305000D03*
X313825000Y-157575000D03*
X226225000Y-88925000D03*
X248347000Y-98141000D03*
X291655000Y-157325000D03*
X274001000Y-126843000D03*
X232475000Y-70725000D03*
X240225000Y-70625000D03*
X39825000Y-116205000D03*
X209739000Y-83663000D03*
X148275000Y-59375000D03*
X377525000Y-176075000D03*
X55875000Y-55775000D03*
X242685000Y-88055000D03*
X59875000Y-100375000D03*
X227275000Y-70725000D03*
X230915000Y-88055000D03*
X166805000Y-91405000D03*
X257575000Y-91135000D03*
X135875000Y-72615000D03*
X381495000Y-95945000D03*
X276735000Y-91125000D03*
X262063000Y-67534000D03*
X264349000Y-115540000D03*
X338575000Y-176675000D03*
X228916000Y-116302000D03*
X323023000Y-126208000D03*
X143575000Y-71475000D03*
X240225000Y-71575000D03*
X295365000Y-135215000D03*
X230915000Y-99845000D03*
X190689000Y-83663000D03*
X242685000Y-99845000D03*
X148025000Y-86625000D03*
X240600000Y-81885000D03*
X247925000Y-69325000D03*
X243875000Y-102075000D03*
X297365000Y-138215000D03*
X185975000Y-91415000D03*
X287971000Y-175738000D03*
X381775000Y-44875000D03*
X246725000Y-69325000D03*
X143064000Y-72360000D03*
X429065000Y-117105000D03*
X204295000Y-91395000D03*
X226503000Y-83346500D03*
X293365000Y-138215000D03*
X230625000Y-104825000D03*
X381495000Y-94495000D03*
X148275000Y-60375000D03*
X148175000Y-92507500D03*
X382525000Y-43975000D03*
X135185000Y-74305000D03*
X224265000Y-90385000D03*
X264065000Y-176545000D03*
X295295000Y-91185000D03*
X290675000Y-158175000D03*
D38*
X286320000Y-97252000D03*
D25*
X148321800Y-36589600D03*
X141514600Y-46172600D03*
X143445000Y-46172600D03*
X143622800Y-36596800D03*
X143622800Y-35696800D03*
X148321800Y-35689600D03*
X142479800Y-46172600D03*
X144410200Y-46172600D03*
X237275000Y-64725000D03*
X136675000Y-56775000D03*
X237603422Y-58085822D03*
X154875000Y-54475000D03*
X237575000Y-80875000D03*
X47675000Y-93475000D03*
X65375000Y-94275000D03*
X315783000Y-75790000D03*
X154875000Y-73275000D03*
X324547000Y-57145400D03*
X134555000Y-76551000D03*
X407248400Y-107133600D03*
X378925000Y-76665000D03*
X388301000Y-107285000D03*
X323683400Y-78049600D03*
X309775000Y-103275000D03*
X426298400Y-107133600D03*
X212654997Y-104166237D03*
X214005000Y-124955000D03*
X214044769Y-142972000D03*
X212721991Y-103168982D03*
X232455000Y-105915000D03*
X310645000Y-181085000D03*
X243245000Y-173515000D03*
X323335000Y-180875000D03*
X95693000Y-95425000D03*
X115275000Y-95625000D03*
X133825000Y-95825000D03*
X148125000Y-95875000D03*
X225296505Y-103880673D03*
X234775000Y-105951500D03*
X252487200Y-107056400D03*
X272299200Y-106534700D03*
X337775000Y-103675000D03*
X356875000Y-103975000D03*
X360068872Y-93398872D03*
X242575000Y-63075000D03*
X251775500Y-94250501D03*
X230278378Y-84871622D03*
X226501218Y-87748782D03*
X225452189Y-96125000D03*
X242875000Y-76075000D03*
D39*
X231224500Y-45410600D03*
X228425000Y-83975000D03*
D25*
X256785000Y-102195000D03*
X266950000Y-104140000D03*
X246675000Y-98275000D03*
X248375980Y-88475000D03*
X227420464Y-101725464D03*
D39*
X228975000Y-75725000D03*
X146875000Y-74202500D03*
X146875000Y-75375000D03*
X141875000Y-100675000D03*
X157505000Y-74165000D03*
D25*
X257775000Y-102195000D03*
D39*
X144675000Y-97875000D03*
D25*
X239815000Y-84375000D03*
X238775000Y-72625000D03*
X45020000Y-134590000D03*
D39*
X58775000Y-73225000D03*
D25*
X51522000Y-196922000D03*
D39*
X37400000Y-89886000D03*
D25*
X158675000Y-72675000D03*
X311720000Y-116175000D03*
X296607000Y-117318000D03*
X317155000Y-139945000D03*
X141375000Y-65975000D03*
X37400000Y-95601000D03*
X392475000Y-43975000D03*
D39*
X58786000Y-87175000D03*
D25*
X159435000Y-77015000D03*
X439935000Y-121015000D03*
X452795000Y-124605000D03*
X40067000Y-157958000D03*
X49355000Y-121015000D03*
X43213021Y-172636979D03*
X85075000Y-95275000D03*
X215325000Y-96514020D03*
X244975020Y-101443364D03*
X216325000Y-96514031D03*
X245675000Y-102275000D03*
X165525000Y-96114500D03*
X246675000Y-102075000D03*
X214125000Y-98375500D03*
X214843400Y-162023000D03*
X63675000Y-100775000D03*
X241997000Y-72741000D03*
X247077000Y-88489000D03*
X247331000Y-72233000D03*
X326071000Y-55469000D03*
M02*
