%TF.GenerationSoftware,KiCad,Pcbnew,7.0.1*%
%TF.CreationDate,2023-04-01T22:43:57+02:00*%
%TF.ProjectId,berlin,6265726c-696e-42e6-9b69-6361645f7063,0.7*%
%TF.SameCoordinates,Original*%
%TF.FileFunction,Legend,Top*%
%TF.FilePolarity,Positive*%
%FSLAX46Y46*%
G04 Gerber Fmt 4.6, Leading zero omitted, Abs format (unit mm)*
G04 Created by KiCad (PCBNEW 7.0.1) date 2023-04-01 22:43:57*
%MOMM*%
%LPD*%
G01*
G04 APERTURE LIST*
G04 Aperture macros list*
%AMRoundRect*
0 Rectangle with rounded corners*
0 $1 Rounding radius*
0 $2 $3 $4 $5 $6 $7 $8 $9 X,Y pos of 4 corners*
0 Add a 4 corners polygon primitive as box body*
4,1,4,$2,$3,$4,$5,$6,$7,$8,$9,$2,$3,0*
0 Add four circle primitives for the rounded corners*
1,1,$1+$1,$2,$3*
1,1,$1+$1,$4,$5*
1,1,$1+$1,$6,$7*
1,1,$1+$1,$8,$9*
0 Add four rect primitives between the rounded corners*
20,1,$1+$1,$2,$3,$4,$5,0*
20,1,$1+$1,$4,$5,$6,$7,0*
20,1,$1+$1,$6,$7,$8,$9,0*
20,1,$1+$1,$8,$9,$2,$3,0*%
G04 Aperture macros list end*
%ADD10C,0.150000*%
%ADD11C,0.100000*%
%ADD12C,0.120000*%
%ADD13C,4.250000*%
%ADD14C,1.778000*%
%ADD15RoundRect,0.177800X-0.711200X-0.711200X0.711200X-0.711200X0.711200X0.711200X-0.711200X0.711200X0*%
%ADD16C,1.800000*%
%ADD17R,2.000000X2.000000*%
%ADD18C,2.000000*%
%ADD19R,4.000000X3.000000*%
%ADD20R,3.000000X4.000000*%
%ADD21C,1.596000*%
%ADD22R,1.750000X1.750000*%
%ADD23C,1.750000*%
%ADD24C,2.700000*%
%ADD25C,0.800000*%
%ADD26C,7.000000*%
%ADD27C,3.600000*%
%ADD28C,1.701800*%
%ADD29C,3.987800*%
%ADD30C,3.048000*%
%ADD31C,0.650000*%
%ADD32O,1.100000X2.200000*%
%ADD33O,1.300000X1.900000*%
%ADD34R,1.524000X1.524000*%
%ADD35O,1.524000X1.524000*%
%ADD36C,1.600000*%
%ADD37O,1.600000X1.600000*%
%ADD38C,1.000000*%
%ADD39C,1.200000*%
G04 APERTURE END LIST*
D10*
X386322619Y-103500238D02*
X386322619Y-101500238D01*
X386322619Y-101500238D02*
X387465476Y-103500238D01*
X387465476Y-103500238D02*
X387465476Y-101500238D01*
X388417857Y-103500238D02*
X388417857Y-101500238D01*
X388417857Y-102452619D02*
X389560714Y-102452619D01*
X389560714Y-103500238D02*
X389560714Y-101500238D01*
X390513095Y-103500238D02*
X390513095Y-101500238D01*
X390513095Y-101500238D02*
X390989285Y-101500238D01*
X390989285Y-101500238D02*
X391275000Y-101595476D01*
X391275000Y-101595476D02*
X391465476Y-101785952D01*
X391465476Y-101785952D02*
X391560714Y-101976428D01*
X391560714Y-101976428D02*
X391655952Y-102357380D01*
X391655952Y-102357380D02*
X391655952Y-102643095D01*
X391655952Y-102643095D02*
X391560714Y-103024047D01*
X391560714Y-103024047D02*
X391465476Y-103214523D01*
X391465476Y-103214523D02*
X391275000Y-103405000D01*
X391275000Y-103405000D02*
X390989285Y-103500238D01*
X390989285Y-103500238D02*
X390513095Y-103500238D01*
X392513095Y-102738333D02*
X394036905Y-102738333D01*
X394798809Y-101500238D02*
X396036904Y-101500238D01*
X396036904Y-101500238D02*
X395370237Y-102262142D01*
X395370237Y-102262142D02*
X395655952Y-102262142D01*
X395655952Y-102262142D02*
X395846428Y-102357380D01*
X395846428Y-102357380D02*
X395941666Y-102452619D01*
X395941666Y-102452619D02*
X396036904Y-102643095D01*
X396036904Y-102643095D02*
X396036904Y-103119285D01*
X396036904Y-103119285D02*
X395941666Y-103309761D01*
X395941666Y-103309761D02*
X395846428Y-103405000D01*
X395846428Y-103405000D02*
X395655952Y-103500238D01*
X395655952Y-103500238D02*
X395084523Y-103500238D01*
X395084523Y-103500238D02*
X394894047Y-103405000D01*
X394894047Y-103405000D02*
X394798809Y-103309761D01*
X396894047Y-103309761D02*
X396989285Y-103405000D01*
X396989285Y-103405000D02*
X396894047Y-103500238D01*
X396894047Y-103500238D02*
X396798809Y-103405000D01*
X396798809Y-103405000D02*
X396894047Y-103309761D01*
X396894047Y-103309761D02*
X396894047Y-103500238D01*
X398798809Y-101500238D02*
X397846428Y-101500238D01*
X397846428Y-101500238D02*
X397751190Y-102452619D01*
X397751190Y-102452619D02*
X397846428Y-102357380D01*
X397846428Y-102357380D02*
X398036904Y-102262142D01*
X398036904Y-102262142D02*
X398513095Y-102262142D01*
X398513095Y-102262142D02*
X398703571Y-102357380D01*
X398703571Y-102357380D02*
X398798809Y-102452619D01*
X398798809Y-102452619D02*
X398894047Y-102643095D01*
X398894047Y-102643095D02*
X398894047Y-103119285D01*
X398894047Y-103119285D02*
X398798809Y-103309761D01*
X398798809Y-103309761D02*
X398703571Y-103405000D01*
X398703571Y-103405000D02*
X398513095Y-103500238D01*
X398513095Y-103500238D02*
X398036904Y-103500238D01*
X398036904Y-103500238D02*
X397846428Y-103405000D01*
X397846428Y-103405000D02*
X397751190Y-103309761D01*
X399751190Y-102738333D02*
X401275000Y-102738333D01*
X402036904Y-101500238D02*
X403274999Y-101500238D01*
X403274999Y-101500238D02*
X402608332Y-102262142D01*
X402608332Y-102262142D02*
X402894047Y-102262142D01*
X402894047Y-102262142D02*
X403084523Y-102357380D01*
X403084523Y-102357380D02*
X403179761Y-102452619D01*
X403179761Y-102452619D02*
X403274999Y-102643095D01*
X403274999Y-102643095D02*
X403274999Y-103119285D01*
X403274999Y-103119285D02*
X403179761Y-103309761D01*
X403179761Y-103309761D02*
X403084523Y-103405000D01*
X403084523Y-103405000D02*
X402894047Y-103500238D01*
X402894047Y-103500238D02*
X402322618Y-103500238D01*
X402322618Y-103500238D02*
X402132142Y-103405000D01*
X402132142Y-103405000D02*
X402036904Y-103309761D01*
X404036904Y-101690714D02*
X404132142Y-101595476D01*
X404132142Y-101595476D02*
X404322618Y-101500238D01*
X404322618Y-101500238D02*
X404798809Y-101500238D01*
X404798809Y-101500238D02*
X404989285Y-101595476D01*
X404989285Y-101595476D02*
X405084523Y-101690714D01*
X405084523Y-101690714D02*
X405179761Y-101881190D01*
X405179761Y-101881190D02*
X405179761Y-102071666D01*
X405179761Y-102071666D02*
X405084523Y-102357380D01*
X405084523Y-102357380D02*
X403941666Y-103500238D01*
X403941666Y-103500238D02*
X405179761Y-103500238D01*
X406417856Y-101500238D02*
X406608333Y-101500238D01*
X406608333Y-101500238D02*
X406798809Y-101595476D01*
X406798809Y-101595476D02*
X406894047Y-101690714D01*
X406894047Y-101690714D02*
X406989285Y-101881190D01*
X406989285Y-101881190D02*
X407084523Y-102262142D01*
X407084523Y-102262142D02*
X407084523Y-102738333D01*
X407084523Y-102738333D02*
X406989285Y-103119285D01*
X406989285Y-103119285D02*
X406894047Y-103309761D01*
X406894047Y-103309761D02*
X406798809Y-103405000D01*
X406798809Y-103405000D02*
X406608333Y-103500238D01*
X406608333Y-103500238D02*
X406417856Y-103500238D01*
X406417856Y-103500238D02*
X406227380Y-103405000D01*
X406227380Y-103405000D02*
X406132142Y-103309761D01*
X406132142Y-103309761D02*
X406036904Y-103119285D01*
X406036904Y-103119285D02*
X405941666Y-102738333D01*
X405941666Y-102738333D02*
X405941666Y-102262142D01*
X405941666Y-102262142D02*
X406036904Y-101881190D01*
X406036904Y-101881190D02*
X406132142Y-101690714D01*
X406132142Y-101690714D02*
X406227380Y-101595476D01*
X406227380Y-101595476D02*
X406417856Y-101500238D01*
X407846428Y-101690714D02*
X407941666Y-101595476D01*
X407941666Y-101595476D02*
X408132142Y-101500238D01*
X408132142Y-101500238D02*
X408608333Y-101500238D01*
X408608333Y-101500238D02*
X408798809Y-101595476D01*
X408798809Y-101595476D02*
X408894047Y-101690714D01*
X408894047Y-101690714D02*
X408989285Y-101881190D01*
X408989285Y-101881190D02*
X408989285Y-102071666D01*
X408989285Y-102071666D02*
X408894047Y-102357380D01*
X408894047Y-102357380D02*
X407751190Y-103500238D01*
X407751190Y-103500238D02*
X408989285Y-103500238D01*
X410703571Y-102166904D02*
X410703571Y-103500238D01*
X410227380Y-101405000D02*
X409751190Y-102833571D01*
X409751190Y-102833571D02*
X410989285Y-102833571D01*
X412132142Y-101500238D02*
X412322619Y-101500238D01*
X412322619Y-101500238D02*
X412513095Y-101595476D01*
X412513095Y-101595476D02*
X412608333Y-101690714D01*
X412608333Y-101690714D02*
X412703571Y-101881190D01*
X412703571Y-101881190D02*
X412798809Y-102262142D01*
X412798809Y-102262142D02*
X412798809Y-102738333D01*
X412798809Y-102738333D02*
X412703571Y-103119285D01*
X412703571Y-103119285D02*
X412608333Y-103309761D01*
X412608333Y-103309761D02*
X412513095Y-103405000D01*
X412513095Y-103405000D02*
X412322619Y-103500238D01*
X412322619Y-103500238D02*
X412132142Y-103500238D01*
X412132142Y-103500238D02*
X411941666Y-103405000D01*
X411941666Y-103405000D02*
X411846428Y-103309761D01*
X411846428Y-103309761D02*
X411751190Y-103119285D01*
X411751190Y-103119285D02*
X411655952Y-102738333D01*
X411655952Y-102738333D02*
X411655952Y-102262142D01*
X411655952Y-102262142D02*
X411751190Y-101881190D01*
X411751190Y-101881190D02*
X411846428Y-101690714D01*
X411846428Y-101690714D02*
X411941666Y-101595476D01*
X411941666Y-101595476D02*
X412132142Y-101500238D01*
X414322619Y-102452619D02*
X413655952Y-102452619D01*
X413655952Y-103500238D02*
X413655952Y-101500238D01*
X413655952Y-101500238D02*
X414608333Y-101500238D01*
X415084524Y-101500238D02*
X416227381Y-101500238D01*
X415655952Y-103500238D02*
X415655952Y-101500238D01*
X416894048Y-102738333D02*
X418417858Y-102738333D01*
X420513095Y-103309761D02*
X420417857Y-103405000D01*
X420417857Y-103405000D02*
X420132143Y-103500238D01*
X420132143Y-103500238D02*
X419941667Y-103500238D01*
X419941667Y-103500238D02*
X419655952Y-103405000D01*
X419655952Y-103405000D02*
X419465476Y-103214523D01*
X419465476Y-103214523D02*
X419370238Y-103024047D01*
X419370238Y-103024047D02*
X419275000Y-102643095D01*
X419275000Y-102643095D02*
X419275000Y-102357380D01*
X419275000Y-102357380D02*
X419370238Y-101976428D01*
X419370238Y-101976428D02*
X419465476Y-101785952D01*
X419465476Y-101785952D02*
X419655952Y-101595476D01*
X419655952Y-101595476D02*
X419941667Y-101500238D01*
X419941667Y-101500238D02*
X420132143Y-101500238D01*
X420132143Y-101500238D02*
X420417857Y-101595476D01*
X420417857Y-101595476D02*
X420513095Y-101690714D01*
X421275000Y-103405000D02*
X421560714Y-103500238D01*
X421560714Y-103500238D02*
X422036905Y-103500238D01*
X422036905Y-103500238D02*
X422227381Y-103405000D01*
X422227381Y-103405000D02*
X422322619Y-103309761D01*
X422322619Y-103309761D02*
X422417857Y-103119285D01*
X422417857Y-103119285D02*
X422417857Y-102928809D01*
X422417857Y-102928809D02*
X422322619Y-102738333D01*
X422322619Y-102738333D02*
X422227381Y-102643095D01*
X422227381Y-102643095D02*
X422036905Y-102547857D01*
X422036905Y-102547857D02*
X421655952Y-102452619D01*
X421655952Y-102452619D02*
X421465476Y-102357380D01*
X421465476Y-102357380D02*
X421370238Y-102262142D01*
X421370238Y-102262142D02*
X421275000Y-102071666D01*
X421275000Y-102071666D02*
X421275000Y-101881190D01*
X421275000Y-101881190D02*
X421370238Y-101690714D01*
X421370238Y-101690714D02*
X421465476Y-101595476D01*
X421465476Y-101595476D02*
X421655952Y-101500238D01*
X421655952Y-101500238D02*
X422132143Y-101500238D01*
X422132143Y-101500238D02*
X422417857Y-101595476D01*
X423084524Y-101500238D02*
X424417857Y-103500238D01*
X424417857Y-101500238D02*
X423084524Y-103500238D01*
X425179762Y-103500238D02*
X425179762Y-101500238D01*
X425179762Y-101500238D02*
X425941667Y-101500238D01*
X425941667Y-101500238D02*
X426132143Y-101595476D01*
X426132143Y-101595476D02*
X426227381Y-101690714D01*
X426227381Y-101690714D02*
X426322619Y-101881190D01*
X426322619Y-101881190D02*
X426322619Y-102166904D01*
X426322619Y-102166904D02*
X426227381Y-102357380D01*
X426227381Y-102357380D02*
X426132143Y-102452619D01*
X426132143Y-102452619D02*
X425941667Y-102547857D01*
X425941667Y-102547857D02*
X425179762Y-102547857D01*
X427179762Y-102738333D02*
X428703572Y-102738333D01*
X429370238Y-101500238D02*
X430513095Y-101500238D01*
X429941666Y-103500238D02*
X429941666Y-101500238D01*
D11*
X394383214Y-77867856D02*
X394383214Y-78367856D01*
X395168928Y-78367856D02*
X393668928Y-78367856D01*
X393668928Y-78367856D02*
X393668928Y-77653570D01*
X394383214Y-76582142D02*
X394383214Y-77082142D01*
X395168928Y-77082142D02*
X393668928Y-77082142D01*
X393668928Y-77082142D02*
X393668928Y-76367856D01*
X395026071Y-74939285D02*
X395097500Y-75010713D01*
X395097500Y-75010713D02*
X395168928Y-75224999D01*
X395168928Y-75224999D02*
X395168928Y-75367856D01*
X395168928Y-75367856D02*
X395097500Y-75582142D01*
X395097500Y-75582142D02*
X394954642Y-75724999D01*
X394954642Y-75724999D02*
X394811785Y-75796428D01*
X394811785Y-75796428D02*
X394526071Y-75867856D01*
X394526071Y-75867856D02*
X394311785Y-75867856D01*
X394311785Y-75867856D02*
X394026071Y-75796428D01*
X394026071Y-75796428D02*
X393883214Y-75724999D01*
X393883214Y-75724999D02*
X393740357Y-75582142D01*
X393740357Y-75582142D02*
X393668928Y-75367856D01*
X393668928Y-75367856D02*
X393668928Y-75224999D01*
X393668928Y-75224999D02*
X393740357Y-75010713D01*
X393740357Y-75010713D02*
X393811785Y-74939285D01*
X395026071Y-72296428D02*
X395097500Y-72367856D01*
X395097500Y-72367856D02*
X395168928Y-72582142D01*
X395168928Y-72582142D02*
X395168928Y-72724999D01*
X395168928Y-72724999D02*
X395097500Y-72939285D01*
X395097500Y-72939285D02*
X394954642Y-73082142D01*
X394954642Y-73082142D02*
X394811785Y-73153571D01*
X394811785Y-73153571D02*
X394526071Y-73224999D01*
X394526071Y-73224999D02*
X394311785Y-73224999D01*
X394311785Y-73224999D02*
X394026071Y-73153571D01*
X394026071Y-73153571D02*
X393883214Y-73082142D01*
X393883214Y-73082142D02*
X393740357Y-72939285D01*
X393740357Y-72939285D02*
X393668928Y-72724999D01*
X393668928Y-72724999D02*
X393668928Y-72582142D01*
X393668928Y-72582142D02*
X393740357Y-72367856D01*
X393740357Y-72367856D02*
X393811785Y-72296428D01*
X395168928Y-71010714D02*
X394383214Y-71010714D01*
X394383214Y-71010714D02*
X394240357Y-71082142D01*
X394240357Y-71082142D02*
X394168928Y-71224999D01*
X394168928Y-71224999D02*
X394168928Y-71510714D01*
X394168928Y-71510714D02*
X394240357Y-71653571D01*
X395097500Y-71010714D02*
X395168928Y-71153571D01*
X395168928Y-71153571D02*
X395168928Y-71510714D01*
X395168928Y-71510714D02*
X395097500Y-71653571D01*
X395097500Y-71653571D02*
X394954642Y-71724999D01*
X394954642Y-71724999D02*
X394811785Y-71724999D01*
X394811785Y-71724999D02*
X394668928Y-71653571D01*
X394668928Y-71653571D02*
X394597500Y-71510714D01*
X394597500Y-71510714D02*
X394597500Y-71153571D01*
X394597500Y-71153571D02*
X394526071Y-71010714D01*
X395168928Y-70296428D02*
X393668928Y-70296428D01*
X394240357Y-70296428D02*
X394168928Y-70153571D01*
X394168928Y-70153571D02*
X394168928Y-69867856D01*
X394168928Y-69867856D02*
X394240357Y-69724999D01*
X394240357Y-69724999D02*
X394311785Y-69653571D01*
X394311785Y-69653571D02*
X394454642Y-69582142D01*
X394454642Y-69582142D02*
X394883214Y-69582142D01*
X394883214Y-69582142D02*
X395026071Y-69653571D01*
X395026071Y-69653571D02*
X395097500Y-69724999D01*
X395097500Y-69724999D02*
X395168928Y-69867856D01*
X395168928Y-69867856D02*
X395168928Y-70153571D01*
X395168928Y-70153571D02*
X395097500Y-70296428D01*
X395168928Y-68724999D02*
X395097500Y-68867856D01*
X395097500Y-68867856D02*
X394954642Y-68939285D01*
X394954642Y-68939285D02*
X393668928Y-68939285D01*
X395097500Y-67582142D02*
X395168928Y-67724999D01*
X395168928Y-67724999D02*
X395168928Y-68010714D01*
X395168928Y-68010714D02*
X395097500Y-68153571D01*
X395097500Y-68153571D02*
X394954642Y-68224999D01*
X394954642Y-68224999D02*
X394383214Y-68224999D01*
X394383214Y-68224999D02*
X394240357Y-68153571D01*
X394240357Y-68153571D02*
X394168928Y-68010714D01*
X394168928Y-68010714D02*
X394168928Y-67724999D01*
X394168928Y-67724999D02*
X394240357Y-67582142D01*
X394240357Y-67582142D02*
X394383214Y-67510714D01*
X394383214Y-67510714D02*
X394526071Y-67510714D01*
X394526071Y-67510714D02*
X394668928Y-68224999D01*
X395168928Y-65725000D02*
X394168928Y-65725000D01*
X394454642Y-65725000D02*
X394311785Y-65653571D01*
X394311785Y-65653571D02*
X394240357Y-65582143D01*
X394240357Y-65582143D02*
X394168928Y-65439285D01*
X394168928Y-65439285D02*
X394168928Y-65296428D01*
X395168928Y-64582143D02*
X395097500Y-64725000D01*
X395097500Y-64725000D02*
X395026071Y-64796429D01*
X395026071Y-64796429D02*
X394883214Y-64867857D01*
X394883214Y-64867857D02*
X394454642Y-64867857D01*
X394454642Y-64867857D02*
X394311785Y-64796429D01*
X394311785Y-64796429D02*
X394240357Y-64725000D01*
X394240357Y-64725000D02*
X394168928Y-64582143D01*
X394168928Y-64582143D02*
X394168928Y-64367857D01*
X394168928Y-64367857D02*
X394240357Y-64225000D01*
X394240357Y-64225000D02*
X394311785Y-64153572D01*
X394311785Y-64153572D02*
X394454642Y-64082143D01*
X394454642Y-64082143D02*
X394883214Y-64082143D01*
X394883214Y-64082143D02*
X395026071Y-64153572D01*
X395026071Y-64153572D02*
X395097500Y-64225000D01*
X395097500Y-64225000D02*
X395168928Y-64367857D01*
X395168928Y-64367857D02*
X395168928Y-64582143D01*
X394168928Y-62796429D02*
X395168928Y-62796429D01*
X394168928Y-63439286D02*
X394954642Y-63439286D01*
X394954642Y-63439286D02*
X395097500Y-63367857D01*
X395097500Y-63367857D02*
X395168928Y-63225000D01*
X395168928Y-63225000D02*
X395168928Y-63010714D01*
X395168928Y-63010714D02*
X395097500Y-62867857D01*
X395097500Y-62867857D02*
X395026071Y-62796429D01*
X394168928Y-62296428D02*
X394168928Y-61725000D01*
X393668928Y-62082143D02*
X394954642Y-62082143D01*
X394954642Y-62082143D02*
X395097500Y-62010714D01*
X395097500Y-62010714D02*
X395168928Y-61867857D01*
X395168928Y-61867857D02*
X395168928Y-61725000D01*
X395168928Y-61225000D02*
X394168928Y-61225000D01*
X393668928Y-61225000D02*
X393740357Y-61296428D01*
X393740357Y-61296428D02*
X393811785Y-61225000D01*
X393811785Y-61225000D02*
X393740357Y-61153571D01*
X393740357Y-61153571D02*
X393668928Y-61225000D01*
X393668928Y-61225000D02*
X393811785Y-61225000D01*
X394168928Y-60510714D02*
X395168928Y-60510714D01*
X394311785Y-60510714D02*
X394240357Y-60439285D01*
X394240357Y-60439285D02*
X394168928Y-60296428D01*
X394168928Y-60296428D02*
X394168928Y-60082142D01*
X394168928Y-60082142D02*
X394240357Y-59939285D01*
X394240357Y-59939285D02*
X394383214Y-59867857D01*
X394383214Y-59867857D02*
X395168928Y-59867857D01*
X394168928Y-58510714D02*
X395383214Y-58510714D01*
X395383214Y-58510714D02*
X395526071Y-58582142D01*
X395526071Y-58582142D02*
X395597500Y-58653571D01*
X395597500Y-58653571D02*
X395668928Y-58796428D01*
X395668928Y-58796428D02*
X395668928Y-59010714D01*
X395668928Y-59010714D02*
X395597500Y-59153571D01*
X395097500Y-58510714D02*
X395168928Y-58653571D01*
X395168928Y-58653571D02*
X395168928Y-58939285D01*
X395168928Y-58939285D02*
X395097500Y-59082142D01*
X395097500Y-59082142D02*
X395026071Y-59153571D01*
X395026071Y-59153571D02*
X394883214Y-59224999D01*
X394883214Y-59224999D02*
X394454642Y-59224999D01*
X394454642Y-59224999D02*
X394311785Y-59153571D01*
X394311785Y-59153571D02*
X394240357Y-59082142D01*
X394240357Y-59082142D02*
X394168928Y-58939285D01*
X394168928Y-58939285D02*
X394168928Y-58653571D01*
X394168928Y-58653571D02*
X394240357Y-58510714D01*
X395168928Y-56653571D02*
X393668928Y-56653571D01*
X395168928Y-56010714D02*
X394383214Y-56010714D01*
X394383214Y-56010714D02*
X394240357Y-56082142D01*
X394240357Y-56082142D02*
X394168928Y-56224999D01*
X394168928Y-56224999D02*
X394168928Y-56439285D01*
X394168928Y-56439285D02*
X394240357Y-56582142D01*
X394240357Y-56582142D02*
X394311785Y-56653571D01*
X395168928Y-55082142D02*
X395097500Y-55224999D01*
X395097500Y-55224999D02*
X395026071Y-55296428D01*
X395026071Y-55296428D02*
X394883214Y-55367856D01*
X394883214Y-55367856D02*
X394454642Y-55367856D01*
X394454642Y-55367856D02*
X394311785Y-55296428D01*
X394311785Y-55296428D02*
X394240357Y-55224999D01*
X394240357Y-55224999D02*
X394168928Y-55082142D01*
X394168928Y-55082142D02*
X394168928Y-54867856D01*
X394168928Y-54867856D02*
X394240357Y-54724999D01*
X394240357Y-54724999D02*
X394311785Y-54653571D01*
X394311785Y-54653571D02*
X394454642Y-54582142D01*
X394454642Y-54582142D02*
X394883214Y-54582142D01*
X394883214Y-54582142D02*
X395026071Y-54653571D01*
X395026071Y-54653571D02*
X395097500Y-54724999D01*
X395097500Y-54724999D02*
X395168928Y-54867856D01*
X395168928Y-54867856D02*
X395168928Y-55082142D01*
X395168928Y-53724999D02*
X395097500Y-53867856D01*
X395097500Y-53867856D02*
X394954642Y-53939285D01*
X394954642Y-53939285D02*
X393668928Y-53939285D01*
X395097500Y-52582142D02*
X395168928Y-52724999D01*
X395168928Y-52724999D02*
X395168928Y-53010714D01*
X395168928Y-53010714D02*
X395097500Y-53153571D01*
X395097500Y-53153571D02*
X394954642Y-53224999D01*
X394954642Y-53224999D02*
X394383214Y-53224999D01*
X394383214Y-53224999D02*
X394240357Y-53153571D01*
X394240357Y-53153571D02*
X394168928Y-53010714D01*
X394168928Y-53010714D02*
X394168928Y-52724999D01*
X394168928Y-52724999D02*
X394240357Y-52582142D01*
X394240357Y-52582142D02*
X394383214Y-52510714D01*
X394383214Y-52510714D02*
X394526071Y-52510714D01*
X394526071Y-52510714D02*
X394668928Y-53224999D01*
D10*
%TO.C,SW1\u002C16*%
X364148191Y-38590000D02*
X364291048Y-38637619D01*
X364291048Y-38637619D02*
X364529143Y-38637619D01*
X364529143Y-38637619D02*
X364624381Y-38590000D01*
X364624381Y-38590000D02*
X364672000Y-38542380D01*
X364672000Y-38542380D02*
X364719619Y-38447142D01*
X364719619Y-38447142D02*
X364719619Y-38351904D01*
X364719619Y-38351904D02*
X364672000Y-38256666D01*
X364672000Y-38256666D02*
X364624381Y-38209047D01*
X364624381Y-38209047D02*
X364529143Y-38161428D01*
X364529143Y-38161428D02*
X364338667Y-38113809D01*
X364338667Y-38113809D02*
X364243429Y-38066190D01*
X364243429Y-38066190D02*
X364195810Y-38018571D01*
X364195810Y-38018571D02*
X364148191Y-37923333D01*
X364148191Y-37923333D02*
X364148191Y-37828095D01*
X364148191Y-37828095D02*
X364195810Y-37732857D01*
X364195810Y-37732857D02*
X364243429Y-37685238D01*
X364243429Y-37685238D02*
X364338667Y-37637619D01*
X364338667Y-37637619D02*
X364576762Y-37637619D01*
X364576762Y-37637619D02*
X364719619Y-37685238D01*
X365052953Y-37637619D02*
X365291048Y-38637619D01*
X365291048Y-38637619D02*
X365481524Y-37923333D01*
X365481524Y-37923333D02*
X365672000Y-38637619D01*
X365672000Y-38637619D02*
X365910096Y-37637619D01*
X366814857Y-38637619D02*
X366243429Y-38637619D01*
X366529143Y-38637619D02*
X366529143Y-37637619D01*
X366529143Y-37637619D02*
X366433905Y-37780476D01*
X366433905Y-37780476D02*
X366338667Y-37875714D01*
X366338667Y-37875714D02*
X366243429Y-37923333D01*
X367291048Y-38590000D02*
X367291048Y-38637619D01*
X367291048Y-38637619D02*
X367243429Y-38732857D01*
X367243429Y-38732857D02*
X367195810Y-38780476D01*
X368243428Y-38637619D02*
X367672000Y-38637619D01*
X367957714Y-38637619D02*
X367957714Y-37637619D01*
X367957714Y-37637619D02*
X367862476Y-37780476D01*
X367862476Y-37780476D02*
X367767238Y-37875714D01*
X367767238Y-37875714D02*
X367672000Y-37923333D01*
X369100571Y-37637619D02*
X368910095Y-37637619D01*
X368910095Y-37637619D02*
X368814857Y-37685238D01*
X368814857Y-37685238D02*
X368767238Y-37732857D01*
X368767238Y-37732857D02*
X368672000Y-37875714D01*
X368672000Y-37875714D02*
X368624381Y-38066190D01*
X368624381Y-38066190D02*
X368624381Y-38447142D01*
X368624381Y-38447142D02*
X368672000Y-38542380D01*
X368672000Y-38542380D02*
X368719619Y-38590000D01*
X368719619Y-38590000D02*
X368814857Y-38637619D01*
X368814857Y-38637619D02*
X369005333Y-38637619D01*
X369005333Y-38637619D02*
X369100571Y-38590000D01*
X369100571Y-38590000D02*
X369148190Y-38542380D01*
X369148190Y-38542380D02*
X369195809Y-38447142D01*
X369195809Y-38447142D02*
X369195809Y-38209047D01*
X369195809Y-38209047D02*
X369148190Y-38113809D01*
X369148190Y-38113809D02*
X369100571Y-38066190D01*
X369100571Y-38066190D02*
X369005333Y-38018571D01*
X369005333Y-38018571D02*
X368814857Y-38018571D01*
X368814857Y-38018571D02*
X368719619Y-38066190D01*
X368719619Y-38066190D02*
X368672000Y-38113809D01*
X368672000Y-38113809D02*
X368624381Y-38209047D01*
%TO.C,SW1\u002C1*%
X52315000Y-49730618D02*
X52362619Y-49587761D01*
X52362619Y-49587761D02*
X52362619Y-49349666D01*
X52362619Y-49349666D02*
X52315000Y-49254428D01*
X52315000Y-49254428D02*
X52267380Y-49206809D01*
X52267380Y-49206809D02*
X52172142Y-49159190D01*
X52172142Y-49159190D02*
X52076904Y-49159190D01*
X52076904Y-49159190D02*
X51981666Y-49206809D01*
X51981666Y-49206809D02*
X51934047Y-49254428D01*
X51934047Y-49254428D02*
X51886428Y-49349666D01*
X51886428Y-49349666D02*
X51838809Y-49540142D01*
X51838809Y-49540142D02*
X51791190Y-49635380D01*
X51791190Y-49635380D02*
X51743571Y-49682999D01*
X51743571Y-49682999D02*
X51648333Y-49730618D01*
X51648333Y-49730618D02*
X51553095Y-49730618D01*
X51553095Y-49730618D02*
X51457857Y-49682999D01*
X51457857Y-49682999D02*
X51410238Y-49635380D01*
X51410238Y-49635380D02*
X51362619Y-49540142D01*
X51362619Y-49540142D02*
X51362619Y-49302047D01*
X51362619Y-49302047D02*
X51410238Y-49159190D01*
X51362619Y-48825856D02*
X52362619Y-48587761D01*
X52362619Y-48587761D02*
X51648333Y-48397285D01*
X51648333Y-48397285D02*
X52362619Y-48206809D01*
X52362619Y-48206809D02*
X51362619Y-47968714D01*
X52362619Y-47063952D02*
X52362619Y-47635380D01*
X52362619Y-47349666D02*
X51362619Y-47349666D01*
X51362619Y-47349666D02*
X51505476Y-47444904D01*
X51505476Y-47444904D02*
X51600714Y-47540142D01*
X51600714Y-47540142D02*
X51648333Y-47635380D01*
X52315000Y-46587761D02*
X52362619Y-46587761D01*
X52362619Y-46587761D02*
X52457857Y-46635380D01*
X52457857Y-46635380D02*
X52505476Y-46682999D01*
X52362619Y-45635381D02*
X52362619Y-46206809D01*
X52362619Y-45921095D02*
X51362619Y-45921095D01*
X51362619Y-45921095D02*
X51505476Y-46016333D01*
X51505476Y-46016333D02*
X51600714Y-46111571D01*
X51600714Y-46111571D02*
X51648333Y-46206809D01*
%TO.C,HA201*%
X33532143Y-35537619D02*
X33532143Y-34537619D01*
X33532143Y-35013809D02*
X34103571Y-35013809D01*
X34103571Y-35537619D02*
X34103571Y-34537619D01*
X34532143Y-35251904D02*
X35008333Y-35251904D01*
X34436905Y-35537619D02*
X34770238Y-34537619D01*
X34770238Y-34537619D02*
X35103571Y-35537619D01*
X35389286Y-34632857D02*
X35436905Y-34585238D01*
X35436905Y-34585238D02*
X35532143Y-34537619D01*
X35532143Y-34537619D02*
X35770238Y-34537619D01*
X35770238Y-34537619D02*
X35865476Y-34585238D01*
X35865476Y-34585238D02*
X35913095Y-34632857D01*
X35913095Y-34632857D02*
X35960714Y-34728095D01*
X35960714Y-34728095D02*
X35960714Y-34823333D01*
X35960714Y-34823333D02*
X35913095Y-34966190D01*
X35913095Y-34966190D02*
X35341667Y-35537619D01*
X35341667Y-35537619D02*
X35960714Y-35537619D01*
X36579762Y-34537619D02*
X36675000Y-34537619D01*
X36675000Y-34537619D02*
X36770238Y-34585238D01*
X36770238Y-34585238D02*
X36817857Y-34632857D01*
X36817857Y-34632857D02*
X36865476Y-34728095D01*
X36865476Y-34728095D02*
X36913095Y-34918571D01*
X36913095Y-34918571D02*
X36913095Y-35156666D01*
X36913095Y-35156666D02*
X36865476Y-35347142D01*
X36865476Y-35347142D02*
X36817857Y-35442380D01*
X36817857Y-35442380D02*
X36770238Y-35490000D01*
X36770238Y-35490000D02*
X36675000Y-35537619D01*
X36675000Y-35537619D02*
X36579762Y-35537619D01*
X36579762Y-35537619D02*
X36484524Y-35490000D01*
X36484524Y-35490000D02*
X36436905Y-35442380D01*
X36436905Y-35442380D02*
X36389286Y-35347142D01*
X36389286Y-35347142D02*
X36341667Y-35156666D01*
X36341667Y-35156666D02*
X36341667Y-34918571D01*
X36341667Y-34918571D02*
X36389286Y-34728095D01*
X36389286Y-34728095D02*
X36436905Y-34632857D01*
X36436905Y-34632857D02*
X36484524Y-34585238D01*
X36484524Y-34585238D02*
X36579762Y-34537619D01*
X37865476Y-35537619D02*
X37294048Y-35537619D01*
X37579762Y-35537619D02*
X37579762Y-34537619D01*
X37579762Y-34537619D02*
X37484524Y-34680476D01*
X37484524Y-34680476D02*
X37389286Y-34775714D01*
X37389286Y-34775714D02*
X37294048Y-34823333D01*
%TO.C,RV204*%
X99423630Y-41037619D02*
X99090297Y-40561428D01*
X98852202Y-41037619D02*
X98852202Y-40037619D01*
X98852202Y-40037619D02*
X99233154Y-40037619D01*
X99233154Y-40037619D02*
X99328392Y-40085238D01*
X99328392Y-40085238D02*
X99376011Y-40132857D01*
X99376011Y-40132857D02*
X99423630Y-40228095D01*
X99423630Y-40228095D02*
X99423630Y-40370952D01*
X99423630Y-40370952D02*
X99376011Y-40466190D01*
X99376011Y-40466190D02*
X99328392Y-40513809D01*
X99328392Y-40513809D02*
X99233154Y-40561428D01*
X99233154Y-40561428D02*
X98852202Y-40561428D01*
X99709345Y-40037619D02*
X100042678Y-41037619D01*
X100042678Y-41037619D02*
X100376011Y-40037619D01*
X100661726Y-40132857D02*
X100709345Y-40085238D01*
X100709345Y-40085238D02*
X100804583Y-40037619D01*
X100804583Y-40037619D02*
X101042678Y-40037619D01*
X101042678Y-40037619D02*
X101137916Y-40085238D01*
X101137916Y-40085238D02*
X101185535Y-40132857D01*
X101185535Y-40132857D02*
X101233154Y-40228095D01*
X101233154Y-40228095D02*
X101233154Y-40323333D01*
X101233154Y-40323333D02*
X101185535Y-40466190D01*
X101185535Y-40466190D02*
X100614107Y-41037619D01*
X100614107Y-41037619D02*
X101233154Y-41037619D01*
X101852202Y-40037619D02*
X101947440Y-40037619D01*
X101947440Y-40037619D02*
X102042678Y-40085238D01*
X102042678Y-40085238D02*
X102090297Y-40132857D01*
X102090297Y-40132857D02*
X102137916Y-40228095D01*
X102137916Y-40228095D02*
X102185535Y-40418571D01*
X102185535Y-40418571D02*
X102185535Y-40656666D01*
X102185535Y-40656666D02*
X102137916Y-40847142D01*
X102137916Y-40847142D02*
X102090297Y-40942380D01*
X102090297Y-40942380D02*
X102042678Y-40990000D01*
X102042678Y-40990000D02*
X101947440Y-41037619D01*
X101947440Y-41037619D02*
X101852202Y-41037619D01*
X101852202Y-41037619D02*
X101756964Y-40990000D01*
X101756964Y-40990000D02*
X101709345Y-40942380D01*
X101709345Y-40942380D02*
X101661726Y-40847142D01*
X101661726Y-40847142D02*
X101614107Y-40656666D01*
X101614107Y-40656666D02*
X101614107Y-40418571D01*
X101614107Y-40418571D02*
X101661726Y-40228095D01*
X101661726Y-40228095D02*
X101709345Y-40132857D01*
X101709345Y-40132857D02*
X101756964Y-40085238D01*
X101756964Y-40085238D02*
X101852202Y-40037619D01*
X103042678Y-40370952D02*
X103042678Y-41037619D01*
X102804583Y-39990000D02*
X102566488Y-40704285D01*
X102566488Y-40704285D02*
X103185535Y-40704285D01*
%TO.C,H201*%
X328060714Y-155537619D02*
X328060714Y-154537619D01*
X328060714Y-155013809D02*
X328632142Y-155013809D01*
X328632142Y-155537619D02*
X328632142Y-154537619D01*
X329060714Y-154632857D02*
X329108333Y-154585238D01*
X329108333Y-154585238D02*
X329203571Y-154537619D01*
X329203571Y-154537619D02*
X329441666Y-154537619D01*
X329441666Y-154537619D02*
X329536904Y-154585238D01*
X329536904Y-154585238D02*
X329584523Y-154632857D01*
X329584523Y-154632857D02*
X329632142Y-154728095D01*
X329632142Y-154728095D02*
X329632142Y-154823333D01*
X329632142Y-154823333D02*
X329584523Y-154966190D01*
X329584523Y-154966190D02*
X329013095Y-155537619D01*
X329013095Y-155537619D02*
X329632142Y-155537619D01*
X330251190Y-154537619D02*
X330346428Y-154537619D01*
X330346428Y-154537619D02*
X330441666Y-154585238D01*
X330441666Y-154585238D02*
X330489285Y-154632857D01*
X330489285Y-154632857D02*
X330536904Y-154728095D01*
X330536904Y-154728095D02*
X330584523Y-154918571D01*
X330584523Y-154918571D02*
X330584523Y-155156666D01*
X330584523Y-155156666D02*
X330536904Y-155347142D01*
X330536904Y-155347142D02*
X330489285Y-155442380D01*
X330489285Y-155442380D02*
X330441666Y-155490000D01*
X330441666Y-155490000D02*
X330346428Y-155537619D01*
X330346428Y-155537619D02*
X330251190Y-155537619D01*
X330251190Y-155537619D02*
X330155952Y-155490000D01*
X330155952Y-155490000D02*
X330108333Y-155442380D01*
X330108333Y-155442380D02*
X330060714Y-155347142D01*
X330060714Y-155347142D02*
X330013095Y-155156666D01*
X330013095Y-155156666D02*
X330013095Y-154918571D01*
X330013095Y-154918571D02*
X330060714Y-154728095D01*
X330060714Y-154728095D02*
X330108333Y-154632857D01*
X330108333Y-154632857D02*
X330155952Y-154585238D01*
X330155952Y-154585238D02*
X330251190Y-154537619D01*
X331536904Y-155537619D02*
X330965476Y-155537619D01*
X331251190Y-155537619D02*
X331251190Y-154537619D01*
X331251190Y-154537619D02*
X331155952Y-154680476D01*
X331155952Y-154680476D02*
X331060714Y-154775714D01*
X331060714Y-154775714D02*
X330965476Y-154823333D01*
%TO.C,HA204*%
X460732143Y-197937619D02*
X460732143Y-196937619D01*
X460732143Y-197413809D02*
X461303571Y-197413809D01*
X461303571Y-197937619D02*
X461303571Y-196937619D01*
X461732143Y-197651904D02*
X462208333Y-197651904D01*
X461636905Y-197937619D02*
X461970238Y-196937619D01*
X461970238Y-196937619D02*
X462303571Y-197937619D01*
X462589286Y-197032857D02*
X462636905Y-196985238D01*
X462636905Y-196985238D02*
X462732143Y-196937619D01*
X462732143Y-196937619D02*
X462970238Y-196937619D01*
X462970238Y-196937619D02*
X463065476Y-196985238D01*
X463065476Y-196985238D02*
X463113095Y-197032857D01*
X463113095Y-197032857D02*
X463160714Y-197128095D01*
X463160714Y-197128095D02*
X463160714Y-197223333D01*
X463160714Y-197223333D02*
X463113095Y-197366190D01*
X463113095Y-197366190D02*
X462541667Y-197937619D01*
X462541667Y-197937619D02*
X463160714Y-197937619D01*
X463779762Y-196937619D02*
X463875000Y-196937619D01*
X463875000Y-196937619D02*
X463970238Y-196985238D01*
X463970238Y-196985238D02*
X464017857Y-197032857D01*
X464017857Y-197032857D02*
X464065476Y-197128095D01*
X464065476Y-197128095D02*
X464113095Y-197318571D01*
X464113095Y-197318571D02*
X464113095Y-197556666D01*
X464113095Y-197556666D02*
X464065476Y-197747142D01*
X464065476Y-197747142D02*
X464017857Y-197842380D01*
X464017857Y-197842380D02*
X463970238Y-197890000D01*
X463970238Y-197890000D02*
X463875000Y-197937619D01*
X463875000Y-197937619D02*
X463779762Y-197937619D01*
X463779762Y-197937619D02*
X463684524Y-197890000D01*
X463684524Y-197890000D02*
X463636905Y-197842380D01*
X463636905Y-197842380D02*
X463589286Y-197747142D01*
X463589286Y-197747142D02*
X463541667Y-197556666D01*
X463541667Y-197556666D02*
X463541667Y-197318571D01*
X463541667Y-197318571D02*
X463589286Y-197128095D01*
X463589286Y-197128095D02*
X463636905Y-197032857D01*
X463636905Y-197032857D02*
X463684524Y-196985238D01*
X463684524Y-196985238D02*
X463779762Y-196937619D01*
X464970238Y-197270952D02*
X464970238Y-197937619D01*
X464732143Y-196890000D02*
X464494048Y-197604285D01*
X464494048Y-197604285D02*
X465113095Y-197604285D01*
%TO.C,SW202*%
X234089286Y-35840000D02*
X234232143Y-35887619D01*
X234232143Y-35887619D02*
X234470238Y-35887619D01*
X234470238Y-35887619D02*
X234565476Y-35840000D01*
X234565476Y-35840000D02*
X234613095Y-35792380D01*
X234613095Y-35792380D02*
X234660714Y-35697142D01*
X234660714Y-35697142D02*
X234660714Y-35601904D01*
X234660714Y-35601904D02*
X234613095Y-35506666D01*
X234613095Y-35506666D02*
X234565476Y-35459047D01*
X234565476Y-35459047D02*
X234470238Y-35411428D01*
X234470238Y-35411428D02*
X234279762Y-35363809D01*
X234279762Y-35363809D02*
X234184524Y-35316190D01*
X234184524Y-35316190D02*
X234136905Y-35268571D01*
X234136905Y-35268571D02*
X234089286Y-35173333D01*
X234089286Y-35173333D02*
X234089286Y-35078095D01*
X234089286Y-35078095D02*
X234136905Y-34982857D01*
X234136905Y-34982857D02*
X234184524Y-34935238D01*
X234184524Y-34935238D02*
X234279762Y-34887619D01*
X234279762Y-34887619D02*
X234517857Y-34887619D01*
X234517857Y-34887619D02*
X234660714Y-34935238D01*
X234994048Y-34887619D02*
X235232143Y-35887619D01*
X235232143Y-35887619D02*
X235422619Y-35173333D01*
X235422619Y-35173333D02*
X235613095Y-35887619D01*
X235613095Y-35887619D02*
X235851191Y-34887619D01*
X236184524Y-34982857D02*
X236232143Y-34935238D01*
X236232143Y-34935238D02*
X236327381Y-34887619D01*
X236327381Y-34887619D02*
X236565476Y-34887619D01*
X236565476Y-34887619D02*
X236660714Y-34935238D01*
X236660714Y-34935238D02*
X236708333Y-34982857D01*
X236708333Y-34982857D02*
X236755952Y-35078095D01*
X236755952Y-35078095D02*
X236755952Y-35173333D01*
X236755952Y-35173333D02*
X236708333Y-35316190D01*
X236708333Y-35316190D02*
X236136905Y-35887619D01*
X236136905Y-35887619D02*
X236755952Y-35887619D01*
X237375000Y-34887619D02*
X237470238Y-34887619D01*
X237470238Y-34887619D02*
X237565476Y-34935238D01*
X237565476Y-34935238D02*
X237613095Y-34982857D01*
X237613095Y-34982857D02*
X237660714Y-35078095D01*
X237660714Y-35078095D02*
X237708333Y-35268571D01*
X237708333Y-35268571D02*
X237708333Y-35506666D01*
X237708333Y-35506666D02*
X237660714Y-35697142D01*
X237660714Y-35697142D02*
X237613095Y-35792380D01*
X237613095Y-35792380D02*
X237565476Y-35840000D01*
X237565476Y-35840000D02*
X237470238Y-35887619D01*
X237470238Y-35887619D02*
X237375000Y-35887619D01*
X237375000Y-35887619D02*
X237279762Y-35840000D01*
X237279762Y-35840000D02*
X237232143Y-35792380D01*
X237232143Y-35792380D02*
X237184524Y-35697142D01*
X237184524Y-35697142D02*
X237136905Y-35506666D01*
X237136905Y-35506666D02*
X237136905Y-35268571D01*
X237136905Y-35268571D02*
X237184524Y-35078095D01*
X237184524Y-35078095D02*
X237232143Y-34982857D01*
X237232143Y-34982857D02*
X237279762Y-34935238D01*
X237279762Y-34935238D02*
X237375000Y-34887619D01*
X238089286Y-34982857D02*
X238136905Y-34935238D01*
X238136905Y-34935238D02*
X238232143Y-34887619D01*
X238232143Y-34887619D02*
X238470238Y-34887619D01*
X238470238Y-34887619D02*
X238565476Y-34935238D01*
X238565476Y-34935238D02*
X238613095Y-34982857D01*
X238613095Y-34982857D02*
X238660714Y-35078095D01*
X238660714Y-35078095D02*
X238660714Y-35173333D01*
X238660714Y-35173333D02*
X238613095Y-35316190D01*
X238613095Y-35316190D02*
X238041667Y-35887619D01*
X238041667Y-35887619D02*
X238660714Y-35887619D01*
%TO.C,HA202*%
X33532143Y-197437619D02*
X33532143Y-196437619D01*
X33532143Y-196913809D02*
X34103571Y-196913809D01*
X34103571Y-197437619D02*
X34103571Y-196437619D01*
X34532143Y-197151904D02*
X35008333Y-197151904D01*
X34436905Y-197437619D02*
X34770238Y-196437619D01*
X34770238Y-196437619D02*
X35103571Y-197437619D01*
X35389286Y-196532857D02*
X35436905Y-196485238D01*
X35436905Y-196485238D02*
X35532143Y-196437619D01*
X35532143Y-196437619D02*
X35770238Y-196437619D01*
X35770238Y-196437619D02*
X35865476Y-196485238D01*
X35865476Y-196485238D02*
X35913095Y-196532857D01*
X35913095Y-196532857D02*
X35960714Y-196628095D01*
X35960714Y-196628095D02*
X35960714Y-196723333D01*
X35960714Y-196723333D02*
X35913095Y-196866190D01*
X35913095Y-196866190D02*
X35341667Y-197437619D01*
X35341667Y-197437619D02*
X35960714Y-197437619D01*
X36579762Y-196437619D02*
X36675000Y-196437619D01*
X36675000Y-196437619D02*
X36770238Y-196485238D01*
X36770238Y-196485238D02*
X36817857Y-196532857D01*
X36817857Y-196532857D02*
X36865476Y-196628095D01*
X36865476Y-196628095D02*
X36913095Y-196818571D01*
X36913095Y-196818571D02*
X36913095Y-197056666D01*
X36913095Y-197056666D02*
X36865476Y-197247142D01*
X36865476Y-197247142D02*
X36817857Y-197342380D01*
X36817857Y-197342380D02*
X36770238Y-197390000D01*
X36770238Y-197390000D02*
X36675000Y-197437619D01*
X36675000Y-197437619D02*
X36579762Y-197437619D01*
X36579762Y-197437619D02*
X36484524Y-197390000D01*
X36484524Y-197390000D02*
X36436905Y-197342380D01*
X36436905Y-197342380D02*
X36389286Y-197247142D01*
X36389286Y-197247142D02*
X36341667Y-197056666D01*
X36341667Y-197056666D02*
X36341667Y-196818571D01*
X36341667Y-196818571D02*
X36389286Y-196628095D01*
X36389286Y-196628095D02*
X36436905Y-196532857D01*
X36436905Y-196532857D02*
X36484524Y-196485238D01*
X36484524Y-196485238D02*
X36579762Y-196437619D01*
X37294048Y-196532857D02*
X37341667Y-196485238D01*
X37341667Y-196485238D02*
X37436905Y-196437619D01*
X37436905Y-196437619D02*
X37675000Y-196437619D01*
X37675000Y-196437619D02*
X37770238Y-196485238D01*
X37770238Y-196485238D02*
X37817857Y-196532857D01*
X37817857Y-196532857D02*
X37865476Y-196628095D01*
X37865476Y-196628095D02*
X37865476Y-196723333D01*
X37865476Y-196723333D02*
X37817857Y-196866190D01*
X37817857Y-196866190D02*
X37246429Y-197437619D01*
X37246429Y-197437619D02*
X37865476Y-197437619D01*
%TO.C,RV206*%
X280493880Y-41037619D02*
X280160547Y-40561428D01*
X279922452Y-41037619D02*
X279922452Y-40037619D01*
X279922452Y-40037619D02*
X280303404Y-40037619D01*
X280303404Y-40037619D02*
X280398642Y-40085238D01*
X280398642Y-40085238D02*
X280446261Y-40132857D01*
X280446261Y-40132857D02*
X280493880Y-40228095D01*
X280493880Y-40228095D02*
X280493880Y-40370952D01*
X280493880Y-40370952D02*
X280446261Y-40466190D01*
X280446261Y-40466190D02*
X280398642Y-40513809D01*
X280398642Y-40513809D02*
X280303404Y-40561428D01*
X280303404Y-40561428D02*
X279922452Y-40561428D01*
X280779595Y-40037619D02*
X281112928Y-41037619D01*
X281112928Y-41037619D02*
X281446261Y-40037619D01*
X281731976Y-40132857D02*
X281779595Y-40085238D01*
X281779595Y-40085238D02*
X281874833Y-40037619D01*
X281874833Y-40037619D02*
X282112928Y-40037619D01*
X282112928Y-40037619D02*
X282208166Y-40085238D01*
X282208166Y-40085238D02*
X282255785Y-40132857D01*
X282255785Y-40132857D02*
X282303404Y-40228095D01*
X282303404Y-40228095D02*
X282303404Y-40323333D01*
X282303404Y-40323333D02*
X282255785Y-40466190D01*
X282255785Y-40466190D02*
X281684357Y-41037619D01*
X281684357Y-41037619D02*
X282303404Y-41037619D01*
X282922452Y-40037619D02*
X283017690Y-40037619D01*
X283017690Y-40037619D02*
X283112928Y-40085238D01*
X283112928Y-40085238D02*
X283160547Y-40132857D01*
X283160547Y-40132857D02*
X283208166Y-40228095D01*
X283208166Y-40228095D02*
X283255785Y-40418571D01*
X283255785Y-40418571D02*
X283255785Y-40656666D01*
X283255785Y-40656666D02*
X283208166Y-40847142D01*
X283208166Y-40847142D02*
X283160547Y-40942380D01*
X283160547Y-40942380D02*
X283112928Y-40990000D01*
X283112928Y-40990000D02*
X283017690Y-41037619D01*
X283017690Y-41037619D02*
X282922452Y-41037619D01*
X282922452Y-41037619D02*
X282827214Y-40990000D01*
X282827214Y-40990000D02*
X282779595Y-40942380D01*
X282779595Y-40942380D02*
X282731976Y-40847142D01*
X282731976Y-40847142D02*
X282684357Y-40656666D01*
X282684357Y-40656666D02*
X282684357Y-40418571D01*
X282684357Y-40418571D02*
X282731976Y-40228095D01*
X282731976Y-40228095D02*
X282779595Y-40132857D01*
X282779595Y-40132857D02*
X282827214Y-40085238D01*
X282827214Y-40085238D02*
X282922452Y-40037619D01*
X284112928Y-40037619D02*
X283922452Y-40037619D01*
X283922452Y-40037619D02*
X283827214Y-40085238D01*
X283827214Y-40085238D02*
X283779595Y-40132857D01*
X283779595Y-40132857D02*
X283684357Y-40275714D01*
X283684357Y-40275714D02*
X283636738Y-40466190D01*
X283636738Y-40466190D02*
X283636738Y-40847142D01*
X283636738Y-40847142D02*
X283684357Y-40942380D01*
X283684357Y-40942380D02*
X283731976Y-40990000D01*
X283731976Y-40990000D02*
X283827214Y-41037619D01*
X283827214Y-41037619D02*
X284017690Y-41037619D01*
X284017690Y-41037619D02*
X284112928Y-40990000D01*
X284112928Y-40990000D02*
X284160547Y-40942380D01*
X284160547Y-40942380D02*
X284208166Y-40847142D01*
X284208166Y-40847142D02*
X284208166Y-40609047D01*
X284208166Y-40609047D02*
X284160547Y-40513809D01*
X284160547Y-40513809D02*
X284112928Y-40466190D01*
X284112928Y-40466190D02*
X284017690Y-40418571D01*
X284017690Y-40418571D02*
X283827214Y-40418571D01*
X283827214Y-40418571D02*
X283731976Y-40466190D01*
X283731976Y-40466190D02*
X283684357Y-40513809D01*
X283684357Y-40513809D02*
X283636738Y-40609047D01*
%TO.C,RV205*%
X190006380Y-41037619D02*
X189673047Y-40561428D01*
X189434952Y-41037619D02*
X189434952Y-40037619D01*
X189434952Y-40037619D02*
X189815904Y-40037619D01*
X189815904Y-40037619D02*
X189911142Y-40085238D01*
X189911142Y-40085238D02*
X189958761Y-40132857D01*
X189958761Y-40132857D02*
X190006380Y-40228095D01*
X190006380Y-40228095D02*
X190006380Y-40370952D01*
X190006380Y-40370952D02*
X189958761Y-40466190D01*
X189958761Y-40466190D02*
X189911142Y-40513809D01*
X189911142Y-40513809D02*
X189815904Y-40561428D01*
X189815904Y-40561428D02*
X189434952Y-40561428D01*
X190292095Y-40037619D02*
X190625428Y-41037619D01*
X190625428Y-41037619D02*
X190958761Y-40037619D01*
X191244476Y-40132857D02*
X191292095Y-40085238D01*
X191292095Y-40085238D02*
X191387333Y-40037619D01*
X191387333Y-40037619D02*
X191625428Y-40037619D01*
X191625428Y-40037619D02*
X191720666Y-40085238D01*
X191720666Y-40085238D02*
X191768285Y-40132857D01*
X191768285Y-40132857D02*
X191815904Y-40228095D01*
X191815904Y-40228095D02*
X191815904Y-40323333D01*
X191815904Y-40323333D02*
X191768285Y-40466190D01*
X191768285Y-40466190D02*
X191196857Y-41037619D01*
X191196857Y-41037619D02*
X191815904Y-41037619D01*
X192434952Y-40037619D02*
X192530190Y-40037619D01*
X192530190Y-40037619D02*
X192625428Y-40085238D01*
X192625428Y-40085238D02*
X192673047Y-40132857D01*
X192673047Y-40132857D02*
X192720666Y-40228095D01*
X192720666Y-40228095D02*
X192768285Y-40418571D01*
X192768285Y-40418571D02*
X192768285Y-40656666D01*
X192768285Y-40656666D02*
X192720666Y-40847142D01*
X192720666Y-40847142D02*
X192673047Y-40942380D01*
X192673047Y-40942380D02*
X192625428Y-40990000D01*
X192625428Y-40990000D02*
X192530190Y-41037619D01*
X192530190Y-41037619D02*
X192434952Y-41037619D01*
X192434952Y-41037619D02*
X192339714Y-40990000D01*
X192339714Y-40990000D02*
X192292095Y-40942380D01*
X192292095Y-40942380D02*
X192244476Y-40847142D01*
X192244476Y-40847142D02*
X192196857Y-40656666D01*
X192196857Y-40656666D02*
X192196857Y-40418571D01*
X192196857Y-40418571D02*
X192244476Y-40228095D01*
X192244476Y-40228095D02*
X192292095Y-40132857D01*
X192292095Y-40132857D02*
X192339714Y-40085238D01*
X192339714Y-40085238D02*
X192434952Y-40037619D01*
X193673047Y-40037619D02*
X193196857Y-40037619D01*
X193196857Y-40037619D02*
X193149238Y-40513809D01*
X193149238Y-40513809D02*
X193196857Y-40466190D01*
X193196857Y-40466190D02*
X193292095Y-40418571D01*
X193292095Y-40418571D02*
X193530190Y-40418571D01*
X193530190Y-40418571D02*
X193625428Y-40466190D01*
X193625428Y-40466190D02*
X193673047Y-40513809D01*
X193673047Y-40513809D02*
X193720666Y-40609047D01*
X193720666Y-40609047D02*
X193720666Y-40847142D01*
X193720666Y-40847142D02*
X193673047Y-40942380D01*
X193673047Y-40942380D02*
X193625428Y-40990000D01*
X193625428Y-40990000D02*
X193530190Y-41037619D01*
X193530190Y-41037619D02*
X193292095Y-41037619D01*
X193292095Y-41037619D02*
X193196857Y-40990000D01*
X193196857Y-40990000D02*
X193149238Y-40942380D01*
%TO.C,HA203*%
X460732143Y-38737619D02*
X460732143Y-37737619D01*
X460732143Y-38213809D02*
X461303571Y-38213809D01*
X461303571Y-38737619D02*
X461303571Y-37737619D01*
X461732143Y-38451904D02*
X462208333Y-38451904D01*
X461636905Y-38737619D02*
X461970238Y-37737619D01*
X461970238Y-37737619D02*
X462303571Y-38737619D01*
X462589286Y-37832857D02*
X462636905Y-37785238D01*
X462636905Y-37785238D02*
X462732143Y-37737619D01*
X462732143Y-37737619D02*
X462970238Y-37737619D01*
X462970238Y-37737619D02*
X463065476Y-37785238D01*
X463065476Y-37785238D02*
X463113095Y-37832857D01*
X463113095Y-37832857D02*
X463160714Y-37928095D01*
X463160714Y-37928095D02*
X463160714Y-38023333D01*
X463160714Y-38023333D02*
X463113095Y-38166190D01*
X463113095Y-38166190D02*
X462541667Y-38737619D01*
X462541667Y-38737619D02*
X463160714Y-38737619D01*
X463779762Y-37737619D02*
X463875000Y-37737619D01*
X463875000Y-37737619D02*
X463970238Y-37785238D01*
X463970238Y-37785238D02*
X464017857Y-37832857D01*
X464017857Y-37832857D02*
X464065476Y-37928095D01*
X464065476Y-37928095D02*
X464113095Y-38118571D01*
X464113095Y-38118571D02*
X464113095Y-38356666D01*
X464113095Y-38356666D02*
X464065476Y-38547142D01*
X464065476Y-38547142D02*
X464017857Y-38642380D01*
X464017857Y-38642380D02*
X463970238Y-38690000D01*
X463970238Y-38690000D02*
X463875000Y-38737619D01*
X463875000Y-38737619D02*
X463779762Y-38737619D01*
X463779762Y-38737619D02*
X463684524Y-38690000D01*
X463684524Y-38690000D02*
X463636905Y-38642380D01*
X463636905Y-38642380D02*
X463589286Y-38547142D01*
X463589286Y-38547142D02*
X463541667Y-38356666D01*
X463541667Y-38356666D02*
X463541667Y-38118571D01*
X463541667Y-38118571D02*
X463589286Y-37928095D01*
X463589286Y-37928095D02*
X463636905Y-37832857D01*
X463636905Y-37832857D02*
X463684524Y-37785238D01*
X463684524Y-37785238D02*
X463779762Y-37737619D01*
X464446429Y-37737619D02*
X465065476Y-37737619D01*
X465065476Y-37737619D02*
X464732143Y-38118571D01*
X464732143Y-38118571D02*
X464875000Y-38118571D01*
X464875000Y-38118571D02*
X464970238Y-38166190D01*
X464970238Y-38166190D02*
X465017857Y-38213809D01*
X465017857Y-38213809D02*
X465065476Y-38309047D01*
X465065476Y-38309047D02*
X465065476Y-38547142D01*
X465065476Y-38547142D02*
X465017857Y-38642380D01*
X465017857Y-38642380D02*
X464970238Y-38690000D01*
X464970238Y-38690000D02*
X464875000Y-38737619D01*
X464875000Y-38737619D02*
X464589286Y-38737619D01*
X464589286Y-38737619D02*
X464494048Y-38690000D01*
X464494048Y-38690000D02*
X464446429Y-38642380D01*
%TO.C,J202*%
X229678571Y-47791742D02*
X229621429Y-47763171D01*
X229621429Y-47763171D02*
X229535714Y-47763171D01*
X229535714Y-47763171D02*
X229450000Y-47791742D01*
X229450000Y-47791742D02*
X229392857Y-47848885D01*
X229392857Y-47848885D02*
X229364286Y-47906028D01*
X229364286Y-47906028D02*
X229335714Y-48020314D01*
X229335714Y-48020314D02*
X229335714Y-48106028D01*
X229335714Y-48106028D02*
X229364286Y-48220314D01*
X229364286Y-48220314D02*
X229392857Y-48277457D01*
X229392857Y-48277457D02*
X229450000Y-48334600D01*
X229450000Y-48334600D02*
X229535714Y-48363171D01*
X229535714Y-48363171D02*
X229592857Y-48363171D01*
X229592857Y-48363171D02*
X229678571Y-48334600D01*
X229678571Y-48334600D02*
X229707143Y-48306028D01*
X229707143Y-48306028D02*
X229707143Y-48106028D01*
X229707143Y-48106028D02*
X229592857Y-48106028D01*
X229964286Y-48363171D02*
X229964286Y-47763171D01*
X229964286Y-47763171D02*
X230307143Y-48363171D01*
X230307143Y-48363171D02*
X230307143Y-47763171D01*
X230592857Y-48363171D02*
X230592857Y-47763171D01*
X230592857Y-47763171D02*
X230735714Y-47763171D01*
X230735714Y-47763171D02*
X230821428Y-47791742D01*
X230821428Y-47791742D02*
X230878571Y-47848885D01*
X230878571Y-47848885D02*
X230907142Y-47906028D01*
X230907142Y-47906028D02*
X230935714Y-48020314D01*
X230935714Y-48020314D02*
X230935714Y-48106028D01*
X230935714Y-48106028D02*
X230907142Y-48220314D01*
X230907142Y-48220314D02*
X230878571Y-48277457D01*
X230878571Y-48277457D02*
X230821428Y-48334600D01*
X230821428Y-48334600D02*
X230735714Y-48363171D01*
X230735714Y-48363171D02*
X230592857Y-48363171D01*
X241464285Y-45709600D02*
X241550000Y-45738171D01*
X241550000Y-45738171D02*
X241692857Y-45738171D01*
X241692857Y-45738171D02*
X241750000Y-45709600D01*
X241750000Y-45709600D02*
X241778571Y-45681028D01*
X241778571Y-45681028D02*
X241807142Y-45623885D01*
X241807142Y-45623885D02*
X241807142Y-45566742D01*
X241807142Y-45566742D02*
X241778571Y-45509600D01*
X241778571Y-45509600D02*
X241750000Y-45481028D01*
X241750000Y-45481028D02*
X241692857Y-45452457D01*
X241692857Y-45452457D02*
X241578571Y-45423885D01*
X241578571Y-45423885D02*
X241521428Y-45395314D01*
X241521428Y-45395314D02*
X241492857Y-45366742D01*
X241492857Y-45366742D02*
X241464285Y-45309600D01*
X241464285Y-45309600D02*
X241464285Y-45252457D01*
X241464285Y-45252457D02*
X241492857Y-45195314D01*
X241492857Y-45195314D02*
X241521428Y-45166742D01*
X241521428Y-45166742D02*
X241578571Y-45138171D01*
X241578571Y-45138171D02*
X241721428Y-45138171D01*
X241721428Y-45138171D02*
X241807142Y-45166742D01*
X242007143Y-45138171D02*
X242150000Y-45738171D01*
X242150000Y-45738171D02*
X242264286Y-45309600D01*
X242264286Y-45309600D02*
X242378571Y-45738171D01*
X242378571Y-45738171D02*
X242521429Y-45138171D01*
X242750000Y-45738171D02*
X242750000Y-45138171D01*
X242750000Y-45138171D02*
X242892857Y-45138171D01*
X242892857Y-45138171D02*
X242978571Y-45166742D01*
X242978571Y-45166742D02*
X243035714Y-45223885D01*
X243035714Y-45223885D02*
X243064285Y-45281028D01*
X243064285Y-45281028D02*
X243092857Y-45395314D01*
X243092857Y-45395314D02*
X243092857Y-45481028D01*
X243092857Y-45481028D02*
X243064285Y-45595314D01*
X243064285Y-45595314D02*
X243035714Y-45652457D01*
X243035714Y-45652457D02*
X242978571Y-45709600D01*
X242978571Y-45709600D02*
X242892857Y-45738171D01*
X242892857Y-45738171D02*
X242750000Y-45738171D01*
X243350000Y-45738171D02*
X243350000Y-45138171D01*
X243749999Y-45138171D02*
X243864285Y-45138171D01*
X243864285Y-45138171D02*
X243921428Y-45166742D01*
X243921428Y-45166742D02*
X243978571Y-45223885D01*
X243978571Y-45223885D02*
X244007142Y-45338171D01*
X244007142Y-45338171D02*
X244007142Y-45538171D01*
X244007142Y-45538171D02*
X243978571Y-45652457D01*
X243978571Y-45652457D02*
X243921428Y-45709600D01*
X243921428Y-45709600D02*
X243864285Y-45738171D01*
X243864285Y-45738171D02*
X243749999Y-45738171D01*
X243749999Y-45738171D02*
X243692857Y-45709600D01*
X243692857Y-45709600D02*
X243635714Y-45652457D01*
X243635714Y-45652457D02*
X243607142Y-45538171D01*
X243607142Y-45538171D02*
X243607142Y-45338171D01*
X243607142Y-45338171D02*
X243635714Y-45223885D01*
X243635714Y-45223885D02*
X243692857Y-45166742D01*
X243692857Y-45166742D02*
X243749999Y-45138171D01*
X229357570Y-45223171D02*
X229728998Y-45223171D01*
X229728998Y-45223171D02*
X229528998Y-45451742D01*
X229528998Y-45451742D02*
X229614713Y-45451742D01*
X229614713Y-45451742D02*
X229671856Y-45480314D01*
X229671856Y-45480314D02*
X229700427Y-45508885D01*
X229700427Y-45508885D02*
X229728998Y-45566028D01*
X229728998Y-45566028D02*
X229728998Y-45708885D01*
X229728998Y-45708885D02*
X229700427Y-45766028D01*
X229700427Y-45766028D02*
X229671856Y-45794600D01*
X229671856Y-45794600D02*
X229614713Y-45823171D01*
X229614713Y-45823171D02*
X229443284Y-45823171D01*
X229443284Y-45823171D02*
X229386141Y-45794600D01*
X229386141Y-45794600D02*
X229357570Y-45766028D01*
X229900427Y-45223171D02*
X230100427Y-45823171D01*
X230100427Y-45823171D02*
X230300427Y-45223171D01*
X230443285Y-45223171D02*
X230814713Y-45223171D01*
X230814713Y-45223171D02*
X230614713Y-45451742D01*
X230614713Y-45451742D02*
X230700428Y-45451742D01*
X230700428Y-45451742D02*
X230757571Y-45480314D01*
X230757571Y-45480314D02*
X230786142Y-45508885D01*
X230786142Y-45508885D02*
X230814713Y-45566028D01*
X230814713Y-45566028D02*
X230814713Y-45708885D01*
X230814713Y-45708885D02*
X230786142Y-45766028D01*
X230786142Y-45766028D02*
X230757571Y-45794600D01*
X230757571Y-45794600D02*
X230700428Y-45823171D01*
X230700428Y-45823171D02*
X230528999Y-45823171D01*
X230528999Y-45823171D02*
X230471856Y-45794600D01*
X230471856Y-45794600D02*
X230443285Y-45766028D01*
X229593286Y-53443171D02*
X229593286Y-52843171D01*
X229593286Y-52843171D02*
X229936143Y-53443171D01*
X229936143Y-53443171D02*
X229936143Y-52843171D01*
X230564714Y-53386028D02*
X230536142Y-53414600D01*
X230536142Y-53414600D02*
X230450428Y-53443171D01*
X230450428Y-53443171D02*
X230393285Y-53443171D01*
X230393285Y-53443171D02*
X230307571Y-53414600D01*
X230307571Y-53414600D02*
X230250428Y-53357457D01*
X230250428Y-53357457D02*
X230221857Y-53300314D01*
X230221857Y-53300314D02*
X230193285Y-53186028D01*
X230193285Y-53186028D02*
X230193285Y-53100314D01*
X230193285Y-53100314D02*
X230221857Y-52986028D01*
X230221857Y-52986028D02*
X230250428Y-52928885D01*
X230250428Y-52928885D02*
X230307571Y-52871742D01*
X230307571Y-52871742D02*
X230393285Y-52843171D01*
X230393285Y-52843171D02*
X230450428Y-52843171D01*
X230450428Y-52843171D02*
X230536142Y-52871742D01*
X230536142Y-52871742D02*
X230564714Y-52900314D01*
X241364285Y-48209600D02*
X241450000Y-48238171D01*
X241450000Y-48238171D02*
X241592857Y-48238171D01*
X241592857Y-48238171D02*
X241650000Y-48209600D01*
X241650000Y-48209600D02*
X241678571Y-48181028D01*
X241678571Y-48181028D02*
X241707142Y-48123885D01*
X241707142Y-48123885D02*
X241707142Y-48066742D01*
X241707142Y-48066742D02*
X241678571Y-48009600D01*
X241678571Y-48009600D02*
X241650000Y-47981028D01*
X241650000Y-47981028D02*
X241592857Y-47952457D01*
X241592857Y-47952457D02*
X241478571Y-47923885D01*
X241478571Y-47923885D02*
X241421428Y-47895314D01*
X241421428Y-47895314D02*
X241392857Y-47866742D01*
X241392857Y-47866742D02*
X241364285Y-47809600D01*
X241364285Y-47809600D02*
X241364285Y-47752457D01*
X241364285Y-47752457D02*
X241392857Y-47695314D01*
X241392857Y-47695314D02*
X241421428Y-47666742D01*
X241421428Y-47666742D02*
X241478571Y-47638171D01*
X241478571Y-47638171D02*
X241621428Y-47638171D01*
X241621428Y-47638171D02*
X241707142Y-47666742D01*
X241907143Y-47638171D02*
X242050000Y-48238171D01*
X242050000Y-48238171D02*
X242164286Y-47809600D01*
X242164286Y-47809600D02*
X242278571Y-48238171D01*
X242278571Y-48238171D02*
X242421429Y-47638171D01*
X242992857Y-48181028D02*
X242964285Y-48209600D01*
X242964285Y-48209600D02*
X242878571Y-48238171D01*
X242878571Y-48238171D02*
X242821428Y-48238171D01*
X242821428Y-48238171D02*
X242735714Y-48209600D01*
X242735714Y-48209600D02*
X242678571Y-48152457D01*
X242678571Y-48152457D02*
X242650000Y-48095314D01*
X242650000Y-48095314D02*
X242621428Y-47981028D01*
X242621428Y-47981028D02*
X242621428Y-47895314D01*
X242621428Y-47895314D02*
X242650000Y-47781028D01*
X242650000Y-47781028D02*
X242678571Y-47723885D01*
X242678571Y-47723885D02*
X242735714Y-47666742D01*
X242735714Y-47666742D02*
X242821428Y-47638171D01*
X242821428Y-47638171D02*
X242878571Y-47638171D01*
X242878571Y-47638171D02*
X242964285Y-47666742D01*
X242964285Y-47666742D02*
X242992857Y-47695314D01*
X243535714Y-48238171D02*
X243250000Y-48238171D01*
X243250000Y-48238171D02*
X243250000Y-47638171D01*
X243735714Y-48238171D02*
X243735714Y-47638171D01*
X244078571Y-48238171D02*
X243821428Y-47895314D01*
X244078571Y-47638171D02*
X243735714Y-47981028D01*
X229657571Y-50341142D02*
X229600429Y-50312571D01*
X229600429Y-50312571D02*
X229514714Y-50312571D01*
X229514714Y-50312571D02*
X229429000Y-50341142D01*
X229429000Y-50341142D02*
X229371857Y-50398285D01*
X229371857Y-50398285D02*
X229343286Y-50455428D01*
X229343286Y-50455428D02*
X229314714Y-50569714D01*
X229314714Y-50569714D02*
X229314714Y-50655428D01*
X229314714Y-50655428D02*
X229343286Y-50769714D01*
X229343286Y-50769714D02*
X229371857Y-50826857D01*
X229371857Y-50826857D02*
X229429000Y-50884000D01*
X229429000Y-50884000D02*
X229514714Y-50912571D01*
X229514714Y-50912571D02*
X229571857Y-50912571D01*
X229571857Y-50912571D02*
X229657571Y-50884000D01*
X229657571Y-50884000D02*
X229686143Y-50855428D01*
X229686143Y-50855428D02*
X229686143Y-50655428D01*
X229686143Y-50655428D02*
X229571857Y-50655428D01*
X229943286Y-50912571D02*
X229943286Y-50312571D01*
X229943286Y-50312571D02*
X230286143Y-50912571D01*
X230286143Y-50912571D02*
X230286143Y-50312571D01*
X230571857Y-50912571D02*
X230571857Y-50312571D01*
X230571857Y-50312571D02*
X230714714Y-50312571D01*
X230714714Y-50312571D02*
X230800428Y-50341142D01*
X230800428Y-50341142D02*
X230857571Y-50398285D01*
X230857571Y-50398285D02*
X230886142Y-50455428D01*
X230886142Y-50455428D02*
X230914714Y-50569714D01*
X230914714Y-50569714D02*
X230914714Y-50655428D01*
X230914714Y-50655428D02*
X230886142Y-50769714D01*
X230886142Y-50769714D02*
X230857571Y-50826857D01*
X230857571Y-50826857D02*
X230800428Y-50884000D01*
X230800428Y-50884000D02*
X230714714Y-50912571D01*
X230714714Y-50912571D02*
X230571857Y-50912571D01*
X241864285Y-50709600D02*
X241950000Y-50738171D01*
X241950000Y-50738171D02*
X242092857Y-50738171D01*
X242092857Y-50738171D02*
X242150000Y-50709600D01*
X242150000Y-50709600D02*
X242178571Y-50681028D01*
X242178571Y-50681028D02*
X242207142Y-50623885D01*
X242207142Y-50623885D02*
X242207142Y-50566742D01*
X242207142Y-50566742D02*
X242178571Y-50509600D01*
X242178571Y-50509600D02*
X242150000Y-50481028D01*
X242150000Y-50481028D02*
X242092857Y-50452457D01*
X242092857Y-50452457D02*
X241978571Y-50423885D01*
X241978571Y-50423885D02*
X241921428Y-50395314D01*
X241921428Y-50395314D02*
X241892857Y-50366742D01*
X241892857Y-50366742D02*
X241864285Y-50309600D01*
X241864285Y-50309600D02*
X241864285Y-50252457D01*
X241864285Y-50252457D02*
X241892857Y-50195314D01*
X241892857Y-50195314D02*
X241921428Y-50166742D01*
X241921428Y-50166742D02*
X241978571Y-50138171D01*
X241978571Y-50138171D02*
X242121428Y-50138171D01*
X242121428Y-50138171D02*
X242207142Y-50166742D01*
X242407143Y-50138171D02*
X242550000Y-50738171D01*
X242550000Y-50738171D02*
X242664286Y-50309600D01*
X242664286Y-50309600D02*
X242778571Y-50738171D01*
X242778571Y-50738171D02*
X242921429Y-50138171D01*
X243264285Y-50138171D02*
X243378571Y-50138171D01*
X243378571Y-50138171D02*
X243435714Y-50166742D01*
X243435714Y-50166742D02*
X243492857Y-50223885D01*
X243492857Y-50223885D02*
X243521428Y-50338171D01*
X243521428Y-50338171D02*
X243521428Y-50538171D01*
X243521428Y-50538171D02*
X243492857Y-50652457D01*
X243492857Y-50652457D02*
X243435714Y-50709600D01*
X243435714Y-50709600D02*
X243378571Y-50738171D01*
X243378571Y-50738171D02*
X243264285Y-50738171D01*
X243264285Y-50738171D02*
X243207143Y-50709600D01*
X243207143Y-50709600D02*
X243150000Y-50652457D01*
X243150000Y-50652457D02*
X243121428Y-50538171D01*
X243121428Y-50538171D02*
X243121428Y-50338171D01*
X243121428Y-50338171D02*
X243150000Y-50223885D01*
X243150000Y-50223885D02*
X243207143Y-50166742D01*
X243207143Y-50166742D02*
X243264285Y-50138171D01*
X229678571Y-55411742D02*
X229621429Y-55383171D01*
X229621429Y-55383171D02*
X229535714Y-55383171D01*
X229535714Y-55383171D02*
X229450000Y-55411742D01*
X229450000Y-55411742D02*
X229392857Y-55468885D01*
X229392857Y-55468885D02*
X229364286Y-55526028D01*
X229364286Y-55526028D02*
X229335714Y-55640314D01*
X229335714Y-55640314D02*
X229335714Y-55726028D01*
X229335714Y-55726028D02*
X229364286Y-55840314D01*
X229364286Y-55840314D02*
X229392857Y-55897457D01*
X229392857Y-55897457D02*
X229450000Y-55954600D01*
X229450000Y-55954600D02*
X229535714Y-55983171D01*
X229535714Y-55983171D02*
X229592857Y-55983171D01*
X229592857Y-55983171D02*
X229678571Y-55954600D01*
X229678571Y-55954600D02*
X229707143Y-55926028D01*
X229707143Y-55926028D02*
X229707143Y-55726028D01*
X229707143Y-55726028D02*
X229592857Y-55726028D01*
X229964286Y-55983171D02*
X229964286Y-55383171D01*
X229964286Y-55383171D02*
X230307143Y-55983171D01*
X230307143Y-55983171D02*
X230307143Y-55383171D01*
X230592857Y-55983171D02*
X230592857Y-55383171D01*
X230592857Y-55383171D02*
X230735714Y-55383171D01*
X230735714Y-55383171D02*
X230821428Y-55411742D01*
X230821428Y-55411742D02*
X230878571Y-55468885D01*
X230878571Y-55468885D02*
X230907142Y-55526028D01*
X230907142Y-55526028D02*
X230935714Y-55640314D01*
X230935714Y-55640314D02*
X230935714Y-55726028D01*
X230935714Y-55726028D02*
X230907142Y-55840314D01*
X230907142Y-55840314D02*
X230878571Y-55897457D01*
X230878571Y-55897457D02*
X230821428Y-55954600D01*
X230821428Y-55954600D02*
X230735714Y-55983171D01*
X230735714Y-55983171D02*
X230592857Y-55983171D01*
X242360714Y-55913171D02*
X242160714Y-55627457D01*
X242017857Y-55913171D02*
X242017857Y-55313171D01*
X242017857Y-55313171D02*
X242246428Y-55313171D01*
X242246428Y-55313171D02*
X242303571Y-55341742D01*
X242303571Y-55341742D02*
X242332142Y-55370314D01*
X242332142Y-55370314D02*
X242360714Y-55427457D01*
X242360714Y-55427457D02*
X242360714Y-55513171D01*
X242360714Y-55513171D02*
X242332142Y-55570314D01*
X242332142Y-55570314D02*
X242303571Y-55598885D01*
X242303571Y-55598885D02*
X242246428Y-55627457D01*
X242246428Y-55627457D02*
X242017857Y-55627457D01*
X242589285Y-55884600D02*
X242675000Y-55913171D01*
X242675000Y-55913171D02*
X242817857Y-55913171D01*
X242817857Y-55913171D02*
X242875000Y-55884600D01*
X242875000Y-55884600D02*
X242903571Y-55856028D01*
X242903571Y-55856028D02*
X242932142Y-55798885D01*
X242932142Y-55798885D02*
X242932142Y-55741742D01*
X242932142Y-55741742D02*
X242903571Y-55684600D01*
X242903571Y-55684600D02*
X242875000Y-55656028D01*
X242875000Y-55656028D02*
X242817857Y-55627457D01*
X242817857Y-55627457D02*
X242703571Y-55598885D01*
X242703571Y-55598885D02*
X242646428Y-55570314D01*
X242646428Y-55570314D02*
X242617857Y-55541742D01*
X242617857Y-55541742D02*
X242589285Y-55484600D01*
X242589285Y-55484600D02*
X242589285Y-55427457D01*
X242589285Y-55427457D02*
X242617857Y-55370314D01*
X242617857Y-55370314D02*
X242646428Y-55341742D01*
X242646428Y-55341742D02*
X242703571Y-55313171D01*
X242703571Y-55313171D02*
X242846428Y-55313171D01*
X242846428Y-55313171D02*
X242932142Y-55341742D01*
X243103571Y-55313171D02*
X243446429Y-55313171D01*
X243275000Y-55913171D02*
X243275000Y-55313171D01*
X241935000Y-55044600D02*
X243443572Y-55044600D01*
X242242857Y-53388171D02*
X242242857Y-52788171D01*
X242242857Y-52788171D02*
X242585714Y-53388171D01*
X242585714Y-53388171D02*
X242585714Y-52788171D01*
X243214285Y-53331028D02*
X243185713Y-53359600D01*
X243185713Y-53359600D02*
X243099999Y-53388171D01*
X243099999Y-53388171D02*
X243042856Y-53388171D01*
X243042856Y-53388171D02*
X242957142Y-53359600D01*
X242957142Y-53359600D02*
X242899999Y-53302457D01*
X242899999Y-53302457D02*
X242871428Y-53245314D01*
X242871428Y-53245314D02*
X242842856Y-53131028D01*
X242842856Y-53131028D02*
X242842856Y-53045314D01*
X242842856Y-53045314D02*
X242871428Y-52931028D01*
X242871428Y-52931028D02*
X242899999Y-52873885D01*
X242899999Y-52873885D02*
X242957142Y-52816742D01*
X242957142Y-52816742D02*
X243042856Y-52788171D01*
X243042856Y-52788171D02*
X243099999Y-52788171D01*
X243099999Y-52788171D02*
X243185713Y-52816742D01*
X243185713Y-52816742D02*
X243214285Y-52845314D01*
D12*
%TO.C,SW1\u002C16*%
X364622000Y-42225000D02*
X365222000Y-42225000D01*
X378722000Y-51275000D02*
X378722000Y-53225000D01*
X365222000Y-42225000D02*
X364922000Y-42525000D01*
X370022000Y-39425000D02*
X366122000Y-39425000D01*
X378722000Y-53225000D02*
X374822000Y-53225000D01*
X364922000Y-42525000D02*
X364622000Y-42225000D01*
X370022000Y-53225000D02*
X366122000Y-53225000D01*
X378722000Y-39425000D02*
X378722000Y-41375000D01*
X366122000Y-39425000D02*
X366122000Y-53225000D01*
X374822000Y-39425000D02*
X378722000Y-39425000D01*
X371922000Y-46325000D02*
X372922000Y-46325000D01*
X372422000Y-45825000D02*
X372422000Y-46825000D01*
X375422000Y-46325000D02*
G75*
G03*
X375422000Y-46325000I-3000000J0D01*
G01*
%TO.C,SW1\u002C1*%
X47550000Y-45933000D02*
X47850000Y-45633000D01*
X47850000Y-45633000D02*
X47850000Y-46233000D01*
X38800000Y-59733000D02*
X36850000Y-59733000D01*
X36850000Y-59733000D02*
X36850000Y-55833000D01*
X36850000Y-51033000D02*
X36850000Y-47133000D01*
X50650000Y-59733000D02*
X48700000Y-59733000D01*
X44250000Y-53433000D02*
X43250000Y-53433000D01*
X50650000Y-55833000D02*
X50650000Y-59733000D01*
X43750000Y-52933000D02*
X43750000Y-53933000D01*
X50650000Y-51033000D02*
X50650000Y-47133000D01*
X50650000Y-47133000D02*
X36850000Y-47133000D01*
X47850000Y-46233000D02*
X47550000Y-45933000D01*
X46750000Y-53433000D02*
G75*
G03*
X46750000Y-53433000I-3000000J0D01*
G01*
%TO.C,RV204*%
X71721250Y-45575000D02*
X70971250Y-46325000D01*
X63351250Y-50945000D02*
X66736250Y-50945000D01*
X138591250Y-41705000D02*
X138591250Y-43752000D01*
X62546250Y-45075000D02*
X63046250Y-44575000D01*
X130971250Y-46325000D02*
X130221250Y-47075000D01*
X135207250Y-50945000D02*
X138591250Y-50945000D01*
X134007250Y-41705000D02*
X138591250Y-41705000D01*
X71207250Y-41705000D02*
X130736250Y-41705000D01*
X70007250Y-50945000D02*
X131936250Y-50945000D01*
X130971250Y-44825000D02*
X130971250Y-47825000D01*
X130221250Y-45575000D02*
X130971250Y-46325000D01*
X63351250Y-41705000D02*
X67936250Y-41705000D01*
X138591250Y-45398000D02*
X138591250Y-50945000D01*
X62546250Y-44075000D02*
X62546250Y-45075000D01*
X63351250Y-45750000D02*
X63351250Y-47253000D01*
X63351250Y-41705000D02*
X63351250Y-43400000D01*
X70971250Y-46325000D02*
X71721250Y-47075000D01*
X63046250Y-44575000D02*
X62546250Y-44075000D01*
X70971250Y-44825000D02*
X70971250Y-47825000D01*
X70971250Y-46325000D02*
X130971250Y-46325000D01*
X63351250Y-48898000D02*
X63351250Y-50945000D01*
%TO.C,SW202*%
X232875000Y-38925000D02*
X232875000Y-40425000D01*
X239875000Y-40425000D02*
X239875000Y-38925000D01*
X234125000Y-42925000D02*
X238625000Y-42925000D01*
X238625000Y-36425000D02*
X234125000Y-36425000D01*
%TO.C,RV206*%
X319661500Y-45398000D02*
X319661500Y-50945000D01*
X315077500Y-41705000D02*
X319661500Y-41705000D01*
X244116500Y-44575000D02*
X243616500Y-44075000D01*
X316277500Y-50945000D02*
X319661500Y-50945000D01*
X243616500Y-44075000D02*
X243616500Y-45075000D01*
X312041500Y-44825000D02*
X312041500Y-47825000D01*
X252041500Y-46325000D02*
X312041500Y-46325000D01*
X312041500Y-46325000D02*
X311291500Y-47075000D01*
X244421500Y-50945000D02*
X247806500Y-50945000D01*
X251077500Y-50945000D02*
X313006500Y-50945000D01*
X244421500Y-41705000D02*
X249006500Y-41705000D01*
X252277500Y-41705000D02*
X311806500Y-41705000D01*
X244421500Y-41705000D02*
X244421500Y-43400000D01*
X252041500Y-46325000D02*
X252791500Y-47075000D01*
X244421500Y-45750000D02*
X244421500Y-47253000D01*
X252041500Y-44825000D02*
X252041500Y-47825000D01*
X311291500Y-45575000D02*
X312041500Y-46325000D01*
X319661500Y-41705000D02*
X319661500Y-43752000D01*
X252791500Y-45575000D02*
X252041500Y-46325000D01*
X244421500Y-48898000D02*
X244421500Y-50945000D01*
X243616500Y-45075000D02*
X244116500Y-44575000D01*
%TO.C,RV205*%
X221554000Y-46325000D02*
X220804000Y-47075000D01*
X153129000Y-44075000D02*
X153129000Y-45075000D01*
X225790000Y-50945000D02*
X229174000Y-50945000D01*
X220804000Y-45575000D02*
X221554000Y-46325000D01*
X153629000Y-44575000D02*
X153129000Y-44075000D01*
X160590000Y-50945000D02*
X222519000Y-50945000D01*
X161554000Y-46325000D02*
X162304000Y-47075000D01*
X221554000Y-44825000D02*
X221554000Y-47825000D01*
X224590000Y-41705000D02*
X229174000Y-41705000D01*
X229174000Y-45398000D02*
X229174000Y-50945000D01*
X153934000Y-48898000D02*
X153934000Y-50945000D01*
X161554000Y-44825000D02*
X161554000Y-47825000D01*
X153934000Y-41705000D02*
X153934000Y-43400000D01*
X153934000Y-41705000D02*
X158519000Y-41705000D01*
X162304000Y-45575000D02*
X161554000Y-46325000D01*
X161790000Y-41705000D02*
X221319000Y-41705000D01*
X161554000Y-46325000D02*
X221554000Y-46325000D01*
X229174000Y-41705000D02*
X229174000Y-43752000D01*
X153934000Y-50945000D02*
X157319000Y-50945000D01*
X153934000Y-45750000D02*
X153934000Y-47253000D01*
X153129000Y-45075000D02*
X153629000Y-44575000D01*
%TO.C,J202*%
X239969000Y-56835600D02*
X240223000Y-56581600D01*
X235143000Y-48932600D02*
X235143000Y-46900600D01*
X240223000Y-51501600D02*
X240223000Y-49469600D01*
X240223000Y-54549600D02*
X239969000Y-54295600D01*
X235397000Y-56835600D02*
X235143000Y-56581600D01*
X237683000Y-44389600D02*
X237683000Y-46421600D01*
X232857000Y-46675600D02*
X232603000Y-46421600D01*
X237429000Y-46675600D02*
X237683000Y-46929600D01*
X237429000Y-44135600D02*
X237683000Y-44389600D01*
X237683000Y-48961600D02*
X237429000Y-49215600D01*
X237429000Y-51755600D02*
X237683000Y-52009600D01*
X232603000Y-44389600D02*
X232857000Y-44135600D01*
X235397000Y-49186600D02*
X235143000Y-48932600D01*
X236575000Y-43085600D02*
X236575000Y-44135600D01*
X237683000Y-46421600D02*
X237429000Y-46675600D01*
X232603000Y-48961600D02*
X232603000Y-46929600D01*
X232857000Y-54295600D02*
X232603000Y-54041600D01*
X237429000Y-46675600D02*
X237683000Y-46929600D01*
X232603000Y-54041600D02*
X232603000Y-52009600D01*
X235397000Y-44135600D02*
X237429000Y-44135600D01*
X239969000Y-49215600D02*
X240223000Y-48961600D01*
X240223000Y-56581600D02*
X240223000Y-54549600D01*
X232603000Y-46929600D02*
X232857000Y-46675600D01*
X237683000Y-51501600D02*
X237429000Y-51755600D01*
X235143000Y-56552600D02*
X235143000Y-54520600D01*
X233875000Y-57985600D02*
X233875000Y-56835600D01*
X235397000Y-46646600D02*
X235143000Y-46392600D01*
X237937000Y-56835600D02*
X239969000Y-56835600D01*
X232857000Y-51755600D02*
X232603000Y-51501600D01*
X237937000Y-44135600D02*
X239969000Y-44135600D01*
X237683000Y-54041600D02*
X237429000Y-54295600D01*
X232603000Y-44389600D02*
X232857000Y-44135600D01*
X232603000Y-54549600D02*
X232857000Y-54295600D01*
X237683000Y-46929600D02*
X237683000Y-48961600D01*
X235143000Y-54012600D02*
X235143000Y-51980600D01*
X237683000Y-52009600D02*
X237683000Y-54041600D01*
X239969000Y-54295600D02*
X240223000Y-54041600D01*
X235143000Y-46900600D02*
X235397000Y-46646600D01*
X234889000Y-56835600D02*
X232857000Y-56835600D01*
X235143000Y-54520600D02*
X235397000Y-54266600D01*
X234889000Y-44135600D02*
X232857000Y-44135600D01*
X237683000Y-54549600D02*
X237683000Y-56581600D01*
X237683000Y-49469600D02*
X237683000Y-51501600D01*
X240223000Y-52009600D02*
X239969000Y-51755600D01*
X240223000Y-46929600D02*
X239969000Y-46675600D01*
X235143000Y-51980600D02*
X235397000Y-51726600D01*
X240223000Y-44389600D02*
X239969000Y-44135600D01*
X232857000Y-56835600D02*
X232603000Y-56581600D01*
X240223000Y-44389600D02*
X239969000Y-44135600D01*
X237937000Y-56835600D02*
X237683000Y-56581600D01*
X235397000Y-44135600D02*
X235143000Y-44389600D01*
X242800000Y-44135600D02*
X242800000Y-43085600D01*
X237429000Y-54295600D02*
X237683000Y-54549600D01*
X232603000Y-49469600D02*
X232857000Y-49215600D01*
X235143000Y-44389600D02*
X234889000Y-44135600D01*
X240223000Y-49469600D02*
X239969000Y-49215600D01*
X239969000Y-51755600D02*
X240223000Y-51501600D01*
X242800000Y-43085600D02*
X236575000Y-43085600D01*
X232603000Y-51501600D02*
X232603000Y-49469600D01*
X237683000Y-44389600D02*
X237937000Y-44135600D01*
X232857000Y-49215600D02*
X232603000Y-48961600D01*
X240223000Y-46421600D02*
X240223000Y-44389600D01*
X232603000Y-56581600D02*
X232603000Y-54549600D01*
X240223000Y-48961600D02*
X240223000Y-46929600D01*
X234889000Y-56835600D02*
X235143000Y-56581600D01*
X237429000Y-49215600D02*
X237683000Y-49469600D01*
X235143000Y-46392600D02*
X235143000Y-44360600D01*
X232603000Y-46421600D02*
X232603000Y-44389600D01*
X239969000Y-46675600D02*
X240223000Y-46421600D01*
X237683000Y-56581600D02*
X237429000Y-56835600D01*
X239050000Y-57985600D02*
X230025000Y-57985600D01*
X240223000Y-54041600D02*
X240223000Y-52009600D01*
X235143000Y-49440600D02*
X235397000Y-49186600D01*
X235397000Y-51726600D02*
X235143000Y-51472600D01*
X237429000Y-56835600D02*
X235397000Y-56835600D01*
X232603000Y-52009600D02*
X232857000Y-51755600D01*
X235143000Y-51472600D02*
X235143000Y-49440600D01*
X239050000Y-57985600D02*
X239050000Y-56860600D01*
X235397000Y-54266600D02*
X235143000Y-54012600D01*
X230029000Y-56825600D02*
X230025000Y-57985600D01*
X244500000Y-44135600D02*
X241100000Y-44135600D01*
X241100000Y-44135600D02*
X241100000Y-56710600D01*
X241100000Y-56710600D02*
X244500000Y-56710600D01*
X244500000Y-56710600D02*
X244500000Y-44135600D01*
X231704000Y-56825600D02*
X228354000Y-56825600D01*
X228354000Y-56825600D02*
X228354000Y-44300600D01*
X228354000Y-44300600D02*
X231704000Y-44300600D01*
X231704000Y-44300600D02*
X231704000Y-56825600D01*
%TD*%
%LPC*%
D13*
%TO.C,LED3\u002C11*%
X234212500Y-118065500D03*
%TD*%
%TO.C,LED3\u002C2*%
X62762500Y-118080000D03*
%TD*%
%TO.C,LED7\u002C5*%
X129275000Y-194275000D03*
%TD*%
%TO.C,LED2\u002C10*%
X253262500Y-89490500D03*
%TD*%
%TO.C,LED3\u002C6*%
X138962500Y-118065500D03*
%TD*%
%TO.C,LED2\u002C8*%
X200975000Y-89725000D03*
%TD*%
%TO.C,LED7\u002C2*%
X69874500Y-194265500D03*
%TD*%
%TO.C,LED1\u002C7*%
X182015500Y-70567500D03*
%TD*%
%TO.C,LED1\u002C2*%
X72325000Y-70455000D03*
%TD*%
D14*
%TO.C,LED202*%
X300205000Y-37675000D03*
D15*
X302745000Y-37675000D03*
%TD*%
D13*
%TO.C,LED4\u002C8*%
X186587500Y-137115500D03*
%TD*%
%TO.C,LED5\u002C11*%
X248563500Y-156165500D03*
%TD*%
%TO.C,LED1\u002C6*%
X162965500Y-70567500D03*
%TD*%
D16*
%TO.C,SW1\u002C16*%
X379422000Y-42325000D03*
D17*
X364922000Y-43825000D03*
D18*
X364922000Y-48825000D03*
D16*
X379422000Y-44325000D03*
D18*
X364922000Y-46325000D03*
D16*
X379422000Y-48325000D03*
D19*
X372422000Y-38725000D03*
X372422000Y-53925000D03*
D16*
X379422000Y-50325000D03*
X379422000Y-46325000D03*
%TD*%
D13*
%TO.C,LED7\u002C7*%
X200975000Y-194275000D03*
%TD*%
%TO.C,LED4\u002C5*%
X129437500Y-137115500D03*
%TD*%
%TO.C,LED3\u002C7*%
X158012500Y-118065500D03*
%TD*%
%TO.C,LED7\u002C6*%
X165251500Y-194265500D03*
%TD*%
%TO.C,LED5\u002C14*%
X334288500Y-137115500D03*
%TD*%
%TO.C,LED6\u002C9*%
X200938500Y-175215500D03*
%TD*%
%TO.C,LED1\u002C10*%
X253262500Y-70440500D03*
%TD*%
%TO.C,LED5\u002C9*%
X210463500Y-156165500D03*
%TD*%
%TO.C,LED3\u002C17*%
X396137500Y-118065500D03*
%TD*%
%TO.C,LED5\u002C2*%
X77113500Y-156165500D03*
%TD*%
%TO.C,LED2\u002C14*%
X334288500Y-70440500D03*
%TD*%
%TO.C,LED1\u002C5*%
X129475000Y-70455000D03*
%TD*%
%TO.C,LED3\u002C16*%
X372388500Y-89490500D03*
%TD*%
%TO.C,LED3\u002C15*%
X353338500Y-89490500D03*
%TD*%
%TO.C,LED4\u002C11*%
X243737500Y-137115500D03*
%TD*%
%TO.C,LED2\u002C9*%
X220125000Y-89725000D03*
%TD*%
%TO.C,LED4\u002C14*%
X334288500Y-118192500D03*
%TD*%
%TO.C,LED3\u002C8*%
X177062500Y-118065500D03*
%TD*%
%TO.C,LED2\u002C4*%
X110387500Y-89490500D03*
%TD*%
%TO.C,LED7\u002C1*%
X46125500Y-194265500D03*
%TD*%
%TO.C,LED4\u002C18*%
X415187500Y-137242500D03*
%TD*%
%TO.C,LED3\u002C10*%
X215162500Y-118065500D03*
%TD*%
D16*
%TO.C,SW1\u002C1*%
X47750000Y-60433000D03*
D17*
X46250000Y-45933000D03*
D16*
X45750000Y-60433000D03*
D18*
X41250000Y-45933000D03*
X43750000Y-45933000D03*
D16*
X41750000Y-60433000D03*
D20*
X51350000Y-53433000D03*
X36150000Y-53433000D03*
D16*
X39750000Y-60433000D03*
X43750000Y-60433000D03*
%TD*%
D13*
%TO.C,LED4\u002C4*%
X110387500Y-137115500D03*
%TD*%
%TO.C,LED1\u002C11*%
X272312500Y-70440500D03*
%TD*%
%TO.C,LED4\u002C1*%
X48538500Y-137115500D03*
%TD*%
%TO.C,LED2\u002C19*%
X447905000Y-179905000D03*
%TD*%
%TO.C,LED1\u002C4*%
X110425000Y-70455000D03*
%TD*%
%TO.C,LED3\u002C18*%
X415187500Y-118065500D03*
%TD*%
%TO.C,LED5\u002C1*%
X50824500Y-156165500D03*
%TD*%
%TO.C,LED3\u002C4*%
X100862500Y-118080000D03*
%TD*%
%TO.C,LED4\u002C6*%
X148487500Y-137115500D03*
%TD*%
D21*
%TO.C,HA201*%
X35475000Y-36475000D03*
%TD*%
D13*
%TO.C,LED4\u002C15*%
X353338500Y-118192500D03*
%TD*%
%TO.C,LED6\u002C8*%
X181761500Y-175215500D03*
%TD*%
%TO.C,LED5\u002C7*%
X172236500Y-156165500D03*
%TD*%
%TO.C,LED6\u002C18*%
X415285000Y-175295000D03*
%TD*%
%TO.C,LED6\u002C15*%
X353255000Y-175295000D03*
%TD*%
%TO.C,LED4\u002C2*%
X72287500Y-137115500D03*
%TD*%
%TO.C,LED7\u002C15*%
X353338500Y-194392500D03*
%TD*%
%TO.C,LED6\u002C12*%
X286663500Y-156165500D03*
%TD*%
D22*
%TO.C,RV204*%
X64221250Y-44575000D03*
D23*
X64221250Y-48075000D03*
X137721250Y-44575000D03*
D24*
X133571250Y-50525000D03*
X68371250Y-50525000D03*
X69571250Y-42125000D03*
X132371250Y-42125000D03*
%TD*%
D13*
%TO.C,LED6\u002C3*%
X86638500Y-175215500D03*
%TD*%
%TO.C,LED4\u002C10*%
X224687500Y-137115500D03*
%TD*%
%TO.C,LED5\u002C15*%
X353338500Y-137115500D03*
%TD*%
D14*
%TO.C,LED203*%
X315205000Y-37675000D03*
D15*
X317745000Y-37675000D03*
%TD*%
D13*
%TO.C,LED4\u002C13*%
X300887500Y-118065500D03*
%TD*%
%TO.C,LED4\u002C12*%
X262787500Y-137115500D03*
%TD*%
%TO.C,LED4\u002C16*%
X372388500Y-118192500D03*
%TD*%
%TO.C,LED7\u002C3*%
X93750500Y-194265500D03*
%TD*%
%TO.C,LED2\u002C18*%
X448065000Y-141905000D03*
%TD*%
%TO.C,LED5\u002C10*%
X229513500Y-156165500D03*
%TD*%
%TO.C,LED7\u002C18*%
X434237500Y-194392500D03*
%TD*%
%TO.C,LED7\u002C16*%
X372388500Y-194392500D03*
%TD*%
D14*
%TO.C,LED201*%
X285205000Y-37675000D03*
D15*
X287745000Y-37675000D03*
%TD*%
D13*
%TO.C,LED1\u002C9*%
X220115500Y-70567500D03*
%TD*%
%TO.C,LED4\u002C19*%
X434237500Y-137242500D03*
%TD*%
%TO.C,LED2\u002C17*%
X453287500Y-118065500D03*
%TD*%
%TO.C,LED7\u002C17*%
X405700000Y-194280000D03*
%TD*%
D25*
%TO.C,H201*%
X331631155Y-148818845D03*
X329775000Y-153300000D03*
X332400000Y-150675000D03*
X327918845Y-152531155D03*
X327918845Y-148818845D03*
X329775000Y-148050000D03*
X331631155Y-152531155D03*
X327150000Y-150675000D03*
D26*
X329775000Y-150675000D03*
%TD*%
D21*
%TO.C,HA204*%
X462975000Y-198975000D03*
%TD*%
D13*
%TO.C,LED6\u002C19*%
X434237500Y-175215500D03*
%TD*%
%TO.C,LED5\u002C8*%
X191286500Y-156165500D03*
%TD*%
%TO.C,LED3\u002C19*%
X434237500Y-118065500D03*
%TD*%
%TO.C,LED7\u002C13*%
X293775500Y-175215500D03*
%TD*%
D18*
%TO.C,SW202*%
X233125000Y-37425000D03*
X239625000Y-37425000D03*
X239625000Y-41925000D03*
X233125000Y-41925000D03*
%TD*%
D13*
%TO.C,LED5\u002C19*%
X434237500Y-156292500D03*
%TD*%
%TO.C,LED2\u002C11*%
X272312500Y-89490500D03*
%TD*%
%TO.C,LED6\u002C4*%
X105688500Y-175215500D03*
%TD*%
%TO.C,LED5\u002C13*%
X281825000Y-137025000D03*
%TD*%
%TO.C,LED5\u002C16*%
X372388500Y-137115500D03*
%TD*%
%TO.C,LED6\u002C16*%
X372350000Y-175400000D03*
%TD*%
%TO.C,LED5\u002C12*%
X267613500Y-156165500D03*
%TD*%
%TO.C,LED6\u002C6*%
X143661500Y-175215500D03*
%TD*%
%TO.C,LED2\u002C16*%
X372388500Y-70440500D03*
%TD*%
%TO.C,LED6\u002C2*%
X67588500Y-175215500D03*
%TD*%
%TO.C,LED1\u002C12*%
X291362500Y-70440500D03*
%TD*%
%TO.C,LED6\u002C1*%
X46125500Y-175215500D03*
%TD*%
%TO.C,LED7\u002C9*%
X260412000Y-194265500D03*
%TD*%
%TO.C,LED5\u002C3*%
X96163500Y-156165500D03*
%TD*%
D21*
%TO.C,HA202*%
X35475000Y-198975000D03*
%TD*%
D13*
%TO.C,LED2\u002C7*%
X181925000Y-89725000D03*
%TD*%
%TO.C,LED3\u002C1*%
X43712500Y-118080000D03*
%TD*%
%TO.C,LED6\u002C17*%
X396235000Y-175295000D03*
%TD*%
%TO.C,LED6\u002C14*%
X333925000Y-175675000D03*
%TD*%
%TO.C,LED2\u002C13*%
X310412500Y-89490500D03*
%TD*%
%TO.C,LED4\u002C3*%
X91337500Y-137115500D03*
%TD*%
%TO.C,LED2\u002C5*%
X129437500Y-89490500D03*
%TD*%
%TO.C,LED3\u002C12*%
X253262500Y-118065500D03*
%TD*%
%TO.C,LED6\u002C13*%
X308037000Y-147148500D03*
%TD*%
%TO.C,LED7\u002C14*%
X334288500Y-194392500D03*
%TD*%
%TO.C,LED2\u002C1*%
X43575000Y-90125000D03*
%TD*%
%TO.C,LED1\u002C13*%
X310412500Y-70440500D03*
%TD*%
%TO.C,LED1\u002C3*%
X91375000Y-70455000D03*
%TD*%
%TO.C,LED3\u002C5*%
X119912500Y-118065500D03*
%TD*%
%TO.C,LED7\u002C12*%
X258135000Y-175515000D03*
%TD*%
%TO.C,LED4\u002C17*%
X396137500Y-137242500D03*
%TD*%
%TO.C,LED3\u002C14*%
X334288500Y-89490500D03*
%TD*%
%TO.C,LED5\u002C4*%
X115213500Y-156165500D03*
%TD*%
%TO.C,LED7\u002C8*%
X236625500Y-194265500D03*
%TD*%
%TO.C,LED5\u002C5*%
X134136500Y-156165500D03*
%TD*%
%TO.C,LED4\u002C9*%
X205637500Y-137115500D03*
%TD*%
%TO.C,LED2\u002C3*%
X91337500Y-89490500D03*
%TD*%
%TO.C,LED7\u002C10*%
X284161000Y-194265500D03*
%TD*%
%TO.C,LED4\u002C7*%
X167537500Y-137115500D03*
%TD*%
D22*
%TO.C,RV206*%
X245291500Y-44575000D03*
D23*
X245291500Y-48075000D03*
X318791500Y-44575000D03*
D24*
X313441500Y-42125000D03*
X314641500Y-50525000D03*
X249441500Y-50525000D03*
X250641500Y-42125000D03*
%TD*%
D13*
%TO.C,LED5\u002C17*%
X396137500Y-156292500D03*
%TD*%
%TO.C,LED2\u002C12*%
X291362500Y-89490500D03*
%TD*%
%TO.C,LED3\u002C13*%
X272350000Y-118080000D03*
%TD*%
%TO.C,LED6\u002C10*%
X219988500Y-175215500D03*
%TD*%
%TO.C,LED6\u002C5*%
X124611500Y-175215500D03*
%TD*%
%TO.C,LED2\u002C6*%
X162875000Y-89725000D03*
%TD*%
%TO.C,LED6\u002C11*%
X239038500Y-175215500D03*
%TD*%
%TO.C,LED1\u002C15*%
X353338500Y-51390500D03*
%TD*%
%TO.C,LED7\u002C11*%
X307999500Y-194265500D03*
%TD*%
%TO.C,LED3\u002C3*%
X81812500Y-118080000D03*
%TD*%
%TO.C,LED5\u002C6*%
X153186500Y-156165500D03*
%TD*%
D22*
%TO.C,RV205*%
X154804000Y-44575000D03*
D23*
X154804000Y-48075000D03*
X228304000Y-44575000D03*
D24*
X224154000Y-50525000D03*
X158954000Y-50525000D03*
X160154000Y-42125000D03*
X222954000Y-42125000D03*
%TD*%
D13*
%TO.C,LED1\u002C14*%
X334288500Y-51390500D03*
%TD*%
%TO.C,LED1\u002C8*%
X201065500Y-70567500D03*
%TD*%
%TO.C,LED6\u002C7*%
X162711500Y-175215500D03*
%TD*%
%TO.C,LED2\u002C15*%
X353338500Y-70440500D03*
%TD*%
D21*
%TO.C,HA203*%
X462975000Y-36475000D03*
%TD*%
D13*
%TO.C,LED3\u002C9*%
X196112500Y-118065500D03*
%TD*%
%TO.C,LED5\u002C18*%
X415187500Y-156292500D03*
%TD*%
%TO.C,LED2\u002C2*%
X72287500Y-89490500D03*
%TD*%
D27*
%TO.C,SW5\u002C7*%
X168495750Y-148591750D03*
D28*
X177385750Y-151131750D03*
D27*
X174845750Y-146051750D03*
D28*
X167225750Y-151131750D03*
D29*
X172305750Y-151131750D03*
%TD*%
%TO.C,SW5\u002C13*%
X281843250Y-132081750D03*
D28*
X286923250Y-132081750D03*
D27*
X284383250Y-127001750D03*
D28*
X276763250Y-132081750D03*
D27*
X278033250Y-129541750D03*
%TD*%
%TO.C,SW6\u002C6*%
X146270750Y-165101750D03*
D28*
X138650750Y-170181750D03*
D29*
X143730750Y-170181750D03*
D27*
X139920750Y-167641750D03*
D28*
X148810750Y-170181750D03*
%TD*%
D27*
%TO.C,SW2\u002C11*%
X274858250Y-79376750D03*
D28*
X277398250Y-84456750D03*
D27*
X268508250Y-81916750D03*
D29*
X272318250Y-84456750D03*
D28*
X267238250Y-84456750D03*
%TD*%
D27*
%TO.C,SW6\u002C17*%
X392333250Y-167673500D03*
D28*
X401223250Y-170213500D03*
D29*
X396143250Y-170213500D03*
D28*
X391063250Y-170213500D03*
D27*
X398683250Y-165133500D03*
%TD*%
D29*
%TO.C,SW6\u002C15*%
X353280750Y-170213500D03*
D28*
X348200750Y-170213500D03*
D27*
X355820750Y-165133500D03*
D28*
X358360750Y-170213500D03*
D27*
X349470750Y-167673500D03*
%TD*%
D29*
%TO.C,SW3\u002C8*%
X177068250Y-113031750D03*
D27*
X173258250Y-110491750D03*
X179608250Y-107951750D03*
D28*
X182148250Y-113031750D03*
X171988250Y-113031750D03*
%TD*%
D29*
%TO.C,SW3\u002C6*%
X138968250Y-113031750D03*
D27*
X141508250Y-107951750D03*
D28*
X133888250Y-113031750D03*
X144048250Y-113031750D03*
D27*
X135158250Y-110491750D03*
%TD*%
%TO.C,SW5\u002C15*%
X349502500Y-129510000D03*
X355852500Y-126970000D03*
D28*
X348232500Y-132050000D03*
D29*
X353312500Y-132050000D03*
D28*
X358392500Y-132050000D03*
%TD*%
D27*
%TO.C,SW1\u002C4*%
X112933250Y-60326750D03*
D28*
X115473250Y-65406750D03*
X105313250Y-65406750D03*
D29*
X110393250Y-65406750D03*
D27*
X106583250Y-62866750D03*
%TD*%
%TO.C,SW1\u002C10*%
X249458410Y-62866750D03*
D28*
X248188410Y-65406750D03*
X258348410Y-65406750D03*
D27*
X255808410Y-60326750D03*
D29*
X253268410Y-65406750D03*
%TD*%
D30*
%TO.C,SW2\u002C18*%
X460278250Y-153576500D03*
D28*
X453293250Y-136558500D03*
D29*
X445038250Y-129700500D03*
D27*
X458373250Y-144178500D03*
X455833250Y-137828500D03*
D29*
X453293250Y-141638500D03*
D28*
X453293250Y-146718500D03*
D30*
X460278250Y-129700500D03*
D29*
X445038250Y-153576500D03*
%TD*%
D28*
%TO.C,SW1\u002C12*%
X296448250Y-65406750D03*
D27*
X293908250Y-60326750D03*
X287558250Y-62866750D03*
D28*
X286288250Y-65406750D03*
D29*
X291368250Y-65406750D03*
%TD*%
%TO.C,SW2\u002C5*%
X129445000Y-84455000D03*
D27*
X125635000Y-81915000D03*
X131985000Y-79375000D03*
D28*
X124365000Y-84455000D03*
X134525000Y-84455000D03*
%TD*%
D27*
%TO.C,SW5\u002C19*%
X430433250Y-148623500D03*
D28*
X439323250Y-151163500D03*
X429163250Y-151163500D03*
D29*
X434243250Y-151163500D03*
D27*
X436783250Y-146083500D03*
%TD*%
%TO.C,SW1\u002C14*%
X336802500Y-41245000D03*
D29*
X334262500Y-46325000D03*
D27*
X330452500Y-43785000D03*
D28*
X339342500Y-46325000D03*
X329182500Y-46325000D03*
%TD*%
D27*
%TO.C,SW3\u002C7*%
X160558250Y-107951750D03*
X154208250Y-110491750D03*
D29*
X158018250Y-113031750D03*
D28*
X152938250Y-113031750D03*
X163098250Y-113031750D03*
%TD*%
D29*
%TO.C,SW4\u002C14*%
X334262500Y-113000000D03*
D27*
X336802500Y-107920000D03*
D28*
X329182500Y-113000000D03*
X339342500Y-113000000D03*
D27*
X330452500Y-110460000D03*
%TD*%
D28*
%TO.C,SW4\u002C5*%
X134523250Y-132081750D03*
D27*
X131983250Y-127001750D03*
D29*
X129443250Y-132081750D03*
D28*
X124363250Y-132081750D03*
D27*
X125633250Y-129541750D03*
%TD*%
D28*
%TO.C,SW7\u002C9*%
X265492000Y-189231750D03*
D27*
X262952000Y-184151750D03*
D29*
X260412000Y-189231750D03*
D27*
X256602000Y-186691750D03*
D28*
X255332000Y-189231750D03*
%TD*%
D27*
%TO.C,SW6\u002C2*%
X63720750Y-167641750D03*
X70070750Y-165101750D03*
D28*
X62450750Y-170181750D03*
D29*
X67530750Y-170181750D03*
D28*
X72610750Y-170181750D03*
%TD*%
D27*
%TO.C,SW4\u002C12*%
X265333250Y-127001750D03*
X258983250Y-129541750D03*
D29*
X262793250Y-132081750D03*
D28*
X267873250Y-132081750D03*
X257713250Y-132081750D03*
%TD*%
D29*
%TO.C,SW7\u002C4*%
X124675000Y-189225000D03*
D28*
X129755000Y-189225000D03*
D27*
X120865000Y-186685000D03*
D28*
X119595000Y-189225000D03*
D27*
X127215000Y-184145000D03*
%TD*%
%TO.C,SW5\u002C5*%
X130395750Y-148591750D03*
X136745750Y-146051750D03*
D28*
X129125750Y-151131750D03*
X139285750Y-151131750D03*
D29*
X134205750Y-151131750D03*
%TD*%
%TO.C,SW4\u002C8*%
X186593250Y-132081750D03*
D27*
X182783250Y-129541750D03*
D28*
X191673250Y-132081750D03*
X181513250Y-132081750D03*
D27*
X189133250Y-127001750D03*
%TD*%
D29*
%TO.C,SW6\u002C7*%
X162780750Y-170181750D03*
D28*
X157700750Y-170181750D03*
D27*
X158970750Y-167641750D03*
D28*
X167860750Y-170181750D03*
D27*
X165320750Y-165101750D03*
%TD*%
D18*
%TO.C,SW201*%
X232725000Y-58925000D03*
X239225000Y-58925000D03*
X232725000Y-63425000D03*
X239225000Y-63425000D03*
%TD*%
D28*
%TO.C,SW7\u002C12*%
X263110750Y-170181750D03*
D27*
X260570750Y-165101750D03*
D29*
X258030750Y-170181750D03*
D28*
X252950750Y-170181750D03*
D27*
X254220750Y-167641750D03*
%TD*%
%TO.C,SW1\u002C13*%
X312958250Y-60326750D03*
D28*
X315498250Y-65406750D03*
D27*
X306608250Y-62866750D03*
D28*
X305338250Y-65406750D03*
D29*
X310418250Y-65406750D03*
%TD*%
D28*
%TO.C,SW3\u002C16*%
X377442500Y-84425000D03*
D29*
X372362500Y-84425000D03*
D27*
X368552500Y-81885000D03*
D28*
X367282500Y-84425000D03*
D27*
X374902500Y-79345000D03*
%TD*%
D31*
%TO.C,J201*%
X143095000Y-32521500D03*
X148875000Y-32521500D03*
D32*
X141685000Y-33072500D03*
D33*
X150285000Y-28872500D03*
X141685000Y-28872500D03*
D32*
X150285000Y-33072500D03*
%TD*%
D27*
%TO.C,SW2\u002C12*%
X287558250Y-81916750D03*
X293908250Y-79376750D03*
D28*
X296448250Y-84456750D03*
D29*
X291368250Y-84456750D03*
D28*
X286288250Y-84456750D03*
%TD*%
D27*
%TO.C,SW2\u002C2*%
X68483250Y-81916750D03*
D29*
X72293250Y-84456750D03*
D27*
X74833250Y-79376750D03*
D28*
X67213250Y-84456750D03*
X77373250Y-84456750D03*
%TD*%
D27*
%TO.C,SW7\u002C2*%
X72452000Y-184151750D03*
X66102000Y-186691750D03*
D28*
X64832000Y-189231750D03*
X74992000Y-189231750D03*
D29*
X69912000Y-189231750D03*
%TD*%
D28*
%TO.C,SW4\u002C11*%
X248823250Y-132081750D03*
D29*
X243743250Y-132081750D03*
D27*
X239933250Y-129541750D03*
X246283250Y-127001750D03*
D28*
X238663250Y-132081750D03*
%TD*%
D29*
%TO.C,SW6\u002C12*%
X286605750Y-151131750D03*
D28*
X291685750Y-151131750D03*
D27*
X289145750Y-146051750D03*
X282795750Y-148591750D03*
D28*
X281525750Y-151131750D03*
%TD*%
D30*
%TO.C,SW2\u002C19*%
X446308250Y-167800500D03*
D29*
X461548250Y-167800500D03*
D28*
X453293250Y-184818500D03*
D29*
X461548250Y-191676500D03*
D28*
X453293250Y-174658500D03*
D30*
X446308250Y-191676500D03*
D27*
X458373250Y-182278500D03*
X455833250Y-175928500D03*
D29*
X453293250Y-179738500D03*
%TD*%
%TO.C,SW6\u002C14*%
X334235000Y-170215000D03*
D28*
X339315000Y-170215000D03*
D27*
X330425000Y-167675000D03*
X336775000Y-165135000D03*
D28*
X329155000Y-170215000D03*
%TD*%
D34*
%TO.C,J202*%
X238885500Y-45410600D03*
X233809500Y-45410600D03*
D35*
X236345500Y-45410600D03*
X233936500Y-47950600D03*
X239012500Y-47950600D03*
X236472500Y-47950600D03*
X233809500Y-50490600D03*
X238885500Y-50490600D03*
X236345500Y-50490600D03*
X233936500Y-53030600D03*
X239012500Y-53030600D03*
X236472500Y-53030600D03*
X238885500Y-55570600D03*
X233809500Y-55570600D03*
X236345500Y-55570600D03*
%TD*%
D27*
%TO.C,SW5\u002C6*%
X155795750Y-146051750D03*
D28*
X158335750Y-151131750D03*
D29*
X153255750Y-151131750D03*
D28*
X148175750Y-151131750D03*
D27*
X149445750Y-148591750D03*
%TD*%
D29*
%TO.C,SW5\u002C11*%
X248505750Y-151131750D03*
D27*
X251045750Y-146051750D03*
D28*
X243425750Y-151131750D03*
X253585750Y-151131750D03*
D27*
X244695750Y-148591750D03*
%TD*%
D29*
%TO.C,SW6\u002C18*%
X415193250Y-170213500D03*
D28*
X410113250Y-170213500D03*
D27*
X411383250Y-167673500D03*
X417733250Y-165133500D03*
D28*
X420273250Y-170213500D03*
%TD*%
D30*
%TO.C,SW4\u002C13*%
X288955250Y-106046750D03*
D29*
X300893250Y-113031750D03*
X288955250Y-121286750D03*
D28*
X305973250Y-113031750D03*
X295813250Y-113031750D03*
D27*
X303433250Y-107951750D03*
D30*
X312831250Y-106046750D03*
D29*
X312831250Y-121286750D03*
D27*
X297083250Y-110491750D03*
%TD*%
D28*
%TO.C,SW1\u002C9*%
X225106000Y-65406750D03*
D29*
X220026000Y-65406750D03*
D27*
X216216000Y-62866750D03*
X222566000Y-60326750D03*
D28*
X214946000Y-65406750D03*
%TD*%
%TO.C,SW2\u002C3*%
X86263250Y-84456750D03*
D29*
X91343250Y-84456750D03*
D27*
X87533250Y-81916750D03*
D28*
X96423250Y-84456750D03*
D27*
X93883250Y-79376750D03*
%TD*%
%TO.C,SW5\u002C1*%
X53402000Y-146051750D03*
D29*
X50862000Y-151131750D03*
D28*
X45782000Y-151131750D03*
X55942000Y-151131750D03*
D27*
X47052000Y-148591750D03*
%TD*%
%TO.C,SW3\u002C18*%
X417733250Y-107983500D03*
X411383250Y-110523500D03*
D28*
X410113250Y-113063500D03*
X420273250Y-113063500D03*
D29*
X415193250Y-113063500D03*
%TD*%
%TO.C,SW7\u002C6*%
X165162000Y-189231750D03*
D30*
X215200000Y-182246750D03*
D29*
X215200000Y-197486750D03*
D30*
X115124000Y-182246750D03*
D27*
X161352000Y-186691750D03*
D28*
X160082000Y-189231750D03*
D27*
X167702000Y-184151750D03*
D29*
X115124000Y-197486750D03*
D28*
X170242000Y-189231750D03*
%TD*%
D27*
%TO.C,SW4\u002C1*%
X44670750Y-129541750D03*
D28*
X53560750Y-132081750D03*
D29*
X48480750Y-132081750D03*
D28*
X43400750Y-132081750D03*
D27*
X51020750Y-127001750D03*
%TD*%
D29*
%TO.C,SW3\u002C5*%
X119918250Y-113031750D03*
D28*
X124998250Y-113031750D03*
D27*
X122458250Y-107951750D03*
X116108250Y-110491750D03*
D28*
X114838250Y-113031750D03*
%TD*%
%TO.C,SW4\u002C9*%
X200563250Y-132081750D03*
X210723250Y-132081750D03*
D27*
X201833250Y-129541750D03*
D29*
X205643250Y-132081750D03*
D27*
X208183250Y-127001750D03*
%TD*%
%TO.C,SW1\u002C7*%
X184466106Y-60326750D03*
D28*
X187006106Y-65406750D03*
X176846106Y-65406750D03*
D29*
X181926106Y-65406750D03*
D27*
X178116106Y-62866750D03*
%TD*%
D28*
%TO.C,SW6\u002C1*%
X51179500Y-170181750D03*
D27*
X48639500Y-165101750D03*
D29*
X46099500Y-170181750D03*
D27*
X42289500Y-167641750D03*
D28*
X41019500Y-170181750D03*
%TD*%
D27*
%TO.C,SW4\u002C4*%
X106583250Y-129541750D03*
D28*
X115473250Y-132081750D03*
D29*
X110393250Y-132081750D03*
D27*
X112933250Y-127001750D03*
D28*
X105313250Y-132081750D03*
%TD*%
%TO.C,SW2\u002C10*%
X258348250Y-84456750D03*
D29*
X253268250Y-84456750D03*
D28*
X248188250Y-84456750D03*
D27*
X249458250Y-81916750D03*
X255808250Y-79376750D03*
%TD*%
D28*
%TO.C,SW3\u002C19*%
X439323250Y-113063500D03*
D29*
X434243250Y-113063500D03*
D27*
X430433250Y-110523500D03*
D28*
X429163250Y-113063500D03*
D27*
X436783250Y-107983500D03*
%TD*%
D28*
%TO.C,SW1\u002C6*%
X157796090Y-65406750D03*
X167956090Y-65406750D03*
D27*
X165416090Y-60326750D03*
D29*
X162876090Y-65406750D03*
D27*
X159066090Y-62866750D03*
%TD*%
D29*
%TO.C,SW3\u002C15*%
X353312500Y-84425000D03*
D28*
X358392500Y-84425000D03*
D27*
X355852500Y-79345000D03*
D28*
X348232500Y-84425000D03*
D27*
X349502500Y-81885000D03*
%TD*%
D28*
%TO.C,SW3\u002C11*%
X239298250Y-113031750D03*
D27*
X230408250Y-110491750D03*
X236758250Y-107951750D03*
D29*
X234218250Y-113031750D03*
D28*
X229138250Y-113031750D03*
%TD*%
D27*
%TO.C,SW7\u002C7*%
X197065000Y-186685000D03*
D28*
X195795000Y-189225000D03*
X205955000Y-189225000D03*
D27*
X203415000Y-184145000D03*
D29*
X200875000Y-189225000D03*
%TD*%
D27*
%TO.C,SW5\u002C3*%
X92295750Y-148591750D03*
D28*
X91025750Y-151131750D03*
X101185750Y-151131750D03*
D27*
X98645750Y-146051750D03*
D29*
X96105750Y-151131750D03*
%TD*%
D28*
%TO.C,SW5\u002C17*%
X401223250Y-151163500D03*
D27*
X398683250Y-146083500D03*
D29*
X396143250Y-151163500D03*
D28*
X391063250Y-151163500D03*
D27*
X392333250Y-148623500D03*
%TD*%
%TO.C,SW3\u002C10*%
X211358250Y-110491750D03*
D29*
X215168250Y-113031750D03*
D28*
X210088250Y-113031750D03*
X220248250Y-113031750D03*
D27*
X217708250Y-107951750D03*
%TD*%
D29*
%TO.C,SW1\u002C2*%
X72293250Y-65406750D03*
D28*
X77373250Y-65406750D03*
X67213250Y-65406750D03*
D27*
X74833250Y-60326750D03*
X68483250Y-62866750D03*
%TD*%
D30*
%TO.C,SW6\u002C13*%
X315022000Y-153544750D03*
D29*
X299782000Y-129668750D03*
X308037000Y-141606750D03*
D28*
X302957000Y-141606750D03*
D27*
X310577000Y-136526750D03*
X304227000Y-139066750D03*
D28*
X313117000Y-141606750D03*
D29*
X299782000Y-153544750D03*
D30*
X315022000Y-129668750D03*
%TD*%
D28*
%TO.C,SW6\u002C11*%
X244060750Y-170181750D03*
D29*
X238980750Y-170181750D03*
D27*
X241520750Y-165101750D03*
D28*
X233900750Y-170181750D03*
D27*
X235170750Y-167641750D03*
%TD*%
D36*
%TO.C,R306*%
X275075000Y-37675000D03*
D37*
X282695000Y-37675000D03*
%TD*%
D28*
%TO.C,SW2\u002C1*%
X48798250Y-84456750D03*
D29*
X43718250Y-84456750D03*
D27*
X46258250Y-79376750D03*
D28*
X38638250Y-84456750D03*
D27*
X39908250Y-81916750D03*
%TD*%
D28*
%TO.C,SW7\u002C5*%
X148815000Y-189215000D03*
D27*
X146275000Y-184135000D03*
X139925000Y-186675000D03*
D29*
X143735000Y-189215000D03*
D28*
X138655000Y-189215000D03*
%TD*%
%TO.C,SW6\u002C10*%
X225010750Y-170181750D03*
D27*
X216120750Y-167641750D03*
X222470750Y-165101750D03*
D28*
X214850750Y-170181750D03*
D29*
X219930750Y-170181750D03*
%TD*%
D27*
%TO.C,SW5\u002C8*%
X187540000Y-148610000D03*
D28*
X196430000Y-151150000D03*
X186270000Y-151150000D03*
D29*
X191350000Y-151150000D03*
D27*
X193890000Y-146070000D03*
%TD*%
D28*
%TO.C,SW3\u002C17*%
X401223250Y-113063500D03*
D27*
X392333250Y-110523500D03*
X398683250Y-107983500D03*
D29*
X396143250Y-113063500D03*
D28*
X391063250Y-113063500D03*
%TD*%
D27*
%TO.C,SW2\u002C8*%
X197166000Y-81916750D03*
X203516000Y-79376750D03*
D29*
X200976000Y-84456750D03*
D28*
X206056000Y-84456750D03*
X195896000Y-84456750D03*
%TD*%
%TO.C,SW4\u002C7*%
X162463250Y-132081750D03*
D29*
X167543250Y-132081750D03*
D28*
X172623250Y-132081750D03*
D27*
X170083250Y-127001750D03*
X163733250Y-129541750D03*
%TD*%
D29*
%TO.C,SW4\u002C6*%
X148493250Y-132081750D03*
D28*
X153573250Y-132081750D03*
D27*
X144683250Y-129541750D03*
X151033250Y-127001750D03*
D28*
X143413250Y-132081750D03*
%TD*%
%TO.C,SW7\u002C3*%
X98804500Y-189231750D03*
D27*
X89914500Y-186691750D03*
D28*
X88644500Y-189231750D03*
D27*
X96264500Y-184151750D03*
D29*
X93724500Y-189231750D03*
%TD*%
D28*
%TO.C,SW4\u002C18*%
X420273250Y-132113500D03*
D27*
X417733250Y-127033500D03*
X411383250Y-129573500D03*
D29*
X415193250Y-132113500D03*
D28*
X410113250Y-132113500D03*
%TD*%
D29*
%TO.C,SW5\u002C10*%
X229455750Y-151131750D03*
D28*
X234535750Y-151131750D03*
X224375750Y-151131750D03*
D27*
X231995750Y-146051750D03*
X225645750Y-148591750D03*
%TD*%
D28*
%TO.C,SW1\u002C11*%
X277398250Y-65406750D03*
X267238250Y-65406750D03*
D27*
X274858250Y-60326750D03*
X268508250Y-62866750D03*
D29*
X272318250Y-65406750D03*
%TD*%
D36*
%TO.C,R307*%
X290075000Y-37675000D03*
D37*
X297695000Y-37675000D03*
%TD*%
D27*
%TO.C,SW4\u002C15*%
X355852500Y-107920000D03*
D28*
X358392500Y-113000000D03*
D29*
X353312500Y-113000000D03*
D27*
X349502500Y-110460000D03*
D28*
X348232500Y-113000000D03*
%TD*%
D29*
%TO.C,SW2\u002C16*%
X372362500Y-65375000D03*
D27*
X374902500Y-60295000D03*
X368552500Y-62835000D03*
D28*
X377442500Y-65375000D03*
X367282500Y-65375000D03*
%TD*%
%TO.C,SW2\u002C14*%
X339342500Y-65375000D03*
D29*
X334262500Y-65375000D03*
D27*
X336802500Y-60295000D03*
X330452500Y-62835000D03*
D28*
X329182500Y-65375000D03*
%TD*%
%TO.C,SW4\u002C10*%
X219613250Y-132081750D03*
D27*
X220883250Y-129541750D03*
D28*
X229773250Y-132081750D03*
D27*
X227233250Y-127001750D03*
D29*
X224693250Y-132081750D03*
%TD*%
%TO.C,SW5\u002C18*%
X415193250Y-151163500D03*
D27*
X417733250Y-146083500D03*
X411383250Y-148623500D03*
D28*
X410113250Y-151163500D03*
X420273250Y-151163500D03*
%TD*%
D27*
%TO.C,SW7\u002C10*%
X280414500Y-186691750D03*
D28*
X279144500Y-189231750D03*
D29*
X284224500Y-189231750D03*
D28*
X289304500Y-189231750D03*
D27*
X286764500Y-184151750D03*
%TD*%
%TO.C,SW2\u002C9*%
X222566000Y-79376750D03*
X216216000Y-81916750D03*
D29*
X220026000Y-84456750D03*
D28*
X214946000Y-84456750D03*
X225106000Y-84456750D03*
%TD*%
%TO.C,SW2\u002C17*%
X458373250Y-113063500D03*
X448213250Y-113063500D03*
D29*
X453293250Y-113063500D03*
D27*
X455833250Y-107983500D03*
X449483250Y-110523500D03*
%TD*%
D28*
%TO.C,SW7\u002C1*%
X41019500Y-189231750D03*
D27*
X48639500Y-184151750D03*
D28*
X51179500Y-189231750D03*
D29*
X46099500Y-189231750D03*
D27*
X42289500Y-186691750D03*
%TD*%
D29*
%TO.C,SW3\u002C13*%
X272318250Y-113031750D03*
D27*
X268508250Y-110491750D03*
D28*
X267238250Y-113031750D03*
X277398250Y-113031750D03*
D27*
X274858250Y-107951750D03*
%TD*%
D28*
%TO.C,SW2\u002C13*%
X305338250Y-84456750D03*
D27*
X306608250Y-81916750D03*
D28*
X315498250Y-84456750D03*
D27*
X312958250Y-79376750D03*
D29*
X310418250Y-84456750D03*
%TD*%
D27*
%TO.C,SW2\u002C7*%
X178116000Y-81916750D03*
D28*
X187006000Y-84456750D03*
D27*
X184466000Y-79376750D03*
D28*
X176846000Y-84456750D03*
D29*
X181926000Y-84456750D03*
%TD*%
D28*
%TO.C,SW7\u002C11*%
X313117000Y-189231750D03*
D27*
X310577000Y-184151750D03*
X304227000Y-186691750D03*
D29*
X308037000Y-189231750D03*
D28*
X302957000Y-189231750D03*
%TD*%
D29*
%TO.C,SW4\u002C2*%
X72293250Y-132081750D03*
D27*
X74833250Y-127001750D03*
X68483250Y-129541750D03*
D28*
X77373250Y-132081750D03*
X67213250Y-132081750D03*
%TD*%
D27*
%TO.C,SW3\u002C1*%
X46258250Y-107951750D03*
D28*
X38638250Y-113031750D03*
D27*
X39908250Y-110491750D03*
D28*
X48798250Y-113031750D03*
D29*
X43718250Y-113031750D03*
%TD*%
D27*
%TO.C,SW6\u002C9*%
X197070750Y-167641750D03*
D28*
X205960750Y-170181750D03*
D27*
X203420750Y-165101750D03*
D28*
X195800750Y-170181750D03*
D29*
X200880750Y-170181750D03*
%TD*%
D27*
%TO.C,SW3\u002C2*%
X58958250Y-110491750D03*
D28*
X57688250Y-113031750D03*
D29*
X62768250Y-113031750D03*
D27*
X65308250Y-107951750D03*
D28*
X67848250Y-113031750D03*
%TD*%
%TO.C,SW7\u002C16*%
X377410750Y-189263500D03*
D27*
X374870750Y-184183500D03*
X368520750Y-186723500D03*
D28*
X367250750Y-189263500D03*
D29*
X372330750Y-189263500D03*
%TD*%
D36*
%TO.C,R308*%
X305075000Y-37675000D03*
D37*
X312695000Y-37675000D03*
%TD*%
D28*
%TO.C,SW6\u002C16*%
X367245000Y-170200000D03*
D29*
X372325000Y-170200000D03*
D28*
X377405000Y-170200000D03*
D27*
X374865000Y-165120000D03*
X368515000Y-167660000D03*
%TD*%
D28*
%TO.C,SW6\u002C5*%
X119600750Y-170181750D03*
X129760750Y-170181750D03*
D29*
X124680750Y-170181750D03*
D27*
X120870750Y-167641750D03*
X127220750Y-165101750D03*
%TD*%
D28*
%TO.C,SW2\u002C6*%
X157796000Y-84456750D03*
D27*
X165416000Y-79376750D03*
D28*
X167956000Y-84456750D03*
D29*
X162876000Y-84456750D03*
D27*
X159066000Y-81916750D03*
%TD*%
D29*
%TO.C,SW2\u002C4*%
X110393250Y-84456750D03*
D27*
X112933250Y-79376750D03*
X106583250Y-81916750D03*
D28*
X105313250Y-84456750D03*
X115473250Y-84456750D03*
%TD*%
%TO.C,SW4\u002C17*%
X401223250Y-132113500D03*
D27*
X392333250Y-129573500D03*
D29*
X396143250Y-132113500D03*
D27*
X398683250Y-127033500D03*
D28*
X391063250Y-132113500D03*
%TD*%
%TO.C,SW3\u002C12*%
X248188250Y-113031750D03*
D27*
X255808250Y-107951750D03*
D28*
X258348250Y-113031750D03*
D27*
X249458250Y-110491750D03*
D29*
X253268250Y-113031750D03*
%TD*%
D27*
%TO.C,SW3\u002C3*%
X78008250Y-110491750D03*
D28*
X86898250Y-113031750D03*
D27*
X84358250Y-107951750D03*
D29*
X81818250Y-113031750D03*
D28*
X76738250Y-113031750D03*
%TD*%
%TO.C,SW4\u002C3*%
X86263250Y-132081750D03*
X96423250Y-132081750D03*
D29*
X91343250Y-132081750D03*
D27*
X87533250Y-129541750D03*
X93883250Y-127001750D03*
%TD*%
D29*
%TO.C,SW7\u002C14*%
X334230750Y-189263500D03*
D27*
X336770750Y-184183500D03*
D28*
X329150750Y-189263500D03*
X339310750Y-189263500D03*
D27*
X330420750Y-186723500D03*
%TD*%
D28*
%TO.C,SW5\u002C12*%
X262475750Y-151131750D03*
D27*
X270095750Y-146051750D03*
D29*
X267555750Y-151131750D03*
D28*
X272635750Y-151131750D03*
D27*
X263745750Y-148591750D03*
%TD*%
D28*
%TO.C,SW6\u002C19*%
X429163250Y-170213500D03*
D27*
X436783250Y-165133500D03*
D28*
X439323250Y-170213500D03*
D27*
X430433250Y-167673500D03*
D29*
X434243250Y-170213500D03*
%TD*%
D28*
%TO.C,SW7\u002C8*%
X241679500Y-189231750D03*
D29*
X236599500Y-189231750D03*
D27*
X232789500Y-186691750D03*
D28*
X231519500Y-189231750D03*
D27*
X239139500Y-184151750D03*
%TD*%
D28*
%TO.C,SW1\u002C5*%
X134523250Y-65406750D03*
X124363250Y-65406750D03*
D29*
X129443250Y-65406750D03*
D27*
X125633250Y-62866750D03*
X131983250Y-60326750D03*
%TD*%
D29*
%TO.C,SW1\u002C3*%
X91343250Y-65406750D03*
D27*
X87533250Y-62866750D03*
X93883250Y-60326750D03*
D28*
X86263250Y-65406750D03*
X96423250Y-65406750D03*
%TD*%
%TO.C,SW4\u002C16*%
X367282500Y-113000000D03*
D29*
X372362500Y-113000000D03*
D28*
X377442500Y-113000000D03*
D27*
X374902500Y-107920000D03*
X368552500Y-110460000D03*
%TD*%
%TO.C,SW6\u002C3*%
X89120750Y-165101750D03*
D28*
X81500750Y-170181750D03*
X91660750Y-170181750D03*
D29*
X86580750Y-170181750D03*
D27*
X82770750Y-167641750D03*
%TD*%
D28*
%TO.C,SW6\u002C8*%
X186910750Y-170181750D03*
D27*
X178020750Y-167641750D03*
D28*
X176750750Y-170181750D03*
D29*
X181830750Y-170181750D03*
D27*
X184370750Y-165101750D03*
%TD*%
%TO.C,SW5\u002C2*%
X79595750Y-146051750D03*
X73245750Y-148591750D03*
D28*
X71975750Y-151131750D03*
D29*
X77055750Y-151131750D03*
D28*
X82135750Y-151131750D03*
%TD*%
D27*
%TO.C,SW4\u002C19*%
X430433250Y-129573500D03*
D29*
X434243250Y-132113500D03*
D28*
X429163250Y-132113500D03*
X439323250Y-132113500D03*
D27*
X436783250Y-127033500D03*
%TD*%
D29*
%TO.C,SW7\u002C17*%
X393730250Y-197518500D03*
D27*
X408208250Y-184183500D03*
D28*
X400588250Y-189263500D03*
D29*
X405668250Y-189263500D03*
D28*
X410748250Y-189263500D03*
D29*
X417606250Y-197518500D03*
D27*
X401858250Y-186723500D03*
D30*
X417606250Y-182278500D03*
X393730250Y-182278500D03*
%TD*%
D28*
%TO.C,SW5\u002C4*%
X120235750Y-151131750D03*
D27*
X117695750Y-146051750D03*
D28*
X110075750Y-151131750D03*
D29*
X115155750Y-151131750D03*
D27*
X111345750Y-148591750D03*
%TD*%
%TO.C,SW7\u002C13*%
X296289500Y-165101750D03*
D29*
X281811500Y-178436750D03*
D27*
X289939500Y-167641750D03*
D29*
X305687500Y-178436750D03*
D28*
X298829500Y-170181750D03*
D30*
X305687500Y-163196750D03*
D29*
X293749500Y-170181750D03*
D28*
X288669500Y-170181750D03*
D30*
X281811500Y-163196750D03*
%TD*%
D28*
%TO.C,SW5\u002C16*%
X367282500Y-132050000D03*
D27*
X374902500Y-126970000D03*
D28*
X377442500Y-132050000D03*
D27*
X368552500Y-129510000D03*
D29*
X372362500Y-132050000D03*
%TD*%
%TO.C,SW1\u002C8*%
X200976000Y-65406750D03*
D27*
X203516000Y-60326750D03*
D28*
X195896000Y-65406750D03*
X206056000Y-65406750D03*
D27*
X197166000Y-62866750D03*
%TD*%
%TO.C,SW5\u002C9*%
X212945750Y-146051750D03*
D28*
X205325750Y-151131750D03*
D27*
X206595750Y-148591750D03*
D28*
X215485750Y-151131750D03*
D29*
X210405750Y-151131750D03*
%TD*%
%TO.C,SW7\u002C18*%
X434243250Y-189263500D03*
D27*
X430433250Y-186723500D03*
X436783250Y-184183500D03*
D28*
X429163250Y-189263500D03*
X439323250Y-189263500D03*
%TD*%
D27*
%TO.C,SW3\u002C14*%
X336802500Y-79345000D03*
X330452500Y-81885000D03*
D28*
X329182500Y-84425000D03*
X339342500Y-84425000D03*
D29*
X334262500Y-84425000D03*
%TD*%
D27*
%TO.C,SW7\u002C15*%
X355820750Y-184183500D03*
D28*
X348200750Y-189263500D03*
D29*
X353280750Y-189263500D03*
D28*
X358360750Y-189263500D03*
D27*
X349470750Y-186723500D03*
%TD*%
D28*
%TO.C,SW3\u002C9*%
X191038250Y-113031750D03*
D29*
X196118250Y-113031750D03*
D27*
X198658250Y-107951750D03*
D28*
X201198250Y-113031750D03*
D27*
X192308250Y-110491750D03*
%TD*%
D29*
%TO.C,SW6\u002C4*%
X105630750Y-170181750D03*
D28*
X110710750Y-170181750D03*
D27*
X101820750Y-167641750D03*
X108170750Y-165101750D03*
D28*
X100550750Y-170181750D03*
%TD*%
D27*
%TO.C,SW5\u002C14*%
X336802500Y-126970000D03*
D28*
X339342500Y-132050000D03*
D29*
X334262500Y-132050000D03*
D27*
X330452500Y-129510000D03*
D28*
X329182500Y-132050000D03*
%TD*%
%TO.C,SW2\u002C15*%
X348232500Y-65375000D03*
X358392500Y-65375000D03*
D27*
X349502500Y-62835000D03*
X355852500Y-60295000D03*
D29*
X353312500Y-65375000D03*
%TD*%
D27*
%TO.C,SW3\u002C4*%
X97058250Y-110491750D03*
D29*
X100868250Y-113031750D03*
D28*
X105948250Y-113031750D03*
D27*
X103408250Y-107951750D03*
D28*
X95788250Y-113031750D03*
%TD*%
D27*
%TO.C,SW1\u002C15*%
X349502500Y-43785000D03*
D28*
X348232500Y-46325000D03*
D29*
X353312500Y-46325000D03*
D27*
X355852500Y-41245000D03*
D28*
X358392500Y-46325000D03*
%TD*%
D25*
X234875000Y-80925000D03*
X236510600Y-58225500D03*
X377015000Y-88785000D03*
X236128200Y-57321800D03*
X58275000Y-97675000D03*
X378635000Y-70025000D03*
X147975000Y-88675000D03*
X329827500Y-195192500D03*
X282005000Y-157015000D03*
X57875000Y-96275000D03*
X283675000Y-105175000D03*
X134825000Y-69675000D03*
X273825000Y-178275000D03*
X329025000Y-176475000D03*
X155722576Y-72745265D03*
X235825000Y-83375000D03*
X455975000Y-116175000D03*
X59775000Y-71675000D03*
X450305000Y-144885000D03*
X246075000Y-91675000D03*
X250875000Y-178195000D03*
X236575000Y-82525000D03*
X233325000Y-80076250D03*
X58475000Y-94116420D03*
X154725000Y-86775000D03*
X391375000Y-118875000D03*
X234280378Y-80169622D03*
X298775000Y-93275000D03*
X448955000Y-185305000D03*
X313825000Y-157575000D03*
X226225000Y-88925000D03*
X248347000Y-98141000D03*
X291655000Y-157325000D03*
X274001000Y-126843000D03*
X232475000Y-70725000D03*
X240225000Y-70625000D03*
X39825000Y-116205000D03*
X209739000Y-83663000D03*
X148275000Y-59375000D03*
X377525000Y-176075000D03*
X55875000Y-55775000D03*
X242685000Y-88055000D03*
X59875000Y-100375000D03*
X227275000Y-70725000D03*
X230915000Y-88055000D03*
X166805000Y-91405000D03*
X257575000Y-91135000D03*
X135875000Y-72615000D03*
X381495000Y-95945000D03*
X276735000Y-91125000D03*
X262063000Y-67534000D03*
X264349000Y-115540000D03*
X338575000Y-176675000D03*
X228916000Y-116302000D03*
X323023000Y-126208000D03*
X143575000Y-71475000D03*
X240225000Y-71575000D03*
X295365000Y-135215000D03*
X230915000Y-99845000D03*
X190689000Y-83663000D03*
X242685000Y-99845000D03*
X148025000Y-86625000D03*
X240600000Y-81885000D03*
X247925000Y-69325000D03*
X243875000Y-102075000D03*
X297365000Y-138215000D03*
X185975000Y-91415000D03*
X287971000Y-175738000D03*
X381775000Y-44875000D03*
X246725000Y-69325000D03*
X143064000Y-72360000D03*
X429065000Y-117105000D03*
X204295000Y-91395000D03*
X226503000Y-83346500D03*
X293365000Y-138215000D03*
X230625000Y-104825000D03*
X381495000Y-94495000D03*
X148275000Y-60375000D03*
X148175000Y-92507500D03*
X382525000Y-43975000D03*
X135185000Y-74305000D03*
X224265000Y-90385000D03*
X264065000Y-176545000D03*
X295295000Y-91185000D03*
X290675000Y-158175000D03*
D38*
X286320000Y-97252000D03*
D25*
X148321800Y-36589600D03*
X141514600Y-46172600D03*
X143445000Y-46172600D03*
X143622800Y-36596800D03*
X143622800Y-35696800D03*
X148321800Y-35689600D03*
X142479800Y-46172600D03*
X144410200Y-46172600D03*
X237275000Y-64725000D03*
X136675000Y-56775000D03*
X237603422Y-58085822D03*
X154875000Y-54475000D03*
X237575000Y-80875000D03*
X47675000Y-93475000D03*
X65375000Y-94275000D03*
X315783000Y-75790000D03*
X154875000Y-73275000D03*
X324547000Y-57145400D03*
X134555000Y-76551000D03*
X407248400Y-107133600D03*
X378925000Y-76665000D03*
X388301000Y-107285000D03*
X323683400Y-78049600D03*
X309775000Y-103275000D03*
X426298400Y-107133600D03*
X212654997Y-104166237D03*
X214005000Y-124955000D03*
X214044769Y-142972000D03*
X212721991Y-103168982D03*
X232455000Y-105915000D03*
X310645000Y-181085000D03*
X243245000Y-173515000D03*
X323335000Y-180875000D03*
X95693000Y-95425000D03*
X115275000Y-95625000D03*
X133825000Y-95825000D03*
X148125000Y-95875000D03*
X225296505Y-103880673D03*
X234775000Y-105951500D03*
X252487200Y-107056400D03*
X272299200Y-106534700D03*
X337775000Y-103675000D03*
X356875000Y-103975000D03*
X360068872Y-93398872D03*
X242575000Y-63075000D03*
X251775500Y-94250501D03*
X230278378Y-84871622D03*
X226501218Y-87748782D03*
X225452189Y-96125000D03*
X242875000Y-76075000D03*
D39*
X231224500Y-45410600D03*
X228425000Y-83975000D03*
D25*
X256785000Y-102195000D03*
X266950000Y-104140000D03*
X246675000Y-98275000D03*
X248375980Y-88475000D03*
X227420464Y-101725464D03*
D39*
X228975000Y-75725000D03*
X146875000Y-74202500D03*
X146875000Y-75375000D03*
X141875000Y-100675000D03*
X157505000Y-74165000D03*
D25*
X257775000Y-102195000D03*
D39*
X144675000Y-97875000D03*
D25*
X239815000Y-84375000D03*
X238775000Y-72625000D03*
X45020000Y-134590000D03*
D39*
X58775000Y-73225000D03*
D25*
X51522000Y-196922000D03*
D39*
X37400000Y-89886000D03*
D25*
X158675000Y-72675000D03*
X311720000Y-116175000D03*
X296607000Y-117318000D03*
X317155000Y-139945000D03*
X141375000Y-65975000D03*
X37400000Y-95601000D03*
X392475000Y-43975000D03*
D39*
X58786000Y-87175000D03*
D25*
X159435000Y-77015000D03*
X439935000Y-121015000D03*
X452795000Y-124605000D03*
X40067000Y-157958000D03*
X49355000Y-121015000D03*
X43213021Y-172636979D03*
X85075000Y-95275000D03*
X215325000Y-96514020D03*
X244975020Y-101443364D03*
X216325000Y-96514031D03*
X245675000Y-102275000D03*
X165525000Y-96114500D03*
X246675000Y-102075000D03*
X214125000Y-98375500D03*
X214843400Y-162023000D03*
X63675000Y-100775000D03*
X241997000Y-72741000D03*
X247077000Y-88489000D03*
X247331000Y-72233000D03*
X326071000Y-55469000D03*
M02*
