M48
; DRILL file {KiCad 7.0.1} date Sat Apr  1 22:43:58 2023
; FORMAT={-:-/ absolute / inch / decimal}
; #@! TF.CreationDate,2023-04-01T22:43:58+02:00
; #@! TF.GenerationSoftware,Kicad,Pcbnew,7.0.1
; #@! TF.FileFunction,NonPlated,1,2,NPTH
FMAT,2
INCH
; #@! TA.AperFunction,NonPlated,NPTH,ComponentDrill
T1C0.0256
; #@! TA.AperFunction,NonPlated,NPTH,ComponentDrill
T2C0.0454
; #@! TA.AperFunction,NonPlated,NPTH,ComponentDrill
T3C0.0670
; #@! TA.AperFunction,NonPlated,NPTH,ComponentDrill
T4C0.1200
; #@! TA.AperFunction,NonPlated,NPTH,ComponentDrill
T5C0.1570
; #@! TA.AperFunction,NonPlated,NPTH,ComponentDrill
T6C0.1673
%
G90
G05
T1
X5.6337Y-1.2804
X5.8612Y-1.2804
T2
X1.3967Y-1.436
X1.3967Y-7.8337
X18.2274Y-1.436
X18.2274Y-7.8337
T3
X1.5212Y-3.3251
X1.5212Y-4.4501
X1.6149Y-6.7001
X1.6149Y-7.4501
X1.7087Y-5.2001
X1.8024Y-5.9501
X1.9212Y-3.3251
X1.9212Y-4.4501
X2.0149Y-6.7001
X2.0149Y-7.4501
X2.1087Y-5.2001
X2.2024Y-5.9501
X2.2712Y-4.4501
X2.4587Y-6.7001
X2.5524Y-7.4501
X2.6462Y-2.5751
X2.6462Y-3.3251
X2.6462Y-5.2001
X2.6712Y-4.4501
X2.8337Y-5.9501
X2.8587Y-6.7001
X2.9524Y-7.4501
X3.0212Y-4.4501
X3.0462Y-2.5751
X3.0462Y-3.3251
X3.0462Y-5.2001
X3.2087Y-6.7001
X3.2337Y-5.9501
X3.3962Y-2.5751
X3.3962Y-3.3251
X3.3962Y-5.2001
X3.4212Y-4.4501
X3.4899Y-7.4501
X3.5837Y-5.9501
X3.6087Y-6.7001
X3.7712Y-4.4501
X3.7962Y-2.5751
X3.7962Y-3.3251
X3.7962Y-5.2001
X3.8899Y-7.4501
X3.9587Y-6.7001
X3.9837Y-5.9501
X4.1462Y-2.5751
X4.1462Y-3.3251
X4.1462Y-5.2001
X4.1712Y-4.4501
X4.3337Y-5.9501
X4.3587Y-6.7001
X4.5212Y-4.4501
X4.5462Y-2.5751
X4.5462Y-3.3251
X4.5462Y-5.2001
X4.7085Y-7.4498
X4.7087Y-6.7001
X4.7337Y-5.9501
X4.8962Y-2.5751
X4.8962Y-5.2001
X4.8963Y-3.325
X4.9212Y-4.4501
X5.0837Y-5.9501
X5.1085Y-7.4498
X5.1087Y-6.7001
X5.2712Y-4.4501
X5.2962Y-2.5751
X5.2962Y-5.2001
X5.2963Y-3.325
X5.4587Y-6.7001
X5.4589Y-7.4494
X5.4837Y-5.9501
X5.6462Y-5.2001
X5.6712Y-4.4501
X5.8337Y-5.9501
X5.8587Y-6.7001
X5.8589Y-7.4494
X6.0212Y-4.4501
X6.0462Y-5.2001
X6.2087Y-6.7001
X6.2124Y-3.3251
X6.2124Y-2.5751
X6.2337Y-5.9501
X6.3024Y-7.4501
X6.3962Y-5.2001
X6.4212Y-4.4501
X6.5837Y-5.9501
X6.6087Y-6.7001
X6.6124Y-3.3251
X6.6124Y-2.5751
X6.7024Y-7.4501
X6.7712Y-4.4501
X6.7962Y-5.2001
X6.9587Y-6.7001
X6.9624Y-3.3251
X6.9624Y-2.5751
X6.9837Y-5.9501
X7.1462Y-5.2001
X7.1712Y-4.4501
X7.3335Y-5.9508
X7.3587Y-6.7001
X7.3624Y-3.3251
X7.3624Y-2.5751
X7.5212Y-4.4501
X7.5462Y-5.2001
X7.7085Y-7.4498
X7.7087Y-6.7001
X7.7124Y-2.5751
X7.7124Y-3.3251
X7.7335Y-5.9508
X7.8962Y-5.2001
X7.9212Y-4.4501
X8.0837Y-5.9501
X8.1085Y-7.4498
X8.1087Y-6.7001
X8.1124Y-2.5751
X8.1124Y-3.3251
X8.2712Y-4.4501
X8.2962Y-5.2001
X8.4587Y-6.7001
X8.4624Y-2.5751
X8.4624Y-3.3251
X8.4837Y-5.9501
X8.6462Y-5.2001
X8.6712Y-4.4501
X8.8337Y-5.9501
X8.8587Y-6.7001
X8.8624Y-2.5751
X8.8624Y-3.3251
X9.0212Y-4.4501
X9.0462Y-5.2001
X9.1149Y-7.4501
X9.2087Y-6.7001
X9.2337Y-5.9501
X9.3962Y-5.2001
X9.4212Y-4.4501
X9.5149Y-7.4501
X9.5837Y-5.9501
X9.6087Y-6.7001
X9.7712Y-3.3251
X9.7712Y-4.4501
X9.7712Y-2.5751
X9.7962Y-5.2001
X9.9587Y-6.7001
X9.9837Y-5.9501
X10.0524Y-7.4501
X10.1462Y-5.2001
X10.1712Y-3.3251
X10.1712Y-4.4501
X10.1712Y-2.5751
X10.3337Y-5.9501
X10.3587Y-6.7001
X10.4524Y-7.4501
X10.5212Y-2.5751
X10.5212Y-3.3251
X10.5212Y-4.4501
X10.5462Y-5.2001
X10.7337Y-5.9501
X10.8962Y-5.2001
X10.9212Y-2.5751
X10.9212Y-3.3251
X10.9212Y-4.4501
X10.9899Y-7.4501
X11.0837Y-5.9501
X11.2712Y-2.5751
X11.2712Y-3.3251
X11.2962Y-5.2001
X11.3649Y-6.7001
X11.3899Y-7.4501
X11.4837Y-5.9501
X11.6462Y-4.4501
X11.6712Y-2.5751
X11.6712Y-3.3251
X11.7649Y-6.7001
X11.9274Y-5.5751
X11.9274Y-7.4501
X12.0212Y-2.5751
X12.0212Y-3.3251
X12.0462Y-4.4501
X12.3274Y-5.5751
X12.3274Y-7.4501
X12.4212Y-2.5751
X12.4212Y-3.3251
X12.9587Y-7.4513
X12.9589Y-6.7014
X12.9599Y-1.8238
X12.9599Y-2.5738
X12.9599Y-3.3238
X12.9599Y-4.4488
X12.9599Y-5.1988
X13.3587Y-7.4513
X13.3589Y-6.7014
X13.3599Y-1.8238
X13.3599Y-2.5738
X13.3599Y-3.3238
X13.3599Y-4.4488
X13.3599Y-5.1988
X13.7087Y-6.7013
X13.7087Y-7.4513
X13.7099Y-1.8238
X13.7099Y-2.5738
X13.7099Y-3.3238
X13.7099Y-4.4488
X13.7099Y-5.1988
X14.1087Y-6.7013
X14.1087Y-7.4513
X14.1099Y-1.8238
X14.1099Y-2.5738
X14.1099Y-3.3238
X14.1099Y-4.4488
X14.1099Y-5.1988
X14.4585Y-6.7008
X14.4587Y-7.4513
X14.4599Y-2.5738
X14.4599Y-3.3238
X14.4599Y-4.4488
X14.4599Y-5.1988
X14.8585Y-6.7008
X14.8587Y-7.4513
X14.8599Y-2.5738
X14.8599Y-3.3238
X14.8599Y-4.4488
X14.8599Y-5.1988
X15.3962Y-4.4513
X15.3962Y-5.2013
X15.3962Y-5.9513
X15.3962Y-6.7013
X15.7712Y-7.4513
X15.7962Y-4.4513
X15.7962Y-5.2013
X15.7962Y-5.9513
X15.7962Y-6.7013
X16.1462Y-4.4513
X16.1462Y-5.2013
X16.1462Y-5.9513
X16.1462Y-6.7013
X16.1712Y-7.4513
X16.5462Y-4.4513
X16.5462Y-5.2013
X16.5462Y-5.9513
X16.5462Y-6.7013
X16.8962Y-4.4513
X16.8962Y-5.2013
X16.8962Y-5.9513
X16.8962Y-6.7013
X16.8962Y-7.4513
X17.2962Y-4.4513
X17.2962Y-5.2013
X17.2962Y-5.9513
X17.2962Y-6.7013
X17.2962Y-7.4513
X17.6462Y-4.4513
X17.8462Y-5.3763
X17.8462Y-5.7763
X17.8462Y-6.8763
X17.8462Y-7.2763
X18.0462Y-4.4513
T4
X4.5324Y-7.1751
X8.4724Y-7.1751
X11.0949Y-6.4251
X11.3762Y-4.1751
X12.0349Y-6.4251
X12.3162Y-4.1751
X12.4024Y-5.1051
X12.4024Y-6.0451
X15.5012Y-7.1763
X16.4412Y-7.1763
X17.5712Y-6.6063
X17.5712Y-7.5463
X18.1212Y-5.1063
X18.1212Y-6.0463
T5
X1.7212Y-3.3251
X1.7212Y-4.4501
X1.8149Y-6.7001
X1.8149Y-7.4501
X1.9087Y-5.2001
X2.0024Y-5.9501
X2.4712Y-4.4501
X2.6587Y-6.7001
X2.7524Y-7.4501
X2.8462Y-2.5751
X2.8462Y-3.3251
X2.8462Y-5.2001
X3.0337Y-5.9501
X3.2212Y-4.4501
X3.4087Y-6.7001
X3.5962Y-2.5751
X3.5962Y-3.3251
X3.5962Y-5.2001
X3.6899Y-7.4501
X3.7837Y-5.9501
X3.9712Y-4.4501
X4.1587Y-6.7001
X4.3462Y-2.5751
X4.3462Y-3.3251
X4.3462Y-5.2001
X4.5324Y-7.7751
X4.5337Y-5.9501
X4.7212Y-4.4501
X4.9085Y-7.4498
X4.9087Y-6.7001
X5.0962Y-2.5751
X5.0962Y-5.2001
X5.0963Y-3.325
X5.2837Y-5.9501
X5.4712Y-4.4501
X5.6587Y-6.7001
X5.6589Y-7.4494
X5.8462Y-5.2001
X6.0337Y-5.9501
X6.2212Y-4.4501
X6.4087Y-6.7001
X6.4124Y-3.3251
X6.4124Y-2.5751
X6.5024Y-7.4501
X6.5962Y-5.2001
X6.7837Y-5.9501
X6.9712Y-4.4501
X7.1587Y-6.7001
X7.1624Y-3.3251
X7.1624Y-2.5751
X7.3462Y-5.2001
X7.5335Y-5.9508
X7.7212Y-4.4501
X7.9085Y-7.4498
X7.9087Y-6.7001
X7.9124Y-2.5751
X7.9124Y-3.3251
X8.0962Y-5.2001
X8.2837Y-5.9501
X8.4712Y-4.4501
X8.4724Y-7.7751
X8.6587Y-6.7001
X8.6624Y-2.5751
X8.6624Y-3.3251
X8.8462Y-5.2001
X9.0337Y-5.9501
X9.2212Y-4.4501
X9.3149Y-7.4501
X9.4087Y-6.7001
X9.5962Y-5.2001
X9.7837Y-5.9501
X9.9712Y-3.3251
X9.9712Y-4.4501
X9.9712Y-2.5751
X10.1587Y-6.7001
X10.2524Y-7.4501
X10.3462Y-5.2001
X10.5337Y-5.9501
X10.7212Y-2.5751
X10.7212Y-3.3251
X10.7212Y-4.4501
X11.0949Y-7.0251
X11.0962Y-5.2001
X11.1899Y-7.4501
X11.2837Y-5.9501
X11.3762Y-4.7751
X11.4712Y-2.5751
X11.4712Y-3.3251
X11.5649Y-6.7001
X11.8024Y-5.1051
X11.8024Y-6.0451
X11.8462Y-4.4501
X12.0349Y-7.0251
X12.1274Y-5.5751
X12.1274Y-7.4501
X12.2212Y-2.5751
X12.2212Y-3.3251
X12.3162Y-4.7751
X13.1587Y-7.4513
X13.1589Y-6.7014
X13.1599Y-1.8238
X13.1599Y-2.5738
X13.1599Y-3.3238
X13.1599Y-4.4488
X13.1599Y-5.1988
X13.9087Y-6.7013
X13.9087Y-7.4513
X13.9099Y-1.8238
X13.9099Y-2.5738
X13.9099Y-3.3238
X13.9099Y-4.4488
X13.9099Y-5.1988
X14.6585Y-6.7008
X14.6587Y-7.4513
X14.6599Y-2.5738
X14.6599Y-3.3238
X14.6599Y-4.4488
X14.6599Y-5.1988
X15.5012Y-7.7763
X15.5962Y-4.4513
X15.5962Y-5.2013
X15.5962Y-5.9513
X15.5962Y-6.7013
X15.9712Y-7.4513
X16.3462Y-4.4513
X16.3462Y-5.2013
X16.3462Y-5.9513
X16.3462Y-6.7013
X16.4412Y-7.7763
X17.0962Y-4.4513
X17.0962Y-5.2013
X17.0962Y-5.9513
X17.0962Y-6.7013
X17.0962Y-7.4513
X17.5212Y-5.1063
X17.5212Y-6.0463
X17.8462Y-4.4513
X17.8462Y-5.5763
X17.8462Y-7.0763
X18.1712Y-6.6063
X18.1712Y-7.5463
T6
X1.7156Y-3.5482
X1.721Y-4.6488
X1.816Y-6.8982
X1.816Y-7.6482
X1.911Y-5.3982
X2.001Y-6.1482
X2.471Y-4.6488
X2.661Y-6.8982
X2.751Y-7.6482
X2.846Y-3.5232
X2.846Y-5.3982
X2.8474Y-2.7738
X3.036Y-6.1482
X3.221Y-4.6488
X3.411Y-6.8982
X3.596Y-3.5232
X3.596Y-5.3982
X3.5974Y-2.7738
X3.691Y-7.6482
X3.786Y-6.1482
X3.971Y-4.6488
X4.161Y-6.8982
X4.346Y-3.5232
X4.346Y-5.3982
X4.3474Y-2.7738
X4.536Y-6.1482
X4.721Y-4.6482
X4.906Y-6.8982
X5.0896Y-7.6486
X5.096Y-3.5232
X5.096Y-5.3982
X5.0974Y-2.7738
X5.281Y-6.1482
X5.471Y-4.6482
X5.656Y-6.8982
X5.846Y-5.3982
X6.031Y-6.1482
X6.221Y-4.6482
X6.406Y-6.8982
X6.4124Y-3.5325
X6.416Y-2.7782
X6.506Y-7.6482
X6.596Y-5.3982
X6.781Y-6.1482
X6.971Y-4.6482
X7.156Y-6.8982
X7.1624Y-3.5325
X7.166Y-2.7782
X7.346Y-5.3982
X7.531Y-6.1482
X7.721Y-4.6482
X7.911Y-6.8982
X7.9124Y-3.5325
X7.9124Y-7.6486
X7.916Y-2.7782
X8.096Y-5.3982
X8.286Y-6.1482
X8.471Y-4.6482
X8.661Y-6.8982
X8.666Y-2.7782
X8.6663Y-3.5325
X8.846Y-5.3982
X9.036Y-6.1482
X9.221Y-4.6482
X9.316Y-7.6482
X9.411Y-6.8982
X9.596Y-5.3982
X9.786Y-6.1482
X9.971Y-2.7732
X9.971Y-3.5232
X9.971Y-4.6482
X10.1628Y-6.91
X10.2524Y-7.6482
X10.346Y-5.3982
X10.536Y-6.1482
X10.721Y-2.7732
X10.721Y-3.5232
X10.7224Y-4.6488
X11.0955Y-5.3947
X11.1874Y-7.6482
X11.286Y-6.1482
X11.471Y-2.7732
X11.471Y-3.5232
X11.566Y-6.8982
X11.846Y-4.6482
X12.126Y-7.6482
X12.1274Y-5.7932
X12.221Y-2.7732
X12.221Y-3.5232
X13.1467Y-6.9163
X13.161Y-2.0232
X13.161Y-2.7732
X13.161Y-3.5232
X13.161Y-4.6532
X13.161Y-5.3982
X13.161Y-7.6532
X13.9077Y-6.9014
X13.911Y-2.0232
X13.911Y-2.7732
X13.911Y-3.5232
X13.911Y-4.6532
X13.911Y-5.3982
X13.911Y-7.6532
X14.6594Y-6.9055
X14.661Y-2.7732
X14.661Y-3.5232
X14.661Y-4.6532
X14.661Y-5.3982
X14.661Y-7.6532
X15.596Y-4.6482
X15.596Y-5.4032
X15.596Y-6.1532
X15.5998Y-6.9014
X15.9724Y-7.6488
X16.346Y-4.6482
X16.346Y-5.4032
X16.346Y-6.1532
X16.3498Y-6.9014
X17.096Y-4.6482
X17.096Y-5.4032
X17.096Y-6.1532
X17.096Y-6.8982
X17.096Y-7.6532
X17.6341Y-7.0829
X17.6404Y-5.5868
X17.846Y-4.6482
T0
M30
