M48
; DRILL file {KiCad 7.0.1} date Sat Apr  1 22:43:58 2023
; FORMAT={-:-/ absolute / inch / decimal}
; #@! TF.CreationDate,2023-04-01T22:43:58+02:00
; #@! TF.GenerationSoftware,Kicad,Pcbnew,7.0.1
; #@! TF.FileFunction,Plated,1,2,PTH
FMAT,2
INCH
; #@! TA.AperFunction,Plated,PTH,ViaDrill
T1C0.0157
; #@! TA.AperFunction,Plated,PTH,ComponentDrill
T2C0.0197
; #@! TA.AperFunction,Plated,PTH,ComponentDrill
T3C0.0236
; #@! TA.AperFunction,Plated,PTH,ComponentDrill
T4C0.0300
; #@! TA.AperFunction,Plated,PTH,ComponentDrill
T5C0.0315
; #@! TA.AperFunction,Plated,PTH,ComponentDrill
T6C0.0390
; #@! TA.AperFunction,Plated,PTH,ComponentDrill
T7C0.0394
; #@! TA.AperFunction,Plated,PTH,ComponentDrill
T8C0.0400
; #@! TA.AperFunction,Plated,PTH,ComponentDrill
T9C0.0433
; #@! TA.AperFunction,Plated,PTH,ComponentDrill
T10C0.0472
; #@! TA.AperFunction,Plated,PTH,ComponentDrill
T11C0.0669
; #@! TA.AperFunction,Plated,PTH,ComponentDrill
T12C0.1181
; #@! TA.AperFunction,Plated,PTH,ComponentDrill
T13C0.1200
; #@! TA.AperFunction,Plated,PTH,ComponentDrill
T14C0.1378
%
G90
G05
T1
X1.4724Y-3.5388
X1.4724Y-3.7638
X1.5679Y-4.575
X1.5774Y-6.2188
X1.7013Y-6.7967
X1.7724Y-5.2988
X1.877Y-3.6801
X1.9431Y-4.7644
X2.0284Y-7.7528
X2.1998Y-2.1959
X2.2785Y-3.7904
X2.2943Y-3.8455
X2.3022Y-3.7054
X2.314Y-2.8829
X2.3144Y-3.4321
X2.3533Y-2.8219
X2.3573Y-3.9518
X2.5069Y-3.9675
X2.5738Y-3.7116
X3.3494Y-3.751
X3.7674Y-3.7569
X4.5384Y-3.7648
X5.2687Y-3.7726
X5.2974Y-3.0138
X5.3081Y-2.7431
X5.3222Y-2.9254
X5.3494Y-2.8589
X5.3809Y-2.2352
X5.5659Y-2.5974
X5.5714Y-1.8178
X5.5856Y-3.9636
X5.6094Y-1.8178
X5.6324Y-2.8488
X5.6474Y-1.8178
X5.6526Y-2.814
X5.6544Y-1.4054
X5.6544Y-1.4408
X5.6854Y-1.8178
X5.6959Y-3.8533
X5.7825Y-2.9214
X5.7825Y-2.9675
X5.8258Y-3.4911
X5.8278Y-3.4104
X5.8317Y-3.7746
X5.8337Y-3.642
X5.8376Y-2.3376
X5.8376Y-2.377
X5.8394Y-1.4051
X5.8394Y-1.4405
X6.0915Y-3.4163
X6.0974Y-2.1447
X6.0974Y-2.8848
X6.1308Y-2.864
X6.201Y-2.9199
X6.247Y-2.8612
X6.277Y-3.0321
X6.5167Y-3.784
X6.5671Y-3.5986
X7.3219Y-3.599
X7.5074Y-3.2938
X8.0431Y-3.5982
X8.2574Y-3.2938
X8.3722Y-4.101
X8.3749Y-4.0618
X8.4254Y-4.9195
X8.427Y-5.6288
X8.4301Y-3.8731
X8.4584Y-6.3789
X8.4774Y-3.7998
X8.5167Y-3.7998
X8.8293Y-3.5585
X8.8699Y-4.0898
X8.8761Y-3.7844
X8.9065Y-3.501
X8.9174Y-3.4547
X8.9174Y-3.2814
X8.9478Y-2.7844
X8.9536Y-4.0049
X8.9931Y-3.3061
X9.0124Y-4.5788
X9.0148Y-2.9813
X9.0661Y-3.3414
X9.0797Y-4.127
X9.0911Y-3.4667
X9.0911Y-3.9309
X9.1033Y-1.7878
X9.1518Y-4.1699
X9.1526Y-2.7844
X9.186Y-3.1526
X9.2236Y-3.1563
X9.2431Y-4.1713
X9.247Y-3.186
X9.2844Y-3.2825
X9.2964Y-2.2568
X9.3114Y-2.2923
X9.314Y-3.249
X9.3415Y-2.5482
X9.3533Y-3.1841
X9.3545Y-2.2868
X9.4006Y-2.8593
X9.4415Y-3.3219
X9.4577Y-2.7805
X9.4577Y-2.8179
X9.4724Y-3.2238
X9.5274Y-2.8638
X9.5502Y-2.4833
X9.5545Y-3.4667
X9.5545Y-3.9309
X9.562Y-2.9951
X9.5766Y-6.8313
X9.6014Y-4.0187
X9.6447Y-3.9938
X9.6722Y-4.0266
X9.688Y-3.6093
X9.7116Y-3.8691
X9.7116Y-4.0187
X9.7136Y-2.7293
X9.7274Y-3.4838
X9.7374Y-2.8438
X9.7608Y-2.7293
X9.7774Y-3.8638
X9.7786Y-3.4833
X9.877Y-7.0156
X9.9124Y-3.7106
X9.9404Y-4.2148
X10.1096Y-4.0234
X10.1407Y-3.588
X10.1486Y-4.0234
X10.3174Y-2.6588
X10.3963Y-6.9506
X10.4074Y-4.5488
X10.5098Y-4.1
X10.7204Y-4.1943
X10.7805Y-7.0187
X10.7874Y-4.9938
X10.8951Y-3.5876
X11.1026Y-6.1817
X11.1683Y-4.1407
X11.2724Y-3.8288
X11.3374Y-6.9188
X11.4439Y-6.2274
X11.4825Y-6.1939
X11.5498Y-5.4415
X11.6258Y-3.59
X11.6285Y-5.3234
X11.6774Y-4.6188
X11.7073Y-5.4415
X11.7628Y-3.6722
X12.1959Y-4.0659
X12.2301Y-7.1293
X12.2724Y-4.5738
X12.3553Y-6.2037
X12.4324Y-2.9839
X12.4864Y-5.5096
X12.7174Y-4.9688
X12.7297Y-7.1211
X12.7434Y-3.0728
X12.7774Y-2.2498
X12.8374Y-2.1838
X12.9537Y-6.9478
X12.9853Y-7.6847
X13.2982Y-4.0817
X13.3297Y-6.9557
X14.0502Y-4.0935
X14.1759Y-3.6771
X14.8431Y-3.4955
X14.8632Y-6.9321
X14.9069Y-2.7569
X14.9183Y-3.0183
X15.0195Y-3.7203
X15.0195Y-3.7774
X15.0305Y-1.7667
X15.06Y-1.7313
X15.2874Y-4.2238
X15.4085Y-4.6801
X15.4518Y-1.7313
X16.0334Y-4.2179
X16.7834Y-4.2179
X16.8923Y-4.6104
X17.3203Y-4.7644
X17.6754Y-7.2955
X17.7285Y-5.7041
X17.8266Y-4.9057
X17.9518Y-4.5738
T2
X12.8799Y-5.9321
X12.9102Y-5.859
X12.9102Y-6.0052
X12.9833Y-5.8287
X12.9833Y-6.0354
X13.0563Y-5.859
X13.0563Y-6.0052
X13.0866Y-5.9321
T4
X9.2051Y-1.7878
X9.2051Y-1.9878
X9.2051Y-2.1878
X9.2101Y-1.8878
X9.2101Y-2.0878
X9.3049Y-1.7878
X9.3049Y-1.9878
X9.3049Y-2.1878
X9.3099Y-1.8878
X9.3099Y-2.0878
X9.4049Y-1.7878
X9.4049Y-1.9878
X9.4049Y-2.1878
X9.4099Y-1.8878
X9.4099Y-2.0878
T5
X10.8297Y-1.4833
X11.1297Y-1.4833
X11.4203Y-1.4833
X11.7203Y-1.4833
X12.0108Y-1.4833
X12.3108Y-1.4833
T6
X11.3285Y-1.4833
X11.9191Y-1.4833
X12.5096Y-1.4833
T7
X1.565Y-2.3793
X1.6437Y-2.3793
X1.7224Y-2.3793
X1.8012Y-2.3793
X1.8799Y-2.3793
X14.9379Y-1.6663
X14.9379Y-1.7451
X14.9379Y-1.8238
X14.9379Y-1.9026
X14.9379Y-1.9813
T8
X11.2285Y-1.4833
X11.8191Y-1.4833
X12.4096Y-1.4833
T9
X1.624Y-1.8084
X1.7224Y-1.8084
X1.8209Y-1.8084
X9.1624Y-2.3199
X9.1624Y-2.497
X9.1781Y-1.4734
X9.1781Y-1.6506
X9.4183Y-2.3199
X9.4183Y-2.497
X9.4341Y-1.4734
X9.4341Y-1.6506
X14.367Y-1.7254
X14.367Y-1.8238
X14.367Y-1.9222
T10
X2.5284Y-1.7549
X2.5284Y-1.8927
X5.4221Y-1.7549
X6.0946Y-1.7549
X6.0946Y-1.8927
X8.9883Y-1.7549
X9.6571Y-1.7549
X9.6571Y-1.8927
X12.5508Y-1.7549
T11
X2.6918Y-1.9892
X2.739Y-1.6585
X5.2115Y-1.6585
X5.2587Y-1.9892
X6.258Y-1.9892
X6.3053Y-1.6585
X8.7777Y-1.6585
X8.825Y-1.9892
X9.8205Y-1.9892
X9.8678Y-1.6585
X12.3402Y-1.6585
X12.3875Y-1.9892
T12
X1.4232Y-2.1037
X2.0217Y-2.1037
X14.6623Y-1.5246
X14.6623Y-2.123
T13
X1.5712Y-3.2251
X1.5712Y-4.3501
X1.6649Y-6.6001
X1.6649Y-7.3501
X1.7587Y-5.1001
X1.8212Y-3.1251
X1.8212Y-4.2501
X1.8524Y-5.8501
X1.9149Y-6.5001
X1.9149Y-7.2501
X2.0087Y-5.0001
X2.1024Y-5.7501
X2.3212Y-4.3501
X2.5087Y-6.6001
X2.5712Y-4.2501
X2.6024Y-7.3501
X2.6962Y-2.4751
X2.6962Y-3.2251
X2.6962Y-5.1001
X2.7587Y-6.5001
X2.8524Y-7.2501
X2.8837Y-5.8501
X2.9462Y-2.3751
X2.9462Y-3.1251
X2.9462Y-5.0001
X3.0712Y-4.3501
X3.1337Y-5.7501
X3.2587Y-6.6001
X3.3212Y-4.2501
X3.4462Y-2.4751
X3.4462Y-3.2251
X3.4462Y-5.1001
X3.5087Y-6.5001
X3.5399Y-7.3501
X3.6337Y-5.8501
X3.6962Y-2.3751
X3.6962Y-3.1251
X3.6962Y-5.0001
X3.7899Y-7.2501
X3.8212Y-4.3501
X3.8837Y-5.7501
X4.0087Y-6.6001
X4.0712Y-4.2501
X4.1962Y-2.4751
X4.1962Y-3.2251
X4.1962Y-5.1001
X4.2587Y-6.5001
X4.3837Y-5.8501
X4.4462Y-2.3751
X4.4462Y-3.1251
X4.4462Y-5.0001
X4.5712Y-4.3501
X4.6337Y-5.7501
X4.7585Y-7.3498
X4.7587Y-6.6001
X4.8212Y-4.2501
X4.9462Y-2.4751
X4.9462Y-5.1001
X4.9463Y-3.225
X5.0085Y-7.2498
X5.0087Y-6.5001
X5.1337Y-5.8501
X5.1962Y-2.3751
X5.1962Y-5.0001
X5.1963Y-3.125
X5.3212Y-4.3501
X5.3837Y-5.7501
X5.5087Y-6.6001
X5.5089Y-7.3494
X5.5712Y-4.2501
X5.6962Y-5.1001
X5.7587Y-6.5001
X5.7589Y-7.2494
X5.8837Y-5.8501
X5.9462Y-5.0001
X6.0712Y-4.3501
X6.1337Y-5.7501
X6.2587Y-6.6001
X6.2624Y-3.2251
X6.2624Y-2.4751
X6.3212Y-4.2501
X6.3524Y-7.3501
X6.4462Y-5.1001
X6.5087Y-6.5001
X6.5124Y-3.1251
X6.5124Y-2.3751
X6.6024Y-7.2501
X6.6337Y-5.8501
X6.6962Y-5.0001
X6.8212Y-4.3501
X6.8837Y-5.7501
X7.0087Y-6.6001
X7.0124Y-3.2251
X7.0124Y-2.4751
X7.0712Y-4.2501
X7.1962Y-5.1001
X7.2587Y-6.5001
X7.2624Y-3.1251
X7.2624Y-2.3751
X7.3835Y-5.8508
X7.4462Y-5.0001
X7.5712Y-4.3501
X7.6335Y-5.7508
X7.7585Y-7.3498
X7.7587Y-6.6001
X7.7624Y-2.4751
X7.7624Y-3.2251
X7.8212Y-4.2501
X7.9462Y-5.1001
X8.0085Y-7.2498
X8.0087Y-6.5001
X8.0124Y-2.3751
X8.0124Y-3.1251
X8.1337Y-5.8501
X8.1962Y-5.0001
X8.3212Y-4.3501
X8.3837Y-5.7501
X8.5087Y-6.6001
X8.5124Y-2.4751
X8.5124Y-3.2251
X8.5712Y-4.2501
X8.6962Y-5.1001
X8.7587Y-6.5001
X8.7624Y-2.3751
X8.7624Y-3.1251
X8.8837Y-5.8501
X8.9462Y-5.0001
X9.0712Y-4.3501
X9.1337Y-5.7501
X9.1649Y-7.3501
X9.2587Y-6.6001
X9.3212Y-4.2501
X9.4149Y-7.2501
X9.4462Y-5.1001
X9.5087Y-6.5001
X9.6337Y-5.8501
X9.6962Y-5.0001
X9.8212Y-3.2251
X9.8212Y-4.3501
X9.8212Y-2.4751
X9.8837Y-5.7501
X10.0087Y-6.6001
X10.0712Y-3.1251
X10.0712Y-4.2501
X10.0712Y-2.3751
X10.1024Y-7.3501
X10.1962Y-5.1001
X10.2587Y-6.5001
X10.3524Y-7.2501
X10.3837Y-5.8501
X10.4462Y-5.0001
X10.5712Y-2.4751
X10.5712Y-3.2251
X10.5712Y-4.3501
X10.6337Y-5.7501
X10.8212Y-2.3751
X10.8212Y-3.1251
X10.8212Y-4.2501
X10.9462Y-5.1001
X11.0399Y-7.3501
X11.1337Y-5.8501
X11.1962Y-5.0001
X11.2899Y-7.2501
X11.3212Y-2.4751
X11.3212Y-3.2251
X11.3837Y-5.7501
X11.4149Y-6.6001
X11.5712Y-2.3751
X11.5712Y-3.1251
X11.6649Y-6.5001
X11.6962Y-4.3501
X11.9462Y-4.2501
X11.9774Y-5.4751
X11.9774Y-7.3501
X12.0712Y-2.4751
X12.0712Y-3.2251
X12.2274Y-5.3751
X12.2274Y-7.2501
X12.3212Y-2.3751
X12.3212Y-3.1251
X13.0087Y-7.3513
X13.0089Y-6.6014
X13.0099Y-1.7238
X13.0099Y-2.4738
X13.0099Y-3.2238
X13.0099Y-4.3488
X13.0099Y-5.0988
X13.2587Y-7.2513
X13.2589Y-6.5014
X13.2599Y-1.6238
X13.2599Y-2.3738
X13.2599Y-3.1238
X13.2599Y-4.2488
X13.2599Y-4.9988
X13.7587Y-6.6013
X13.7587Y-7.3513
X13.7599Y-1.7238
X13.7599Y-2.4738
X13.7599Y-3.2238
X13.7599Y-4.3488
X13.7599Y-5.0988
X14.0087Y-6.5013
X14.0087Y-7.2513
X14.0099Y-1.6238
X14.0099Y-2.3738
X14.0099Y-3.1238
X14.0099Y-4.2488
X14.0099Y-4.9988
X14.5085Y-6.6008
X14.5087Y-7.3513
X14.5099Y-2.4738
X14.5099Y-3.2238
X14.5099Y-4.3488
X14.5099Y-5.0988
X14.7585Y-6.5008
X14.7587Y-7.2513
X14.7599Y-2.3738
X14.7599Y-3.1238
X14.7599Y-4.2488
X14.7599Y-4.9988
X15.4462Y-4.3513
X15.4462Y-5.1013
X15.4462Y-5.8513
X15.4462Y-6.6013
X15.6962Y-4.2513
X15.6962Y-5.0013
X15.6962Y-5.7513
X15.6962Y-6.5013
X15.8212Y-7.3513
X16.0712Y-7.2513
X16.1962Y-4.3513
X16.1962Y-5.1013
X16.1962Y-5.8513
X16.1962Y-6.6013
X16.4462Y-4.2513
X16.4462Y-5.0013
X16.4462Y-5.7513
X16.4462Y-6.5013
X16.9462Y-4.3513
X16.9462Y-5.1013
X16.9462Y-5.8513
X16.9462Y-6.6013
X16.9462Y-7.3513
X17.1962Y-4.2513
X17.1962Y-5.0013
X17.1962Y-5.7513
X17.1962Y-6.5013
X17.1962Y-7.2513
X17.6962Y-4.3513
X17.9462Y-4.2513
X17.9462Y-5.4263
X17.9462Y-6.9263
X18.0462Y-5.6763
X18.0462Y-7.1763
T14
X12.9833Y-5.9321
T3
G00X5.5781Y-1.1249
M15
G01X5.5781Y-1.1485
M16
G05
G00X5.5781Y-1.2804
M15
G01X5.5781Y-1.3237
M16
G05
G00X5.9167Y-1.1249
M15
G01X5.9167Y-1.1485
M16
G05
G00X5.9167Y-1.2804
M15
G01X5.9167Y-1.3237
M16
G05
T0
M30
