%FSLAX45Y45*%
G04 Gerber Fmt 4.5, Leading zero omitted, Abs format (unit mm)*
G04 Created by KiCad (PCBNEW (6.0.0-rc1-458-g78ff9a857a)) date 2022-12-03 17:04:13*
%MOMM*%
%LPD*%
G01*
G04 APERTURE LIST*
%TA.AperFunction,Profile*%
%ADD10C,0.050000*%
%TD*%
%TA.AperFunction,Profile*%
%ADD11C,0.100000*%
%TD*%
%ADD12C,0.200000*%
%ADD13C,0.065000*%
%ADD14C,0.115200*%
%ADD15C,0.170180*%
%ADD16C,0.304800*%
%ADD17C,0.398780*%
%ADD18C,0.425000*%
G04 APERTURE END LIST*
D10*
X39800000Y-7500000D02*
G75*
G03*
X39400000Y-7500000I-200000J-1434D01*
G01*
X39400000Y-10300000D02*
G75*
G03*
X39800000Y-10300000I200000J0D01*
G01*
X39800000Y-10300000D02*
X39800000Y-7500000D01*
X39400000Y-7500000D02*
X39400000Y-10300000D01*
X32100000Y-17045000D02*
X32100000Y-17795000D01*
X32400000Y-18095000D02*
G75*
G03*
X32350000Y-18045000I-50000J0D01*
G01*
X33050000Y-18095000D02*
X33050000Y-18145000D01*
X32400000Y-18145000D02*
G75*
G03*
X32600000Y-18145000I100000J0D01*
G01*
X32600000Y-18095000D02*
G75*
G03*
X32350000Y-17845000I-250000J0D01*
G01*
X33150000Y-17045000D02*
G75*
G03*
X33100000Y-16995000I-50000J0D01*
G01*
D11*
X15260320Y-5779000D02*
X46293000Y-5777000D01*
X46293000Y-5777000D02*
X46291500Y-22479000D01*
X46291500Y-22479000D02*
X3073400Y-22479000D01*
X3073400Y-22479000D02*
X3073400Y-5778500D01*
X3073400Y-5778500D02*
X13495020Y-5778500D01*
X13495020Y-5778500D02*
X13495020Y-5143500D01*
X13495020Y-5143500D02*
X15260320Y-5143500D01*
X15260320Y-5143500D02*
X15260320Y-5779000D01*
D10*
X32300000Y-17795000D02*
G75*
G03*
X32350000Y-17845000I50000J0D01*
G01*
X32850000Y-18095000D02*
X32850000Y-18145000D01*
X4330000Y-12305000D02*
G75*
G03*
X4330000Y-12305000I-350000J0D01*
G01*
X33100000Y-17845000D02*
G75*
G03*
X32850000Y-18095000I0J-250000D01*
G01*
X33100000Y-18045000D02*
G75*
G03*
X33050000Y-18095000I0J-50000D01*
G01*
X33350000Y-17045000D02*
X33350000Y-17795000D01*
X36950000Y-17425000D02*
G75*
G03*
X36950000Y-17425000I-350000J0D01*
G01*
X33100000Y-16795000D02*
X32350000Y-16795000D01*
X32350000Y-16795000D02*
G75*
G03*
X32100000Y-17045000I0J-250000D01*
G01*
X32300000Y-17795000D02*
X32300000Y-17045000D01*
X33100000Y-18045000D02*
G75*
G03*
X33350000Y-17795000I0J250000D01*
G01*
X32400000Y-18145000D02*
X32400000Y-18095000D01*
X32600000Y-18145000D02*
X32600000Y-18095000D01*
X33150000Y-17045000D02*
X33150000Y-17795000D01*
X36945000Y-12275000D02*
G75*
G03*
X36945000Y-12275000I-350000J0D01*
G01*
X32100000Y-17795000D02*
G75*
G03*
X32350000Y-18045000I250000J0D01*
G01*
X32850000Y-18145000D02*
G75*
G03*
X33050000Y-18145000I100000J0D01*
G01*
X32350000Y-16995000D02*
G75*
G03*
X32300000Y-17045000I0J-50000D01*
G01*
X33100000Y-17845000D02*
G75*
G03*
X33150000Y-17795000I0J50000D01*
G01*
X32350000Y-16995000D02*
X33100000Y-16995000D01*
X33350000Y-17045000D02*
G75*
G03*
X33100000Y-16795000I-250000J0D01*
G01*
D12*
D13*
X14029500Y-5572150D02*
X14094500Y-5637150D01*
X14094500Y-5572150D02*
X14029500Y-5637150D01*
X14607500Y-5572150D02*
X14672500Y-5637150D01*
X14672500Y-5572150D02*
X14607500Y-5637150D01*
D14*
X3357600Y-6000000D02*
G75*
G03*
X3357600Y-6000000I-57600J0D01*
G01*
X3357600Y-22250000D02*
G75*
G03*
X3357600Y-22250000I-57600J0D01*
G01*
X46107600Y-6000000D02*
G75*
G03*
X46107600Y-6000000I-57600J0D01*
G01*
X46107600Y-22250000D02*
G75*
G03*
X46107600Y-22250000I-57600J0D01*
G01*
D15*
X3616325Y-10713085D02*
X3616325Y-10883265D01*
X3531235Y-10798175D02*
X3701415Y-10798175D01*
X3616325Y-13570585D02*
X3616325Y-13740765D01*
X3531235Y-13655675D02*
X3701415Y-13655675D01*
X3854450Y-19285585D02*
X3854450Y-19455765D01*
X3769360Y-19370675D02*
X3939540Y-19370675D01*
X3854450Y-21190585D02*
X3854450Y-21360765D01*
X3769360Y-21275675D02*
X3939540Y-21275675D01*
X4092575Y-15475585D02*
X4092575Y-15645765D01*
X4007485Y-15560675D02*
X4177665Y-15560675D01*
X4330700Y-17380585D02*
X4330700Y-17550765D01*
X4245610Y-17465675D02*
X4415790Y-17465675D01*
X4632325Y-10713085D02*
X4632325Y-10883265D01*
X4547235Y-10798175D02*
X4717415Y-10798175D01*
X4632325Y-13570585D02*
X4632325Y-13740765D01*
X4547235Y-13655675D02*
X4717415Y-13655675D01*
X4870450Y-19285585D02*
X4870450Y-19455765D01*
X4785360Y-19370675D02*
X4955540Y-19370675D01*
X4870450Y-21190585D02*
X4870450Y-21360765D01*
X4785360Y-21275675D02*
X4955540Y-21275675D01*
X5108575Y-15475585D02*
X5108575Y-15645765D01*
X5023485Y-15560675D02*
X5193665Y-15560675D01*
X5346700Y-17380585D02*
X5346700Y-17550765D01*
X5261610Y-17465675D02*
X5431790Y-17465675D01*
X5521325Y-13570585D02*
X5521325Y-13740765D01*
X5436235Y-13655675D02*
X5606415Y-13655675D01*
X5997575Y-19285585D02*
X5997575Y-19455765D01*
X5912485Y-19370675D02*
X6082665Y-19370675D01*
X6235700Y-21190585D02*
X6235700Y-21360765D01*
X6150610Y-21275675D02*
X6320790Y-21275675D01*
X6473825Y-8808085D02*
X6473825Y-8978265D01*
X6388735Y-8893175D02*
X6558915Y-8893175D01*
X6473825Y-10713085D02*
X6473825Y-10883265D01*
X6388735Y-10798175D02*
X6558915Y-10798175D01*
X6473825Y-15475585D02*
X6473825Y-15645765D01*
X6388735Y-15560675D02*
X6558915Y-15560675D01*
X6537325Y-13570585D02*
X6537325Y-13740765D01*
X6452235Y-13655675D02*
X6622415Y-13655675D01*
X6950075Y-17380585D02*
X6950075Y-17550765D01*
X6864985Y-17465675D02*
X7035165Y-17465675D01*
X7013575Y-19285585D02*
X7013575Y-19455765D01*
X6928485Y-19370675D02*
X7098665Y-19370675D01*
X7251700Y-21190585D02*
X7251700Y-21360765D01*
X7166610Y-21275675D02*
X7336790Y-21275675D01*
X7426325Y-13570585D02*
X7426325Y-13740765D01*
X7341235Y-13655675D02*
X7511415Y-13655675D01*
X7489825Y-8808085D02*
X7489825Y-8978265D01*
X7404735Y-8893175D02*
X7574915Y-8893175D01*
X7489825Y-10713085D02*
X7489825Y-10883265D01*
X7404735Y-10798175D02*
X7574915Y-10798175D01*
X7489825Y-15475585D02*
X7489825Y-15645765D01*
X7404735Y-15560675D02*
X7574915Y-15560675D01*
X7902575Y-19285585D02*
X7902575Y-19455765D01*
X7817485Y-19370675D02*
X7987665Y-19370675D01*
X7966075Y-17380585D02*
X7966075Y-17550765D01*
X7880985Y-17465675D02*
X8051165Y-17465675D01*
X8378825Y-8808085D02*
X8378825Y-8978265D01*
X8293735Y-8893175D02*
X8463915Y-8893175D01*
X8378825Y-10713085D02*
X8378825Y-10883265D01*
X8293735Y-10798175D02*
X8463915Y-10798175D01*
X8378825Y-15475585D02*
X8378825Y-15645765D01*
X8293735Y-15560675D02*
X8463915Y-15560675D01*
X8442325Y-13570585D02*
X8442325Y-13740765D01*
X8357235Y-13655675D02*
X8527415Y-13655675D01*
X8616950Y-21190585D02*
X8616950Y-21360765D01*
X8531860Y-21275675D02*
X8702040Y-21275675D01*
X8855075Y-17380585D02*
X8855075Y-17550765D01*
X8769985Y-17465675D02*
X8940165Y-17465675D01*
X8918575Y-19285585D02*
X8918575Y-19455765D01*
X8833485Y-19370675D02*
X9003665Y-19370675D01*
X9331325Y-13570585D02*
X9331325Y-13740765D01*
X9246235Y-13655675D02*
X9416415Y-13655675D01*
X9394825Y-8808085D02*
X9394825Y-8978265D01*
X9309735Y-8893175D02*
X9479915Y-8893175D01*
X9394825Y-10713085D02*
X9394825Y-10883265D01*
X9309735Y-10798175D02*
X9479915Y-10798175D01*
X9394825Y-15475585D02*
X9394825Y-15645765D01*
X9309735Y-15560675D02*
X9479915Y-15560675D01*
X9632950Y-21190585D02*
X9632950Y-21360765D01*
X9547860Y-21275675D02*
X9718040Y-21275675D01*
X9807575Y-19285585D02*
X9807575Y-19455765D01*
X9722485Y-19370675D02*
X9892665Y-19370675D01*
X9871075Y-17380585D02*
X9871075Y-17550765D01*
X9785985Y-17465675D02*
X9956165Y-17465675D01*
X10283825Y-8808085D02*
X10283825Y-8978265D01*
X10198735Y-8893175D02*
X10368915Y-8893175D01*
X10283825Y-10713085D02*
X10283825Y-10883265D01*
X10198735Y-10798175D02*
X10368915Y-10798175D01*
X10283825Y-15475585D02*
X10283825Y-15645765D01*
X10198735Y-15560675D02*
X10368915Y-15560675D01*
X10347325Y-13570585D02*
X10347325Y-13740765D01*
X10262235Y-13655675D02*
X10432415Y-13655675D01*
X10760075Y-17380585D02*
X10760075Y-17550765D01*
X10674985Y-17465675D02*
X10845165Y-17465675D01*
X10823575Y-19285585D02*
X10823575Y-19455765D01*
X10738485Y-19370675D02*
X10908665Y-19370675D01*
X11236325Y-13570585D02*
X11236325Y-13740765D01*
X11151235Y-13655675D02*
X11321415Y-13655675D01*
X11299825Y-8808085D02*
X11299825Y-8978265D01*
X11214735Y-8893175D02*
X11384915Y-8893175D01*
X11299825Y-10713085D02*
X11299825Y-10883265D01*
X11214735Y-10798175D02*
X11384915Y-10798175D01*
X11299825Y-15475585D02*
X11299825Y-15645765D01*
X11214735Y-15560675D02*
X11384915Y-15560675D01*
X11712575Y-19285585D02*
X11712575Y-19455765D01*
X11627485Y-19370675D02*
X11797665Y-19370675D01*
X11776075Y-17380585D02*
X11776075Y-17550765D01*
X11690985Y-17465675D02*
X11861165Y-17465675D01*
X12188825Y-8808085D02*
X12188825Y-8978265D01*
X12103735Y-8893175D02*
X12273915Y-8893175D01*
X12188825Y-15475585D02*
X12188825Y-15645765D01*
X12103735Y-15560675D02*
X12273915Y-15560675D01*
X12189000Y-10712910D02*
X12189000Y-10883090D01*
X12103910Y-10798000D02*
X12274090Y-10798000D01*
X12252325Y-13570585D02*
X12252325Y-13740765D01*
X12167235Y-13655675D02*
X12337415Y-13655675D01*
X12665075Y-17380585D02*
X12665075Y-17550765D01*
X12579985Y-17465675D02*
X12750165Y-17465675D01*
X12728575Y-19285585D02*
X12728575Y-19455765D01*
X12643485Y-19370675D02*
X12813665Y-19370675D01*
X13141325Y-13570585D02*
X13141325Y-13740765D01*
X13056235Y-13655675D02*
X13226415Y-13655675D01*
X13204825Y-8808085D02*
X13204825Y-8978265D01*
X13119735Y-8893175D02*
X13289915Y-8893175D01*
X13204825Y-15475585D02*
X13204825Y-15645765D01*
X13119735Y-15560675D02*
X13289915Y-15560675D01*
X13205000Y-10712910D02*
X13205000Y-10883090D01*
X13119910Y-10798000D02*
X13290090Y-10798000D01*
X13617575Y-19285585D02*
X13617575Y-19455765D01*
X13532485Y-19370675D02*
X13702665Y-19370675D01*
X13681075Y-17380585D02*
X13681075Y-17550765D01*
X13595985Y-17465675D02*
X13766165Y-17465675D01*
X14093825Y-15475585D02*
X14093825Y-15645765D01*
X14008735Y-15560675D02*
X14178915Y-15560675D01*
X14157325Y-13570585D02*
X14157325Y-13740765D01*
X14072235Y-13655675D02*
X14242415Y-13655675D01*
X14570075Y-17380585D02*
X14570075Y-17550765D01*
X14484985Y-17465675D02*
X14655165Y-17465675D01*
X14633575Y-19285585D02*
X14633575Y-19455765D01*
X14548485Y-19370675D02*
X14718665Y-19370675D01*
X15046325Y-13570585D02*
X15046325Y-13740765D01*
X14961235Y-13655675D02*
X15131415Y-13655675D01*
X15109825Y-15475585D02*
X15109825Y-15645765D01*
X15024735Y-15560675D02*
X15194915Y-15560675D01*
X15522575Y-19285585D02*
X15522575Y-19455765D01*
X15437485Y-19370675D02*
X15607665Y-19370675D01*
X15532100Y-10713085D02*
X15532100Y-10883265D01*
X15447010Y-10798175D02*
X15617190Y-10798175D01*
X15532109Y-8808085D02*
X15532109Y-8978265D01*
X15447019Y-8893175D02*
X15617199Y-8893175D01*
X15586075Y-17380585D02*
X15586075Y-17550765D01*
X15500985Y-17465675D02*
X15671165Y-17465675D01*
X15760700Y-21190585D02*
X15760700Y-21360765D01*
X15675610Y-21275675D02*
X15845790Y-21275675D01*
X15998825Y-15475585D02*
X15998825Y-15645765D01*
X15913735Y-15560675D02*
X16083915Y-15560675D01*
X16062325Y-13570585D02*
X16062325Y-13740765D01*
X15977235Y-13655675D02*
X16147415Y-13655675D01*
X16475075Y-17380585D02*
X16475075Y-17550765D01*
X16389985Y-17465675D02*
X16560165Y-17465675D01*
X16538575Y-19285585D02*
X16538575Y-19455765D01*
X16453485Y-19370675D02*
X16623665Y-19370675D01*
X16548100Y-10713085D02*
X16548100Y-10883265D01*
X16463010Y-10798175D02*
X16633190Y-10798175D01*
X16548109Y-8808085D02*
X16548109Y-8978265D01*
X16463019Y-8893175D02*
X16633199Y-8893175D01*
X16776700Y-21190585D02*
X16776700Y-21360765D01*
X16691610Y-21275675D02*
X16861790Y-21275675D01*
X16951325Y-13570585D02*
X16951325Y-13740765D01*
X16866235Y-13655675D02*
X17036415Y-13655675D01*
X17014825Y-15475585D02*
X17014825Y-15645765D01*
X16929735Y-15560675D02*
X17099915Y-15560675D01*
X17427575Y-19285585D02*
X17427575Y-19455765D01*
X17342485Y-19370675D02*
X17512665Y-19370675D01*
X17437100Y-10713085D02*
X17437100Y-10883265D01*
X17352010Y-10798175D02*
X17522190Y-10798175D01*
X17437111Y-8808085D02*
X17437111Y-8978265D01*
X17352021Y-8893175D02*
X17522201Y-8893175D01*
X17491075Y-17380585D02*
X17491075Y-17550765D01*
X17405985Y-17465675D02*
X17576165Y-17465675D01*
X17903825Y-15475585D02*
X17903825Y-15645765D01*
X17818735Y-15560675D02*
X17988915Y-15560675D01*
X17967325Y-13570585D02*
X17967325Y-13740765D01*
X17882235Y-13655675D02*
X18052415Y-13655675D01*
X18379500Y-17382410D02*
X18379500Y-17552590D01*
X18294410Y-17467500D02*
X18464590Y-17467500D01*
X18443575Y-19285585D02*
X18443575Y-19455765D01*
X18358485Y-19370675D02*
X18528665Y-19370675D01*
X18453100Y-10713085D02*
X18453100Y-10883265D01*
X18368010Y-10798175D02*
X18538190Y-10798175D01*
X18453111Y-8808085D02*
X18453111Y-8978265D01*
X18368021Y-8893175D02*
X18538201Y-8893175D01*
X18856325Y-13570585D02*
X18856325Y-13740765D01*
X18771235Y-13655675D02*
X18941415Y-13655675D01*
X18919825Y-15475585D02*
X18919825Y-15645765D01*
X18834735Y-15560675D02*
X19004915Y-15560675D01*
X19332575Y-19285585D02*
X19332575Y-19455765D01*
X19247485Y-19370675D02*
X19417665Y-19370675D01*
X19342100Y-8808085D02*
X19342100Y-8978265D01*
X19257010Y-8893175D02*
X19427190Y-8893175D01*
X19342100Y-10713085D02*
X19342100Y-10883265D01*
X19257010Y-10798175D02*
X19427190Y-10798175D01*
X19395500Y-17382410D02*
X19395500Y-17552590D01*
X19310410Y-17467500D02*
X19480590Y-17467500D01*
X19808825Y-15475585D02*
X19808825Y-15645765D01*
X19723735Y-15560675D02*
X19893915Y-15560675D01*
X19872325Y-13570585D02*
X19872325Y-13740765D01*
X19787235Y-13655675D02*
X19957415Y-13655675D01*
X20285075Y-17380585D02*
X20285075Y-17550765D01*
X20199985Y-17465675D02*
X20370165Y-17465675D01*
X20348575Y-19285585D02*
X20348575Y-19455765D01*
X20263485Y-19370675D02*
X20433665Y-19370675D01*
X20358100Y-8808085D02*
X20358100Y-8978265D01*
X20273010Y-8893175D02*
X20443190Y-8893175D01*
X20358100Y-10713085D02*
X20358100Y-10883265D01*
X20273010Y-10798175D02*
X20443190Y-10798175D01*
X20761325Y-13570585D02*
X20761325Y-13740765D01*
X20676235Y-13655675D02*
X20846415Y-13655675D01*
X20824825Y-15475585D02*
X20824825Y-15645765D01*
X20739735Y-15560675D02*
X20909915Y-15560675D01*
X21237575Y-19285585D02*
X21237575Y-19455765D01*
X21152485Y-19370675D02*
X21322665Y-19370675D01*
X21247100Y-8808085D02*
X21247100Y-8978265D01*
X21162010Y-8893175D02*
X21332190Y-8893175D01*
X21247100Y-10713085D02*
X21247100Y-10883265D01*
X21162010Y-10798175D02*
X21332190Y-10798175D01*
X21301075Y-17380585D02*
X21301075Y-17550765D01*
X21215985Y-17465675D02*
X21386165Y-17465675D01*
X21713825Y-15475585D02*
X21713825Y-15645765D01*
X21628735Y-15560675D02*
X21798915Y-15560675D01*
X21777325Y-13570585D02*
X21777325Y-13740765D01*
X21692235Y-13655675D02*
X21862415Y-13655675D01*
X22190075Y-17380585D02*
X22190075Y-17550765D01*
X22104985Y-17465675D02*
X22275165Y-17465675D01*
X22253575Y-19285585D02*
X22253575Y-19455765D01*
X22168485Y-19370675D02*
X22338665Y-19370675D01*
X22263100Y-8808085D02*
X22263100Y-8978265D01*
X22178010Y-8893175D02*
X22348190Y-8893175D01*
X22263100Y-10713085D02*
X22263100Y-10883265D01*
X22178010Y-10798175D02*
X22348190Y-10798175D01*
X22666325Y-13570585D02*
X22666325Y-13740765D01*
X22581235Y-13655675D02*
X22751415Y-13655675D01*
X22729825Y-15475585D02*
X22729825Y-15645765D01*
X22644735Y-15560675D02*
X22814915Y-15560675D01*
X22904450Y-21190585D02*
X22904450Y-21360765D01*
X22819360Y-21275675D02*
X22989540Y-21275675D01*
X23142575Y-19285585D02*
X23142575Y-19455765D01*
X23057485Y-19370675D02*
X23227665Y-19370675D01*
X23206075Y-17380585D02*
X23206075Y-17550765D01*
X23120985Y-17465675D02*
X23291165Y-17465675D01*
X23618825Y-15475585D02*
X23618825Y-15645765D01*
X23533735Y-15560675D02*
X23703915Y-15560675D01*
X23682325Y-13570585D02*
X23682325Y-13740765D01*
X23597235Y-13655675D02*
X23767415Y-13655675D01*
X23920450Y-21190585D02*
X23920450Y-21360765D01*
X23835360Y-21275675D02*
X24005540Y-21275675D01*
X24095075Y-17380585D02*
X24095075Y-17550765D01*
X24009985Y-17465675D02*
X24180165Y-17465675D01*
X24158575Y-19285585D02*
X24158575Y-19455765D01*
X24073485Y-19370675D02*
X24243665Y-19370675D01*
X24571325Y-10713085D02*
X24571325Y-10883265D01*
X24486235Y-10798175D02*
X24656415Y-10798175D01*
X24571325Y-13570585D02*
X24571325Y-13740765D01*
X24486235Y-13655675D02*
X24656415Y-13655675D01*
X24571341Y-8808085D02*
X24571341Y-8978265D01*
X24486251Y-8893175D02*
X24656431Y-8893175D01*
X24634825Y-15475585D02*
X24634825Y-15645765D01*
X24549735Y-15560675D02*
X24719915Y-15560675D01*
X25047575Y-19285585D02*
X25047575Y-19455765D01*
X24962485Y-19370675D02*
X25132665Y-19370675D01*
X25111075Y-17380585D02*
X25111075Y-17550765D01*
X25025985Y-17465675D02*
X25196165Y-17465675D01*
X25285700Y-21190585D02*
X25285700Y-21360765D01*
X25200610Y-21275675D02*
X25370790Y-21275675D01*
X25523825Y-15475585D02*
X25523825Y-15645765D01*
X25438735Y-15560675D02*
X25608915Y-15560675D01*
X25587325Y-10713085D02*
X25587325Y-10883265D01*
X25502235Y-10798175D02*
X25672415Y-10798175D01*
X25587325Y-13570585D02*
X25587325Y-13740765D01*
X25502235Y-13655675D02*
X25672415Y-13655675D01*
X25587341Y-8808085D02*
X25587341Y-8978265D01*
X25502251Y-8893175D02*
X25672431Y-8893175D01*
X26000075Y-17380585D02*
X26000075Y-17550765D01*
X25914985Y-17465675D02*
X26085165Y-17465675D01*
X26063575Y-19285585D02*
X26063575Y-19455765D01*
X25978485Y-19370675D02*
X26148665Y-19370675D01*
X26301700Y-21190585D02*
X26301700Y-21360765D01*
X26216610Y-21275675D02*
X26386790Y-21275675D01*
X26476325Y-8808085D02*
X26476325Y-8978265D01*
X26391235Y-8893175D02*
X26561415Y-8893175D01*
X26476325Y-10713085D02*
X26476325Y-10883265D01*
X26391235Y-10798175D02*
X26561415Y-10798175D01*
X26476325Y-13570585D02*
X26476325Y-13740765D01*
X26391235Y-13655675D02*
X26561415Y-13655675D01*
X26539825Y-15475585D02*
X26539825Y-15645765D01*
X26454735Y-15560675D02*
X26624915Y-15560675D01*
X27016075Y-17380585D02*
X27016075Y-17550765D01*
X26930985Y-17465675D02*
X27101165Y-17465675D01*
X27428825Y-15475585D02*
X27428825Y-15645765D01*
X27343735Y-15560675D02*
X27513915Y-15560675D01*
X27492325Y-8808085D02*
X27492325Y-8978265D01*
X27407235Y-8893175D02*
X27577415Y-8893175D01*
X27492325Y-10713085D02*
X27492325Y-10883265D01*
X27407235Y-10798175D02*
X27577415Y-10798175D01*
X27492325Y-13570585D02*
X27492325Y-13740765D01*
X27407235Y-13655675D02*
X27577415Y-13655675D01*
X27666950Y-21190585D02*
X27666950Y-21360765D01*
X27581860Y-21275675D02*
X27752040Y-21275675D01*
X27905075Y-17380585D02*
X27905075Y-17550765D01*
X27819985Y-17465675D02*
X27990165Y-17465675D01*
X28381325Y-8808085D02*
X28381325Y-8978265D01*
X28296235Y-8893175D02*
X28466415Y-8893175D01*
X28381325Y-10713085D02*
X28381325Y-10883265D01*
X28296235Y-10798175D02*
X28466415Y-10798175D01*
X28444825Y-15475585D02*
X28444825Y-15645765D01*
X28359735Y-15560675D02*
X28529915Y-15560675D01*
X28619450Y-19285585D02*
X28619450Y-19455765D01*
X28534360Y-19370675D02*
X28704540Y-19370675D01*
X28682950Y-21190585D02*
X28682950Y-21360765D01*
X28597860Y-21275675D02*
X28768040Y-21275675D01*
X28921075Y-17380585D02*
X28921075Y-17550765D01*
X28835985Y-17465675D02*
X29006165Y-17465675D01*
X29333825Y-13570585D02*
X29333825Y-13740765D01*
X29248735Y-13655675D02*
X29418915Y-13655675D01*
X29397325Y-8808085D02*
X29397325Y-8978265D01*
X29312235Y-8893175D02*
X29482415Y-8893175D01*
X29397325Y-10713085D02*
X29397325Y-10883265D01*
X29312235Y-10798175D02*
X29482415Y-10798175D01*
X29635450Y-19285585D02*
X29635450Y-19455765D01*
X29550360Y-19370675D02*
X29720540Y-19370675D01*
X30048200Y-16428085D02*
X30048200Y-16598265D01*
X29963110Y-16513175D02*
X30133290Y-16513175D01*
X30048200Y-21190585D02*
X30048200Y-21360765D01*
X29963110Y-21275675D02*
X30133290Y-21275675D01*
X30286325Y-8808085D02*
X30286325Y-8978265D01*
X30201235Y-8893175D02*
X30371415Y-8893175D01*
X30286325Y-10713085D02*
X30286325Y-10883265D01*
X30201235Y-10798175D02*
X30371415Y-10798175D01*
X30349825Y-13570585D02*
X30349825Y-13740765D01*
X30264735Y-13655675D02*
X30434915Y-13655675D01*
X31064200Y-16428085D02*
X31064200Y-16598265D01*
X30979110Y-16513175D02*
X31149290Y-16513175D01*
X31064200Y-21190585D02*
X31064200Y-21360765D01*
X30979110Y-21275675D02*
X31149290Y-21275675D01*
X31302325Y-8808085D02*
X31302325Y-8978265D01*
X31217235Y-8893175D02*
X31387415Y-8893175D01*
X31302325Y-10713085D02*
X31302325Y-10883265D01*
X31217235Y-10798175D02*
X31387415Y-10798175D01*
X32667575Y-21193760D02*
X32667575Y-21363940D01*
X32582485Y-21278850D02*
X32752665Y-21278850D01*
X32670750Y-6899910D02*
X32670750Y-7070090D01*
X32585660Y-6985000D02*
X32755840Y-6985000D01*
X32670750Y-8804910D02*
X32670750Y-8975090D01*
X32585660Y-8890000D02*
X32755840Y-8890000D01*
X32670750Y-10709910D02*
X32670750Y-10880090D01*
X32585660Y-10795000D02*
X32755840Y-10795000D01*
X32670750Y-13567410D02*
X32670750Y-13737590D01*
X32585660Y-13652500D02*
X32755840Y-13652500D01*
X32670750Y-15472410D02*
X32670750Y-15642590D01*
X32585660Y-15557500D02*
X32755840Y-15557500D01*
X33683575Y-21193760D02*
X33683575Y-21363940D01*
X33598485Y-21278850D02*
X33768665Y-21278850D01*
X33686750Y-6899910D02*
X33686750Y-7070090D01*
X33601660Y-6985000D02*
X33771840Y-6985000D01*
X33686750Y-8804910D02*
X33686750Y-8975090D01*
X33601660Y-8890000D02*
X33771840Y-8890000D01*
X33686750Y-10709910D02*
X33686750Y-10880090D01*
X33601660Y-10795000D02*
X33771840Y-10795000D01*
X33686750Y-13567410D02*
X33686750Y-13737590D01*
X33601660Y-13652500D02*
X33771840Y-13652500D01*
X33686750Y-15472410D02*
X33686750Y-15642590D01*
X33601660Y-15557500D02*
X33771840Y-15557500D01*
X34572575Y-19288760D02*
X34572575Y-19458940D01*
X34487485Y-19373850D02*
X34657665Y-19373850D01*
X34572575Y-21193760D02*
X34572575Y-21363940D01*
X34487485Y-21278850D02*
X34657665Y-21278850D01*
X34575750Y-6899910D02*
X34575750Y-7070090D01*
X34490660Y-6985000D02*
X34660840Y-6985000D01*
X34575750Y-8804910D02*
X34575750Y-8975090D01*
X34490660Y-8890000D02*
X34660840Y-8890000D01*
X34575750Y-10709910D02*
X34575750Y-10880090D01*
X34490660Y-10795000D02*
X34660840Y-10795000D01*
X34575750Y-13567410D02*
X34575750Y-13737590D01*
X34490660Y-13652500D02*
X34660840Y-13652500D01*
X34575750Y-15472410D02*
X34575750Y-15642590D01*
X34490660Y-15557500D02*
X34660840Y-15557500D01*
X35588575Y-19288760D02*
X35588575Y-19458940D01*
X35503485Y-19373850D02*
X35673665Y-19373850D01*
X35588575Y-21193760D02*
X35588575Y-21363940D01*
X35503485Y-21278850D02*
X35673665Y-21278850D01*
X35591750Y-6899910D02*
X35591750Y-7070090D01*
X35506660Y-6985000D02*
X35676840Y-6985000D01*
X35591750Y-8804910D02*
X35591750Y-8975090D01*
X35506660Y-8890000D02*
X35676840Y-8890000D01*
X35591750Y-10709910D02*
X35591750Y-10880090D01*
X35506660Y-10795000D02*
X35676840Y-10795000D01*
X35591750Y-13567410D02*
X35591750Y-13737590D01*
X35506660Y-13652500D02*
X35676840Y-13652500D01*
X35591750Y-15472410D02*
X35591750Y-15642590D01*
X35506660Y-15557500D02*
X35676840Y-15557500D01*
X36477575Y-21193760D02*
X36477575Y-21363940D01*
X36392485Y-21278850D02*
X36562665Y-21278850D01*
X36480750Y-8804910D02*
X36480750Y-8975090D01*
X36395660Y-8890000D02*
X36565840Y-8890000D01*
X36480750Y-10709910D02*
X36480750Y-10880090D01*
X36395660Y-10795000D02*
X36565840Y-10795000D01*
X36480750Y-13567410D02*
X36480750Y-13737590D01*
X36395660Y-13652500D02*
X36565840Y-13652500D01*
X36480750Y-15472410D02*
X36480750Y-15642590D01*
X36395660Y-15557500D02*
X36565840Y-15557500D01*
X37493575Y-21193760D02*
X37493575Y-21363940D01*
X37408485Y-21278850D02*
X37578665Y-21278850D01*
X37496750Y-8804910D02*
X37496750Y-8975090D01*
X37411660Y-8890000D02*
X37581840Y-8890000D01*
X37496750Y-10709910D02*
X37496750Y-10880090D01*
X37411660Y-10795000D02*
X37581840Y-10795000D01*
X37496750Y-13567410D02*
X37496750Y-13737590D01*
X37411660Y-13652500D02*
X37581840Y-13652500D01*
X37496750Y-15472410D02*
X37496750Y-15642590D01*
X37411660Y-15557500D02*
X37581840Y-15557500D01*
X38858825Y-13573760D02*
X38858825Y-13743940D01*
X38773735Y-13658850D02*
X38943915Y-13658850D01*
X38858825Y-15478760D02*
X38858825Y-15648940D01*
X38773735Y-15563850D02*
X38943915Y-15563850D01*
X38858825Y-17383760D02*
X38858825Y-17553940D01*
X38773735Y-17468850D02*
X38943915Y-17468850D01*
X38858825Y-19288760D02*
X38858825Y-19458940D01*
X38773735Y-19373850D02*
X38943915Y-19373850D01*
X39811325Y-21193760D02*
X39811325Y-21363940D01*
X39726235Y-21278850D02*
X39896415Y-21278850D01*
X39874825Y-13573760D02*
X39874825Y-13743940D01*
X39789735Y-13658850D02*
X39959915Y-13658850D01*
X39874825Y-15478760D02*
X39874825Y-15648940D01*
X39789735Y-15563850D02*
X39959915Y-15563850D01*
X39874825Y-17383760D02*
X39874825Y-17553940D01*
X39789735Y-17468850D02*
X39959915Y-17468850D01*
X39874825Y-19288760D02*
X39874825Y-19458940D01*
X39789735Y-19373850D02*
X39959915Y-19373850D01*
X40763825Y-13573760D02*
X40763825Y-13743940D01*
X40678735Y-13658850D02*
X40848915Y-13658850D01*
X40763825Y-15478760D02*
X40763825Y-15648940D01*
X40678735Y-15563850D02*
X40848915Y-15563850D01*
X40763825Y-17383760D02*
X40763825Y-17553940D01*
X40678735Y-17468850D02*
X40848915Y-17468850D01*
X40763825Y-19288760D02*
X40763825Y-19458940D01*
X40678735Y-19373850D02*
X40848915Y-19373850D01*
X40827325Y-21193760D02*
X40827325Y-21363940D01*
X40742235Y-21278850D02*
X40912415Y-21278850D01*
X41779825Y-13573760D02*
X41779825Y-13743940D01*
X41694735Y-13658850D02*
X41864915Y-13658850D01*
X41779825Y-15478760D02*
X41779825Y-15648940D01*
X41694735Y-15563850D02*
X41864915Y-15563850D01*
X41779825Y-17383760D02*
X41779825Y-17553940D01*
X41694735Y-17468850D02*
X41864915Y-17468850D01*
X41779825Y-19288760D02*
X41779825Y-19458940D01*
X41694735Y-19373850D02*
X41864915Y-19373850D01*
X42668825Y-13573760D02*
X42668825Y-13743940D01*
X42583735Y-13658850D02*
X42753915Y-13658850D01*
X42668825Y-15478760D02*
X42668825Y-15648940D01*
X42583735Y-15563850D02*
X42753915Y-15563850D01*
X42668825Y-17383760D02*
X42668825Y-17553940D01*
X42583735Y-17468850D02*
X42753915Y-17468850D01*
X42668825Y-19288760D02*
X42668825Y-19458940D01*
X42583735Y-19373850D02*
X42753915Y-19373850D01*
X42668825Y-21193760D02*
X42668825Y-21363940D01*
X42583735Y-21278850D02*
X42753915Y-21278850D01*
X43684825Y-13573760D02*
X43684825Y-13743940D01*
X43599735Y-13658850D02*
X43769915Y-13658850D01*
X43684825Y-15478760D02*
X43684825Y-15648940D01*
X43599735Y-15563850D02*
X43769915Y-15563850D01*
X43684825Y-17383760D02*
X43684825Y-17553940D01*
X43599735Y-17468850D02*
X43769915Y-17468850D01*
X43684825Y-19288760D02*
X43684825Y-19458940D01*
X43599735Y-19373850D02*
X43769915Y-19373850D01*
X43684825Y-21193760D02*
X43684825Y-21363940D01*
X43599735Y-21278850D02*
X43769915Y-21278850D01*
X44573825Y-13573760D02*
X44573825Y-13743940D01*
X44488735Y-13658850D02*
X44658915Y-13658850D01*
X45081825Y-15923260D02*
X45081825Y-16093440D01*
X44996735Y-16008350D02*
X45166915Y-16008350D01*
X45081825Y-16939260D02*
X45081825Y-17109440D01*
X44996735Y-17024350D02*
X45166915Y-17024350D01*
X45081825Y-19733260D02*
X45081825Y-19903440D01*
X44996735Y-19818350D02*
X45166915Y-19818350D01*
X45081825Y-20749260D02*
X45081825Y-20919440D01*
X44996735Y-20834350D02*
X45166915Y-20834350D01*
X45589825Y-13573760D02*
X45589825Y-13743940D01*
X45504735Y-13658850D02*
X45674915Y-13658850D01*
D16*
X11372664Y-20684939D02*
X11372664Y-20469411D01*
X11157136Y-20469411D01*
X11157136Y-20684939D01*
X11372664Y-20684939D01*
X21380264Y-20684939D02*
X21380264Y-20469411D01*
X21164736Y-20469411D01*
X21164736Y-20684939D01*
X21380264Y-20684939D01*
X28041414Y-18779939D02*
X28041414Y-18564411D01*
X27825886Y-18564411D01*
X27825886Y-18779939D01*
X28041414Y-18779939D01*
X28755789Y-13064939D02*
X28755789Y-12849411D01*
X28540261Y-12849411D01*
X28540261Y-13064939D01*
X28755789Y-13064939D01*
X30429014Y-18779939D02*
X30429014Y-18564411D01*
X30213486Y-18564411D01*
X30213486Y-18779939D01*
X30429014Y-18779939D01*
X31143389Y-13064939D02*
X31143389Y-12849411D01*
X30927861Y-12849411D01*
X30927861Y-13064939D01*
X31143389Y-13064939D01*
X31362464Y-15427139D02*
X31362464Y-15211611D01*
X31146936Y-15211611D01*
X31146936Y-15427139D01*
X31362464Y-15427139D01*
X31362464Y-17814739D02*
X31362464Y-17599211D01*
X31146936Y-17599211D01*
X31146936Y-17814739D01*
X31362464Y-17814739D01*
X39233289Y-20688114D02*
X39233289Y-20472586D01*
X39017761Y-20472586D01*
X39017761Y-20688114D01*
X39233289Y-20688114D01*
X41620889Y-20688114D02*
X41620889Y-20472586D01*
X41405361Y-20472586D01*
X41405361Y-20688114D01*
X41620889Y-20688114D01*
X44491089Y-19240314D02*
X44491089Y-19024786D01*
X44275561Y-19024786D01*
X44275561Y-19240314D01*
X44491089Y-19240314D01*
X44491089Y-21627914D02*
X44491089Y-21412386D01*
X44275561Y-21412386D01*
X44275561Y-21627914D01*
X44491089Y-21627914D01*
X45888089Y-15430314D02*
X45888089Y-15214786D01*
X45672561Y-15214786D01*
X45672561Y-15430314D01*
X45888089Y-15430314D01*
X45888089Y-17817914D02*
X45888089Y-17602386D01*
X45672561Y-17602386D01*
X45672561Y-17817914D01*
X45888089Y-17817914D01*
D17*
X4124325Y-10997565D02*
X4323715Y-10798175D01*
X4124325Y-10598785D01*
X3924935Y-10798175D01*
X4124325Y-10997565D01*
X4124325Y-13855065D02*
X4323715Y-13655675D01*
X4124325Y-13456285D01*
X3924935Y-13655675D01*
X4124325Y-13855065D01*
X4362450Y-19570065D02*
X4561840Y-19370675D01*
X4362450Y-19171285D01*
X4163060Y-19370675D01*
X4362450Y-19570065D01*
X4362450Y-21475065D02*
X4561840Y-21275675D01*
X4362450Y-21076285D01*
X4163060Y-21275675D01*
X4362450Y-21475065D01*
X4600575Y-15760065D02*
X4799965Y-15560675D01*
X4600575Y-15361285D01*
X4401185Y-15560675D01*
X4600575Y-15760065D01*
X4838700Y-17665065D02*
X5038090Y-17465675D01*
X4838700Y-17266285D01*
X4639310Y-17465675D01*
X4838700Y-17665065D01*
X6029325Y-13855065D02*
X6228715Y-13655675D01*
X6029325Y-13456285D01*
X5829935Y-13655675D01*
X6029325Y-13855065D01*
X6505575Y-19570065D02*
X6704965Y-19370675D01*
X6505575Y-19171285D01*
X6306185Y-19370675D01*
X6505575Y-19570065D01*
X6743700Y-21475065D02*
X6943090Y-21275675D01*
X6743700Y-21076285D01*
X6544310Y-21275675D01*
X6743700Y-21475065D01*
X6981825Y-9092565D02*
X7181215Y-8893175D01*
X6981825Y-8693785D01*
X6782435Y-8893175D01*
X6981825Y-9092565D01*
X6981825Y-10997565D02*
X7181215Y-10798175D01*
X6981825Y-10598785D01*
X6782435Y-10798175D01*
X6981825Y-10997565D01*
X6981825Y-15760065D02*
X7181215Y-15560675D01*
X6981825Y-15361285D01*
X6782435Y-15560675D01*
X6981825Y-15760065D01*
X7458075Y-17665065D02*
X7657465Y-17465675D01*
X7458075Y-17266285D01*
X7258685Y-17465675D01*
X7458075Y-17665065D01*
X7934325Y-13855065D02*
X8133715Y-13655675D01*
X7934325Y-13456285D01*
X7734935Y-13655675D01*
X7934325Y-13855065D01*
X8410575Y-19570065D02*
X8609965Y-19370675D01*
X8410575Y-19171285D01*
X8211185Y-19370675D01*
X8410575Y-19570065D01*
X8886825Y-9092565D02*
X9086215Y-8893175D01*
X8886825Y-8693785D01*
X8687435Y-8893175D01*
X8886825Y-9092565D01*
X8886825Y-10997565D02*
X9086215Y-10798175D01*
X8886825Y-10598785D01*
X8687435Y-10798175D01*
X8886825Y-10997565D01*
X8886825Y-15760065D02*
X9086215Y-15560675D01*
X8886825Y-15361285D01*
X8687435Y-15560675D01*
X8886825Y-15760065D01*
X9124950Y-21475065D02*
X9324340Y-21275675D01*
X9124950Y-21076285D01*
X8925560Y-21275675D01*
X9124950Y-21475065D01*
X9363075Y-17665065D02*
X9562465Y-17465675D01*
X9363075Y-17266285D01*
X9163685Y-17465675D01*
X9363075Y-17665065D01*
X9839325Y-13855065D02*
X10038715Y-13655675D01*
X9839325Y-13456285D01*
X9639935Y-13655675D01*
X9839325Y-13855065D01*
X10315575Y-19570065D02*
X10514965Y-19370675D01*
X10315575Y-19171285D01*
X10116185Y-19370675D01*
X10315575Y-19570065D01*
X10791825Y-9092565D02*
X10991215Y-8893175D01*
X10791825Y-8693785D01*
X10592435Y-8893175D01*
X10791825Y-9092565D01*
X10791825Y-10997565D02*
X10991215Y-10798175D01*
X10791825Y-10598785D01*
X10592435Y-10798175D01*
X10791825Y-10997565D01*
X10791825Y-15760065D02*
X10991215Y-15560675D01*
X10791825Y-15361285D01*
X10592435Y-15560675D01*
X10791825Y-15760065D01*
X11264900Y-22300565D02*
X11464290Y-22101175D01*
X11264900Y-21901785D01*
X11065510Y-22101175D01*
X11264900Y-22300565D01*
X11268075Y-17665065D02*
X11467465Y-17465675D01*
X11268075Y-17266285D01*
X11068685Y-17465675D01*
X11268075Y-17665065D01*
X11744325Y-13855065D02*
X11943715Y-13655675D01*
X11744325Y-13456285D01*
X11544935Y-13655675D01*
X11744325Y-13855065D01*
X12220575Y-19570065D02*
X12419965Y-19370675D01*
X12220575Y-19171285D01*
X12021185Y-19370675D01*
X12220575Y-19570065D01*
X12696825Y-9092565D02*
X12896215Y-8893175D01*
X12696825Y-8693785D01*
X12497435Y-8893175D01*
X12696825Y-9092565D01*
X12696825Y-15760065D02*
X12896215Y-15560675D01*
X12696825Y-15361285D01*
X12497435Y-15560675D01*
X12696825Y-15760065D01*
X12697000Y-10997390D02*
X12896390Y-10798000D01*
X12697000Y-10598610D01*
X12497610Y-10798000D01*
X12697000Y-10997390D01*
X13173075Y-17665065D02*
X13372465Y-17465675D01*
X13173075Y-17266285D01*
X12973685Y-17465675D01*
X13173075Y-17665065D01*
X13649325Y-13855065D02*
X13848715Y-13655675D01*
X13649325Y-13456285D01*
X13449935Y-13655675D01*
X13649325Y-13855065D01*
X14125575Y-19570065D02*
X14324965Y-19370675D01*
X14125575Y-19171285D01*
X13926185Y-19370675D01*
X14125575Y-19570065D01*
X14601825Y-15760065D02*
X14801215Y-15560675D01*
X14601825Y-15361285D01*
X14402435Y-15560675D01*
X14601825Y-15760065D01*
X15078075Y-17665065D02*
X15277465Y-17465675D01*
X15078075Y-17266285D01*
X14878685Y-17465675D01*
X15078075Y-17665065D01*
X15554325Y-13855065D02*
X15753715Y-13655675D01*
X15554325Y-13456285D01*
X15354935Y-13655675D01*
X15554325Y-13855065D01*
X16030575Y-19570065D02*
X16229965Y-19370675D01*
X16030575Y-19171285D01*
X15831185Y-19370675D01*
X16030575Y-19570065D01*
X16040100Y-10997565D02*
X16239490Y-10798175D01*
X16040100Y-10598785D01*
X15840710Y-10798175D01*
X16040100Y-10997565D01*
X16040109Y-9092565D02*
X16239499Y-8893175D01*
X16040109Y-8693785D01*
X15840719Y-8893175D01*
X16040109Y-9092565D01*
X16268700Y-21475065D02*
X16468090Y-21275675D01*
X16268700Y-21076285D01*
X16069310Y-21275675D01*
X16268700Y-21475065D01*
X16506825Y-15760065D02*
X16706215Y-15560675D01*
X16506825Y-15361285D01*
X16307435Y-15560675D01*
X16506825Y-15760065D01*
X16983075Y-17665065D02*
X17182465Y-17465675D01*
X16983075Y-17266285D01*
X16783685Y-17465675D01*
X16983075Y-17665065D01*
X17459325Y-13855065D02*
X17658715Y-13655675D01*
X17459325Y-13456285D01*
X17259935Y-13655675D01*
X17459325Y-13855065D01*
X17935575Y-19570065D02*
X18134965Y-19370675D01*
X17935575Y-19171285D01*
X17736185Y-19370675D01*
X17935575Y-19570065D01*
X17945100Y-10997565D02*
X18144490Y-10798175D01*
X17945100Y-10598785D01*
X17745710Y-10798175D01*
X17945100Y-10997565D01*
X17945111Y-9092565D02*
X18144501Y-8893175D01*
X17945111Y-8693785D01*
X17745721Y-8893175D01*
X17945111Y-9092565D01*
X18411825Y-15760065D02*
X18611215Y-15560675D01*
X18411825Y-15361285D01*
X18212435Y-15560675D01*
X18411825Y-15760065D01*
X18887500Y-17666890D02*
X19086890Y-17467500D01*
X18887500Y-17268110D01*
X18688110Y-17467500D01*
X18887500Y-17666890D01*
X19364325Y-13855065D02*
X19563715Y-13655675D01*
X19364325Y-13456285D01*
X19164935Y-13655675D01*
X19364325Y-13855065D01*
X19840575Y-19570065D02*
X20039965Y-19370675D01*
X19840575Y-19171285D01*
X19641185Y-19370675D01*
X19840575Y-19570065D01*
X19850100Y-9092565D02*
X20049490Y-8893175D01*
X19850100Y-8693785D01*
X19650710Y-8893175D01*
X19850100Y-9092565D01*
X19850100Y-10997565D02*
X20049490Y-10798175D01*
X19850100Y-10598785D01*
X19650710Y-10798175D01*
X19850100Y-10997565D01*
X20316825Y-15760065D02*
X20516215Y-15560675D01*
X20316825Y-15361285D01*
X20117435Y-15560675D01*
X20316825Y-15760065D01*
X20793075Y-17665065D02*
X20992465Y-17465675D01*
X20793075Y-17266285D01*
X20593685Y-17465675D01*
X20793075Y-17665065D01*
X21269325Y-13855065D02*
X21468715Y-13655675D01*
X21269325Y-13456285D01*
X21069935Y-13655675D01*
X21269325Y-13855065D01*
X21272500Y-22300565D02*
X21471890Y-22101175D01*
X21272500Y-21901785D01*
X21073110Y-22101175D01*
X21272500Y-22300565D01*
X21745575Y-19570065D02*
X21944965Y-19370675D01*
X21745575Y-19171285D01*
X21546185Y-19370675D01*
X21745575Y-19570065D01*
X21755100Y-9092565D02*
X21954490Y-8893175D01*
X21755100Y-8693785D01*
X21555710Y-8893175D01*
X21755100Y-9092565D01*
X21755100Y-10997565D02*
X21954490Y-10798175D01*
X21755100Y-10598785D01*
X21555710Y-10798175D01*
X21755100Y-10997565D01*
X22221825Y-15760065D02*
X22421215Y-15560675D01*
X22221825Y-15361285D01*
X22022435Y-15560675D01*
X22221825Y-15760065D01*
X22698075Y-17665065D02*
X22897465Y-17465675D01*
X22698075Y-17266285D01*
X22498685Y-17465675D01*
X22698075Y-17665065D01*
X23174325Y-13855065D02*
X23373715Y-13655675D01*
X23174325Y-13456285D01*
X22974935Y-13655675D01*
X23174325Y-13855065D01*
X23412450Y-21475065D02*
X23611840Y-21275675D01*
X23412450Y-21076285D01*
X23213060Y-21275675D01*
X23412450Y-21475065D01*
X23650575Y-19570065D02*
X23849965Y-19370675D01*
X23650575Y-19171285D01*
X23451185Y-19370675D01*
X23650575Y-19570065D01*
X24126825Y-15760065D02*
X24326215Y-15560675D01*
X24126825Y-15361285D01*
X23927435Y-15560675D01*
X24126825Y-15760065D01*
X24603075Y-17665065D02*
X24802465Y-17465675D01*
X24603075Y-17266285D01*
X24403685Y-17465675D01*
X24603075Y-17665065D01*
X25079325Y-10997565D02*
X25278715Y-10798175D01*
X25079325Y-10598785D01*
X24879935Y-10798175D01*
X25079325Y-10997565D01*
X25079325Y-13855065D02*
X25278715Y-13655675D01*
X25079325Y-13456285D01*
X24879935Y-13655675D01*
X25079325Y-13855065D01*
X25079341Y-9092565D02*
X25278731Y-8893175D01*
X25079341Y-8693785D01*
X24879951Y-8893175D01*
X25079341Y-9092565D01*
X25555575Y-19570065D02*
X25754965Y-19370675D01*
X25555575Y-19171285D01*
X25356185Y-19370675D01*
X25555575Y-19570065D01*
X25793700Y-21475065D02*
X25993090Y-21275675D01*
X25793700Y-21076285D01*
X25594310Y-21275675D01*
X25793700Y-21475065D01*
X26031825Y-15760065D02*
X26231215Y-15560675D01*
X26031825Y-15361285D01*
X25832435Y-15560675D01*
X26031825Y-15760065D01*
X26508075Y-17665065D02*
X26707465Y-17465675D01*
X26508075Y-17266285D01*
X26308685Y-17465675D01*
X26508075Y-17665065D01*
X26984325Y-9092565D02*
X27183715Y-8893175D01*
X26984325Y-8693785D01*
X26784935Y-8893175D01*
X26984325Y-9092565D01*
X26984325Y-10997565D02*
X27183715Y-10798175D01*
X26984325Y-10598785D01*
X26784935Y-10798175D01*
X26984325Y-10997565D01*
X26984325Y-13855065D02*
X27183715Y-13655675D01*
X26984325Y-13456285D01*
X26784935Y-13655675D01*
X26984325Y-13855065D01*
X27933650Y-20395565D02*
X28133040Y-20196175D01*
X27933650Y-19996785D01*
X27734260Y-20196175D01*
X27933650Y-20395565D01*
X27936825Y-15760065D02*
X28136215Y-15560675D01*
X27936825Y-15361285D01*
X27737435Y-15560675D01*
X27936825Y-15760065D01*
X28174950Y-21475065D02*
X28374340Y-21275675D01*
X28174950Y-21076285D01*
X27975560Y-21275675D01*
X28174950Y-21475065D01*
X28413075Y-17665065D02*
X28612465Y-17465675D01*
X28413075Y-17266285D01*
X28213685Y-17465675D01*
X28413075Y-17665065D01*
X28648025Y-14680565D02*
X28847415Y-14481175D01*
X28648025Y-14281785D01*
X28448635Y-14481175D01*
X28648025Y-14680565D01*
X28889325Y-9092565D02*
X29088715Y-8893175D01*
X28889325Y-8693785D01*
X28689935Y-8893175D01*
X28889325Y-9092565D01*
X28889325Y-10997565D02*
X29088715Y-10798175D01*
X28889325Y-10598785D01*
X28689935Y-10798175D01*
X28889325Y-10997565D01*
X29127450Y-19570065D02*
X29326840Y-19370675D01*
X29127450Y-19171285D01*
X28928060Y-19370675D01*
X29127450Y-19570065D01*
X29730700Y-15518765D02*
X29930090Y-15319375D01*
X29730700Y-15119985D01*
X29531310Y-15319375D01*
X29730700Y-15518765D01*
X29730700Y-17906365D02*
X29930090Y-17706975D01*
X29730700Y-17507585D01*
X29531310Y-17706975D01*
X29730700Y-17906365D01*
X29841825Y-13855065D02*
X30041215Y-13655675D01*
X29841825Y-13456285D01*
X29642435Y-13655675D01*
X29841825Y-13855065D01*
X30321250Y-20395565D02*
X30520640Y-20196175D01*
X30321250Y-19996785D01*
X30121860Y-20196175D01*
X30321250Y-20395565D01*
X30556200Y-16712565D02*
X30755590Y-16513175D01*
X30556200Y-16313785D01*
X30356810Y-16513175D01*
X30556200Y-16712565D01*
X30556200Y-21475065D02*
X30755590Y-21275675D01*
X30556200Y-21076285D01*
X30356810Y-21275675D01*
X30556200Y-21475065D01*
X30794325Y-9092565D02*
X30993715Y-8893175D01*
X30794325Y-8693785D01*
X30594935Y-8893175D01*
X30794325Y-9092565D01*
X30794325Y-10997565D02*
X30993715Y-10798175D01*
X30794325Y-10598785D01*
X30594935Y-10798175D01*
X30794325Y-10997565D01*
X31035625Y-14680565D02*
X31235015Y-14481175D01*
X31035625Y-14281785D01*
X30836235Y-14481175D01*
X31035625Y-14680565D01*
X33175575Y-21478240D02*
X33374965Y-21278850D01*
X33175575Y-21079460D01*
X32976185Y-21278850D01*
X33175575Y-21478240D01*
X33178750Y-7184390D02*
X33378140Y-6985000D01*
X33178750Y-6785610D01*
X32979360Y-6985000D01*
X33178750Y-7184390D01*
X33178750Y-9089390D02*
X33378140Y-8890000D01*
X33178750Y-8690610D01*
X32979360Y-8890000D01*
X33178750Y-9089390D01*
X33178750Y-10994390D02*
X33378140Y-10795000D01*
X33178750Y-10595610D01*
X32979360Y-10795000D01*
X33178750Y-10994390D01*
X33178750Y-13851890D02*
X33378140Y-13652500D01*
X33178750Y-13453110D01*
X32979360Y-13652500D01*
X33178750Y-13851890D01*
X33178750Y-15756890D02*
X33378140Y-15557500D01*
X33178750Y-15358110D01*
X32979360Y-15557500D01*
X33178750Y-15756890D01*
X35080575Y-19573240D02*
X35279965Y-19373850D01*
X35080575Y-19174460D01*
X34881185Y-19373850D01*
X35080575Y-19573240D01*
X35080575Y-21478240D02*
X35279965Y-21278850D01*
X35080575Y-21079460D01*
X34881185Y-21278850D01*
X35080575Y-21478240D01*
X35083750Y-7184390D02*
X35283140Y-6985000D01*
X35083750Y-6785610D01*
X34884360Y-6985000D01*
X35083750Y-7184390D01*
X35083750Y-9089390D02*
X35283140Y-8890000D01*
X35083750Y-8690610D01*
X34884360Y-8890000D01*
X35083750Y-9089390D01*
X35083750Y-10994390D02*
X35283140Y-10795000D01*
X35083750Y-10595610D01*
X34884360Y-10795000D01*
X35083750Y-10994390D01*
X35083750Y-13851890D02*
X35283140Y-13652500D01*
X35083750Y-13453110D01*
X34884360Y-13652500D01*
X35083750Y-13851890D01*
X35083750Y-15756890D02*
X35283140Y-15557500D01*
X35083750Y-15358110D01*
X34884360Y-15557500D01*
X35083750Y-15756890D01*
X36985575Y-21478240D02*
X37184965Y-21278850D01*
X36985575Y-21079460D01*
X36786185Y-21278850D01*
X36985575Y-21478240D01*
X36988750Y-9089390D02*
X37188140Y-8890000D01*
X36988750Y-8690610D01*
X36789360Y-8890000D01*
X36988750Y-9089390D01*
X36988750Y-10994390D02*
X37188140Y-10795000D01*
X36988750Y-10595610D01*
X36789360Y-10795000D01*
X36988750Y-10994390D01*
X36988750Y-13851890D02*
X37188140Y-13652500D01*
X36988750Y-13453110D01*
X36789360Y-13652500D01*
X36988750Y-13851890D01*
X36988750Y-15756890D02*
X37188140Y-15557500D01*
X36988750Y-15358110D01*
X36789360Y-15557500D01*
X36988750Y-15756890D01*
X39125525Y-22303740D02*
X39324915Y-22104350D01*
X39125525Y-21904960D01*
X38926135Y-22104350D01*
X39125525Y-22303740D01*
X39366825Y-13858240D02*
X39566215Y-13658850D01*
X39366825Y-13459460D01*
X39167435Y-13658850D01*
X39366825Y-13858240D01*
X39366825Y-15763240D02*
X39566215Y-15563850D01*
X39366825Y-15364460D01*
X39167435Y-15563850D01*
X39366825Y-15763240D01*
X39366825Y-17668240D02*
X39566215Y-17468850D01*
X39366825Y-17269460D01*
X39167435Y-17468850D01*
X39366825Y-17668240D01*
X39366825Y-19573240D02*
X39566215Y-19373850D01*
X39366825Y-19174460D01*
X39167435Y-19373850D01*
X39366825Y-19573240D01*
X40319325Y-21478240D02*
X40518715Y-21278850D01*
X40319325Y-21079460D01*
X40119935Y-21278850D01*
X40319325Y-21478240D01*
X41271825Y-13858240D02*
X41471215Y-13658850D01*
X41271825Y-13459460D01*
X41072435Y-13658850D01*
X41271825Y-13858240D01*
X41271825Y-15763240D02*
X41471215Y-15563850D01*
X41271825Y-15364460D01*
X41072435Y-15563850D01*
X41271825Y-15763240D01*
X41271825Y-17668240D02*
X41471215Y-17468850D01*
X41271825Y-17269460D01*
X41072435Y-17468850D01*
X41271825Y-17668240D01*
X41271825Y-19573240D02*
X41471215Y-19373850D01*
X41271825Y-19174460D01*
X41072435Y-19373850D01*
X41271825Y-19573240D01*
X41513125Y-22303740D02*
X41712515Y-22104350D01*
X41513125Y-21904960D01*
X41313735Y-22104350D01*
X41513125Y-22303740D01*
X43176825Y-13858240D02*
X43376215Y-13658850D01*
X43176825Y-13459460D01*
X42977435Y-13658850D01*
X43176825Y-13858240D01*
X43176825Y-15763240D02*
X43376215Y-15563850D01*
X43176825Y-15364460D01*
X42977435Y-15563850D01*
X43176825Y-15763240D01*
X43176825Y-17668240D02*
X43376215Y-17468850D01*
X43176825Y-17269460D01*
X42977435Y-17468850D01*
X43176825Y-17668240D01*
X43176825Y-19573240D02*
X43376215Y-19373850D01*
X43176825Y-19174460D01*
X42977435Y-19373850D01*
X43176825Y-19573240D01*
X43176825Y-21478240D02*
X43376215Y-21278850D01*
X43176825Y-21079460D01*
X42977435Y-21278850D01*
X43176825Y-21478240D01*
X44256325Y-15521940D02*
X44455715Y-15322550D01*
X44256325Y-15123160D01*
X44056935Y-15322550D01*
X44256325Y-15521940D01*
X44256325Y-17909540D02*
X44455715Y-17710150D01*
X44256325Y-17510760D01*
X44056935Y-17710150D01*
X44256325Y-17909540D01*
X45081825Y-13858240D02*
X45281215Y-13658850D01*
X45081825Y-13459460D01*
X44882435Y-13658850D01*
X45081825Y-13858240D01*
X45081825Y-16715740D02*
X45281215Y-16516350D01*
X45081825Y-16316960D01*
X44882435Y-16516350D01*
X45081825Y-16715740D01*
X45081825Y-20525740D02*
X45281215Y-20326350D01*
X45081825Y-20126960D01*
X44882435Y-20326350D01*
X45081825Y-20525740D01*
X45907325Y-19331940D02*
X46106715Y-19132550D01*
X45907325Y-18933160D01*
X45707935Y-19132550D01*
X45907325Y-19331940D01*
X45907325Y-21719540D02*
X46106715Y-21520150D01*
X45907325Y-21320760D01*
X45707935Y-21520150D01*
X45907325Y-21719540D01*
D18*
X3911250Y-13948000D02*
X4336250Y-14373000D01*
X4336250Y-13948000D02*
X3911250Y-14373000D01*
X4336250Y-14160500D02*
G75*
G03*
X4336250Y-14160500I-212500J0D01*
G01*
X3915000Y-11090500D02*
X4340000Y-11515500D01*
X4340000Y-11090500D02*
X3915000Y-11515500D01*
X4340000Y-11303000D02*
G75*
G03*
X4340000Y-11303000I-212500J0D01*
G01*
X4152550Y-19661550D02*
X4577550Y-20086550D01*
X4577550Y-19661550D02*
X4152550Y-20086550D01*
X4577550Y-19874050D02*
G75*
G03*
X4577550Y-19874050I-212500J0D01*
G01*
X4152550Y-21566550D02*
X4577550Y-21991550D01*
X4577550Y-21566550D02*
X4152550Y-21991550D01*
X4577550Y-21779050D02*
G75*
G03*
X4577550Y-21779050I-212500J0D01*
G01*
X4393850Y-15851550D02*
X4818850Y-16276550D01*
X4818850Y-15851550D02*
X4393850Y-16276550D01*
X4818850Y-16064050D02*
G75*
G03*
X4818850Y-16064050I-212500J0D01*
G01*
X4622450Y-17756550D02*
X5047450Y-18181550D01*
X5047450Y-17756550D02*
X4622450Y-18181550D01*
X5047450Y-17969050D02*
G75*
G03*
X5047450Y-17969050I-212500J0D01*
G01*
X5816250Y-13948000D02*
X6241250Y-14373000D01*
X6241250Y-13948000D02*
X5816250Y-14373000D01*
X6241250Y-14160500D02*
G75*
G03*
X6241250Y-14160500I-212500J0D01*
G01*
X6298850Y-19661550D02*
X6723850Y-20086550D01*
X6723850Y-19661550D02*
X6298850Y-20086550D01*
X6723850Y-19874050D02*
G75*
G03*
X6723850Y-19874050I-212500J0D01*
G01*
X6527450Y-21566550D02*
X6952450Y-21991550D01*
X6952450Y-21566550D02*
X6527450Y-21991550D01*
X6952450Y-21779050D02*
G75*
G03*
X6952450Y-21779050I-212500J0D01*
G01*
X6768750Y-11089050D02*
X7193750Y-11514050D01*
X7193750Y-11089050D02*
X6768750Y-11514050D01*
X7193750Y-11301550D02*
G75*
G03*
X7193750Y-11301550I-212500J0D01*
G01*
X6768750Y-15851550D02*
X7193750Y-16276550D01*
X7193750Y-15851550D02*
X6768750Y-16276550D01*
X7193750Y-16064050D02*
G75*
G03*
X7193750Y-16064050I-212500J0D01*
G01*
X6772500Y-9185500D02*
X7197500Y-9610500D01*
X7197500Y-9185500D02*
X6772500Y-9610500D01*
X7197500Y-9398000D02*
G75*
G03*
X7197500Y-9398000I-212500J0D01*
G01*
X7251350Y-17756550D02*
X7676350Y-18181550D01*
X7676350Y-17756550D02*
X7251350Y-18181550D01*
X7676350Y-17969050D02*
G75*
G03*
X7676350Y-17969050I-212500J0D01*
G01*
X7721250Y-13948000D02*
X8146250Y-14373000D01*
X8146250Y-13948000D02*
X7721250Y-14373000D01*
X8146250Y-14160500D02*
G75*
G03*
X8146250Y-14160500I-212500J0D01*
G01*
X8203850Y-19661550D02*
X8628850Y-20086550D01*
X8628850Y-19661550D02*
X8203850Y-20086550D01*
X8628850Y-19874050D02*
G75*
G03*
X8628850Y-19874050I-212500J0D01*
G01*
X8673750Y-11089050D02*
X9098750Y-11514050D01*
X9098750Y-11089050D02*
X8673750Y-11514050D01*
X9098750Y-11301550D02*
G75*
G03*
X9098750Y-11301550I-212500J0D01*
G01*
X8673750Y-15851550D02*
X9098750Y-16276550D01*
X9098750Y-15851550D02*
X8673750Y-16276550D01*
X9098750Y-16064050D02*
G75*
G03*
X9098750Y-16064050I-212500J0D01*
G01*
X8677500Y-9185500D02*
X9102500Y-9610500D01*
X9102500Y-9185500D02*
X8677500Y-9610500D01*
X9102500Y-9398000D02*
G75*
G03*
X9102500Y-9398000I-212500J0D01*
G01*
X8915050Y-21566550D02*
X9340050Y-21991550D01*
X9340050Y-21566550D02*
X8915050Y-21991550D01*
X9340050Y-21779050D02*
G75*
G03*
X9340050Y-21779050I-212500J0D01*
G01*
X9156350Y-17756550D02*
X9581350Y-18181550D01*
X9581350Y-17756550D02*
X9156350Y-18181550D01*
X9581350Y-17969050D02*
G75*
G03*
X9581350Y-17969050I-212500J0D01*
G01*
X9626250Y-13948000D02*
X10051250Y-14373000D01*
X10051250Y-13948000D02*
X9626250Y-14373000D01*
X10051250Y-14160500D02*
G75*
G03*
X10051250Y-14160500I-212500J0D01*
G01*
X10108850Y-19661550D02*
X10533850Y-20086550D01*
X10533850Y-19661550D02*
X10108850Y-20086550D01*
X10533850Y-19874050D02*
G75*
G03*
X10533850Y-19874050I-212500J0D01*
G01*
X10578750Y-11089050D02*
X11003750Y-11514050D01*
X11003750Y-11089050D02*
X10578750Y-11514050D01*
X11003750Y-11301550D02*
G75*
G03*
X11003750Y-11301550I-212500J0D01*
G01*
X10578750Y-15851550D02*
X11003750Y-16276550D01*
X11003750Y-15851550D02*
X10578750Y-16276550D01*
X11003750Y-16064050D02*
G75*
G03*
X11003750Y-16064050I-212500J0D01*
G01*
X10582500Y-9185500D02*
X11007500Y-9610500D01*
X11007500Y-9185500D02*
X10582500Y-9610500D01*
X11007500Y-9398000D02*
G75*
G03*
X11007500Y-9398000I-212500J0D01*
G01*
X11061350Y-17756550D02*
X11486350Y-18181550D01*
X11486350Y-17756550D02*
X11061350Y-18181550D01*
X11486350Y-17969050D02*
G75*
G03*
X11486350Y-17969050I-212500J0D01*
G01*
X11531250Y-13946550D02*
X11956250Y-14371550D01*
X11956250Y-13946550D02*
X11531250Y-14371550D01*
X11956250Y-14159050D02*
G75*
G03*
X11956250Y-14159050I-212500J0D01*
G01*
X12001150Y-19661550D02*
X12426150Y-20086550D01*
X12426150Y-19661550D02*
X12001150Y-20086550D01*
X12426150Y-19874050D02*
G75*
G03*
X12426150Y-19874050I-212500J0D01*
G01*
X12467500Y-21567500D02*
X12892500Y-21992500D01*
X12892500Y-21567500D02*
X12467500Y-21992500D01*
X12892500Y-21780000D02*
G75*
G03*
X12892500Y-21780000I-212500J0D01*
G01*
X12483750Y-11089050D02*
X12908750Y-11514050D01*
X12908750Y-11089050D02*
X12483750Y-11514050D01*
X12908750Y-11301550D02*
G75*
G03*
X12908750Y-11301550I-212500J0D01*
G01*
X12483750Y-15851550D02*
X12908750Y-16276550D01*
X12908750Y-15851550D02*
X12483750Y-16276550D01*
X12908750Y-16064050D02*
G75*
G03*
X12908750Y-16064050I-212500J0D01*
G01*
X12487500Y-9185500D02*
X12912500Y-9610500D01*
X12912500Y-9185500D02*
X12487500Y-9610500D01*
X12912500Y-9398000D02*
G75*
G03*
X12912500Y-9398000I-212500J0D01*
G01*
X12953650Y-17756550D02*
X13378650Y-18181550D01*
X13378650Y-17756550D02*
X12953650Y-18181550D01*
X13378650Y-17969050D02*
G75*
G03*
X13378650Y-17969050I-212500J0D01*
G01*
X13436250Y-13946550D02*
X13861250Y-14371550D01*
X13861250Y-13946550D02*
X13436250Y-14371550D01*
X13861250Y-14159050D02*
G75*
G03*
X13861250Y-14159050I-212500J0D01*
G01*
X13906150Y-19661550D02*
X14331150Y-20086550D01*
X14331150Y-19661550D02*
X13906150Y-20086550D01*
X14331150Y-19874050D02*
G75*
G03*
X14331150Y-19874050I-212500J0D01*
G01*
X14388750Y-15851550D02*
X14813750Y-16276550D01*
X14813750Y-15851550D02*
X14388750Y-16276550D01*
X14813750Y-16064050D02*
G75*
G03*
X14813750Y-16064050I-212500J0D01*
G01*
X14858650Y-17756550D02*
X15283650Y-18181550D01*
X15283650Y-17756550D02*
X14858650Y-18181550D01*
X15283650Y-17969050D02*
G75*
G03*
X15283650Y-17969050I-212500J0D01*
G01*
X15341250Y-13946550D02*
X15766250Y-14371550D01*
X15766250Y-13946550D02*
X15341250Y-14371550D01*
X15766250Y-14159050D02*
G75*
G03*
X15766250Y-14159050I-212500J0D01*
G01*
X15811150Y-19661550D02*
X16236150Y-20086550D01*
X16236150Y-19661550D02*
X15811150Y-20086550D01*
X16236150Y-19874050D02*
G75*
G03*
X16236150Y-19874050I-212500J0D01*
G01*
X15827500Y-11112500D02*
X16252500Y-11537500D01*
X16252500Y-11112500D02*
X15827500Y-11537500D01*
X16252500Y-11325000D02*
G75*
G03*
X16252500Y-11325000I-212500J0D01*
G01*
X15836550Y-9196750D02*
X16261550Y-9621750D01*
X16261550Y-9196750D02*
X15836550Y-9621750D01*
X16261550Y-9409250D02*
G75*
G03*
X16261550Y-9409250I-212500J0D01*
G01*
X16065150Y-21566550D02*
X16490150Y-21991550D01*
X16490150Y-21566550D02*
X16065150Y-21991550D01*
X16490150Y-21779050D02*
G75*
G03*
X16490150Y-21779050I-212500J0D01*
G01*
X16293750Y-15851550D02*
X16718750Y-16276550D01*
X16718750Y-15851550D02*
X16293750Y-16276550D01*
X16718750Y-16064050D02*
G75*
G03*
X16718750Y-16064050I-212500J0D01*
G01*
X16763650Y-17756550D02*
X17188650Y-18181550D01*
X17188650Y-17756550D02*
X16763650Y-18181550D01*
X17188650Y-17969050D02*
G75*
G03*
X17188650Y-17969050I-212500J0D01*
G01*
X17246250Y-13946550D02*
X17671250Y-14371550D01*
X17671250Y-13946550D02*
X17246250Y-14371550D01*
X17671250Y-14159050D02*
G75*
G03*
X17671250Y-14159050I-212500J0D01*
G01*
X17716150Y-19661550D02*
X18141150Y-20086550D01*
X18141150Y-19661550D02*
X17716150Y-20086550D01*
X18141150Y-19874050D02*
G75*
G03*
X18141150Y-19874050I-212500J0D01*
G01*
X17732500Y-11112500D02*
X18157500Y-11537500D01*
X18157500Y-11112500D02*
X17732500Y-11537500D01*
X18157500Y-11325000D02*
G75*
G03*
X18157500Y-11325000I-212500J0D01*
G01*
X17741550Y-9196750D02*
X18166550Y-9621750D01*
X18166550Y-9196750D02*
X17741550Y-9621750D01*
X18166550Y-9409250D02*
G75*
G03*
X18166550Y-9409250I-212500J0D01*
G01*
X18198750Y-15851550D02*
X18623750Y-16276550D01*
X18623750Y-15851550D02*
X18198750Y-16276550D01*
X18623750Y-16064050D02*
G75*
G03*
X18623750Y-16064050I-212500J0D01*
G01*
X18668650Y-17756550D02*
X19093650Y-18181550D01*
X19093650Y-17756550D02*
X18668650Y-18181550D01*
X19093650Y-17969050D02*
G75*
G03*
X19093650Y-17969050I-212500J0D01*
G01*
X19151250Y-13946550D02*
X19576250Y-14371550D01*
X19576250Y-13946550D02*
X19151250Y-14371550D01*
X19576250Y-14159050D02*
G75*
G03*
X19576250Y-14159050I-212500J0D01*
G01*
X19633850Y-19661550D02*
X20058850Y-20086550D01*
X20058850Y-19661550D02*
X19633850Y-20086550D01*
X20058850Y-19874050D02*
G75*
G03*
X20058850Y-19874050I-212500J0D01*
G01*
X19637500Y-11112500D02*
X20062500Y-11537500D01*
X20062500Y-11112500D02*
X19637500Y-11537500D01*
X20062500Y-11325000D02*
G75*
G03*
X20062500Y-11325000I-212500J0D01*
G01*
X19637500Y-21567500D02*
X20062500Y-21992500D01*
X20062500Y-21567500D02*
X19637500Y-21992500D01*
X20062500Y-21780000D02*
G75*
G03*
X20062500Y-21780000I-212500J0D01*
G01*
X19646550Y-9196750D02*
X20071550Y-9621750D01*
X20071550Y-9196750D02*
X19646550Y-9621750D01*
X20071550Y-9409250D02*
G75*
G03*
X20071550Y-9409250I-212500J0D01*
G01*
X20103750Y-15851550D02*
X20528750Y-16276550D01*
X20528750Y-15851550D02*
X20103750Y-16276550D01*
X20528750Y-16064050D02*
G75*
G03*
X20528750Y-16064050I-212500J0D01*
G01*
X20586350Y-17756550D02*
X21011350Y-18181550D01*
X21011350Y-17756550D02*
X20586350Y-18181550D01*
X21011350Y-17969050D02*
G75*
G03*
X21011350Y-17969050I-212500J0D01*
G01*
X21056250Y-13946550D02*
X21481250Y-14371550D01*
X21481250Y-13946550D02*
X21056250Y-14371550D01*
X21481250Y-14159050D02*
G75*
G03*
X21481250Y-14159050I-212500J0D01*
G01*
X21538850Y-19661550D02*
X21963850Y-20086550D01*
X21963850Y-19661550D02*
X21538850Y-20086550D01*
X21963850Y-19874050D02*
G75*
G03*
X21963850Y-19874050I-212500J0D01*
G01*
X21551550Y-9196750D02*
X21976550Y-9621750D01*
X21976550Y-9196750D02*
X21551550Y-9621750D01*
X21976550Y-9409250D02*
G75*
G03*
X21976550Y-9409250I-212500J0D01*
G01*
X21552500Y-11112500D02*
X21977500Y-11537500D01*
X21977500Y-11112500D02*
X21552500Y-11537500D01*
X21977500Y-11325000D02*
G75*
G03*
X21977500Y-11325000I-212500J0D01*
G01*
X22008750Y-15851550D02*
X22433750Y-16276550D01*
X22433750Y-15851550D02*
X22008750Y-16276550D01*
X22433750Y-16064050D02*
G75*
G03*
X22433750Y-16064050I-212500J0D01*
G01*
X22491350Y-17756550D02*
X22916350Y-18181550D01*
X22916350Y-17756550D02*
X22491350Y-18181550D01*
X22916350Y-17969050D02*
G75*
G03*
X22916350Y-17969050I-212500J0D01*
G01*
X22961250Y-13946550D02*
X23386250Y-14371550D01*
X23386250Y-13946550D02*
X22961250Y-14371550D01*
X23386250Y-14159050D02*
G75*
G03*
X23386250Y-14159050I-212500J0D01*
G01*
X23202550Y-21566550D02*
X23627550Y-21991550D01*
X23627550Y-21566550D02*
X23202550Y-21991550D01*
X23627550Y-21779050D02*
G75*
G03*
X23627550Y-21779050I-212500J0D01*
G01*
X23443850Y-19661550D02*
X23868850Y-20086550D01*
X23868850Y-19661550D02*
X23443850Y-20086550D01*
X23868850Y-19874050D02*
G75*
G03*
X23868850Y-19874050I-212500J0D01*
G01*
X23913750Y-15851550D02*
X24338750Y-16276550D01*
X24338750Y-15851550D02*
X23913750Y-16276550D01*
X24338750Y-16064050D02*
G75*
G03*
X24338750Y-16064050I-212500J0D01*
G01*
X24396350Y-17756550D02*
X24821350Y-18181550D01*
X24821350Y-17756550D02*
X24396350Y-18181550D01*
X24821350Y-17969050D02*
G75*
G03*
X24821350Y-17969050I-212500J0D01*
G01*
X24866250Y-9184050D02*
X25291250Y-9609050D01*
X25291250Y-9184050D02*
X24866250Y-9609050D01*
X25291250Y-9396550D02*
G75*
G03*
X25291250Y-9396550I-212500J0D01*
G01*
X24866250Y-11089050D02*
X25291250Y-11514050D01*
X25291250Y-11089050D02*
X24866250Y-11514050D01*
X25291250Y-11301550D02*
G75*
G03*
X25291250Y-11301550I-212500J0D01*
G01*
X24866250Y-13946550D02*
X25291250Y-14371550D01*
X25291250Y-13946550D02*
X24866250Y-14371550D01*
X25291250Y-14159050D02*
G75*
G03*
X25291250Y-14159050I-212500J0D01*
G01*
X25353500Y-19691500D02*
X25778500Y-20116500D01*
X25778500Y-19691500D02*
X25353500Y-20116500D01*
X25778500Y-19904000D02*
G75*
G03*
X25778500Y-19904000I-212500J0D01*
G01*
X25581200Y-21566550D02*
X26006200Y-21991550D01*
X26006200Y-21566550D02*
X25581200Y-21991550D01*
X26006200Y-21779050D02*
G75*
G03*
X26006200Y-21779050I-212500J0D01*
G01*
X25818750Y-15851550D02*
X26243750Y-16276550D01*
X26243750Y-15851550D02*
X25818750Y-16276550D01*
X26243750Y-16064050D02*
G75*
G03*
X26243750Y-16064050I-212500J0D01*
G01*
X26301350Y-17756550D02*
X26726350Y-18181550D01*
X26726350Y-17756550D02*
X26301350Y-18181550D01*
X26726350Y-17969050D02*
G75*
G03*
X26726350Y-17969050I-212500J0D01*
G01*
X26771250Y-9184050D02*
X27196250Y-9609050D01*
X27196250Y-9184050D02*
X26771250Y-9609050D01*
X27196250Y-9396550D02*
G75*
G03*
X27196250Y-9396550I-212500J0D01*
G01*
X26771250Y-11089050D02*
X27196250Y-11514050D01*
X27196250Y-11089050D02*
X26771250Y-11514050D01*
X27196250Y-11301550D02*
G75*
G03*
X27196250Y-11301550I-212500J0D01*
G01*
X26775000Y-13948000D02*
X27200000Y-14373000D01*
X27200000Y-13948000D02*
X26775000Y-14373000D01*
X27200000Y-14160500D02*
G75*
G03*
X27200000Y-14160500I-212500J0D01*
G01*
X27722500Y-15842500D02*
X28147500Y-16267500D01*
X28147500Y-15842500D02*
X27722500Y-16267500D01*
X28147500Y-16055000D02*
G75*
G03*
X28147500Y-16055000I-212500J0D01*
G01*
X27956100Y-21566550D02*
X28381100Y-21991550D01*
X28381100Y-21566550D02*
X27956100Y-21991550D01*
X28381100Y-21779050D02*
G75*
G03*
X28381100Y-21779050I-212500J0D01*
G01*
X28206350Y-17756550D02*
X28631350Y-18181550D01*
X28631350Y-17756550D02*
X28206350Y-18181550D01*
X28631350Y-17969050D02*
G75*
G03*
X28631350Y-17969050I-212500J0D01*
G01*
X28676250Y-9184050D02*
X29101250Y-9609050D01*
X29101250Y-9184050D02*
X28676250Y-9609050D01*
X29101250Y-9396550D02*
G75*
G03*
X29101250Y-9396550I-212500J0D01*
G01*
X28676250Y-11089050D02*
X29101250Y-11514050D01*
X29101250Y-11089050D02*
X28676250Y-11514050D01*
X29101250Y-11301550D02*
G75*
G03*
X29101250Y-11301550I-212500J0D01*
G01*
X28917550Y-19661550D02*
X29342550Y-20086550D01*
X29342550Y-19661550D02*
X28917550Y-20086550D01*
X29342550Y-19874050D02*
G75*
G03*
X29342550Y-19874050I-212500J0D01*
G01*
X29628750Y-13946550D02*
X30053750Y-14371550D01*
X30053750Y-13946550D02*
X29628750Y-14371550D01*
X30053750Y-14159050D02*
G75*
G03*
X30053750Y-14159050I-212500J0D01*
G01*
X30339950Y-21566550D02*
X30764950Y-21991550D01*
X30764950Y-21566550D02*
X30339950Y-21991550D01*
X30764950Y-21779050D02*
G75*
G03*
X30764950Y-21779050I-212500J0D01*
G01*
X30343700Y-16854850D02*
X30768700Y-17279850D01*
X30768700Y-16854850D02*
X30343700Y-17279850D01*
X30768700Y-17067350D02*
G75*
G03*
X30768700Y-17067350I-212500J0D01*
G01*
X30581250Y-9184050D02*
X31006250Y-9609050D01*
X31006250Y-9184050D02*
X30581250Y-9609050D01*
X31006250Y-9396550D02*
G75*
G03*
X31006250Y-9396550I-212500J0D01*
G01*
X30581250Y-11089050D02*
X31006250Y-11514050D01*
X31006250Y-11089050D02*
X30581250Y-11514050D01*
X31006250Y-11301550D02*
G75*
G03*
X31006250Y-11301550I-212500J0D01*
G01*
X32968850Y-7279050D02*
X33393850Y-7704050D01*
X33393850Y-7279050D02*
X32968850Y-7704050D01*
X33393850Y-7491550D02*
G75*
G03*
X33393850Y-7491550I-212500J0D01*
G01*
X32968850Y-9184050D02*
X33393850Y-9609050D01*
X33393850Y-9184050D02*
X32968850Y-9609050D01*
X33393850Y-9396550D02*
G75*
G03*
X33393850Y-9396550I-212500J0D01*
G01*
X32968850Y-11089050D02*
X33393850Y-11514050D01*
X33393850Y-11089050D02*
X32968850Y-11514050D01*
X33393850Y-11301550D02*
G75*
G03*
X33393850Y-11301550I-212500J0D01*
G01*
X32968850Y-13959250D02*
X33393850Y-14384250D01*
X33393850Y-13959250D02*
X32968850Y-14384250D01*
X33393850Y-14171750D02*
G75*
G03*
X33393850Y-14171750I-212500J0D01*
G01*
X32968850Y-15851550D02*
X33393850Y-16276550D01*
X33393850Y-15851550D02*
X32968850Y-16276550D01*
X33393850Y-16064050D02*
G75*
G03*
X33393850Y-16064050I-212500J0D01*
G01*
X32968850Y-21579250D02*
X33393850Y-22004250D01*
X33393850Y-21579250D02*
X32968850Y-22004250D01*
X33393850Y-21791750D02*
G75*
G03*
X33393850Y-21791750I-212500J0D01*
G01*
X34865500Y-19669500D02*
X35290500Y-20094500D01*
X35290500Y-19669500D02*
X34865500Y-20094500D01*
X35290500Y-19882000D02*
G75*
G03*
X35290500Y-19882000I-212500J0D01*
G01*
X34873850Y-7279050D02*
X35298850Y-7704050D01*
X35298850Y-7279050D02*
X34873850Y-7704050D01*
X35298850Y-7491550D02*
G75*
G03*
X35298850Y-7491550I-212500J0D01*
G01*
X34873850Y-9184050D02*
X35298850Y-9609050D01*
X35298850Y-9184050D02*
X34873850Y-9609050D01*
X35298850Y-9396550D02*
G75*
G03*
X35298850Y-9396550I-212500J0D01*
G01*
X34873850Y-11089050D02*
X35298850Y-11514050D01*
X35298850Y-11089050D02*
X34873850Y-11514050D01*
X35298850Y-11301550D02*
G75*
G03*
X35298850Y-11301550I-212500J0D01*
G01*
X34873850Y-13959250D02*
X35298850Y-14384250D01*
X35298850Y-13959250D02*
X34873850Y-14384250D01*
X35298850Y-14171750D02*
G75*
G03*
X35298850Y-14171750I-212500J0D01*
G01*
X34873850Y-15851550D02*
X35298850Y-16276550D01*
X35298850Y-15851550D02*
X34873850Y-16276550D01*
X35298850Y-16064050D02*
G75*
G03*
X35298850Y-16064050I-212500J0D01*
G01*
X34873850Y-21579250D02*
X35298850Y-22004250D01*
X35298850Y-21579250D02*
X34873850Y-22004250D01*
X35298850Y-21791750D02*
G75*
G03*
X35298850Y-21791750I-212500J0D01*
G01*
X36778850Y-9184050D02*
X37203850Y-9609050D01*
X37203850Y-9184050D02*
X36778850Y-9609050D01*
X37203850Y-9396550D02*
G75*
G03*
X37203850Y-9396550I-212500J0D01*
G01*
X36778850Y-11089050D02*
X37203850Y-11514050D01*
X37203850Y-11089050D02*
X36778850Y-11514050D01*
X37203850Y-11301550D02*
G75*
G03*
X37203850Y-11301550I-212500J0D01*
G01*
X36778850Y-13959250D02*
X37203850Y-14384250D01*
X37203850Y-13959250D02*
X36778850Y-14384250D01*
X37203850Y-14171750D02*
G75*
G03*
X37203850Y-14171750I-212500J0D01*
G01*
X36778850Y-15851550D02*
X37203850Y-16276550D01*
X37203850Y-15851550D02*
X36778850Y-16276550D01*
X37203850Y-16064050D02*
G75*
G03*
X37203850Y-16064050I-212500J0D01*
G01*
X36778850Y-21579250D02*
X37203850Y-22004250D01*
X37203850Y-21579250D02*
X36778850Y-22004250D01*
X37203850Y-21791750D02*
G75*
G03*
X37203850Y-21791750I-212500J0D01*
G01*
X39153750Y-13946550D02*
X39578750Y-14371550D01*
X39578750Y-13946550D02*
X39153750Y-14371550D01*
X39578750Y-14159050D02*
G75*
G03*
X39578750Y-14159050I-212500J0D01*
G01*
X39153750Y-15864250D02*
X39578750Y-16289250D01*
X39578750Y-15864250D02*
X39153750Y-16289250D01*
X39578750Y-16076750D02*
G75*
G03*
X39578750Y-16076750I-212500J0D01*
G01*
X39153750Y-17769250D02*
X39578750Y-18194250D01*
X39578750Y-17769250D02*
X39153750Y-18194250D01*
X39578750Y-17981750D02*
G75*
G03*
X39578750Y-17981750I-212500J0D01*
G01*
X39163500Y-19669500D02*
X39588500Y-20094500D01*
X39588500Y-19669500D02*
X39163500Y-20094500D01*
X39588500Y-19882000D02*
G75*
G03*
X39588500Y-19882000I-212500J0D01*
G01*
X40110000Y-21568000D02*
X40535000Y-21993000D01*
X40535000Y-21568000D02*
X40110000Y-21993000D01*
X40535000Y-21780500D02*
G75*
G03*
X40535000Y-21780500I-212500J0D01*
G01*
X41058750Y-13946550D02*
X41483750Y-14371550D01*
X41483750Y-13946550D02*
X41058750Y-14371550D01*
X41483750Y-14159050D02*
G75*
G03*
X41483750Y-14159050I-212500J0D01*
G01*
X41058750Y-15864250D02*
X41483750Y-16289250D01*
X41483750Y-15864250D02*
X41058750Y-16289250D01*
X41483750Y-16076750D02*
G75*
G03*
X41483750Y-16076750I-212500J0D01*
G01*
X41058750Y-17769250D02*
X41483750Y-18194250D01*
X41483750Y-17769250D02*
X41058750Y-18194250D01*
X41483750Y-17981750D02*
G75*
G03*
X41483750Y-17981750I-212500J0D01*
G01*
X41068500Y-19669500D02*
X41493500Y-20094500D01*
X41493500Y-19669500D02*
X41068500Y-20094500D01*
X41493500Y-19882000D02*
G75*
G03*
X41493500Y-19882000I-212500J0D01*
G01*
X42963750Y-13946550D02*
X43388750Y-14371550D01*
X43388750Y-13946550D02*
X42963750Y-14371550D01*
X43388750Y-14159050D02*
G75*
G03*
X43388750Y-14159050I-212500J0D01*
G01*
X42963750Y-15864250D02*
X43388750Y-16289250D01*
X43388750Y-15864250D02*
X42963750Y-16289250D01*
X43388750Y-16076750D02*
G75*
G03*
X43388750Y-16076750I-212500J0D01*
G01*
X42963750Y-17769250D02*
X43388750Y-18194250D01*
X43388750Y-17769250D02*
X42963750Y-18194250D01*
X43388750Y-17981750D02*
G75*
G03*
X43388750Y-17981750I-212500J0D01*
G01*
X42963750Y-19661550D02*
X43388750Y-20086550D01*
X43388750Y-19661550D02*
X42963750Y-20086550D01*
X43388750Y-19874050D02*
G75*
G03*
X43388750Y-19874050I-212500J0D01*
G01*
X42963750Y-21579250D02*
X43388750Y-22004250D01*
X43388750Y-21579250D02*
X42963750Y-22004250D01*
X43388750Y-21791750D02*
G75*
G03*
X43388750Y-21791750I-212500J0D01*
G01*
X44330500Y-20130500D02*
X44755500Y-20555500D01*
X44755500Y-20130500D02*
X44330500Y-20555500D01*
X44755500Y-20343000D02*
G75*
G03*
X44755500Y-20343000I-212500J0D01*
G01*
X44346500Y-16330500D02*
X44771500Y-16755500D01*
X44771500Y-16330500D02*
X44346500Y-16755500D01*
X44771500Y-16543000D02*
G75*
G03*
X44771500Y-16543000I-212500J0D01*
G01*
X44868750Y-13946550D02*
X45293750Y-14371550D01*
X45293750Y-13946550D02*
X44868750Y-14371550D01*
X45293750Y-14159050D02*
G75*
G03*
X45293750Y-14159050I-212500J0D01*
G01*
D12*
X3326019Y-22794476D02*
X3326019Y-22594476D01*
X3373638Y-22594476D01*
X3402209Y-22604000D01*
X3421257Y-22623048D01*
X3430781Y-22642095D01*
X3440305Y-22680190D01*
X3440305Y-22708762D01*
X3430781Y-22746857D01*
X3421257Y-22765905D01*
X3402209Y-22784952D01*
X3373638Y-22794476D01*
X3326019Y-22794476D01*
X3526019Y-22794476D02*
X3526019Y-22661143D01*
X3526019Y-22699238D02*
X3535543Y-22680190D01*
X3545067Y-22670667D01*
X3564114Y-22661143D01*
X3583162Y-22661143D01*
X3649828Y-22794476D02*
X3649828Y-22661143D01*
X3649828Y-22594476D02*
X3640305Y-22604000D01*
X3649828Y-22613524D01*
X3659352Y-22604000D01*
X3649828Y-22594476D01*
X3649828Y-22613524D01*
X3773638Y-22794476D02*
X3754590Y-22784952D01*
X3745067Y-22765905D01*
X3745067Y-22594476D01*
X3878400Y-22794476D02*
X3859352Y-22784952D01*
X3849828Y-22765905D01*
X3849828Y-22594476D01*
X4106971Y-22794476D02*
X4106971Y-22594476D01*
X4173638Y-22737333D01*
X4240305Y-22594476D01*
X4240305Y-22794476D01*
X4421257Y-22794476D02*
X4421257Y-22689714D01*
X4411733Y-22670667D01*
X4392686Y-22661143D01*
X4354590Y-22661143D01*
X4335543Y-22670667D01*
X4421257Y-22784952D02*
X4402210Y-22794476D01*
X4354590Y-22794476D01*
X4335543Y-22784952D01*
X4326019Y-22765905D01*
X4326019Y-22746857D01*
X4335543Y-22727809D01*
X4354590Y-22718286D01*
X4402210Y-22718286D01*
X4421257Y-22708762D01*
X4516495Y-22661143D02*
X4516495Y-22861143D01*
X4516495Y-22670667D02*
X4535543Y-22661143D01*
X4573638Y-22661143D01*
X4592686Y-22670667D01*
X4602210Y-22680190D01*
X4611733Y-22699238D01*
X4611733Y-22756381D01*
X4602210Y-22775428D01*
X4592686Y-22784952D01*
X4573638Y-22794476D01*
X4535543Y-22794476D01*
X4516495Y-22784952D01*
X4697448Y-22775428D02*
X4706971Y-22784952D01*
X4697448Y-22794476D01*
X4687924Y-22784952D01*
X4697448Y-22775428D01*
X4697448Y-22794476D01*
X4697448Y-22670667D02*
X4706971Y-22680190D01*
X4697448Y-22689714D01*
X4687924Y-22680190D01*
X4697448Y-22670667D01*
X4697448Y-22689714D01*
D13*
X3003400Y-23091500D02*
X3068400Y-23156500D01*
X3068400Y-23091500D02*
X3003400Y-23156500D01*
D12*
X3364114Y-23014476D02*
X3383162Y-23014476D01*
X3402209Y-23024000D01*
X3411733Y-23033524D01*
X3421257Y-23052571D01*
X3430781Y-23090667D01*
X3430781Y-23138286D01*
X3421257Y-23176381D01*
X3411733Y-23195428D01*
X3402209Y-23204952D01*
X3383162Y-23214476D01*
X3364114Y-23214476D01*
X3345067Y-23204952D01*
X3335543Y-23195428D01*
X3326019Y-23176381D01*
X3316495Y-23138286D01*
X3316495Y-23090667D01*
X3326019Y-23052571D01*
X3335543Y-23033524D01*
X3345067Y-23024000D01*
X3364114Y-23014476D01*
X3516495Y-23195428D02*
X3526019Y-23204952D01*
X3516495Y-23214476D01*
X3506971Y-23204952D01*
X3516495Y-23195428D01*
X3516495Y-23214476D01*
X3697448Y-23014476D02*
X3659352Y-23014476D01*
X3640305Y-23024000D01*
X3630781Y-23033524D01*
X3611733Y-23062095D01*
X3602209Y-23100190D01*
X3602209Y-23176381D01*
X3611733Y-23195428D01*
X3621257Y-23204952D01*
X3640305Y-23214476D01*
X3678400Y-23214476D01*
X3697448Y-23204952D01*
X3706971Y-23195428D01*
X3716495Y-23176381D01*
X3716495Y-23128762D01*
X3706971Y-23109714D01*
X3697448Y-23100190D01*
X3678400Y-23090667D01*
X3640305Y-23090667D01*
X3621257Y-23100190D01*
X3611733Y-23109714D01*
X3602209Y-23128762D01*
X3897448Y-23014476D02*
X3802209Y-23014476D01*
X3792686Y-23109714D01*
X3802209Y-23100190D01*
X3821257Y-23090667D01*
X3868876Y-23090667D01*
X3887924Y-23100190D01*
X3897448Y-23109714D01*
X3906971Y-23128762D01*
X3906971Y-23176381D01*
X3897448Y-23195428D01*
X3887924Y-23204952D01*
X3868876Y-23214476D01*
X3821257Y-23214476D01*
X3802209Y-23204952D01*
X3792686Y-23195428D01*
X4030781Y-23014476D02*
X4049828Y-23014476D01*
X4068876Y-23024000D01*
X4078400Y-23033524D01*
X4087924Y-23052571D01*
X4097448Y-23090667D01*
X4097448Y-23138286D01*
X4087924Y-23176381D01*
X4078400Y-23195428D01*
X4068876Y-23204952D01*
X4049828Y-23214476D01*
X4030781Y-23214476D01*
X4011733Y-23204952D01*
X4002209Y-23195428D01*
X3992686Y-23176381D01*
X3983162Y-23138286D01*
X3983162Y-23090667D01*
X3992686Y-23052571D01*
X4002209Y-23033524D01*
X4011733Y-23024000D01*
X4030781Y-23014476D01*
X4183162Y-23214476D02*
X4183162Y-23081143D01*
X4183162Y-23100190D02*
X4192686Y-23090667D01*
X4211733Y-23081143D01*
X4240305Y-23081143D01*
X4259352Y-23090667D01*
X4268876Y-23109714D01*
X4268876Y-23214476D01*
X4268876Y-23109714D02*
X4278400Y-23090667D01*
X4297448Y-23081143D01*
X4326019Y-23081143D01*
X4345067Y-23090667D01*
X4354590Y-23109714D01*
X4354590Y-23214476D01*
X4449829Y-23214476D02*
X4449829Y-23081143D01*
X4449829Y-23100190D02*
X4459352Y-23090667D01*
X4478400Y-23081143D01*
X4506971Y-23081143D01*
X4526019Y-23090667D01*
X4535543Y-23109714D01*
X4535543Y-23214476D01*
X4535543Y-23109714D02*
X4545067Y-23090667D01*
X4564114Y-23081143D01*
X4592686Y-23081143D01*
X4611733Y-23090667D01*
X4621257Y-23109714D01*
X4621257Y-23214476D01*
X5011733Y-23004952D02*
X4840305Y-23262095D01*
X5268876Y-23014476D02*
X5287924Y-23014476D01*
X5306971Y-23024000D01*
X5316495Y-23033524D01*
X5326019Y-23052571D01*
X5335543Y-23090667D01*
X5335543Y-23138286D01*
X5326019Y-23176381D01*
X5316495Y-23195428D01*
X5306971Y-23204952D01*
X5287924Y-23214476D01*
X5268876Y-23214476D01*
X5249829Y-23204952D01*
X5240305Y-23195428D01*
X5230781Y-23176381D01*
X5221257Y-23138286D01*
X5221257Y-23090667D01*
X5230781Y-23052571D01*
X5240305Y-23033524D01*
X5249829Y-23024000D01*
X5268876Y-23014476D01*
X5421257Y-23195428D02*
X5430781Y-23204952D01*
X5421257Y-23214476D01*
X5411733Y-23204952D01*
X5421257Y-23195428D01*
X5421257Y-23214476D01*
X5554590Y-23014476D02*
X5573638Y-23014476D01*
X5592686Y-23024000D01*
X5602209Y-23033524D01*
X5611733Y-23052571D01*
X5621257Y-23090667D01*
X5621257Y-23138286D01*
X5611733Y-23176381D01*
X5602209Y-23195428D01*
X5592686Y-23204952D01*
X5573638Y-23214476D01*
X5554590Y-23214476D01*
X5535543Y-23204952D01*
X5526019Y-23195428D01*
X5516495Y-23176381D01*
X5506971Y-23138286D01*
X5506971Y-23090667D01*
X5516495Y-23052571D01*
X5526019Y-23033524D01*
X5535543Y-23024000D01*
X5554590Y-23014476D01*
X5697448Y-23033524D02*
X5706971Y-23024000D01*
X5726019Y-23014476D01*
X5773638Y-23014476D01*
X5792686Y-23024000D01*
X5802209Y-23033524D01*
X5811733Y-23052571D01*
X5811733Y-23071619D01*
X5802209Y-23100190D01*
X5687924Y-23214476D01*
X5811733Y-23214476D01*
X5992686Y-23014476D02*
X5897448Y-23014476D01*
X5887924Y-23109714D01*
X5897448Y-23100190D01*
X5916495Y-23090667D01*
X5964114Y-23090667D01*
X5983162Y-23100190D01*
X5992686Y-23109714D01*
X6002209Y-23128762D01*
X6002209Y-23176381D01*
X5992686Y-23195428D01*
X5983162Y-23204952D01*
X5964114Y-23214476D01*
X5916495Y-23214476D01*
X5897448Y-23204952D01*
X5887924Y-23195428D01*
X6173638Y-23014476D02*
X6135543Y-23014476D01*
X6116495Y-23024000D01*
X6106971Y-23033524D01*
X6087924Y-23062095D01*
X6078400Y-23100190D01*
X6078400Y-23176381D01*
X6087924Y-23195428D01*
X6097448Y-23204952D01*
X6116495Y-23214476D01*
X6154590Y-23214476D01*
X6173638Y-23204952D01*
X6183162Y-23195428D01*
X6192686Y-23176381D01*
X6192686Y-23128762D01*
X6183162Y-23109714D01*
X6173638Y-23100190D01*
X6154590Y-23090667D01*
X6116495Y-23090667D01*
X6097448Y-23100190D01*
X6087924Y-23109714D01*
X6078400Y-23128762D01*
X6268876Y-23014476D02*
X6268876Y-23052571D01*
X6345067Y-23014476D02*
X6345067Y-23052571D01*
X6640305Y-23290667D02*
X6630781Y-23281143D01*
X6611733Y-23252571D01*
X6602209Y-23233524D01*
X6592686Y-23204952D01*
X6583162Y-23157333D01*
X6583162Y-23119238D01*
X6592686Y-23071619D01*
X6602209Y-23043048D01*
X6611733Y-23024000D01*
X6630781Y-22995428D01*
X6640305Y-22985905D01*
X6706971Y-23033524D02*
X6716495Y-23024000D01*
X6735543Y-23014476D01*
X6783162Y-23014476D01*
X6802209Y-23024000D01*
X6811733Y-23033524D01*
X6821257Y-23052571D01*
X6821257Y-23071619D01*
X6811733Y-23100190D01*
X6697448Y-23214476D01*
X6821257Y-23214476D01*
X7059352Y-23214476D02*
X7059352Y-23014476D01*
X7145067Y-23214476D02*
X7145067Y-23109714D01*
X7135543Y-23090667D01*
X7116495Y-23081143D01*
X7087924Y-23081143D01*
X7068876Y-23090667D01*
X7059352Y-23100190D01*
X7268876Y-23214476D02*
X7249828Y-23204952D01*
X7240305Y-23195428D01*
X7230781Y-23176381D01*
X7230781Y-23119238D01*
X7240305Y-23100190D01*
X7249828Y-23090667D01*
X7268876Y-23081143D01*
X7297448Y-23081143D01*
X7316495Y-23090667D01*
X7326019Y-23100190D01*
X7335543Y-23119238D01*
X7335543Y-23176381D01*
X7326019Y-23195428D01*
X7316495Y-23204952D01*
X7297448Y-23214476D01*
X7268876Y-23214476D01*
X7449828Y-23214476D02*
X7430781Y-23204952D01*
X7421257Y-23185905D01*
X7421257Y-23014476D01*
X7602209Y-23204952D02*
X7583162Y-23214476D01*
X7545067Y-23214476D01*
X7526019Y-23204952D01*
X7516495Y-23185905D01*
X7516495Y-23109714D01*
X7526019Y-23090667D01*
X7545067Y-23081143D01*
X7583162Y-23081143D01*
X7602209Y-23090667D01*
X7611733Y-23109714D01*
X7611733Y-23128762D01*
X7516495Y-23147809D01*
X7687924Y-23204952D02*
X7706971Y-23214476D01*
X7745067Y-23214476D01*
X7764114Y-23204952D01*
X7773638Y-23185905D01*
X7773638Y-23176381D01*
X7764114Y-23157333D01*
X7745067Y-23147809D01*
X7716495Y-23147809D01*
X7697448Y-23138286D01*
X7687924Y-23119238D01*
X7687924Y-23109714D01*
X7697448Y-23090667D01*
X7716495Y-23081143D01*
X7745067Y-23081143D01*
X7764114Y-23090667D01*
X7840305Y-23290667D02*
X7849828Y-23281143D01*
X7868876Y-23252571D01*
X7878400Y-23233524D01*
X7887924Y-23204952D01*
X7897448Y-23157333D01*
X7897448Y-23119238D01*
X7887924Y-23071619D01*
X7878400Y-23043048D01*
X7868876Y-23024000D01*
X7849828Y-22995428D01*
X7840305Y-22985905D01*
X8202209Y-23290667D02*
X8192686Y-23281143D01*
X8173638Y-23252571D01*
X8164114Y-23233524D01*
X8154590Y-23204952D01*
X8145067Y-23157333D01*
X8145067Y-23119238D01*
X8154590Y-23071619D01*
X8164114Y-23043048D01*
X8173638Y-23024000D01*
X8192686Y-22995428D01*
X8202209Y-22985905D01*
X8278400Y-23081143D02*
X8278400Y-23214476D01*
X8278400Y-23100190D02*
X8287924Y-23090667D01*
X8306971Y-23081143D01*
X8335543Y-23081143D01*
X8354590Y-23090667D01*
X8364114Y-23109714D01*
X8364114Y-23214476D01*
X8487924Y-23214476D02*
X8468876Y-23204952D01*
X8459352Y-23195428D01*
X8449829Y-23176381D01*
X8449829Y-23119238D01*
X8459352Y-23100190D01*
X8468876Y-23090667D01*
X8487924Y-23081143D01*
X8516495Y-23081143D01*
X8535543Y-23090667D01*
X8545067Y-23100190D01*
X8554590Y-23119238D01*
X8554590Y-23176381D01*
X8545067Y-23195428D01*
X8535543Y-23204952D01*
X8516495Y-23214476D01*
X8487924Y-23214476D01*
X8611733Y-23081143D02*
X8687924Y-23081143D01*
X8640305Y-23014476D02*
X8640305Y-23185905D01*
X8649829Y-23204952D01*
X8668876Y-23214476D01*
X8687924Y-23214476D01*
X8906971Y-23081143D02*
X8906971Y-23281143D01*
X8906971Y-23090667D02*
X8926019Y-23081143D01*
X8964114Y-23081143D01*
X8983162Y-23090667D01*
X8992686Y-23100190D01*
X9002210Y-23119238D01*
X9002210Y-23176381D01*
X8992686Y-23195428D01*
X8983162Y-23204952D01*
X8964114Y-23214476D01*
X8926019Y-23214476D01*
X8906971Y-23204952D01*
X9116495Y-23214476D02*
X9097448Y-23204952D01*
X9087924Y-23185905D01*
X9087924Y-23014476D01*
X9278400Y-23214476D02*
X9278400Y-23109714D01*
X9268876Y-23090667D01*
X9249829Y-23081143D01*
X9211733Y-23081143D01*
X9192686Y-23090667D01*
X9278400Y-23204952D02*
X9259352Y-23214476D01*
X9211733Y-23214476D01*
X9192686Y-23204952D01*
X9183162Y-23185905D01*
X9183162Y-23166857D01*
X9192686Y-23147809D01*
X9211733Y-23138286D01*
X9259352Y-23138286D01*
X9278400Y-23128762D01*
X9345067Y-23081143D02*
X9421257Y-23081143D01*
X9373638Y-23014476D02*
X9373638Y-23185905D01*
X9383162Y-23204952D01*
X9402210Y-23214476D01*
X9421257Y-23214476D01*
X9564114Y-23204952D02*
X9545067Y-23214476D01*
X9506971Y-23214476D01*
X9487924Y-23204952D01*
X9478400Y-23185905D01*
X9478400Y-23109714D01*
X9487924Y-23090667D01*
X9506971Y-23081143D01*
X9545067Y-23081143D01*
X9564114Y-23090667D01*
X9573638Y-23109714D01*
X9573638Y-23128762D01*
X9478400Y-23147809D01*
X9745067Y-23214476D02*
X9745067Y-23014476D01*
X9745067Y-23204952D02*
X9726019Y-23214476D01*
X9687924Y-23214476D01*
X9668876Y-23204952D01*
X9659352Y-23195428D01*
X9649829Y-23176381D01*
X9649829Y-23119238D01*
X9659352Y-23100190D01*
X9668876Y-23090667D01*
X9687924Y-23081143D01*
X9726019Y-23081143D01*
X9745067Y-23090667D01*
X9821257Y-23290667D02*
X9830781Y-23281143D01*
X9849829Y-23252571D01*
X9859352Y-23233524D01*
X9868876Y-23204952D01*
X9878400Y-23157333D01*
X9878400Y-23119238D01*
X9868876Y-23071619D01*
X9859352Y-23043048D01*
X9849829Y-23024000D01*
X9830781Y-22995428D01*
X9821257Y-22985905D01*
D14*
X3068400Y-23388000D02*
G75*
G03*
X3068400Y-23388000I-57600J0D01*
G01*
D12*
X3430781Y-23478476D02*
X3316495Y-23478476D01*
X3373638Y-23478476D02*
X3373638Y-23278476D01*
X3354590Y-23307048D01*
X3335543Y-23326095D01*
X3316495Y-23335619D01*
X3516495Y-23459428D02*
X3526019Y-23468952D01*
X3516495Y-23478476D01*
X3506971Y-23468952D01*
X3516495Y-23459428D01*
X3516495Y-23478476D01*
X3716495Y-23478476D02*
X3602209Y-23478476D01*
X3659352Y-23478476D02*
X3659352Y-23278476D01*
X3640305Y-23307048D01*
X3621257Y-23326095D01*
X3602209Y-23335619D01*
X3897448Y-23278476D02*
X3802209Y-23278476D01*
X3792686Y-23373714D01*
X3802209Y-23364190D01*
X3821257Y-23354667D01*
X3868876Y-23354667D01*
X3887924Y-23364190D01*
X3897448Y-23373714D01*
X3906971Y-23392762D01*
X3906971Y-23440381D01*
X3897448Y-23459428D01*
X3887924Y-23468952D01*
X3868876Y-23478476D01*
X3821257Y-23478476D01*
X3802209Y-23468952D01*
X3792686Y-23459428D01*
X3983162Y-23297524D02*
X3992686Y-23288000D01*
X4011733Y-23278476D01*
X4059352Y-23278476D01*
X4078400Y-23288000D01*
X4087924Y-23297524D01*
X4097448Y-23316571D01*
X4097448Y-23335619D01*
X4087924Y-23364190D01*
X3973638Y-23478476D01*
X4097448Y-23478476D01*
X4183162Y-23478476D02*
X4183162Y-23345143D01*
X4183162Y-23364190D02*
X4192686Y-23354667D01*
X4211733Y-23345143D01*
X4240305Y-23345143D01*
X4259352Y-23354667D01*
X4268876Y-23373714D01*
X4268876Y-23478476D01*
X4268876Y-23373714D02*
X4278400Y-23354667D01*
X4297448Y-23345143D01*
X4326019Y-23345143D01*
X4345067Y-23354667D01*
X4354590Y-23373714D01*
X4354590Y-23478476D01*
X4449829Y-23478476D02*
X4449829Y-23345143D01*
X4449829Y-23364190D02*
X4459352Y-23354667D01*
X4478400Y-23345143D01*
X4506971Y-23345143D01*
X4526019Y-23354667D01*
X4535543Y-23373714D01*
X4535543Y-23478476D01*
X4535543Y-23373714D02*
X4545067Y-23354667D01*
X4564114Y-23345143D01*
X4592686Y-23345143D01*
X4611733Y-23354667D01*
X4621257Y-23373714D01*
X4621257Y-23478476D01*
X5011733Y-23268952D02*
X4840305Y-23526095D01*
X5268876Y-23278476D02*
X5287924Y-23278476D01*
X5306971Y-23288000D01*
X5316495Y-23297524D01*
X5326019Y-23316571D01*
X5335543Y-23354667D01*
X5335543Y-23402286D01*
X5326019Y-23440381D01*
X5316495Y-23459428D01*
X5306971Y-23468952D01*
X5287924Y-23478476D01*
X5268876Y-23478476D01*
X5249829Y-23468952D01*
X5240305Y-23459428D01*
X5230781Y-23440381D01*
X5221257Y-23402286D01*
X5221257Y-23354667D01*
X5230781Y-23316571D01*
X5240305Y-23297524D01*
X5249829Y-23288000D01*
X5268876Y-23278476D01*
X5421257Y-23459428D02*
X5430781Y-23468952D01*
X5421257Y-23478476D01*
X5411733Y-23468952D01*
X5421257Y-23459428D01*
X5421257Y-23478476D01*
X5554590Y-23278476D02*
X5573638Y-23278476D01*
X5592686Y-23288000D01*
X5602209Y-23297524D01*
X5611733Y-23316571D01*
X5621257Y-23354667D01*
X5621257Y-23402286D01*
X5611733Y-23440381D01*
X5602209Y-23459428D01*
X5592686Y-23468952D01*
X5573638Y-23478476D01*
X5554590Y-23478476D01*
X5535543Y-23468952D01*
X5526019Y-23459428D01*
X5516495Y-23440381D01*
X5506971Y-23402286D01*
X5506971Y-23354667D01*
X5516495Y-23316571D01*
X5526019Y-23297524D01*
X5535543Y-23288000D01*
X5554590Y-23278476D01*
X5792686Y-23345143D02*
X5792686Y-23478476D01*
X5745067Y-23268952D02*
X5697448Y-23411809D01*
X5821257Y-23411809D01*
X5992686Y-23278476D02*
X5897448Y-23278476D01*
X5887924Y-23373714D01*
X5897448Y-23364190D01*
X5916495Y-23354667D01*
X5964114Y-23354667D01*
X5983162Y-23364190D01*
X5992686Y-23373714D01*
X6002209Y-23392762D01*
X6002209Y-23440381D01*
X5992686Y-23459428D01*
X5983162Y-23468952D01*
X5964114Y-23478476D01*
X5916495Y-23478476D01*
X5897448Y-23468952D01*
X5887924Y-23459428D01*
X6173638Y-23345143D02*
X6173638Y-23478476D01*
X6126019Y-23268952D02*
X6078400Y-23411809D01*
X6202209Y-23411809D01*
X6268876Y-23278476D02*
X6268876Y-23316571D01*
X6345067Y-23278476D02*
X6345067Y-23316571D01*
X6640305Y-23554667D02*
X6630781Y-23545143D01*
X6611733Y-23516571D01*
X6602209Y-23497524D01*
X6592686Y-23468952D01*
X6583162Y-23421333D01*
X6583162Y-23383238D01*
X6592686Y-23335619D01*
X6602209Y-23307048D01*
X6611733Y-23288000D01*
X6630781Y-23259428D01*
X6640305Y-23249905D01*
X6802209Y-23345143D02*
X6802209Y-23478476D01*
X6754590Y-23268952D02*
X6706971Y-23411809D01*
X6830781Y-23411809D01*
X7059352Y-23478476D02*
X7059352Y-23278476D01*
X7145067Y-23478476D02*
X7145067Y-23373714D01*
X7135543Y-23354667D01*
X7116495Y-23345143D01*
X7087924Y-23345143D01*
X7068876Y-23354667D01*
X7059352Y-23364190D01*
X7268876Y-23478476D02*
X7249828Y-23468952D01*
X7240305Y-23459428D01*
X7230781Y-23440381D01*
X7230781Y-23383238D01*
X7240305Y-23364190D01*
X7249828Y-23354667D01*
X7268876Y-23345143D01*
X7297448Y-23345143D01*
X7316495Y-23354667D01*
X7326019Y-23364190D01*
X7335543Y-23383238D01*
X7335543Y-23440381D01*
X7326019Y-23459428D01*
X7316495Y-23468952D01*
X7297448Y-23478476D01*
X7268876Y-23478476D01*
X7449828Y-23478476D02*
X7430781Y-23468952D01*
X7421257Y-23449905D01*
X7421257Y-23278476D01*
X7602209Y-23468952D02*
X7583162Y-23478476D01*
X7545067Y-23478476D01*
X7526019Y-23468952D01*
X7516495Y-23449905D01*
X7516495Y-23373714D01*
X7526019Y-23354667D01*
X7545067Y-23345143D01*
X7583162Y-23345143D01*
X7602209Y-23354667D01*
X7611733Y-23373714D01*
X7611733Y-23392762D01*
X7516495Y-23411809D01*
X7687924Y-23468952D02*
X7706971Y-23478476D01*
X7745067Y-23478476D01*
X7764114Y-23468952D01*
X7773638Y-23449905D01*
X7773638Y-23440381D01*
X7764114Y-23421333D01*
X7745067Y-23411809D01*
X7716495Y-23411809D01*
X7697448Y-23402286D01*
X7687924Y-23383238D01*
X7687924Y-23373714D01*
X7697448Y-23354667D01*
X7716495Y-23345143D01*
X7745067Y-23345143D01*
X7764114Y-23354667D01*
X7840305Y-23554667D02*
X7849828Y-23545143D01*
X7868876Y-23516571D01*
X7878400Y-23497524D01*
X7887924Y-23468952D01*
X7897448Y-23421333D01*
X7897448Y-23383238D01*
X7887924Y-23335619D01*
X7878400Y-23307048D01*
X7868876Y-23288000D01*
X7849828Y-23259428D01*
X7840305Y-23249905D01*
X8202209Y-23554667D02*
X8192686Y-23545143D01*
X8173638Y-23516571D01*
X8164114Y-23497524D01*
X8154590Y-23468952D01*
X8145067Y-23421333D01*
X8145067Y-23383238D01*
X8154590Y-23335619D01*
X8164114Y-23307048D01*
X8173638Y-23288000D01*
X8192686Y-23259428D01*
X8202209Y-23249905D01*
X8278400Y-23345143D02*
X8278400Y-23478476D01*
X8278400Y-23364190D02*
X8287924Y-23354667D01*
X8306971Y-23345143D01*
X8335543Y-23345143D01*
X8354590Y-23354667D01*
X8364114Y-23373714D01*
X8364114Y-23478476D01*
X8487924Y-23478476D02*
X8468876Y-23468952D01*
X8459352Y-23459428D01*
X8449829Y-23440381D01*
X8449829Y-23383238D01*
X8459352Y-23364190D01*
X8468876Y-23354667D01*
X8487924Y-23345143D01*
X8516495Y-23345143D01*
X8535543Y-23354667D01*
X8545067Y-23364190D01*
X8554590Y-23383238D01*
X8554590Y-23440381D01*
X8545067Y-23459428D01*
X8535543Y-23468952D01*
X8516495Y-23478476D01*
X8487924Y-23478476D01*
X8611733Y-23345143D02*
X8687924Y-23345143D01*
X8640305Y-23278476D02*
X8640305Y-23449905D01*
X8649829Y-23468952D01*
X8668876Y-23478476D01*
X8687924Y-23478476D01*
X8906971Y-23345143D02*
X8906971Y-23545143D01*
X8906971Y-23354667D02*
X8926019Y-23345143D01*
X8964114Y-23345143D01*
X8983162Y-23354667D01*
X8992686Y-23364190D01*
X9002210Y-23383238D01*
X9002210Y-23440381D01*
X8992686Y-23459428D01*
X8983162Y-23468952D01*
X8964114Y-23478476D01*
X8926019Y-23478476D01*
X8906971Y-23468952D01*
X9116495Y-23478476D02*
X9097448Y-23468952D01*
X9087924Y-23449905D01*
X9087924Y-23278476D01*
X9278400Y-23478476D02*
X9278400Y-23373714D01*
X9268876Y-23354667D01*
X9249829Y-23345143D01*
X9211733Y-23345143D01*
X9192686Y-23354667D01*
X9278400Y-23468952D02*
X9259352Y-23478476D01*
X9211733Y-23478476D01*
X9192686Y-23468952D01*
X9183162Y-23449905D01*
X9183162Y-23430857D01*
X9192686Y-23411809D01*
X9211733Y-23402286D01*
X9259352Y-23402286D01*
X9278400Y-23392762D01*
X9345067Y-23345143D02*
X9421257Y-23345143D01*
X9373638Y-23278476D02*
X9373638Y-23449905D01*
X9383162Y-23468952D01*
X9402210Y-23478476D01*
X9421257Y-23478476D01*
X9564114Y-23468952D02*
X9545067Y-23478476D01*
X9506971Y-23478476D01*
X9487924Y-23468952D01*
X9478400Y-23449905D01*
X9478400Y-23373714D01*
X9487924Y-23354667D01*
X9506971Y-23345143D01*
X9545067Y-23345143D01*
X9564114Y-23354667D01*
X9573638Y-23373714D01*
X9573638Y-23392762D01*
X9478400Y-23411809D01*
X9745067Y-23478476D02*
X9745067Y-23278476D01*
X9745067Y-23468952D02*
X9726019Y-23478476D01*
X9687924Y-23478476D01*
X9668876Y-23468952D01*
X9659352Y-23459428D01*
X9649829Y-23440381D01*
X9649829Y-23383238D01*
X9659352Y-23364190D01*
X9668876Y-23354667D01*
X9687924Y-23345143D01*
X9726019Y-23345143D01*
X9745067Y-23354667D01*
X9821257Y-23554667D02*
X9830781Y-23545143D01*
X9849829Y-23516571D01*
X9859352Y-23497524D01*
X9868876Y-23468952D01*
X9878400Y-23421333D01*
X9878400Y-23383238D01*
X9868876Y-23335619D01*
X9859352Y-23307048D01*
X9849829Y-23288000D01*
X9830781Y-23259428D01*
X9821257Y-23249905D01*
D15*
X2983310Y-23566910D02*
X2983310Y-23737090D01*
X2898220Y-23652000D02*
X3068400Y-23652000D01*
D12*
X3430781Y-23742476D02*
X3316495Y-23742476D01*
X3373638Y-23742476D02*
X3373638Y-23542476D01*
X3354590Y-23571048D01*
X3335543Y-23590095D01*
X3316495Y-23599619D01*
X3516495Y-23723428D02*
X3526019Y-23732952D01*
X3516495Y-23742476D01*
X3506971Y-23732952D01*
X3516495Y-23723428D01*
X3516495Y-23742476D01*
X3592686Y-23542476D02*
X3726019Y-23542476D01*
X3640305Y-23742476D01*
X3840305Y-23542476D02*
X3859352Y-23542476D01*
X3878400Y-23552000D01*
X3887924Y-23561524D01*
X3897448Y-23580571D01*
X3906971Y-23618667D01*
X3906971Y-23666286D01*
X3897448Y-23704381D01*
X3887924Y-23723428D01*
X3878400Y-23732952D01*
X3859352Y-23742476D01*
X3840305Y-23742476D01*
X3821257Y-23732952D01*
X3811733Y-23723428D01*
X3802209Y-23704381D01*
X3792686Y-23666286D01*
X3792686Y-23618667D01*
X3802209Y-23580571D01*
X3811733Y-23561524D01*
X3821257Y-23552000D01*
X3840305Y-23542476D01*
X3983162Y-23561524D02*
X3992686Y-23552000D01*
X4011733Y-23542476D01*
X4059352Y-23542476D01*
X4078400Y-23552000D01*
X4087924Y-23561524D01*
X4097448Y-23580571D01*
X4097448Y-23599619D01*
X4087924Y-23628190D01*
X3973638Y-23742476D01*
X4097448Y-23742476D01*
X4183162Y-23742476D02*
X4183162Y-23609143D01*
X4183162Y-23628190D02*
X4192686Y-23618667D01*
X4211733Y-23609143D01*
X4240305Y-23609143D01*
X4259352Y-23618667D01*
X4268876Y-23637714D01*
X4268876Y-23742476D01*
X4268876Y-23637714D02*
X4278400Y-23618667D01*
X4297448Y-23609143D01*
X4326019Y-23609143D01*
X4345067Y-23618667D01*
X4354590Y-23637714D01*
X4354590Y-23742476D01*
X4449829Y-23742476D02*
X4449829Y-23609143D01*
X4449829Y-23628190D02*
X4459352Y-23618667D01*
X4478400Y-23609143D01*
X4506971Y-23609143D01*
X4526019Y-23618667D01*
X4535543Y-23637714D01*
X4535543Y-23742476D01*
X4535543Y-23637714D02*
X4545067Y-23618667D01*
X4564114Y-23609143D01*
X4592686Y-23609143D01*
X4611733Y-23618667D01*
X4621257Y-23637714D01*
X4621257Y-23742476D01*
X5011733Y-23532952D02*
X4840305Y-23790095D01*
X5268876Y-23542476D02*
X5287924Y-23542476D01*
X5306971Y-23552000D01*
X5316495Y-23561524D01*
X5326019Y-23580571D01*
X5335543Y-23618667D01*
X5335543Y-23666286D01*
X5326019Y-23704381D01*
X5316495Y-23723428D01*
X5306971Y-23732952D01*
X5287924Y-23742476D01*
X5268876Y-23742476D01*
X5249829Y-23732952D01*
X5240305Y-23723428D01*
X5230781Y-23704381D01*
X5221257Y-23666286D01*
X5221257Y-23618667D01*
X5230781Y-23580571D01*
X5240305Y-23561524D01*
X5249829Y-23552000D01*
X5268876Y-23542476D01*
X5421257Y-23723428D02*
X5430781Y-23732952D01*
X5421257Y-23742476D01*
X5411733Y-23732952D01*
X5421257Y-23723428D01*
X5421257Y-23742476D01*
X5554590Y-23542476D02*
X5573638Y-23542476D01*
X5592686Y-23552000D01*
X5602209Y-23561524D01*
X5611733Y-23580571D01*
X5621257Y-23618667D01*
X5621257Y-23666286D01*
X5611733Y-23704381D01*
X5602209Y-23723428D01*
X5592686Y-23732952D01*
X5573638Y-23742476D01*
X5554590Y-23742476D01*
X5535543Y-23732952D01*
X5526019Y-23723428D01*
X5516495Y-23704381D01*
X5506971Y-23666286D01*
X5506971Y-23618667D01*
X5516495Y-23580571D01*
X5526019Y-23561524D01*
X5535543Y-23552000D01*
X5554590Y-23542476D01*
X5792686Y-23542476D02*
X5754590Y-23542476D01*
X5735543Y-23552000D01*
X5726019Y-23561524D01*
X5706971Y-23590095D01*
X5697448Y-23628190D01*
X5697448Y-23704381D01*
X5706971Y-23723428D01*
X5716495Y-23732952D01*
X5735543Y-23742476D01*
X5773638Y-23742476D01*
X5792686Y-23732952D01*
X5802209Y-23723428D01*
X5811733Y-23704381D01*
X5811733Y-23656762D01*
X5802209Y-23637714D01*
X5792686Y-23628190D01*
X5773638Y-23618667D01*
X5735543Y-23618667D01*
X5716495Y-23628190D01*
X5706971Y-23637714D01*
X5697448Y-23656762D01*
X5878400Y-23542476D02*
X6011733Y-23542476D01*
X5926019Y-23742476D01*
X6126019Y-23542476D02*
X6145067Y-23542476D01*
X6164114Y-23552000D01*
X6173638Y-23561524D01*
X6183162Y-23580571D01*
X6192686Y-23618667D01*
X6192686Y-23666286D01*
X6183162Y-23704381D01*
X6173638Y-23723428D01*
X6164114Y-23732952D01*
X6145067Y-23742476D01*
X6126019Y-23742476D01*
X6106971Y-23732952D01*
X6097448Y-23723428D01*
X6087924Y-23704381D01*
X6078400Y-23666286D01*
X6078400Y-23618667D01*
X6087924Y-23580571D01*
X6097448Y-23561524D01*
X6106971Y-23552000D01*
X6126019Y-23542476D01*
X6268876Y-23542476D02*
X6268876Y-23580571D01*
X6345067Y-23542476D02*
X6345067Y-23580571D01*
X6640305Y-23818667D02*
X6630781Y-23809143D01*
X6611733Y-23780571D01*
X6602209Y-23761524D01*
X6592686Y-23732952D01*
X6583162Y-23685333D01*
X6583162Y-23647238D01*
X6592686Y-23599619D01*
X6602209Y-23571048D01*
X6611733Y-23552000D01*
X6630781Y-23523428D01*
X6640305Y-23513905D01*
X6706971Y-23561524D02*
X6716495Y-23552000D01*
X6735543Y-23542476D01*
X6783162Y-23542476D01*
X6802209Y-23552000D01*
X6811733Y-23561524D01*
X6821257Y-23580571D01*
X6821257Y-23599619D01*
X6811733Y-23628190D01*
X6697448Y-23742476D01*
X6821257Y-23742476D01*
X6992686Y-23609143D02*
X6992686Y-23742476D01*
X6945067Y-23532952D02*
X6897448Y-23675809D01*
X7021257Y-23675809D01*
X7183162Y-23609143D02*
X7183162Y-23742476D01*
X7135543Y-23532952D02*
X7087924Y-23675809D01*
X7211733Y-23675809D01*
X7440305Y-23742476D02*
X7440305Y-23542476D01*
X7526019Y-23742476D02*
X7526019Y-23637714D01*
X7516495Y-23618667D01*
X7497448Y-23609143D01*
X7468876Y-23609143D01*
X7449828Y-23618667D01*
X7440305Y-23628190D01*
X7649828Y-23742476D02*
X7630781Y-23732952D01*
X7621257Y-23723428D01*
X7611733Y-23704381D01*
X7611733Y-23647238D01*
X7621257Y-23628190D01*
X7630781Y-23618667D01*
X7649828Y-23609143D01*
X7678400Y-23609143D01*
X7697448Y-23618667D01*
X7706971Y-23628190D01*
X7716495Y-23647238D01*
X7716495Y-23704381D01*
X7706971Y-23723428D01*
X7697448Y-23732952D01*
X7678400Y-23742476D01*
X7649828Y-23742476D01*
X7830781Y-23742476D02*
X7811733Y-23732952D01*
X7802209Y-23713905D01*
X7802209Y-23542476D01*
X7983162Y-23732952D02*
X7964114Y-23742476D01*
X7926019Y-23742476D01*
X7906971Y-23732952D01*
X7897448Y-23713905D01*
X7897448Y-23637714D01*
X7906971Y-23618667D01*
X7926019Y-23609143D01*
X7964114Y-23609143D01*
X7983162Y-23618667D01*
X7992686Y-23637714D01*
X7992686Y-23656762D01*
X7897448Y-23675809D01*
X8068876Y-23732952D02*
X8087924Y-23742476D01*
X8126019Y-23742476D01*
X8145067Y-23732952D01*
X8154590Y-23713905D01*
X8154590Y-23704381D01*
X8145067Y-23685333D01*
X8126019Y-23675809D01*
X8097448Y-23675809D01*
X8078400Y-23666286D01*
X8068876Y-23647238D01*
X8068876Y-23637714D01*
X8078400Y-23618667D01*
X8097448Y-23609143D01*
X8126019Y-23609143D01*
X8145067Y-23618667D01*
X8221257Y-23818667D02*
X8230781Y-23809143D01*
X8249828Y-23780571D01*
X8259352Y-23761524D01*
X8268876Y-23732952D01*
X8278400Y-23685333D01*
X8278400Y-23647238D01*
X8268876Y-23599619D01*
X8259352Y-23571048D01*
X8249828Y-23552000D01*
X8230781Y-23523428D01*
X8221257Y-23513905D01*
X8583162Y-23818667D02*
X8573638Y-23809143D01*
X8554590Y-23780571D01*
X8545067Y-23761524D01*
X8535543Y-23732952D01*
X8526019Y-23685333D01*
X8526019Y-23647238D01*
X8535543Y-23599619D01*
X8545067Y-23571048D01*
X8554590Y-23552000D01*
X8573638Y-23523428D01*
X8583162Y-23513905D01*
X8659352Y-23609143D02*
X8659352Y-23742476D01*
X8659352Y-23628190D02*
X8668876Y-23618667D01*
X8687924Y-23609143D01*
X8716495Y-23609143D01*
X8735543Y-23618667D01*
X8745067Y-23637714D01*
X8745067Y-23742476D01*
X8868876Y-23742476D02*
X8849829Y-23732952D01*
X8840305Y-23723428D01*
X8830781Y-23704381D01*
X8830781Y-23647238D01*
X8840305Y-23628190D01*
X8849829Y-23618667D01*
X8868876Y-23609143D01*
X8897448Y-23609143D01*
X8916495Y-23618667D01*
X8926019Y-23628190D01*
X8935543Y-23647238D01*
X8935543Y-23704381D01*
X8926019Y-23723428D01*
X8916495Y-23732952D01*
X8897448Y-23742476D01*
X8868876Y-23742476D01*
X8992686Y-23609143D02*
X9068876Y-23609143D01*
X9021257Y-23542476D02*
X9021257Y-23713905D01*
X9030781Y-23732952D01*
X9049829Y-23742476D01*
X9068876Y-23742476D01*
X9287924Y-23609143D02*
X9287924Y-23809143D01*
X9287924Y-23618667D02*
X9306971Y-23609143D01*
X9345067Y-23609143D01*
X9364114Y-23618667D01*
X9373638Y-23628190D01*
X9383162Y-23647238D01*
X9383162Y-23704381D01*
X9373638Y-23723428D01*
X9364114Y-23732952D01*
X9345067Y-23742476D01*
X9306971Y-23742476D01*
X9287924Y-23732952D01*
X9497448Y-23742476D02*
X9478400Y-23732952D01*
X9468876Y-23713905D01*
X9468876Y-23542476D01*
X9659352Y-23742476D02*
X9659352Y-23637714D01*
X9649829Y-23618667D01*
X9630781Y-23609143D01*
X9592686Y-23609143D01*
X9573638Y-23618667D01*
X9659352Y-23732952D02*
X9640305Y-23742476D01*
X9592686Y-23742476D01*
X9573638Y-23732952D01*
X9564114Y-23713905D01*
X9564114Y-23694857D01*
X9573638Y-23675809D01*
X9592686Y-23666286D01*
X9640305Y-23666286D01*
X9659352Y-23656762D01*
X9726019Y-23609143D02*
X9802210Y-23609143D01*
X9754590Y-23542476D02*
X9754590Y-23713905D01*
X9764114Y-23732952D01*
X9783162Y-23742476D01*
X9802210Y-23742476D01*
X9945067Y-23732952D02*
X9926019Y-23742476D01*
X9887924Y-23742476D01*
X9868876Y-23732952D01*
X9859352Y-23713905D01*
X9859352Y-23637714D01*
X9868876Y-23618667D01*
X9887924Y-23609143D01*
X9926019Y-23609143D01*
X9945067Y-23618667D01*
X9954590Y-23637714D01*
X9954590Y-23656762D01*
X9859352Y-23675809D01*
X10126019Y-23742476D02*
X10126019Y-23542476D01*
X10126019Y-23732952D02*
X10106971Y-23742476D01*
X10068876Y-23742476D01*
X10049829Y-23732952D01*
X10040305Y-23723428D01*
X10030781Y-23704381D01*
X10030781Y-23647238D01*
X10040305Y-23628190D01*
X10049829Y-23618667D01*
X10068876Y-23609143D01*
X10106971Y-23609143D01*
X10126019Y-23618667D01*
X10202210Y-23818667D02*
X10211733Y-23809143D01*
X10230781Y-23780571D01*
X10240305Y-23761524D01*
X10249829Y-23732952D01*
X10259352Y-23685333D01*
X10259352Y-23647238D01*
X10249829Y-23599619D01*
X10240305Y-23571048D01*
X10230781Y-23552000D01*
X10211733Y-23523428D01*
X10202210Y-23513905D01*
X3039111Y-24012891D02*
X3039111Y-23871469D01*
X2897689Y-23871469D01*
X2897689Y-24012891D01*
X3039111Y-24012891D01*
X3306971Y-23832656D02*
X3430781Y-23832656D01*
X3364114Y-23908847D01*
X3392686Y-23908847D01*
X3411733Y-23918370D01*
X3421257Y-23927894D01*
X3430781Y-23946942D01*
X3430781Y-23994561D01*
X3421257Y-24013608D01*
X3411733Y-24023132D01*
X3392686Y-24032656D01*
X3335543Y-24032656D01*
X3316495Y-24023132D01*
X3306971Y-24013608D01*
X3516495Y-24013608D02*
X3526019Y-24023132D01*
X3516495Y-24032656D01*
X3506971Y-24023132D01*
X3516495Y-24013608D01*
X3516495Y-24032656D01*
X3649828Y-23832656D02*
X3668876Y-23832656D01*
X3687924Y-23842180D01*
X3697448Y-23851704D01*
X3706971Y-23870751D01*
X3716495Y-23908847D01*
X3716495Y-23956466D01*
X3706971Y-23994561D01*
X3697448Y-24013608D01*
X3687924Y-24023132D01*
X3668876Y-24032656D01*
X3649828Y-24032656D01*
X3630781Y-24023132D01*
X3621257Y-24013608D01*
X3611733Y-23994561D01*
X3602209Y-23956466D01*
X3602209Y-23908847D01*
X3611733Y-23870751D01*
X3621257Y-23851704D01*
X3630781Y-23842180D01*
X3649828Y-23832656D01*
X3887924Y-23899323D02*
X3887924Y-24032656D01*
X3840305Y-23823132D02*
X3792686Y-23965989D01*
X3916495Y-23965989D01*
X4021257Y-23918370D02*
X4002209Y-23908847D01*
X3992686Y-23899323D01*
X3983162Y-23880275D01*
X3983162Y-23870751D01*
X3992686Y-23851704D01*
X4002209Y-23842180D01*
X4021257Y-23832656D01*
X4059352Y-23832656D01*
X4078400Y-23842180D01*
X4087924Y-23851704D01*
X4097448Y-23870751D01*
X4097448Y-23880275D01*
X4087924Y-23899323D01*
X4078400Y-23908847D01*
X4059352Y-23918370D01*
X4021257Y-23918370D01*
X4002209Y-23927894D01*
X3992686Y-23937418D01*
X3983162Y-23956466D01*
X3983162Y-23994561D01*
X3992686Y-24013608D01*
X4002209Y-24023132D01*
X4021257Y-24032656D01*
X4059352Y-24032656D01*
X4078400Y-24023132D01*
X4087924Y-24013608D01*
X4097448Y-23994561D01*
X4097448Y-23956466D01*
X4087924Y-23937418D01*
X4078400Y-23927894D01*
X4059352Y-23918370D01*
X4183162Y-24032656D02*
X4183162Y-23899323D01*
X4183162Y-23918370D02*
X4192686Y-23908847D01*
X4211733Y-23899323D01*
X4240305Y-23899323D01*
X4259352Y-23908847D01*
X4268876Y-23927894D01*
X4268876Y-24032656D01*
X4268876Y-23927894D02*
X4278400Y-23908847D01*
X4297448Y-23899323D01*
X4326019Y-23899323D01*
X4345067Y-23908847D01*
X4354590Y-23927894D01*
X4354590Y-24032656D01*
X4449829Y-24032656D02*
X4449829Y-23899323D01*
X4449829Y-23918370D02*
X4459352Y-23908847D01*
X4478400Y-23899323D01*
X4506971Y-23899323D01*
X4526019Y-23908847D01*
X4535543Y-23927894D01*
X4535543Y-24032656D01*
X4535543Y-23927894D02*
X4545067Y-23908847D01*
X4564114Y-23899323D01*
X4592686Y-23899323D01*
X4611733Y-23908847D01*
X4621257Y-23927894D01*
X4621257Y-24032656D01*
X5011733Y-23823132D02*
X4840305Y-24080275D01*
X5268876Y-23832656D02*
X5287924Y-23832656D01*
X5306971Y-23842180D01*
X5316495Y-23851704D01*
X5326019Y-23870751D01*
X5335543Y-23908847D01*
X5335543Y-23956466D01*
X5326019Y-23994561D01*
X5316495Y-24013608D01*
X5306971Y-24023132D01*
X5287924Y-24032656D01*
X5268876Y-24032656D01*
X5249829Y-24023132D01*
X5240305Y-24013608D01*
X5230781Y-23994561D01*
X5221257Y-23956466D01*
X5221257Y-23908847D01*
X5230781Y-23870751D01*
X5240305Y-23851704D01*
X5249829Y-23842180D01*
X5268876Y-23832656D01*
X5421257Y-24013608D02*
X5430781Y-24023132D01*
X5421257Y-24032656D01*
X5411733Y-24023132D01*
X5421257Y-24013608D01*
X5421257Y-24032656D01*
X5621257Y-24032656D02*
X5506971Y-24032656D01*
X5564114Y-24032656D02*
X5564114Y-23832656D01*
X5545067Y-23861228D01*
X5526019Y-23880275D01*
X5506971Y-23889799D01*
X5697448Y-23851704D02*
X5706971Y-23842180D01*
X5726019Y-23832656D01*
X5773638Y-23832656D01*
X5792686Y-23842180D01*
X5802209Y-23851704D01*
X5811733Y-23870751D01*
X5811733Y-23889799D01*
X5802209Y-23918370D01*
X5687924Y-24032656D01*
X5811733Y-24032656D01*
X5935543Y-23832656D02*
X5954590Y-23832656D01*
X5973638Y-23842180D01*
X5983162Y-23851704D01*
X5992686Y-23870751D01*
X6002209Y-23908847D01*
X6002209Y-23956466D01*
X5992686Y-23994561D01*
X5983162Y-24013608D01*
X5973638Y-24023132D01*
X5954590Y-24032656D01*
X5935543Y-24032656D01*
X5916495Y-24023132D01*
X5906971Y-24013608D01*
X5897448Y-23994561D01*
X5887924Y-23956466D01*
X5887924Y-23908847D01*
X5897448Y-23870751D01*
X5906971Y-23851704D01*
X5916495Y-23842180D01*
X5935543Y-23832656D01*
X6126019Y-23832656D02*
X6145067Y-23832656D01*
X6164114Y-23842180D01*
X6173638Y-23851704D01*
X6183162Y-23870751D01*
X6192686Y-23908847D01*
X6192686Y-23956466D01*
X6183162Y-23994561D01*
X6173638Y-24013608D01*
X6164114Y-24023132D01*
X6145067Y-24032656D01*
X6126019Y-24032656D01*
X6106971Y-24023132D01*
X6097448Y-24013608D01*
X6087924Y-23994561D01*
X6078400Y-23956466D01*
X6078400Y-23908847D01*
X6087924Y-23870751D01*
X6097448Y-23851704D01*
X6106971Y-23842180D01*
X6126019Y-23832656D01*
X6268876Y-23832656D02*
X6268876Y-23870751D01*
X6345067Y-23832656D02*
X6345067Y-23870751D01*
X6640305Y-24108847D02*
X6630781Y-24099323D01*
X6611733Y-24070751D01*
X6602209Y-24051704D01*
X6592686Y-24023132D01*
X6583162Y-23975513D01*
X6583162Y-23937418D01*
X6592686Y-23889799D01*
X6602209Y-23861228D01*
X6611733Y-23842180D01*
X6630781Y-23813608D01*
X6640305Y-23804085D01*
X6821257Y-24032656D02*
X6706971Y-24032656D01*
X6764114Y-24032656D02*
X6764114Y-23832656D01*
X6745067Y-23861228D01*
X6726019Y-23880275D01*
X6706971Y-23889799D01*
X6992686Y-23899323D02*
X6992686Y-24032656D01*
X6945067Y-23823132D02*
X6897448Y-23965989D01*
X7021257Y-23965989D01*
X7249828Y-24032656D02*
X7249828Y-23832656D01*
X7335543Y-24032656D02*
X7335543Y-23927894D01*
X7326019Y-23908847D01*
X7306971Y-23899323D01*
X7278400Y-23899323D01*
X7259352Y-23908847D01*
X7249828Y-23918370D01*
X7459352Y-24032656D02*
X7440305Y-24023132D01*
X7430781Y-24013608D01*
X7421257Y-23994561D01*
X7421257Y-23937418D01*
X7430781Y-23918370D01*
X7440305Y-23908847D01*
X7459352Y-23899323D01*
X7487924Y-23899323D01*
X7506971Y-23908847D01*
X7516495Y-23918370D01*
X7526019Y-23937418D01*
X7526019Y-23994561D01*
X7516495Y-24013608D01*
X7506971Y-24023132D01*
X7487924Y-24032656D01*
X7459352Y-24032656D01*
X7640305Y-24032656D02*
X7621257Y-24023132D01*
X7611733Y-24004085D01*
X7611733Y-23832656D01*
X7792686Y-24023132D02*
X7773638Y-24032656D01*
X7735543Y-24032656D01*
X7716495Y-24023132D01*
X7706971Y-24004085D01*
X7706971Y-23927894D01*
X7716495Y-23908847D01*
X7735543Y-23899323D01*
X7773638Y-23899323D01*
X7792686Y-23908847D01*
X7802209Y-23927894D01*
X7802209Y-23946942D01*
X7706971Y-23965989D01*
X7878400Y-24023132D02*
X7897448Y-24032656D01*
X7935543Y-24032656D01*
X7954590Y-24023132D01*
X7964114Y-24004085D01*
X7964114Y-23994561D01*
X7954590Y-23975513D01*
X7935543Y-23965989D01*
X7906971Y-23965989D01*
X7887924Y-23956466D01*
X7878400Y-23937418D01*
X7878400Y-23927894D01*
X7887924Y-23908847D01*
X7906971Y-23899323D01*
X7935543Y-23899323D01*
X7954590Y-23908847D01*
X8030781Y-24108847D02*
X8040305Y-24099323D01*
X8059352Y-24070751D01*
X8068876Y-24051704D01*
X8078400Y-24023132D01*
X8087924Y-23975513D01*
X8087924Y-23937418D01*
X8078400Y-23889799D01*
X8068876Y-23861228D01*
X8059352Y-23842180D01*
X8040305Y-23813608D01*
X8030781Y-23804085D01*
X8392686Y-24108847D02*
X8383162Y-24099323D01*
X8364114Y-24070751D01*
X8354590Y-24051704D01*
X8345067Y-24023132D01*
X8335543Y-23975513D01*
X8335543Y-23937418D01*
X8345067Y-23889799D01*
X8354590Y-23861228D01*
X8364114Y-23842180D01*
X8383162Y-23813608D01*
X8392686Y-23804085D01*
X8468876Y-23899323D02*
X8468876Y-24032656D01*
X8468876Y-23918370D02*
X8478400Y-23908847D01*
X8497448Y-23899323D01*
X8526019Y-23899323D01*
X8545067Y-23908847D01*
X8554590Y-23927894D01*
X8554590Y-24032656D01*
X8678400Y-24032656D02*
X8659352Y-24023132D01*
X8649829Y-24013608D01*
X8640305Y-23994561D01*
X8640305Y-23937418D01*
X8649829Y-23918370D01*
X8659352Y-23908847D01*
X8678400Y-23899323D01*
X8706971Y-23899323D01*
X8726019Y-23908847D01*
X8735543Y-23918370D01*
X8745067Y-23937418D01*
X8745067Y-23994561D01*
X8735543Y-24013608D01*
X8726019Y-24023132D01*
X8706971Y-24032656D01*
X8678400Y-24032656D01*
X8802210Y-23899323D02*
X8878400Y-23899323D01*
X8830781Y-23832656D02*
X8830781Y-24004085D01*
X8840305Y-24023132D01*
X8859352Y-24032656D01*
X8878400Y-24032656D01*
X9097448Y-23899323D02*
X9097448Y-24099323D01*
X9097448Y-23908847D02*
X9116495Y-23899323D01*
X9154590Y-23899323D01*
X9173638Y-23908847D01*
X9183162Y-23918370D01*
X9192686Y-23937418D01*
X9192686Y-23994561D01*
X9183162Y-24013608D01*
X9173638Y-24023132D01*
X9154590Y-24032656D01*
X9116495Y-24032656D01*
X9097448Y-24023132D01*
X9306971Y-24032656D02*
X9287924Y-24023132D01*
X9278400Y-24004085D01*
X9278400Y-23832656D01*
X9468876Y-24032656D02*
X9468876Y-23927894D01*
X9459352Y-23908847D01*
X9440305Y-23899323D01*
X9402210Y-23899323D01*
X9383162Y-23908847D01*
X9468876Y-24023132D02*
X9449829Y-24032656D01*
X9402210Y-24032656D01*
X9383162Y-24023132D01*
X9373638Y-24004085D01*
X9373638Y-23985037D01*
X9383162Y-23965989D01*
X9402210Y-23956466D01*
X9449829Y-23956466D01*
X9468876Y-23946942D01*
X9535543Y-23899323D02*
X9611733Y-23899323D01*
X9564114Y-23832656D02*
X9564114Y-24004085D01*
X9573638Y-24023132D01*
X9592686Y-24032656D01*
X9611733Y-24032656D01*
X9754590Y-24023132D02*
X9735543Y-24032656D01*
X9697448Y-24032656D01*
X9678400Y-24023132D01*
X9668876Y-24004085D01*
X9668876Y-23927894D01*
X9678400Y-23908847D01*
X9697448Y-23899323D01*
X9735543Y-23899323D01*
X9754590Y-23908847D01*
X9764114Y-23927894D01*
X9764114Y-23946942D01*
X9668876Y-23965989D01*
X9935543Y-24032656D02*
X9935543Y-23832656D01*
X9935543Y-24023132D02*
X9916495Y-24032656D01*
X9878400Y-24032656D01*
X9859352Y-24023132D01*
X9849829Y-24013608D01*
X9840305Y-23994561D01*
X9840305Y-23937418D01*
X9849829Y-23918370D01*
X9859352Y-23908847D01*
X9878400Y-23899323D01*
X9916495Y-23899323D01*
X9935543Y-23908847D01*
X10011733Y-24108847D02*
X10021257Y-24099323D01*
X10040305Y-24070751D01*
X10049829Y-24051704D01*
X10059352Y-24023132D01*
X10068876Y-23975513D01*
X10068876Y-23937418D01*
X10059352Y-23889799D01*
X10049829Y-23861228D01*
X10040305Y-23842180D01*
X10021257Y-23813608D01*
X10011733Y-23804085D01*
X2968400Y-24362180D02*
X3068400Y-24262180D01*
X2968400Y-24162180D01*
X2868400Y-24262180D01*
X2968400Y-24362180D01*
X3306971Y-24152656D02*
X3430781Y-24152656D01*
X3364114Y-24228847D01*
X3392686Y-24228847D01*
X3411733Y-24238370D01*
X3421257Y-24247894D01*
X3430781Y-24266942D01*
X3430781Y-24314561D01*
X3421257Y-24333608D01*
X3411733Y-24343132D01*
X3392686Y-24352656D01*
X3335543Y-24352656D01*
X3316495Y-24343132D01*
X3306971Y-24333608D01*
X3516495Y-24333608D02*
X3526019Y-24343132D01*
X3516495Y-24352656D01*
X3506971Y-24343132D01*
X3516495Y-24333608D01*
X3516495Y-24352656D01*
X3621257Y-24352656D02*
X3659352Y-24352656D01*
X3678400Y-24343132D01*
X3687924Y-24333608D01*
X3706971Y-24305037D01*
X3716495Y-24266942D01*
X3716495Y-24190751D01*
X3706971Y-24171704D01*
X3697448Y-24162180D01*
X3678400Y-24152656D01*
X3640305Y-24152656D01*
X3621257Y-24162180D01*
X3611733Y-24171704D01*
X3602209Y-24190751D01*
X3602209Y-24238370D01*
X3611733Y-24257418D01*
X3621257Y-24266942D01*
X3640305Y-24276466D01*
X3678400Y-24276466D01*
X3697448Y-24266942D01*
X3706971Y-24257418D01*
X3716495Y-24238370D01*
X3830781Y-24238370D02*
X3811733Y-24228847D01*
X3802209Y-24219323D01*
X3792686Y-24200275D01*
X3792686Y-24190751D01*
X3802209Y-24171704D01*
X3811733Y-24162180D01*
X3830781Y-24152656D01*
X3868876Y-24152656D01*
X3887924Y-24162180D01*
X3897448Y-24171704D01*
X3906971Y-24190751D01*
X3906971Y-24200275D01*
X3897448Y-24219323D01*
X3887924Y-24228847D01*
X3868876Y-24238370D01*
X3830781Y-24238370D01*
X3811733Y-24247894D01*
X3802209Y-24257418D01*
X3792686Y-24276466D01*
X3792686Y-24314561D01*
X3802209Y-24333608D01*
X3811733Y-24343132D01*
X3830781Y-24352656D01*
X3868876Y-24352656D01*
X3887924Y-24343132D01*
X3897448Y-24333608D01*
X3906971Y-24314561D01*
X3906971Y-24276466D01*
X3897448Y-24257418D01*
X3887924Y-24247894D01*
X3868876Y-24238370D01*
X4021257Y-24238370D02*
X4002209Y-24228847D01*
X3992686Y-24219323D01*
X3983162Y-24200275D01*
X3983162Y-24190751D01*
X3992686Y-24171704D01*
X4002209Y-24162180D01*
X4021257Y-24152656D01*
X4059352Y-24152656D01*
X4078400Y-24162180D01*
X4087924Y-24171704D01*
X4097448Y-24190751D01*
X4097448Y-24200275D01*
X4087924Y-24219323D01*
X4078400Y-24228847D01*
X4059352Y-24238370D01*
X4021257Y-24238370D01*
X4002209Y-24247894D01*
X3992686Y-24257418D01*
X3983162Y-24276466D01*
X3983162Y-24314561D01*
X3992686Y-24333608D01*
X4002209Y-24343132D01*
X4021257Y-24352656D01*
X4059352Y-24352656D01*
X4078400Y-24343132D01*
X4087924Y-24333608D01*
X4097448Y-24314561D01*
X4097448Y-24276466D01*
X4087924Y-24257418D01*
X4078400Y-24247894D01*
X4059352Y-24238370D01*
X4183162Y-24352656D02*
X4183162Y-24219323D01*
X4183162Y-24238370D02*
X4192686Y-24228847D01*
X4211733Y-24219323D01*
X4240305Y-24219323D01*
X4259352Y-24228847D01*
X4268876Y-24247894D01*
X4268876Y-24352656D01*
X4268876Y-24247894D02*
X4278400Y-24228847D01*
X4297448Y-24219323D01*
X4326019Y-24219323D01*
X4345067Y-24228847D01*
X4354590Y-24247894D01*
X4354590Y-24352656D01*
X4449829Y-24352656D02*
X4449829Y-24219323D01*
X4449829Y-24238370D02*
X4459352Y-24228847D01*
X4478400Y-24219323D01*
X4506971Y-24219323D01*
X4526019Y-24228847D01*
X4535543Y-24247894D01*
X4535543Y-24352656D01*
X4535543Y-24247894D02*
X4545067Y-24228847D01*
X4564114Y-24219323D01*
X4592686Y-24219323D01*
X4611733Y-24228847D01*
X4621257Y-24247894D01*
X4621257Y-24352656D01*
X5011733Y-24143132D02*
X4840305Y-24400275D01*
X5268876Y-24152656D02*
X5287924Y-24152656D01*
X5306971Y-24162180D01*
X5316495Y-24171704D01*
X5326019Y-24190751D01*
X5335543Y-24228847D01*
X5335543Y-24276466D01*
X5326019Y-24314561D01*
X5316495Y-24333608D01*
X5306971Y-24343132D01*
X5287924Y-24352656D01*
X5268876Y-24352656D01*
X5249829Y-24343132D01*
X5240305Y-24333608D01*
X5230781Y-24314561D01*
X5221257Y-24276466D01*
X5221257Y-24228847D01*
X5230781Y-24190751D01*
X5240305Y-24171704D01*
X5249829Y-24162180D01*
X5268876Y-24152656D01*
X5421257Y-24333608D02*
X5430781Y-24343132D01*
X5421257Y-24352656D01*
X5411733Y-24343132D01*
X5421257Y-24333608D01*
X5421257Y-24352656D01*
X5621257Y-24352656D02*
X5506971Y-24352656D01*
X5564114Y-24352656D02*
X5564114Y-24152656D01*
X5545067Y-24181228D01*
X5526019Y-24200275D01*
X5506971Y-24209799D01*
X5802209Y-24152656D02*
X5706971Y-24152656D01*
X5697448Y-24247894D01*
X5706971Y-24238370D01*
X5726019Y-24228847D01*
X5773638Y-24228847D01*
X5792686Y-24238370D01*
X5802209Y-24247894D01*
X5811733Y-24266942D01*
X5811733Y-24314561D01*
X5802209Y-24333608D01*
X5792686Y-24343132D01*
X5773638Y-24352656D01*
X5726019Y-24352656D01*
X5706971Y-24343132D01*
X5697448Y-24333608D01*
X5878400Y-24152656D02*
X6011733Y-24152656D01*
X5926019Y-24352656D01*
X6126019Y-24152656D02*
X6145067Y-24152656D01*
X6164114Y-24162180D01*
X6173638Y-24171704D01*
X6183162Y-24190751D01*
X6192686Y-24228847D01*
X6192686Y-24276466D01*
X6183162Y-24314561D01*
X6173638Y-24333608D01*
X6164114Y-24343132D01*
X6145067Y-24352656D01*
X6126019Y-24352656D01*
X6106971Y-24343132D01*
X6097448Y-24333608D01*
X6087924Y-24314561D01*
X6078400Y-24276466D01*
X6078400Y-24228847D01*
X6087924Y-24190751D01*
X6097448Y-24171704D01*
X6106971Y-24162180D01*
X6126019Y-24152656D01*
X6268876Y-24152656D02*
X6268876Y-24190751D01*
X6345067Y-24152656D02*
X6345067Y-24190751D01*
X6640305Y-24428847D02*
X6630781Y-24419323D01*
X6611733Y-24390751D01*
X6602209Y-24371704D01*
X6592686Y-24343132D01*
X6583162Y-24295513D01*
X6583162Y-24257418D01*
X6592686Y-24209799D01*
X6602209Y-24181228D01*
X6611733Y-24162180D01*
X6630781Y-24133608D01*
X6640305Y-24124085D01*
X6821257Y-24352656D02*
X6706971Y-24352656D01*
X6764114Y-24352656D02*
X6764114Y-24152656D01*
X6745067Y-24181228D01*
X6726019Y-24200275D01*
X6706971Y-24209799D01*
X6887924Y-24152656D02*
X7011733Y-24152656D01*
X6945067Y-24228847D01*
X6973638Y-24228847D01*
X6992686Y-24238370D01*
X7002209Y-24247894D01*
X7011733Y-24266942D01*
X7011733Y-24314561D01*
X7002209Y-24333608D01*
X6992686Y-24343132D01*
X6973638Y-24352656D01*
X6916495Y-24352656D01*
X6897448Y-24343132D01*
X6887924Y-24333608D01*
X7183162Y-24152656D02*
X7145067Y-24152656D01*
X7126019Y-24162180D01*
X7116495Y-24171704D01*
X7097448Y-24200275D01*
X7087924Y-24238370D01*
X7087924Y-24314561D01*
X7097448Y-24333608D01*
X7106971Y-24343132D01*
X7126019Y-24352656D01*
X7164114Y-24352656D01*
X7183162Y-24343132D01*
X7192686Y-24333608D01*
X7202209Y-24314561D01*
X7202209Y-24266942D01*
X7192686Y-24247894D01*
X7183162Y-24238370D01*
X7164114Y-24228847D01*
X7126019Y-24228847D01*
X7106971Y-24238370D01*
X7097448Y-24247894D01*
X7087924Y-24266942D01*
X7440305Y-24352656D02*
X7440305Y-24152656D01*
X7526019Y-24352656D02*
X7526019Y-24247894D01*
X7516495Y-24228847D01*
X7497448Y-24219323D01*
X7468876Y-24219323D01*
X7449828Y-24228847D01*
X7440305Y-24238370D01*
X7649828Y-24352656D02*
X7630781Y-24343132D01*
X7621257Y-24333608D01*
X7611733Y-24314561D01*
X7611733Y-24257418D01*
X7621257Y-24238370D01*
X7630781Y-24228847D01*
X7649828Y-24219323D01*
X7678400Y-24219323D01*
X7697448Y-24228847D01*
X7706971Y-24238370D01*
X7716495Y-24257418D01*
X7716495Y-24314561D01*
X7706971Y-24333608D01*
X7697448Y-24343132D01*
X7678400Y-24352656D01*
X7649828Y-24352656D01*
X7830781Y-24352656D02*
X7811733Y-24343132D01*
X7802209Y-24324085D01*
X7802209Y-24152656D01*
X7983162Y-24343132D02*
X7964114Y-24352656D01*
X7926019Y-24352656D01*
X7906971Y-24343132D01*
X7897448Y-24324085D01*
X7897448Y-24247894D01*
X7906971Y-24228847D01*
X7926019Y-24219323D01*
X7964114Y-24219323D01*
X7983162Y-24228847D01*
X7992686Y-24247894D01*
X7992686Y-24266942D01*
X7897448Y-24285989D01*
X8068876Y-24343132D02*
X8087924Y-24352656D01*
X8126019Y-24352656D01*
X8145067Y-24343132D01*
X8154590Y-24324085D01*
X8154590Y-24314561D01*
X8145067Y-24295513D01*
X8126019Y-24285989D01*
X8097448Y-24285989D01*
X8078400Y-24276466D01*
X8068876Y-24257418D01*
X8068876Y-24247894D01*
X8078400Y-24228847D01*
X8097448Y-24219323D01*
X8126019Y-24219323D01*
X8145067Y-24228847D01*
X8221257Y-24428847D02*
X8230781Y-24419323D01*
X8249828Y-24390751D01*
X8259352Y-24371704D01*
X8268876Y-24343132D01*
X8278400Y-24295513D01*
X8278400Y-24257418D01*
X8268876Y-24209799D01*
X8259352Y-24181228D01*
X8249828Y-24162180D01*
X8230781Y-24133608D01*
X8221257Y-24124085D01*
X8583162Y-24428847D02*
X8573638Y-24419323D01*
X8554590Y-24390751D01*
X8545067Y-24371704D01*
X8535543Y-24343132D01*
X8526019Y-24295513D01*
X8526019Y-24257418D01*
X8535543Y-24209799D01*
X8545067Y-24181228D01*
X8554590Y-24162180D01*
X8573638Y-24133608D01*
X8583162Y-24124085D01*
X8659352Y-24219323D02*
X8659352Y-24352656D01*
X8659352Y-24238370D02*
X8668876Y-24228847D01*
X8687924Y-24219323D01*
X8716495Y-24219323D01*
X8735543Y-24228847D01*
X8745067Y-24247894D01*
X8745067Y-24352656D01*
X8868876Y-24352656D02*
X8849829Y-24343132D01*
X8840305Y-24333608D01*
X8830781Y-24314561D01*
X8830781Y-24257418D01*
X8840305Y-24238370D01*
X8849829Y-24228847D01*
X8868876Y-24219323D01*
X8897448Y-24219323D01*
X8916495Y-24228847D01*
X8926019Y-24238370D01*
X8935543Y-24257418D01*
X8935543Y-24314561D01*
X8926019Y-24333608D01*
X8916495Y-24343132D01*
X8897448Y-24352656D01*
X8868876Y-24352656D01*
X8992686Y-24219323D02*
X9068876Y-24219323D01*
X9021257Y-24152656D02*
X9021257Y-24324085D01*
X9030781Y-24343132D01*
X9049829Y-24352656D01*
X9068876Y-24352656D01*
X9287924Y-24219323D02*
X9287924Y-24419323D01*
X9287924Y-24228847D02*
X9306971Y-24219323D01*
X9345067Y-24219323D01*
X9364114Y-24228847D01*
X9373638Y-24238370D01*
X9383162Y-24257418D01*
X9383162Y-24314561D01*
X9373638Y-24333608D01*
X9364114Y-24343132D01*
X9345067Y-24352656D01*
X9306971Y-24352656D01*
X9287924Y-24343132D01*
X9497448Y-24352656D02*
X9478400Y-24343132D01*
X9468876Y-24324085D01*
X9468876Y-24152656D01*
X9659352Y-24352656D02*
X9659352Y-24247894D01*
X9649829Y-24228847D01*
X9630781Y-24219323D01*
X9592686Y-24219323D01*
X9573638Y-24228847D01*
X9659352Y-24343132D02*
X9640305Y-24352656D01*
X9592686Y-24352656D01*
X9573638Y-24343132D01*
X9564114Y-24324085D01*
X9564114Y-24305037D01*
X9573638Y-24285989D01*
X9592686Y-24276466D01*
X9640305Y-24276466D01*
X9659352Y-24266942D01*
X9726019Y-24219323D02*
X9802210Y-24219323D01*
X9754590Y-24152656D02*
X9754590Y-24324085D01*
X9764114Y-24343132D01*
X9783162Y-24352656D01*
X9802210Y-24352656D01*
X9945067Y-24343132D02*
X9926019Y-24352656D01*
X9887924Y-24352656D01*
X9868876Y-24343132D01*
X9859352Y-24324085D01*
X9859352Y-24247894D01*
X9868876Y-24228847D01*
X9887924Y-24219323D01*
X9926019Y-24219323D01*
X9945067Y-24228847D01*
X9954590Y-24247894D01*
X9954590Y-24266942D01*
X9859352Y-24285989D01*
X10126019Y-24352656D02*
X10126019Y-24152656D01*
X10126019Y-24343132D02*
X10106971Y-24352656D01*
X10068876Y-24352656D01*
X10049829Y-24343132D01*
X10040305Y-24333608D01*
X10030781Y-24314561D01*
X10030781Y-24257418D01*
X10040305Y-24238370D01*
X10049829Y-24228847D01*
X10068876Y-24219323D01*
X10106971Y-24219323D01*
X10126019Y-24228847D01*
X10202210Y-24428847D02*
X10211733Y-24419323D01*
X10230781Y-24390751D01*
X10240305Y-24371704D01*
X10249829Y-24343132D01*
X10259352Y-24295513D01*
X10259352Y-24257418D01*
X10249829Y-24209799D01*
X10240305Y-24181228D01*
X10230781Y-24162180D01*
X10211733Y-24133608D01*
X10202210Y-24124085D01*
X2868400Y-24482180D02*
X3068400Y-24682180D01*
X3068400Y-24482180D02*
X2868400Y-24682180D01*
X3068400Y-24582180D02*
G75*
G03*
X3068400Y-24582180I-100000J0D01*
G01*
X3411733Y-24539323D02*
X3411733Y-24672656D01*
X3364114Y-24463132D02*
X3316495Y-24605989D01*
X3440305Y-24605989D01*
X3516495Y-24653608D02*
X3526019Y-24663132D01*
X3516495Y-24672656D01*
X3506971Y-24663132D01*
X3516495Y-24653608D01*
X3516495Y-24672656D01*
X3602209Y-24491704D02*
X3611733Y-24482180D01*
X3630781Y-24472656D01*
X3678400Y-24472656D01*
X3697448Y-24482180D01*
X3706971Y-24491704D01*
X3716495Y-24510751D01*
X3716495Y-24529799D01*
X3706971Y-24558370D01*
X3592686Y-24672656D01*
X3716495Y-24672656D01*
X3897448Y-24472656D02*
X3802209Y-24472656D01*
X3792686Y-24567894D01*
X3802209Y-24558370D01*
X3821257Y-24548847D01*
X3868876Y-24548847D01*
X3887924Y-24558370D01*
X3897448Y-24567894D01*
X3906971Y-24586942D01*
X3906971Y-24634561D01*
X3897448Y-24653608D01*
X3887924Y-24663132D01*
X3868876Y-24672656D01*
X3821257Y-24672656D01*
X3802209Y-24663132D01*
X3792686Y-24653608D01*
X4030781Y-24472656D02*
X4049828Y-24472656D01*
X4068876Y-24482180D01*
X4078400Y-24491704D01*
X4087924Y-24510751D01*
X4097448Y-24548847D01*
X4097448Y-24596466D01*
X4087924Y-24634561D01*
X4078400Y-24653608D01*
X4068876Y-24663132D01*
X4049828Y-24672656D01*
X4030781Y-24672656D01*
X4011733Y-24663132D01*
X4002209Y-24653608D01*
X3992686Y-24634561D01*
X3983162Y-24596466D01*
X3983162Y-24548847D01*
X3992686Y-24510751D01*
X4002209Y-24491704D01*
X4011733Y-24482180D01*
X4030781Y-24472656D01*
X4183162Y-24672656D02*
X4183162Y-24539323D01*
X4183162Y-24558370D02*
X4192686Y-24548847D01*
X4211733Y-24539323D01*
X4240305Y-24539323D01*
X4259352Y-24548847D01*
X4268876Y-24567894D01*
X4268876Y-24672656D01*
X4268876Y-24567894D02*
X4278400Y-24548847D01*
X4297448Y-24539323D01*
X4326019Y-24539323D01*
X4345067Y-24548847D01*
X4354590Y-24567894D01*
X4354590Y-24672656D01*
X4449829Y-24672656D02*
X4449829Y-24539323D01*
X4449829Y-24558370D02*
X4459352Y-24548847D01*
X4478400Y-24539323D01*
X4506971Y-24539323D01*
X4526019Y-24548847D01*
X4535543Y-24567894D01*
X4535543Y-24672656D01*
X4535543Y-24567894D02*
X4545067Y-24548847D01*
X4564114Y-24539323D01*
X4592686Y-24539323D01*
X4611733Y-24548847D01*
X4621257Y-24567894D01*
X4621257Y-24672656D01*
X5011733Y-24463132D02*
X4840305Y-24720275D01*
X5268876Y-24472656D02*
X5287924Y-24472656D01*
X5306971Y-24482180D01*
X5316495Y-24491704D01*
X5326019Y-24510751D01*
X5335543Y-24548847D01*
X5335543Y-24596466D01*
X5326019Y-24634561D01*
X5316495Y-24653608D01*
X5306971Y-24663132D01*
X5287924Y-24672656D01*
X5268876Y-24672656D01*
X5249829Y-24663132D01*
X5240305Y-24653608D01*
X5230781Y-24634561D01*
X5221257Y-24596466D01*
X5221257Y-24548847D01*
X5230781Y-24510751D01*
X5240305Y-24491704D01*
X5249829Y-24482180D01*
X5268876Y-24472656D01*
X5421257Y-24653608D02*
X5430781Y-24663132D01*
X5421257Y-24672656D01*
X5411733Y-24663132D01*
X5421257Y-24653608D01*
X5421257Y-24672656D01*
X5621257Y-24672656D02*
X5506971Y-24672656D01*
X5564114Y-24672656D02*
X5564114Y-24472656D01*
X5545067Y-24501228D01*
X5526019Y-24520275D01*
X5506971Y-24529799D01*
X5792686Y-24472656D02*
X5754590Y-24472656D01*
X5735543Y-24482180D01*
X5726019Y-24491704D01*
X5706971Y-24520275D01*
X5697448Y-24558370D01*
X5697448Y-24634561D01*
X5706971Y-24653608D01*
X5716495Y-24663132D01*
X5735543Y-24672656D01*
X5773638Y-24672656D01*
X5792686Y-24663132D01*
X5802209Y-24653608D01*
X5811733Y-24634561D01*
X5811733Y-24586942D01*
X5802209Y-24567894D01*
X5792686Y-24558370D01*
X5773638Y-24548847D01*
X5735543Y-24548847D01*
X5716495Y-24558370D01*
X5706971Y-24567894D01*
X5697448Y-24586942D01*
X5878400Y-24472656D02*
X6011733Y-24472656D01*
X5926019Y-24672656D01*
X6068876Y-24472656D02*
X6192686Y-24472656D01*
X6126019Y-24548847D01*
X6154590Y-24548847D01*
X6173638Y-24558370D01*
X6183162Y-24567894D01*
X6192686Y-24586942D01*
X6192686Y-24634561D01*
X6183162Y-24653608D01*
X6173638Y-24663132D01*
X6154590Y-24672656D01*
X6097448Y-24672656D01*
X6078400Y-24663132D01*
X6068876Y-24653608D01*
X6268876Y-24472656D02*
X6268876Y-24510751D01*
X6345067Y-24472656D02*
X6345067Y-24510751D01*
X6640305Y-24748847D02*
X6630781Y-24739323D01*
X6611733Y-24710751D01*
X6602209Y-24691704D01*
X6592686Y-24663132D01*
X6583162Y-24615513D01*
X6583162Y-24577418D01*
X6592686Y-24529799D01*
X6602209Y-24501228D01*
X6611733Y-24482180D01*
X6630781Y-24453608D01*
X6640305Y-24444085D01*
X6821257Y-24672656D02*
X6706971Y-24672656D01*
X6764114Y-24672656D02*
X6764114Y-24472656D01*
X6745067Y-24501228D01*
X6726019Y-24520275D01*
X6706971Y-24529799D01*
X6897448Y-24491704D02*
X6906971Y-24482180D01*
X6926019Y-24472656D01*
X6973638Y-24472656D01*
X6992686Y-24482180D01*
X7002209Y-24491704D01*
X7011733Y-24510751D01*
X7011733Y-24529799D01*
X7002209Y-24558370D01*
X6887924Y-24672656D01*
X7011733Y-24672656D01*
X7183162Y-24539323D02*
X7183162Y-24672656D01*
X7135543Y-24463132D02*
X7087924Y-24605989D01*
X7211733Y-24605989D01*
X7440305Y-24672656D02*
X7440305Y-24472656D01*
X7526019Y-24672656D02*
X7526019Y-24567894D01*
X7516495Y-24548847D01*
X7497448Y-24539323D01*
X7468876Y-24539323D01*
X7449828Y-24548847D01*
X7440305Y-24558370D01*
X7649828Y-24672656D02*
X7630781Y-24663132D01*
X7621257Y-24653608D01*
X7611733Y-24634561D01*
X7611733Y-24577418D01*
X7621257Y-24558370D01*
X7630781Y-24548847D01*
X7649828Y-24539323D01*
X7678400Y-24539323D01*
X7697448Y-24548847D01*
X7706971Y-24558370D01*
X7716495Y-24577418D01*
X7716495Y-24634561D01*
X7706971Y-24653608D01*
X7697448Y-24663132D01*
X7678400Y-24672656D01*
X7649828Y-24672656D01*
X7830781Y-24672656D02*
X7811733Y-24663132D01*
X7802209Y-24644085D01*
X7802209Y-24472656D01*
X7983162Y-24663132D02*
X7964114Y-24672656D01*
X7926019Y-24672656D01*
X7906971Y-24663132D01*
X7897448Y-24644085D01*
X7897448Y-24567894D01*
X7906971Y-24548847D01*
X7926019Y-24539323D01*
X7964114Y-24539323D01*
X7983162Y-24548847D01*
X7992686Y-24567894D01*
X7992686Y-24586942D01*
X7897448Y-24605989D01*
X8068876Y-24663132D02*
X8087924Y-24672656D01*
X8126019Y-24672656D01*
X8145067Y-24663132D01*
X8154590Y-24644085D01*
X8154590Y-24634561D01*
X8145067Y-24615513D01*
X8126019Y-24605989D01*
X8097448Y-24605989D01*
X8078400Y-24596466D01*
X8068876Y-24577418D01*
X8068876Y-24567894D01*
X8078400Y-24548847D01*
X8097448Y-24539323D01*
X8126019Y-24539323D01*
X8145067Y-24548847D01*
X8221257Y-24748847D02*
X8230781Y-24739323D01*
X8249828Y-24710751D01*
X8259352Y-24691704D01*
X8268876Y-24663132D01*
X8278400Y-24615513D01*
X8278400Y-24577418D01*
X8268876Y-24529799D01*
X8259352Y-24501228D01*
X8249828Y-24482180D01*
X8230781Y-24453608D01*
X8221257Y-24444085D01*
X8583162Y-24748847D02*
X8573638Y-24739323D01*
X8554590Y-24710751D01*
X8545067Y-24691704D01*
X8535543Y-24663132D01*
X8526019Y-24615513D01*
X8526019Y-24577418D01*
X8535543Y-24529799D01*
X8545067Y-24501228D01*
X8554590Y-24482180D01*
X8573638Y-24453608D01*
X8583162Y-24444085D01*
X8659352Y-24539323D02*
X8659352Y-24672656D01*
X8659352Y-24558370D02*
X8668876Y-24548847D01*
X8687924Y-24539323D01*
X8716495Y-24539323D01*
X8735543Y-24548847D01*
X8745067Y-24567894D01*
X8745067Y-24672656D01*
X8868876Y-24672656D02*
X8849829Y-24663132D01*
X8840305Y-24653608D01*
X8830781Y-24634561D01*
X8830781Y-24577418D01*
X8840305Y-24558370D01*
X8849829Y-24548847D01*
X8868876Y-24539323D01*
X8897448Y-24539323D01*
X8916495Y-24548847D01*
X8926019Y-24558370D01*
X8935543Y-24577418D01*
X8935543Y-24634561D01*
X8926019Y-24653608D01*
X8916495Y-24663132D01*
X8897448Y-24672656D01*
X8868876Y-24672656D01*
X8992686Y-24539323D02*
X9068876Y-24539323D01*
X9021257Y-24472656D02*
X9021257Y-24644085D01*
X9030781Y-24663132D01*
X9049829Y-24672656D01*
X9068876Y-24672656D01*
X9287924Y-24539323D02*
X9287924Y-24739323D01*
X9287924Y-24548847D02*
X9306971Y-24539323D01*
X9345067Y-24539323D01*
X9364114Y-24548847D01*
X9373638Y-24558370D01*
X9383162Y-24577418D01*
X9383162Y-24634561D01*
X9373638Y-24653608D01*
X9364114Y-24663132D01*
X9345067Y-24672656D01*
X9306971Y-24672656D01*
X9287924Y-24663132D01*
X9497448Y-24672656D02*
X9478400Y-24663132D01*
X9468876Y-24644085D01*
X9468876Y-24472656D01*
X9659352Y-24672656D02*
X9659352Y-24567894D01*
X9649829Y-24548847D01*
X9630781Y-24539323D01*
X9592686Y-24539323D01*
X9573638Y-24548847D01*
X9659352Y-24663132D02*
X9640305Y-24672656D01*
X9592686Y-24672656D01*
X9573638Y-24663132D01*
X9564114Y-24644085D01*
X9564114Y-24625037D01*
X9573638Y-24605989D01*
X9592686Y-24596466D01*
X9640305Y-24596466D01*
X9659352Y-24586942D01*
X9726019Y-24539323D02*
X9802210Y-24539323D01*
X9754590Y-24472656D02*
X9754590Y-24644085D01*
X9764114Y-24663132D01*
X9783162Y-24672656D01*
X9802210Y-24672656D01*
X9945067Y-24663132D02*
X9926019Y-24672656D01*
X9887924Y-24672656D01*
X9868876Y-24663132D01*
X9859352Y-24644085D01*
X9859352Y-24567894D01*
X9868876Y-24548847D01*
X9887924Y-24539323D01*
X9926019Y-24539323D01*
X9945067Y-24548847D01*
X9954590Y-24567894D01*
X9954590Y-24586942D01*
X9859352Y-24605989D01*
X10126019Y-24672656D02*
X10126019Y-24472656D01*
X10126019Y-24663132D02*
X10106971Y-24672656D01*
X10068876Y-24672656D01*
X10049829Y-24663132D01*
X10040305Y-24653608D01*
X10030781Y-24634561D01*
X10030781Y-24577418D01*
X10040305Y-24558370D01*
X10049829Y-24548847D01*
X10068876Y-24539323D01*
X10106971Y-24539323D01*
X10126019Y-24548847D01*
X10202210Y-24748847D02*
X10211733Y-24739323D01*
X10230781Y-24710751D01*
X10240305Y-24691704D01*
X10249829Y-24663132D01*
X10259352Y-24615513D01*
X10259352Y-24577418D01*
X10249829Y-24529799D01*
X10240305Y-24501228D01*
X10230781Y-24482180D01*
X10211733Y-24453608D01*
X10202210Y-24444085D01*
M02*
