M48
; DRILL file {KiCad (6.0.0-rc1-458-g78ff9a857a)} date Sun Dec  4 21:39:19 2022
; FORMAT={-:-/ absolute / metric / decimal}
; #@! TF.CreationDate,2022-12-04T21:39:19+01:00
; #@! TF.GenerationSoftware,Kicad,Pcbnew,(6.0.0-rc1-458-g78ff9a857a)
; #@! TF.FileFunction,NonPlated,1,2,NPTH
FMAT,2
METRIC
; #@! TA.AperFunction,NonPlated,NPTH,ComponentDrill
T1C0.650
; #@! TA.AperFunction,NonPlated,NPTH,ComponentDrill
T2C1.152
; #@! TA.AperFunction,NonPlated,NPTH,ComponentDrill
T3C1.702
; #@! TA.AperFunction,NonPlated,NPTH,ComponentDrill
T4C3.048
; #@! TA.AperFunction,NonPlated,NPTH,ComponentDrill
T5C3.988
; #@! TA.AperFunction,NonPlated,NPTH,ComponentDrill
T6C4.250
%
G90
G05
T1
X140.62Y-56.046
X146.4Y-56.046
T2
X33.0Y-60.0
X33.0Y-222.5
X460.5Y-60.0
X460.5Y-222.5
T3
X36.163Y-107.982
X36.163Y-136.557
X38.544Y-193.707
X38.544Y-212.757
X40.926Y-155.607
X43.307Y-174.657
X46.323Y-107.982
X46.323Y-136.557
X48.704Y-193.707
X48.704Y-212.757
X51.086Y-155.607
X53.467Y-174.657
X55.213Y-136.557
X59.976Y-193.707
X62.357Y-212.757
X64.738Y-88.932
X64.738Y-107.982
X64.738Y-155.607
X65.373Y-136.557
X69.501Y-174.657
X70.136Y-193.707
X72.517Y-212.757
X74.263Y-136.557
X74.898Y-88.932
X74.898Y-107.982
X74.898Y-155.607
X79.026Y-193.707
X79.661Y-174.657
X83.788Y-88.932
X83.788Y-107.982
X83.788Y-155.607
X84.423Y-136.557
X86.169Y-212.757
X88.551Y-174.657
X89.186Y-193.707
X93.313Y-136.557
X93.948Y-88.932
X93.948Y-107.982
X93.948Y-155.607
X96.329Y-212.757
X98.076Y-193.707
X98.711Y-174.657
X102.838Y-88.932
X102.838Y-107.982
X102.838Y-155.607
X103.473Y-136.557
X107.601Y-174.657
X108.236Y-193.707
X112.363Y-136.557
X112.998Y-88.932
X112.998Y-107.982
X112.998Y-155.607
X117.12Y-212.75
X117.126Y-193.707
X117.761Y-174.657
X121.888Y-88.932
X121.888Y-155.607
X121.89Y-107.98
X122.523Y-136.557
X126.651Y-174.657
X127.28Y-212.75
X127.286Y-193.707
X131.413Y-136.557
X132.048Y-88.932
X132.048Y-155.607
X132.05Y-107.98
X136.176Y-193.707
X136.18Y-212.74
X136.811Y-174.657
X140.938Y-155.607
X141.573Y-136.557
X145.701Y-174.657
X146.336Y-193.707
X146.34Y-212.74
X150.463Y-136.557
X151.098Y-155.607
X155.226Y-193.707
X155.321Y-107.982
X155.321Y-88.932
X155.861Y-174.657
X157.607Y-212.757
X159.988Y-155.607
X160.623Y-136.557
X164.751Y-174.657
X165.386Y-193.707
X165.481Y-107.982
X165.481Y-88.932
X167.767Y-212.757
X169.513Y-136.557
X170.148Y-155.607
X174.276Y-193.707
X174.371Y-107.982
X174.371Y-88.932
X174.911Y-174.657
X179.038Y-155.607
X179.673Y-136.557
X183.795Y-174.675
X184.436Y-193.707
X184.531Y-107.982
X184.531Y-88.932
X188.563Y-136.557
X189.198Y-155.607
X193.32Y-212.75
X193.326Y-193.707
X193.421Y-88.932
X193.421Y-107.982
X193.955Y-174.675
X198.088Y-155.607
X198.723Y-136.557
X202.851Y-174.657
X203.48Y-212.75
X203.486Y-193.707
X203.581Y-88.932
X203.581Y-107.982
X207.613Y-136.557
X208.248Y-155.607
X212.376Y-193.707
X212.471Y-88.932
X212.471Y-107.982
X213.011Y-174.657
X217.138Y-155.607
X217.773Y-136.557
X221.901Y-174.657
X222.536Y-193.707
X222.631Y-88.932
X222.631Y-107.982
X226.663Y-136.557
X227.298Y-155.607
X229.044Y-212.757
X231.426Y-193.707
X232.061Y-174.657
X236.188Y-155.607
X236.823Y-136.557
X239.204Y-212.757
X240.951Y-174.657
X241.586Y-193.707
X245.713Y-107.982
X245.713Y-136.557
X245.713Y-88.932
X246.348Y-155.607
X250.476Y-193.707
X251.111Y-174.657
X252.857Y-212.757
X255.238Y-155.607
X255.873Y-107.982
X255.873Y-136.557
X255.873Y-88.932
X260.001Y-174.657
X260.636Y-193.707
X263.017Y-212.757
X264.763Y-88.932
X264.763Y-107.982
X264.763Y-136.557
X265.398Y-155.607
X270.161Y-174.657
X274.288Y-155.607
X274.923Y-88.932
X274.923Y-107.982
X274.923Y-136.557
X276.669Y-212.757
X279.051Y-174.657
X283.813Y-88.932
X283.813Y-107.982
X284.448Y-155.607
X286.195Y-193.707
X286.829Y-212.757
X289.211Y-174.657
X293.338Y-136.557
X293.973Y-88.932
X293.973Y-107.982
X296.354Y-193.707
X300.482Y-165.132
X300.482Y-212.757
X302.863Y-88.932
X302.863Y-107.982
X303.498Y-136.557
X310.642Y-165.132
X310.642Y-212.757
X313.023Y-88.932
X313.023Y-107.982
X326.676Y-212.788
X326.68Y-193.74
X326.707Y-69.85
X326.707Y-88.9
X326.707Y-107.95
X326.707Y-136.525
X326.707Y-155.575
X336.836Y-212.788
X336.84Y-193.74
X336.868Y-69.85
X336.868Y-88.9
X336.868Y-107.95
X336.868Y-136.525
X336.868Y-155.575
X345.726Y-193.738
X345.726Y-212.788
X345.757Y-69.85
X345.757Y-88.9
X345.757Y-107.95
X345.757Y-136.525
X345.757Y-155.575
X355.886Y-193.738
X355.886Y-212.788
X355.917Y-69.85
X355.917Y-88.9
X355.917Y-107.95
X355.917Y-136.525
X355.917Y-155.575
X364.77Y-193.725
X364.776Y-212.788
X364.808Y-88.9
X364.808Y-107.95
X364.808Y-136.525
X364.808Y-155.575
X374.93Y-193.725
X374.936Y-212.788
X374.967Y-88.9
X374.967Y-107.95
X374.967Y-136.525
X374.967Y-155.575
X388.588Y-136.588
X388.588Y-155.638
X388.588Y-174.689
X388.588Y-193.738
X398.113Y-212.788
X398.748Y-136.588
X398.748Y-155.638
X398.748Y-174.689
X398.748Y-193.738
X407.638Y-136.588
X407.638Y-155.638
X407.638Y-174.689
X407.638Y-193.738
X408.273Y-212.788
X417.798Y-136.588
X417.798Y-155.638
X417.798Y-174.689
X417.798Y-193.738
X426.688Y-136.588
X426.688Y-155.638
X426.688Y-174.689
X426.688Y-193.738
X426.688Y-212.788
X436.848Y-136.588
X436.848Y-155.638
X436.848Y-174.689
X436.848Y-193.738
X436.848Y-212.788
X445.738Y-136.588
X450.818Y-160.083
X450.818Y-170.243
X450.818Y-198.183
X450.818Y-208.343
X455.898Y-136.588
T4
X112.649Y-205.772
X212.725Y-205.772
X279.337Y-186.722
X286.48Y-129.572
X303.212Y-186.722
X310.356Y-129.572
X312.547Y-153.194
X312.547Y-177.07
X391.255Y-205.803
X415.131Y-205.803
X443.833Y-191.326
X443.833Y-215.201
X457.803Y-153.225
X457.803Y-177.101
T5
X41.243Y-107.982
X41.243Y-136.557
X43.624Y-193.707
X43.624Y-212.757
X46.006Y-155.607
X48.387Y-174.657
X60.293Y-136.557
X65.056Y-193.707
X67.437Y-212.757
X69.818Y-88.932
X69.818Y-107.982
X69.818Y-155.607
X74.581Y-174.657
X79.343Y-136.557
X84.106Y-193.707
X88.868Y-88.932
X88.868Y-107.982
X88.868Y-155.607
X91.249Y-212.757
X93.631Y-174.657
X98.393Y-136.557
X103.156Y-193.707
X107.918Y-88.932
X107.918Y-107.982
X107.918Y-155.607
X112.649Y-221.012
X112.681Y-174.657
X117.443Y-136.557
X122.2Y-212.75
X122.206Y-193.707
X126.968Y-88.932
X126.968Y-155.607
X126.97Y-107.98
X131.731Y-174.657
X136.493Y-136.557
X141.256Y-193.707
X141.26Y-212.74
X146.018Y-155.607
X150.781Y-174.657
X155.543Y-136.557
X160.306Y-193.707
X160.401Y-107.982
X160.401Y-88.932
X162.687Y-212.757
X165.068Y-155.607
X169.831Y-174.657
X174.593Y-136.557
X179.356Y-193.707
X179.451Y-107.982
X179.451Y-88.932
X184.118Y-155.607
X188.875Y-174.675
X193.643Y-136.557
X198.4Y-212.75
X198.406Y-193.707
X198.501Y-88.932
X198.501Y-107.982
X203.168Y-155.607
X207.931Y-174.657
X212.693Y-136.557
X212.725Y-221.012
X217.456Y-193.707
X217.551Y-88.932
X217.551Y-107.982
X222.218Y-155.607
X226.981Y-174.657
X231.743Y-136.557
X234.124Y-212.757
X236.506Y-193.707
X241.268Y-155.607
X246.031Y-174.657
X250.793Y-107.982
X250.793Y-136.557
X250.793Y-88.932
X255.556Y-193.707
X257.937Y-212.757
X260.318Y-155.607
X265.081Y-174.657
X269.843Y-88.932
X269.843Y-107.982
X269.843Y-136.557
X279.337Y-201.962
X279.368Y-155.607
X281.75Y-212.757
X284.131Y-174.657
X286.48Y-144.812
X288.893Y-88.932
X288.893Y-107.982
X291.274Y-193.707
X297.307Y-153.194
X297.307Y-177.07
X298.418Y-136.557
X303.212Y-201.962
X305.562Y-165.132
X305.562Y-212.757
X307.943Y-88.932
X307.943Y-107.982
X310.356Y-144.812
X331.756Y-212.788
X331.76Y-193.74
X331.787Y-69.85
X331.787Y-88.9
X331.787Y-107.95
X331.787Y-136.525
X331.787Y-155.575
X350.806Y-193.738
X350.806Y-212.788
X350.837Y-69.85
X350.837Y-88.9
X350.837Y-107.95
X350.837Y-136.525
X350.837Y-155.575
X369.85Y-193.725
X369.856Y-212.788
X369.887Y-88.9
X369.887Y-107.95
X369.887Y-136.525
X369.887Y-155.575
X391.255Y-221.043
X393.668Y-136.588
X393.668Y-155.638
X393.668Y-174.689
X393.668Y-193.738
X403.193Y-212.788
X412.718Y-136.588
X412.718Y-155.638
X412.718Y-174.689
X412.718Y-193.738
X415.131Y-221.043
X431.768Y-136.588
X431.768Y-155.638
X431.768Y-174.689
X431.768Y-193.738
X431.768Y-212.788
X442.563Y-153.225
X442.563Y-177.101
X450.818Y-136.588
X450.818Y-165.163
X450.818Y-203.263
X459.073Y-191.326
X459.073Y-215.201
T6
X41.1Y-113.65
X41.237Y-141.605
X43.651Y-198.74
X43.651Y-217.79
X46.063Y-160.641
X48.349Y-179.69
X60.287Y-141.605
X65.114Y-198.74
X67.4Y-217.79
X69.812Y-113.015
X69.812Y-160.641
X69.85Y-93.98
X74.638Y-179.69
X79.337Y-141.605
X84.163Y-198.74
X88.862Y-113.015
X88.862Y-160.641
X88.9Y-93.98
X91.275Y-217.79
X93.688Y-179.69
X98.387Y-141.605
X103.213Y-198.74
X107.912Y-113.015
X107.912Y-160.641
X107.95Y-93.98
X112.739Y-179.69
X117.438Y-141.59
X122.136Y-198.74
X126.8Y-217.8
X126.962Y-113.015
X126.962Y-160.641
X127.0Y-93.98
X131.661Y-179.69
X136.487Y-141.59
X141.186Y-198.74
X146.012Y-160.641
X150.712Y-179.69
X155.537Y-141.59
X160.237Y-198.74
X160.4Y-113.25
X160.49Y-94.093
X162.776Y-217.79
X165.062Y-160.641
X169.761Y-179.69
X174.588Y-141.59
X179.286Y-198.74
X179.45Y-113.25
X179.54Y-94.093
X184.112Y-160.641
X188.811Y-179.69
X193.637Y-141.59
X198.463Y-198.74
X198.5Y-113.25
X198.5Y-217.8
X198.59Y-94.093
X203.162Y-160.641
X207.988Y-179.69
X212.688Y-141.59
X217.513Y-198.74
X217.641Y-94.093
X217.65Y-113.25
X222.212Y-160.641
X227.038Y-179.69
X231.737Y-141.59
X234.15Y-217.79
X236.563Y-198.74
X241.262Y-160.641
X246.088Y-179.69
X250.787Y-93.965
X250.787Y-113.015
X250.787Y-141.59
X255.66Y-199.04
X257.937Y-217.79
X260.312Y-160.641
X265.138Y-179.69
X269.837Y-93.965
X269.837Y-113.015
X269.875Y-141.605
X279.35Y-160.55
X281.686Y-217.79
X284.188Y-179.69
X288.887Y-93.965
X288.887Y-113.015
X291.3Y-198.74
X298.412Y-141.59
X305.524Y-217.79
X305.562Y-170.673
X307.938Y-93.965
X307.938Y-113.015
X331.45Y-199.2
X331.813Y-74.915
X331.813Y-93.965
X331.813Y-113.015
X331.813Y-141.718
X331.813Y-160.641
X331.813Y-217.917
X350.78Y-198.82
X350.863Y-74.915
X350.863Y-93.965
X350.863Y-113.015
X350.863Y-141.718
X350.863Y-160.641
X350.863Y-217.917
X369.875Y-198.925
X369.913Y-93.965
X369.913Y-113.015
X369.913Y-141.718
X369.913Y-160.641
X369.913Y-217.917
X393.662Y-141.59
X393.662Y-160.767
X393.662Y-179.817
X393.76Y-198.82
X403.225Y-217.805
X412.712Y-141.59
X412.712Y-160.767
X412.712Y-179.817
X412.81Y-198.82
X431.762Y-141.59
X431.762Y-160.767
X431.762Y-179.817
X431.762Y-198.74
X431.762Y-217.917
X445.43Y-203.43
X445.59Y-165.43
X450.812Y-141.59
T0
M30
