M48
; DRILL file {KiCad (6.0.0-rc1-458-g78ff9a857a)} date Wed Jan 11 21:38:01 2023
; FORMAT={-:-/ absolute / metric / decimal}
; #@! TF.CreationDate,2023-01-11T21:38:01+01:00
; #@! TF.GenerationSoftware,Kicad,Pcbnew,(6.0.0-rc1-458-g78ff9a857a)
; #@! TF.FileFunction,NonPlated,1,2,NPTH
FMAT,2
METRIC
; #@! TA.AperFunction,NonPlated,NPTH,ComponentDrill
T1C0.650
; #@! TA.AperFunction,NonPlated,NPTH,ComponentDrill
T2C1.152
; #@! TA.AperFunction,NonPlated,NPTH,ComponentDrill
T3C1.702
; #@! TA.AperFunction,NonPlated,NPTH,ComponentDrill
T4C3.048
; #@! TA.AperFunction,NonPlated,NPTH,ComponentDrill
T5C3.988
; #@! TA.AperFunction,NonPlated,NPTH,ComponentDrill
T6C4.250
%
G90
G05
T1
X143.095Y-32.521
X148.875Y-32.521
T2
X35.475Y-36.475
X35.475Y-198.975
X462.975Y-36.475
X462.975Y-198.975
T3
X38.638Y-84.457
X38.638Y-113.032
X41.02Y-170.182
X41.02Y-189.232
X43.401Y-132.082
X45.782Y-151.132
X48.798Y-84.457
X48.798Y-113.032
X51.179Y-170.182
X51.179Y-189.232
X53.561Y-132.082
X55.942Y-151.132
X57.688Y-113.032
X62.451Y-170.182
X64.832Y-189.232
X67.213Y-65.407
X67.213Y-84.457
X67.213Y-132.082
X67.848Y-113.032
X71.976Y-151.132
X72.611Y-170.182
X74.992Y-189.232
X76.738Y-113.032
X77.373Y-65.407
X77.373Y-84.457
X77.373Y-132.082
X81.501Y-170.182
X82.136Y-151.132
X86.263Y-65.407
X86.263Y-84.457
X86.263Y-132.082
X86.898Y-113.032
X88.644Y-189.232
X91.026Y-151.132
X91.661Y-170.182
X95.788Y-113.032
X96.423Y-65.407
X96.423Y-84.457
X96.423Y-132.082
X98.804Y-189.232
X100.551Y-170.182
X101.186Y-151.132
X105.313Y-65.407
X105.313Y-84.457
X105.313Y-132.082
X105.948Y-113.032
X110.076Y-151.132
X110.711Y-170.182
X114.838Y-113.032
X115.473Y-65.407
X115.473Y-84.457
X115.473Y-132.082
X119.595Y-189.225
X119.601Y-170.182
X120.236Y-151.132
X124.363Y-65.407
X124.363Y-132.082
X124.365Y-84.455
X124.998Y-113.032
X129.126Y-151.132
X129.755Y-189.225
X129.761Y-170.182
X133.888Y-113.032
X134.523Y-65.407
X134.523Y-132.082
X134.525Y-84.455
X138.651Y-170.182
X138.655Y-189.215
X139.286Y-151.132
X143.413Y-132.082
X144.048Y-113.032
X148.176Y-151.132
X148.811Y-170.182
X148.815Y-189.215
X152.938Y-113.032
X153.573Y-132.082
X157.701Y-170.182
X157.796Y-84.457
X157.796Y-65.407
X158.336Y-151.132
X160.082Y-189.232
X162.463Y-132.082
X163.098Y-113.032
X167.226Y-151.132
X167.861Y-170.182
X167.956Y-84.457
X167.956Y-65.407
X170.242Y-189.232
X171.988Y-113.032
X172.623Y-132.082
X176.751Y-170.182
X176.846Y-84.457
X176.846Y-65.407
X177.386Y-151.132
X181.513Y-132.082
X182.148Y-113.032
X186.27Y-151.15
X186.911Y-170.182
X187.006Y-84.457
X187.006Y-65.407
X191.038Y-113.032
X191.673Y-132.082
X195.795Y-189.225
X195.801Y-170.182
X195.896Y-65.407
X195.896Y-84.457
X196.43Y-151.15
X200.563Y-132.082
X201.198Y-113.032
X205.326Y-151.132
X205.955Y-189.225
X205.961Y-170.182
X206.056Y-65.407
X206.056Y-84.457
X210.088Y-113.032
X210.723Y-132.082
X214.851Y-170.182
X214.946Y-65.407
X214.946Y-84.457
X215.486Y-151.132
X219.613Y-132.082
X220.248Y-113.032
X224.376Y-151.132
X225.011Y-170.182
X225.106Y-65.407
X225.106Y-84.457
X229.138Y-113.032
X229.773Y-132.082
X231.519Y-189.232
X233.901Y-170.182
X234.536Y-151.132
X238.663Y-132.082
X239.298Y-113.032
X241.679Y-189.232
X243.426Y-151.132
X244.061Y-170.182
X248.188Y-84.457
X248.188Y-113.032
X248.188Y-65.407
X248.823Y-132.082
X252.951Y-170.182
X253.586Y-151.132
X255.332Y-189.232
X257.713Y-132.082
X258.348Y-84.457
X258.348Y-113.032
X258.348Y-65.407
X262.476Y-151.132
X263.111Y-170.182
X265.492Y-189.232
X267.238Y-65.407
X267.238Y-84.457
X267.238Y-113.032
X267.873Y-132.082
X272.636Y-151.132
X276.763Y-132.082
X277.398Y-65.407
X277.398Y-84.457
X277.398Y-113.032
X279.144Y-189.232
X281.526Y-151.132
X286.288Y-65.407
X286.288Y-84.457
X286.923Y-132.082
X288.669Y-170.182
X289.304Y-189.232
X291.686Y-151.132
X295.813Y-113.032
X296.448Y-65.407
X296.448Y-84.457
X298.829Y-170.182
X302.957Y-141.607
X302.957Y-189.232
X305.338Y-65.407
X305.338Y-84.457
X305.973Y-113.032
X313.117Y-141.607
X313.117Y-189.232
X315.498Y-65.407
X315.498Y-84.457
X329.151Y-189.263
X329.155Y-170.215
X329.183Y-46.325
X329.183Y-65.375
X329.183Y-84.425
X329.183Y-113.0
X329.183Y-132.05
X339.311Y-189.263
X339.315Y-170.215
X339.342Y-46.325
X339.342Y-65.375
X339.342Y-84.425
X339.342Y-113.0
X339.342Y-132.05
X348.201Y-170.213
X348.201Y-189.263
X348.232Y-46.325
X348.232Y-65.375
X348.232Y-84.425
X348.232Y-113.0
X348.232Y-132.05
X358.361Y-170.213
X358.361Y-189.263
X358.392Y-46.325
X358.392Y-65.375
X358.392Y-84.425
X358.392Y-113.0
X358.392Y-132.05
X367.245Y-170.2
X367.251Y-189.263
X367.282Y-65.375
X367.282Y-84.425
X367.282Y-113.0
X367.282Y-132.05
X377.405Y-170.2
X377.411Y-189.263
X377.442Y-65.375
X377.442Y-84.425
X377.442Y-113.0
X377.442Y-132.05
X391.063Y-113.063
X391.063Y-132.113
X391.063Y-151.163
X391.063Y-170.213
X400.588Y-189.263
X401.223Y-113.063
X401.223Y-132.113
X401.223Y-151.163
X401.223Y-170.213
X410.113Y-113.063
X410.113Y-132.113
X410.113Y-151.163
X410.113Y-170.213
X410.748Y-189.263
X420.273Y-113.063
X420.273Y-132.113
X420.273Y-151.163
X420.273Y-170.213
X429.163Y-113.063
X429.163Y-132.113
X429.163Y-151.163
X429.163Y-170.213
X429.163Y-189.263
X439.323Y-113.063
X439.323Y-132.113
X439.323Y-151.163
X439.323Y-170.213
X439.323Y-189.263
X448.213Y-113.063
X453.293Y-136.558
X453.293Y-146.719
X453.293Y-174.659
X453.293Y-184.819
X458.373Y-113.063
T4
X115.124Y-182.247
X215.2Y-182.247
X281.811Y-163.197
X288.955Y-106.047
X305.688Y-163.197
X312.831Y-106.047
X315.022Y-129.669
X315.022Y-153.545
X393.73Y-182.278
X417.606Y-182.278
X446.308Y-167.8
X446.308Y-191.677
X460.278Y-129.701
X460.278Y-153.576
T5
X43.718Y-84.457
X43.718Y-113.032
X46.099Y-170.182
X46.099Y-189.232
X48.481Y-132.082
X50.862Y-151.132
X62.768Y-113.032
X67.531Y-170.182
X69.912Y-189.232
X72.293Y-65.407
X72.293Y-84.457
X72.293Y-132.082
X77.056Y-151.132
X81.818Y-113.032
X86.581Y-170.182
X91.343Y-65.407
X91.343Y-84.457
X91.343Y-132.082
X93.724Y-189.232
X96.106Y-151.132
X100.868Y-113.032
X105.631Y-170.182
X110.393Y-65.407
X110.393Y-84.457
X110.393Y-132.082
X115.124Y-197.487
X115.156Y-151.132
X119.918Y-113.032
X124.675Y-189.225
X124.681Y-170.182
X129.443Y-65.407
X129.443Y-132.082
X129.445Y-84.455
X134.206Y-151.132
X138.968Y-113.032
X143.731Y-170.182
X143.735Y-189.215
X148.493Y-132.082
X153.256Y-151.132
X158.018Y-113.032
X162.781Y-170.182
X162.876Y-84.457
X162.876Y-65.407
X165.162Y-189.232
X167.543Y-132.082
X172.306Y-151.132
X177.068Y-113.032
X181.831Y-170.182
X181.926Y-84.457
X181.926Y-65.407
X186.593Y-132.082
X191.35Y-151.15
X196.118Y-113.032
X200.875Y-189.225
X200.881Y-170.182
X200.976Y-65.407
X200.976Y-84.457
X205.643Y-132.082
X210.406Y-151.132
X215.168Y-113.032
X215.2Y-197.487
X219.931Y-170.182
X220.026Y-65.407
X220.026Y-84.457
X224.693Y-132.082
X229.456Y-151.132
X234.218Y-113.032
X236.599Y-189.232
X238.981Y-170.182
X243.743Y-132.082
X248.506Y-151.132
X253.268Y-84.457
X253.268Y-113.032
X253.268Y-65.407
X258.031Y-170.182
X260.412Y-189.232
X262.793Y-132.082
X267.556Y-151.132
X272.318Y-65.407
X272.318Y-84.457
X272.318Y-113.032
X281.811Y-178.437
X281.843Y-132.082
X284.224Y-189.232
X286.606Y-151.132
X288.955Y-121.287
X291.368Y-65.407
X291.368Y-84.457
X293.75Y-170.182
X299.782Y-129.669
X299.782Y-153.545
X300.893Y-113.032
X305.688Y-178.437
X308.037Y-141.607
X308.037Y-189.232
X310.418Y-65.407
X310.418Y-84.457
X312.831Y-121.287
X334.231Y-189.263
X334.235Y-170.215
X334.262Y-46.325
X334.262Y-65.375
X334.262Y-84.425
X334.262Y-113.0
X334.262Y-132.05
X353.281Y-170.213
X353.281Y-189.263
X353.312Y-46.325
X353.312Y-65.375
X353.312Y-84.425
X353.312Y-113.0
X353.312Y-132.05
X372.325Y-170.2
X372.331Y-189.263
X372.363Y-65.375
X372.363Y-84.425
X372.363Y-113.0
X372.363Y-132.05
X393.73Y-197.518
X396.143Y-113.063
X396.143Y-132.113
X396.143Y-151.163
X396.143Y-170.213
X405.668Y-189.263
X415.193Y-113.063
X415.193Y-132.113
X415.193Y-151.163
X415.193Y-170.213
X417.606Y-197.518
X434.243Y-113.063
X434.243Y-132.113
X434.243Y-151.163
X434.243Y-170.213
X434.243Y-189.263
X445.038Y-129.701
X445.038Y-153.576
X453.293Y-113.063
X453.293Y-141.638
X453.293Y-179.738
X461.548Y-167.8
X461.548Y-191.677
T6
X43.575Y-90.125
X43.712Y-118.08
X46.125Y-175.215
X46.125Y-194.266
X48.538Y-137.115
X50.825Y-156.165
X62.762Y-118.08
X67.588Y-175.215
X69.874Y-194.266
X72.287Y-89.49
X72.287Y-137.115
X72.325Y-70.455
X77.114Y-156.165
X81.812Y-118.08
X86.638Y-175.215
X91.337Y-89.49
X91.337Y-137.115
X91.375Y-70.455
X93.751Y-194.266
X96.163Y-156.165
X100.862Y-118.08
X105.688Y-175.215
X110.387Y-89.49
X110.387Y-137.115
X110.425Y-70.455
X115.213Y-156.165
X119.912Y-118.066
X124.611Y-175.215
X129.275Y-194.275
X129.438Y-89.49
X129.438Y-137.115
X129.475Y-70.455
X134.136Y-156.165
X138.963Y-118.066
X143.661Y-175.215
X148.487Y-137.115
X153.186Y-156.165
X158.012Y-118.066
X162.712Y-175.215
X162.875Y-89.725
X162.965Y-70.567
X165.251Y-194.266
X167.537Y-137.115
X172.236Y-156.165
X177.062Y-118.066
X181.761Y-175.215
X181.925Y-89.725
X182.016Y-70.567
X186.588Y-137.115
X191.286Y-156.165
X196.112Y-118.066
X200.939Y-175.215
X200.975Y-89.725
X200.975Y-194.275
X201.065Y-70.567
X205.637Y-137.115
X210.463Y-156.165
X215.162Y-118.066
X219.988Y-175.215
X220.115Y-70.567
X220.125Y-89.725
X224.688Y-137.115
X229.513Y-156.165
X234.212Y-118.066
X236.625Y-194.266
X239.038Y-175.215
X243.737Y-137.115
X248.563Y-156.165
X253.262Y-70.441
X253.262Y-89.49
X253.262Y-118.066
X258.135Y-175.515
X260.412Y-194.266
X262.787Y-137.115
X267.613Y-156.165
X272.312Y-70.441
X272.312Y-89.49
X272.35Y-118.08
X281.825Y-137.025
X284.161Y-194.266
X286.663Y-156.165
X291.363Y-70.441
X291.363Y-89.49
X293.775Y-175.215
X300.887Y-118.066
X308.0Y-194.266
X308.037Y-147.148
X310.412Y-70.441
X310.412Y-89.49
X333.925Y-175.675
X334.288Y-51.39
X334.288Y-70.441
X334.288Y-89.49
X334.288Y-118.192
X334.288Y-137.115
X334.288Y-194.392
X353.255Y-175.295
X353.339Y-51.39
X353.339Y-70.441
X353.339Y-89.49
X353.339Y-118.192
X353.339Y-137.115
X353.339Y-194.392
X372.35Y-175.4
X372.388Y-70.441
X372.388Y-89.49
X372.388Y-118.192
X372.388Y-137.115
X372.388Y-194.392
X396.137Y-118.066
X396.137Y-137.243
X396.137Y-156.292
X396.235Y-175.295
X405.7Y-194.28
X415.188Y-118.066
X415.188Y-137.243
X415.188Y-156.292
X415.285Y-175.295
X434.237Y-118.066
X434.237Y-137.243
X434.237Y-156.292
X434.237Y-175.215
X434.237Y-194.392
X447.905Y-179.905
X448.065Y-141.905
X453.287Y-118.066
T0
M30
